<svg width="31" height="31" viewBox="0 0 31 31" fill="none" xmlns="http://www.w3.org/2000/svg">
<circle cx="15.1575" cy="15.1575" r="15.1575" fill="#FF5D39"/>
<path d="M13.7927 8.84352C14.9265 8.84352 15.8324 9.15475 16.5105 9.77722C17.1996 10.3997 17.5442 11.25 17.5442 12.3282C17.5442 13.4509 17.1885 14.2957 16.4771 14.8626C15.7657 15.4294 14.8209 15.7129 13.6427 15.7129L13.576 17.0301H11.9253L11.842 14.4124H12.3922C13.4704 14.4124 14.2929 14.2679 14.8598 13.9789C15.4378 13.6899 15.7268 13.1397 15.7268 12.3282C15.7268 11.7391 15.5545 11.2778 15.21 10.9443C14.8765 10.6109 14.4096 10.4441 13.8094 10.4441C13.2092 10.4441 12.7368 10.6053 12.3922 10.9277C12.0476 11.25 11.8753 11.7002 11.8753 12.2782H10.0913C10.0913 11.6113 10.2413 11.0166 10.5414 10.4942C10.8416 9.97174 11.2695 9.56603 11.8253 9.27702C12.3922 8.98802 13.048 8.84352 13.7927 8.84352ZM12.7256 20.7149C12.3811 20.7149 12.0921 20.5981 11.8586 20.3647C11.6252 20.1313 11.5085 19.8423 11.5085 19.4977C11.5085 19.1531 11.6252 18.8641 11.8586 18.6307C12.0921 18.3973 12.3811 18.2806 12.7256 18.2806C13.0591 18.2806 13.3426 18.3973 13.576 18.6307C13.8094 18.8641 13.9261 19.1531 13.9261 19.4977C13.9261 19.8423 13.8094 20.1313 13.576 20.3647C13.3426 20.5981 13.0591 20.7149 12.7256 20.7149Z" fill="#EAEBF0"/>
</svg>
