<svg width="690" height="376" viewBox="0 0 690 376" fill="none" xmlns="http://www.w3.org/2000/svg">
<mask id="mask0_4_1990" style="mask-type:alpha" maskUnits="userSpaceOnUse" x="0" y="0" width="690" height="376">
<rect width="690" height="376" rx="30" fill="#1C202D"/>
</mask>
<g mask="url(#mask0_4_1990)">
<g opacity="0.3">
<path d="M841.509 191.995C863.78 170.067 887.321 145.829 912.374 120.032C912.375 120.031 912.377 120.029 912.378 120.028L912.412 119.991L912.42 119.983C963.307 67.5822 1020.41 8.77971 1085.68 -50.0272C1090.41 -54.284 1095.06 -58.3244 1099.65 -62.1601L1099.65 -62.1659L1099.66 -62.1716C1127.28 -83.8104 1153.46 -101.183 1178.3 -112.368L1178.31 -112.373C1205.02 -123.707 1227.99 -127.093 1247.04 -125.713L1247.05 -125.712L1247.07 -125.71C1267.29 -123.329 1286.49 -114.373 1304.73 -97.4945L1304.74 -97.4978L1304.65 -97.6217L1304.62 -97.6649L1304.59 -97.7132C1255.35 -201.784 1200.17 -257.28 1146.63 -284.709C1093.09 -312.137 1041.11 -311.54 998.185 -303.272C992.4 -302.156 986.857 -301.176 981.539 -300.322C967.791 -296.114 953.147 -293.844 937.953 -293.844C858.556 -293.844 794.156 -355.841 794.156 -432.36C794.156 -508.879 858.556 -570.873 937.953 -570.873C968.024 -570.873 995.942 -561.982 1019.02 -546.777C1019.39 -546.632 1019.75 -546.486 1020.12 -546.339C994.511 -575.176 967.086 -603.947 937.806 -632.149C861.516 -705.622 771.08 -757.17 674.94 -786.78C674.938 -786.78 674.937 -786.78 674.936 -786.781L650.48 -793.808C650.479 -793.809 650.478 -793.809 650.477 -793.809C430.591 -852.516 185.102 -798.626 12.2515 -632.152L12.2291 -632.13L12.2043 -632.111C-49.4544 -584.514 -99.0691 -521.765 -134.564 -450.599L-134.57 -450.588C-175.752 -372.598 -198.967 -284.333 -198.967 -190.842C-198.967 -56.8382 -151.272 66.4373 -71.3356 164.097C-71.3008 164.022 -71.2659 163.946 -71.2311 163.871L-70.8479 163.041L-70.27 163.749C-60.3275 175.927 -49.8836 187.708 -38.9677 199.06L-38.6242 199.418L-38.9293 199.808L-39.2162 200.175C69.5516 312.627 224.657 382.957 396.825 382.957L397.382 382.957L397.93 382.957C574.158 382.957 732.497 309.208 841.492 192.013L841.501 192.004L841.509 191.995Z" stroke="url(#paint0_linear_4_1990)" stroke-width="1.14245"/>
<path d="M-232.355 -162.544C-232.355 -46.5934 -190.724 60.0785 -120.944 144.599C-120.93 144.567 -120.915 144.536 -120.9 144.505L-120.518 143.684L-119.942 144.383C-111.257 154.925 -102.135 165.122 -92.6 174.949L-92.2517 175.307L-92.5614 175.7L-92.7688 175.963C2.23587 273.273 137.699 334.131 288.063 334.131L288.55 334.131L289.029 334.131C442.965 334.131 581.273 270.292 676.479 168.848L676.487 168.839L676.496 168.83C695.951 149.848 716.515 128.866 738.402 106.533C738.403 106.531 738.405 106.53 738.407 106.528L738.435 106.497L738.443 106.489C782.898 61.1247 832.79 10.2162 889.811 -40.6963C893.938 -44.3821 898.007 -47.8805 902.013 -51.2017L902.02 -51.2075L902.027 -51.2132C926.159 -69.9482 949.03 -84.9914 970.741 -94.6781L970.753 -94.6829C994.092 -104.499 1014.17 -107.433 1030.83 -106.237L1030.84 -106.236L1030.85 -106.235C1048.42 -104.185 1065.09 -96.5172 1080.94 -82.0918C1037.95 -172.044 989.79 -220.019 943.07 -243.738C896.317 -267.474 850.924 -266.959 813.432 -259.803C808.378 -258.836 803.537 -257.988 798.892 -257.249C786.876 -253.605 774.077 -251.639 760.799 -251.639C691.405 -251.639 635.104 -305.338 635.104 -371.632C635.104 -437.927 691.405 -491.623 760.799 -491.623C787.08 -491.623 811.481 -483.924 831.656 -470.755C831.874 -470.669 832.092 -470.583 832.311 -470.496C810.003 -495.378 786.118 -520.202 760.622 -544.537C693.984 -608.136 614.989 -652.757 531.01 -678.388C531.008 -678.388 531.007 -678.389 531.005 -678.389L509.642 -684.473C509.641 -684.473 509.64 -684.473 509.639 -684.474C317.565 -735.292 103.128 -688.642 -47.8562 -544.54L-47.8788 -544.518L-47.9036 -544.5C-101.76 -503.301 -145.097 -448.987 -176.101 -387.387L-176.107 -387.375C-212.078 -319.868 -232.355 -243.468 -232.355 -162.544Z" stroke="url(#paint1_linear_4_1990)" stroke-width="1.14245"/>
<path d="M-138.753 144.884L-138.39 144.084L-137.808 144.81C-130.418 154.029 -122.655 162.948 -114.541 171.542L-114.207 171.896L-114.503 172.282L-114.647 172.469C-33.8052 257.551 81.4482 310.756 209.375 310.756L209.789 310.756L210.197 310.756C341.182 310.756 458.872 254.927 539.887 166.207L539.896 166.197L539.905 166.189C556.462 149.585 573.964 131.231 592.592 111.696C592.593 111.694 592.594 111.693 592.595 111.692L592.619 111.666L592.626 111.658C630.462 71.9764 672.927 27.4433 721.46 -17.0935C724.973 -20.3182 728.436 -23.3791 731.847 -26.2849L731.854 -26.2909L731.861 -26.2966C752.401 -42.6866 771.874 -55.8503 790.362 -64.328L790.373 -64.3329C810.249 -72.9242 827.352 -75.4946 841.548 -74.4472L841.561 -74.4463L841.574 -74.4447C856.43 -72.6628 870.535 -66.0342 883.942 -53.593C847.398 -132.036 806.487 -173.888 766.806 -194.592C727.039 -215.341 688.43 -214.892 656.534 -208.635C652.235 -207.79 648.116 -207.048 644.164 -206.402C633.93 -203.213 623.029 -201.492 611.72 -201.492C552.6 -201.492 504.656 -248.508 504.656 -306.526C504.656 -364.544 552.6 -411.557 611.72 -411.557C634.104 -411.557 654.887 -404.818 672.071 -393.293C672.152 -393.26 672.232 -393.227 672.313 -393.195C653.386 -414.881 633.126 -436.515 611.505 -457.725C554.798 -513.348 487.578 -552.371 416.118 -574.787C416.116 -574.788 416.114 -574.788 416.113 -574.789L397.935 -580.109C397.933 -580.11 397.932 -580.11 397.93 -580.11C234.49 -624.553 52.018 -583.756 -76.4622 -457.727L-76.4845 -457.705L-76.5092 -457.686C-122.335 -421.657 -159.213 -374.156 -185.596 -320.28L-185.602 -320.268C-216.213 -261.227 -233.469 -194.407 -233.469 -123.629C-233.469 -22.2692 -198.078 70.9824 -138.753 144.884Z" stroke="url(#paint2_linear_4_1990)" stroke-width="1.14245"/>
<path d="M-112.299 3.79962C-112.299 69.9619 -89.2722 130.84 -50.6596 179.124L-50.4224 178.6L-49.8405 179.327C-45.0153 185.356 -39.9468 191.188 -34.6491 196.807L-34.3159 197.16L-34.603 197.535C18.1747 253.098 93.3774 287.838 176.843 287.838L177.114 287.838L177.38 287.838C262.905 287.838 339.748 251.332 392.644 193.318L392.652 193.309L392.661 193.3C403.477 182.438 414.91 170.431 427.081 157.648C427.082 157.646 427.084 157.645 427.085 157.644L427.097 157.63L427.105 157.622C451.825 131.657 479.575 102.513 511.29 73.3652C513.587 71.2535 515.852 69.2491 518.082 67.3461L518.089 67.3401L518.096 67.3344C531.523 56.6052 544.26 47.9805 556.36 42.4238L556.36 42.4236L556.372 42.4186C569.383 36.7862 580.59 35.0966 589.901 35.7847L589.914 35.7856L589.927 35.7872C599.409 36.9262 608.418 41.0773 616.985 48.8096C593.228 -1.91269 566.685 -29.0169 540.961 -42.459C515.03 -56.009 489.853 -55.7175 469.042 -51.6291C466.236 -51.0769 463.547 -50.5916 460.967 -50.1689C454.266 -48.079 447.128 -46.9518 439.723 -46.9518C400.99 -46.9518 369.573 -77.8014 369.573 -115.877C369.573 -153.952 400.99 -184.8 439.723 -184.8C453.968 -184.8 467.223 -180.629 478.29 -173.46C466.177 -187.311 453.234 -201.124 439.444 -214.672C402.417 -251.045 358.525 -276.564 311.865 -291.222C311.863 -291.223 311.862 -291.223 311.86 -291.224L299.991 -294.703C299.989 -294.703 299.987 -294.704 299.985 -294.704C193.264 -323.766 74.1172 -297.086 -9.77463 -214.673L-9.79697 -214.651L-9.82156 -214.632C-39.7373 -191.077 -63.8141 -160.019 -81.0406 -124.79L-81.0467 -124.778C-101.032 -86.1725 -112.299 -42.4804 -112.299 3.79962Z" stroke="url(#paint3_linear_4_1990)" stroke-width="1.14245"/>
<path d="M-75.7275 73.3661C-75.7275 120.961 -59.0712 164.763 -31.1293 199.533L-30.9571 199.155L-30.3766 199.875C-26.873 204.22 -23.1927 208.424 -19.346 212.474L-19.0091 212.828L-19.2173 213.099C19.1008 253.088 73.6676 278.087 134.227 278.087L134.423 278.087L134.617 278.087C196.721 278.087 252.519 251.773 290.928 209.959L290.936 209.95L290.945 209.941C298.803 202.108 307.109 193.449 315.953 184.228C315.954 184.227 315.956 184.226 315.957 184.224L315.964 184.216L315.972 184.209C333.935 165.48 354.103 144.454 377.154 123.426C378.825 121.901 380.472 120.454 382.094 119.08L382.101 119.074L382.108 119.069C391.869 111.326 401.136 105.096 409.945 101.081L409.945 101.081L409.956 101.076C419.431 97.0046 427.599 95.7802 434.393 96.2785L434.406 96.2794L434.419 96.281C441.133 97.0816 447.519 99.9352 453.594 105.208C436.424 69.089 417.283 49.7554 398.748 40.1411C379.945 30.3882 361.688 30.5963 346.587 33.541C344.55 33.9389 342.598 34.2887 340.725 34.5934C335.843 36.1034 330.645 36.9177 325.253 36.9177C297.027 36.9177 274.121 14.6008 274.121 -12.9579C274.121 -40.5166 297.027 -62.8324 325.253 -62.8324C335.24 -62.8324 344.56 -60.0395 352.436 -55.209C343.846 -64.9214 334.685 -74.6037 324.942 -84.1049C298.055 -110.323 266.183 -128.717 232.299 -139.283C232.297 -139.284 232.295 -139.285 232.293 -139.285L223.674 -141.793C223.672 -141.794 223.669 -141.794 223.667 -141.795C146.166 -162.743 59.6442 -143.51 -1.27483 -84.1059L-1.29723 -84.0841L-1.32185 -84.0648C-23.0401 -67.0903 -40.5214 -44.7077 -53.0298 -19.3157L-53.0359 -19.304C-67.5472 8.52056 -75.7275 40.0106 -75.7275 73.3661Z" stroke="url(#paint4_linear_4_1990)" stroke-width="1.14245"/>
<path d="M-63.5267 117.695C-63.5267 148.647 -52.1543 177.144 -33.0581 199.797L-32.9399 199.552L-32.3707 200.222C-29.9634 203.057 -27.4346 205.8 -24.7914 208.442L-24.4272 208.807L-24.5699 208.982C1.75384 235 39.2003 251.264 80.7588 251.264L80.8942 251.264L81.0273 251.264C123.718 251.264 162.067 234.087 188.46 206.802L188.468 206.793L188.477 206.784C193.882 201.668 199.595 196.012 205.68 189.987C205.682 189.986 205.683 189.985 205.684 189.983L205.687 189.981L205.687 189.981L205.694 189.973C218.054 177.736 231.935 163.993 247.801 150.249C248.953 149.251 250.088 148.304 251.206 147.405L251.213 147.399L251.22 147.394C257.942 142.33 264.33 138.251 270.409 135.62L270.409 135.619L270.42 135.615C276.96 132.946 282.605 132.141 287.306 132.469L287.319 132.47L287.331 132.471C291.744 132.971 295.95 134.686 299.958 137.817C288.261 114.747 275.267 102.358 262.697 96.1667C249.801 89.8147 237.277 89.9482 226.907 91.8684C225.508 92.1279 224.167 92.3562 222.879 92.5552C219.509 93.5443 215.92 94.0774 212.199 94.0774C192.712 94.0774 176.838 79.4385 176.838 61.2903C176.838 43.1421 192.712 28.5038 212.199 28.5038C218.658 28.5038 224.716 30.1097 229.931 32.9171C224.269 26.8789 218.252 20.8629 211.871 14.9541C193.393 -2.15634 171.487 -14.1628 148.195 -21.0605C148.194 -21.061 148.192 -21.0614 148.191 -21.0619L142.266 -22.6989C142.264 -22.6994 142.262 -22.6999 142.26 -22.7003C88.98 -36.3759 29.5055 -23.8164 -12.3623 14.9534L-12.3851 14.9745L-12.41 14.993C-27.3298 26.0666 -39.3394 40.6684 -47.9327 57.2342L-47.9392 57.246C-57.9081 75.3978 -63.5267 95.9386 -63.5267 117.695Z" stroke="url(#paint5_linear_4_1990)" stroke-width="1.14245"/>
</g>
</g>
<defs>
<linearGradient id="paint0_linear_4_1990" x1="1306.47" y1="-216.905" x2="593.416" y2="-216.905" gradientUnits="userSpaceOnUse">
<stop stop-color="#8D8F96"/>
<stop offset="1" stop-color="#8D8F96" stop-opacity="0"/>
</linearGradient>
<linearGradient id="paint1_linear_4_1990" x1="961.104" y1="-230.564" x2="-115.429" y2="195.775" gradientUnits="userSpaceOnUse">
<stop stop-color="#8D8F96"/>
<stop offset="1" stop-color="#8D8F96" stop-opacity="0"/>
</linearGradient>
<linearGradient id="paint2_linear_4_1990" x1="885.721" y1="-143.366" x2="-65.5551" y2="81.1749" gradientUnits="userSpaceOnUse">
<stop stop-color="#8D8F96"/>
<stop offset="1" stop-color="#8D8F96" stop-opacity="0"/>
</linearGradient>
<linearGradient id="paint3_linear_4_1990" x1="618.747" y1="-9.11499" x2="114.355" y2="277.935" gradientUnits="userSpaceOnUse">
<stop stop-color="#8D8F96"/>
<stop offset="1" stop-color="#8D8F96" stop-opacity="0"/>
</linearGradient>
<linearGradient id="paint4_linear_4_1990" x1="455.343" y1="64.0506" x2="103.224" y2="157.166" gradientUnits="userSpaceOnUse">
<stop stop-color="#8D8F96"/>
<stop offset="1" stop-color="#8D8F96" stop-opacity="0"/>
</linearGradient>
<linearGradient id="paint5_linear_4_1990" x1="301.711" y1="111.608" x2="87.6409" y2="179.984" gradientUnits="userSpaceOnUse">
<stop stop-color="#8D8F96"/>
<stop offset="1" stop-color="#8D8F96" stop-opacity="0"/>
</linearGradient>
</defs>
</svg>
