<svg width="12" height="12" viewBox="0 0 12 12" fill="none" xmlns="http://www.w3.org/2000/svg">
<g clip-path="url(#clip0_1102_14850)">
<path d="M6 0.5C4.91221 0.5 3.84884 0.822569 2.94437 1.42692C2.0399 2.03127 1.33495 2.89025 0.918665 3.89524C0.502383 4.90024 0.393465 6.0061 0.605683 7.073C0.817902 8.13989 1.34173 9.1199 2.11092 9.88909C2.8801 10.6583 3.86011 11.1821 4.92701 11.3943C5.9939 11.6065 7.09977 11.4976 8.10476 11.0813C9.10976 10.6651 9.96874 9.96011 10.5731 9.05564C11.1774 8.15117 11.5 7.0878 11.5 6C11.4983 4.54184 10.9183 3.14389 9.88719 2.11281C8.85611 1.08174 7.45817 0.50172 6 0.5ZM6 10.5C5.10999 10.5 4.23996 10.2361 3.49994 9.74161C2.75992 9.24715 2.18314 8.54434 1.84254 7.72208C1.50195 6.89981 1.41284 5.99501 1.58647 5.12209C1.7601 4.24918 2.18869 3.44736 2.81802 2.81802C3.44736 2.18868 4.24918 1.7601 5.1221 1.58647C5.99501 1.41283 6.89981 1.50195 7.72208 1.84254C8.54434 2.18314 9.24715 2.75991 9.74162 3.49993C10.2361 4.23996 10.5 5.10998 10.5 6C10.4985 7.19303 10.024 8.33678 9.18038 9.18037C8.33678 10.024 7.19303 10.4985 6 10.5Z" fill="#696B77"/>
<path d="M6.5 5.793V3C6.5 2.86739 6.44732 2.74021 6.35355 2.64645C6.25979 2.55268 6.13261 2.5 6 2.5C5.86739 2.5 5.74021 2.55268 5.64645 2.64645C5.55268 2.74021 5.5 2.86739 5.5 3V6C5.50003 6.1326 5.55273 6.25975 5.6465 6.3535L7.1465 7.8535C7.2408 7.94458 7.3671 7.99498 7.4982 7.99384C7.6293 7.9927 7.75471 7.94011 7.84741 7.84741C7.94011 7.75471 7.9927 7.6293 7.99384 7.4982C7.99498 7.3671 7.94458 7.2408 7.8535 7.1465L6.5 5.793Z" fill="#696B77"/>
</g>
<defs>
<clipPath id="clip0_1102_14850">
<rect width="12" height="12" fill="white"/>
</clipPath>
</defs>
</svg>