<svg width="33" height="47" viewBox="0 0 33 47" fill="none" xmlns="http://www.w3.org/2000/svg">
<path d="M7.68769 19.5833H13.5627C14.1039 19.5833 14.5419 19.1453 14.5419 18.6041V12.7291C14.5419 12.1878 14.1039 11.7499 13.5627 11.7499H7.68769C7.14646 11.7499 6.7085 12.1878 6.7085 12.7291V18.6041C6.7085 19.1454 7.14646 19.5833 7.68769 19.5833Z" fill="#EAEBF0" fill-opacity="0.4"/>
<path d="M18.4585 18.6042C18.4585 19.1454 18.8965 19.5834 19.4377 19.5834H25.3127C25.8539 19.5834 26.2919 19.1454 26.2919 18.6042V12.7292C26.2919 12.188 25.8539 11.75 25.3127 11.75H19.4377C18.8965 11.75 18.4585 12.188 18.4585 12.7292V18.6042Z" fill="#EAEBF0" fill-opacity="0.4"/>
<path d="M7.68769 31.3333H13.5627C14.1039 31.3333 14.5419 30.8953 14.5419 30.3541V24.4791C14.5419 23.9378 14.1039 23.4999 13.5627 23.4999H7.68769C7.14646 23.4999 6.7085 23.9378 6.7085 24.4791V30.3541C6.7085 30.8954 7.14646 31.3333 7.68769 31.3333Z" fill="#EAEBF0" fill-opacity="0.4"/>
<path d="M25.3127 23.5H19.4377C18.8965 23.5 18.4585 23.938 18.4585 24.4792V30.3542C18.4585 30.8954 18.8965 31.3334 19.4377 31.3334H25.3127C25.8539 31.3334 26.2919 30.8954 26.2919 30.3542V24.4792C26.2919 23.938 25.8539 23.5 25.3127 23.5Z" fill="#EAEBF0" fill-opacity="0.4"/>
<path d="M15.5207 7.83327H17.479C18.0202 7.83327 18.4582 7.39531 18.4582 6.85408C18.4582 6.31284 18.0202 5.87488 17.479 5.87488H15.5207C14.9795 5.87488 14.5415 6.31284 14.5415 6.85408C14.5416 7.3954 14.9796 7.83327 15.5207 7.83327Z" fill="#EAEBF0" fill-opacity="0.4"/>
<path d="M28.2502 0H4.75019C2.59012 0 0.833496 1.75653 0.833496 3.9167V43.0834C0.833496 45.2435 2.59012 47 4.75019 47H28.2502C30.4103 47 32.1669 45.2435 32.1669 43.0833V3.9167C32.1669 1.75653 30.4103 0 28.2502 0ZM19.4377 43.0833H13.5627C13.0215 43.0833 12.5835 42.6453 12.5835 42.1041C12.5835 41.5629 13.0215 41.125 13.5627 41.125H19.4377C19.9789 41.125 20.4169 41.563 20.4169 42.1042C20.4169 42.6454 19.9789 43.0833 19.4377 43.0833ZM28.2502 37.2083H4.75019V3.9167H28.2502V37.2083Z" fill="#EAEBF0" fill-opacity="0.2"/>
<path d="M25.3127 7.83339C25.8535 7.83339 26.2919 7.39499 26.2919 6.8542C26.2919 6.3134 25.8535 5.875 25.3127 5.875C24.7719 5.875 24.3335 6.3134 24.3335 6.8542C24.3335 7.39499 24.7719 7.83339 25.3127 7.83339Z" fill="#EAEBF0" fill-opacity="0.4"/>
</svg>
