<svg width="13" height="20" viewBox="0 0 13 20" fill="none" xmlns="http://www.w3.org/2000/svg">
<path d="M3.13746 8.45804H5.45046C5.66354 8.45804 5.83597 8.28561 5.83597 8.07253V5.75953C5.83597 5.54645 5.66354 5.37402 5.45046 5.37402H3.13746C2.92438 5.37402 2.75195 5.54645 2.75195 5.75953V8.07253C2.75195 8.28565 2.92438 8.45804 3.13746 8.45804Z" fill="#F6F8FF"/>
<path d="M7.37793 8.07253C7.37793 8.28561 7.55036 8.45804 7.76344 8.45804H10.0764C10.2895 8.45804 10.4619 8.28561 10.4619 8.07253V5.75953C10.4619 5.54645 10.2895 5.37402 10.0764 5.37402H7.76344C7.55036 5.37402 7.37793 5.54645 7.37793 5.75953V8.07253Z" fill="#F6F8FF"/>
<path d="M3.13746 13.084H5.45046C5.66354 13.084 5.83597 12.9116 5.83597 12.6985V10.3855C5.83597 10.1724 5.66354 10 5.45046 10H3.13746C2.92438 10 2.75195 10.1724 2.75195 10.3855V12.6985C2.75195 12.9116 2.92438 13.084 3.13746 13.084Z" fill="#F6F8FF"/>
<path d="M10.0764 10.0001H7.76344C7.55036 10.0001 7.37793 10.1725 7.37793 10.3856V12.6986C7.37793 12.9117 7.55036 13.0841 7.76344 13.0841H10.0764C10.2895 13.0841 10.4619 12.9117 10.4619 12.6986V10.3856C10.4619 10.1725 10.2895 10.0001 10.0764 10.0001Z" fill="#F6F8FF"/>
<path d="M6.22145 3.83206H6.99243C7.20552 3.83206 7.37794 3.65963 7.37794 3.44655C7.37794 3.23346 7.20552 3.06104 6.99243 3.06104H6.22145C6.00836 3.06104 5.83594 3.23346 5.83594 3.44655C5.83597 3.65967 6.0084 3.83206 6.22145 3.83206Z" fill="#F6F8FF"/>
<path d="M11.2329 0.748169H1.98097C1.13055 0.748169 0.438965 1.43972 0.438965 2.29018V17.7101C0.438965 18.5606 1.13055 19.2521 1.98097 19.2521H11.2329C12.0834 19.2521 12.7749 18.5606 12.7749 17.7101V2.29018C12.7749 1.43972 12.0834 0.748169 11.2329 0.748169ZM7.76345 17.7101H5.45046C5.23737 17.7101 5.06495 17.5377 5.06495 17.3246C5.06495 17.1115 5.23737 16.9391 5.45046 16.9391H7.76345C7.97654 16.9391 8.14896 17.1115 8.14896 17.3246C8.14896 17.5377 7.97654 17.7101 7.76345 17.7101ZM11.2329 15.3971H1.98097V2.29018H11.2329V15.3971Z" fill="#F6F8FF"/>
<path d="M10.0759 3.83206C10.2889 3.83206 10.4615 3.65946 10.4615 3.44655C10.4615 3.23363 10.2889 3.06104 10.0759 3.06104C9.86303 3.06104 9.69043 3.23363 9.69043 3.44655C9.69043 3.65946 9.86303 3.83206 10.0759 3.83206Z" fill="#F6F8FF"/>
</svg>
