<svg width="41" height="41" viewBox="0 0 41 41" fill="none" xmlns="http://www.w3.org/2000/svg">
<path d="M36.9 4.1H34.85V2.05C34.85 0.82 34.03 0 32.8 0C31.57 0 30.75 0.82 30.75 2.05V4.1H10.25V2.05C10.25 0.82 9.43 0 8.2 0C6.97 0 6.15 0.82 6.15 2.05V4.1H2.05C1.025 4.1 0 4.92 0 6.15V34.85C0 36.08 1.025 36.9 2.05 36.9H14.555C13.12 34.44 12.3 31.57 12.3 28.7C12.3 19.68 19.68 12.3 28.7 12.3C32.595 12.3 36.08 13.735 38.95 15.99V6.15C38.95 5.125 37.925 4.1 36.9 4.1Z" fill="#EAEBF0" fill-opacity="0.2"/>
<path d="M28.7004 16.4C21.9354 16.4 16.4004 21.935 16.4004 28.7C16.4004 35.465 21.9354 41 28.7004 41C35.4654 41 41.0004 35.465 41.0004 28.7C41.0004 21.935 35.4654 16.4 28.7004 16.4ZM32.8004 30.75H28.7004C27.4704 30.75 26.6504 29.93 26.6504 28.7V22.55C26.6504 21.32 27.4704 20.5 28.7004 20.5C29.9304 20.5 30.7504 21.32 30.7504 22.55V26.65H32.8004C34.0304 26.65 34.8504 27.47 34.8504 28.7C34.8504 29.93 34.0304 30.75 32.8004 30.75Z" fill="#EAEBF0" fill-opacity="0.4"/>
</svg>
