<svg width="18" height="18" viewBox="0 0 18 18" fill="none" xmlns="http://www.w3.org/2000/svg">
<path d="M15.4572 2.54337H14.6502V1.73629C14.6502 1.25203 14.3273 0.929199 13.8431 0.929199C13.3588 0.929199 13.036 1.25203 13.036 1.73629V2.54337H4.96512V1.73629C4.96512 1.25203 4.64229 0.929199 4.15803 0.929199C3.67378 0.929199 3.35095 1.25203 3.35095 1.73629V2.54337H1.73677C1.33323 2.54337 0.929688 2.86621 0.929688 3.35046V14.6497C0.929688 15.1339 1.33323 15.4568 1.73677 15.4568H6.66C6.09504 14.4883 5.77221 13.3583 5.77221 12.2284C5.77221 8.67723 8.67772 5.77172 12.2289 5.77172C13.7624 5.77172 15.1344 6.33668 16.2643 7.22447V3.35046C16.2643 2.94692 15.8608 2.54337 15.4572 2.54337Z" fill="#EAEBF0"/>
<path d="M12.2283 7.38574C9.56488 7.38574 7.38574 9.56488 7.38574 12.2283C7.38574 14.8916 9.56488 17.0708 12.2283 17.0708C14.8916 17.0708 17.0708 14.8916 17.0708 12.2283C17.0708 9.56488 14.8916 7.38574 12.2283 7.38574ZM13.8424 13.0353H12.2283C11.744 13.0353 11.4212 12.7125 11.4212 12.2283V9.807C11.4212 9.32275 11.744 8.99992 12.2283 8.99992C12.7125 8.99992 13.0353 9.32275 13.0353 9.807V11.4212H13.8424C14.3267 11.4212 14.6495 11.744 14.6495 12.2283C14.6495 12.7125 14.3267 13.0353 13.8424 13.0353Z" fill="#F6F8FF"/>
</svg>
