<svg width="41" height="41" viewBox="0 0 41 41" fill="none" xmlns="http://www.w3.org/2000/svg">
<path fill-rule="evenodd" clip-rule="evenodd" d="M34.85 4.1H36.9C37.925 4.1 38.95 5.125 38.95 6.15V15.99C36.08 13.735 32.595 12.3 28.7 12.3C19.68 12.3 12.3 19.68 12.3 28.7C12.3 31.57 13.12 34.44 14.555 36.9H2.05C1.025 36.9 0 36.08 0 34.85V6.15C0 4.92 1.025 4.1 2.05 4.1H6.15V2.05C6.15 0.82 6.97 0 8.2 0C9.43 0 10.25 0.82 10.25 2.05V4.1H30.75V2.05C30.75 0.82 31.57 0 32.8 0C34.03 0 34.85 0.82 34.85 2.05V4.1ZM16.4004 28.7C16.4004 21.935 21.9354 16.4 28.7004 16.4C35.4654 16.4 41.0004 21.935 41.0004 28.7C41.0004 35.465 35.4654 41 28.7004 41C21.9354 41 16.4004 35.465 16.4004 28.7ZM28.7004 30.75H32.8004C34.0304 30.75 34.8504 29.93 34.8504 28.7C34.8504 27.47 34.0304 26.65 32.8004 26.65H30.7504V22.55C30.7504 21.32 29.9304 20.5 28.7004 20.5C27.4704 20.5 26.6504 21.32 26.6504 22.55V28.7C26.6504 29.93 27.4704 30.75 28.7004 30.75Z" fill="url(#paint0_linear_409_15818)"/>
<defs>
<linearGradient id="paint0_linear_409_15818" x1="53.3596" y1="8.14043" x2="20.5" y2="41" gradientUnits="userSpaceOnUse">
<stop stop-color="#FFED52"/>
<stop offset="0.302083" stop-color="#FFB23F"/>
<stop offset="1" stop-color="#FF5D39"/>
</linearGradient>
</defs>
</svg>
