<svg width="61" height="61" viewBox="0 0 61 61" fill="none" xmlns="http://www.w3.org/2000/svg">
<g opacity="0.8" filter="url(#filter0_f_4_2887)">
<circle cx="30.472" cy="30.472" r="7.47202" fill="#696B77"/>
</g>
<path d="M25.3314 10.3043C23.3526 21.0529 21.7485 22.6569 11 24.6357C21.7486 26.6145 23.3526 28.2185 25.3314 38.9671C27.3101 28.2185 28.9142 26.6145 39.6627 24.6357C28.9142 22.6569 27.3101 21.0529 25.3314 10.3043Z" fill="#696B77"/>
<path d="M40.8859 30.4679C39.6276 37.3035 38.6073 38.3238 31.7717 39.5821C38.6073 40.8405 39.6276 41.8607 40.8859 48.6963C42.1442 41.8607 43.1646 40.8404 50 39.5821C43.1644 38.3238 42.1443 37.3035 40.8859 30.4679Z" fill="#696B77"/>
<defs>
<filter id="filter0_f_4_2887" x="0.060976" y="0.060976" width="60.8221" height="60.8221" filterUnits="userSpaceOnUse" color-interpolation-filters="sRGB">
<feFlood flood-opacity="0" result="BackgroundImageFix"/>
<feBlend mode="normal" in="SourceGraphic" in2="BackgroundImageFix" result="shape"/>
<feGaussianBlur stdDeviation="11.4695" result="effect1_foregroundBlur_4_2887"/>
</filter>
</defs>
</svg>
