<svg width="48" height="59" viewBox="0 0 48 59" fill="none" xmlns="http://www.w3.org/2000/svg">
<path d="M39.9924 14.2931C42.8787 17.2421 44.9037 20.738 46.0668 24.4543L46.3429 25.3996C48.649 33.8989 46.5322 43.3881 39.9925 50.0697C38.1221 52.454 35.6565 54.3722 32.8607 55.7444C29.7965 57.3365 26.3286 58.234 22.6554 58.234C17.3543 58.234 12.4805 56.3646 8.63122 53.2358L8.6765 53.2724L8.68255 53.2773L8.72398 53.2586C8.24553 52.8742 7.78267 52.4705 7.33669 52.0485L7.30689 52.0714C2.88083 47.8659 0.112061 41.8642 0.112061 35.2017V35.1802V35.1591C0.112061 28.3467 3.00931 22.2256 7.61356 18.012C8.47445 17.1517 9.42601 16.2423 10.4385 15.2746L10.4403 15.273C12.497 13.3077 14.8044 11.1026 17.112 8.58245C17.2789 8.40022 17.4373 8.22061 17.5876 8.04374C18.4364 6.97767 19.117 5.96838 19.555 5.01117C19.9986 3.9825 20.1307 3.09889 20.0769 2.36696C19.9804 1.56076 19.6072 0.796423 18.8966 0.0703125L19.0005 0.118351C18.9869 0.10759 18.9734 0.0971262 18.9598 0.0869001L19.0098 0.122691C27.1851 3.92929 27.7405 8.65855 27.0902 11.9807C27.0464 12.2044 27.0078 12.4188 26.9743 12.6244C26.8095 13.1537 26.7206 13.7176 26.7206 14.3027C26.7206 17.3577 29.1446 19.8343 32.1348 19.8343C35.1249 19.8343 37.5488 17.3577 37.5488 14.3027C37.5488 13.1449 37.2007 12.0702 36.6055 11.1819C36.5878 11.1381 36.5698 11.0942 36.5513 11.0501C37.7076 12.0574 38.8616 13.1379 39.9924 14.2931Z" fill="url(#paint0_linear_4_2992)"/>
<defs>
<linearGradient id="paint0_linear_4_2992" x1="61.453" y1="11.6186" x2="15.8496" y2="48.573" gradientUnits="userSpaceOnUse">
<stop stop-color="#FFED52"/>
<stop offset="0.302083" stop-color="#FFB23F"/>
<stop offset="1" stop-color="#FF5D39"/>
</linearGradient>
</defs>
</svg>
