<svg width="17" height="18" viewBox="0 0 17 18" fill="none" xmlns="http://www.w3.org/2000/svg">
<path fill-rule="evenodd" clip-rule="evenodd" d="M1.08278 0.696419C1.75012 0.328417 2.53869 0.319834 3.21032 0.691055L11.5317 5.2841L8.90415 7.91161L1.08278 0.696419ZM0 2.48275C0 2.10402 0.109435 1.74675 0.30041 1.43454L8.14539 8.67119L0.280025 16.5365C0.0997789 16.2308 0 15.881 0 15.5141V2.48275ZM15.015 7.20671L12.5087 5.82375L9.69241 8.63902L13.1439 11.8223L15.0161 10.7891C15.6899 10.4157 16.0933 9.74624 16.0933 8.99736C16.0922 8.24849 15.6899 7.579 15.015 7.20671ZM1.04723 17.2855L8.93405 9.39864L12.1549 12.3695L3.21017 17.3058C2.87436 17.4915 2.50743 17.5837 2.14265 17.5837C1.76499 17.5837 1.38948 17.4807 1.04723 17.2855Z" fill="#FF5D39"/>
</svg>
