<svg width="17" height="18" viewBox="0 0 17 18" fill="none" xmlns="http://www.w3.org/2000/svg">
<path d="M16.8452 8.79037C16.8459 8.20474 16.7964 7.62013 16.6972 7.04297H8.5928V10.3528H13.2346C13.1396 10.8814 12.9386 11.3853 12.6436 11.8341C12.3486 12.283 11.9658 12.6674 11.5183 12.9643V15.1128H14.2886C15.9106 13.6172 16.8452 11.4055 16.8452 8.79037Z" fill="#4285F4"/>
<path d="M8.5908 17.1883C10.9099 17.1883 12.8626 16.4268 14.2866 15.1138L11.5163 12.9654C10.7452 13.4882 9.75216 13.7866 8.5908 13.7866C6.34926 13.7866 4.4467 12.2755 3.76636 10.2393H0.912506V12.4533C1.62778 13.8767 2.72457 15.0732 4.08043 15.9093C5.4363 16.7454 6.99787 17.1882 8.5908 17.1883Z" fill="#34A853"/>
<path d="M3.76893 10.2389C3.40926 9.17194 3.40926 8.01645 3.76893 6.94944V4.73535H0.915084C0.313372 5.9327 0 7.25416 0 8.59419C0 9.93423 0.313372 11.2557 0.915084 12.453L3.76893 10.2389Z" fill="#FBBC04"/>
<path d="M8.5908 3.40227C9.81636 3.38224 11.0006 3.84529 11.8875 4.69133L14.3403 2.23853C12.7849 0.777675 10.7245 -0.024357 8.5908 0.000563832C6.99787 0.000636432 5.4363 0.443447 4.08043 1.27956C2.72457 2.11567 1.62778 3.31218 0.912506 4.73549L3.76636 6.94958C4.4467 4.91334 6.34926 3.40227 8.5908 3.40227Z" fill="#EA4335"/>
</svg>
