<svg width="519" height="171" viewBox="0 0 519 171" fill="none" xmlns="http://www.w3.org/2000/svg">
<g filter="url(#filter0_b_209_298331)">
<path fill-rule="evenodd" clip-rule="evenodd" d="M98.1867 163.378C88.9998 168.05 78.6022 170.684 67.5893 170.684C51.7674 170.684 37.2153 165.248 25.6989 156.141C58.31 141.779 83.8988 107.911 94.8399 92.468C96.5544 90.048 97.948 88.0809 99.0034 86.7129C100.763 83.8817 103.901 81.9968 107.48 81.9968C110.465 81.9968 113.145 83.309 114.972 85.3881C115.59 85.9899 116.392 86.7419 117.452 87.5369C120.407 89.7529 129.64 90.6393 138.504 74.2406C138.54 74.271 138.575 74.3017 138.609 74.3325C145.523 99.2732 139.176 127.119 119.569 146.726C113.961 153.722 106.569 159.351 98.1867 163.378ZM89.7512 119.669C88.357 119.669 87.0296 119.956 85.8246 120.472C89.5449 116.433 92.9542 112.44 96.0176 108.666C105.011 110.838 120.275 119.76 114.254 129.997C108.713 139.415 96.2636 151.882 91.5391 155.481L88.6759 153.693C97.0268 142.475 98.5372 136.55 99.0835 134.406C99.115 134.283 99.1432 134.172 99.1694 134.074C99.6504 132.262 99.7234 131.09 99.7234 129.642C99.7234 124.134 95.2587 119.669 89.7512 119.669Z" fill="url(#paint0_linear_209_298331)"/>
<path d="M137.782 71.5593C133.158 75.6089 127.101 78.0633 120.471 78.0633C117.218 78.0633 113.304 77.0829 111.043 76.5165L110.804 76.4566C108.588 75.9026 106.372 75.3486 103.82 74.4395C97.8285 72.3761 92.9485 69.3587 88.2954 66.4816C81.3231 62.1705 74.8601 58.1743 65.9289 58.1743C50.4166 58.1743 41.7371 71.1012 39.3364 77.5647L42.1064 80.3347V79.8085C43.8285 76.424 45.9503 73.3356 48.3626 70.8922C49.8205 69.2349 51.6109 67.8772 53.6296 66.9236C55.6483 65.9699 57.6187 65.4545 60.0757 65.3833C60.2349 65.3787 60.3947 65.3763 60.555 65.3763C62.5484 65.3763 64.4715 65.7003 66.2223 66.3931C69.0717 67.5206 69.807 68.1464 72.1312 70.2297C75.011 73.1591 76.7875 77.1765 76.7875 81.6088C76.7875 85.0546 75.5449 88.6615 73.131 93.631C66.6891 106.893 42.5009 136.9 21.5741 152.602C8.30237 140.261 0 122.647 0 103.095C0 88.6532 4.52918 75.2696 12.2446 64.2869L12.1882 64.3139C13.2764 62.6817 14.6169 60.9901 16.1684 59.2269C17.6661 57.4731 19.2518 55.7969 20.9189 54.205C23.8964 51.2255 27.2982 48.0437 30.966 44.613C37.1324 38.8455 44.0507 32.3746 50.969 24.9792C51.4692 24.4444 51.9443 23.9175 52.395 23.3983C54.9399 20.27 56.9804 17.3081 58.2937 14.4992C59.6238 11.4806 60.0199 8.88745 59.8583 6.73958C59.5688 4.37372 58.4504 2.13088 56.3195 0C56.4239 0.0469333 56.5278 0.0939458 56.6312 0.141037C56.5905 0.109446 56.5498 0.0786663 56.5091 0.0486923C56.5595 0.083616 56.6096 0.118645 56.6592 0.153784C81.1702 11.3243 82.8353 25.2026 80.8856 34.9514C80.7542 35.6081 80.6385 36.2371 80.5382 36.8404C80.0442 38.3938 79.7775 40.0486 79.7775 41.7657C79.7775 50.7307 87.0451 57.9982 96.0101 57.9982C104.975 57.9982 112.243 50.7307 112.243 41.7657C112.243 38.3681 111.199 35.2142 109.414 32.6074C109.361 32.479 109.307 32.3501 109.252 32.2208C112.719 35.1767 116.179 38.3473 119.569 41.7375C128.224 50.3923 134.295 60.6524 137.782 71.5593Z" fill="url(#paint1_linear_209_298331)"/>
</g>
<path d="M161.619 114.007C161.619 107.185 162.984 101.246 165.712 96.1893C168.441 91.0526 172.214 87.0796 177.029 84.2705C181.925 81.4614 187.503 80.0568 193.764 80.0568C201.87 80.0568 208.532 82.0232 213.749 85.956C219.046 89.8888 222.537 95.3465 224.223 102.329H212.424C211.301 98.3162 209.094 95.1459 205.803 92.8183C202.592 90.4907 198.579 89.3269 193.764 89.3269C187.503 89.3269 182.447 91.494 178.594 95.8281C174.742 100.082 172.816 106.142 172.816 114.007C172.816 121.953 174.742 128.093 178.594 132.427C182.447 136.761 187.503 138.928 193.764 138.928C198.579 138.928 202.592 137.805 205.803 135.557C209.013 133.31 211.22 130.1 212.424 125.926H224.223C222.457 132.668 218.926 138.086 213.628 142.179C208.331 146.192 201.71 148.198 193.764 148.198C187.503 148.198 181.925 146.794 177.029 143.985C172.214 141.176 168.441 137.203 165.712 132.066C162.984 126.929 161.619 120.91 161.619 114.007Z" fill="white"/>
<path d="M227.524 113.887C227.524 107.145 228.889 101.246 231.617 96.1893C234.346 91.0526 238.078 87.0796 242.814 84.2705C247.63 81.4614 252.967 80.0568 258.826 80.0568C264.605 80.0568 269.621 81.3008 273.875 83.7889C278.129 86.277 281.299 89.4072 283.386 93.1795V81.1403H294.462V147.115H283.386V134.835C281.219 138.687 277.968 141.898 273.634 144.466C269.38 146.954 264.404 148.198 258.706 148.198C252.846 148.198 247.549 146.754 242.814 143.864C238.078 140.975 234.346 136.922 231.617 131.705C228.889 126.488 227.524 120.548 227.524 113.887ZM283.386 114.007C283.386 109.031 282.383 104.697 280.376 101.005C278.369 97.3129 275.641 94.5038 272.189 92.5775C268.818 90.571 265.086 89.5677 260.993 89.5677C256.9 89.5677 253.168 90.5309 249.797 92.4571C246.426 94.3834 243.737 97.1925 241.73 100.885C239.724 104.577 238.721 108.911 238.721 113.887C238.721 118.943 239.724 123.358 241.73 127.13C243.737 130.822 246.426 133.671 249.797 135.678C253.168 137.604 256.9 138.567 260.993 138.567C265.086 138.567 268.818 137.604 272.189 135.678C275.641 133.671 278.369 130.822 280.376 127.13C282.383 123.358 283.386 118.983 283.386 114.007Z" fill="white"/>
<path d="M316.708 58.0251V147.115H305.752V58.0251H316.708Z" fill="white"/>
<path d="M356.93 148.198C350.75 148.198 345.132 146.794 340.075 143.985C335.099 141.176 331.166 137.203 328.277 132.066C325.468 126.849 324.063 120.829 324.063 114.007C324.063 107.265 325.508 101.326 328.397 96.1893C331.367 90.9723 335.38 86.9994 340.436 84.2705C345.493 81.4614 351.151 80.0568 357.412 80.0568C363.672 80.0568 369.33 81.4614 374.387 84.2705C379.443 86.9994 383.416 90.9322 386.306 96.0689C389.275 101.206 390.76 107.185 390.76 114.007C390.76 120.829 389.235 126.849 386.185 132.066C383.216 137.203 379.162 141.176 374.026 143.985C368.889 146.794 363.19 148.198 356.93 148.198ZM356.93 138.567C360.863 138.567 364.555 137.644 368.006 135.798C371.457 133.952 374.226 131.183 376.313 127.491C378.48 123.799 379.564 119.304 379.564 114.007C379.564 108.71 378.52 104.215 376.433 100.523C374.347 96.8314 371.618 94.1025 368.247 92.3367C364.876 90.4907 361.224 89.5677 357.291 89.5677C353.278 89.5677 349.586 90.4907 346.215 92.3367C342.924 94.1025 340.276 96.8314 338.269 100.523C336.263 104.215 335.26 108.71 335.26 114.007C335.26 119.385 336.223 123.919 338.149 127.611C340.155 131.303 342.804 134.072 346.095 135.918C349.385 137.684 352.997 138.567 356.93 138.567Z" fill="white"/>
<path d="M408.897 91.8552C410.823 88.0829 413.552 85.1534 417.083 83.0666C420.695 80.9798 425.069 79.9364 430.206 79.9364V91.2532H427.317C415.037 91.2532 408.897 97.9149 408.897 111.238V147.115H397.941V81.1403H408.897V91.8552Z" fill="white"/>
<path d="M441.288 70.4255C439.201 70.4255 437.435 69.7031 435.991 68.2584C434.546 66.8137 433.824 65.048 433.824 62.9612C433.824 60.8744 434.546 59.1087 435.991 57.664C437.435 56.2193 439.201 55.4969 441.288 55.4969C443.294 55.4969 444.98 56.2193 446.344 57.664C447.789 59.1087 448.511 60.8744 448.511 62.9612C448.511 65.048 447.789 66.8137 446.344 68.2584C444.98 69.7031 443.294 70.4255 441.288 70.4255ZM446.585 81.1403V147.115H435.629V81.1403H446.585Z" fill="white"/>
<path d="M518.229 111.599C518.229 113.686 518.109 115.893 517.868 118.221H465.137C465.538 124.722 467.745 129.819 471.758 133.511C475.852 137.122 480.788 138.928 486.566 138.928C491.302 138.928 495.235 137.845 498.365 135.678C501.575 133.43 503.822 130.461 505.107 126.769H516.905C515.139 133.109 511.608 138.286 506.311 142.299C501.013 146.232 494.432 148.198 486.566 148.198C480.306 148.198 474.688 146.794 469.712 143.985C464.816 141.176 460.963 137.203 458.154 132.066C455.345 126.849 453.94 120.829 453.94 114.007C453.94 107.185 455.305 101.206 458.034 96.0689C460.762 90.9322 464.575 86.9994 469.471 84.2705C474.447 81.4614 480.145 80.0568 486.566 80.0568C492.827 80.0568 498.365 81.4212 503.18 84.1501C507.996 86.879 511.688 90.6513 514.256 95.4669C516.905 100.202 518.229 105.58 518.229 111.599ZM506.913 109.312C506.913 105.138 505.99 101.567 504.144 98.5971C502.298 95.5472 499.769 93.2597 496.559 91.7348C493.429 90.1296 489.937 89.3269 486.085 89.3269C480.547 89.3269 475.811 91.0927 471.879 94.6242C468.026 98.1557 465.819 103.052 465.257 109.312H506.913Z" fill="white"/>
<path d="M400.281 159.975C400.713 159.218 401.346 158.601 402.18 158.122C403.014 157.643 403.964 157.404 405.03 157.404C406.173 157.404 407.199 157.674 408.111 158.215C409.022 158.755 409.74 159.52 410.265 160.508C410.79 161.481 411.053 162.616 411.053 163.913C411.053 165.195 410.79 166.338 410.265 167.342C409.74 168.345 409.014 169.125 408.087 169.681C407.176 170.237 406.157 170.515 405.03 170.515C403.933 170.515 402.968 170.276 402.134 169.797C401.316 169.318 400.698 168.708 400.281 167.967V170.307H398.173V153.165H400.281V159.975ZM408.898 163.913C408.898 162.956 408.705 162.122 408.319 161.411C407.933 160.701 407.408 160.16 406.744 159.79C406.095 159.419 405.377 159.234 404.59 159.234C403.817 159.234 403.099 159.427 402.435 159.813C401.787 160.184 401.262 160.732 400.86 161.458C400.474 162.168 400.281 162.994 400.281 163.936C400.281 164.894 400.474 165.736 400.86 166.461C401.262 167.172 401.787 167.72 402.435 168.106C403.099 168.477 403.817 168.662 404.59 168.662C405.377 168.662 406.095 168.477 406.744 168.106C407.408 167.72 407.933 167.172 408.319 166.461C408.705 165.736 408.898 164.886 408.898 163.913Z" fill="white"/>
<path d="M424.391 157.612V170.307H422.283V168.43C421.881 169.079 421.317 169.589 420.592 169.959C419.881 170.314 419.094 170.492 418.229 170.492C417.24 170.492 416.352 170.291 415.565 169.89C414.777 169.473 414.152 168.855 413.688 168.037C413.24 167.218 413.017 166.222 413.017 165.048V157.612H415.101V164.77C415.101 166.021 415.418 166.986 416.051 167.666C416.684 168.33 417.549 168.662 418.646 168.662C419.773 168.662 420.661 168.315 421.31 167.62C421.958 166.925 422.283 165.913 422.283 164.585V157.612H424.391Z" fill="white"/>
<path d="M429.363 159.674C429.734 158.948 430.259 158.384 430.938 157.983C431.633 157.581 432.475 157.381 433.463 157.381V159.558H432.907C430.544 159.558 429.363 160.84 429.363 163.404V170.307H427.255V157.612H429.363V159.674Z" fill="white"/>
<path d="M441.387 157.381C442.931 157.381 444.182 157.852 445.139 158.794C446.097 159.72 446.576 161.064 446.576 162.824V170.307H444.491V163.126C444.491 161.859 444.174 160.894 443.541 160.23C442.908 159.55 442.043 159.211 440.947 159.211C439.835 159.211 438.947 159.558 438.283 160.253C437.634 160.948 437.31 161.96 437.31 163.288V170.307H435.202V157.612H437.31V159.419C437.727 158.771 438.29 158.269 439.001 157.913C439.727 157.558 440.522 157.381 441.387 157.381Z" fill="white"/>
<path d="M459.971 159.35H457.307V170.307H455.199V159.35H453.554V157.612H455.199V156.709C455.199 155.288 455.562 154.253 456.288 153.605C457.029 152.941 458.21 152.609 459.832 152.609V154.369C458.905 154.369 458.249 154.555 457.863 154.925C457.492 155.28 457.307 155.875 457.307 156.709V157.612H459.971V159.35Z" fill="white"/>
<path d="M467.27 170.515C466.081 170.515 465 170.245 464.027 169.704C463.07 169.164 462.313 168.399 461.757 167.411C461.216 166.407 460.946 165.249 460.946 163.936C460.946 162.639 461.224 161.496 461.78 160.508C462.351 159.504 463.124 158.74 464.097 158.215C465.069 157.674 466.158 157.404 467.363 157.404C468.567 157.404 469.656 157.674 470.629 158.215C471.602 158.74 472.366 159.496 472.922 160.485C473.494 161.473 473.78 162.624 473.78 163.936C473.78 165.249 473.486 166.407 472.899 167.411C472.328 168.399 471.548 169.164 470.56 169.704C469.571 170.245 468.475 170.515 467.27 170.515ZM467.27 168.662C468.027 168.662 468.737 168.484 469.401 168.129C470.065 167.774 470.598 167.241 471 166.531C471.417 165.82 471.625 164.956 471.625 163.936C471.625 162.917 471.424 162.052 471.023 161.342C470.621 160.631 470.096 160.106 469.448 159.767C468.799 159.411 468.096 159.234 467.34 159.234C466.567 159.234 465.857 159.411 465.208 159.767C464.575 160.106 464.066 160.631 463.68 161.342C463.294 162.052 463.1 162.917 463.1 163.936C463.1 164.971 463.286 165.844 463.656 166.554C464.043 167.264 464.552 167.797 465.185 168.152C465.819 168.492 466.513 168.662 467.27 168.662Z" fill="white"/>
<path d="M477.964 159.674C478.335 158.948 478.86 158.384 479.54 157.983C480.234 157.581 481.076 157.381 482.065 157.381V159.558H481.509C479.146 159.558 477.964 160.84 477.964 163.404V170.307H475.856V157.612H477.964V159.674Z" fill="white"/>
<path d="M491.392 153.165V170.307H489.284V153.165H491.392Z" fill="white"/>
<path d="M495.378 155.551C494.977 155.551 494.637 155.412 494.359 155.134C494.081 154.856 493.942 154.516 493.942 154.114C493.942 153.713 494.081 153.373 494.359 153.095C494.637 152.817 494.977 152.678 495.378 152.678C495.765 152.678 496.089 152.817 496.351 153.095C496.629 153.373 496.768 153.713 496.768 154.114C496.768 154.516 496.629 154.856 496.351 155.134C496.089 155.412 495.765 155.551 495.378 155.551ZM496.398 157.612V170.307H494.29V157.612H496.398Z" fill="white"/>
<path d="M504.461 159.35H501.797V170.307H499.689V159.35H498.045V157.612H499.689V156.709C499.689 155.288 500.052 154.253 500.778 153.605C501.519 152.941 502.701 152.609 504.322 152.609V154.369C503.396 154.369 502.739 154.555 502.353 154.925C501.983 155.28 501.797 155.875 501.797 156.709V157.612H504.461V159.35Z" fill="white"/>
<path d="M517.807 163.473C517.807 163.875 517.784 164.299 517.737 164.747H507.591C507.668 165.998 508.093 166.979 508.865 167.689C509.653 168.384 510.602 168.732 511.714 168.732C512.625 168.732 513.382 168.523 513.984 168.106C514.602 167.674 515.035 167.102 515.282 166.392H517.552C517.212 167.612 516.533 168.608 515.513 169.38C514.494 170.137 513.228 170.515 511.714 170.515C510.51 170.515 509.429 170.245 508.471 169.704C507.529 169.164 506.788 168.399 506.247 167.411C505.707 166.407 505.437 165.249 505.437 163.936C505.437 162.624 505.699 161.473 506.224 160.485C506.749 159.496 507.483 158.74 508.425 158.215C509.382 157.674 510.479 157.404 511.714 157.404C512.919 157.404 513.984 157.666 514.911 158.191C515.838 158.716 516.548 159.442 517.042 160.369C517.552 161.28 517.807 162.315 517.807 163.473ZM515.629 163.033C515.629 162.23 515.452 161.543 515.096 160.971C514.741 160.384 514.255 159.944 513.637 159.651C513.035 159.342 512.363 159.188 511.622 159.188C510.556 159.188 509.645 159.527 508.888 160.207C508.147 160.886 507.722 161.828 507.614 163.033H515.629Z" fill="white"/>
<defs>
<filter id="filter0_b_209_298331" x="-21.0212" y="-21.0212" width="183.355" height="212.726" filterUnits="userSpaceOnUse" color-interpolation-filters="sRGB">
<feFlood flood-opacity="0" result="BackgroundImageFix"/>
<feGaussianBlur in="BackgroundImageFix" stdDeviation="10.5106"/>
<feComposite in2="SourceAlpha" operator="in" result="effect1_backgroundBlur_209_298331"/>
<feBlend mode="normal" in="SourceGraphic" in2="effect1_backgroundBlur_209_298331" result="shape"/>
</filter>
<linearGradient id="paint0_linear_209_298331" x1="183.912" y1="33.8888" x2="49.52" y2="145.154" gradientUnits="userSpaceOnUse">
<stop stop-color="#FFED52"/>
<stop offset="0.302083" stop-color="#FFB23F"/>
<stop offset="1" stop-color="#FF5D39"/>
</linearGradient>
<linearGradient id="paint1_linear_209_298331" x1="183.912" y1="33.8888" x2="49.52" y2="145.154" gradientUnits="userSpaceOnUse">
<stop stop-color="#FFED52"/>
<stop offset="0.302083" stop-color="#FFB23F"/>
<stop offset="1" stop-color="#FF5D39"/>
</linearGradient>
</defs>
</svg>