<svg width="279" height="359" viewBox="0 0 279 359" fill="none" xmlns="http://www.w3.org/2000/svg">
<path fill-rule="evenodd" clip-rule="evenodd" d="M50.4215 312.531C68.1228 326.902 90.1525 335.095 113.517 338.785C114.558 349.891 125.002 358.22 136.044 358.22C154.154 358.22 156.673 343.273 157.246 331.718C240.15 312.681 279.192 248.185 276.375 179.287C276.375 117.338 240.683 80.554 219.264 66.3118C218.067 65.242 216.868 64.1856 215.669 63.1424C215.779 63.4029 215.886 63.6626 215.99 63.9213C219.513 69.1727 221.573 75.5262 221.573 82.3708C221.573 100.431 207.227 115.071 189.53 115.071C171.832 115.071 157.485 100.431 157.485 82.3708C157.485 78.9116 158.012 75.5779 158.987 72.4487C159.185 71.2333 159.413 69.9663 159.673 68.6433C163.522 49.0041 165.666 22.813 117.28 0.309637L116.983 0.0980508C117.064 0.158504 117.144 0.220363 117.224 0.28398L116.609 -1.0129e-05C120.815 4.29253 121.026 10.1591 121.026 14.5762C121.026 18.9932 116.842 27.0003 114.401 30.9191C111.96 34.838 108.455 39.0673 103.431 45.3695C102.541 46.4152 101.604 47.477 100.616 48.5542C86.9583 63.4524 73.3016 76.4882 61.1287 88.1068L61.1183 88.1163C55.1255 93.8365 49.4937 99.2127 44.3984 104.299C17.1477 129.208 -2.89185e-05 165.394 -3.59599e-05 205.667L-3.6004e-05 205.919C-4.28906e-05 245.305 16.3872 280.785 42.5833 305.647L42.7596 305.512C45.3992 308.006 48.1387 310.393 50.9705 312.665C50.8892 312.702 50.8072 312.739 50.7252 312.776L50.6894 312.747L50.4215 312.531ZM139.578 350.27C147.745 350.27 152.24 336.577 150.179 330.393C147.087 321.117 139.569 319.469 131.402 319.469C123.235 319.469 121.468 329.864 121.468 337.902C121.468 345.94 131.411 350.27 139.578 350.27Z" fill="url(#paint0_linear_260_8318)"/>
<path fill-rule="evenodd" clip-rule="evenodd" d="M58.7958 305.231C75.7154 319.188 96.134 328.78 118.467 332.364C119.461 343.149 128.533 351.595 139.578 351.595C150.935 351.595 160.206 342.665 160.754 331.444C239.998 312.956 280.84 247.032 278.147 180.121C278.147 119.959 240.654 79.9462 220.182 66.1148C219.037 65.0759 217.891 64.0499 216.746 63.0369C216.85 63.2898 216.952 63.5421 217.052 63.7933C220.42 68.8931 222.389 75.0634 222.389 81.7106C222.389 99.2497 208.676 113.468 191.76 113.468C174.845 113.468 161.131 99.2497 161.131 81.7106C161.131 78.3512 161.634 75.1136 162.567 72.0747C162.756 70.8944 162.974 69.6639 163.222 68.3791C166.901 49.3064 163.759 22.155 117.51 0.300701L117.227 0.0952264C117.304 0.153912 117.38 0.214001 117.457 0.275768L116.869 -1.90541e-05C120.889 4.16868 123 8.5569 123.546 13.1854C123.851 17.3875 123.104 22.4604 120.594 28.3662C118.116 33.8617 114.266 39.6562 109.464 45.7766C108.613 46.7921 107.717 47.8233 106.773 48.8695C93.719 63.3379 80.6654 75.9976 69.0301 87.2811L69.0202 87.2903C63.2921 92.8455 57.9089 98.0666 53.0387 103.006C26.9915 127.197 10.6011 162.339 10.6011 201.45L10.6011 201.695C10.6011 239.945 26.2645 274.402 51.3038 298.546L51.4723 298.415C53.9953 300.837 56.6138 303.155 59.3205 305.362C59.2428 305.398 59.1645 305.434 59.0861 305.469L59.0519 305.441L58.7958 305.231ZM139.578 344.528C147.384 344.528 153.713 338.199 153.713 330.393C153.713 322.587 147.384 316.259 139.578 316.259C131.772 316.259 125.444 322.587 125.444 330.393C125.444 338.199 131.772 344.528 139.578 344.528Z" fill="url(#paint1_linear_260_8318)"/>
<circle cx="191.257" cy="80.8315" r="19.8766" fill="#D9D9D9"/>
<circle cx="191.257" cy="80.8315" r="19.8766" fill="url(#paint2_linear_260_8318)"/>
<g filter="url(#filter0_di_260_8318)">
<path fill-rule="evenodd" clip-rule="evenodd" d="M173.406 288.907C162.17 294.622 149.454 297.843 135.984 297.843C90.3297 297.843 53.3193 260.833 53.3193 215.178C53.3193 197.515 58.8587 181.146 68.295 167.714L68.2261 167.747C69.557 165.751 71.1965 163.682 73.0941 161.525C74.9258 159.38 76.8652 157.33 78.9042 155.383C82.5458 151.739 86.7063 147.848 91.1923 143.652C98.734 136.598 107.195 128.684 115.657 119.639C116.269 118.985 116.85 118.34 117.401 117.705C120.514 113.879 123.009 110.257 124.615 106.821C126.242 103.129 126.727 99.9577 126.529 97.3308C126.175 94.4372 124.807 91.6941 122.201 89.0879C122.329 89.1453 122.456 89.2028 122.582 89.2604C122.532 89.2218 122.483 89.1841 122.433 89.1475C122.494 89.1902 122.556 89.233 122.616 89.276C152.594 102.938 154.631 119.912 152.246 131.835C152.086 132.638 151.944 133.408 151.822 134.146C151.217 136.045 150.891 138.069 150.891 140.169C150.891 151.134 159.78 160.023 170.744 160.023C181.709 160.023 190.598 151.134 190.598 140.169C190.598 136.014 189.321 132.157 187.138 128.968C187.074 128.811 187.007 128.654 186.94 128.496C191.18 132.111 195.411 135.989 199.558 140.135C210.141 150.719 217.566 163.265 221.832 176.602C216.176 181.554 208.769 184.556 200.66 184.556C196.681 184.556 191.894 183.357 189.128 182.664L188.837 182.591C186.126 181.913 183.416 181.236 180.296 180.124C172.967 177.6 166.999 173.91 161.308 170.391L161.308 170.391C152.78 165.118 144.876 160.231 133.952 160.231C114.98 160.231 104.365 176.041 101.428 183.946L104.816 187.334L104.816 186.69C106.922 182.551 109.518 178.774 112.468 175.785C114.251 173.758 116.441 172.098 118.91 170.931C121.379 169.765 123.789 169.135 126.794 169.048C126.988 169.042 127.184 169.039 127.38 169.039C129.818 169.039 132.17 169.435 134.311 170.283C137.796 171.662 138.695 172.427 141.538 174.975C145.06 178.558 147.233 183.471 147.233 188.892C147.233 193.107 145.713 197.518 142.761 203.596C134.882 219.816 105.298 256.518 79.703 275.721C81.3251 277.23 83.0078 278.674 84.7472 280.049C124.633 262.485 155.93 221.062 169.312 202.174C171.409 199.214 173.113 196.808 174.404 195.135C176.556 191.672 180.394 189.367 184.771 189.367C188.423 189.367 191.7 190.972 193.935 193.515C194.69 194.251 195.671 195.17 196.968 196.143C200.581 198.853 211.874 199.937 222.716 179.881C222.759 179.917 222.801 179.955 222.843 179.992C231.302 210.498 223.541 244.558 199.558 268.541C192.7 277.098 183.659 283.982 173.406 288.907ZM163.088 235.442C161.383 235.442 159.76 235.792 158.286 236.424C162.836 231.484 167.006 226.6 170.752 221.984C181.752 224.641 200.42 235.553 193.056 248.073C186.28 259.592 171.053 274.84 165.275 279.242L161.773 277.055C171.987 263.335 173.834 256.088 174.502 253.466L174.524 253.382C174.554 253.264 174.581 253.157 174.607 253.059C175.195 250.844 175.285 249.41 175.285 247.639C175.285 240.903 169.824 235.442 163.088 235.442Z" fill="#161925"/>
</g>
<g filter="url(#filter1_di_260_8318)">
<circle cx="232.335" cy="128.094" r="17.6681" fill="#161925"/>
<circle cx="249.12" cy="174.031" r="15.9013" fill="#161925"/>
<circle cx="248.236" cy="222.618" r="12.3677" fill="#161925"/>
<circle cx="228.801" cy="265.021" r="9.71744" fill="#161925"/>
<circle cx="200.091" cy="295.499" r="7.50893" fill="#161925"/>
<circle cx="170.055" cy="311.4" r="5.74213" fill="#161925"/>
</g>
<g filter="url(#filter2_dddddd_260_8318)">
<circle r="3.73815" transform="matrix(-1.8677e-07 1 1 1.8677e-07 36.4242 173.352)" fill="#FFED52"/>
</g>
<g filter="url(#filter3_dddddd_260_8318)">
<circle r="2.65021" transform="matrix(-1.8677e-07 1 1 1.8677e-07 32.2117 221.734)" fill="#FFED52"/>
</g>
<g filter="url(#filter4_dddddd_260_8318)">
<circle r="2.65021" transform="matrix(-1.8677e-07 1 1 1.8677e-07 46.8206 265.021)" fill="#FFED52"/>
</g>
<g filter="url(#filter5_dddddd_260_8318)">
<circle r="1.76681" transform="matrix(-1.8677e-07 1 1 1.8677e-07 72.4392 293.29)" fill="#FFED52"/>
</g>
<g filter="url(#filter6_dddddd_260_8318)">
<circle r="1.32511" transform="matrix(-1.8677e-07 1 1 1.8677e-07 105.092 311.4)" fill="#FFED52"/>
</g>
<g filter="url(#filter7_dddddd_260_8318)">
<circle r="5.30042" transform="matrix(-1.8677e-07 1 1 1.8677e-07 61.8385 126.327)" fill="#FFED52"/>
</g>
<defs>
<filter id="filter0_di_260_8318" x="49.3193" y="89.0879" width="176.833" height="212.755" filterUnits="userSpaceOnUse" color-interpolation-filters="sRGB">
<feFlood flood-opacity="0" result="BackgroundImageFix"/>
<feColorMatrix in="SourceAlpha" type="matrix" values="0 0 0 0 0 0 0 0 0 0 0 0 0 0 0 0 0 0 127 0" result="hardAlpha"/>
<feOffset dx="-2" dy="2"/>
<feGaussianBlur stdDeviation="1"/>
<feComposite in2="hardAlpha" operator="out"/>
<feColorMatrix type="matrix" values="0 0 0 0 0 0 0 0 0 0 0 0 0 0 0 0 0 0 0.3 0"/>
<feBlend mode="normal" in2="BackgroundImageFix" result="effect1_dropShadow_260_8318"/>
<feBlend mode="normal" in="SourceGraphic" in2="effect1_dropShadow_260_8318" result="shape"/>
<feColorMatrix in="SourceAlpha" type="matrix" values="0 0 0 0 0 0 0 0 0 0 0 0 0 0 0 0 0 0 127 0" result="hardAlpha"/>
<feOffset dx="-4" dy="4"/>
<feGaussianBlur stdDeviation="3.5"/>
<feComposite in2="hardAlpha" operator="arithmetic" k2="-1" k3="1"/>
<feColorMatrix type="matrix" values="0 0 0 0 0.166667 0 0 0 0 0.189744 0 0 0 0 0.266667 0 0 0 1 0"/>
<feBlend mode="normal" in2="shape" result="effect2_innerShadow_260_8318"/>
</filter>
<filter id="filter1_di_260_8318" x="160.313" y="110.426" width="104.708" height="210.717" filterUnits="userSpaceOnUse" color-interpolation-filters="sRGB">
<feFlood flood-opacity="0" result="BackgroundImageFix"/>
<feColorMatrix in="SourceAlpha" type="matrix" values="0 0 0 0 0 0 0 0 0 0 0 0 0 0 0 0 0 0 127 0" result="hardAlpha"/>
<feOffset dx="-2" dy="2"/>
<feGaussianBlur stdDeviation="1"/>
<feComposite in2="hardAlpha" operator="out"/>
<feColorMatrix type="matrix" values="0 0 0 0 0 0 0 0 0 0 0 0 0 0 0 0 0 0 0.3 0"/>
<feBlend mode="normal" in2="BackgroundImageFix" result="effect1_dropShadow_260_8318"/>
<feBlend mode="normal" in="SourceGraphic" in2="effect1_dropShadow_260_8318" result="shape"/>
<feColorMatrix in="SourceAlpha" type="matrix" values="0 0 0 0 0 0 0 0 0 0 0 0 0 0 0 0 0 0 127 0" result="hardAlpha"/>
<feOffset dx="-2" dy="2"/>
<feGaussianBlur stdDeviation="2.5"/>
<feComposite in2="hardAlpha" operator="arithmetic" k2="-1" k3="1"/>
<feColorMatrix type="matrix" values="0 0 0 0 0.35 0 0 0 0 0.366667 0 0 0 0 0.466667 0 0 0 1 0"/>
<feBlend mode="normal" in2="shape" result="effect2_innerShadow_260_8318"/>
</filter>
<filter id="filter2_dddddd_260_8318" x="4.42559" y="141.353" width="63.997" height="63.9972" filterUnits="userSpaceOnUse" color-interpolation-filters="sRGB">
<feFlood flood-opacity="0" result="BackgroundImageFix"/>
<feColorMatrix in="SourceAlpha" type="matrix" values="0 0 0 0 0 0 0 0 0 0 0 0 0 0 0 0 0 0 127 0" result="hardAlpha"/>
<feOffset/>
<feGaussianBlur stdDeviation="0.336434"/>
<feColorMatrix type="matrix" values="0 0 0 0 1 0 0 0 0 0.929412 0 0 0 0 0.321569 0 0 0 1 0"/>
<feBlend mode="normal" in2="BackgroundImageFix" result="effect1_dropShadow_260_8318"/>
<feColorMatrix in="SourceAlpha" type="matrix" values="0 0 0 0 0 0 0 0 0 0 0 0 0 0 0 0 0 0 127 0" result="hardAlpha"/>
<feOffset/>
<feGaussianBlur stdDeviation="0.672868"/>
<feColorMatrix type="matrix" values="0 0 0 0 1 0 0 0 0 0.929412 0 0 0 0 0.321569 0 0 0 1 0"/>
<feBlend mode="normal" in2="effect1_dropShadow_260_8318" result="effect2_dropShadow_260_8318"/>
<feColorMatrix in="SourceAlpha" type="matrix" values="0 0 0 0 0 0 0 0 0 0 0 0 0 0 0 0 0 0 127 0" result="hardAlpha"/>
<feOffset/>
<feGaussianBlur stdDeviation="2.35504"/>
<feColorMatrix type="matrix" values="0 0 0 0 1 0 0 0 0 0.929412 0 0 0 0 0.321569 0 0 0 1 0"/>
<feBlend mode="normal" in2="effect2_dropShadow_260_8318" result="effect3_dropShadow_260_8318"/>
<feColorMatrix in="SourceAlpha" type="matrix" values="0 0 0 0 0 0 0 0 0 0 0 0 0 0 0 0 0 0 127 0" result="hardAlpha"/>
<feOffset/>
<feGaussianBlur stdDeviation="4.71007"/>
<feColorMatrix type="matrix" values="0 0 0 0 1 0 0 0 0 0.929412 0 0 0 0 0.321569 0 0 0 1 0"/>
<feBlend mode="normal" in2="effect3_dropShadow_260_8318" result="effect4_dropShadow_260_8318"/>
<feColorMatrix in="SourceAlpha" type="matrix" values="0 0 0 0 0 0 0 0 0 0 0 0 0 0 0 0 0 0 127 0" result="hardAlpha"/>
<feOffset/>
<feGaussianBlur stdDeviation="8.07441"/>
<feColorMatrix type="matrix" values="0 0 0 0 1 0 0 0 0 0.929412 0 0 0 0 0.321569 0 0 0 1 0"/>
<feBlend mode="normal" in2="effect4_dropShadow_260_8318" result="effect5_dropShadow_260_8318"/>
<feColorMatrix in="SourceAlpha" type="matrix" values="0 0 0 0 0 0 0 0 0 0 0 0 0 0 0 0 0 0 127 0" result="hardAlpha"/>
<feOffset/>
<feGaussianBlur stdDeviation="14.1302"/>
<feColorMatrix type="matrix" values="0 0 0 0 1 0 0 0 0 0.929412 0 0 0 0 0.321569 0 0 0 1 0"/>
<feBlend mode="normal" in2="effect5_dropShadow_260_8318" result="effect6_dropShadow_260_8318"/>
<feBlend mode="normal" in="SourceGraphic" in2="effect6_dropShadow_260_8318" result="shape"/>
</filter>
<filter id="filter3_dddddd_260_8318" x="9.52592" y="199.049" width="45.3715" height="45.3716" filterUnits="userSpaceOnUse" color-interpolation-filters="sRGB">
<feFlood flood-opacity="0" result="BackgroundImageFix"/>
<feColorMatrix in="SourceAlpha" type="matrix" values="0 0 0 0 0 0 0 0 0 0 0 0 0 0 0 0 0 0 127 0" result="hardAlpha"/>
<feOffset/>
<feGaussianBlur stdDeviation="0.238519"/>
<feColorMatrix type="matrix" values="0 0 0 0 1 0 0 0 0 0.929412 0 0 0 0 0.321569 0 0 0 1 0"/>
<feBlend mode="normal" in2="BackgroundImageFix" result="effect1_dropShadow_260_8318"/>
<feColorMatrix in="SourceAlpha" type="matrix" values="0 0 0 0 0 0 0 0 0 0 0 0 0 0 0 0 0 0 127 0" result="hardAlpha"/>
<feOffset/>
<feGaussianBlur stdDeviation="0.477038"/>
<feColorMatrix type="matrix" values="0 0 0 0 1 0 0 0 0 0.929412 0 0 0 0 0.321569 0 0 0 1 0"/>
<feBlend mode="normal" in2="effect1_dropShadow_260_8318" result="effect2_dropShadow_260_8318"/>
<feColorMatrix in="SourceAlpha" type="matrix" values="0 0 0 0 0 0 0 0 0 0 0 0 0 0 0 0 0 0 127 0" result="hardAlpha"/>
<feOffset/>
<feGaussianBlur stdDeviation="1.66963"/>
<feColorMatrix type="matrix" values="0 0 0 0 1 0 0 0 0 0.929412 0 0 0 0 0.321569 0 0 0 1 0"/>
<feBlend mode="normal" in2="effect2_dropShadow_260_8318" result="effect3_dropShadow_260_8318"/>
<feColorMatrix in="SourceAlpha" type="matrix" values="0 0 0 0 0 0 0 0 0 0 0 0 0 0 0 0 0 0 127 0" result="hardAlpha"/>
<feOffset/>
<feGaussianBlur stdDeviation="3.33927"/>
<feColorMatrix type="matrix" values="0 0 0 0 1 0 0 0 0 0.929412 0 0 0 0 0.321569 0 0 0 1 0"/>
<feBlend mode="normal" in2="effect3_dropShadow_260_8318" result="effect4_dropShadow_260_8318"/>
<feColorMatrix in="SourceAlpha" type="matrix" values="0 0 0 0 0 0 0 0 0 0 0 0 0 0 0 0 0 0 127 0" result="hardAlpha"/>
<feOffset/>
<feGaussianBlur stdDeviation="5.72446"/>
<feColorMatrix type="matrix" values="0 0 0 0 1 0 0 0 0 0.929412 0 0 0 0 0.321569 0 0 0 1 0"/>
<feBlend mode="normal" in2="effect4_dropShadow_260_8318" result="effect5_dropShadow_260_8318"/>
<feColorMatrix in="SourceAlpha" type="matrix" values="0 0 0 0 0 0 0 0 0 0 0 0 0 0 0 0 0 0 127 0" result="hardAlpha"/>
<feOffset/>
<feGaussianBlur stdDeviation="10.0178"/>
<feColorMatrix type="matrix" values="0 0 0 0 1 0 0 0 0 0.929412 0 0 0 0 0.321569 0 0 0 1 0"/>
<feBlend mode="normal" in2="effect5_dropShadow_260_8318" result="effect6_dropShadow_260_8318"/>
<feBlend mode="normal" in="SourceGraphic" in2="effect6_dropShadow_260_8318" result="shape"/>
</filter>
<filter id="filter4_dddddd_260_8318" x="24.1348" y="242.335" width="45.3715" height="45.3716" filterUnits="userSpaceOnUse" color-interpolation-filters="sRGB">
<feFlood flood-opacity="0" result="BackgroundImageFix"/>
<feColorMatrix in="SourceAlpha" type="matrix" values="0 0 0 0 0 0 0 0 0 0 0 0 0 0 0 0 0 0 127 0" result="hardAlpha"/>
<feOffset/>
<feGaussianBlur stdDeviation="0.238519"/>
<feColorMatrix type="matrix" values="0 0 0 0 1 0 0 0 0 0.929412 0 0 0 0 0.321569 0 0 0 1 0"/>
<feBlend mode="normal" in2="BackgroundImageFix" result="effect1_dropShadow_260_8318"/>
<feColorMatrix in="SourceAlpha" type="matrix" values="0 0 0 0 0 0 0 0 0 0 0 0 0 0 0 0 0 0 127 0" result="hardAlpha"/>
<feOffset/>
<feGaussianBlur stdDeviation="0.477038"/>
<feColorMatrix type="matrix" values="0 0 0 0 1 0 0 0 0 0.929412 0 0 0 0 0.321569 0 0 0 1 0"/>
<feBlend mode="normal" in2="effect1_dropShadow_260_8318" result="effect2_dropShadow_260_8318"/>
<feColorMatrix in="SourceAlpha" type="matrix" values="0 0 0 0 0 0 0 0 0 0 0 0 0 0 0 0 0 0 127 0" result="hardAlpha"/>
<feOffset/>
<feGaussianBlur stdDeviation="1.66963"/>
<feColorMatrix type="matrix" values="0 0 0 0 1 0 0 0 0 0.929412 0 0 0 0 0.321569 0 0 0 1 0"/>
<feBlend mode="normal" in2="effect2_dropShadow_260_8318" result="effect3_dropShadow_260_8318"/>
<feColorMatrix in="SourceAlpha" type="matrix" values="0 0 0 0 0 0 0 0 0 0 0 0 0 0 0 0 0 0 127 0" result="hardAlpha"/>
<feOffset/>
<feGaussianBlur stdDeviation="3.33927"/>
<feColorMatrix type="matrix" values="0 0 0 0 1 0 0 0 0 0.929412 0 0 0 0 0.321569 0 0 0 1 0"/>
<feBlend mode="normal" in2="effect3_dropShadow_260_8318" result="effect4_dropShadow_260_8318"/>
<feColorMatrix in="SourceAlpha" type="matrix" values="0 0 0 0 0 0 0 0 0 0 0 0 0 0 0 0 0 0 127 0" result="hardAlpha"/>
<feOffset/>
<feGaussianBlur stdDeviation="5.72446"/>
<feColorMatrix type="matrix" values="0 0 0 0 1 0 0 0 0 0.929412 0 0 0 0 0.321569 0 0 0 1 0"/>
<feBlend mode="normal" in2="effect4_dropShadow_260_8318" result="effect5_dropShadow_260_8318"/>
<feColorMatrix in="SourceAlpha" type="matrix" values="0 0 0 0 0 0 0 0 0 0 0 0 0 0 0 0 0 0 127 0" result="hardAlpha"/>
<feOffset/>
<feGaussianBlur stdDeviation="10.0178"/>
<feColorMatrix type="matrix" values="0 0 0 0 1 0 0 0 0 0.929412 0 0 0 0 0.321569 0 0 0 1 0"/>
<feBlend mode="normal" in2="effect5_dropShadow_260_8318" result="effect6_dropShadow_260_8318"/>
<feBlend mode="normal" in="SourceGraphic" in2="effect6_dropShadow_260_8318" result="shape"/>
</filter>
<filter id="filter5_dddddd_260_8318" x="57.3153" y="278.166" width="30.2478" height="30.2478" filterUnits="userSpaceOnUse" color-interpolation-filters="sRGB">
<feFlood flood-opacity="0" result="BackgroundImageFix"/>
<feColorMatrix in="SourceAlpha" type="matrix" values="0 0 0 0 0 0 0 0 0 0 0 0 0 0 0 0 0 0 127 0" result="hardAlpha"/>
<feOffset/>
<feGaussianBlur stdDeviation="0.159013"/>
<feColorMatrix type="matrix" values="0 0 0 0 1 0 0 0 0 0.929412 0 0 0 0 0.321569 0 0 0 1 0"/>
<feBlend mode="normal" in2="BackgroundImageFix" result="effect1_dropShadow_260_8318"/>
<feColorMatrix in="SourceAlpha" type="matrix" values="0 0 0 0 0 0 0 0 0 0 0 0 0 0 0 0 0 0 127 0" result="hardAlpha"/>
<feOffset/>
<feGaussianBlur stdDeviation="0.318025"/>
<feColorMatrix type="matrix" values="0 0 0 0 1 0 0 0 0 0.929412 0 0 0 0 0.321569 0 0 0 1 0"/>
<feBlend mode="normal" in2="effect1_dropShadow_260_8318" result="effect2_dropShadow_260_8318"/>
<feColorMatrix in="SourceAlpha" type="matrix" values="0 0 0 0 0 0 0 0 0 0 0 0 0 0 0 0 0 0 127 0" result="hardAlpha"/>
<feOffset/>
<feGaussianBlur stdDeviation="1.11309"/>
<feColorMatrix type="matrix" values="0 0 0 0 1 0 0 0 0 0.929412 0 0 0 0 0.321569 0 0 0 1 0"/>
<feBlend mode="normal" in2="effect2_dropShadow_260_8318" result="effect3_dropShadow_260_8318"/>
<feColorMatrix in="SourceAlpha" type="matrix" values="0 0 0 0 0 0 0 0 0 0 0 0 0 0 0 0 0 0 127 0" result="hardAlpha"/>
<feOffset/>
<feGaussianBlur stdDeviation="2.22618"/>
<feColorMatrix type="matrix" values="0 0 0 0 1 0 0 0 0 0.929412 0 0 0 0 0.321569 0 0 0 1 0"/>
<feBlend mode="normal" in2="effect3_dropShadow_260_8318" result="effect4_dropShadow_260_8318"/>
<feColorMatrix in="SourceAlpha" type="matrix" values="0 0 0 0 0 0 0 0 0 0 0 0 0 0 0 0 0 0 127 0" result="hardAlpha"/>
<feOffset/>
<feGaussianBlur stdDeviation="3.81631"/>
<feColorMatrix type="matrix" values="0 0 0 0 1 0 0 0 0 0.929412 0 0 0 0 0.321569 0 0 0 1 0"/>
<feBlend mode="normal" in2="effect4_dropShadow_260_8318" result="effect5_dropShadow_260_8318"/>
<feColorMatrix in="SourceAlpha" type="matrix" values="0 0 0 0 0 0 0 0 0 0 0 0 0 0 0 0 0 0 127 0" result="hardAlpha"/>
<feOffset/>
<feGaussianBlur stdDeviation="6.67853"/>
<feColorMatrix type="matrix" values="0 0 0 0 1 0 0 0 0 0.929412 0 0 0 0 0.321569 0 0 0 1 0"/>
<feBlend mode="normal" in2="effect5_dropShadow_260_8318" result="effect6_dropShadow_260_8318"/>
<feBlend mode="normal" in="SourceGraphic" in2="effect6_dropShadow_260_8318" result="shape"/>
</filter>
<filter id="filter6_dddddd_260_8318" x="93.7493" y="300.057" width="22.686" height="22.6858" filterUnits="userSpaceOnUse" color-interpolation-filters="sRGB">
<feFlood flood-opacity="0" result="BackgroundImageFix"/>
<feColorMatrix in="SourceAlpha" type="matrix" values="0 0 0 0 0 0 0 0 0 0 0 0 0 0 0 0 0 0 127 0" result="hardAlpha"/>
<feOffset/>
<feGaussianBlur stdDeviation="0.11926"/>
<feColorMatrix type="matrix" values="0 0 0 0 1 0 0 0 0 0.929412 0 0 0 0 0.321569 0 0 0 1 0"/>
<feBlend mode="normal" in2="BackgroundImageFix" result="effect1_dropShadow_260_8318"/>
<feColorMatrix in="SourceAlpha" type="matrix" values="0 0 0 0 0 0 0 0 0 0 0 0 0 0 0 0 0 0 127 0" result="hardAlpha"/>
<feOffset/>
<feGaussianBlur stdDeviation="0.238519"/>
<feColorMatrix type="matrix" values="0 0 0 0 1 0 0 0 0 0.929412 0 0 0 0 0.321569 0 0 0 1 0"/>
<feBlend mode="normal" in2="effect1_dropShadow_260_8318" result="effect2_dropShadow_260_8318"/>
<feColorMatrix in="SourceAlpha" type="matrix" values="0 0 0 0 0 0 0 0 0 0 0 0 0 0 0 0 0 0 127 0" result="hardAlpha"/>
<feOffset/>
<feGaussianBlur stdDeviation="0.834817"/>
<feColorMatrix type="matrix" values="0 0 0 0 1 0 0 0 0 0.929412 0 0 0 0 0.321569 0 0 0 1 0"/>
<feBlend mode="normal" in2="effect2_dropShadow_260_8318" result="effect3_dropShadow_260_8318"/>
<feColorMatrix in="SourceAlpha" type="matrix" values="0 0 0 0 0 0 0 0 0 0 0 0 0 0 0 0 0 0 127 0" result="hardAlpha"/>
<feOffset/>
<feGaussianBlur stdDeviation="1.66963"/>
<feColorMatrix type="matrix" values="0 0 0 0 1 0 0 0 0 0.929412 0 0 0 0 0.321569 0 0 0 1 0"/>
<feBlend mode="normal" in2="effect3_dropShadow_260_8318" result="effect4_dropShadow_260_8318"/>
<feColorMatrix in="SourceAlpha" type="matrix" values="0 0 0 0 0 0 0 0 0 0 0 0 0 0 0 0 0 0 127 0" result="hardAlpha"/>
<feOffset/>
<feGaussianBlur stdDeviation="2.86223"/>
<feColorMatrix type="matrix" values="0 0 0 0 1 0 0 0 0 0.929412 0 0 0 0 0.321569 0 0 0 1 0"/>
<feBlend mode="normal" in2="effect4_dropShadow_260_8318" result="effect5_dropShadow_260_8318"/>
<feColorMatrix in="SourceAlpha" type="matrix" values="0 0 0 0 0 0 0 0 0 0 0 0 0 0 0 0 0 0 127 0" result="hardAlpha"/>
<feOffset/>
<feGaussianBlur stdDeviation="5.0089"/>
<feColorMatrix type="matrix" values="0 0 0 0 1 0 0 0 0 0.929412 0 0 0 0 0.321569 0 0 0 1 0"/>
<feBlend mode="normal" in2="effect5_dropShadow_260_8318" result="effect6_dropShadow_260_8318"/>
<feBlend mode="normal" in="SourceGraphic" in2="effect6_dropShadow_260_8318" result="shape"/>
</filter>
<filter id="filter7_dddddd_260_8318" x="16.4669" y="80.9551" width="90.7435" height="90.7433" filterUnits="userSpaceOnUse" color-interpolation-filters="sRGB">
<feFlood flood-opacity="0" result="BackgroundImageFix"/>
<feColorMatrix in="SourceAlpha" type="matrix" values="0 0 0 0 0 0 0 0 0 0 0 0 0 0 0 0 0 0 127 0" result="hardAlpha"/>
<feOffset/>
<feGaussianBlur stdDeviation="0.477038"/>
<feColorMatrix type="matrix" values="0 0 0 0 1 0 0 0 0 0.929412 0 0 0 0 0.321569 0 0 0 1 0"/>
<feBlend mode="normal" in2="BackgroundImageFix" result="effect1_dropShadow_260_8318"/>
<feColorMatrix in="SourceAlpha" type="matrix" values="0 0 0 0 0 0 0 0 0 0 0 0 0 0 0 0 0 0 127 0" result="hardAlpha"/>
<feOffset/>
<feGaussianBlur stdDeviation="0.954076"/>
<feColorMatrix type="matrix" values="0 0 0 0 1 0 0 0 0 0.929412 0 0 0 0 0.321569 0 0 0 1 0"/>
<feBlend mode="normal" in2="effect1_dropShadow_260_8318" result="effect2_dropShadow_260_8318"/>
<feColorMatrix in="SourceAlpha" type="matrix" values="0 0 0 0 0 0 0 0 0 0 0 0 0 0 0 0 0 0 127 0" result="hardAlpha"/>
<feOffset/>
<feGaussianBlur stdDeviation="3.33927"/>
<feColorMatrix type="matrix" values="0 0 0 0 1 0 0 0 0 0.929412 0 0 0 0 0.321569 0 0 0 1 0"/>
<feBlend mode="normal" in2="effect2_dropShadow_260_8318" result="effect3_dropShadow_260_8318"/>
<feColorMatrix in="SourceAlpha" type="matrix" values="0 0 0 0 0 0 0 0 0 0 0 0 0 0 0 0 0 0 127 0" result="hardAlpha"/>
<feOffset/>
<feGaussianBlur stdDeviation="6.67853"/>
<feColorMatrix type="matrix" values="0 0 0 0 1 0 0 0 0 0.929412 0 0 0 0 0.321569 0 0 0 1 0"/>
<feBlend mode="normal" in2="effect3_dropShadow_260_8318" result="effect4_dropShadow_260_8318"/>
<feColorMatrix in="SourceAlpha" type="matrix" values="0 0 0 0 0 0 0 0 0 0 0 0 0 0 0 0 0 0 127 0" result="hardAlpha"/>
<feOffset/>
<feGaussianBlur stdDeviation="11.4489"/>
<feColorMatrix type="matrix" values="0 0 0 0 1 0 0 0 0 0.929412 0 0 0 0 0.321569 0 0 0 1 0"/>
<feBlend mode="normal" in2="effect4_dropShadow_260_8318" result="effect5_dropShadow_260_8318"/>
<feColorMatrix in="SourceAlpha" type="matrix" values="0 0 0 0 0 0 0 0 0 0 0 0 0 0 0 0 0 0 127 0" result="hardAlpha"/>
<feOffset/>
<feGaussianBlur stdDeviation="20.0356"/>
<feColorMatrix type="matrix" values="0 0 0 0 1 0 0 0 0 0.929412 0 0 0 0 0.321569 0 0 0 1 0"/>
<feBlend mode="normal" in2="effect5_dropShadow_260_8318" result="effect6_dropShadow_260_8318"/>
<feBlend mode="normal" in="SourceGraphic" in2="effect6_dropShadow_260_8318" result="shape"/>
</filter>
<linearGradient id="paint0_linear_260_8318" x1="138.258" y1="-6.34372e-06" x2="138.258" y2="358.22" gradientUnits="userSpaceOnUse">
<stop stop-color="#122832"/>
<stop offset="1" stop-color="#903B2C"/>
</linearGradient>
<linearGradient id="paint1_linear_260_8318" x1="218.201" y1="21.2017" x2="121.91" y2="359.987" gradientUnits="userSpaceOnUse">
<stop stop-color="#12151E"/>
<stop offset="0.439723" stop-color="#FF5D39"/>
<stop offset="1" stop-color="#FFED52"/>
</linearGradient>
<linearGradient id="paint2_linear_260_8318" x1="202.212" y1="63.3521" x2="193.655" y2="102.9" gradientUnits="userSpaceOnUse">
<stop stop-color="#542722"/>
<stop offset="0.645833" stop-color="#FF5D39"/>
<stop offset="1" stop-color="#FFBA52"/>
</linearGradient>
</defs>
</svg>
