<svg width="48" height="42" viewBox="0 0 48 42" fill="none" xmlns="http://www.w3.org/2000/svg">
<path fill-rule="evenodd" clip-rule="evenodd" d="M32.3543 15.3481C36.5926 15.3481 40.0284 11.9123 40.0284 7.67404C40.0284 3.43576 36.5926 -3.79023e-05 32.3543 -3.79023e-05C28.116 -3.79023e-05 24.6802 3.43576 24.6802 7.67404C24.6802 11.9123 28.116 15.3481 32.3543 15.3481ZM19.2061 26.32C21.7116 21.9847 26.8537 19.0119 32.7902 19.0119C41.1902 19.0119 47.9997 24.9638 47.9997 32.3059C47.9997 32.3059 38.4938 24.1818 32.7902 30.8288C31.6451 32.1633 30.3467 33.0215 29.0028 33.5409C29.9116 35.2452 30.4191 37.146 30.4191 39.1503C30.4191 39.1503 20.9131 31.0262 15.2095 37.6732C9.50596 44.3202 0 39.1503 0 39.1503C0 31.8082 6.80954 25.8563 15.2095 25.8563C16.5926 25.8563 17.9325 26.0176 19.2061 26.32ZM22.4477 14.5184C22.4477 18.7566 19.0119 22.1924 14.7736 22.1924C10.5353 22.1924 7.09953 18.7566 7.09953 14.5184C7.09953 10.2801 10.5353 6.84429 14.7736 6.84429C19.0119 6.84429 22.4477 10.2801 22.4477 14.5184Z" fill="url(#paint0_linear_409_15819)"/>
<defs>
<linearGradient id="paint0_linear_409_15819" x1="62.4697" y1="8.15346" x2="29.9539" y2="46.1597" gradientUnits="userSpaceOnUse">
<stop stop-color="#FFED52"/>
<stop offset="0.302083" stop-color="#FFB23F"/>
<stop offset="1" stop-color="#FF5D39"/>
</linearGradient>
</defs>
</svg>
