<svg width="48" height="42" viewBox="0 0 48 42" fill="none" xmlns="http://www.w3.org/2000/svg">
<g opacity="0.5" filter="url(#filter0_b_409_15793)">
<circle cx="32.3547" cy="7.67408" r="7.67408" fill="#EAEBF0" fill-opacity="0.4"/>
<path d="M32.7906 19.0119C24.3906 19.0119 17.5811 24.9638 17.5811 32.3059C17.5811 32.3059 27.087 37.4758 32.7906 30.8288C38.4942 24.1818 48.0001 32.3059 48.0001 32.3059C48.0001 24.9638 41.1906 19.0119 32.7906 19.0119Z" fill="#EAEBF0" fill-opacity="0.2"/>
</g>
<g filter="url(#filter1_b_409_15793)">
<circle cx="14.7737" cy="14.5183" r="7.67408" fill="#EAEBF0" fill-opacity="0.4"/>
<path d="M15.2095 25.8563C6.80954 25.8563 0 31.8082 0 39.1503C0 39.1503 9.50596 44.3202 15.2095 37.6732C20.9131 31.0262 30.4191 39.1503 30.4191 39.1503C30.4191 31.8082 23.6095 25.8563 15.2095 25.8563Z" fill="#EAEBF0" fill-opacity="0.2"/>
</g>
<defs>
<filter id="filter0_b_409_15793" x="-126.038" y="-143.619" width="317.656" height="321.459" filterUnits="userSpaceOnUse" color-interpolation-filters="sRGB">
<feFlood flood-opacity="0" result="BackgroundImageFix"/>
<feGaussianBlur in="BackgroundImage" stdDeviation="71.8094"/>
<feComposite in2="SourceAlpha" operator="in" result="effect1_backgroundBlur_409_15793"/>
<feBlend mode="normal" in="SourceGraphic" in2="effect1_backgroundBlur_409_15793" result="shape"/>
</filter>
<filter id="filter1_b_409_15793" x="-143.619" y="-136.775" width="317.656" height="321.459" filterUnits="userSpaceOnUse" color-interpolation-filters="sRGB">
<feFlood flood-opacity="0" result="BackgroundImageFix"/>
<feGaussianBlur in="BackgroundImage" stdDeviation="71.8094"/>
<feComposite in2="SourceAlpha" operator="in" result="effect1_backgroundBlur_409_15793"/>
<feBlend mode="normal" in="SourceGraphic" in2="effect1_backgroundBlur_409_15793" result="shape"/>
</filter>
</defs>
</svg>
