<svg width="61" height="61" viewBox="0 0 61 61" fill="none" xmlns="http://www.w3.org/2000/svg">
<g opacity="0.8" filter="url(#filter0_f_304_992)">
<circle cx="30.472" cy="30.472" r="7.47202" fill="#0B7090"/>
</g>
<path d="M34.9997 26.9125C35.7958 27.7237 36.3543 28.6854 36.6751 29.7077L36.7513 29.9677C37.3873 32.3058 36.8035 34.9161 34.9997 36.7541C34.4838 37.41 33.8038 37.9377 33.0326 38.3151C32.1875 38.7531 31.231 39 30.2179 39C28.7557 39 27.4114 38.4858 26.3497 37.6251L26.3622 37.6351L26.3639 37.6365L26.3753 37.6313C26.2434 37.5256 26.1157 37.4145 25.9927 37.2985L25.9845 37.3047C24.7637 36.1479 24 34.4969 24 32.6642V32.6582V32.6524C24 30.7784 24.7991 29.0946 26.069 27.9355C26.3065 27.6988 26.5689 27.4487 26.8482 27.1825L26.8487 27.1821C27.416 26.6414 28.0524 26.0348 28.6889 25.3416C28.7349 25.2914 28.7786 25.242 28.8201 25.1934C29.0542 24.9001 29.2419 24.6225 29.3627 24.3592C29.4851 24.0762 29.5215 23.8331 29.5066 23.6318C29.48 23.41 29.3771 23.1997 29.1811 23L29.2098 23.0132L29.1985 23.0046L29.2123 23.0144C31.4672 24.0615 31.6204 25.3625 31.441 26.2764C31.4289 26.3379 31.4183 26.3969 31.4091 26.4534C31.3636 26.599 31.3391 26.7542 31.3391 26.9151C31.3391 27.7555 32.0077 28.4368 32.8324 28.4368C33.6571 28.4368 34.3257 27.7555 34.3257 26.9151C34.3257 26.5966 34.2297 26.301 34.0655 26.0566L34.0506 26.0204C34.3695 26.2975 34.6878 26.5947 34.9997 26.9125Z" fill="#0B7090"/>
<path fill-rule="evenodd" clip-rule="evenodd" d="M46.9959 31.8711C46.9986 31.7477 47 31.624 47 31.5C47 22.3873 39.6127 15 30.5 15C30.376 15 30.2523 15.0014 30.1289 15.0041C31.1734 15.0706 32 15.9387 32 17C32 18.1046 31.1046 19 30 19C28.8954 19 28 18.1046 28 17C28 15.9853 28.7556 15.1472 29.7348 15.0174C20.9773 15.4172 14 22.6438 14 31.5C14 31.624 14.0014 31.7477 14.0041 31.8711C14.0706 30.8266 14.9387 30 16 30C17.1046 30 18 30.8954 18 32C18 33.1046 17.1046 34 16 34C14.9853 34 14.1472 33.2444 14.0174 32.2652C14.4056 40.7691 21.2309 47.5944 29.7348 47.9826C28.7556 47.8528 28 47.0147 28 46C28 44.8954 28.8954 44 30 44C31.1046 44 32 44.8954 32 46C32 47.0612 31.1734 47.9294 30.1289 47.9959C30.2523 47.9986 30.376 48 30.5 48C39.3562 48 46.5828 41.0227 46.9826 32.2652C46.8528 33.2444 46.0147 34 45 34C43.8954 34 43 33.1046 43 32C43 30.8954 43.8954 30 45 30C46.0612 30 46.9294 30.8266 46.9959 31.8711ZM30.5 44C37.4036 44 43 38.4036 43 31.5C43 24.5964 37.4036 19 30.5 19C23.5964 19 18 24.5964 18 31.5C18 38.4036 23.5964 44 30.5 44Z" fill="#0B7090"/>
<defs>
<filter id="filter0_f_304_992" x="0.060976" y="0.060976" width="60.8221" height="60.8221" filterUnits="userSpaceOnUse" color-interpolation-filters="sRGB">
<feFlood flood-opacity="0" result="BackgroundImageFix"/>
<feBlend mode="normal" in="SourceGraphic" in2="BackgroundImageFix" result="shape"/>
<feGaussianBlur stdDeviation="11.4695" result="effect1_foregroundBlur_304_992"/>
</filter>
</defs>
</svg>
