<svg width="1920" height="207" viewBox="0 0 1920 207" fill="none" xmlns="http://www.w3.org/2000/svg">
<g opacity="0.15">
<path d="M220.743 93.8506L221.623 94.3255L221.626 94.3197L220.743 93.8506ZM233.631 80.2772L233.133 79.4099L233.127 79.4135L233.631 80.2772ZM275.448 82.1967L274.846 82.9952L274.851 82.9996L275.448 82.1967ZM287.376 100.843V101.843H288.646L288.348 100.608L287.376 100.843ZM273.939 100.843L272.976 101.113L273.181 101.843H273.939V100.843ZM266.399 90.0117L265.812 90.8213L265.821 90.8281L266.399 90.0117ZM235.413 93.4393L236.154 94.1106L236.161 94.1036L235.413 93.4393ZM235.413 135.119L236.161 134.455L235.413 135.119ZM266.399 138.684L266.972 139.503L266.399 138.684ZM273.939 127.715V126.715H273.187L272.979 127.438L273.939 127.715ZM287.376 127.715L288.343 127.969L288.671 126.715H287.376V127.715ZM275.31 146.224L275.914 147.022L275.922 147.016L275.31 146.224ZM233.631 148.281L233.127 149.145L233.133 149.148L233.631 148.281ZM220.743 134.708L219.86 135.177L220.743 134.708ZM217.081 114.142C217.081 106.508 218.608 99.9129 221.623 94.3255L219.863 93.3756C216.663 99.305 215.081 106.238 215.081 114.142H217.081ZM221.626 94.3197C224.65 88.6267 228.818 84.2422 234.135 81.141L233.127 79.4135C227.475 82.7104 223.051 87.3748 219.86 93.3814L221.626 94.3197ZM234.128 81.1446C239.536 78.0416 245.714 76.4786 252.688 76.4786V74.4786C245.404 74.4786 238.876 76.1146 233.133 79.4099L234.128 81.1446ZM252.688 76.4786C261.756 76.4786 269.116 78.676 274.846 82.9952L276.05 81.3982C269.897 76.7599 262.084 74.4786 252.688 74.4786V76.4786ZM274.851 82.9996C280.679 87.326 284.534 93.3314 286.404 101.078L288.348 100.608C286.379 92.4503 282.281 86.0248 276.044 81.3938L274.851 82.9996ZM287.376 99.8429H273.939V101.843H287.376V99.8429ZM274.902 100.573C273.563 95.7901 270.918 91.9833 266.976 89.1952L265.821 90.8281C269.374 93.3414 271.756 96.7554 272.976 101.113L274.902 100.573ZM266.986 89.202C263.125 86.403 258.337 85.0356 252.688 85.0356V87.0356C258.008 87.0356 262.36 88.3189 265.812 90.8213L266.986 89.202ZM252.688 85.0356C245.299 85.0356 239.259 87.6072 234.666 92.7749L236.161 94.1036C240.342 89.3998 245.819 87.0356 252.688 87.0356V85.0356ZM234.672 92.768C230.065 97.855 227.832 105.029 227.832 114.142H229.832C229.832 105.34 231.987 98.7122 236.154 94.1105L234.672 92.768ZM227.832 114.142C227.832 123.345 230.064 130.606 234.666 135.783L236.161 134.455C231.988 129.76 229.832 123.037 229.832 114.142H227.832ZM234.666 135.783C239.259 140.951 245.299 143.523 252.688 143.523V141.523C245.819 141.523 240.342 139.158 236.161 134.455L234.666 135.783ZM252.688 143.523C258.33 143.523 263.113 142.204 266.972 139.503L265.825 137.864C262.372 140.281 258.015 141.523 252.688 141.523V143.523ZM266.972 139.503C270.836 136.798 273.473 132.94 274.9 127.993L272.979 127.438C271.664 131.997 269.274 135.451 265.825 137.864L266.972 139.503ZM273.939 128.715H287.376V126.715H273.939V128.715ZM286.408 127.462C284.451 134.936 280.549 140.913 274.699 145.433L275.922 147.016C282.137 142.213 286.279 135.851 288.343 127.969L286.408 127.462ZM274.707 145.427C268.88 149.842 261.563 152.08 252.688 152.08V154.08C261.911 154.08 269.676 151.748 275.914 147.022L274.707 145.427ZM252.688 152.08C245.714 152.08 239.536 150.517 234.128 147.414L233.133 149.148C238.876 152.444 245.404 154.08 252.688 154.08V152.08ZM234.135 147.417C228.818 144.316 224.65 139.932 221.626 134.239L219.86 135.177C223.051 141.183 227.475 145.848 233.127 149.145L234.135 147.417ZM221.626 134.239C218.608 128.558 217.081 121.87 217.081 114.142H215.081C215.081 122.136 216.662 129.158 219.86 135.177L221.626 134.239ZM295.797 93.8506L296.677 94.3255L296.68 94.3197L295.797 93.8506ZM308.548 80.2772L308.044 79.4134L308.037 79.4172L308.548 80.2772ZM343.92 79.7288L343.416 80.592L343.92 79.7288ZM354.752 90.423L353.877 90.907L355.752 90.423H354.752ZM354.752 76.7125V75.7125H353.752V76.7125H354.752ZM367.365 76.7125H368.365V75.7125H367.365V76.7125ZM367.365 151.846V152.846H368.365V151.846H367.365ZM354.752 151.846H353.752V152.846H354.752V151.846ZM354.752 137.861H355.752V134.044L353.88 137.371L354.752 137.861ZM343.646 148.829L344.151 149.693L344.156 149.69L343.646 148.829ZM308.548 148.144L308.027 148.998L308.548 148.144ZM295.797 134.296L296.683 133.833L295.797 134.296ZM351.324 99.3347L352.203 98.8572L351.324 99.3347ZM342.001 89.7374L341.49 90.5967L341.501 90.6039L341.514 90.6106L342.001 89.7374ZM316.5 89.6003L316.003 88.7321L316.5 89.6003ZM307.314 99.1976L308.192 99.6752L307.314 99.1976ZM307.314 129.086L306.431 129.556L306.435 129.564L307.314 129.086ZM316.5 138.821L315.988 139.68L315.996 139.685L316.003 139.689L316.5 138.821ZM342.001 138.821L342.497 139.689L342.504 139.685L342.001 138.821ZM351.324 129.086L352.203 129.564L352.207 129.556L351.324 129.086ZM292.135 114.005C292.135 106.464 293.661 99.9146 296.677 94.3255L294.917 93.3756C291.718 99.3033 290.135 106.19 290.135 114.005H292.135ZM296.68 94.3197C299.707 88.6224 303.832 84.2374 309.058 81.1373L308.037 79.4172C302.478 82.7153 298.102 87.3791 294.914 93.3814L296.68 94.3197ZM309.051 81.141C314.375 78.0357 320.278 76.4786 326.782 76.4786V74.4786C319.942 74.4786 313.689 76.1205 308.044 79.4135L309.051 81.141ZM326.782 76.4786C333.217 76.4786 338.749 77.8625 343.416 80.592L344.425 78.8656C339.403 75.9281 333.51 74.4786 326.782 74.4786V76.4786ZM343.416 80.592C348.127 83.3479 351.599 86.7899 353.877 90.907L355.627 89.9389C353.151 85.4641 349.402 81.7767 344.425 78.8656L343.416 80.592ZM355.752 90.423V76.7125H353.752V90.423H355.752ZM354.752 77.7125H367.365V75.7125H354.752V77.7125ZM366.365 76.7125V151.846H368.365V76.7125H366.365ZM367.365 150.846H354.752V152.846H367.365V150.846ZM355.752 151.846V137.861H353.752V151.846H355.752ZM353.88 137.371C351.51 141.585 347.943 145.121 343.136 147.969L344.156 149.69C349.221 146.688 353.058 142.912 355.623 138.351L353.88 137.371ZM343.141 147.966C338.473 150.697 332.986 152.08 326.645 152.08V154.08C333.284 154.08 339.131 152.629 344.151 149.693L343.141 147.966ZM326.645 152.08C320.146 152.08 314.295 150.48 309.068 147.29L308.027 148.998C313.585 152.389 319.8 154.08 326.645 154.08V152.08ZM309.068 147.29C303.84 144.1 299.712 139.624 296.683 133.833L294.911 134.76C298.097 140.852 302.469 145.607 308.027 148.998L309.068 147.29ZM296.683 133.833C293.659 128.053 292.135 121.451 292.135 114.005H290.135C290.135 121.731 291.719 128.658 294.911 134.76L296.683 133.833ZM355.752 114.142C355.752 108.339 354.581 103.233 352.203 98.8572L350.445 99.8123C352.637 103.845 353.752 108.611 353.752 114.142H355.752ZM352.203 98.8572C349.833 94.4974 346.595 91.156 342.488 88.8642L341.514 90.6106C345.268 92.7062 348.245 95.763 350.445 99.8123L352.203 98.8572ZM342.512 88.8782C338.512 86.4969 334.084 85.3098 329.25 85.3098V87.3098C333.74 87.3098 337.812 88.4079 341.49 90.5967L342.512 88.8782ZM329.25 85.3098C324.425 85.3098 320.002 86.4473 316.003 88.7321L316.996 90.4686C320.675 88.366 324.753 87.3098 329.25 87.3098V85.3098ZM316.003 88.7321C311.99 91.0255 308.801 94.3663 306.435 98.7201L308.192 99.6752C310.396 95.6199 313.331 92.5625 316.996 90.4686L316.003 88.7321ZM306.435 98.7201C304.057 103.096 302.886 108.202 302.886 114.005H304.886C304.886 108.474 306 103.708 308.192 99.6752L306.435 98.7201ZM302.886 114.005C302.886 119.897 304.056 125.091 306.431 129.556L308.196 128.617C306.001 124.49 304.886 119.63 304.886 114.005H302.886ZM306.435 129.564C308.8 133.915 311.984 137.297 315.988 139.68L317.011 137.962C313.338 135.775 310.398 132.667 308.192 128.609L306.435 129.564ZM316.003 139.689C320.002 141.974 324.425 143.111 329.25 143.111V141.111C324.753 141.111 320.675 140.055 316.996 137.953L316.003 139.689ZM329.25 143.111C334.076 143.111 338.499 141.974 342.497 139.689L341.505 137.953C337.825 140.055 333.748 141.111 329.25 141.111V143.111ZM342.504 139.685C346.601 137.303 349.835 133.921 352.203 129.564L350.445 128.609C348.243 132.661 345.262 135.768 341.498 137.956L342.504 139.685ZM352.207 129.556C354.581 125.093 355.752 119.946 355.752 114.142H353.752C353.752 119.672 352.638 124.488 350.441 128.617L352.207 129.556ZM392.7 50.3885H393.7V49.3885H392.7V50.3885ZM392.7 151.846V152.846H393.7V151.846H392.7ZM380.223 151.846H379.223V152.846H380.223V151.846ZM380.223 50.3885V49.3885H379.223V50.3885H380.223ZM391.7 50.3885V151.846H393.7V50.3885H391.7ZM392.7 150.846H380.223V152.846H392.7V150.846ZM381.223 151.846V50.3885H379.223V151.846H381.223ZM380.223 51.3885H392.7V49.3885H380.223V51.3885ZM419.311 148.281L418.819 149.152L418.825 149.155L419.311 148.281ZM405.874 134.708L404.994 135.182L404.998 135.19L405.003 135.198L405.874 134.708ZM406.012 93.8506L405.143 93.3559L405.14 93.3603L406.012 93.8506ZM419.722 80.2772L420.197 81.1573L420.208 81.1514L419.722 80.2772ZM458.385 80.2772L457.9 81.1515L457.911 81.1573L458.385 80.2772ZM471.959 93.7135L471.087 94.2038L471.093 94.214L471.959 93.7135ZM471.822 134.708L470.958 134.203L470.956 134.207L471.822 134.708ZM457.974 148.281L458.454 149.158L457.974 148.281ZM460.579 129.498L459.717 128.992L459.713 128.999L459.709 129.006L460.579 129.498ZM451.393 89.4632L450.913 90.3403L450.921 90.3448L450.929 90.3491L451.393 89.4632ZM426.303 89.4632L426.776 90.3444L426.783 90.3403L426.303 89.4632ZM417.254 98.7863L418.133 99.2638L417.254 98.7863ZM417.117 129.635L416.23 130.097L416.234 130.105L416.238 130.112L417.117 129.635ZM426.166 139.095L425.677 139.967L425.685 139.972L425.693 139.976L426.166 139.095ZM438.505 152.08C431.625 152.08 425.396 150.518 419.796 147.407L418.825 149.155C424.742 152.442 431.309 154.08 438.505 154.08V152.08ZM419.802 147.41C414.3 144.304 409.95 139.913 406.746 134.217L405.003 135.198C408.38 141.202 412.988 145.86 418.819 149.152L419.802 147.41ZM406.755 134.234C403.645 128.459 402.076 121.771 402.076 114.142H400.076C400.076 122.051 401.705 129.074 404.994 135.182L406.755 134.234ZM402.076 114.142C402.076 106.611 403.688 100.021 406.883 94.3408L405.14 93.3603C401.754 99.3802 400.076 106.317 400.076 114.142H402.076ZM406.881 94.3453C410.174 88.5593 414.611 84.1719 420.197 81.1573L419.247 79.3972C413.316 82.598 408.613 87.2595 405.143 93.3559L406.881 94.3453ZM420.208 81.1514C425.805 78.0415 432.08 76.4786 439.054 76.4786V74.4786C431.769 74.4786 425.155 76.1147 419.236 79.4031L420.208 81.1514ZM439.054 76.4786C446.028 76.4786 452.302 78.0415 457.9 81.1514L458.871 79.4031C452.952 76.1147 446.339 74.4786 439.054 74.4786V76.4786ZM457.911 81.1573C463.498 84.1728 467.887 88.5143 471.087 94.2037L472.83 93.2232C469.45 87.2131 464.79 82.5971 458.86 79.3972L457.911 81.1573ZM471.093 94.214C474.375 99.8901 476.032 106.522 476.032 114.142H478.032C478.032 106.224 476.307 99.2364 472.825 93.213L471.093 94.214ZM476.032 114.142C476.032 121.757 474.331 128.434 470.958 134.203L472.685 135.212C476.259 129.099 478.032 122.065 478.032 114.142H476.032ZM470.956 134.207C467.664 139.901 463.181 144.294 457.494 147.404L458.454 149.158C464.467 145.87 469.215 141.214 472.687 135.208L470.956 134.207ZM457.494 147.404C451.802 150.517 445.479 152.08 438.505 152.08V154.08C445.79 154.08 452.447 152.443 458.454 149.158L457.494 147.404ZM438.505 143.111C443.148 143.111 447.514 142.02 451.591 139.84L450.647 138.076C446.863 140.1 442.82 141.111 438.505 141.111V143.111ZM451.591 139.84C455.702 137.64 458.988 134.345 461.45 129.99L459.709 129.006C457.417 133.059 454.396 136.071 450.647 138.076L451.591 139.84ZM461.442 130.004C464.019 125.613 465.281 120.311 465.281 114.142H463.281C463.281 120.039 462.075 124.973 459.717 128.992L461.442 130.004ZM465.281 114.142C465.281 107.979 464.067 102.682 461.587 98.2943L459.846 99.2784C462.119 103.3 463.281 108.239 463.281 114.142H465.281ZM461.587 98.2943C459.127 93.9419 455.886 90.6877 451.857 88.5774L450.929 90.3491C454.578 92.2605 457.553 95.2217 459.846 99.2784L461.587 98.2943ZM451.873 88.5861C447.884 86.4013 443.559 85.3098 438.917 85.3098V87.3098C443.232 87.3098 447.225 88.3206 450.913 90.3403L451.873 88.5861ZM438.917 85.3098C434.186 85.3098 429.816 86.3996 425.823 88.5861L426.783 90.3403C430.468 88.3223 434.507 87.3098 438.917 87.3098V85.3098ZM425.83 88.5821C421.89 90.6963 418.742 93.9552 416.376 98.3088L418.133 99.2638C420.337 95.2084 423.221 92.2519 426.776 90.3444L425.83 88.5821ZM416.376 98.3088C413.993 102.693 412.827 107.985 412.827 114.142H414.827C414.827 108.234 415.945 103.288 418.133 99.2638L416.376 98.3088ZM412.827 114.142C412.827 120.382 413.944 125.715 416.23 130.097L418.004 129.172C415.903 125.146 414.827 120.15 414.827 114.142H412.827ZM416.238 130.112C418.603 134.463 421.747 137.762 425.677 139.967L426.655 138.223C423.09 136.223 420.201 133.216 417.996 129.157L416.238 130.112ZM425.693 139.976C429.594 142.069 433.871 143.111 438.505 143.111V141.111C434.183 141.111 430.233 140.143 426.639 138.214L425.693 139.976ZM497.686 88.9148H496.686L498.577 89.3696L497.686 88.9148ZM507.009 78.9062L506.509 78.0403L506.501 78.0453L507.009 78.9062ZM521.954 75.3415H522.954V74.3415H521.954V75.3415ZM521.954 88.2293V89.2293H522.954V88.2293H521.954ZM497.686 151.846V152.846H498.686V151.846H497.686ZM485.21 151.846H484.21V152.846H485.21V151.846ZM485.21 76.7125V75.7125H484.21V76.7125H485.21ZM497.686 76.7125H498.686V75.7125H497.686V76.7125ZM498.577 89.3696C500.687 85.2367 503.665 82.0439 507.518 79.7671L506.501 78.0453C502.31 80.5215 499.073 84.0011 496.796 88.46L498.577 89.3696ZM507.51 79.7721C511.439 77.5017 516.239 76.3415 521.954 76.3415V74.3415C515.969 74.3415 510.806 75.5578 506.509 78.0403L507.51 79.7721ZM520.954 75.3415V88.2293H522.954V75.3415H520.954ZM521.954 87.2293H518.663V89.2293H521.954V87.2293ZM518.663 87.2293C511.495 87.2293 505.941 89.1774 502.195 93.2414C498.464 97.2899 496.686 103.267 496.686 110.989H498.686C498.686 103.537 500.405 98.1348 503.666 94.5969C506.912 91.0744 511.847 89.2293 518.663 89.2293V87.2293ZM496.686 110.989V151.846H498.686V110.989H496.686ZM497.686 150.846H485.21V152.846H497.686V150.846ZM486.21 151.846V76.7125H484.21V151.846H486.21ZM485.21 77.7125H497.686V75.7125H485.21V77.7125ZM496.686 76.7125V88.9148H498.686V76.7125H496.686ZM528.541 62.0424L529.248 61.3353L528.541 62.0424ZM528.541 49.9772L529.248 50.6843L528.541 49.9772ZM540.332 49.9772L539.605 50.6638L539.615 50.6742L539.625 50.6843L540.332 49.9772ZM540.332 62.0424L539.625 61.3353L539.615 61.3454L539.605 61.3557L540.332 62.0424ZM540.606 76.7125H541.606V75.7125H540.606V76.7125ZM540.606 151.846V152.846H541.606V151.846H540.606ZM528.13 151.846H527.13V152.846H528.13V151.846ZM528.13 76.7125V75.7125H527.13V76.7125H528.13ZM534.574 63.5102C532.456 63.5102 530.701 62.7885 529.248 61.3353L527.834 62.7495C529.671 64.5867 531.938 65.5102 534.574 65.5102V63.5102ZM529.248 61.3353C527.795 59.882 527.073 58.1274 527.073 56.0098H525.073C525.073 58.6451 525.997 60.9122 527.834 62.7495L529.248 61.3353ZM527.073 56.0098C527.073 53.8922 527.795 52.1376 529.248 50.6843L527.834 49.2701C525.997 51.1073 525.073 53.3744 525.073 56.0098H527.073ZM529.248 50.6843C530.701 49.231 532.456 48.5093 534.574 48.5093V46.5093C531.938 46.5093 529.671 47.4328 527.834 49.2701L529.248 50.6843ZM534.574 48.5093C536.587 48.5093 538.242 49.2208 539.605 50.6638L541.059 49.2906C539.314 47.4431 537.131 46.5093 534.574 46.5093V48.5093ZM539.625 50.6843C541.078 52.1376 541.8 53.8922 541.8 56.0098H543.8C543.8 53.3744 542.876 51.1073 541.039 49.2701L539.625 50.6843ZM541.8 56.0098C541.8 58.1274 541.078 59.882 539.625 61.3353L541.039 62.7495C542.876 60.9122 543.8 58.6451 543.8 56.0098H541.8ZM539.605 61.3557C538.242 62.7988 536.587 63.5102 534.574 63.5102V65.5102C537.131 65.5102 539.314 64.5765 541.059 62.729L539.605 61.3557ZM539.606 76.7125V151.846H541.606V76.7125H539.606ZM540.606 150.846H528.13V152.846H540.606V150.846ZM529.13 151.846V76.7125H527.13V151.846H529.13ZM528.13 77.7125H540.606V75.7125H528.13V77.7125ZM621.785 118.941V119.941H622.687L622.78 119.044L621.785 118.941ZM561.733 118.941V117.941H560.67L560.735 119.002L561.733 118.941ZM569.274 136.353L568.597 137.089L568.605 137.096L568.612 137.103L569.274 136.353ZM599.574 138.821L600.143 139.643L600.147 139.64L599.574 138.821ZM607.252 128.675V127.675H606.541L606.307 128.347L607.252 128.675ZM620.688 128.675L621.651 128.943L622.005 127.675H620.688V128.675ZM608.623 146.362L609.219 147.164L609.227 147.159L608.623 146.362ZM566.943 148.281L566.445 149.148L566.452 149.152L566.943 148.281ZM553.781 134.708L552.901 135.182L552.904 135.187L553.781 134.708ZM553.644 93.7135L554.527 94.1826L553.644 93.7135ZM566.669 80.2772L567.156 81.1507L567.161 81.1481L566.669 80.2772ZM605.058 80.1401L604.565 81.0102L605.058 80.1401ZM617.672 93.0279L616.789 93.4985L616.794 93.5074L616.799 93.5161L617.672 93.0279ZM609.308 108.795V109.795H610.308V108.795H609.308ZM606.155 96.5927L605.299 97.1105L605.306 97.1206L606.155 96.5927ZM597.517 88.7777L597.061 89.6675L597.075 89.6745L597.088 89.681L597.517 88.7777ZM569.411 92.0682L568.743 91.3241L568.735 91.3311L569.411 92.0682ZM561.87 108.795L560.874 108.706L560.777 109.795H561.87V108.795ZM621.196 111.4C621.196 113.738 621.061 116.217 620.79 118.838L622.78 119.044C623.057 116.363 623.196 113.815 623.196 111.4H621.196ZM621.785 117.941H561.733V119.941H621.785V117.941ZM560.735 119.002C561.205 126.61 563.801 132.676 568.597 137.089L569.951 135.617C565.607 131.62 563.176 126.078 562.731 118.879L560.735 119.002ZM568.612 137.103C573.468 141.387 579.329 143.523 586.138 143.523V141.523C579.785 141.523 574.403 139.545 569.936 135.603L568.612 137.103ZM586.138 143.523C591.684 143.523 596.374 142.252 600.143 139.643L599.005 137.999C595.644 140.325 591.377 141.523 586.138 141.523V143.523ZM600.147 139.64C603.975 136.961 606.665 133.407 608.196 129.004L606.307 128.347C604.914 132.352 602.485 135.562 599.001 138.002L600.147 139.64ZM607.252 129.675H620.688V127.675H607.252V129.675ZM619.725 128.407C617.773 135.415 613.879 141.125 608.019 145.564L609.227 147.159C615.432 142.458 619.581 136.377 621.651 128.943L619.725 128.407ZM608.027 145.559C602.198 149.886 594.923 152.08 586.138 152.08V154.08C595.267 154.08 602.983 151.794 609.219 147.164L608.027 145.559ZM586.138 152.08C579.164 152.08 572.938 150.517 567.435 147.41L566.452 149.152C572.283 152.444 578.853 154.08 586.138 154.08V152.08ZM567.441 147.414C562.031 144.31 557.773 139.922 554.659 134.228L552.904 135.187C556.188 141.193 560.704 145.854 566.445 149.148L567.441 147.414ZM554.662 134.234C551.552 128.459 549.982 121.771 549.982 114.142H547.982C547.982 122.051 549.612 129.074 552.901 135.182L554.662 134.234ZM549.982 114.142C549.982 106.508 551.508 99.8648 554.527 94.1826L552.761 93.2443C549.564 99.2617 547.982 106.237 547.982 114.142H549.982ZM554.527 94.1826C557.548 88.4962 561.755 84.161 567.156 81.1507L566.182 79.4038C560.432 82.6089 555.955 87.2312 552.761 93.2443L554.527 94.1826ZM567.161 81.1481C572.66 78.0437 578.976 76.4786 586.138 76.4786V74.4786C578.675 74.4786 572.012 76.1126 566.177 79.4064L567.161 81.1481ZM586.138 76.4786C593.117 76.4786 599.25 77.9983 604.565 81.0102L605.551 79.2701C599.898 76.0665 593.417 74.4786 586.138 74.4786V76.4786ZM604.565 81.0102C609.887 84.0257 613.955 88.1842 616.789 93.4985L618.554 92.5574C615.539 86.9033 611.198 82.4699 605.551 79.2701L604.565 81.0102ZM616.799 93.5161C619.723 98.7439 621.196 104.697 621.196 111.4H623.196C623.196 104.393 621.653 98.0976 618.545 92.5398L616.799 93.5161ZM610.308 108.795C610.308 103.892 609.223 99.6335 607.004 96.0647L605.306 97.1206C607.292 100.316 608.308 104.192 608.308 108.795H610.308ZM607.01 96.0749C604.807 92.4346 601.78 89.6954 597.946 87.8744L597.088 89.681C600.567 91.3334 603.298 93.8041 605.299 97.1105L607.01 96.0749ZM597.974 87.8879C594.255 85.9807 590.12 85.0356 585.589 85.0356V87.0356C589.833 87.0356 593.651 87.9186 597.061 89.6675L597.974 87.8879ZM585.589 85.0356C579.049 85.0356 573.415 87.1292 568.743 91.3242L570.079 92.8123C574.365 88.9638 579.516 87.0356 585.589 87.0356V85.0356ZM568.735 91.3311C564.128 95.5541 561.532 101.381 560.874 108.706L562.866 108.884C563.489 101.95 565.919 96.6258 570.087 92.8054L568.735 91.3311ZM561.87 109.795H609.308V107.795H561.87V109.795Z" fill="#696B77"/>
<path d="M725.177 93.8506L726.057 94.3255L726.06 94.3197L725.177 93.8506ZM738.065 80.2772L737.567 79.4099L737.561 79.4135L738.065 80.2772ZM779.882 82.1967L779.28 82.9952L779.286 82.9996L779.882 82.1967ZM791.81 100.843V101.843H793.08L792.782 100.608L791.81 100.843ZM778.374 100.843L777.411 101.113L777.615 101.843H778.374V100.843ZM770.833 90.0117L770.246 90.8213L770.255 90.8281L770.833 90.0117ZM739.847 93.4393L740.589 94.1106L740.595 94.1036L739.847 93.4393ZM739.847 135.119L740.595 134.455L739.847 135.119ZM770.833 138.684L771.406 139.503L770.833 138.684ZM778.374 127.715V126.715H777.621L777.413 127.438L778.374 127.715ZM791.81 127.715L792.777 127.969L793.106 126.715H791.81V127.715ZM779.745 146.224L780.349 147.022L780.356 147.016L779.745 146.224ZM738.065 148.281L737.561 149.145L737.567 149.148L738.065 148.281ZM725.177 134.708L724.294 135.177L725.177 134.708ZM721.516 114.142C721.516 106.508 723.042 99.9129 726.057 94.3255L724.297 93.3756C721.097 99.305 719.516 106.238 719.516 114.142H721.516ZM726.06 94.3197C729.085 88.6267 733.253 84.2422 738.569 81.141L737.561 79.4135C731.909 82.7104 727.485 87.3748 724.294 93.3814L726.06 94.3197ZM738.563 81.1446C743.971 78.0416 750.148 76.4786 757.123 76.4786V74.4786C749.838 74.4786 743.31 76.1146 737.567 79.4099L738.563 81.1446ZM757.123 76.4786C766.19 76.4786 773.55 78.676 779.28 82.9952L780.484 81.3982C774.331 76.7599 766.518 74.4786 757.123 74.4786V76.4786ZM779.286 82.9996C785.113 87.326 788.968 93.3314 790.838 101.078L792.782 100.608C790.813 92.4503 786.716 86.0248 780.478 81.3938L779.286 82.9996ZM791.81 99.8429H778.374V101.843H791.81V99.8429ZM779.337 100.573C777.997 95.7901 775.352 91.9833 771.41 89.1952L770.255 90.8281C773.809 93.3414 776.191 96.7554 777.411 101.113L779.337 100.573ZM771.42 89.202C767.559 86.403 762.771 85.0356 757.123 85.0356V87.0356C762.442 87.0356 766.794 88.3189 770.246 90.8213L771.42 89.202ZM757.123 85.0356C749.733 85.0356 743.693 87.6072 739.1 92.7749L740.595 94.1036C744.776 89.3998 750.253 87.0356 757.123 87.0356V85.0356ZM739.106 92.768C734.499 97.855 732.266 105.029 732.266 114.142H734.266C734.266 105.34 736.421 98.7122 740.589 94.1105L739.106 92.768ZM732.266 114.142C732.266 123.345 734.498 130.606 739.1 135.783L740.595 134.455C736.422 129.76 734.266 123.037 734.266 114.142H732.266ZM739.1 135.783C743.693 140.951 749.733 143.523 757.123 143.523V141.523C750.253 141.523 744.776 139.158 740.595 134.455L739.1 135.783ZM757.123 143.523C762.764 143.523 767.547 142.204 771.406 139.503L770.259 137.864C766.807 140.281 762.449 141.523 757.123 141.523V143.523ZM771.406 139.503C775.27 136.798 777.907 132.94 779.335 127.993L777.413 127.438C776.098 131.997 773.708 135.451 770.259 137.864L771.406 139.503ZM778.374 128.715H791.81V126.715H778.374V128.715ZM790.843 127.462C788.885 134.936 784.984 140.913 779.133 145.433L780.356 147.016C786.571 142.213 790.713 135.851 792.777 127.969L790.843 127.462ZM779.141 145.427C773.314 149.842 765.997 152.08 757.123 152.08V154.08C766.345 154.08 774.11 151.748 780.349 147.022L779.141 145.427ZM757.123 152.08C750.148 152.08 743.971 150.517 738.563 147.414L737.567 149.148C743.31 152.444 749.838 154.08 757.123 154.08V152.08ZM738.569 147.417C733.253 144.316 729.085 139.932 726.06 134.239L724.294 135.177C727.485 141.183 731.909 145.848 737.561 149.145L738.569 147.417ZM726.06 134.239C723.043 128.558 721.516 121.87 721.516 114.142H719.516C719.516 122.136 721.097 129.158 724.294 135.177L726.06 134.239ZM800.231 93.8506L801.111 94.3255L801.114 94.3197L800.231 93.8506ZM812.982 80.2772L812.478 79.4134L812.472 79.4172L812.982 80.2772ZM848.355 79.7288L847.85 80.592L848.355 79.7288ZM859.186 90.423L858.311 90.907L860.186 90.423H859.186ZM859.186 76.7125V75.7125H858.186V76.7125H859.186ZM871.8 76.7125H872.8V75.7125H871.8V76.7125ZM871.8 151.846V152.846H872.8V151.846H871.8ZM859.186 151.846H858.186V152.846H859.186V151.846ZM859.186 137.861H860.186V134.044L858.314 137.371L859.186 137.861ZM848.081 148.829L848.585 149.693L848.59 149.69L848.081 148.829ZM812.982 148.144L812.461 148.998L812.982 148.144ZM800.231 134.296L801.117 133.833L800.231 134.296ZM855.758 99.3347L856.637 98.8572L855.758 99.3347ZM846.435 89.7374L845.924 90.5967L845.936 90.6039L845.948 90.6106L846.435 89.7374ZM820.934 89.6003L820.438 88.7321L820.934 89.6003ZM811.748 99.1976L812.627 99.6752L811.748 99.1976ZM811.748 129.086L810.865 129.556L810.869 129.564L811.748 129.086ZM820.934 138.821L820.422 139.68L820.43 139.685L820.438 139.689L820.934 138.821ZM846.435 138.821L846.931 139.689L846.938 139.685L846.435 138.821ZM855.758 129.086L856.637 129.564L856.641 129.556L855.758 129.086ZM796.57 114.005C796.57 106.464 798.095 99.9146 801.111 94.3255L799.351 93.3756C796.152 99.3033 794.57 106.19 794.57 114.005H796.57ZM801.114 94.3197C804.141 88.6224 808.266 84.2374 813.492 81.1373L812.472 79.4172C806.912 82.7153 802.537 87.3791 799.348 93.3814L801.114 94.3197ZM813.486 81.141C818.809 78.0357 824.712 76.4786 831.217 76.4786V74.4786C824.377 74.4786 818.123 76.1205 812.478 79.4135L813.486 81.141ZM831.217 76.4786C837.651 76.4786 843.183 77.8625 847.85 80.592L848.86 78.8656C843.837 75.9281 837.944 74.4786 831.217 74.4786V76.4786ZM847.85 80.592C852.562 83.3479 856.033 86.7899 858.311 90.907L860.061 89.9389C857.586 85.4641 853.837 81.7767 848.86 78.8656L847.85 80.592ZM860.186 90.423V76.7125H858.186V90.423H860.186ZM859.186 77.7125H871.8V75.7125H859.186V77.7125ZM870.8 76.7125V151.846H872.8V76.7125H870.8ZM871.8 150.846H859.186V152.846H871.8V150.846ZM860.186 151.846V137.861H858.186V151.846H860.186ZM858.314 137.371C855.944 141.585 852.377 145.121 847.571 147.969L848.59 149.69C853.656 146.688 857.492 142.912 860.058 138.351L858.314 137.371ZM847.576 147.966C842.907 150.697 837.42 152.08 831.08 152.08V154.08C837.719 154.08 843.565 152.629 848.585 149.693L847.576 147.966ZM831.08 152.08C824.58 152.08 818.73 150.48 813.503 147.29L812.461 148.998C818.02 152.389 824.234 154.08 831.08 154.08V152.08ZM813.503 147.29C808.274 144.1 804.146 139.624 801.117 133.833L799.345 134.76C802.531 140.852 806.904 145.607 812.461 148.998L813.503 147.29ZM801.117 133.833C798.094 128.053 796.57 121.451 796.57 114.005H794.57C794.57 121.731 796.153 128.658 799.345 134.76L801.117 133.833ZM860.186 114.142C860.186 108.339 859.015 103.233 856.637 98.8572L854.88 99.8123C857.072 103.845 858.186 108.611 858.186 114.142H860.186ZM856.637 98.8572C854.268 94.4974 851.029 91.156 846.923 88.8642L845.948 90.6106C849.702 92.7062 852.679 95.763 854.88 99.8123L856.637 98.8572ZM846.947 88.8782C842.946 86.4969 838.518 85.3098 833.685 85.3098V87.3098C838.174 87.3098 842.246 88.4079 845.924 90.5967L846.947 88.8782ZM833.685 85.3098C828.859 85.3098 824.436 86.4473 820.438 88.7321L821.43 90.4686C825.11 88.366 829.187 87.3098 833.685 87.3098V85.3098ZM820.438 88.7321C816.424 91.0255 813.235 94.3663 810.869 98.7201L812.627 99.6752C814.83 95.6199 817.766 92.5625 821.43 90.4686L820.438 88.7321ZM810.869 98.7201C808.491 103.096 807.32 108.202 807.32 114.005H809.32C809.32 108.474 810.435 103.708 812.627 99.6752L810.869 98.7201ZM807.32 114.005C807.32 119.897 808.49 125.091 810.865 129.556L812.631 128.617C810.436 124.49 809.32 119.63 809.32 114.005H807.32ZM810.869 129.564C813.234 133.915 816.418 137.297 820.422 139.68L821.445 137.962C817.772 135.775 814.832 132.667 812.627 128.609L810.869 129.564ZM820.438 139.689C824.436 141.974 828.859 143.111 833.685 143.111V141.111C829.187 141.111 825.11 140.055 821.43 137.953L820.438 139.689ZM833.685 143.111C838.51 143.111 842.933 141.974 846.931 139.689L845.939 137.953C842.26 140.055 838.182 141.111 833.685 141.111V143.111ZM846.938 139.685C851.035 137.303 854.269 133.921 856.637 129.564L854.88 128.609C852.677 132.661 849.696 135.768 845.933 137.956L846.938 139.685ZM856.641 129.556C859.015 125.093 860.186 119.946 860.186 114.142H858.186C858.186 119.672 857.072 124.488 854.876 128.617L856.641 129.556ZM897.134 50.3885H898.134V49.3885H897.134V50.3885ZM897.134 151.846V152.846H898.134V151.846H897.134ZM884.657 151.846H883.657V152.846H884.657V151.846ZM884.657 50.3885V49.3885H883.657V50.3885H884.657ZM896.134 50.3885V151.846H898.134V50.3885H896.134ZM897.134 150.846H884.657V152.846H897.134V150.846ZM885.657 151.846V50.3885H883.657V151.846H885.657ZM884.657 51.3885H897.134V49.3885H884.657V51.3885ZM923.745 148.281L923.253 149.152L923.259 149.155L923.745 148.281ZM910.309 134.708L909.428 135.182L909.433 135.19L909.437 135.198L910.309 134.708ZM910.446 93.8506L909.577 93.3559L909.574 93.3603L910.446 93.8506ZM924.156 80.2772L924.631 81.1573L924.642 81.1514L924.156 80.2772ZM962.82 80.2772L962.334 81.1515L962.345 81.1573L962.82 80.2772ZM976.393 93.7135L975.521 94.2038L975.527 94.214L976.393 93.7135ZM976.256 134.708L975.393 134.203L975.39 134.207L976.256 134.708ZM962.408 148.281L962.888 149.158L962.408 148.281ZM965.013 129.498L964.151 128.992L964.147 128.999L964.143 129.006L965.013 129.498ZM955.827 89.4632L955.347 90.3403L955.355 90.3448L955.363 90.3491L955.827 89.4632ZM930.737 89.4632L931.21 90.3444L931.218 90.3403L930.737 89.4632ZM921.688 98.7863L922.567 99.2638L921.688 98.7863ZM921.551 129.635L920.665 130.097L920.669 130.105L920.673 130.112L921.551 129.635ZM930.6 139.095L930.111 139.967L930.119 139.972L930.127 139.976L930.6 139.095ZM942.94 152.08C936.06 152.08 929.83 150.518 924.231 147.407L923.259 149.155C929.176 152.442 935.744 154.08 942.94 154.08V152.08ZM924.237 147.41C918.734 144.304 914.384 139.913 911.18 134.217L909.437 135.198C912.814 141.202 917.422 145.86 923.253 149.152L924.237 147.41ZM911.189 134.234C908.08 128.459 906.51 121.771 906.51 114.142H904.51C904.51 122.051 906.14 129.074 909.428 135.182L911.189 134.234ZM906.51 114.142C906.51 106.611 908.123 100.021 911.317 94.3408L909.574 93.3603C906.188 99.3802 904.51 106.317 904.51 114.142H906.51ZM911.315 94.3453C914.609 88.5593 919.045 84.1719 924.631 81.1573L923.681 79.3972C917.751 82.598 913.047 87.2595 909.577 93.3559L911.315 94.3453ZM924.642 81.1514C930.24 78.0415 936.514 76.4786 943.488 76.4786V74.4786C936.203 74.4786 929.59 76.1147 923.671 79.4031L924.642 81.1514ZM943.488 76.4786C950.462 76.4786 956.736 78.0415 962.334 81.1514L963.305 79.4031C957.386 76.1147 950.773 74.4786 943.488 74.4786V76.4786ZM962.345 81.1573C967.932 84.1728 972.321 88.5143 975.521 94.2037L977.265 93.2232C973.884 87.2131 969.224 82.5971 963.295 79.3972L962.345 81.1573ZM975.527 94.214C978.809 99.8901 980.466 106.522 980.466 114.142H982.466C982.466 106.224 980.741 99.2364 977.259 93.213L975.527 94.214ZM980.466 114.142C980.466 121.757 978.765 128.434 975.393 134.203L977.119 135.212C980.693 129.099 982.466 122.065 982.466 114.142H980.466ZM975.39 134.207C972.099 139.901 967.615 144.294 961.929 147.404L962.888 149.158C968.901 145.87 973.649 141.214 977.122 135.208L975.39 134.207ZM961.929 147.404C956.236 150.517 949.913 152.08 942.94 152.08V154.08C950.225 154.08 956.881 152.443 962.888 149.158L961.929 147.404ZM942.94 143.111C947.582 143.111 951.949 142.02 956.025 139.84L955.082 138.076C951.297 140.1 947.255 141.111 942.94 141.111V143.111ZM956.025 139.84C960.136 137.64 963.422 134.345 965.884 129.99L964.143 129.006C961.852 133.059 958.831 136.071 955.082 138.076L956.025 139.84ZM965.876 130.004C968.453 125.613 969.715 120.311 969.715 114.142H967.715C967.715 120.039 966.51 124.973 964.151 128.992L965.876 130.004ZM969.715 114.142C969.715 107.979 968.501 102.682 966.021 98.2943L964.28 99.2784C966.553 103.3 967.715 108.239 967.715 114.142H969.715ZM966.021 98.2943C963.561 93.9419 960.32 90.6877 956.291 88.5774L955.363 90.3491C959.013 92.2605 961.987 95.2217 964.28 99.2784L966.021 98.2943ZM956.308 88.5861C952.318 86.4013 947.993 85.3098 943.351 85.3098V87.3098C947.666 87.3098 951.659 88.3206 955.347 90.3403L956.308 88.5861ZM943.351 85.3098C938.621 85.3098 934.25 86.3996 930.257 88.5861L931.218 90.3403C934.903 88.3223 938.941 87.3098 943.351 87.3098V85.3098ZM930.264 88.5821C926.324 90.6963 923.176 93.9552 920.81 98.3088L922.567 99.2638C924.771 95.2084 927.655 92.2519 931.21 90.3444L930.264 88.5821ZM920.81 98.3088C918.427 102.693 917.261 107.985 917.261 114.142H919.261C919.261 108.234 920.38 103.288 922.567 99.2638L920.81 98.3088ZM917.261 114.142C917.261 120.382 918.378 125.715 920.665 130.097L922.438 129.172C920.337 125.146 919.261 120.15 919.261 114.142H917.261ZM920.673 130.112C923.037 134.463 926.181 137.762 930.111 139.967L931.089 138.223C927.525 136.223 924.636 133.216 922.43 129.157L920.673 130.112ZM930.127 139.976C934.028 142.069 938.305 143.111 942.94 143.111V141.111C938.617 141.111 934.667 140.143 931.073 138.214L930.127 139.976ZM1002.12 88.9148H1001.12L1003.01 89.3696L1002.12 88.9148ZM1011.44 78.9062L1010.94 78.0403L1010.93 78.0453L1011.44 78.9062ZM1026.39 75.3415H1027.39V74.3415H1026.39V75.3415ZM1026.39 88.2293V89.2293H1027.39V88.2293H1026.39ZM1002.12 151.846V152.846H1003.12V151.846H1002.12ZM989.644 151.846H988.644V152.846H989.644V151.846ZM989.644 76.7125V75.7125H988.644V76.7125H989.644ZM1002.12 76.7125H1003.12V75.7125H1002.12V76.7125ZM1003.01 89.3696C1005.12 85.2367 1008.1 82.0439 1011.95 79.7671L1010.93 78.0453C1006.74 80.5215 1003.51 84.0011 1001.23 88.46L1003.01 89.3696ZM1011.94 79.7721C1015.87 77.5017 1020.67 76.3415 1026.39 76.3415V74.3415C1020.4 74.3415 1015.24 75.5578 1010.94 78.0403L1011.94 79.7721ZM1025.39 75.3415V88.2293H1027.39V75.3415H1025.39ZM1026.39 87.2293H1023.1V89.2293H1026.39V87.2293ZM1023.1 87.2293C1015.93 87.2293 1010.38 89.1774 1006.63 93.2414C1002.9 97.2899 1001.12 103.267 1001.12 110.989H1003.12C1003.12 103.537 1004.84 98.1348 1008.1 94.5969C1011.35 91.0744 1016.28 89.2293 1023.1 89.2293V87.2293ZM1001.12 110.989V151.846H1003.12V110.989H1001.12ZM1002.12 150.846H989.644V152.846H1002.12V150.846ZM990.644 151.846V76.7125H988.644V151.846H990.644ZM989.644 77.7125H1002.12V75.7125H989.644V77.7125ZM1001.12 76.7125V88.9148H1003.12V76.7125H1001.12ZM1032.98 62.0424L1033.68 61.3353L1032.98 62.0424ZM1032.98 49.9772L1033.68 50.6843L1032.98 49.9772ZM1044.77 49.9772L1044.04 50.6638L1044.05 50.6742L1044.06 50.6843L1044.77 49.9772ZM1044.77 62.0424L1044.06 61.3353L1044.05 61.3454L1044.04 61.3557L1044.77 62.0424ZM1045.04 76.7125H1046.04V75.7125H1045.04V76.7125ZM1045.04 151.846V152.846H1046.04V151.846H1045.04ZM1032.56 151.846H1031.56V152.846H1032.56V151.846ZM1032.56 76.7125V75.7125H1031.56V76.7125H1032.56ZM1039.01 63.5102C1036.89 63.5102 1035.14 62.7885 1033.68 61.3353L1032.27 62.7495C1034.11 64.5867 1036.37 65.5102 1039.01 65.5102V63.5102ZM1033.68 61.3353C1032.23 59.882 1031.51 58.1274 1031.51 56.0098H1029.51C1029.51 58.6451 1030.43 60.9122 1032.27 62.7495L1033.68 61.3353ZM1031.51 56.0098C1031.51 53.8922 1032.23 52.1376 1033.68 50.6843L1032.27 49.2701C1030.43 51.1073 1029.51 53.3744 1029.51 56.0098H1031.51ZM1033.68 50.6843C1035.14 49.231 1036.89 48.5093 1039.01 48.5093V46.5093C1036.37 46.5093 1034.11 47.4328 1032.27 49.2701L1033.68 50.6843ZM1039.01 48.5093C1041.02 48.5093 1042.68 49.2208 1044.04 50.6638L1045.49 49.2906C1043.75 47.4431 1041.57 46.5093 1039.01 46.5093V48.5093ZM1044.06 50.6843C1045.51 52.1376 1046.23 53.8922 1046.23 56.0098H1048.23C1048.23 53.3744 1047.31 51.1073 1045.47 49.2701L1044.06 50.6843ZM1046.23 56.0098C1046.23 58.1274 1045.51 59.882 1044.06 61.3353L1045.47 62.7495C1047.31 60.9122 1048.23 58.6451 1048.23 56.0098H1046.23ZM1044.04 61.3557C1042.68 62.7988 1041.02 63.5102 1039.01 63.5102V65.5102C1041.57 65.5102 1043.75 64.5765 1045.49 62.729L1044.04 61.3557ZM1044.04 76.7125V151.846H1046.04V76.7125H1044.04ZM1045.04 150.846H1032.56V152.846H1045.04V150.846ZM1033.56 151.846V76.7125H1031.56V151.846H1033.56ZM1032.56 77.7125H1045.04V75.7125H1032.56V77.7125ZM1126.22 118.941V119.941H1127.12L1127.21 119.044L1126.22 118.941ZM1066.17 118.941V117.941H1065.1L1065.17 119.002L1066.17 118.941ZM1073.71 136.353L1073.03 137.089L1073.04 137.096L1073.05 137.103L1073.71 136.353ZM1104.01 138.821L1104.58 139.643L1104.58 139.64L1104.01 138.821ZM1111.69 128.675V127.675H1110.98L1110.74 128.347L1111.69 128.675ZM1125.12 128.675L1126.09 128.943L1126.44 127.675H1125.12V128.675ZM1113.06 146.362L1113.65 147.164L1113.66 147.159L1113.06 146.362ZM1071.38 148.281L1070.88 149.148L1070.89 149.152L1071.38 148.281ZM1058.22 134.708L1057.33 135.182L1057.34 135.187L1058.22 134.708ZM1058.08 93.7135L1058.96 94.1826L1058.08 93.7135ZM1071.1 80.2772L1071.59 81.1507L1071.59 81.1481L1071.1 80.2772ZM1109.49 80.1401L1109 81.0102L1109.49 80.1401ZM1122.11 93.0279L1121.22 93.4985L1121.23 93.5074L1121.23 93.5161L1122.11 93.0279ZM1113.74 108.795V109.795H1114.74V108.795H1113.74ZM1110.59 96.5927L1109.73 97.1105L1109.74 97.1206L1110.59 96.5927ZM1101.95 88.7777L1101.5 89.6675L1101.51 89.6745L1101.52 89.681L1101.95 88.7777ZM1073.85 92.0682L1073.18 91.3241L1073.17 91.3311L1073.85 92.0682ZM1066.3 108.795L1065.31 108.706L1065.21 109.795H1066.3V108.795ZM1125.63 111.4C1125.63 113.738 1125.5 116.217 1125.22 118.838L1127.21 119.044C1127.49 116.363 1127.63 113.815 1127.63 111.4H1125.63ZM1126.22 117.941H1066.17V119.941H1126.22V117.941ZM1065.17 119.002C1065.64 126.61 1068.23 132.676 1073.03 137.089L1074.39 135.617C1070.04 131.62 1067.61 126.078 1067.17 118.879L1065.17 119.002ZM1073.05 137.103C1077.9 141.387 1083.76 143.523 1090.57 143.523V141.523C1084.22 141.523 1078.84 139.545 1074.37 135.603L1073.05 137.103ZM1090.57 143.523C1096.12 143.523 1100.81 142.252 1104.58 139.643L1103.44 137.999C1100.08 140.325 1095.81 141.523 1090.57 141.523V143.523ZM1104.58 139.64C1108.41 136.961 1111.1 133.407 1112.63 129.004L1110.74 128.347C1109.35 132.352 1106.92 135.562 1103.43 138.002L1104.58 139.64ZM1111.69 129.675H1125.12V127.675H1111.69V129.675ZM1124.16 128.407C1122.21 135.415 1118.31 141.125 1112.45 145.564L1113.66 147.159C1119.87 142.458 1124.02 136.377 1126.09 128.943L1124.16 128.407ZM1112.46 145.559C1106.63 149.886 1099.36 152.08 1090.57 152.08V154.08C1099.7 154.08 1107.42 151.794 1113.65 147.164L1112.46 145.559ZM1090.57 152.08C1083.6 152.08 1077.37 150.517 1071.87 147.41L1070.89 149.152C1076.72 152.444 1083.29 154.08 1090.57 154.08V152.08ZM1071.88 147.414C1066.47 144.31 1062.21 139.922 1059.09 134.228L1057.34 135.187C1060.62 141.193 1065.14 145.854 1070.88 149.148L1071.88 147.414ZM1059.1 134.234C1055.99 128.459 1054.42 121.771 1054.42 114.142H1052.42C1052.42 122.051 1054.05 129.074 1057.33 135.182L1059.1 134.234ZM1054.42 114.142C1054.42 106.508 1055.94 99.8648 1058.96 94.1826L1057.2 93.2443C1054 99.2617 1052.42 106.237 1052.42 114.142H1054.42ZM1058.96 94.1826C1061.98 88.4962 1066.19 84.161 1071.59 81.1507L1070.62 79.4038C1064.87 82.6089 1060.39 87.2312 1057.2 93.2443L1058.96 94.1826ZM1071.59 81.1481C1077.09 78.0437 1083.41 76.4786 1090.57 76.4786V74.4786C1083.11 74.4786 1076.45 76.1126 1070.61 79.4064L1071.59 81.1481ZM1090.57 76.4786C1097.55 76.4786 1103.68 77.9983 1109 81.0102L1109.99 79.2701C1104.33 76.0665 1097.85 74.4786 1090.57 74.4786V76.4786ZM1109 81.0102C1114.32 84.0257 1118.39 88.1842 1121.22 93.4985L1122.99 92.5574C1119.97 86.9033 1115.63 82.4699 1109.99 79.2701L1109 81.0102ZM1121.23 93.5161C1124.16 98.7439 1125.63 104.697 1125.63 111.4H1127.63C1127.63 104.393 1126.09 98.0976 1122.98 92.5398L1121.23 93.5161ZM1114.74 108.795C1114.74 103.892 1113.66 99.6335 1111.44 96.0647L1109.74 97.1206C1111.73 100.316 1112.74 104.192 1112.74 108.795H1114.74ZM1111.44 96.0749C1109.24 92.4346 1106.21 89.6954 1102.38 87.8744L1101.52 89.681C1105 91.3334 1107.73 93.8041 1109.73 97.1105L1111.44 96.0749ZM1102.41 87.8879C1098.69 85.9807 1094.55 85.0356 1090.02 85.0356V87.0356C1094.27 87.0356 1098.08 87.9186 1101.5 89.6675L1102.41 87.8879ZM1090.02 85.0356C1083.48 85.0356 1077.85 87.1292 1073.18 91.3242L1074.51 92.8123C1078.8 88.9638 1083.95 87.0356 1090.02 87.0356V85.0356ZM1073.17 91.3311C1068.56 95.5541 1065.97 101.381 1065.31 108.706L1067.3 108.884C1067.92 101.95 1070.35 96.6258 1074.52 92.8054L1073.17 91.3311ZM1066.3 109.795H1113.74V107.795H1066.3V109.795Z" fill="#696B77"/>
<path d="M-254.094 93.8506L-253.214 94.3255L-253.211 94.3197L-254.094 93.8506ZM-241.206 80.2772L-241.704 79.4099L-241.71 79.4135L-241.206 80.2772ZM-199.389 82.1967L-199.991 82.9952L-199.986 82.9996L-199.389 82.1967ZM-187.461 100.843V101.843H-186.191L-186.489 100.608L-187.461 100.843ZM-200.898 100.843L-201.861 101.113L-201.656 101.843H-200.898V100.843ZM-208.438 90.0117L-209.025 90.8213L-209.016 90.8281L-208.438 90.0117ZM-239.424 93.4393L-238.683 94.1106L-238.677 94.1036L-239.424 93.4393ZM-239.424 135.119L-238.677 134.455L-239.424 135.119ZM-208.438 138.684L-207.865 139.503L-208.438 138.684ZM-200.898 127.715V126.715H-201.65L-201.858 127.438L-200.898 127.715ZM-187.461 127.715L-186.494 127.969L-186.166 126.715H-187.461V127.715ZM-199.527 146.224L-198.923 147.022L-198.915 147.016L-199.527 146.224ZM-241.206 148.281L-241.71 149.145L-241.704 149.148L-241.206 148.281ZM-254.094 134.708L-254.977 135.177L-254.094 134.708ZM-257.756 114.142C-257.756 106.508 -256.229 99.9129 -253.214 94.3255L-254.974 93.3756C-258.174 99.305 -259.756 106.238 -259.756 114.142H-257.756ZM-253.211 94.3197C-250.187 88.6267 -246.019 84.2422 -240.702 81.141L-241.71 79.4135C-247.362 82.7104 -251.786 87.3748 -254.977 93.3814L-253.211 94.3197ZM-240.709 81.1446C-235.301 78.0416 -229.123 76.4786 -222.149 76.4786V74.4786C-229.433 74.4786 -235.961 76.1146 -241.704 79.4099L-240.709 81.1446ZM-222.149 76.4786C-213.081 76.4786 -205.721 78.676 -199.991 82.9952L-198.787 81.3982C-204.94 76.7599 -212.753 74.4786 -222.149 74.4786V76.4786ZM-199.986 82.9996C-194.158 87.326 -190.303 93.3314 -188.433 101.078L-186.489 100.608C-188.458 92.4503 -192.556 86.0248 -198.793 81.3938L-199.986 82.9996ZM-187.461 99.8429H-200.898V101.843H-187.461V99.8429ZM-199.935 100.573C-201.274 95.7901 -203.919 91.9833 -207.861 89.1952L-209.016 90.8281C-205.463 93.3414 -203.081 96.7554 -201.861 101.113L-199.935 100.573ZM-207.851 89.202C-211.712 86.403 -216.5 85.0356 -222.149 85.0356V87.0356C-216.829 87.0356 -212.477 88.3189 -209.025 90.8213L-207.851 89.202ZM-222.149 85.0356C-229.538 85.0356 -235.578 87.6072 -240.171 92.7749L-238.677 94.1036C-234.495 89.3998 -229.018 87.0356 -222.149 87.0356V85.0356ZM-240.165 92.768C-244.772 97.855 -247.005 105.029 -247.005 114.142H-245.005C-245.005 105.34 -242.85 98.7122 -238.683 94.1105L-240.165 92.768ZM-247.005 114.142C-247.005 123.345 -244.773 130.606 -240.171 135.783L-238.677 134.455C-242.849 129.76 -245.005 123.037 -245.005 114.142H-247.005ZM-240.171 135.783C-235.578 140.951 -229.538 143.523 -222.149 143.523V141.523C-229.018 141.523 -234.495 139.158 -238.677 134.455L-240.171 135.783ZM-222.149 143.523C-216.507 143.523 -211.724 142.204 -207.865 139.503L-209.012 137.864C-212.465 140.281 -216.822 141.523 -222.149 141.523V143.523ZM-207.865 139.503C-204.001 136.798 -201.364 132.94 -199.937 127.993L-201.858 127.438C-203.173 131.997 -205.563 135.451 -209.012 137.864L-207.865 139.503ZM-200.898 128.715H-187.461V126.715H-200.898V128.715ZM-188.429 127.462C-190.386 134.936 -194.288 140.913 -200.138 145.433L-198.915 147.016C-192.7 142.213 -188.558 135.851 -186.494 127.969L-188.429 127.462ZM-200.13 145.427C-205.957 149.842 -213.274 152.08 -222.149 152.08V154.08C-212.926 154.08 -205.161 151.748 -198.923 147.022L-200.13 145.427ZM-222.149 152.08C-229.123 152.08 -235.301 150.517 -240.709 147.414L-241.704 149.148C-235.961 152.444 -229.433 154.08 -222.149 154.08V152.08ZM-240.702 147.417C-246.019 144.316 -250.187 139.932 -253.211 134.239L-254.977 135.177C-251.786 141.183 -247.362 145.848 -241.71 149.145L-240.702 147.417ZM-253.211 134.239C-256.229 128.558 -257.756 121.87 -257.756 114.142H-259.756C-259.756 122.136 -258.175 129.158 -254.977 135.177L-253.211 134.239ZM-179.04 93.8506L-178.16 94.3255L-178.157 94.3197L-179.04 93.8506ZM-166.289 80.2772L-166.793 79.4134L-166.8 79.4172L-166.289 80.2772ZM-130.917 79.7288L-131.421 80.592L-130.917 79.7288ZM-120.085 90.423L-120.96 90.907L-119.085 90.423H-120.085ZM-120.085 76.7125V75.7125H-121.085V76.7125H-120.085ZM-107.472 76.7125H-106.472V75.7125H-107.472V76.7125ZM-107.472 151.846V152.846H-106.472V151.846H-107.472ZM-120.085 151.846H-121.085V152.846H-120.085V151.846ZM-120.085 137.861H-119.085V134.044L-120.957 137.371L-120.085 137.861ZM-131.191 148.829L-130.686 149.693L-130.681 149.69L-131.191 148.829ZM-166.289 148.144L-166.81 148.998L-166.289 148.144ZM-179.04 134.296L-178.154 133.833L-179.04 134.296ZM-123.513 99.3347L-122.634 98.8572L-123.513 99.3347ZM-132.836 89.7374L-133.348 90.5967L-133.336 90.6039L-133.323 90.6106L-132.836 89.7374ZM-158.337 89.6003L-158.834 88.7321L-158.337 89.6003ZM-167.523 99.1976L-166.645 99.6752L-167.523 99.1976ZM-167.523 129.086L-168.406 129.556L-168.402 129.564L-167.523 129.086ZM-158.337 138.821L-158.849 139.68L-158.841 139.685L-158.834 139.689L-158.337 138.821ZM-132.836 138.821L-132.34 139.689L-132.333 139.685L-132.836 138.821ZM-123.513 129.086L-122.634 129.564L-122.63 129.556L-123.513 129.086ZM-182.702 114.005C-182.702 106.464 -181.176 99.9146 -178.16 94.3255L-179.92 93.3756C-183.119 99.3033 -184.702 106.19 -184.702 114.005H-182.702ZM-178.157 94.3197C-175.13 88.6224 -171.005 84.2374 -165.779 81.1373L-166.8 79.4172C-172.359 82.7153 -176.735 87.3791 -179.923 93.3814L-178.157 94.3197ZM-165.786 81.141C-160.462 78.0357 -154.559 76.4786 -148.055 76.4786V74.4786C-154.895 74.4786 -161.148 76.1205 -166.793 79.4135L-165.786 81.141ZM-148.055 76.4786C-141.62 76.4786 -136.088 77.8625 -131.421 80.592L-130.412 78.8656C-135.434 75.9281 -141.327 74.4786 -148.055 74.4786V76.4786ZM-131.421 80.592C-126.71 83.3479 -123.238 86.7899 -120.96 90.907L-119.21 89.9389C-121.686 85.4641 -125.435 81.7767 -130.412 78.8656L-131.421 80.592ZM-119.085 90.423V76.7125H-121.085V90.423H-119.085ZM-120.085 77.7125H-107.472V75.7125H-120.085V77.7125ZM-108.472 76.7125L-108.472 151.846H-106.472L-106.472 76.7125H-108.472ZM-107.472 150.846H-120.085V152.846H-107.472V150.846ZM-119.085 151.846V137.861H-121.085V151.846H-119.085ZM-120.957 137.371C-123.327 141.585 -126.894 145.121 -131.701 147.969L-130.681 149.69C-125.616 146.688 -121.779 142.912 -119.214 138.351L-120.957 137.371ZM-131.696 147.966C-136.364 150.697 -141.851 152.08 -148.192 152.08V154.08C-141.553 154.08 -135.706 152.629 -130.686 149.693L-131.696 147.966ZM-148.192 152.08C-154.691 152.08 -160.542 150.48 -165.769 147.29L-166.81 148.998C-161.252 152.389 -155.037 154.08 -148.192 154.08V152.08ZM-165.769 147.29C-170.997 144.1 -175.125 139.624 -178.154 133.833L-179.926 134.76C-176.74 140.852 -172.368 145.607 -166.81 148.998L-165.769 147.29ZM-178.154 133.833C-181.178 128.053 -182.702 121.451 -182.702 114.005H-184.702C-184.702 121.731 -183.118 128.658 -179.926 134.76L-178.154 133.833ZM-119.085 114.142C-119.085 108.339 -120.256 103.233 -122.634 98.8572L-124.392 99.8123C-122.2 103.845 -121.085 108.611 -121.085 114.142H-119.085ZM-122.634 98.8572C-125.004 94.4974 -128.243 91.156 -132.349 88.8642L-133.323 90.6106C-129.569 92.7062 -126.592 95.763 -124.392 99.8123L-122.634 98.8572ZM-132.325 88.8782C-136.325 86.4969 -140.753 85.3098 -145.587 85.3098V87.3098C-141.097 87.3098 -137.025 88.4079 -133.348 90.5967L-132.325 88.8782ZM-145.587 85.3098C-150.412 85.3098 -154.835 86.4473 -158.834 88.7321L-157.841 90.4686C-154.162 88.366 -150.084 87.3098 -145.587 87.3098V85.3098ZM-158.834 88.7321C-162.847 91.0255 -166.036 94.3663 -168.402 98.7201L-166.645 99.6752C-164.441 95.6199 -161.506 92.5625 -157.841 90.4686L-158.834 88.7321ZM-168.402 98.7201C-170.78 103.096 -171.951 108.202 -171.951 114.005H-169.951C-169.951 108.474 -168.837 103.708 -166.645 99.6752L-168.402 98.7201ZM-171.951 114.005C-171.951 119.897 -170.781 125.091 -168.406 129.556L-166.641 128.617C-168.836 124.49 -169.951 119.63 -169.951 114.005H-171.951ZM-168.402 129.564C-166.037 133.915 -162.853 137.297 -158.849 139.68L-157.826 137.962C-161.499 135.775 -164.439 132.667 -166.645 128.609L-168.402 129.564ZM-158.834 139.689C-154.835 141.974 -150.412 143.111 -145.587 143.111V141.111C-150.084 141.111 -154.162 140.055 -157.841 137.953L-158.834 139.689ZM-145.587 143.111C-140.761 143.111 -136.338 141.974 -132.34 139.689L-133.332 137.953C-137.012 140.055 -141.089 141.111 -145.587 141.111V143.111ZM-132.333 139.685C-128.236 137.303 -125.002 133.921 -122.634 129.564L-124.392 128.609C-126.594 132.661 -129.575 135.768 -133.339 137.956L-132.333 139.685ZM-122.63 129.556C-120.256 125.093 -119.085 119.946 -119.085 114.142H-121.085C-121.085 119.672 -122.199 124.488 -124.396 128.617L-122.63 129.556ZM-82.1374 50.3885H-81.1374V49.3885H-82.1374V50.3885ZM-82.1374 151.846V152.846H-81.1374V151.846H-82.1374ZM-94.6139 151.846H-95.6139V152.846H-94.6139V151.846ZM-94.6139 50.3885V49.3885H-95.6139V50.3885H-94.6139ZM-83.1374 50.3885L-83.1374 151.846H-81.1374L-81.1374 50.3885H-83.1374ZM-82.1374 150.846H-94.6139V152.846H-82.1374V150.846ZM-93.6139 151.846L-93.6139 50.3885H-95.6139L-95.6139 151.846H-93.6139ZM-94.6139 51.3885H-82.1374V49.3885H-94.6139V51.3885ZM-55.5263 148.281L-56.0179 149.152L-56.012 149.155L-55.5263 148.281ZM-68.9625 134.708L-69.843 135.182L-69.8386 135.19L-69.8341 135.198L-68.9625 134.708ZM-68.8254 93.8506L-69.6945 93.3559L-69.697 93.3603L-68.8254 93.8506ZM-55.115 80.2772L-54.64 81.1573L-54.6294 81.1514L-55.115 80.2772ZM-16.4516 80.2772L-16.9373 81.1515L-16.9265 81.1573L-16.4516 80.2772ZM-2.87827 93.7135L-3.74988 94.2038L-3.74399 94.214L-2.87827 93.7135ZM-3.01535 134.708L-3.87866 134.203L-3.8811 134.207L-3.01535 134.708ZM-16.8629 148.281L-16.3831 149.158L-16.8629 148.281ZM-14.2579 129.498L-15.1203 128.992L-15.1245 128.999L-15.1285 129.006L-14.2579 129.498ZM-23.4439 89.4632L-23.9242 90.3403L-23.9161 90.3448L-23.9079 90.3491L-23.4439 89.4632ZM-48.534 89.4632L-48.0612 90.3444L-48.0537 90.3403L-48.534 89.4632ZM-57.5829 98.7863L-56.7043 99.2638L-57.5829 98.7863ZM-57.72 129.635L-58.6066 130.097L-58.6026 130.105L-58.5986 130.112L-57.72 129.635ZM-48.6711 139.095L-49.1604 139.967L-49.1522 139.972L-49.1439 139.976L-48.6711 139.095ZM-36.3317 152.08C-43.2118 152.08 -49.441 150.518 -55.0407 147.407L-56.012 149.155C-50.0949 152.442 -43.5277 154.08 -36.3317 154.08V152.08ZM-55.0347 147.41C-60.5375 144.304 -64.887 139.913 -68.091 134.217L-69.8341 135.198C-66.457 141.202 -61.8491 145.86 -56.0179 149.152L-55.0347 147.41ZM-68.0821 134.234C-71.1916 128.459 -72.7612 121.771 -72.7612 114.142H-74.7612C-74.7612 122.051 -73.1317 129.074 -69.843 135.182L-68.0821 134.234ZM-72.7612 114.142C-72.7612 106.611 -71.1487 100.021 -67.9539 94.3408L-69.697 93.3603C-73.0832 99.3802 -74.7612 106.317 -74.7612 114.142H-72.7612ZM-67.9564 94.3453C-64.6628 88.5593 -60.226 84.1719 -54.6401 81.1573L-55.5899 79.3972C-61.5208 82.598 -66.2243 87.2595 -69.6945 93.3559L-67.9564 94.3453ZM-54.6294 81.1514C-49.0316 78.0415 -42.7572 76.4786 -35.7833 76.4786V74.4786C-43.0683 74.4786 -49.6816 76.1147 -55.6006 79.4031L-54.6294 81.1514ZM-35.7833 76.4786C-28.8094 76.4786 -22.535 78.0415 -16.9372 81.1514L-15.9659 79.4031C-21.885 76.1147 -28.4983 74.4786 -35.7833 74.4786V76.4786ZM-16.9265 81.1573C-11.339 84.1728 -6.95013 88.5143 -3.74982 94.2037L-2.00668 93.2232C-5.38736 87.2131 -10.0474 82.5971 -15.9767 79.3972L-16.9265 81.1573ZM-3.74399 94.214C-0.462494 99.8901 1.19461 106.522 1.19461 114.142H3.19461C3.19461 106.224 1.46982 99.2364 -2.01251 93.213L-3.74399 94.214ZM1.19461 114.142C1.19461 121.757 -0.505951 128.434 -3.87866 134.203L-2.15207 135.212C1.42184 129.099 3.19461 122.065 3.19461 114.142H1.19461ZM-3.8811 134.207C-7.17261 139.901 -11.6559 144.294 -17.3427 147.404L-16.3831 149.158C-10.3703 145.87 -5.62192 141.214 -2.14963 135.208L-3.8811 134.207ZM-17.3427 147.404C-23.0352 150.517 -29.358 152.08 -36.3317 152.08V154.08C-29.0466 154.08 -22.3902 152.443 -16.3831 149.158L-17.3427 147.404ZM-36.3317 143.111C-31.6893 143.111 -27.3226 142.02 -23.2465 139.84L-24.1898 138.076C-27.9743 140.1 -32.0167 141.111 -36.3317 141.111V143.111ZM-23.2465 139.84C-19.1349 137.64 -15.849 134.345 -13.3873 129.99L-15.1285 129.006C-17.4197 133.059 -20.4406 136.071 -24.1898 138.076L-23.2465 139.84ZM-13.3955 130.004C-10.8184 125.613 -9.55609 120.311 -9.55609 114.142H-11.5561C-11.5561 120.039 -12.7616 124.973 -15.1203 128.992L-13.3955 130.004ZM-9.55609 114.142C-9.55609 107.979 -10.7703 102.682 -13.2502 98.2943L-14.9914 99.2784C-12.7184 103.3 -11.5561 108.239 -11.5561 114.142H-9.55609ZM-13.2502 98.2943C-15.7103 93.9419 -18.9512 90.6877 -22.9799 88.5774L-23.9079 90.3491C-20.2587 92.2605 -17.2843 95.2217 -14.9914 99.2784L-13.2502 98.2943ZM-22.9636 88.5861C-26.9533 86.4013 -31.2778 85.3098 -35.9204 85.3098V87.3098C-31.6055 87.3098 -27.6124 88.3206 -23.9242 90.3403L-22.9636 88.5861ZM-35.9204 85.3098C-40.6507 85.3098 -45.0215 86.3996 -49.0143 88.5861L-48.0537 90.3403C-44.3686 88.3223 -40.3304 87.3098 -35.9204 87.3098V85.3098ZM-49.0068 88.5821C-52.947 90.6963 -56.0954 93.9552 -58.4615 98.3088L-56.7043 99.2638C-54.5002 95.2084 -51.6161 92.2519 -48.0612 90.3444L-49.0068 88.5821ZM-58.4615 98.3088C-60.8444 102.693 -62.0105 107.985 -62.0105 114.142H-60.0105C-60.0105 108.234 -58.8915 103.288 -56.7043 99.2638L-58.4615 98.3088ZM-62.0105 114.142C-62.0105 120.382 -60.8933 125.715 -58.6066 130.097L-56.8334 129.172C-58.934 125.146 -60.0105 120.15 -60.0105 114.142H-62.0105ZM-58.5986 130.112C-56.2341 134.463 -53.0905 137.762 -49.1604 139.967L-48.1819 138.223C-51.7467 136.223 -54.6357 133.216 -56.8414 129.157L-58.5986 130.112ZM-49.1439 139.976C-45.2432 142.069 -40.9664 143.111 -36.3317 143.111V141.111C-40.6545 141.111 -44.6039 140.143 -48.1983 138.214L-49.1439 139.976ZM22.8492 88.9148H21.8492L23.7397 89.3696L22.8492 88.9148ZM32.1722 78.9062L31.6719 78.0403L31.6635 78.0453L32.1722 78.9062ZM47.1166 75.3415H48.1166V74.3415H47.1166V75.3415ZM47.1166 88.2293V89.2293H48.1166V88.2293H47.1166ZM22.8492 151.846V152.846H23.8492V151.846H22.8492ZM10.3727 151.846H9.37265V152.846H10.3727V151.846ZM10.3727 76.7125V75.7125H9.37265V76.7125H10.3727ZM22.8492 76.7125H23.8492V75.7125H22.8492V76.7125ZM23.7397 89.3696C25.8502 85.2367 28.828 82.0439 32.681 79.7671L31.6635 78.0453C27.4731 80.5215 24.2355 84.0011 21.9585 88.46L23.7397 89.3696ZM32.6725 79.7721C36.6021 77.5017 41.4021 76.3415 47.1166 76.3415V74.3415C41.1315 74.3415 35.9687 75.5578 31.672 78.0403L32.6725 79.7721ZM46.1166 75.3415V88.2293H48.1166V75.3415H46.1166ZM47.1166 87.2293H43.8261V89.2293H47.1166V87.2293ZM43.8261 87.2293C36.6577 87.2293 31.1038 89.1774 27.3581 93.2414C23.6266 97.2899 21.8492 103.267 21.8492 110.989H23.8492C23.8492 103.537 25.5679 98.1348 28.8287 94.5969C32.0753 91.0744 37.0098 89.2293 43.8261 89.2293V87.2293ZM21.8492 110.989V151.846H23.8492V110.989H21.8492ZM22.8492 150.846H10.3727V152.846H22.8492V150.846ZM11.3727 151.846V76.7125H9.37265V151.846H11.3727ZM10.3727 77.7125H22.8492V75.7125H10.3727V77.7125ZM21.8492 76.7125V88.9148H23.8492V76.7125H21.8492ZM53.7041 62.0424L54.4112 61.3353L53.7041 62.0424ZM53.7041 49.9772L54.4112 50.6843L53.7041 49.9772ZM65.495 49.9772L64.768 50.6638L64.7778 50.6742L64.7879 50.6843L65.495 49.9772ZM65.495 62.0424L64.7879 61.3353L64.7778 61.3454L64.768 61.3557L65.495 62.0424ZM65.7693 76.7125H66.7693V75.7125H65.7693V76.7125ZM65.7693 151.846V152.846H66.7693V151.846H65.7693ZM53.2928 151.846H52.2928V152.846H53.2928V151.846ZM53.2928 76.7125V75.7125H52.2928V76.7125H53.2928ZM59.7367 63.5102C57.619 63.5102 55.8644 62.7885 54.4112 61.3353L52.9969 62.7495C54.8342 64.5867 57.1013 65.5102 59.7367 65.5102V63.5102ZM54.4112 61.3353C52.9579 59.882 52.2362 58.1274 52.2362 56.0098H50.2362C50.2362 58.6451 51.1597 60.9122 52.9969 62.7495L54.4112 61.3353ZM52.2362 56.0098C52.2362 53.8922 52.9579 52.1376 54.4112 50.6843L52.9969 49.2701C51.1597 51.1073 50.2362 53.3744 50.2362 56.0098H52.2362ZM54.4112 50.6843C55.8644 49.231 57.619 48.5093 59.7367 48.5093V46.5093C57.1013 46.5093 54.8342 47.4328 52.9969 49.2701L54.4112 50.6843ZM59.7367 48.5093C61.7496 48.5093 63.4052 49.2208 64.768 50.6638L66.222 49.2906C64.4772 47.4431 62.2938 46.5093 59.7367 46.5093V48.5093ZM64.7879 50.6843C66.2412 52.1376 66.9629 53.8922 66.9629 56.0098H68.9629C68.9629 53.3744 68.0394 51.1073 66.2021 49.2701L64.7879 50.6843ZM66.9629 56.0098C66.9629 58.1274 66.2412 59.882 64.7879 61.3353L66.2021 62.7495C68.0394 60.9122 68.9629 58.6451 68.9629 56.0098H66.9629ZM64.768 61.3557C63.4052 62.7988 61.7496 63.5102 59.7367 63.5102V65.5102C62.2938 65.5102 64.4772 64.5765 66.222 62.729L64.768 61.3557ZM64.7693 76.7125V151.846H66.7693V76.7125H64.7693ZM65.7693 150.846H53.2928V152.846H65.7693V150.846ZM54.2928 151.846V76.7125H52.2928V151.846H54.2928ZM53.2928 77.7125H65.7693V75.7125H53.2928V77.7125ZM146.948 118.941V119.941H147.85L147.943 119.044L146.948 118.941ZM86.8961 118.941V117.941H85.8325L85.8981 119.002L86.8961 118.941ZM94.4369 136.353L93.7598 137.089L93.7675 137.096L93.7753 137.103L94.4369 136.353ZM124.737 138.821L125.306 139.643L125.31 139.64L124.737 138.821ZM132.415 128.675V127.675H131.704L131.47 128.347L132.415 128.675ZM145.851 128.675L146.814 128.943L147.168 127.675H145.851V128.675ZM133.786 146.362L134.382 147.164L134.39 147.159L133.786 146.362ZM92.1061 148.281L91.6084 149.148L91.6145 149.152L92.1061 148.281ZM78.9441 134.708L78.0636 135.182L78.0667 135.187L78.9441 134.708ZM78.807 93.7135L79.6901 94.1826L78.807 93.7135ZM91.8319 80.2772L92.3188 81.1507L92.3235 81.1481L91.8319 80.2772ZM130.221 80.1401L129.728 81.0102L130.221 80.1401ZM142.835 93.0279L141.952 93.4985L141.957 93.5074L141.962 93.5161L142.835 93.0279ZM134.471 108.795V109.795H135.471V108.795H134.471ZM131.318 96.5927L130.462 97.1105L130.469 97.1206L131.318 96.5927ZM122.68 88.7777L122.224 89.6675L122.238 89.6745L122.251 89.681L122.68 88.7777ZM94.574 92.0682L93.9059 91.3241L93.8983 91.3311L94.574 92.0682ZM87.0333 108.795L86.0373 108.706L85.9395 109.795H87.0333V108.795ZM146.359 111.4C146.359 113.738 146.224 116.217 145.953 118.838L147.943 119.044C148.22 116.363 148.359 113.815 148.359 111.4H146.359ZM146.948 117.941H86.8961V119.941H146.948V117.941ZM85.8981 119.002C86.3677 126.61 88.9636 132.676 93.7598 137.089L95.114 135.617C90.7699 131.62 88.3387 126.078 87.8943 118.879L85.8981 119.002ZM93.7753 137.103C98.6309 141.387 104.492 143.523 111.301 143.523V141.523C104.948 141.523 99.566 139.545 95.0985 135.603L93.7753 137.103ZM111.301 143.523C116.847 143.523 121.537 142.252 125.306 139.643L124.168 137.999C120.807 140.325 116.54 141.523 111.301 141.523V143.523ZM125.31 139.64C129.138 136.961 131.828 133.407 133.359 129.004L131.47 128.347C130.077 132.352 127.648 135.562 124.163 138.002L125.31 139.64ZM132.415 129.675H145.851V127.675H132.415V129.675ZM144.888 128.407C142.936 135.415 139.042 141.125 133.182 145.564L134.39 147.159C140.595 142.458 144.744 136.377 146.814 128.943L144.888 128.407ZM133.19 145.559C127.361 149.886 120.086 152.08 111.301 152.08V154.08C120.43 154.08 128.146 151.794 134.382 147.164L133.19 145.559ZM111.301 152.08C104.327 152.08 98.1006 150.517 92.5977 147.41L91.6145 149.152C97.4456 152.444 104.016 154.08 111.301 154.08V152.08ZM92.6038 147.414C87.1942 144.31 82.9356 139.922 79.8215 134.228L78.0667 135.187C81.3508 141.193 85.8669 145.854 91.6085 149.148L92.6038 147.414ZM79.8246 134.234C76.7151 128.459 75.1454 121.771 75.1454 114.142H73.1454C73.1454 122.051 74.7749 129.074 78.0636 135.182L79.8246 134.234ZM75.1454 114.142C75.1454 106.508 76.6714 99.8648 79.6901 94.1826L77.9239 93.2443C74.7272 99.2617 73.1454 106.237 73.1454 114.142H75.1454ZM79.6901 94.1826C82.711 88.4962 86.9181 84.161 92.3188 81.1507L91.3451 79.4038C85.5946 82.6089 81.1184 87.2312 77.9239 93.2443L79.6901 94.1826ZM92.3235 81.1481C97.8227 78.0437 104.139 76.4786 111.301 76.4786V74.4786C103.838 74.4786 97.1751 76.1126 91.3403 79.4064L92.3235 81.1481ZM111.301 76.4786C118.28 76.4786 124.413 77.9983 129.728 81.0102L130.714 79.2701C125.061 76.0665 118.58 74.4786 111.301 74.4786V76.4786ZM129.728 81.0102C135.05 84.0257 139.118 88.1842 141.952 93.4985L143.717 92.5574C140.702 86.9033 136.361 82.4699 130.714 79.2701L129.728 81.0102ZM141.962 93.5161C144.886 98.7439 146.359 104.697 146.359 111.4H148.359C148.359 104.393 146.816 98.0976 143.707 92.5398L141.962 93.5161ZM135.471 108.795C135.471 103.892 134.386 99.6335 132.167 96.0647L130.469 97.1206C132.455 100.316 133.471 104.192 133.471 108.795H135.471ZM132.173 96.0749C129.97 92.4346 126.943 89.6954 123.109 87.8744L122.251 89.681C125.73 91.3334 128.461 93.8041 130.462 97.1105L132.173 96.0749ZM123.137 87.8879C119.418 85.9807 115.283 85.0356 110.752 85.0356V87.0356C114.996 87.0356 118.814 87.9186 122.224 89.6675L123.137 87.8879ZM110.752 85.0356C104.212 85.0356 98.5775 87.1292 93.9059 91.3242L95.2421 92.8123C99.528 88.9638 104.679 87.0356 110.752 87.0356V85.0356ZM93.8983 91.3311C89.2914 95.5541 86.6946 101.381 86.0373 108.706L88.0293 108.884C88.6516 101.95 91.082 96.6258 95.2497 92.8054L93.8983 91.3311ZM87.0333 109.795H134.471V107.795H87.0333V109.795Z" fill="#696B77"/>
<path d="M1729.39 93.8506L1730.27 94.3255L1730.28 94.3197L1729.39 93.8506ZM1742.28 80.2772L1741.78 79.4099L1741.78 79.4135L1742.28 80.2772ZM1784.1 82.1967L1783.5 82.9952L1783.5 82.9996L1784.1 82.1967ZM1796.03 100.843V101.843H1797.3L1797 100.608L1796.03 100.843ZM1782.59 100.843L1781.63 101.113L1781.83 101.843H1782.59V100.843ZM1775.05 90.0117L1774.46 90.8213L1774.47 90.8281L1775.05 90.0117ZM1744.06 93.4393L1744.81 94.1106L1744.81 94.1036L1744.06 93.4393ZM1744.06 135.119L1744.81 134.455L1744.06 135.119ZM1775.05 138.684L1775.62 139.503L1775.05 138.684ZM1782.59 127.715V126.715H1781.84L1781.63 127.438L1782.59 127.715ZM1796.03 127.715L1796.99 127.969L1797.32 126.715H1796.03V127.715ZM1783.96 146.224L1784.57 147.022L1784.57 147.016L1783.96 146.224ZM1742.28 148.281L1741.78 149.145L1741.78 149.148L1742.28 148.281ZM1729.39 134.708L1728.51 135.177L1729.39 134.708ZM1725.73 114.142C1725.73 106.508 1727.26 99.9129 1730.27 94.3255L1728.51 93.3756C1725.31 99.305 1723.73 106.238 1723.73 114.142H1725.73ZM1730.28 94.3197C1733.3 88.6267 1737.47 84.2422 1742.79 81.141L1741.78 79.4135C1736.13 82.7104 1731.7 87.3748 1728.51 93.3814L1730.28 94.3197ZM1742.78 81.1446C1748.19 78.0416 1754.37 76.4786 1761.34 76.4786V74.4786C1754.05 74.4786 1747.53 76.1146 1741.78 79.4099L1742.78 81.1446ZM1761.34 76.4786C1770.41 76.4786 1777.77 78.676 1783.5 82.9952L1784.7 81.3982C1778.55 76.7599 1770.74 74.4786 1761.34 74.4786V76.4786ZM1783.5 82.9996C1789.33 87.326 1793.18 93.3314 1795.05 101.078L1797 100.608C1795.03 92.4503 1790.93 86.0248 1784.69 81.3938L1783.5 82.9996ZM1796.03 99.8429H1782.59V101.843H1796.03V99.8429ZM1783.55 100.573C1782.21 95.7901 1779.57 91.9833 1775.63 89.1952L1774.47 90.8281C1778.03 93.3414 1780.41 96.7554 1781.63 101.113L1783.55 100.573ZM1775.64 89.202C1771.78 86.403 1766.99 85.0356 1761.34 85.0356V87.0356C1766.66 87.0356 1771.01 88.3189 1774.46 90.8213L1775.64 89.202ZM1761.34 85.0356C1753.95 85.0356 1747.91 87.6072 1743.32 92.7749L1744.81 94.1036C1748.99 89.3998 1754.47 87.0356 1761.34 87.0356V85.0356ZM1743.32 92.768C1738.72 97.855 1736.48 105.029 1736.48 114.142H1738.48C1738.48 105.34 1740.64 98.7122 1744.81 94.1105L1743.32 92.768ZM1736.48 114.142C1736.48 123.345 1738.71 130.606 1743.32 135.783L1744.81 134.455C1740.64 129.76 1738.48 123.037 1738.48 114.142H1736.48ZM1743.32 135.783C1747.91 140.951 1753.95 143.523 1761.34 143.523V141.523C1754.47 141.523 1748.99 139.158 1744.81 134.455L1743.32 135.783ZM1761.34 143.523C1766.98 143.523 1771.76 142.204 1775.62 139.503L1774.48 137.864C1771.02 140.281 1766.67 141.523 1761.34 141.523V143.523ZM1775.62 139.503C1779.49 136.798 1782.12 132.94 1783.55 127.993L1781.63 127.438C1780.31 131.997 1777.92 135.451 1774.48 137.864L1775.62 139.503ZM1782.59 128.715H1796.03V126.715H1782.59V128.715ZM1795.06 127.462C1793.1 134.936 1789.2 140.913 1783.35 145.433L1784.57 147.016C1790.79 142.213 1794.93 135.851 1796.99 127.969L1795.06 127.462ZM1783.36 145.427C1777.53 149.842 1770.21 152.08 1761.34 152.08V154.08C1770.56 154.08 1778.33 151.748 1784.57 147.022L1783.36 145.427ZM1761.34 152.08C1754.37 152.08 1748.19 150.517 1742.78 147.414L1741.78 149.148C1747.53 152.444 1754.05 154.08 1761.34 154.08V152.08ZM1742.79 147.417C1737.47 144.316 1733.3 139.932 1730.28 134.239L1728.51 135.177C1731.7 141.183 1736.13 145.848 1741.78 149.145L1742.79 147.417ZM1730.28 134.239C1727.26 128.558 1725.73 121.87 1725.73 114.142H1723.73C1723.73 122.136 1725.31 129.158 1728.51 135.177L1730.28 134.239ZM1804.45 93.8506L1805.33 94.3255L1805.33 94.3197L1804.45 93.8506ZM1817.2 80.2772L1816.69 79.4134L1816.69 79.4172L1817.2 80.2772ZM1852.57 79.7288L1852.07 80.592L1852.57 79.7288ZM1863.4 90.423L1862.53 90.907L1864.4 90.423H1863.4ZM1863.4 76.7125V75.7125H1862.4V76.7125H1863.4ZM1876.02 76.7125H1877.02V75.7125H1876.02V76.7125ZM1876.02 151.846V152.846H1877.02V151.846H1876.02ZM1863.4 151.846H1862.4V152.846H1863.4V151.846ZM1863.4 137.861H1864.4V134.044L1862.53 137.371L1863.4 137.861ZM1852.3 148.829L1852.8 149.693L1852.81 149.69L1852.3 148.829ZM1817.2 148.144L1816.68 148.998L1817.2 148.144ZM1804.45 134.296L1805.33 133.833L1804.45 134.296ZM1859.98 99.3347L1860.85 98.8572L1859.98 99.3347ZM1850.65 89.7374L1850.14 90.5967L1850.15 90.6039L1850.16 90.6106L1850.65 89.7374ZM1825.15 89.6003L1824.65 88.7321L1825.15 89.6003ZM1815.96 99.1976L1816.84 99.6752L1815.96 99.1976ZM1815.96 129.086L1815.08 129.556L1815.09 129.564L1815.96 129.086ZM1825.15 138.821L1824.64 139.68L1824.65 139.685L1824.65 139.689L1825.15 138.821ZM1850.65 138.821L1851.15 139.689L1851.15 139.685L1850.65 138.821ZM1859.98 129.086L1860.85 129.564L1860.86 129.556L1859.98 129.086ZM1800.79 114.005C1800.79 106.464 1802.31 99.9146 1805.33 94.3255L1803.57 93.3756C1800.37 99.3033 1798.79 106.19 1798.79 114.005H1800.79ZM1805.33 94.3197C1808.36 88.6224 1812.48 84.2374 1817.71 81.1373L1816.69 79.4172C1811.13 82.7153 1806.75 87.3791 1803.56 93.3814L1805.33 94.3197ZM1817.7 81.141C1823.03 78.0357 1828.93 76.4786 1835.43 76.4786V74.4786C1828.59 74.4786 1822.34 76.1205 1816.69 79.4135L1817.7 81.141ZM1835.43 76.4786C1841.87 76.4786 1847.4 77.8625 1852.07 80.592L1853.08 78.8656C1848.05 75.9281 1842.16 74.4786 1835.43 74.4786V76.4786ZM1852.07 80.592C1856.78 83.3479 1860.25 86.7899 1862.53 90.907L1864.28 89.9389C1861.8 85.4641 1858.05 81.7767 1853.08 78.8656L1852.07 80.592ZM1864.4 90.423V76.7125H1862.4V90.423H1864.4ZM1863.4 77.7125H1876.02V75.7125H1863.4V77.7125ZM1875.02 76.7125V151.846H1877.02V76.7125H1875.02ZM1876.02 150.846H1863.4V152.846H1876.02V150.846ZM1864.4 151.846V137.861H1862.4V151.846H1864.4ZM1862.53 137.371C1860.16 141.585 1856.59 145.121 1851.79 147.969L1852.81 149.69C1857.87 146.688 1861.71 142.912 1864.27 138.351L1862.53 137.371ZM1851.79 147.966C1847.12 150.697 1841.64 152.08 1835.3 152.08V154.08C1841.94 154.08 1847.78 152.629 1852.8 149.693L1851.79 147.966ZM1835.3 152.08C1828.8 152.08 1822.95 150.48 1817.72 147.29L1816.68 148.998C1822.24 152.389 1828.45 154.08 1835.3 154.08V152.08ZM1817.72 147.29C1812.49 144.1 1808.36 139.624 1805.33 133.833L1803.56 134.76C1806.75 140.852 1811.12 145.607 1816.68 148.998L1817.72 147.29ZM1805.33 133.833C1802.31 128.053 1800.79 121.451 1800.79 114.005H1798.79C1798.79 121.731 1800.37 128.658 1803.56 134.76L1805.33 133.833ZM1864.4 114.142C1864.4 108.339 1863.23 103.233 1860.85 98.8572L1859.1 99.8123C1861.29 103.845 1862.4 108.611 1862.4 114.142H1864.4ZM1860.85 98.8572C1858.48 94.4974 1855.25 91.156 1851.14 88.8642L1850.16 90.6106C1853.92 92.7062 1856.9 95.763 1859.1 99.8123L1860.85 98.8572ZM1851.16 88.8782C1847.16 86.4969 1842.73 85.3098 1837.9 85.3098V87.3098C1842.39 87.3098 1846.46 88.4079 1850.14 90.5967L1851.16 88.8782ZM1837.9 85.3098C1833.08 85.3098 1828.65 86.4473 1824.65 88.7321L1825.65 90.4686C1829.33 88.366 1833.4 87.3098 1837.9 87.3098V85.3098ZM1824.65 88.7321C1820.64 91.0255 1817.45 94.3663 1815.09 98.7201L1816.84 99.6752C1819.05 95.6199 1821.98 92.5625 1825.65 90.4686L1824.65 88.7321ZM1815.09 98.7201C1812.71 103.096 1811.54 108.202 1811.54 114.005H1813.54C1813.54 108.474 1814.65 103.708 1816.84 99.6752L1815.09 98.7201ZM1811.54 114.005C1811.54 119.897 1812.71 125.091 1815.08 129.556L1816.85 128.617C1814.65 124.49 1813.54 119.63 1813.54 114.005H1811.54ZM1815.09 129.564C1817.45 133.915 1820.63 137.297 1824.64 139.68L1825.66 137.962C1821.99 135.775 1819.05 132.667 1816.84 128.609L1815.09 129.564ZM1824.65 139.689C1828.65 141.974 1833.08 143.111 1837.9 143.111V141.111C1833.4 141.111 1829.33 140.055 1825.65 137.953L1824.65 139.689ZM1837.9 143.111C1842.73 143.111 1847.15 141.974 1851.15 139.689L1850.16 137.953C1846.48 140.055 1842.4 141.111 1837.9 141.111V143.111ZM1851.15 139.685C1855.25 137.303 1858.49 133.921 1860.85 129.564L1859.1 128.609C1856.89 132.661 1853.91 135.768 1850.15 137.956L1851.15 139.685ZM1860.86 129.556C1863.23 125.093 1864.4 119.946 1864.4 114.142H1862.4C1862.4 119.672 1861.29 124.488 1859.09 128.617L1860.86 129.556ZM1901.35 50.3885H1902.35V49.3885H1901.35V50.3885ZM1901.35 151.846V152.846H1902.35V151.846H1901.35ZM1888.87 151.846H1887.87V152.846H1888.87V151.846ZM1888.87 50.3885V49.3885H1887.87V50.3885H1888.87ZM1900.35 50.3885V151.846H1902.35V50.3885H1900.35ZM1901.35 150.846H1888.87V152.846H1901.35V150.846ZM1889.87 151.846V50.3885H1887.87V151.846H1889.87ZM1888.87 51.3885H1901.35V49.3885H1888.87V51.3885ZM1927.96 148.281L1927.47 149.152L1927.48 149.155L1927.96 148.281ZM1914.53 134.708L1913.65 135.182L1913.65 135.19L1913.65 135.198L1914.53 134.708ZM1914.66 93.8506L1913.79 93.3559L1913.79 93.3603L1914.66 93.8506ZM1928.37 80.2772L1928.85 81.1573L1928.86 81.1514L1928.37 80.2772ZM1967.04 80.2772L1966.55 81.1515L1966.56 81.1573L1967.04 80.2772ZM1980.61 93.7135L1979.74 94.2038L1979.74 94.214L1980.61 93.7135ZM1980.47 134.708L1979.61 134.203L1979.61 134.207L1980.47 134.708ZM1966.63 148.281L1967.11 149.158L1966.63 148.281ZM1969.23 129.498L1968.37 128.992L1968.36 128.999L1968.36 129.006L1969.23 129.498ZM1960.04 89.4632L1959.56 90.3403L1959.57 90.3448L1959.58 90.3491L1960.04 89.4632ZM1934.95 89.4632L1935.43 90.3444L1935.43 90.3403L1934.95 89.4632ZM1925.91 98.7863L1926.78 99.2638L1925.91 98.7863ZM1925.77 129.635L1924.88 130.097L1924.89 130.105L1924.89 130.112L1925.77 129.635ZM1934.82 139.095L1934.33 139.967L1934.34 139.972L1934.34 139.976L1934.82 139.095ZM1947.16 152.08C1940.28 152.08 1934.05 150.518 1928.45 147.407L1927.48 149.155C1933.39 152.442 1939.96 154.08 1947.16 154.08V152.08ZM1928.45 147.41C1922.95 144.304 1918.6 139.913 1915.4 134.217L1913.65 135.198C1917.03 141.202 1921.64 145.86 1927.47 149.152L1928.45 147.41ZM1915.41 134.234C1912.3 128.459 1910.73 121.771 1910.73 114.142H1908.73C1908.73 122.051 1910.36 129.074 1913.65 135.182L1915.41 134.234ZM1910.73 114.142C1910.73 106.611 1912.34 100.021 1915.53 94.3408L1913.79 93.3603C1910.4 99.3802 1908.73 106.317 1908.73 114.142H1910.73ZM1915.53 94.3453C1918.83 88.5593 1923.26 84.1719 1928.85 81.1573L1927.9 79.3972C1921.97 82.598 1917.26 87.2595 1913.79 93.3559L1915.53 94.3453ZM1928.86 81.1514C1934.46 78.0415 1940.73 76.4786 1947.7 76.4786V74.4786C1940.42 74.4786 1933.81 76.1147 1927.89 79.4031L1928.86 81.1514ZM1947.7 76.4786C1954.68 76.4786 1960.95 78.0415 1966.55 81.1514L1967.52 79.4031C1961.6 76.1147 1954.99 74.4786 1947.7 74.4786V76.4786ZM1966.56 81.1573C1972.15 84.1728 1976.54 88.5143 1979.74 94.2037L1981.48 93.2232C1978.1 87.2131 1973.44 82.5971 1967.51 79.3972L1966.56 81.1573ZM1979.74 94.214C1983.03 99.8901 1984.68 106.522 1984.68 114.142H1986.68C1986.68 106.224 1984.96 99.2364 1981.48 93.213L1979.74 94.214ZM1984.68 114.142C1984.68 121.757 1982.98 128.434 1979.61 134.203L1981.34 135.212C1984.91 129.099 1986.68 122.065 1986.68 114.142H1984.68ZM1979.61 134.207C1976.32 139.901 1971.83 144.294 1966.15 147.404L1967.11 149.158C1973.12 145.87 1977.87 141.214 1981.34 135.208L1979.61 134.207ZM1966.15 147.404C1960.45 150.517 1954.13 152.08 1947.16 152.08V154.08C1954.44 154.08 1961.1 152.443 1967.11 149.158L1966.15 147.404ZM1947.16 143.111C1951.8 143.111 1956.17 142.02 1960.24 139.84L1959.3 138.076C1955.51 140.1 1951.47 141.111 1947.16 141.111V143.111ZM1960.24 139.84C1964.35 137.64 1967.64 134.345 1970.1 129.99L1968.36 129.006C1966.07 133.059 1963.05 136.071 1959.3 138.076L1960.24 139.84ZM1970.09 130.004C1972.67 125.613 1973.93 120.311 1973.93 114.142H1971.93C1971.93 120.039 1970.73 124.973 1968.37 128.992L1970.09 130.004ZM1973.93 114.142C1973.93 107.979 1972.72 102.682 1970.24 98.2943L1968.5 99.2784C1970.77 103.3 1971.93 108.239 1971.93 114.142H1973.93ZM1970.24 98.2943C1967.78 93.9419 1964.54 90.6877 1960.51 88.5774L1959.58 90.3491C1963.23 92.2605 1966.2 95.2217 1968.5 99.2784L1970.24 98.2943ZM1960.52 88.5861C1956.53 86.4013 1952.21 85.3098 1947.57 85.3098V87.3098C1951.88 87.3098 1955.88 88.3206 1959.56 90.3403L1960.52 88.5861ZM1947.57 85.3098C1942.84 85.3098 1938.47 86.3996 1934.47 88.5861L1935.43 90.3403C1939.12 88.3223 1943.16 87.3098 1947.57 87.3098V85.3098ZM1934.48 88.5821C1930.54 90.6963 1927.39 93.9552 1925.03 98.3088L1926.78 99.2638C1928.99 95.2084 1931.87 92.2519 1935.43 90.3444L1934.48 88.5821ZM1925.03 98.3088C1922.64 102.693 1921.48 107.985 1921.48 114.142H1923.48C1923.48 108.234 1924.6 103.288 1926.78 99.2638L1925.03 98.3088ZM1921.48 114.142C1921.48 120.382 1922.59 125.715 1924.88 130.097L1926.65 129.172C1924.55 125.146 1923.48 120.15 1923.48 114.142H1921.48ZM1924.89 130.112C1927.25 134.463 1930.4 137.762 1934.33 139.967L1935.31 138.223C1931.74 136.223 1928.85 133.216 1926.65 129.157L1924.89 130.112ZM1934.34 139.976C1938.24 142.069 1942.52 143.111 1947.16 143.111V141.111C1942.83 141.111 1938.88 140.143 1935.29 138.214L1934.34 139.976ZM2006.34 88.9148H2005.34L2007.23 89.3696L2006.34 88.9148ZM2015.66 78.9062L2015.16 78.0403L2015.15 78.0453L2015.66 78.9062ZM2030.6 75.3415H2031.6V74.3415H2030.6V75.3415ZM2030.6 88.2293V89.2293H2031.6V88.2293H2030.6ZM2006.34 151.846V152.846H2007.34V151.846H2006.34ZM1993.86 151.846H1992.86V152.846H1993.86V151.846ZM1993.86 76.7125V75.7125H1992.86V76.7125H1993.86ZM2006.34 76.7125H2007.34V75.7125H2006.34V76.7125ZM2007.23 89.3696C2009.34 85.2367 2012.32 82.0439 2016.17 79.7671L2015.15 78.0453C2010.96 80.5215 2007.72 84.0011 2005.45 88.46L2007.23 89.3696ZM2016.16 79.7721C2020.09 77.5017 2024.89 76.3415 2030.6 76.3415V74.3415C2024.62 74.3415 2019.46 75.5578 2015.16 78.0403L2016.16 79.7721ZM2029.6 75.3415V88.2293H2031.6V75.3415H2029.6ZM2030.6 87.2293H2027.31V89.2293H2030.6V87.2293ZM2027.31 87.2293C2020.15 87.2293 2014.59 89.1774 2010.85 93.2414C2007.11 97.2899 2005.34 103.267 2005.34 110.989H2007.34C2007.34 103.537 2009.06 98.1348 2012.32 94.5969C2015.56 91.0744 2020.5 89.2293 2027.31 89.2293V87.2293ZM2005.34 110.989V151.846H2007.34V110.989H2005.34ZM2006.34 150.846H1993.86V152.846H2006.34V150.846ZM1994.86 151.846V76.7125H1992.86V151.846H1994.86ZM1993.86 77.7125H2006.34V75.7125H1993.86V77.7125ZM2005.34 76.7125V88.9148H2007.34V76.7125H2005.34ZM2037.19 62.0424L2037.9 61.3353L2037.19 62.0424ZM2037.19 49.9772L2037.9 50.6843L2037.19 49.9772ZM2048.98 49.9772L2048.26 50.6638L2048.27 50.6742L2048.28 50.6843L2048.98 49.9772ZM2048.98 62.0424L2048.28 61.3353L2048.27 61.3454L2048.26 61.3557L2048.98 62.0424ZM2049.26 76.7125H2050.26V75.7125H2049.26V76.7125ZM2049.26 151.846V152.846H2050.26V151.846H2049.26ZM2036.78 151.846H2035.78V152.846H2036.78V151.846ZM2036.78 76.7125V75.7125H2035.78V76.7125H2036.78ZM2043.22 63.5102C2041.11 63.5102 2039.35 62.7885 2037.9 61.3353L2036.49 62.7495C2038.32 64.5867 2040.59 65.5102 2043.22 65.5102V63.5102ZM2037.9 61.3353C2036.45 59.882 2035.72 58.1274 2035.72 56.0098H2033.72C2033.72 58.6451 2034.65 60.9122 2036.49 62.7495L2037.9 61.3353ZM2035.72 56.0098C2035.72 53.8922 2036.45 52.1376 2037.9 50.6843L2036.49 49.2701C2034.65 51.1073 2033.72 53.3744 2033.72 56.0098H2035.72ZM2037.9 50.6843C2039.35 49.231 2041.11 48.5093 2043.22 48.5093V46.5093C2040.59 46.5093 2038.32 47.4328 2036.49 49.2701L2037.9 50.6843ZM2043.22 48.5093C2045.24 48.5093 2046.89 49.2208 2048.26 50.6638L2049.71 49.2906C2047.97 47.4431 2045.78 46.5093 2043.22 46.5093V48.5093ZM2048.28 50.6843C2049.73 52.1376 2050.45 53.8922 2050.45 56.0098H2052.45C2052.45 53.3744 2051.53 51.1073 2049.69 49.2701L2048.28 50.6843ZM2050.45 56.0098C2050.45 58.1274 2049.73 59.882 2048.28 61.3353L2049.69 62.7495C2051.53 60.9122 2052.45 58.6451 2052.45 56.0098H2050.45ZM2048.26 61.3557C2046.89 62.7988 2045.24 63.5102 2043.22 63.5102V65.5102C2045.78 65.5102 2047.97 64.5765 2049.71 62.729L2048.26 61.3557ZM2048.26 76.7125V151.846H2050.26V76.7125H2048.26ZM2049.26 150.846H2036.78V152.846H2049.26V150.846ZM2037.78 151.846V76.7125H2035.78V151.846H2037.78ZM2036.78 77.7125H2049.26V75.7125H2036.78V77.7125ZM2130.44 118.941V119.941H2131.34L2131.43 119.044L2130.44 118.941ZM2070.38 118.941V117.941H2069.32L2069.39 119.002L2070.38 118.941ZM2077.93 136.353L2077.25 137.089L2077.26 137.096L2077.26 137.103L2077.93 136.353ZM2108.23 138.821L2108.79 139.643L2108.8 139.64L2108.23 138.821ZM2115.9 128.675V127.675H2115.19L2114.96 128.347L2115.9 128.675ZM2129.34 128.675L2130.3 128.943L2130.66 127.675H2129.34V128.675ZM2117.27 146.362L2117.87 147.164L2117.88 147.159L2117.27 146.362ZM2075.59 148.281L2075.1 149.148L2075.1 149.152L2075.59 148.281ZM2062.43 134.708L2061.55 135.182L2061.55 135.187L2062.43 134.708ZM2062.3 93.7135L2063.18 94.1826L2062.3 93.7135ZM2075.32 80.2772L2075.81 81.1507L2075.81 81.1481L2075.32 80.2772ZM2113.71 80.1401L2113.22 81.0102L2113.71 80.1401ZM2126.32 93.0279L2125.44 93.4985L2125.45 93.5074L2125.45 93.5161L2126.32 93.0279ZM2117.96 108.795V109.795H2118.96V108.795H2117.96ZM2114.81 96.5927L2113.95 97.1105L2113.96 97.1206L2114.81 96.5927ZM2106.17 88.7777L2105.71 89.6675L2105.73 89.6745L2105.74 89.681L2106.17 88.7777ZM2078.06 92.0682L2077.39 91.3241L2077.39 91.3311L2078.06 92.0682ZM2070.52 108.795L2069.53 108.706L2069.43 109.795H2070.52V108.795ZM2129.85 111.4C2129.85 113.738 2129.71 116.217 2129.44 118.838L2131.43 119.044C2131.71 116.363 2131.85 113.815 2131.85 111.4H2129.85ZM2130.44 117.941H2070.38V119.941H2130.44V117.941ZM2069.39 119.002C2069.86 126.61 2072.45 132.676 2077.25 137.089L2078.6 135.617C2074.26 131.62 2071.83 126.078 2071.38 118.879L2069.39 119.002ZM2077.26 137.103C2082.12 141.387 2087.98 143.523 2094.79 143.523V141.523C2088.44 141.523 2083.05 139.545 2078.59 135.603L2077.26 137.103ZM2094.79 143.523C2100.34 143.523 2105.03 142.252 2108.79 139.643L2107.66 137.999C2104.3 140.325 2100.03 141.523 2094.79 141.523V143.523ZM2108.8 139.64C2112.63 136.961 2115.32 133.407 2116.85 129.004L2114.96 128.347C2113.57 132.352 2111.14 135.562 2107.65 138.002L2108.8 139.64ZM2115.9 129.675H2129.34V127.675H2115.9V129.675ZM2128.38 128.407C2126.42 135.415 2122.53 141.125 2116.67 145.564L2117.88 147.159C2124.08 142.458 2128.23 136.377 2130.3 128.943L2128.38 128.407ZM2116.68 145.559C2110.85 149.886 2103.57 152.08 2094.79 152.08V154.08C2103.92 154.08 2111.63 151.794 2117.87 147.164L2116.68 145.559ZM2094.79 152.08C2087.81 152.08 2081.59 150.517 2076.09 147.41L2075.1 149.152C2080.93 152.444 2087.5 154.08 2094.79 154.08V152.08ZM2076.09 147.414C2070.68 144.31 2066.42 139.922 2063.31 134.228L2061.55 135.187C2064.84 141.193 2069.36 145.854 2075.1 149.148L2076.09 147.414ZM2063.31 134.234C2060.2 128.459 2058.63 121.771 2058.63 114.142H2056.63C2056.63 122.051 2058.26 129.074 2061.55 135.182L2063.31 134.234ZM2058.63 114.142C2058.63 106.508 2060.16 99.8648 2063.18 94.1826L2061.41 93.2443C2058.22 99.2617 2056.63 106.237 2056.63 114.142H2058.63ZM2063.18 94.1826C2066.2 88.4962 2070.41 84.161 2075.81 81.1507L2074.83 79.4038C2069.08 82.6089 2064.61 87.2312 2061.41 93.2443L2063.18 94.1826ZM2075.81 81.1481C2081.31 78.0437 2087.63 76.4786 2094.79 76.4786V74.4786C2087.33 74.4786 2080.66 76.1126 2074.83 79.4064L2075.81 81.1481ZM2094.79 76.4786C2101.77 76.4786 2107.9 77.9983 2113.22 81.0102L2114.2 79.2701C2108.55 76.0665 2102.07 74.4786 2094.79 74.4786V76.4786ZM2113.22 81.0102C2118.54 84.0257 2122.61 88.1842 2125.44 93.4985L2127.21 92.5574C2124.19 86.9033 2119.85 82.4699 2114.2 79.2701L2113.22 81.0102ZM2125.45 93.5161C2128.37 98.7439 2129.85 104.697 2129.85 111.4H2131.85C2131.85 104.393 2130.3 98.0976 2127.2 92.5398L2125.45 93.5161ZM2118.96 108.795C2118.96 103.892 2117.87 99.6335 2115.66 96.0647L2113.96 97.1206C2115.94 100.316 2116.96 104.192 2116.96 108.795H2118.96ZM2115.66 96.0749C2113.46 92.4346 2110.43 89.6954 2106.6 87.8744L2105.74 89.681C2109.22 91.3334 2111.95 93.8041 2113.95 97.1105L2115.66 96.0749ZM2106.62 87.8879C2102.91 85.9807 2098.77 85.0356 2094.24 85.0356V87.0356C2098.48 87.0356 2102.3 87.9186 2105.71 89.6675L2106.62 87.8879ZM2094.24 85.0356C2087.7 85.0356 2082.07 87.1292 2077.39 91.3242L2078.73 92.8123C2083.02 88.9638 2088.17 87.0356 2094.24 87.0356V85.0356ZM2077.39 91.3311C2072.78 95.5541 2070.18 101.381 2069.53 108.706L2071.52 108.884C2072.14 101.95 2074.57 96.6258 2078.74 92.8054L2077.39 91.3311ZM2070.52 109.795H2117.96V107.795H2070.52V109.795Z" fill="#696B77"/>
<path d="M1254.56 93.8506L1255.44 94.3255L1255.44 94.3197L1254.56 93.8506ZM1267.44 80.2772L1266.95 79.4099L1266.94 79.4135L1267.44 80.2772ZM1309.26 82.1967L1308.66 82.9952L1308.67 82.9996L1309.26 82.1967ZM1321.19 100.843V101.843H1322.46L1322.16 100.608L1321.19 100.843ZM1307.75 100.843L1306.79 101.113L1307 101.843H1307.75V100.843ZM1300.21 90.0117L1299.63 90.8213L1299.64 90.8281L1300.21 90.0117ZM1269.23 93.4393L1269.97 94.1106L1269.97 94.1036L1269.23 93.4393ZM1269.23 135.119L1269.97 134.455L1269.23 135.119ZM1300.21 138.684L1300.79 139.503L1300.21 138.684ZM1307.75 127.715V126.715H1307L1306.79 127.438L1307.75 127.715ZM1321.19 127.715L1322.16 127.969L1322.49 126.715H1321.19V127.715ZM1309.12 146.224L1309.73 147.022L1309.74 147.016L1309.12 146.224ZM1267.44 148.281L1266.94 149.145L1266.95 149.148L1267.44 148.281ZM1254.56 134.708L1253.67 135.177L1254.56 134.708ZM1250.9 114.142C1250.9 106.508 1252.42 99.9129 1255.44 94.3255L1253.68 93.3756C1250.48 99.305 1248.9 106.238 1248.9 114.142H1250.9ZM1255.44 94.3197C1258.46 88.6267 1262.63 84.2422 1267.95 81.141L1266.94 79.4135C1261.29 82.7104 1256.86 87.3748 1253.67 93.3814L1255.44 94.3197ZM1267.94 81.1446C1273.35 78.0416 1279.53 76.4786 1286.5 76.4786V74.4786C1279.22 74.4786 1272.69 76.1146 1266.95 79.4099L1267.94 81.1446ZM1286.5 76.4786C1295.57 76.4786 1302.93 78.676 1308.66 82.9952L1309.86 81.3982C1303.71 76.7599 1295.9 74.4786 1286.5 74.4786V76.4786ZM1308.67 82.9996C1314.49 87.326 1318.35 93.3314 1320.22 101.078L1322.16 100.608C1320.19 92.4503 1316.1 86.0248 1309.86 81.3938L1308.67 82.9996ZM1321.19 99.8429H1307.75V101.843H1321.19V99.8429ZM1308.72 100.573C1307.38 95.7901 1304.73 91.9833 1300.79 89.1952L1299.64 90.8281C1303.19 93.3414 1305.57 96.7554 1306.79 101.113L1308.72 100.573ZM1300.8 89.202C1296.94 86.403 1292.15 85.0356 1286.5 85.0356V87.0356C1291.82 87.0356 1296.17 88.3189 1299.63 90.8213L1300.8 89.202ZM1286.5 85.0356C1279.11 85.0356 1273.07 87.6072 1268.48 92.7749L1269.97 94.1036C1274.16 89.3998 1279.63 87.0356 1286.5 87.0356V85.0356ZM1268.49 92.768C1263.88 97.855 1261.65 105.029 1261.65 114.142H1263.65C1263.65 105.34 1265.8 98.7122 1269.97 94.1105L1268.49 92.768ZM1261.65 114.142C1261.65 123.345 1263.88 130.606 1268.48 135.783L1269.97 134.455C1265.8 129.76 1263.65 123.037 1263.65 114.142H1261.65ZM1268.48 135.783C1273.07 140.951 1279.11 143.523 1286.5 143.523V141.523C1279.63 141.523 1274.16 139.158 1269.97 134.455L1268.48 135.783ZM1286.5 143.523C1292.14 143.523 1296.93 142.204 1300.79 139.503L1299.64 137.864C1296.19 140.281 1291.83 141.523 1286.5 141.523V143.523ZM1300.79 139.503C1304.65 136.798 1307.29 132.94 1308.71 127.993L1306.79 127.438C1305.48 131.997 1303.09 135.451 1299.64 137.864L1300.79 139.503ZM1307.75 128.715H1321.19V126.715H1307.75V128.715ZM1320.22 127.462C1318.26 134.936 1314.36 140.913 1308.51 145.433L1309.74 147.016C1315.95 142.213 1320.09 135.851 1322.16 127.969L1320.22 127.462ZM1308.52 145.427C1302.69 149.842 1295.38 152.08 1286.5 152.08V154.08C1295.73 154.08 1303.49 151.748 1309.73 147.022L1308.52 145.427ZM1286.5 152.08C1279.53 152.08 1273.35 150.517 1267.94 147.414L1266.95 149.148C1272.69 152.444 1279.22 154.08 1286.5 154.08V152.08ZM1267.95 147.417C1262.63 144.316 1258.46 139.932 1255.44 134.239L1253.67 135.177C1256.86 141.183 1261.29 145.848 1266.94 149.145L1267.95 147.417ZM1255.44 134.239C1252.42 128.558 1250.9 121.87 1250.9 114.142H1248.9C1248.9 122.136 1250.48 129.158 1253.67 135.177L1255.44 134.239ZM1329.61 93.8506L1330.49 94.3255L1330.49 94.3197L1329.61 93.8506ZM1342.36 80.2772L1341.86 79.4134L1341.85 79.4172L1342.36 80.2772ZM1377.73 79.7288L1377.23 80.592L1377.73 79.7288ZM1388.57 90.423L1387.69 90.907L1389.57 90.423H1388.57ZM1388.57 76.7125V75.7125H1387.57V76.7125H1388.57ZM1401.18 76.7125H1402.18V75.7125H1401.18V76.7125ZM1401.18 151.846V152.846H1402.18V151.846H1401.18ZM1388.57 151.846H1387.57V152.846H1388.57V151.846ZM1388.57 137.861H1389.57V134.044L1387.69 137.371L1388.57 137.861ZM1377.46 148.829L1377.97 149.693L1377.97 149.69L1377.46 148.829ZM1342.36 148.144L1341.84 148.998L1342.36 148.144ZM1329.61 134.296L1330.5 133.833L1329.61 134.296ZM1385.14 99.3347L1386.02 98.8572L1385.14 99.3347ZM1375.82 89.7374L1375.3 90.5967L1375.32 90.6039L1375.33 90.6106L1375.82 89.7374ZM1350.31 89.6003L1349.82 88.7321L1350.31 89.6003ZM1341.13 99.1976L1342.01 99.6752L1341.13 99.1976ZM1341.13 129.086L1340.24 129.556L1340.25 129.564L1341.13 129.086ZM1350.31 138.821L1349.8 139.68L1349.81 139.685L1349.82 139.689L1350.31 138.821ZM1375.82 138.821L1376.31 139.689L1376.32 139.685L1375.82 138.821ZM1385.14 129.086L1386.02 129.564L1386.02 129.556L1385.14 129.086ZM1325.95 114.005C1325.95 106.464 1327.47 99.9146 1330.49 94.3255L1328.73 93.3756C1325.53 99.3033 1323.95 106.19 1323.95 114.005H1325.95ZM1330.49 94.3197C1333.52 88.6224 1337.65 84.2374 1342.87 81.1373L1341.85 79.4172C1336.29 82.7153 1331.92 87.3791 1328.73 93.3814L1330.49 94.3197ZM1342.87 81.141C1348.19 78.0357 1354.09 76.4786 1360.6 76.4786V74.4786C1353.76 74.4786 1347.5 76.1205 1341.86 79.4135L1342.87 81.141ZM1360.6 76.4786C1367.03 76.4786 1372.56 77.8625 1377.23 80.592L1378.24 78.8656C1373.22 75.9281 1367.32 74.4786 1360.6 74.4786V76.4786ZM1377.23 80.592C1381.94 83.3479 1385.41 86.7899 1387.69 90.907L1389.44 89.9389C1386.97 85.4641 1383.22 81.7767 1378.24 78.8656L1377.23 80.592ZM1389.57 90.423V76.7125H1387.57V90.423H1389.57ZM1388.57 77.7125H1401.18V75.7125H1388.57V77.7125ZM1400.18 76.7125V151.846H1402.18V76.7125H1400.18ZM1401.18 150.846H1388.57V152.846H1401.18V150.846ZM1389.57 151.846V137.861H1387.57V151.846H1389.57ZM1387.69 137.371C1385.32 141.585 1381.76 145.121 1376.95 147.969L1377.97 149.69C1383.04 146.688 1386.87 142.912 1389.44 138.351L1387.69 137.371ZM1376.96 147.966C1372.29 150.697 1366.8 152.08 1360.46 152.08V154.08C1367.1 154.08 1372.95 152.629 1377.97 149.693L1376.96 147.966ZM1360.46 152.08C1353.96 152.08 1348.11 150.48 1342.88 147.29L1341.84 148.998C1347.4 152.389 1353.61 154.08 1360.46 154.08V152.08ZM1342.88 147.29C1337.65 144.1 1333.53 139.624 1330.5 133.833L1328.72 134.76C1331.91 140.852 1336.28 145.607 1341.84 148.998L1342.88 147.29ZM1330.5 133.833C1327.47 128.053 1325.95 121.451 1325.95 114.005H1323.95C1323.95 121.731 1325.53 128.658 1328.72 134.76L1330.5 133.833ZM1389.57 114.142C1389.57 108.339 1388.4 103.233 1386.02 98.8572L1384.26 99.8123C1386.45 103.845 1387.57 108.611 1387.57 114.142H1389.57ZM1386.02 98.8572C1383.65 94.4974 1380.41 91.156 1376.3 88.8642L1375.33 90.6106C1379.08 92.7062 1382.06 95.763 1384.26 99.8123L1386.02 98.8572ZM1376.33 88.8782C1372.33 86.4969 1367.9 85.3098 1363.06 85.3098V87.3098C1367.55 87.3098 1371.63 88.4079 1375.3 90.5967L1376.33 88.8782ZM1363.06 85.3098C1358.24 85.3098 1353.82 86.4473 1349.82 88.7321L1350.81 90.4686C1354.49 88.366 1358.57 87.3098 1363.06 87.3098V85.3098ZM1349.82 88.7321C1345.8 91.0255 1342.62 94.3663 1340.25 98.7201L1342.01 99.6752C1344.21 95.6199 1347.15 92.5625 1350.81 90.4686L1349.82 88.7321ZM1340.25 98.7201C1337.87 103.096 1336.7 108.202 1336.7 114.005H1338.7C1338.7 108.474 1339.81 103.708 1342.01 99.6752L1340.25 98.7201ZM1336.7 114.005C1336.7 119.897 1337.87 125.091 1340.24 129.556L1342.01 128.617C1339.82 124.49 1338.7 119.63 1338.7 114.005H1336.7ZM1340.25 129.564C1342.61 133.915 1345.8 137.297 1349.8 139.68L1350.83 137.962C1347.15 135.775 1344.21 132.667 1342.01 128.609L1340.25 129.564ZM1349.82 139.689C1353.82 141.974 1358.24 143.111 1363.06 143.111V141.111C1358.57 141.111 1354.49 140.055 1350.81 137.953L1349.82 139.689ZM1363.06 143.111C1367.89 143.111 1372.31 141.974 1376.31 139.689L1375.32 137.953C1371.64 140.055 1367.56 141.111 1363.06 141.111V143.111ZM1376.32 139.685C1380.41 137.303 1383.65 133.921 1386.02 129.564L1384.26 128.609C1382.06 132.661 1379.08 135.768 1375.31 137.956L1376.32 139.685ZM1386.02 129.556C1388.39 125.093 1389.57 119.946 1389.57 114.142H1387.57C1387.57 119.672 1386.45 124.488 1384.26 128.617L1386.02 129.556ZM1426.51 50.3885H1427.51V49.3885H1426.51V50.3885ZM1426.51 151.846V152.846H1427.51V151.846H1426.51ZM1414.04 151.846H1413.04V152.846H1414.04V151.846ZM1414.04 50.3885V49.3885H1413.04V50.3885H1414.04ZM1425.51 50.3885V151.846H1427.51V50.3885H1425.51ZM1426.51 150.846H1414.04V152.846H1426.51V150.846ZM1415.04 151.846V50.3885H1413.04V151.846H1415.04ZM1414.04 51.3885H1426.51V49.3885H1414.04V51.3885ZM1453.12 148.281L1452.63 149.152L1452.64 149.155L1453.12 148.281ZM1439.69 134.708L1438.81 135.182L1438.81 135.19L1438.82 135.198L1439.69 134.708ZM1439.83 93.8506L1438.96 93.3559L1438.95 93.3603L1439.83 93.8506ZM1453.54 80.2772L1454.01 81.1573L1454.02 81.1514L1453.54 80.2772ZM1492.2 80.2772L1491.71 81.1515L1491.72 81.1573L1492.2 80.2772ZM1505.77 93.7135L1504.9 94.2038L1504.91 94.214L1505.77 93.7135ZM1505.64 134.708L1504.77 134.203L1504.77 134.207L1505.64 134.708ZM1491.79 148.281L1492.27 149.158L1491.79 148.281ZM1494.39 129.498L1493.53 128.992L1493.53 128.999L1493.52 129.006L1494.39 129.498ZM1485.21 89.4632L1484.73 90.3403L1484.74 90.3448L1484.74 90.3491L1485.21 89.4632ZM1460.12 89.4632L1460.59 90.3444L1460.6 90.3403L1460.12 89.4632ZM1451.07 98.7863L1451.95 99.2638L1451.07 98.7863ZM1450.93 129.635L1450.04 130.097L1450.05 130.105L1450.05 130.112L1450.93 129.635ZM1459.98 139.095L1459.49 139.967L1459.5 139.972L1459.51 139.976L1459.98 139.095ZM1472.32 152.08C1465.44 152.08 1459.21 150.518 1453.61 147.407L1452.64 149.155C1458.56 152.442 1465.12 154.08 1472.32 154.08V152.08ZM1453.62 147.41C1448.11 144.304 1443.76 139.913 1440.56 134.217L1438.82 135.198C1442.19 141.202 1446.8 145.86 1452.63 149.152L1453.62 147.41ZM1440.57 134.234C1437.46 128.459 1435.89 121.771 1435.89 114.142H1433.89C1433.89 122.051 1435.52 129.074 1438.81 135.182L1440.57 134.234ZM1435.89 114.142C1435.89 106.611 1437.5 100.021 1440.7 94.3408L1438.95 93.3603C1435.57 99.3802 1433.89 106.317 1433.89 114.142H1435.89ZM1440.69 94.3453C1443.99 88.5593 1448.43 84.1719 1454.01 81.1573L1453.06 79.3972C1447.13 82.598 1442.43 87.2595 1438.96 93.3559L1440.69 94.3453ZM1454.02 81.1514C1459.62 78.0415 1465.89 76.4786 1472.87 76.4786V74.4786C1465.58 74.4786 1458.97 76.1147 1453.05 79.4031L1454.02 81.1514ZM1472.87 76.4786C1479.84 76.4786 1486.12 78.0415 1491.71 81.1514L1492.69 79.4031C1486.77 76.1147 1480.15 74.4786 1472.87 74.4786V76.4786ZM1491.72 81.1573C1497.31 84.1728 1501.7 88.5143 1504.9 94.2037L1506.64 93.2232C1503.26 87.2131 1498.6 82.5971 1492.67 79.3972L1491.72 81.1573ZM1504.91 94.214C1508.19 99.8901 1509.85 106.522 1509.85 114.142H1511.85C1511.85 106.224 1510.12 99.2364 1506.64 93.213L1504.91 94.214ZM1509.85 114.142C1509.85 121.757 1508.15 128.434 1504.77 134.203L1506.5 135.212C1510.07 129.099 1511.85 122.065 1511.85 114.142H1509.85ZM1504.77 134.207C1501.48 139.901 1497 144.294 1491.31 147.404L1492.27 149.158C1498.28 145.87 1503.03 141.214 1506.5 135.208L1504.77 134.207ZM1491.31 147.404C1485.62 150.517 1479.29 152.08 1472.32 152.08V154.08C1479.6 154.08 1486.26 152.443 1492.27 149.158L1491.31 147.404ZM1472.32 143.111C1476.96 143.111 1481.33 142.02 1485.4 139.84L1484.46 138.076C1480.68 140.1 1476.63 141.111 1472.32 141.111V143.111ZM1485.4 139.84C1489.52 137.64 1492.8 134.345 1495.26 129.99L1493.52 129.006C1491.23 133.059 1488.21 136.071 1484.46 138.076L1485.4 139.84ZM1495.26 130.004C1497.83 125.613 1499.1 120.311 1499.1 114.142H1497.1C1497.1 120.039 1495.89 124.973 1493.53 128.992L1495.26 130.004ZM1499.1 114.142C1499.1 107.979 1497.88 102.682 1495.4 98.2943L1493.66 99.2784C1495.93 103.3 1497.1 108.239 1497.1 114.142H1499.1ZM1495.4 98.2943C1492.94 93.9419 1489.7 90.6877 1485.67 88.5774L1484.74 90.3491C1488.39 92.2605 1491.37 95.2217 1493.66 99.2784L1495.4 98.2943ZM1485.69 88.5861C1481.7 86.4013 1477.37 85.3098 1472.73 85.3098V87.3098C1477.05 87.3098 1481.04 88.3206 1484.73 90.3403L1485.69 88.5861ZM1472.73 85.3098C1468 85.3098 1463.63 86.3996 1459.64 88.5861L1460.6 90.3403C1464.28 88.3223 1468.32 87.3098 1472.73 87.3098V85.3098ZM1459.64 88.5821C1455.7 90.6963 1452.56 93.9552 1450.19 98.3088L1451.95 99.2638C1454.15 95.2084 1457.04 92.2519 1460.59 90.3444L1459.64 88.5821ZM1450.19 98.3088C1447.81 102.693 1446.64 107.985 1446.64 114.142H1448.64C1448.64 108.234 1449.76 103.288 1451.95 99.2638L1450.19 98.3088ZM1446.64 114.142C1446.64 120.382 1447.76 125.715 1450.04 130.097L1451.82 129.172C1449.72 125.146 1448.64 120.15 1448.64 114.142H1446.64ZM1450.05 130.112C1452.42 134.463 1455.56 137.762 1459.49 139.967L1460.47 138.223C1456.9 136.223 1454.02 133.216 1451.81 129.157L1450.05 130.112ZM1459.51 139.976C1463.41 142.069 1467.68 143.111 1472.32 143.111V141.111C1468 141.111 1464.05 140.143 1460.45 138.214L1459.51 139.976ZM1531.5 88.9148H1530.5L1532.39 89.3696L1531.5 88.9148ZM1540.82 78.9062L1540.32 78.0403L1540.31 78.0453L1540.82 78.9062ZM1555.77 75.3415H1556.77V74.3415H1555.77V75.3415ZM1555.77 88.2293V89.2293H1556.77V88.2293H1555.77ZM1531.5 151.846V152.846H1532.5V151.846H1531.5ZM1519.02 151.846H1518.02V152.846H1519.02V151.846ZM1519.02 76.7125V75.7125H1518.02V76.7125H1519.02ZM1531.5 76.7125H1532.5V75.7125H1531.5V76.7125ZM1532.39 89.3696C1534.5 85.2367 1537.48 82.0439 1541.33 79.7671L1540.31 78.0453C1536.12 80.5215 1532.89 84.0011 1530.61 88.46L1532.39 89.3696ZM1541.32 79.7721C1545.25 77.5017 1550.05 76.3415 1555.77 76.3415V74.3415C1549.78 74.3415 1544.62 75.5578 1540.32 78.0403L1541.32 79.7721ZM1554.77 75.3415V88.2293H1556.77V75.3415H1554.77ZM1555.77 87.2293H1552.48V89.2293H1555.77V87.2293ZM1552.48 87.2293C1545.31 87.2293 1539.75 89.1774 1536.01 93.2414C1532.28 97.2899 1530.5 103.267 1530.5 110.989H1532.5C1532.5 103.537 1534.22 98.1348 1537.48 94.5969C1540.73 91.0744 1545.66 89.2293 1552.48 89.2293V87.2293ZM1530.5 110.989V151.846H1532.5V110.989H1530.5ZM1531.5 150.846H1519.02V152.846H1531.5V150.846ZM1520.02 151.846V76.7125H1518.02V151.846H1520.02ZM1519.02 77.7125H1531.5V75.7125H1519.02V77.7125ZM1530.5 76.7125V88.9148H1532.5V76.7125H1530.5ZM1562.36 62.0424L1563.06 61.3353L1562.36 62.0424ZM1562.36 49.9772L1563.06 50.6843L1562.36 49.9772ZM1574.15 49.9772L1573.42 50.6638L1573.43 50.6742L1573.44 50.6843L1574.15 49.9772ZM1574.15 62.0424L1573.44 61.3353L1573.43 61.3454L1573.42 61.3557L1574.15 62.0424ZM1574.42 76.7125H1575.42V75.7125H1574.42V76.7125ZM1574.42 151.846V152.846H1575.42V151.846H1574.42ZM1561.94 151.846H1560.94V152.846H1561.94V151.846ZM1561.94 76.7125V75.7125H1560.94V76.7125H1561.94ZM1568.39 63.5102C1566.27 63.5102 1564.52 62.7885 1563.06 61.3353L1561.65 62.7495C1563.49 64.5867 1565.75 65.5102 1568.39 65.5102V63.5102ZM1563.06 61.3353C1561.61 59.882 1560.89 58.1274 1560.89 56.0098H1558.89C1558.89 58.6451 1559.81 60.9122 1561.65 62.7495L1563.06 61.3353ZM1560.89 56.0098C1560.89 53.8922 1561.61 52.1376 1563.06 50.6843L1561.65 49.2701C1559.81 51.1073 1558.89 53.3744 1558.89 56.0098H1560.89ZM1563.06 50.6843C1564.52 49.231 1566.27 48.5093 1568.39 48.5093V46.5093C1565.75 46.5093 1563.49 47.4328 1561.65 49.2701L1563.06 50.6843ZM1568.39 48.5093C1570.4 48.5093 1572.06 49.2208 1573.42 50.6638L1574.87 49.2906C1573.13 47.4431 1570.94 46.5093 1568.39 46.5093V48.5093ZM1573.44 50.6843C1574.89 52.1376 1575.61 53.8922 1575.61 56.0098H1577.61C1577.61 53.3744 1576.69 51.1073 1574.85 49.2701L1573.44 50.6843ZM1575.61 56.0098C1575.61 58.1274 1574.89 59.882 1573.44 61.3353L1574.85 62.7495C1576.69 60.9122 1577.61 58.6451 1577.61 56.0098H1575.61ZM1573.42 61.3557C1572.06 62.7988 1570.4 63.5102 1568.39 63.5102V65.5102C1570.94 65.5102 1573.13 64.5765 1574.87 62.729L1573.42 61.3557ZM1573.42 76.7125V151.846H1575.42V76.7125H1573.42ZM1574.42 150.846H1561.94V152.846H1574.42V150.846ZM1562.94 151.846V76.7125H1560.94V151.846H1562.94ZM1561.94 77.7125H1574.42V75.7125H1561.94V77.7125ZM1655.6 118.941V119.941H1656.5L1656.59 119.044L1655.6 118.941ZM1595.55 118.941V117.941H1594.48L1594.55 119.002L1595.55 118.941ZM1603.09 136.353L1602.41 137.089L1602.42 137.096L1602.43 137.103L1603.09 136.353ZM1633.39 138.821L1633.96 139.643L1633.96 139.64L1633.39 138.821ZM1641.07 128.675V127.675H1640.35L1640.12 128.347L1641.07 128.675ZM1654.5 128.675L1655.47 128.943L1655.82 127.675H1654.5V128.675ZM1642.44 146.362L1643.03 147.164L1643.04 147.159L1642.44 146.362ZM1600.76 148.281L1600.26 149.148L1600.27 149.152L1600.76 148.281ZM1587.6 134.708L1586.71 135.182L1586.72 135.187L1587.6 134.708ZM1587.46 93.7135L1588.34 94.1826L1587.46 93.7135ZM1600.48 80.2772L1600.97 81.1507L1600.97 81.1481L1600.48 80.2772ZM1638.87 80.1401L1638.38 81.0102L1638.87 80.1401ZM1651.49 93.0279L1650.6 93.4985L1650.61 93.5074L1650.61 93.5161L1651.49 93.0279ZM1643.12 108.795V109.795H1644.12V108.795H1643.12ZM1639.97 96.5927L1639.11 97.1105L1639.12 97.1206L1639.97 96.5927ZM1631.33 88.7777L1630.88 89.6675L1630.89 89.6745L1630.9 89.681L1631.33 88.7777ZM1603.23 92.0682L1602.56 91.3241L1602.55 91.3311L1603.23 92.0682ZM1595.68 108.795L1594.69 108.706L1594.59 109.795H1595.68V108.795ZM1655.01 111.4C1655.01 113.738 1654.88 116.217 1654.6 118.838L1656.59 119.044C1656.87 116.363 1657.01 113.815 1657.01 111.4H1655.01ZM1655.6 117.941H1595.55V119.941H1655.6V117.941ZM1594.55 119.002C1595.02 126.61 1597.61 132.676 1602.41 137.089L1603.77 135.617C1599.42 131.62 1596.99 126.078 1596.55 118.879L1594.55 119.002ZM1602.43 137.103C1607.28 141.387 1613.14 143.523 1619.95 143.523V141.523C1613.6 141.523 1608.22 139.545 1603.75 135.603L1602.43 137.103ZM1619.95 143.523C1625.5 143.523 1630.19 142.252 1633.96 139.643L1632.82 137.999C1629.46 140.325 1625.19 141.523 1619.95 141.523V143.523ZM1633.96 139.64C1637.79 136.961 1640.48 133.407 1642.01 129.004L1640.12 128.347C1638.73 132.352 1636.3 135.562 1632.81 138.002L1633.96 139.64ZM1641.07 129.675H1654.5V127.675H1641.07V129.675ZM1653.54 128.407C1651.59 135.415 1647.69 141.125 1641.83 145.564L1643.04 147.159C1649.25 142.458 1653.4 136.377 1655.47 128.943L1653.54 128.407ZM1641.84 145.559C1636.01 149.886 1628.74 152.08 1619.95 152.08V154.08C1629.08 154.08 1636.8 151.794 1643.03 147.164L1641.84 145.559ZM1619.95 152.08C1612.98 152.08 1606.75 150.517 1601.25 147.41L1600.27 149.152C1606.1 152.444 1612.67 154.08 1619.95 154.08V152.08ZM1601.25 147.414C1595.85 144.31 1591.59 139.922 1588.47 134.228L1586.72 135.187C1590 141.193 1594.52 145.854 1600.26 149.148L1601.25 147.414ZM1588.48 134.234C1585.37 128.459 1583.8 121.771 1583.8 114.142H1581.8C1581.8 122.051 1583.43 129.074 1586.71 135.182L1588.48 134.234ZM1583.8 114.142C1583.8 106.508 1585.32 99.8648 1588.34 94.1826L1586.58 93.2443C1583.38 99.2617 1581.8 106.237 1581.8 114.142H1583.8ZM1588.34 94.1826C1591.36 88.4962 1595.57 84.161 1600.97 81.1507L1600 79.4038C1594.25 82.6089 1589.77 87.2312 1586.58 93.2443L1588.34 94.1826ZM1600.97 81.1481C1606.47 78.0437 1612.79 76.4786 1619.95 76.4786V74.4786C1612.49 74.4786 1605.83 76.1126 1599.99 79.4064L1600.97 81.1481ZM1619.95 76.4786C1626.93 76.4786 1633.06 77.9983 1638.38 81.0102L1639.37 79.2701C1633.71 76.0665 1627.23 74.4786 1619.95 74.4786V76.4786ZM1638.38 81.0102C1643.7 84.0257 1647.77 88.1842 1650.6 93.4985L1652.37 92.5574C1649.35 86.9033 1645.01 82.4699 1639.37 79.2701L1638.38 81.0102ZM1650.61 93.5161C1653.54 98.7439 1655.01 104.697 1655.01 111.4H1657.01C1657.01 104.393 1655.47 98.0976 1652.36 92.5398L1650.61 93.5161ZM1644.12 108.795C1644.12 103.892 1643.04 99.6335 1640.82 96.0647L1639.12 97.1206C1641.11 100.316 1642.12 104.192 1642.12 108.795H1644.12ZM1640.82 96.0749C1638.62 92.4346 1635.59 89.6954 1631.76 87.8744L1630.9 89.681C1634.38 91.3334 1637.11 93.8041 1639.11 97.1105L1640.82 96.0749ZM1631.79 87.8879C1628.07 85.9807 1623.93 85.0356 1619.4 85.0356V87.0356C1623.65 87.0356 1627.46 87.9186 1630.88 89.6675L1631.79 87.8879ZM1619.4 85.0356C1612.86 85.0356 1607.23 87.1292 1602.56 91.3242L1603.89 92.8123C1608.18 88.9638 1613.33 87.0356 1619.4 87.0356V85.0356ZM1602.55 91.3311C1597.94 95.5541 1595.35 101.381 1594.69 108.706L1596.68 108.884C1597.3 101.95 1599.73 96.6258 1603.9 92.8054L1602.55 91.3311ZM1595.68 109.795H1643.12V107.795H1595.68V109.795Z" fill="#696B77"/>
</g>
</svg>
