<svg width="1920" height="66" viewBox="0 0 1920 66" fill="none" xmlns="http://www.w3.org/2000/svg">
<path d="M176.697 24.997H175.697V28.0799L177.507 25.5839L176.697 24.997ZM180.909 21.5317L181.356 22.4262L181.363 22.4227L180.909 21.5317ZM193.97 22.0115L194.48 21.1515V21.1515L193.97 22.0115ZM198.928 27.3426L198.042 27.8061L198.045 27.8118L198.928 27.3426ZM198.928 43.1227L199.814 43.5862L199.817 43.5806L198.928 43.1227ZM193.917 48.5604L194.438 49.414L194.442 49.4115L193.917 48.5604ZM180.856 49.1468L180.401 50.0376L180.409 50.0412L180.856 49.1468ZM176.697 45.7349L177.5 45.1382L175.697 42.7142V45.7349H176.697ZM176.697 49.9998V50.9998H177.697V49.9998H176.697ZM170.62 49.9998H169.62V50.9998H170.62V49.9998ZM170.62 10.5497V9.54971H169.62V10.5497H170.62ZM176.697 10.5497H177.697V9.54971H176.697V10.5497ZM193.277 29.9549L192.4 30.4352L192.407 30.4477L192.414 30.46L193.277 29.9549ZM189.972 26.5963L189.471 27.4617L189.484 27.4694L189.498 27.4768L189.972 26.5963ZM181.229 26.5963L180.738 25.7253L180.728 25.7309L181.229 26.5963ZM177.924 30.0082L177.055 29.512L177.051 29.5199L177.047 29.5279L177.924 30.0082ZM177.924 40.617L177.042 41.0887L177.048 41.101L177.055 41.1132L177.924 40.617ZM181.229 44.0289L180.728 44.8944L180.738 44.8999L181.229 44.0289ZM189.972 44.0289L190.473 44.8944L190.48 44.8903L189.972 44.0289ZM193.277 40.5104L192.404 40.0231L192.4 40.0309L192.395 40.0388L193.277 40.5104ZM177.507 25.5839C178.432 24.3087 179.704 23.2524 181.356 22.4262L180.462 20.6373C178.56 21.5882 177.025 22.842 175.888 24.41L177.507 25.5839ZM181.363 22.4227C183.024 21.5762 184.874 21.1457 186.933 21.1457V19.1457C184.585 19.1457 182.42 19.6392 180.455 20.6408L181.363 22.4227ZM186.933 21.1457C189.36 21.1457 191.528 21.7252 193.46 22.8716L194.48 21.1515C192.219 19.8101 189.695 19.1457 186.933 19.1457V21.1457ZM193.46 22.8716C195.386 24.0142 196.913 25.6486 198.042 27.8061L199.814 26.8791C198.526 24.4164 196.748 22.4968 194.48 21.1515L193.46 22.8716ZM198.045 27.8118C199.166 29.9221 199.741 32.3691 199.741 35.1793H201.741C201.741 32.0898 201.107 29.3123 199.811 26.8735L198.045 27.8118ZM199.741 35.1793C199.741 37.9889 199.166 40.4767 198.039 42.6647L199.817 43.5806C201.107 41.0773 201.741 38.2695 201.741 35.1793H199.741ZM198.042 42.6592C196.913 44.8167 195.365 46.4925 193.392 47.7092L194.442 49.4115C196.734 47.9982 198.526 46.0489 199.814 43.5862L198.042 42.6592ZM193.396 47.7067C191.463 48.8864 189.316 49.4796 186.933 49.4796V51.4796C189.668 51.4796 192.177 50.7933 194.438 49.414L193.396 47.7067ZM186.933 49.4796C184.791 49.4796 182.922 49.062 181.303 48.2524L180.409 50.0412C182.343 51.0086 184.526 51.4796 186.933 51.4796V49.4796ZM181.31 48.256C179.688 47.4282 178.427 46.3854 177.5 45.1382L175.895 46.3316C177.029 47.8566 178.541 49.0884 180.401 50.0375L181.31 48.256ZM175.697 45.7349V49.9998H177.697V45.7349H175.697ZM176.697 48.9998H170.62V50.9998H176.697V48.9998ZM171.62 49.9998V10.5497H169.62V49.9998H171.62ZM170.62 11.5497H176.697V9.54971H170.62V11.5497ZM175.697 10.5497V24.997H177.697V10.5497H175.697ZM195.557 35.1793C195.557 33.0115 195.099 31.0881 194.14 29.4497L192.414 30.46C193.161 31.7359 193.557 33.2955 193.557 35.1793H195.557ZM194.154 29.4746C193.252 27.8267 192.016 26.5613 190.446 25.7158L189.498 27.4768C190.7 28.124 191.668 29.0977 192.4 30.4352L194.154 29.4746ZM190.473 25.7309C188.97 24.8606 187.34 24.4234 185.6 24.4234V26.4234C186.989 26.4234 188.273 26.7682 189.471 27.4617L190.473 25.7309ZM185.6 24.4234C183.893 24.4234 182.267 24.8625 180.738 25.7253L181.72 27.4673C182.963 26.7663 184.252 26.4234 185.6 26.4234V24.4234ZM180.728 25.7309C179.209 26.6101 177.987 27.882 177.055 29.512L178.792 30.5043C179.566 29.149 180.547 28.1463 181.73 27.4617L180.728 25.7309ZM177.047 29.5279C176.134 31.1935 175.697 33.1242 175.697 35.286H177.697C177.697 33.3961 178.078 31.8083 178.801 30.4885L177.047 29.5279ZM175.697 35.286C175.697 37.4485 176.135 39.3926 177.042 41.0887L178.805 40.1454C178.078 38.785 177.697 37.1751 177.697 35.286H175.697ZM177.055 41.1132C177.987 42.7432 179.209 44.0152 180.728 44.8944L181.73 43.1635C180.547 42.4789 179.566 41.4763 178.792 40.1209L177.055 41.1132ZM180.738 44.8999C182.267 45.7628 183.893 46.2018 185.6 46.2018V44.2018C184.252 44.2018 182.963 43.8589 181.72 43.158L180.738 44.8999ZM185.6 46.2018C187.34 46.2018 188.97 45.7646 190.473 44.8944L189.471 43.1635C188.273 43.8571 186.989 44.2018 185.6 44.2018V46.2018ZM190.48 44.8903C192.036 43.9725 193.262 42.6591 194.159 40.9821L192.395 40.0388C191.658 41.4182 190.68 42.4505 189.464 43.1676L190.48 44.8903ZM194.15 40.9978C195.099 39.2986 195.557 37.3486 195.557 35.1793H193.557C193.557 37.0616 193.162 38.6658 192.404 40.0231L194.15 40.9978ZM230.687 20.6255H231.687V19.6255H230.687V20.6255ZM230.687 49.9998V50.9998H231.687V49.9998H230.687ZM224.61 49.9998H223.61V50.9998H224.61V49.9998ZM224.61 46.5345H225.61V43.6673L223.827 45.9127L224.61 46.5345ZM220.825 49.4133L221.229 50.3281L221.239 50.3237L220.825 49.4133ZM209.683 48.9869L209.215 49.8707L209.222 49.8743L209.683 48.9869ZM205.365 44.722L204.487 45.202L204.491 45.2083L204.494 45.2146L205.365 44.722ZM203.819 20.6255V19.6255H202.819V20.6255H203.819ZM209.843 20.6255H210.843V19.6255H209.843V20.6255ZM211.815 43.0693L211.081 43.7484L211.09 43.7576L211.815 43.0693ZM222.584 43.0693L221.859 42.3806L221.859 42.3811L222.584 43.0693ZM224.61 20.6255V19.6255H223.61V20.6255H224.61ZM229.687 20.6255V49.9998H231.687V20.6255H229.687ZM230.687 48.9998H224.61V50.9998H230.687V48.9998ZM225.61 49.9998V46.5345H223.61V49.9998H225.61ZM223.827 45.9127C222.976 46.9835 221.847 47.8502 220.411 48.503L221.239 50.3237C222.93 49.5549 224.324 48.5024 225.393 47.1564L223.827 45.9127ZM220.421 48.4986C219.025 49.1153 217.528 49.4262 215.92 49.4262V51.4262C217.795 51.4262 219.568 51.0619 221.229 50.328L220.421 48.4986ZM215.92 49.4262C213.753 49.4262 211.834 48.9772 210.144 48.0994L209.222 49.8743C211.227 50.9157 213.467 51.4262 215.92 51.4262V49.4262ZM210.151 48.1031C208.516 47.2378 207.212 45.9566 206.235 44.2294L204.494 45.2146C205.649 47.2547 207.224 48.8167 209.215 49.8706L210.151 48.1031ZM206.242 44.242C205.309 42.5369 204.819 40.4359 204.819 37.8982H202.819C202.819 40.6916 203.359 43.1397 204.487 45.202L206.242 44.242ZM204.819 37.8982V20.6255H202.819V37.8982H204.819ZM203.819 21.6255H209.843V19.6255H203.819V21.6255ZM208.843 20.6255V36.9919H210.843V20.6255H208.843ZM208.843 36.9919C208.843 39.7822 209.542 42.0843 211.081 43.7484L212.549 42.3903C211.459 41.2111 210.843 39.4616 210.843 36.9919H208.843ZM211.09 43.7576C212.629 45.3803 214.707 46.1485 217.2 46.1485V44.1485C215.143 44.1485 213.631 43.5305 212.541 42.3811L211.09 43.7576ZM217.2 46.1485C219.692 46.1485 221.77 45.3803 223.309 43.7576L221.859 42.3811C220.768 43.5305 219.256 44.1485 217.2 44.1485V46.1485ZM223.309 43.7581C224.889 42.0946 225.61 39.7888 225.61 36.9919H223.61C223.61 39.455 222.98 41.2009 221.859 42.3806L223.309 43.7581ZM225.61 36.9919V20.6255H223.61V36.9919H225.61ZM224.61 21.6255H230.687V19.6255H224.61V21.6255ZM242.118 24.8903H241.118V28.5254L242.977 25.4018L242.118 24.8903ZM245.636 21.4251L246.126 22.2973L246.132 22.2934L245.636 21.4251ZM250.914 20.1457H251.914V19.1457H250.914V20.1457ZM250.914 26.4364V27.4364H251.914V26.4364H250.914ZM243.93 28.2489L243.234 27.5316L243.228 27.5367L243.223 27.5418L243.93 28.2489ZM242.118 49.9998V50.9998H243.118V49.9998H242.118ZM236.04 49.9998H235.04V50.9998H236.04V49.9998ZM236.04 20.6255V19.6255H235.04V20.6255H236.04ZM242.118 20.6255H243.118V19.6255H242.118V20.6255ZM242.977 25.4018C243.78 24.0534 244.827 23.0255 246.126 22.2973L245.147 20.553C243.531 21.4596 242.233 22.7418 241.259 24.3789L242.977 25.4018ZM246.132 22.2934C247.449 21.541 249.031 21.1457 250.914 21.1457V19.1457C248.746 19.1457 246.809 19.6033 245.14 20.5569L246.132 22.2934ZM249.914 20.1457V26.4364H251.914V20.1457H249.914ZM250.914 25.4364H249.368V27.4364H250.914V25.4364ZM249.368 25.4364C246.825 25.4364 244.725 26.0831 243.234 27.5316L244.627 28.9662C245.624 27.9979 247.148 27.4364 249.368 27.4364V25.4364ZM243.223 27.5418C241.729 29.0365 241.118 31.4724 241.118 34.5396H243.118C243.118 31.636 243.715 29.8781 244.638 28.956L243.223 27.5418ZM241.118 34.5396V49.9998H243.118V34.5396H241.118ZM242.118 48.9998H236.04V50.9998H242.118V48.9998ZM237.04 49.9998V20.6255H235.04V49.9998H237.04ZM236.04 21.6255H242.118V19.6255H236.04V21.6255ZM241.118 20.6255V24.8903H243.118V20.6255H241.118ZM274.839 21.5851L274.372 22.4689L274.379 22.4726L274.839 21.5851ZM279.158 25.8499L278.28 26.3299V26.3299L279.158 25.8499ZM280.704 49.9998V50.9998H281.704V49.9998H280.704ZM274.68 49.9998H273.68V50.9998H274.68V49.9998ZM272.707 27.5559L271.973 28.235L271.982 28.2441L272.707 27.5559ZM261.885 27.5559L261.16 26.8671L261.159 26.8676L261.885 27.5559ZM259.912 49.9998V50.9998H260.912V49.9998H259.912ZM253.835 49.9998H252.835V50.9998H253.835V49.9998ZM253.835 20.6255V19.6255H252.835V20.6255H253.835ZM259.912 20.6255H260.912V19.6255H259.912V20.6255ZM259.912 23.9841H258.912V26.7714L260.684 24.6198L259.912 23.9841ZM263.697 21.1586L263.301 20.2405L263.293 20.2439L263.697 21.1586ZM268.655 21.1457C270.823 21.1457 272.721 21.5948 274.372 22.4688L275.307 20.7013C273.333 19.6562 271.108 19.1457 268.655 19.1457V21.1457ZM274.379 22.4726C276.045 23.3377 277.342 24.6147 278.28 26.3299L280.035 25.3699C278.912 23.3179 277.33 21.7516 275.3 20.6976L274.379 22.4726ZM278.28 26.3299C279.213 28.035 279.704 30.136 279.704 32.6737H281.704C281.704 29.8803 281.163 27.4322 280.035 25.3699L278.28 26.3299ZM279.704 32.6737V49.9998H281.704V32.6737H279.704ZM280.704 48.9998H274.68V50.9998H280.704V48.9998ZM275.68 49.9998V33.58H273.68V49.9998H275.68ZM275.68 33.58C275.68 30.7916 274.981 28.5 273.432 26.8676L271.982 28.2441C273.063 29.3839 273.68 31.1084 273.68 33.58H275.68ZM273.441 26.8768C271.904 25.2146 269.823 24.4234 267.323 24.4234V26.4234C269.372 26.4234 270.88 27.0539 271.973 28.2349L273.441 26.8768ZM267.323 24.4234C264.822 24.4234 262.73 25.2146 261.16 26.8671L262.61 28.2446C263.741 27.0539 265.274 26.4234 267.323 26.4234V24.4234ZM261.159 26.8676C259.611 28.5 258.912 30.7916 258.912 33.58H260.912C260.912 31.1084 261.529 29.3839 262.61 28.2441L261.159 26.8676ZM258.912 33.58V49.9998H260.912V33.58H258.912ZM259.912 48.9998H253.835V50.9998H259.912V48.9998ZM254.835 49.9998V20.6255H252.835V49.9998H254.835ZM253.835 21.6255H259.912V19.6255H253.835V21.6255ZM258.912 20.6255V23.9841H260.912V20.6255H258.912ZM260.684 24.6198C261.574 23.5398 262.706 22.6898 264.102 22.0733L263.293 20.2439C261.632 20.9779 260.241 22.0115 259.14 23.3483L260.684 24.6198ZM264.094 22.0766C265.53 21.4566 267.047 21.1457 268.655 21.1457V19.1457C266.781 19.1457 264.993 19.51 263.301 20.2405L264.094 22.0766ZM304.063 25.5834V24.5834H303.063V25.5834H304.063ZM304.81 44.2422L304.103 44.9493L304.128 44.9745L304.155 44.9979L304.81 44.2422ZM311.207 44.9352H312.207V43.9352H311.207V44.9352ZM311.207 49.9998V50.9998H312.207V49.9998H311.207ZM300.118 48.0806L299.459 48.832L300.118 48.0806ZM297.933 25.5834H298.933V24.5834H297.933V25.5834ZM294.467 25.5834H293.467V26.5834H294.467V25.5834ZM294.467 20.6255V19.6255H293.467V20.6255H294.467ZM297.933 20.6255V21.6255H298.933V20.6255H297.933ZM297.933 13.3219V12.3219H296.933V13.3219H297.933ZM304.063 13.3219H305.063V12.3219H304.063V13.3219ZM304.063 20.6255H303.063V21.6255H304.063V20.6255ZM311.207 20.6255H312.207V19.6255H311.207V20.6255ZM311.207 25.5834V26.5834H312.207V25.5834H311.207ZM303.063 25.5834V41.8432H305.063V25.5834H303.063ZM303.063 41.8432C303.063 43.0645 303.335 44.1816 304.103 44.9493L305.517 43.5351C305.289 43.3076 305.063 42.8254 305.063 41.8432H303.063ZM304.155 44.9979C304.965 45.6998 306.157 45.9352 307.475 45.9352V43.9352C306.306 43.9352 305.721 43.7086 305.465 43.4865L304.155 44.9979ZM307.475 45.9352H311.207V43.9352H307.475V45.9352ZM310.207 44.9352V49.9998H312.207V44.9352H310.207ZM311.207 48.9998H306.409V50.9998H311.207V48.9998ZM306.409 48.9998C303.816 48.9998 301.99 48.3932 300.778 47.3291L299.459 48.832C301.161 50.3268 303.529 50.9998 306.409 50.9998V48.9998ZM300.778 47.3291C299.625 46.3162 298.933 44.5755 298.933 41.8432H296.933C296.933 44.8685 297.698 47.286 299.459 48.832L300.778 47.3291ZM298.933 41.8432V25.5834H296.933V41.8432H298.933ZM297.933 24.5834H294.467V26.5834H297.933V24.5834ZM295.467 25.5834V20.6255H293.467V25.5834H295.467ZM294.467 21.6255H297.933V19.6255H294.467V21.6255ZM298.933 20.6255V13.3219H296.933V20.6255H298.933ZM297.933 14.3219H304.063V12.3219H297.933V14.3219ZM303.063 13.3219V20.6255H305.063V13.3219H303.063ZM304.063 21.6255H311.207V19.6255H304.063V21.6255ZM310.207 20.6255V25.5834H312.207V20.6255H310.207ZM311.207 24.5834H304.063V26.5834H311.207V24.5834ZM319.367 48.6137L318.871 49.482L318.882 49.4878L319.367 48.6137ZM314.09 43.2826L313.215 43.7671L313.218 43.7728L314.09 43.2826ZM319.527 22.0115L319.048 21.1342L319.527 22.0115ZM334.774 22.0115L335.254 21.1342L334.774 22.0115ZM340.105 43.2293L339.242 42.7246L340.105 43.2293ZM334.561 48.6137L335.035 49.4942L335.04 49.4916L334.561 48.6137ZM331.256 44.0822L330.782 43.2017L330.772 43.207L331.256 44.0822ZM334.614 40.7237L333.746 40.2275V40.2275L334.614 40.7237ZM334.668 29.9016L333.79 30.3819L333.795 30.3908L334.668 29.9016ZM322.673 26.543L322.189 25.6677L322.179 25.6733L322.673 26.543ZM319.527 29.9016L320.409 30.3744L320.413 30.3656L319.527 29.9016ZM320.753 42.6429L320.017 43.3193L320.024 43.3271L320.031 43.3348L320.753 42.6429ZM326.884 49.4796C324.268 49.4796 321.931 48.8942 319.853 47.7395L318.882 49.4878C321.281 50.821 323.956 51.4796 326.884 51.4796V49.4796ZM319.864 47.7454C317.783 46.5568 316.153 44.9113 314.961 42.7923L313.218 43.7728C314.585 46.2031 316.473 48.1116 318.871 49.4819L319.864 47.7454ZM314.964 42.7981C313.778 40.6564 313.17 38.1621 313.17 35.286H311.17C311.17 38.4517 311.842 41.2885 313.215 43.7671L314.964 42.7981ZM313.17 35.286C313.17 32.4522 313.793 29.9789 315.012 27.8373L313.274 26.8479C311.863 29.3267 311.17 32.1489 311.17 35.286H313.17ZM315.012 27.8373C316.238 25.6841 317.9 24.0415 320.007 22.8889L319.048 21.1342C316.606 22.4694 314.678 24.3809 313.274 26.8479L315.012 27.8373ZM320.007 22.8889C322.123 21.732 324.496 21.1457 327.151 21.1457V19.1457C324.19 19.1457 321.481 19.8032 319.048 21.1342L320.007 22.8889ZM327.151 21.1457C329.805 21.1457 332.179 21.732 334.294 22.8889L335.254 21.1342C332.82 19.8032 330.112 19.1457 327.151 19.1457V21.1457ZM334.294 22.8889C336.402 24.0415 338.064 25.6841 339.29 27.8373L341.028 26.8479C339.623 24.3809 337.696 22.4694 335.254 21.1342L334.294 22.8889ZM339.29 27.8373C340.509 29.9789 341.131 32.4522 341.131 35.286H343.131C343.131 32.1489 342.439 29.3267 341.028 26.8479L339.29 27.8373ZM341.131 35.286C341.131 38.115 340.493 40.5847 339.242 42.7246L340.969 43.734C342.419 41.2535 343.131 38.4277 343.131 35.286H341.131ZM339.242 42.7246C337.983 44.8779 336.268 46.5436 334.082 47.7358L335.04 49.4916C337.545 48.1249 339.526 46.2009 340.969 43.734L339.242 42.7246ZM334.087 47.7332C331.933 48.8932 329.538 49.4796 326.884 49.4796V51.4796C329.845 51.4796 332.569 50.822 335.035 49.4941L334.087 47.7332ZM326.884 46.2018C328.615 46.2018 330.239 45.7868 331.739 44.9575L330.772 43.207C329.572 43.8704 328.281 44.2018 326.884 44.2018V46.2018ZM331.73 44.9627C333.296 44.1196 334.546 42.8595 335.483 41.2198L333.746 40.2275C332.977 41.5733 331.988 42.5522 330.782 43.2018L331.73 44.9627ZM335.483 41.2198C336.44 39.5437 336.894 37.551 336.894 35.286H334.894C334.894 37.2858 334.494 38.9182 333.746 40.2275L335.483 41.2198ZM336.894 35.286C336.894 33.0285 336.461 31.0547 335.54 29.4123L333.795 30.3908C334.509 31.6627 334.894 33.2785 334.894 35.286H336.894ZM335.545 29.4212C334.646 27.78 333.433 26.5151 331.899 25.6677L330.932 27.4182C332.1 28.0636 333.054 29.0377 333.79 30.3819L335.545 29.4212ZM331.899 25.6677C330.399 24.8384 328.775 24.4234 327.044 24.4234V26.4234C328.441 26.4234 329.732 26.7548 330.932 27.4182L331.899 25.6677ZM327.044 24.4234C325.314 24.4234 323.69 24.8384 322.189 25.6677L323.156 27.4182C324.357 26.7548 325.647 26.4234 327.044 26.4234V24.4234ZM322.179 25.6733C320.678 26.525 319.502 27.7949 318.641 29.4376L320.413 30.3656C321.116 29.0228 322.037 28.0536 323.166 27.4127L322.179 25.6733ZM318.646 29.4287C317.767 31.0673 317.354 33.035 317.354 35.286H319.354C319.354 33.2721 319.724 31.6501 320.408 30.3744L318.646 29.4287ZM317.354 35.286C317.354 38.6134 318.198 41.3383 320.017 43.3193L321.49 41.9664C320.111 40.4644 319.354 38.2848 319.354 35.286H317.354ZM320.031 43.3348C321.863 45.2457 324.171 46.2018 326.884 46.2018V44.2018C324.693 44.2018 322.914 43.4519 321.475 41.951L320.031 43.3348ZM362.734 10.5497H363.734V9.54971H362.734V10.5497ZM362.734 49.9998V50.9998H363.734V49.9998H362.734ZM356.656 49.9998H355.656V50.9998H356.656V49.9998ZM356.656 10.5497V9.54971H355.656V10.5497H356.656ZM361.734 10.5497V49.9998H363.734V10.5497H361.734ZM362.734 48.9998H356.656V50.9998H362.734V48.9998ZM357.656 49.9998V10.5497H355.656V49.9998H357.656ZM356.656 11.5497H362.734V9.54971H356.656V11.5497ZM368.367 15.6142L369.074 14.9071V14.9071L368.367 15.6142ZM368.367 10.0699L369.074 10.777V10.777L368.367 10.0699ZM373.858 10.0699L373.151 10.777V10.777L373.858 10.0699ZM373.858 15.6142L373.151 14.9071V14.9071L373.858 15.6142ZM374.125 20.6255H375.125V19.6255H374.125V20.6255ZM374.125 49.9998V50.9998H375.125V49.9998H374.125ZM368.047 49.9998H367.047V50.9998H368.047V49.9998ZM368.047 20.6255V19.6255H367.047V20.6255H368.047ZM371.139 15.7338C370.29 15.7338 369.624 15.457 369.074 14.9071L367.66 16.3214C368.603 17.2642 369.785 17.7338 371.139 17.7338V15.7338ZM369.074 14.9071C368.524 14.3573 368.248 13.6916 368.248 12.8421H366.248C366.248 14.1961 366.717 15.3785 367.66 16.3214L369.074 14.9071ZM368.248 12.8421C368.248 11.9926 368.524 11.3269 369.074 10.777L367.66 9.36281C366.717 10.3057 366.248 11.4881 366.248 12.8421H368.248ZM369.074 10.777C369.624 10.2272 370.29 9.95039 371.139 9.95039V7.95039C369.785 7.95039 368.603 8.41995 367.66 9.36281L369.074 10.777ZM371.139 9.95039C371.943 9.95039 372.594 10.2203 373.151 10.777L374.565 9.36281C373.629 8.42679 372.468 7.95039 371.139 7.95039V9.95039ZM373.151 10.777C373.701 11.3269 373.978 11.9926 373.978 12.8421H375.978C375.978 11.4881 375.508 10.3057 374.565 9.36281L373.151 10.777ZM373.978 12.8421C373.978 13.6916 373.701 14.3573 373.151 14.9071L374.565 16.3214C375.508 15.3785 375.978 14.1961 375.978 12.8421H373.978ZM373.151 14.9071C372.594 15.4638 371.943 15.7338 371.139 15.7338V17.7338C372.468 17.7338 373.629 17.2574 374.565 16.3214L373.151 14.9071ZM373.125 20.6255V49.9998H375.125V20.6255H373.125ZM374.125 48.9998H368.047V50.9998H374.125V48.9998ZM369.047 49.9998V20.6255H367.047V49.9998H369.047ZM368.047 21.6255H374.125V19.6255H368.047V21.6255ZM391.753 25.5834V26.5834H392.753V25.5834H391.753ZM386.315 25.5834V24.5834H385.315V25.5834H386.315ZM386.315 49.9998V50.9998H387.315V49.9998H386.315ZM380.185 49.9998H379.185V50.9998H380.185V49.9998ZM380.185 25.5834H381.185V24.5834H380.185V25.5834ZM376.719 25.5834H375.719V26.5834H376.719V25.5834ZM376.719 20.6255V19.6255H375.719V20.6255H376.719ZM380.185 20.6255V21.6255H381.185V20.6255H380.185ZM382.85 11.1894L383.502 11.9476L383.503 11.9466L382.85 11.1894ZM391.327 8.84377H392.327V7.84377H391.327V8.84377ZM391.327 13.9083V14.9083H392.327V13.9083H391.327ZM387.435 14.9745L388.106 15.7161L388.115 15.7075L388.125 15.6987L387.435 14.9745ZM386.315 20.6255H385.315V21.6255H386.315V20.6255ZM391.753 20.6255H392.753V19.6255H391.753V20.6255ZM391.753 24.5834H386.315V26.5834H391.753V24.5834ZM385.315 25.5834V49.9998H387.315V25.5834H385.315ZM386.315 48.9998H380.185V50.9998H386.315V48.9998ZM381.185 49.9998V25.5834H379.185V49.9998H381.185ZM380.185 24.5834H376.719V26.5834H380.185V24.5834ZM377.719 25.5834V20.6255H375.719V25.5834H377.719ZM376.719 21.6255H380.185V19.6255H376.719V21.6255ZM381.185 20.6255V18.5463H379.185V20.6255H381.185ZM381.185 18.5463C381.185 15.3293 382.03 13.214 383.502 11.9476L382.198 10.4313C380.117 12.2213 379.185 15.0107 379.185 18.5463H381.185ZM383.503 11.9466C385.053 10.61 387.592 9.84377 391.327 9.84377V7.84377C387.385 7.84377 384.273 8.6413 382.197 10.4323L383.503 11.9466ZM390.327 8.84377V13.9083H392.327V8.84377H390.327ZM391.327 12.9083C389.407 12.9083 387.778 13.2665 386.745 14.2504L388.125 15.6987C388.584 15.2609 389.55 14.9083 391.327 14.9083V12.9083ZM386.764 14.233C385.701 15.1948 385.315 16.745 385.315 18.5463H387.315C387.315 16.9358 387.676 16.1048 388.106 15.7161L386.764 14.233ZM385.315 18.5463V20.6255H387.315V18.5463H385.315ZM386.315 21.6255H391.753V19.6255H386.315V21.6255ZM390.753 20.6255V25.5834H392.753V20.6255H390.753ZM421.182 37.5783V38.5783H422.035L422.17 37.7363L421.182 37.5783ZM398.738 37.5783V36.5783H397.66L397.741 37.6539L398.738 37.5783ZM401.351 43.2293L400.678 43.9692L401.351 43.2293ZM414.039 41.2568V40.2568H413.417L413.142 40.8142L414.039 41.2568ZM420.596 41.2568L421.546 41.5692L421.978 40.2568H420.596V41.2568ZM415.745 47.9206L416.339 48.7251L416.341 48.7235L415.745 47.9206ZM399.538 48.6137L399.036 49.4785L399.044 49.4832L399.053 49.4878L399.538 48.6137ZM394.314 43.2826L393.433 43.7567L393.438 43.7648L393.442 43.7728L394.314 43.2826ZM394.26 27.3426L393.38 26.8685L393.377 26.8735L394.26 27.3426ZM399.432 22.0115L398.946 21.1374L398.94 21.1407L399.432 22.0115ZM414.519 21.9582L415.005 21.0848L414.519 21.9582ZM419.583 27.0761L418.706 27.5569L418.71 27.5629L419.583 27.0761ZM415.052 32.6737V33.6737H416.068L416.051 32.6579L415.052 32.6737ZM412.653 27.2893L413.306 26.5325L412.653 27.2893ZM401.457 27.2893L402.118 28.0397L402.128 28.0309L401.457 27.2893ZM398.792 32.6737L397.8 32.5497L397.659 33.6737H398.792V32.6737ZM420.396 34.5929C420.396 35.653 420.327 36.5941 420.195 37.4203L422.17 37.7363C422.322 36.7855 422.396 35.7363 422.396 34.5929H420.396ZM421.182 36.5783H398.738V38.5783H421.182V36.5783ZM397.741 37.6539C397.936 40.223 398.903 42.3557 400.678 43.9692L402.023 42.4893C400.671 41.2596 399.896 39.625 399.736 37.5028L397.741 37.6539ZM400.678 43.9692C402.441 45.5716 404.606 46.3617 407.108 46.3617V44.3617C405.062 44.3617 403.388 43.7302 402.023 42.4893L400.678 43.9692ZM407.108 46.3617C408.883 46.3617 410.463 45.9894 411.803 45.1959C413.147 44.3999 414.186 43.2171 414.935 41.6993L413.142 40.8142C412.54 42.0331 411.75 42.9028 410.784 43.4751C409.813 44.0498 408.603 44.3617 407.108 44.3617V46.3617ZM414.039 42.2568H420.596V40.2568H414.039V42.2568ZM419.646 40.9443C418.824 43.4436 417.333 45.4957 415.149 47.1177L416.341 48.7235C418.847 46.8626 420.591 44.4721 421.546 41.5692L419.646 40.9443ZM415.151 47.1162C413.045 48.6713 410.386 49.4796 407.108 49.4796V51.4796C410.726 51.4796 413.824 50.5819 416.339 48.7251L415.151 47.1162ZM407.108 49.4796C404.454 49.4796 402.1 48.8931 400.024 47.7395L399.053 49.4878C401.454 50.8221 404.147 51.4796 407.108 51.4796V49.4796ZM400.04 47.7489C397.995 46.5613 396.379 44.9153 395.185 42.7923L393.442 43.7728C394.807 46.1991 396.674 48.1071 399.036 49.4785L400.04 47.7489ZM395.194 42.8085C394.04 40.6648 393.448 38.1667 393.448 35.286H391.448C391.448 38.4471 392.1 41.2801 393.433 43.7567L395.194 42.8085ZM393.448 35.286C393.448 32.4003 394.024 29.9188 395.143 27.8118L393.377 26.8735C392.08 29.3156 391.448 32.1297 391.448 35.286H393.448ZM395.141 27.8167C396.299 25.6665 397.89 24.0299 399.923 22.8824L398.94 21.1407C396.566 22.481 394.71 24.3985 393.38 26.8685L395.141 27.8167ZM399.917 22.8857C401.99 21.7341 404.378 21.1457 407.108 21.1457V19.1457C404.081 19.1457 401.351 19.8011 398.946 21.1374L399.917 22.8857ZM407.108 21.1457C409.73 21.1457 412.029 21.7157 414.032 22.8317L415.005 21.0848C412.672 19.7841 410.031 19.1457 407.108 19.1457V21.1457ZM414.032 22.8317C416.033 23.9473 417.587 25.5162 418.706 27.5569L420.46 26.5953C419.162 24.229 417.34 22.3859 415.005 21.0848L414.032 22.8317ZM418.71 27.5629C419.824 29.5616 420.396 31.895 420.396 34.5929H422.396C422.396 31.6044 421.759 28.9265 420.457 26.5892L418.71 27.5629ZM416.051 32.6579C416.012 30.1606 415.105 28.0862 413.306 26.5325L411.999 28.0461C413.328 29.1935 414.02 30.7087 414.052 32.6896L416.051 32.6579ZM413.306 26.5325C411.539 25.0064 409.362 24.2635 406.842 24.2635V26.2635C408.942 26.2635 410.639 26.8712 411.999 28.0461L413.306 26.5325ZM406.842 24.2635C404.508 24.2635 402.471 25.0234 400.786 26.5478L402.128 28.0309C403.429 26.8541 404.981 26.2635 406.842 26.2635V24.2635ZM400.796 26.539C399.093 28.0397 398.109 30.0721 397.8 32.5497L399.784 32.7978C400.043 30.7261 400.836 29.169 402.118 28.0397L400.796 26.539ZM398.792 33.6737H415.052V31.6737H398.792V33.6737Z" fill="#EAEBF0"/>
<path d="M507.891 24.997C508.922 23.5753 510.326 22.4203 512.103 21.5318C513.915 20.6077 515.924 20.1457 518.127 20.1457C520.721 20.1457 523.067 20.7676 525.164 22.0115C527.261 23.2555 528.914 25.0325 530.122 27.3426C531.33 29.6172 531.935 32.2295 531.935 35.1793C531.935 38.1292 531.33 40.777 530.122 43.1227C528.914 45.4328 527.243 47.2454 525.111 48.5604C523.014 49.8398 520.686 50.4796 518.127 50.4796C515.852 50.4796 513.827 50.0353 512.05 49.1468C510.308 48.2583 508.922 47.121 507.891 45.7349V49.9998H501.814V10.5497H507.891V24.997ZM525.75 35.1793C525.75 33.1535 525.324 31.412 524.471 29.9549C523.654 28.4622 522.552 27.3426 521.166 26.5963C519.815 25.8144 518.358 25.4234 516.794 25.4234C515.266 25.4234 513.809 25.8144 512.423 26.5963C511.072 27.3782 509.97 28.5155 509.117 30.0082C508.3 31.5009 507.891 33.2601 507.891 35.286C507.891 37.3118 508.3 39.0888 509.117 40.617C509.97 42.1097 511.072 43.247 512.423 44.0289C513.809 44.8108 515.266 45.2018 516.794 45.2018C518.358 45.2018 519.815 44.8108 521.166 44.0289C522.552 43.2115 523.654 42.0387 524.471 40.5104C525.324 38.9822 525.75 37.2051 525.75 35.1793ZM561.881 20.6255V49.9998H555.804V46.5345C554.844 47.7429 553.582 48.7025 552.019 49.4133C550.49 50.0886 548.855 50.4262 547.114 50.4262C544.804 50.4262 542.725 49.9464 540.877 48.9868C539.064 48.0273 537.625 46.6056 536.558 44.722C535.528 42.8383 535.012 40.5637 535.012 37.8982V20.6255H541.037V36.9919C541.037 39.6219 541.694 41.6477 543.009 43.0693C544.324 44.4554 546.119 45.1485 548.393 45.1485C550.668 45.1485 552.463 44.4554 553.778 43.0693C555.128 41.6477 555.804 39.6219 555.804 36.9919V20.6255H561.881ZM573.312 24.8903C574.2 23.3976 575.373 22.2426 576.83 21.4251C578.323 20.5722 580.082 20.1457 582.108 20.1457V26.4364H580.562C578.181 26.4364 576.368 27.0405 575.124 28.2489C573.916 29.4573 573.312 31.5542 573.312 34.5396V49.9998H567.234V20.6255H573.312V24.8903ZM599.849 20.1457C602.159 20.1457 604.221 20.6255 606.033 21.5851C607.881 22.5447 609.321 23.9663 610.351 25.8499C611.382 27.7336 611.898 30.0082 611.898 32.6737V49.9998H605.873V33.58C605.873 30.95 605.216 28.942 603.901 27.5559C602.586 26.1343 600.791 25.4234 598.516 25.4234C596.242 25.4234 594.429 26.1343 593.079 27.5559C591.764 28.942 591.106 30.95 591.106 33.58V49.9998H585.029V20.6255H591.106V23.9841C592.101 22.7757 593.363 21.8338 594.891 21.1586C596.455 20.4833 598.108 20.1457 599.849 20.1457ZM635.257 25.5834V41.8432C635.257 42.945 635.506 43.7446 636.004 44.2422C636.537 44.7042 637.425 44.9352 638.669 44.9352H642.401V49.9998H637.603C634.866 49.9998 632.769 49.36 631.312 48.0806C629.855 46.8011 629.126 44.722 629.126 41.8432V25.5834H625.661V20.6255H629.126V13.3219H635.257V20.6255H642.401V25.5834H635.257ZM658.078 50.4796C655.306 50.4796 652.8 49.8576 650.561 48.6137C648.322 47.3342 646.563 45.5572 645.283 43.2826C644.004 40.9724 643.364 38.3069 643.364 35.286C643.364 32.3005 644.022 29.6528 645.337 27.3426C646.652 25.0325 648.447 23.2555 650.721 22.0115C652.996 20.7676 655.537 20.1457 658.345 20.1457C661.152 20.1457 663.693 20.7676 665.968 22.0115C668.243 23.2555 670.037 25.0325 671.352 27.3426C672.667 29.6528 673.325 32.3005 673.325 35.286C673.325 38.2714 672.65 40.9191 671.299 43.2293C669.949 45.5394 668.1 47.3342 665.755 48.6137C663.445 49.8576 660.886 50.4796 658.078 50.4796ZM658.078 45.2018C659.642 45.2018 661.099 44.8286 662.45 44.0822C663.836 43.3359 664.955 42.2164 665.808 40.7237C666.661 39.231 667.088 37.4184 667.088 35.286C667.088 33.1535 666.679 31.3587 665.861 29.9016C665.044 28.4089 663.96 27.2893 662.609 26.543C661.259 25.7966 659.802 25.4234 658.238 25.4234C656.674 25.4234 655.217 25.7966 653.866 26.543C652.551 27.2893 651.503 28.4089 650.721 29.9016C649.939 31.3587 649.548 33.1535 649.548 35.286C649.548 38.4491 650.348 40.9014 651.947 42.6429C653.582 44.3488 655.626 45.2018 658.078 45.2018ZM693.928 10.5497V49.9998H687.85V10.5497H693.928ZM702.333 16.7338C701.231 16.7338 700.307 16.3606 699.561 15.6142C698.815 14.8679 698.441 13.9438 698.441 12.8421C698.441 11.7403 698.815 10.8163 699.561 10.0699C700.307 9.32356 701.231 8.95039 702.333 8.95039C703.399 8.95039 704.306 9.32356 705.052 10.0699C705.798 10.8163 706.172 11.7403 706.172 12.8421C706.172 13.9438 705.798 14.8679 705.052 15.6142C704.306 16.3606 703.399 16.7338 702.333 16.7338ZM705.319 20.6255V49.9998H699.241V20.6255H705.319ZM722.947 25.5834H717.509V49.9998H711.379V25.5834H707.913V20.6255H711.379V18.5463C711.379 15.17 712.267 12.7177 714.044 11.1894C715.857 9.62566 718.682 8.84377 722.52 8.84377V13.9083C720.672 13.9083 719.375 14.2637 718.629 14.9745C717.882 15.6498 717.509 16.8404 717.509 18.5463V20.6255H722.947V25.5834ZM752.589 34.5929C752.589 35.6947 752.518 36.6898 752.376 37.5783H729.932C730.11 39.924 730.981 41.8077 732.545 43.2293C734.108 44.6509 736.028 45.3617 738.302 45.3617C741.572 45.3617 743.882 43.9934 745.233 41.2568H751.79C750.901 43.9579 749.284 46.1791 746.939 47.9206C744.628 49.6266 741.75 50.4796 738.302 50.4796C735.494 50.4796 732.971 49.8576 730.732 48.6137C728.528 47.3342 726.787 45.5572 725.508 43.2826C724.264 40.9724 723.642 38.3069 723.642 35.286C723.642 32.265 724.246 29.6172 725.454 27.3426C726.698 25.0325 728.422 23.2555 730.625 22.0115C732.864 20.7676 735.423 20.1457 738.302 20.1457C741.074 20.1457 743.544 20.7499 745.712 21.9582C747.88 23.1666 749.569 24.8726 750.777 27.0761C751.985 29.2441 752.589 31.7497 752.589 34.5929ZM746.245 32.6737C746.21 30.4347 745.41 28.6399 743.846 27.2893C742.283 25.9388 740.346 25.2635 738.036 25.2635C735.939 25.2635 734.144 25.9388 732.651 27.2893C731.158 28.6043 730.27 30.3991 729.986 32.6737H746.245Z" fill="#EAEBF0"/>
<path d="M-154.496 24.997C-153.466 23.5753 -152.062 22.4203 -150.285 21.5318C-148.472 20.6077 -146.464 20.1457 -144.261 20.1457C-141.666 20.1457 -139.32 20.7676 -137.224 22.0115C-135.127 23.2555 -133.474 25.0325 -132.266 27.3426C-131.057 29.6172 -130.453 32.2295 -130.453 35.1793C-130.453 38.1292 -131.057 40.777 -132.266 43.1227C-133.474 45.4328 -135.144 47.2454 -137.277 48.5604C-139.374 49.8398 -141.702 50.4796 -144.261 50.4796C-146.535 50.4796 -148.561 50.0353 -150.338 49.1468C-152.079 48.2583 -153.466 47.121 -154.496 45.7349V49.9998H-160.574V10.5497H-154.496V24.997ZM-136.637 35.1793C-136.637 33.1535 -137.064 31.412 -137.917 29.9549C-138.734 28.4622 -139.836 27.3426 -141.222 26.5963C-142.572 25.8144 -144.03 25.4234 -145.593 25.4234C-147.122 25.4234 -148.579 25.8144 -149.965 26.5963C-151.315 27.3782 -152.417 28.5155 -153.27 30.0082C-154.088 31.5009 -154.496 33.2601 -154.496 35.286C-154.496 37.3118 -154.088 39.0888 -153.27 40.617C-152.417 42.1097 -151.315 43.247 -149.965 44.0289C-148.579 44.8108 -147.122 45.2018 -145.593 45.2018C-144.03 45.2018 -142.572 44.8108 -141.222 44.0289C-139.836 43.2115 -138.734 42.0387 -137.917 40.5104C-137.064 38.9822 -136.637 37.2051 -136.637 35.1793ZM-100.506 20.6255V49.9998H-106.584V46.5345C-107.544 47.7429 -108.805 48.7025 -110.369 49.4133C-111.897 50.0886 -113.532 50.4262 -115.274 50.4262C-117.584 50.4262 -119.663 49.9464 -121.511 48.9868C-123.324 48.0273 -124.763 46.6056 -125.829 44.722C-126.86 42.8383 -127.375 40.5637 -127.375 37.8982V20.6255H-121.351V36.9919C-121.351 39.6219 -120.694 41.6477 -119.379 43.0693C-118.064 44.4554 -116.269 45.1485 -113.994 45.1485C-111.72 45.1485 -109.925 44.4554 -108.61 43.0693C-107.259 41.6477 -106.584 39.6219 -106.584 36.9919V20.6255H-100.506ZM-89.0759 24.8903C-88.1874 23.3976 -87.0145 22.2426 -85.5574 21.4251C-84.0647 20.5722 -82.3054 20.1457 -80.2796 20.1457V26.4364H-81.8256C-84.2068 26.4364 -86.0194 27.0405 -87.2633 28.2489C-88.4717 29.4573 -89.0759 31.5542 -89.0759 34.5396V49.9998H-95.1533V20.6255H-89.0759V24.8903ZM-62.5383 20.1457C-60.2282 20.1457 -58.1668 20.6255 -56.3543 21.5851C-54.5062 22.5447 -53.0668 23.9663 -52.0361 25.8499C-51.0054 27.7336 -50.4901 30.0082 -50.4901 32.6737V49.9998H-56.5142V33.58C-56.5142 30.95 -57.1717 28.942 -58.4867 27.5559C-59.8017 26.1343 -61.5965 25.4234 -63.8711 25.4234C-66.1457 25.4234 -67.9583 26.1343 -69.3088 27.5559C-70.6238 28.942 -71.2813 30.95 -71.2813 33.58V49.9998H-77.3587V20.6255H-71.2813V23.9841C-70.2862 22.7757 -69.0245 21.8338 -67.4962 21.1586C-65.9325 20.4833 -64.2798 20.1457 -62.5383 20.1457ZM-27.1303 25.5834V41.8432C-27.1303 42.945 -26.8815 43.7446 -26.384 44.2422C-25.8509 44.7042 -24.9623 44.9352 -23.7184 44.9352H-19.9867V49.9998H-24.7846C-27.5213 49.9998 -29.6182 49.36 -31.0753 48.0806C-32.5325 46.8011 -33.2611 44.722 -33.2611 41.8432V25.5834H-36.7263V20.6255H-33.2611V13.3219H-27.1303V20.6255H-19.9867V25.5834H-27.1303ZM-4.30952 50.4796C-7.08169 50.4796 -9.5873 49.8576 -11.8264 48.6137C-14.0654 47.3342 -15.8247 45.5572 -17.1041 43.2826C-18.3836 40.9724 -19.0233 38.3069 -19.0233 35.286C-19.0233 32.3005 -18.3658 29.6528 -17.0508 27.3426C-15.7358 25.0325 -13.941 23.2555 -11.6664 22.0115C-9.39182 20.7676 -6.85067 20.1457 -4.04297 20.1457C-1.23526 20.1457 1.30589 20.7676 3.58049 22.0115C5.85509 23.2555 7.64988 25.0325 8.96489 27.3426C10.2799 29.6528 10.9374 32.3005 10.9374 35.286C10.9374 38.2714 10.2621 40.9191 8.91158 43.2293C7.56103 45.5394 5.71292 47.3342 3.36725 48.6137C1.05711 49.8576 -1.50181 50.4796 -4.30952 50.4796ZM-4.30952 45.2018C-2.74573 45.2018 -1.28857 44.8286 0.0619716 44.0822C1.44805 43.3359 2.56758 42.2164 3.42056 40.7237C4.27353 39.231 4.70002 37.4184 4.70002 35.286C4.70002 33.1535 4.2913 31.3587 3.47387 29.9016C2.65643 28.4089 1.57245 27.2893 0.221904 26.543C-1.12864 25.7966 -2.5858 25.4234 -4.14959 25.4234C-5.71337 25.4234 -7.17054 25.7966 -8.52108 26.543C-9.83608 27.2893 -10.8845 28.4089 -11.6664 29.9016C-12.4483 31.3587 -12.8393 33.1535 -12.8393 35.286C-12.8393 38.4491 -12.0396 40.9014 -10.4403 42.6429C-8.8054 44.3488 -6.76182 45.2018 -4.30952 45.2018ZM31.5399 10.5497V49.9998H25.4625V10.5497H31.5399ZM39.9456 16.7338C38.8438 16.7338 37.9198 16.3606 37.1734 15.6142C36.4271 14.8679 36.0539 13.9438 36.0539 12.8421C36.0539 11.7403 36.4271 10.8163 37.1734 10.0699C37.9198 9.32356 38.8438 8.95039 39.9456 8.95039C41.0118 8.95039 41.9181 9.32356 42.6644 10.0699C43.4108 10.8163 43.784 11.7403 43.784 12.8421C43.784 13.9438 43.4108 14.8679 42.6644 15.6142C41.9181 16.3606 41.0118 16.7338 39.9456 16.7338ZM42.931 20.6255V49.9998H36.8535V20.6255H42.931ZM60.5594 25.5834H55.1217V49.9998H48.9909V25.5834H45.5257V20.6255H48.9909V18.5463C48.9909 15.17 49.8794 12.7177 51.6565 11.1894C53.469 9.62566 56.2945 8.84377 60.1329 8.84377V13.9083C58.2848 13.9083 56.9876 14.2637 56.2412 14.9745C55.4949 15.6498 55.1217 16.8404 55.1217 18.5463V20.6255H60.5594V25.5834ZM90.2019 34.5929C90.2019 35.6947 90.1308 36.6898 89.9886 37.5783H67.5448C67.7225 39.924 68.5932 41.8077 70.157 43.2293C71.7208 44.6509 73.64 45.3617 75.9146 45.3617C79.1843 45.3617 81.4944 43.9934 82.845 41.2568H89.4022C88.5137 43.9579 86.8966 46.1791 84.5509 47.9206C82.2408 49.6266 79.362 50.4796 75.9146 50.4796C73.1069 50.4796 70.5835 49.8576 68.3444 48.6137C66.1409 47.3342 64.3994 45.5572 63.12 43.2826C61.876 40.9724 61.2541 38.3069 61.2541 35.286C61.2541 32.265 61.8583 29.6172 63.0667 27.3426C64.3106 25.0325 66.0343 23.2555 68.2378 22.0115C70.4769 20.7676 73.0358 20.1457 75.9146 20.1457C78.6867 20.1457 81.1568 20.7499 83.3248 21.9582C85.4928 23.1666 87.1809 24.8726 88.3893 27.0761C89.5977 29.2441 90.2019 31.7497 90.2019 34.5929ZM83.8579 32.6737C83.8224 30.4347 83.0227 28.6399 81.4589 27.2893C79.8951 25.9388 77.9582 25.2635 75.648 25.2635C73.5511 25.2635 71.7563 25.9388 70.2636 27.2893C68.7709 28.6043 67.8824 30.3991 67.5981 32.6737H83.8579Z" fill="#EAEBF0"/>
<path d="M839.085 24.997H838.085V28.0799L839.895 25.5839L839.085 24.997ZM843.297 21.5317L843.744 22.4262L843.751 22.4227L843.297 21.5317ZM856.358 22.0115L856.868 21.1515V21.1515L856.358 22.0115ZM861.316 27.3426L860.43 27.8061L860.433 27.8118L861.316 27.3426ZM861.316 43.1227L862.202 43.5862L862.205 43.5806L861.316 43.1227ZM856.304 48.5604L856.825 49.414L856.829 49.4115L856.304 48.5604ZM843.243 49.1468L842.789 50.0376L842.796 50.0412L843.243 49.1468ZM839.085 45.7349L839.888 45.1382L838.085 42.7142V45.7349H839.085ZM839.085 49.9998V50.9998H840.085V49.9998H839.085ZM833.008 49.9998H832.008V50.9998H833.008V49.9998ZM833.008 10.5497V9.54971H832.008V10.5497H833.008ZM839.085 10.5497H840.085V9.54971H839.085V10.5497ZM855.665 29.9549L854.788 30.4352L854.795 30.4477L854.802 30.46L855.665 29.9549ZM852.359 26.5963L851.858 27.4617L851.872 27.4694L851.885 27.4768L852.359 26.5963ZM843.616 26.5963L843.125 25.7253L843.115 25.7309L843.616 26.5963ZM840.311 30.0082L839.443 29.512L839.438 29.5199L839.434 29.5279L840.311 30.0082ZM840.311 40.617L839.429 41.0887L839.436 41.101L839.443 41.1132L840.311 40.617ZM843.616 44.0289L843.115 44.8944L843.125 44.8999L843.616 44.0289ZM852.359 44.0289L852.861 44.8944L852.867 44.8903L852.359 44.0289ZM855.665 40.5104L854.792 40.0231L854.787 40.0309L854.783 40.0388L855.665 40.5104ZM839.895 25.5839C840.819 24.3087 842.091 23.2524 843.744 22.4262L842.849 20.6373C840.948 21.5882 839.412 22.842 838.275 24.41L839.895 25.5839ZM843.751 22.4227C845.411 21.5762 847.262 21.1457 849.321 21.1457V19.1457C846.973 19.1457 844.807 19.6392 842.842 20.6408L843.751 22.4227ZM849.321 21.1457C851.748 21.1457 853.915 21.7252 855.848 22.8716L856.868 21.1515C854.607 19.8101 852.083 19.1457 849.321 19.1457V21.1457ZM855.848 22.8716C857.774 24.0142 859.301 25.6486 860.43 27.8061L862.202 26.8791C860.914 24.4164 859.136 22.4968 856.868 21.1515L855.848 22.8716ZM860.433 27.8118C861.554 29.9221 862.128 32.3691 862.128 35.1793H864.128C864.128 32.0898 863.494 29.3123 862.199 26.8735L860.433 27.8118ZM862.128 35.1793C862.128 37.9889 861.554 40.4767 860.427 42.6647L862.205 43.5806C863.494 41.0773 864.128 38.2695 864.128 35.1793H862.128ZM860.43 42.6592C859.301 44.8167 857.753 46.4925 855.78 47.7092L856.829 49.4115C859.121 47.9982 860.914 46.0489 862.202 43.5862L860.43 42.6592ZM855.784 47.7067C853.85 48.8864 851.704 49.4796 849.321 49.4796V51.4796C852.055 51.4796 854.565 50.7933 856.825 49.414L855.784 47.7067ZM849.321 49.4796C847.179 49.4796 845.31 49.062 843.691 48.2524L842.796 50.0412C844.731 51.0086 846.913 51.4796 849.321 51.4796V49.4796ZM843.698 48.256C842.075 47.4282 840.815 46.3854 839.888 45.1382L838.283 46.3316C839.417 47.8566 840.928 49.0884 842.789 50.0375L843.698 48.256ZM838.085 45.7349V49.9998H840.085V45.7349H838.085ZM839.085 48.9998H833.008V50.9998H839.085V48.9998ZM834.008 49.9998V10.5497H832.008V49.9998H834.008ZM833.008 11.5497H839.085V9.54971H833.008V11.5497ZM838.085 10.5497V24.997H840.085V10.5497H838.085ZM857.944 35.1793C857.944 33.0115 857.487 31.0881 856.528 29.4497L854.802 30.46C855.549 31.7359 855.944 33.2955 855.944 35.1793H857.944ZM856.542 29.4746C855.639 27.8267 854.404 26.5613 852.834 25.7158L851.885 27.4768C853.087 28.124 854.055 29.0977 854.788 30.4352L856.542 29.4746ZM852.861 25.7309C851.357 24.8606 849.727 24.4234 847.988 24.4234V26.4234C849.376 26.4234 850.66 26.7682 851.858 27.4617L852.861 25.7309ZM847.988 24.4234C846.28 24.4234 844.655 24.8625 843.125 25.7253L844.108 27.4673C845.35 26.7663 846.639 26.4234 847.988 26.4234V24.4234ZM843.115 25.7309C841.597 26.6101 840.374 27.882 839.443 29.512L841.179 30.5043C841.954 29.149 842.935 28.1463 844.118 27.4617L843.115 25.7309ZM839.434 29.5279C838.522 31.1935 838.085 33.1242 838.085 35.286H840.085C840.085 33.3961 840.466 31.8083 841.188 30.4885L839.434 29.5279ZM838.085 35.286C838.085 37.4485 838.522 39.3926 839.429 41.0887L841.193 40.1454C840.465 38.785 840.085 37.1751 840.085 35.286H838.085ZM839.443 41.1132C840.374 42.7432 841.597 44.0152 843.115 44.8944L844.118 43.1635C842.935 42.4789 841.954 41.4763 841.179 40.1209L839.443 41.1132ZM843.125 44.8999C844.655 45.7628 846.28 46.2018 847.988 46.2018V44.2018C846.639 44.2018 845.35 43.8589 844.108 43.158L843.125 44.8999ZM847.988 46.2018C849.727 46.2018 851.357 45.7646 852.861 44.8944L851.858 43.1635C850.66 43.8571 849.376 44.2018 847.988 44.2018V46.2018ZM852.867 44.8903C854.424 43.9725 855.65 42.6591 856.547 40.9821L854.783 40.0388C854.045 41.4182 853.067 42.4505 851.851 43.1676L852.867 44.8903ZM856.538 40.9978C857.486 39.2986 857.944 37.3486 857.944 35.1793H855.944C855.944 37.0616 855.549 38.6658 854.792 40.0231L856.538 40.9978ZM893.075 20.6255H894.075V19.6255H893.075V20.6255ZM893.075 49.9998V50.9998H894.075V49.9998H893.075ZM886.997 49.9998H885.997V50.9998H886.997V49.9998ZM886.997 46.5345H887.997V43.6673L886.214 45.9127L886.997 46.5345ZM883.212 49.4133L883.616 50.3281L883.626 50.3237L883.212 49.4133ZM872.07 48.9869L871.602 49.8707L871.61 49.8743L872.07 48.9869ZM867.752 44.722L866.875 45.202L866.878 45.2083L866.882 45.2146L867.752 44.722ZM866.206 20.6255V19.6255H865.206V20.6255H866.206ZM872.23 20.6255H873.23V19.6255H872.23V20.6255ZM874.203 43.0693L873.469 43.7484L873.477 43.7576L874.203 43.0693ZM884.972 43.0693L884.247 42.3806L884.246 42.3811L884.972 43.0693ZM886.997 20.6255V19.6255H885.997V20.6255H886.997ZM892.075 20.6255V49.9998H894.075V20.6255H892.075ZM893.075 48.9998H886.997V50.9998H893.075V48.9998ZM887.997 49.9998V46.5345H885.997V49.9998H887.997ZM886.214 45.9127C885.364 46.9835 884.235 47.8502 882.799 48.503L883.626 50.3237C885.318 49.5549 886.712 48.5024 887.78 47.1564L886.214 45.9127ZM882.808 48.4986C881.413 49.1153 879.916 49.4262 878.308 49.4262V51.4262C880.182 51.4262 881.956 51.0619 883.616 50.328L882.808 48.4986ZM878.308 49.4262C876.14 49.4262 874.222 48.9772 872.531 48.0994L871.61 49.8743C873.615 50.9157 875.855 51.4262 878.308 51.4262V49.4262ZM872.538 48.1031C870.904 47.2378 869.6 45.9566 868.622 44.2294L866.882 45.2146C868.037 47.2547 869.612 48.8167 871.602 49.8706L872.538 48.1031ZM868.629 44.242C867.696 42.5369 867.206 40.4359 867.206 37.8982H865.206C865.206 40.6916 865.746 43.1397 866.875 45.202L868.629 44.242ZM867.206 37.8982V20.6255H865.206V37.8982H867.206ZM866.206 21.6255H872.23V19.6255H866.206V21.6255ZM871.23 20.6255V36.9919H873.23V20.6255H871.23ZM871.23 36.9919C871.23 39.7822 871.929 42.0843 873.469 43.7484L874.937 42.3903C873.846 41.2111 873.23 39.4616 873.23 36.9919H871.23ZM873.477 43.7576C875.017 45.3803 877.095 46.1485 879.587 46.1485V44.1485C877.53 44.1485 876.019 43.5305 874.928 42.3811L873.477 43.7576ZM879.587 46.1485C882.08 46.1485 884.158 45.3803 885.697 43.7576L884.246 42.3811C883.156 43.5305 881.644 44.1485 879.587 44.1485V46.1485ZM885.697 43.7581C887.277 42.0946 887.997 39.7888 887.997 36.9919H885.997C885.997 39.455 885.367 41.2009 884.247 42.3806L885.697 43.7581ZM887.997 36.9919V20.6255H885.997V36.9919H887.997ZM886.997 21.6255H893.075V19.6255H886.997V21.6255ZM904.505 24.8903H903.505V28.5254L905.365 25.4018L904.505 24.8903ZM908.024 21.4251L908.513 22.2973L908.52 22.2934L908.024 21.4251ZM913.302 20.1457H914.302V19.1457H913.302V20.1457ZM913.302 26.4364V27.4364H914.302V26.4364H913.302ZM906.318 28.2489L905.621 27.5316L905.616 27.5367L905.611 27.5418L906.318 28.2489ZM904.505 49.9998V50.9998H905.505V49.9998H904.505ZM898.428 49.9998H897.428V50.9998H898.428V49.9998ZM898.428 20.6255V19.6255H897.428V20.6255H898.428ZM904.505 20.6255H905.505V19.6255H904.505V20.6255ZM905.365 25.4018C906.167 24.0534 907.215 23.0255 908.513 22.2973L907.535 20.553C905.918 21.4596 904.621 22.7418 903.646 24.3789L905.365 25.4018ZM908.52 22.2934C909.837 21.541 911.419 21.1457 913.302 21.1457V19.1457C911.133 19.1457 909.197 19.6033 907.528 20.5569L908.52 22.2934ZM912.302 20.1457V26.4364H914.302V20.1457H912.302ZM913.302 25.4364H911.756V27.4364H913.302V25.4364ZM911.756 25.4364C909.213 25.4364 907.112 26.0831 905.621 27.5316L907.015 28.9662C908.012 27.9979 909.536 27.4364 911.756 27.4364V25.4364ZM905.611 27.5418C904.116 29.0365 903.505 31.4724 903.505 34.5396H905.505C905.505 31.636 906.103 29.8781 907.025 28.956L905.611 27.5418ZM903.505 34.5396V49.9998H905.505V34.5396H903.505ZM904.505 48.9998H898.428V50.9998H904.505V48.9998ZM899.428 49.9998V20.6255H897.428V49.9998H899.428ZM898.428 21.6255H904.505V19.6255H898.428V21.6255ZM903.505 20.6255V24.8903H905.505V20.6255H903.505ZM937.227 21.5851L936.759 22.4689L936.766 22.4726L937.227 21.5851ZM941.545 25.8499L940.668 26.3299V26.3299L941.545 25.8499ZM943.091 49.9998V50.9998H944.091V49.9998H943.091ZM937.067 49.9998H936.067V50.9998H937.067V49.9998ZM935.095 27.5559L934.36 28.235L934.369 28.2441L935.095 27.5559ZM924.272 27.5559L923.547 26.8671L923.547 26.8676L924.272 27.5559ZM922.3 49.9998V50.9998H923.3V49.9998H922.3ZM916.223 49.9998H915.223V50.9998H916.223V49.9998ZM916.223 20.6255V19.6255H915.223V20.6255H916.223ZM922.3 20.6255H923.3V19.6255H922.3V20.6255ZM922.3 23.9841H921.3V26.7714L923.072 24.6198L922.3 23.9841ZM926.085 21.1586L925.689 20.2405L925.681 20.2439L926.085 21.1586ZM931.043 21.1457C933.211 21.1457 935.108 21.5948 936.759 22.4688L937.695 20.7013C935.721 19.6562 933.495 19.1457 931.043 19.1457V21.1457ZM936.766 22.4726C938.432 23.3377 939.729 24.6147 940.668 26.3299L942.422 25.3699C941.3 23.3179 939.718 21.7516 937.688 20.6976L936.766 22.4726ZM940.668 26.3299C941.601 28.035 942.091 30.136 942.091 32.6737H944.091C944.091 29.8803 943.551 27.4322 942.422 25.3699L940.668 26.3299ZM942.091 32.6737V49.9998H944.091V32.6737H942.091ZM943.091 48.9998H937.067V50.9998H943.091V48.9998ZM938.067 49.9998V33.58H936.067V49.9998H938.067ZM938.067 33.58C938.067 30.7916 937.369 28.5 935.82 26.8676L934.369 28.2441C935.45 29.3839 936.067 31.1084 936.067 33.58H938.067ZM935.829 26.8768C934.291 25.2146 932.21 24.4234 929.71 24.4234V26.4234C931.759 26.4234 933.268 27.0539 934.36 28.2349L935.829 26.8768ZM929.71 24.4234C927.209 24.4234 925.117 25.2146 923.547 26.8671L924.997 28.2446C926.129 27.0539 927.662 26.4234 929.71 26.4234V24.4234ZM923.547 26.8676C921.998 28.5 921.3 30.7916 921.3 33.58H923.3C923.3 31.1084 923.917 29.3839 924.998 28.2441L923.547 26.8676ZM921.3 33.58V49.9998H923.3V33.58H921.3ZM922.3 48.9998H916.223V50.9998H922.3V48.9998ZM917.223 49.9998V20.6255H915.223V49.9998H917.223ZM916.223 21.6255H922.3V19.6255H916.223V21.6255ZM921.3 20.6255V23.9841H923.3V20.6255H921.3ZM923.072 24.6198C923.961 23.5398 925.094 22.6898 926.489 22.0733L925.681 20.2439C924.02 20.9779 922.629 22.0115 921.528 23.3483L923.072 24.6198ZM926.481 22.0766C927.917 21.4566 929.435 21.1457 931.043 21.1457V19.1457C929.168 19.1457 927.38 19.51 925.689 20.2405L926.481 22.0766ZM966.451 25.5834V24.5834H965.451V25.5834H966.451ZM967.197 44.2422L966.49 44.9493L966.515 44.9745L966.542 44.9979L967.197 44.2422ZM973.595 44.9352H974.595V43.9352H973.595V44.9352ZM973.595 49.9998V50.9998H974.595V49.9998H973.595ZM962.506 48.0806L961.846 48.832L962.506 48.0806ZM960.32 25.5834H961.32V24.5834H960.32V25.5834ZM956.855 25.5834H955.855V26.5834H956.855V25.5834ZM956.855 20.6255V19.6255H955.855V20.6255H956.855ZM960.32 20.6255V21.6255H961.32V20.6255H960.32ZM960.32 13.3219V12.3219H959.32V13.3219H960.32ZM966.451 13.3219H967.451V12.3219H966.451V13.3219ZM966.451 20.6255H965.451V21.6255H966.451V20.6255ZM973.595 20.6255H974.595V19.6255H973.595V20.6255ZM973.595 25.5834V26.5834H974.595V25.5834H973.595ZM965.451 25.5834V41.8432H967.451V25.5834H965.451ZM965.451 41.8432C965.451 43.0645 965.723 44.1816 966.49 44.9493L967.904 43.5351C967.677 43.3076 967.451 42.8254 967.451 41.8432H965.451ZM966.542 44.9979C967.352 45.6998 968.544 45.9352 969.863 45.9352V43.9352C968.694 43.9352 968.109 43.7086 967.852 43.4865L966.542 44.9979ZM969.863 45.9352H973.595V43.9352H969.863V45.9352ZM972.595 44.9352V49.9998H974.595V44.9352H972.595ZM973.595 48.9998H968.797V50.9998H973.595V48.9998ZM968.797 48.9998C966.204 48.9998 964.378 48.3932 963.166 47.3291L961.846 48.832C963.549 50.3268 965.916 50.9998 968.797 50.9998V48.9998ZM963.166 47.3291C962.012 46.3162 961.32 44.5755 961.32 41.8432H959.32C959.32 44.8685 960.085 47.286 961.846 48.832L963.166 47.3291ZM961.32 41.8432V25.5834H959.32V41.8432H961.32ZM960.32 24.5834H956.855V26.5834H960.32V24.5834ZM957.855 25.5834V20.6255H955.855V25.5834H957.855ZM956.855 21.6255H960.32V19.6255H956.855V21.6255ZM961.32 20.6255V13.3219H959.32V20.6255H961.32ZM960.32 14.3219H966.451V12.3219H960.32V14.3219ZM965.451 13.3219V20.6255H967.451V13.3219H965.451ZM966.451 21.6255H973.595V19.6255H966.451V21.6255ZM972.595 20.6255V25.5834H974.595V20.6255H972.595ZM973.595 24.5834H966.451V26.5834H973.595V24.5834ZM981.755 48.6137L981.259 49.482L981.269 49.4878L981.755 48.6137ZM976.477 43.2826L975.602 43.7671L975.606 43.7728L976.477 43.2826ZM981.915 22.0115L981.435 21.1342L981.915 22.0115ZM997.162 22.0115L997.642 21.1342L997.162 22.0115ZM1002.49 43.2293L1001.63 42.7246L1002.49 43.2293ZM996.949 48.6137L997.423 49.4942L997.427 49.4916L996.949 48.6137ZM993.643 44.0822L993.169 43.2017L993.16 43.207L993.643 44.0822ZM997.002 40.7237L996.134 40.2275V40.2275L997.002 40.7237ZM997.055 29.9016L996.178 30.3819L996.183 30.3908L997.055 29.9016ZM985.06 26.543L984.577 25.6677L984.567 25.6733L985.06 26.543ZM981.915 29.9016L982.796 30.3744L982.801 30.3656L981.915 29.9016ZM983.141 42.6429L982.404 43.3193L982.412 43.3271L982.419 43.3348L983.141 42.6429ZM989.272 49.4796C986.655 49.4796 984.319 48.8942 982.241 47.7395L981.269 49.4878C983.669 50.821 986.344 51.4796 989.272 51.4796V49.4796ZM982.251 47.7454C980.171 46.5568 978.541 44.9113 977.349 42.7923L975.606 43.7728C976.973 46.2031 978.861 48.1116 981.259 49.4819L982.251 47.7454ZM977.352 42.7981C976.166 40.6564 975.558 38.1621 975.558 35.286H973.558C973.558 38.4517 974.23 41.2885 975.602 43.7671L977.352 42.7981ZM975.558 35.286C975.558 32.4522 976.181 29.9789 977.4 27.8373L975.661 26.8479C974.25 29.3267 973.558 32.1489 973.558 35.286H975.558ZM977.4 27.8373C978.625 25.6841 980.287 24.0415 982.395 22.8889L981.435 21.1342C978.993 22.4694 977.066 24.3809 975.661 26.8479L977.4 27.8373ZM982.395 22.8889C984.51 21.732 986.884 21.1457 989.538 21.1457V19.1457C986.577 19.1457 983.869 19.8032 981.435 21.1342L982.395 22.8889ZM989.538 21.1457C992.193 21.1457 994.567 21.732 996.682 22.8889L997.642 21.1342C995.208 19.8032 992.499 19.1457 989.538 19.1457V21.1457ZM996.682 22.8889C998.79 24.0415 1000.45 25.6841 1001.68 27.8373L1003.42 26.8479C1002.01 24.3809 1000.08 22.4694 997.642 21.1342L996.682 22.8889ZM1001.68 27.8373C1002.9 29.9789 1003.52 32.4522 1003.52 35.286H1005.52C1005.52 32.1489 1004.83 29.3267 1003.42 26.8479L1001.68 27.8373ZM1003.52 35.286C1003.52 38.115 1002.88 40.5847 1001.63 42.7246L1003.36 43.734C1004.81 41.2535 1005.52 38.4277 1005.52 35.286H1003.52ZM1001.63 42.7246C1000.37 44.8779 998.655 46.5436 996.47 47.7358L997.427 49.4916C999.933 48.1249 1001.91 46.2009 1003.36 43.734L1001.63 42.7246ZM996.474 47.7332C994.32 48.8932 991.926 49.4796 989.272 49.4796V51.4796C992.233 51.4796 994.957 50.822 997.423 49.4941L996.474 47.7332ZM989.272 46.2018C991.002 46.2018 992.626 45.7868 994.127 44.9575L993.16 43.207C991.959 43.8704 990.669 44.2018 989.272 44.2018V46.2018ZM994.117 44.9627C995.683 44.1196 996.933 42.8595 997.87 41.2198L996.134 40.2275C995.365 41.5733 994.375 42.5522 993.169 43.2018L994.117 44.9627ZM997.87 41.2198C998.828 39.5437 999.281 37.551 999.281 35.286H997.281C997.281 37.2858 996.882 38.9182 996.134 40.2275L997.87 41.2198ZM999.281 35.286C999.281 33.0285 998.849 31.0547 997.927 29.4123L996.183 30.3908C996.897 31.6627 997.281 33.2785 997.281 35.286H999.281ZM997.932 29.4212C997.033 27.78 995.82 26.5151 994.287 25.6677L993.32 27.4182C994.487 28.0636 995.442 29.0377 996.178 30.3819L997.932 29.4212ZM994.287 25.6677C992.786 24.8384 991.162 24.4234 989.432 24.4234V26.4234C990.829 26.4234 992.119 26.7548 993.32 27.4182L994.287 25.6677ZM989.432 24.4234C987.701 24.4234 986.077 24.8384 984.577 25.6677L985.544 27.4182C986.744 26.7548 988.035 26.4234 989.432 26.4234V24.4234ZM984.567 25.6733C983.066 26.525 981.889 27.7949 981.029 29.4376L982.801 30.3656C983.504 29.0228 984.425 28.0536 985.554 27.4127L984.567 25.6733ZM981.034 29.4287C980.154 31.0673 979.742 33.035 979.742 35.286H981.742C981.742 33.2721 982.111 31.6501 982.796 30.3744L981.034 29.4287ZM979.742 35.286C979.742 38.6134 980.585 41.3383 982.404 43.3193L983.878 41.9664C982.498 40.4644 981.742 38.2848 981.742 35.286H979.742ZM982.419 43.3348C984.25 45.2457 986.558 46.2018 989.272 46.2018V44.2018C987.08 44.2018 985.301 43.4519 983.863 41.951L982.419 43.3348ZM1025.12 10.5497H1026.12V9.54971H1025.12V10.5497ZM1025.12 49.9998V50.9998H1026.12V49.9998H1025.12ZM1019.04 49.9998H1018.04V50.9998H1019.04V49.9998ZM1019.04 10.5497V9.54971H1018.04V10.5497H1019.04ZM1024.12 10.5497V49.9998H1026.12V10.5497H1024.12ZM1025.12 48.9998H1019.04V50.9998H1025.12V48.9998ZM1020.04 49.9998V10.5497H1018.04V49.9998H1020.04ZM1019.04 11.5497H1025.12V9.54971H1019.04V11.5497ZM1030.75 15.6142L1031.46 14.9071V14.9071L1030.75 15.6142ZM1030.75 10.0699L1031.46 10.777V10.777L1030.75 10.0699ZM1036.25 10.0699L1035.54 10.777V10.777L1036.25 10.0699ZM1036.25 15.6142L1035.54 14.9071V14.9071L1036.25 15.6142ZM1036.51 20.6255H1037.51V19.6255H1036.51V20.6255ZM1036.51 49.9998V50.9998H1037.51V49.9998H1036.51ZM1030.43 49.9998H1029.43V50.9998H1030.43V49.9998ZM1030.43 20.6255V19.6255H1029.43V20.6255H1030.43ZM1033.53 15.7338C1032.68 15.7338 1032.01 15.457 1031.46 14.9071L1030.05 16.3214C1030.99 17.2642 1032.17 17.7338 1033.53 17.7338V15.7338ZM1031.46 14.9071C1030.91 14.3573 1030.64 13.6916 1030.64 12.8421H1028.64C1028.64 14.1961 1029.1 15.3785 1030.05 16.3214L1031.46 14.9071ZM1030.64 12.8421C1030.64 11.9926 1030.91 11.3269 1031.46 10.777L1030.05 9.36281C1029.1 10.3057 1028.64 11.4881 1028.64 12.8421H1030.64ZM1031.46 10.777C1032.01 10.2272 1032.68 9.95039 1033.53 9.95039V7.95039C1032.17 7.95039 1030.99 8.41995 1030.05 9.36281L1031.46 10.777ZM1033.53 9.95039C1034.33 9.95039 1034.98 10.2203 1035.54 10.777L1036.95 9.36281C1036.02 8.42679 1034.86 7.95039 1033.53 7.95039V9.95039ZM1035.54 10.777C1036.09 11.3269 1036.37 11.9926 1036.37 12.8421H1038.37C1038.37 11.4881 1037.9 10.3057 1036.95 9.36281L1035.54 10.777ZM1036.37 12.8421C1036.37 13.6916 1036.09 14.3573 1035.54 14.9071L1036.95 16.3214C1037.9 15.3785 1038.37 14.1961 1038.37 12.8421H1036.37ZM1035.54 14.9071C1034.98 15.4638 1034.33 15.7338 1033.53 15.7338V17.7338C1034.86 17.7338 1036.02 17.2574 1036.95 16.3214L1035.54 14.9071ZM1035.51 20.6255V49.9998H1037.51V20.6255H1035.51ZM1036.51 48.9998H1030.43V50.9998H1036.51V48.9998ZM1031.43 49.9998V20.6255H1029.43V49.9998H1031.43ZM1030.43 21.6255H1036.51V19.6255H1030.43V21.6255ZM1054.14 25.5834V26.5834H1055.14V25.5834H1054.14ZM1048.7 25.5834V24.5834H1047.7V25.5834H1048.7ZM1048.7 49.9998V50.9998H1049.7V49.9998H1048.7ZM1042.57 49.9998H1041.57V50.9998H1042.57V49.9998ZM1042.57 25.5834H1043.57V24.5834H1042.57V25.5834ZM1039.11 25.5834H1038.11V26.5834H1039.11V25.5834ZM1039.11 20.6255V19.6255H1038.11V20.6255H1039.11ZM1042.57 20.6255V21.6255H1043.57V20.6255H1042.57ZM1045.24 11.1894L1045.89 11.9476L1045.89 11.9466L1045.24 11.1894ZM1053.71 8.84377H1054.71V7.84377H1053.71V8.84377ZM1053.71 13.9083V14.9083H1054.71V13.9083H1053.71ZM1049.82 14.9745L1050.49 15.7161L1050.5 15.7075L1050.51 15.6987L1049.82 14.9745ZM1048.7 20.6255H1047.7V21.6255H1048.7V20.6255ZM1054.14 20.6255H1055.14V19.6255H1054.14V20.6255ZM1054.14 24.5834H1048.7V26.5834H1054.14V24.5834ZM1047.7 25.5834V49.9998H1049.7V25.5834H1047.7ZM1048.7 48.9998H1042.57V50.9998H1048.7V48.9998ZM1043.57 49.9998V25.5834H1041.57V49.9998H1043.57ZM1042.57 24.5834H1039.11V26.5834H1042.57V24.5834ZM1040.11 25.5834V20.6255H1038.11V25.5834H1040.11ZM1039.11 21.6255H1042.57V19.6255H1039.11V21.6255ZM1043.57 20.6255V18.5463H1041.57V20.6255H1043.57ZM1043.57 18.5463C1043.57 15.3293 1044.42 13.214 1045.89 11.9476L1044.59 10.4313C1042.5 12.2213 1041.57 15.0107 1041.57 18.5463H1043.57ZM1045.89 11.9466C1047.44 10.61 1049.98 9.84377 1053.71 9.84377V7.84377C1049.77 7.84377 1046.66 8.6413 1044.58 10.4323L1045.89 11.9466ZM1052.71 8.84377V13.9083H1054.71V8.84377H1052.71ZM1053.71 12.9083C1051.79 12.9083 1050.17 13.2665 1049.13 14.2504L1050.51 15.6987C1050.97 15.2609 1051.94 14.9083 1053.71 14.9083V12.9083ZM1049.15 14.233C1048.09 15.1948 1047.7 16.745 1047.7 18.5463H1049.7C1049.7 16.9358 1050.06 16.1048 1050.49 15.7161L1049.15 14.233ZM1047.7 18.5463V20.6255H1049.7V18.5463H1047.7ZM1048.7 21.6255H1054.14V19.6255H1048.7V21.6255ZM1053.14 20.6255V25.5834H1055.14V20.6255H1053.14ZM1083.57 37.5783V38.5783H1084.42L1084.56 37.7363L1083.57 37.5783ZM1061.13 37.5783V36.5783H1060.05L1060.13 37.6539L1061.13 37.5783ZM1063.74 43.2293L1063.07 43.9692L1063.74 43.2293ZM1076.43 41.2568V40.2568H1075.8L1075.53 40.8142L1076.43 41.2568ZM1082.98 41.2568L1083.93 41.5692L1084.37 40.2568H1082.98V41.2568ZM1078.13 47.9206L1078.73 48.7251L1078.73 48.7235L1078.13 47.9206ZM1061.93 48.6137L1061.42 49.4785L1061.43 49.4832L1061.44 49.4878L1061.93 48.6137ZM1056.7 43.2826L1055.82 43.7567L1055.83 43.7648L1055.83 43.7728L1056.7 43.2826ZM1056.65 27.3426L1055.77 26.8685L1055.76 26.8735L1056.65 27.3426ZM1061.82 22.0115L1061.33 21.1374L1061.33 21.1407L1061.82 22.0115ZM1076.91 21.9582L1077.39 21.0848L1076.91 21.9582ZM1081.97 27.0761L1081.09 27.5569L1081.1 27.5629L1081.97 27.0761ZM1077.44 32.6737V33.6737H1078.46L1078.44 32.6579L1077.44 32.6737ZM1075.04 27.2893L1075.69 26.5325L1075.04 27.2893ZM1063.84 27.2893L1064.51 28.0397L1064.52 28.0309L1063.84 27.2893ZM1061.18 32.6737L1060.19 32.5497L1060.05 33.6737H1061.18V32.6737ZM1082.78 34.5929C1082.78 35.653 1082.71 36.5941 1082.58 37.4203L1084.56 37.7363C1084.71 36.7855 1084.78 35.7363 1084.78 34.5929H1082.78ZM1083.57 36.5783H1061.13V38.5783H1083.57V36.5783ZM1060.13 37.6539C1060.32 40.223 1061.29 42.3557 1063.07 43.9692L1064.41 42.4893C1063.06 41.2596 1062.28 39.625 1062.12 37.5028L1060.13 37.6539ZM1063.07 43.9692C1064.83 45.5716 1066.99 46.3617 1069.5 46.3617V44.3617C1067.45 44.3617 1065.78 43.7302 1064.41 42.4893L1063.07 43.9692ZM1069.5 46.3617C1071.27 46.3617 1072.85 45.9894 1074.19 45.1959C1075.53 44.3999 1076.57 43.2171 1077.32 41.6993L1075.53 40.8142C1074.93 42.0331 1074.14 42.9028 1073.17 43.4751C1072.2 44.0498 1070.99 44.3617 1069.5 44.3617V46.3617ZM1076.43 42.2568H1082.98V40.2568H1076.43V42.2568ZM1082.03 40.9443C1081.21 43.4436 1079.72 45.4957 1077.54 47.1177L1078.73 48.7235C1081.23 46.8626 1082.98 44.4721 1083.93 41.5692L1082.03 40.9443ZM1077.54 47.1162C1075.43 48.6713 1072.77 49.4796 1069.5 49.4796V51.4796C1073.11 51.4796 1076.21 50.5819 1078.73 48.7251L1077.54 47.1162ZM1069.5 49.4796C1066.84 49.4796 1064.49 48.8931 1062.41 47.7395L1061.44 49.4878C1063.84 50.8221 1066.53 51.4796 1069.5 51.4796V49.4796ZM1062.43 47.7489C1060.38 46.5613 1058.77 44.9153 1057.57 42.7923L1055.83 43.7728C1057.19 46.1991 1059.06 48.1071 1061.42 49.4785L1062.43 47.7489ZM1057.58 42.8085C1056.43 40.6648 1055.84 38.1667 1055.84 35.286H1053.84C1053.84 38.4471 1054.49 41.2801 1055.82 43.7567L1057.58 42.8085ZM1055.84 35.286C1055.84 32.4003 1056.41 29.9188 1057.53 27.8118L1055.76 26.8735C1054.47 29.3156 1053.84 32.1297 1053.84 35.286H1055.84ZM1057.53 27.8167C1058.69 25.6665 1060.28 24.0299 1062.31 22.8824L1061.33 21.1407C1058.95 22.481 1057.1 24.3985 1055.77 26.8685L1057.53 27.8167ZM1062.3 22.8857C1064.38 21.7341 1066.77 21.1457 1069.5 21.1457V19.1457C1066.47 19.1457 1063.74 19.8011 1061.33 21.1374L1062.3 22.8857ZM1069.5 21.1457C1072.12 21.1457 1074.42 21.7157 1076.42 22.8317L1077.39 21.0848C1075.06 19.7841 1072.42 19.1457 1069.5 19.1457V21.1457ZM1076.42 22.8317C1078.42 23.9473 1079.97 25.5162 1081.09 27.5569L1082.85 26.5953C1081.55 24.229 1079.73 22.3859 1077.39 21.0848L1076.42 22.8317ZM1081.1 27.5629C1082.21 29.5616 1082.78 31.895 1082.78 34.5929H1084.78C1084.78 31.6044 1084.15 28.9265 1082.84 26.5892L1081.1 27.5629ZM1078.44 32.6579C1078.4 30.1606 1077.49 28.0862 1075.69 26.5325L1074.39 28.0461C1075.72 29.1935 1076.41 30.7087 1076.44 32.6896L1078.44 32.6579ZM1075.69 26.5325C1073.93 25.0064 1071.75 24.2635 1069.23 24.2635V26.2635C1071.33 26.2635 1073.03 26.8712 1074.39 28.0461L1075.69 26.5325ZM1069.23 24.2635C1066.9 24.2635 1064.86 25.0234 1063.17 26.5478L1064.52 28.0309C1065.82 26.8541 1067.37 26.2635 1069.23 26.2635V24.2635ZM1063.18 26.539C1061.48 28.0397 1060.5 30.0721 1060.19 32.5497L1062.17 32.7978C1062.43 30.7261 1063.22 29.169 1064.51 28.0397L1063.18 26.539ZM1061.18 33.6737H1077.44V31.6737H1061.18V33.6737Z" fill="#EAEBF0"/>
<path d="M468.557 0.154092L453.683 58.3163H452.617L467.384 0.154092H468.557Z" fill="#EAEBF0"/>
<path d="M799.751 0.154092L784.877 58.3163H783.811L798.578 0.154092H799.751Z" fill="#EAEBF0"/>
<path d="M137.363 0.154092L122.489 58.3163H121.423L136.19 0.154092H137.363Z" fill="#EAEBF0"/>
<path d="M1506.48 24.9972H1505.48V28.0802L1507.29 25.5842L1506.48 24.9972ZM1510.7 21.532L1511.14 22.4264L1511.15 22.4229L1510.7 21.532ZM1523.76 22.0118L1524.27 21.1517V21.1517L1523.76 22.0118ZM1528.71 27.3429L1527.83 27.8064L1527.83 27.812L1528.71 27.3429ZM1528.71 43.1229L1529.6 43.5864L1529.6 43.5809L1528.71 43.1229ZM1523.7 48.5606L1524.22 49.4143L1524.23 49.4118L1523.7 48.5606ZM1510.64 49.147L1510.19 50.0378L1510.19 50.0415L1510.64 49.147ZM1506.48 45.7351L1507.29 45.1384L1505.48 42.7144V45.7351H1506.48ZM1506.48 50V51H1507.48V50H1506.48ZM1500.41 50H1499.41V51H1500.41V50ZM1500.41 10.55V9.54996H1499.41V10.55H1500.41ZM1506.48 10.55H1507.48V9.54996H1506.48V10.55ZM1523.06 29.9551L1522.19 30.4354L1522.19 30.448L1522.2 30.4603L1523.06 29.9551ZM1519.76 26.5965L1519.26 27.462L1519.27 27.4697L1519.28 27.477L1519.76 26.5965ZM1511.01 26.5965L1510.52 25.7255L1510.51 25.7311L1511.01 26.5965ZM1507.71 30.0084L1506.84 29.5123L1506.84 29.5202L1506.83 29.5281L1507.71 30.0084ZM1507.71 40.6173L1506.83 41.0889L1506.83 41.1013L1506.84 41.1134L1507.71 40.6173ZM1511.01 44.0292L1510.51 44.8947L1510.52 44.9002L1511.01 44.0292ZM1519.76 44.0292L1520.26 44.8946L1520.27 44.8905L1519.76 44.0292ZM1523.06 40.5107L1522.19 40.0233L1522.19 40.0311L1522.18 40.039L1523.06 40.5107ZM1507.29 25.5842C1508.22 24.3089 1509.49 23.2526 1511.14 22.4264L1510.25 20.6376C1508.35 21.5884 1506.81 22.8422 1505.67 24.4102L1507.29 25.5842ZM1511.15 22.4229C1512.81 21.5764 1514.66 21.1459 1516.72 21.1459V19.1459C1514.37 19.1459 1512.21 19.6395 1510.24 20.6411L1511.15 22.4229ZM1516.72 21.1459C1519.15 21.1459 1521.31 21.7255 1523.25 22.8718L1524.27 21.1517C1522.01 19.8103 1519.48 19.1459 1516.72 19.1459V21.1459ZM1523.25 22.8718C1525.17 24.0144 1526.7 25.6489 1527.83 27.8064L1529.6 26.8794C1528.31 24.4166 1526.53 22.497 1524.27 21.1517L1523.25 22.8718ZM1527.83 27.812C1528.95 29.9224 1529.53 32.3693 1529.53 35.1796H1531.53C1531.53 32.0901 1530.89 29.3126 1529.6 26.8737L1527.83 27.812ZM1529.53 35.1796C1529.53 37.9892 1528.95 40.4769 1527.83 42.6649L1529.6 43.5809C1530.89 41.0775 1531.53 38.2697 1531.53 35.1796H1529.53ZM1527.83 42.6594C1526.7 44.817 1525.15 46.4928 1523.18 47.7094L1524.23 49.4118C1526.52 47.9985 1528.31 46.0491 1529.6 43.5864L1527.83 42.6594ZM1523.18 47.707C1521.25 48.8866 1519.1 49.4798 1516.72 49.4798V51.4798C1519.45 51.4798 1521.96 50.7935 1524.22 49.4142L1523.18 47.707ZM1516.72 49.4798C1514.58 49.4798 1512.71 49.0622 1511.09 48.2526L1510.19 50.0415C1512.13 51.0088 1514.31 51.4798 1516.72 51.4798V49.4798ZM1511.1 48.2563C1509.47 47.4284 1508.21 46.3856 1507.29 45.1384L1505.68 46.3318C1506.82 47.8568 1508.33 49.0886 1510.19 50.0378L1511.1 48.2563ZM1505.48 45.7351V50H1507.48V45.7351H1505.48ZM1506.48 49H1500.41V51H1506.48V49ZM1501.41 50V10.55H1499.41V50H1501.41ZM1500.41 11.55H1506.48V9.54996H1500.41V11.55ZM1505.48 10.55V24.9972H1507.48V10.55H1505.48ZM1525.34 35.1796C1525.34 33.0118 1524.89 31.0884 1523.93 29.4499L1522.2 30.4603C1522.95 31.7362 1523.34 33.2958 1523.34 35.1796H1525.34ZM1523.94 29.4748C1523.04 27.8269 1521.8 26.5615 1520.23 25.7161L1519.28 27.477C1520.49 28.1243 1521.45 29.0979 1522.19 30.4354L1523.94 29.4748ZM1520.26 25.7311C1518.76 24.8609 1517.13 24.4237 1515.39 24.4237V26.4237C1516.77 26.4237 1518.06 26.7684 1519.26 27.462L1520.26 25.7311ZM1515.39 24.4237C1513.68 24.4237 1512.05 24.8627 1510.52 25.7255L1511.51 27.4675C1512.75 26.7666 1514.04 26.4237 1515.39 26.4237V24.4237ZM1510.51 25.7311C1509 26.6103 1507.77 27.8822 1506.84 29.5123L1508.58 30.5046C1509.35 29.1492 1510.33 28.1465 1511.52 27.462L1510.51 25.7311ZM1506.83 29.5281C1505.92 31.1937 1505.48 33.1244 1505.48 35.2862H1507.48C1507.48 33.3963 1507.86 31.8085 1508.59 30.4887L1506.83 29.5281ZM1505.48 35.2862C1505.48 37.4487 1505.92 39.3929 1506.83 41.0889L1508.59 40.1456C1507.86 38.7852 1507.48 37.1753 1507.48 35.2862H1505.48ZM1506.84 41.1134C1507.77 42.7435 1509 44.0154 1510.51 44.8946L1511.52 43.1638C1510.33 42.4792 1509.35 41.4765 1508.58 40.1211L1506.84 41.1134ZM1510.52 44.9002C1512.05 45.763 1513.68 46.202 1515.39 46.202V44.202C1514.04 44.202 1512.75 43.8592 1511.51 43.1582L1510.52 44.9002ZM1515.39 46.202C1517.13 46.202 1518.76 45.7648 1520.26 44.8946L1519.26 43.1638C1518.06 43.8573 1516.77 44.202 1515.39 44.202V46.202ZM1520.27 44.8905C1521.82 43.9728 1523.05 42.6594 1523.95 40.9823L1522.18 40.039C1521.44 41.4185 1520.47 42.4507 1519.25 43.1678L1520.27 44.8905ZM1523.94 40.998C1524.88 39.2988 1525.34 37.3489 1525.34 35.1796H1523.34C1523.34 37.0619 1522.95 38.666 1522.19 40.0233L1523.94 40.998ZM1560.47 20.6257H1561.47V19.6257H1560.47V20.6257ZM1560.47 50V51H1561.47V50H1560.47ZM1554.4 50H1553.4V51H1554.4V50ZM1554.4 46.5348H1555.4V43.6675L1553.61 45.9129L1554.4 46.5348ZM1550.61 49.4136L1551.01 50.3283L1551.02 50.3239L1550.61 49.4136ZM1539.47 48.9871L1539 49.8709L1539.01 49.8746L1539.47 48.9871ZM1535.15 44.7222L1534.27 45.2022L1534.28 45.2086L1534.28 45.2148L1535.15 44.7222ZM1533.6 20.6257V19.6257H1532.6V20.6257H1533.6ZM1539.63 20.6257H1540.63V19.6257H1539.63V20.6257ZM1541.6 43.0696L1540.87 43.7487L1540.88 43.7578L1541.6 43.0696ZM1552.37 43.0696L1551.65 42.3808L1551.64 42.3813L1552.37 43.0696ZM1554.4 20.6257V19.6257H1553.4V20.6257H1554.4ZM1559.47 20.6257V50H1561.47V20.6257H1559.47ZM1560.47 49H1554.4V51H1560.47V49ZM1555.4 50V46.5348H1553.4V50H1555.4ZM1553.61 45.9129C1552.76 46.9837 1551.63 47.8504 1550.2 48.5032L1551.02 50.3239C1552.72 49.5551 1554.11 48.5026 1555.18 47.1567L1553.61 45.9129ZM1550.21 48.4989C1548.81 49.1155 1547.31 49.4265 1545.71 49.4265V51.4265C1547.58 51.4265 1549.35 51.0622 1551.01 50.3283L1550.21 48.4989ZM1545.71 49.4265C1543.54 49.4265 1541.62 48.9775 1539.93 48.0996L1539.01 49.8746C1541.01 50.9159 1543.25 51.4265 1545.71 51.4265V49.4265ZM1539.94 48.1033C1538.3 47.2381 1537 45.9568 1536.02 44.2296L1534.28 45.2148C1535.44 47.255 1537.01 48.8169 1539 49.8709L1539.94 48.1033ZM1536.03 44.2422C1535.09 42.5372 1534.6 40.4361 1534.6 37.8984H1532.6C1532.6 40.6918 1533.14 43.14 1534.27 45.2022L1536.03 44.2422ZM1534.6 37.8984V20.6257H1532.6V37.8984H1534.6ZM1533.6 21.6257H1539.63V19.6257H1533.6V21.6257ZM1538.63 20.6257V36.9921H1540.63V20.6257H1538.63ZM1538.63 36.9921C1538.63 39.7825 1539.33 42.0845 1540.87 43.7486L1542.34 42.3905C1541.24 41.2114 1540.63 39.4618 1540.63 36.9921H1538.63ZM1540.88 43.7578C1542.42 45.3806 1544.49 46.1487 1546.99 46.1487V44.1487C1544.93 44.1487 1543.42 43.5308 1542.33 42.3813L1540.88 43.7578ZM1546.99 46.1487C1549.48 46.1487 1551.56 45.3806 1553.1 43.7578L1551.64 42.3813C1550.55 43.5308 1549.04 44.1487 1546.99 44.1487V46.1487ZM1553.1 43.7583C1554.68 42.0948 1555.4 39.789 1555.4 36.9921H1553.4C1553.4 39.4553 1552.77 41.2011 1551.65 42.3808L1553.1 43.7583ZM1555.4 36.9921V20.6257H1553.4V36.9921H1555.4ZM1554.4 21.6257H1560.47V19.6257H1554.4V21.6257ZM1571.9 24.8906H1570.9V28.5257L1572.76 25.4021L1571.9 24.8906ZM1575.42 21.4254L1575.91 22.2975L1575.92 22.2936L1575.42 21.4254ZM1580.7 20.1459H1581.7V19.1459H1580.7V20.1459ZM1580.7 26.4366V27.4366H1581.7V26.4366H1580.7ZM1573.72 28.2492L1573.02 27.5319L1573.01 27.5369L1573.01 27.5421L1573.72 28.2492ZM1571.9 50V51H1572.9V50H1571.9ZM1565.83 50H1564.83V51H1565.83V50ZM1565.83 20.6257V19.6257H1564.83V20.6257H1565.83ZM1571.9 20.6257H1572.9V19.6257H1571.9V20.6257ZM1572.76 25.4021C1573.57 24.0537 1574.61 23.0257 1575.91 22.2975L1574.93 20.5532C1573.32 21.4599 1572.02 22.7421 1571.04 24.3791L1572.76 25.4021ZM1575.92 22.2936C1577.24 21.5413 1578.82 21.1459 1580.7 21.1459V19.1459C1578.53 19.1459 1576.6 19.6035 1574.93 20.5571L1575.92 22.2936ZM1579.7 20.1459V26.4366H1581.7V20.1459H1579.7ZM1580.7 25.4366H1579.15V27.4366H1580.7V25.4366ZM1579.15 25.4366C1576.61 25.4366 1574.51 26.0834 1573.02 27.5319L1574.41 28.9664C1575.41 27.9982 1576.93 27.4366 1579.15 27.4366V25.4366ZM1573.01 27.5421C1571.51 29.0367 1570.9 31.4726 1570.9 34.5398H1572.9C1572.9 31.6362 1573.5 29.8784 1574.42 28.9563L1573.01 27.5421ZM1570.9 34.5398V50H1572.9V34.5398H1570.9ZM1571.9 49H1565.83V51H1571.9V49ZM1566.83 50V20.6257H1564.83V50H1566.83ZM1565.83 21.6257H1571.9V19.6257H1565.83V21.6257ZM1570.9 20.6257V24.8906H1572.9V20.6257H1570.9ZM1604.63 21.5853L1604.16 22.4691L1604.16 22.4728L1604.63 21.5853ZM1608.94 25.8502L1608.07 26.3302V26.3302L1608.94 25.8502ZM1610.49 50V51H1611.49V50H1610.49ZM1604.47 50H1603.47V51H1604.47V50ZM1602.49 27.5561L1601.76 28.2352L1601.77 28.2444L1602.49 27.5561ZM1591.67 27.5561L1590.95 26.8674L1590.95 26.8679L1591.67 27.5561ZM1589.7 50V51H1590.7V50H1589.7ZM1583.62 50H1582.62V51H1583.62V50ZM1583.62 20.6257V19.6257H1582.62V20.6257H1583.62ZM1589.7 20.6257H1590.7V19.6257H1589.7V20.6257ZM1589.7 23.9843H1588.7V26.7716L1590.47 24.62L1589.7 23.9843ZM1593.48 21.1588L1593.09 20.2407L1593.08 20.2441L1593.48 21.1588ZM1598.44 21.1459C1600.61 21.1459 1602.51 21.595 1604.16 22.4691L1605.09 20.7015C1603.12 19.6564 1600.89 19.1459 1598.44 19.1459V21.1459ZM1604.16 22.4728C1605.83 23.3379 1607.13 24.6149 1608.07 26.3302L1609.82 25.3702C1608.7 23.3181 1607.12 21.7519 1605.09 20.6978L1604.16 22.4728ZM1608.07 26.3302C1609 28.0352 1609.49 30.1363 1609.49 32.674H1611.49C1611.49 29.8806 1610.95 27.4324 1609.82 25.3702L1608.07 26.3302ZM1609.49 32.674V50H1611.49V32.674H1609.49ZM1610.49 49H1604.47V51H1610.49V49ZM1605.47 50V33.5803H1603.47V50H1605.47ZM1605.47 33.5803C1605.47 30.7918 1604.77 28.5002 1603.22 26.8679L1601.77 28.2444C1602.85 29.3842 1603.47 31.1087 1603.47 33.5803H1605.47ZM1603.23 26.8771C1601.69 25.2149 1599.61 24.4237 1597.11 24.4237V26.4237C1599.16 26.4237 1600.67 27.0541 1601.76 28.2352L1603.23 26.8771ZM1597.11 24.4237C1594.61 24.4237 1592.52 25.2148 1590.95 26.8674L1592.4 28.2449C1593.53 27.0542 1595.06 26.4237 1597.11 26.4237V24.4237ZM1590.95 26.8679C1589.4 28.5002 1588.7 30.7918 1588.7 33.5803H1590.7C1590.7 31.1087 1591.32 29.3842 1592.4 28.2444L1590.95 26.8679ZM1588.7 33.5803V50H1590.7V33.5803H1588.7ZM1589.7 49H1583.62V51H1589.7V49ZM1584.62 50V20.6257H1582.62V50H1584.62ZM1583.62 21.6257H1589.7V19.6257H1583.62V21.6257ZM1588.7 20.6257V23.9843H1590.7V20.6257H1588.7ZM1590.47 24.62C1591.36 23.5401 1592.49 22.6901 1593.89 22.0735L1593.08 20.2441C1591.42 20.9781 1590.03 22.0118 1588.93 23.3486L1590.47 24.62ZM1593.88 22.0769C1595.32 21.4569 1596.83 21.1459 1598.44 21.1459V19.1459C1596.57 19.1459 1594.78 19.5102 1593.09 20.2408L1593.88 22.0769ZM1633.85 25.5836V24.5836H1632.85V25.5836H1633.85ZM1634.6 44.2424L1633.89 44.9495L1633.91 44.9748L1633.94 44.9981L1634.6 44.2424ZM1640.99 44.9355H1641.99V43.9355H1640.99V44.9355ZM1640.99 50V51H1641.99V50H1640.99ZM1629.9 48.0808L1629.24 48.8322L1629.9 48.0808ZM1627.72 25.5836H1628.72V24.5836H1627.72V25.5836ZM1624.25 25.5836H1623.25V26.5836H1624.25V25.5836ZM1624.25 20.6257V19.6257H1623.25V20.6257H1624.25ZM1627.72 20.6257V21.6257H1628.72V20.6257H1627.72ZM1627.72 13.3221V12.3221H1626.72V13.3221H1627.72ZM1633.85 13.3221H1634.85V12.3221H1633.85V13.3221ZM1633.85 20.6257H1632.85V21.6257H1633.85V20.6257ZM1640.99 20.6257H1641.99V19.6257H1640.99V20.6257ZM1640.99 25.5836V26.5836H1641.99V25.5836H1640.99ZM1632.85 25.5836V41.8434H1634.85V25.5836H1632.85ZM1632.85 41.8434C1632.85 43.0647 1633.12 44.1818 1633.89 44.9495L1635.3 43.5353C1635.08 43.3079 1634.85 42.8257 1634.85 41.8434H1632.85ZM1633.94 44.9981C1634.75 45.7001 1635.94 45.9355 1637.26 45.9355V43.9355C1636.09 43.9355 1635.51 43.7088 1635.25 43.4867L1633.94 44.9981ZM1637.26 45.9355H1640.99V43.9355H1637.26V45.9355ZM1639.99 44.9355V50H1641.99V44.9355H1639.99ZM1640.99 49H1636.2V51H1640.99V49ZM1636.2 49C1633.6 49 1631.78 48.3935 1630.56 47.3294L1629.24 48.8322C1630.95 50.3271 1633.31 51 1636.2 51V49ZM1630.56 47.3294C1629.41 46.3164 1628.72 44.5757 1628.72 41.8434H1626.72C1626.72 44.8687 1627.48 47.2863 1629.24 48.8322L1630.56 47.3294ZM1628.72 41.8434V25.5836H1626.72V41.8434H1628.72ZM1627.72 24.5836H1624.25V26.5836H1627.72V24.5836ZM1625.25 25.5836V20.6257H1623.25V25.5836H1625.25ZM1624.25 21.6257H1627.72V19.6257H1624.25V21.6257ZM1628.72 20.6257V13.3221H1626.72V20.6257H1628.72ZM1627.72 14.3221H1633.85V12.3221H1627.72V14.3221ZM1632.85 13.3221V20.6257H1634.85V13.3221H1632.85ZM1633.85 21.6257H1640.99V19.6257H1633.85V21.6257ZM1639.99 20.6257V25.5836H1641.99V20.6257H1639.99ZM1640.99 24.5836H1633.85V26.5836H1640.99V24.5836ZM1649.15 48.6139L1648.66 49.4822L1648.67 49.4881L1649.15 48.6139ZM1643.88 43.2828L1643 43.7673L1643 43.7731L1643.88 43.2828ZM1649.31 22.0118L1648.83 21.1344L1649.31 22.0118ZM1664.56 22.0118L1665.04 21.1344L1664.56 22.0118ZM1669.89 43.2295L1669.03 42.7248L1669.89 43.2295ZM1664.35 48.6139L1664.82 49.4944L1664.83 49.4918L1664.35 48.6139ZM1661.04 44.0825L1660.57 43.202L1660.56 43.2073L1661.04 44.0825ZM1664.4 40.7239L1663.53 40.2278V40.2278L1664.4 40.7239ZM1664.45 29.9018L1663.58 30.3821L1663.58 30.3911L1664.45 29.9018ZM1652.46 26.5432L1651.98 25.6679L1651.97 25.6735L1652.46 26.5432ZM1649.31 29.9018L1650.19 30.3746L1650.2 30.3658L1649.31 29.9018ZM1650.54 42.6431L1649.8 43.3195L1649.81 43.3273L1649.82 43.335L1650.54 42.6431ZM1656.67 49.4798C1654.05 49.4798 1651.72 48.8944 1649.64 47.7398L1648.67 49.4881C1651.07 50.8212 1653.74 51.4798 1656.67 51.4798V49.4798ZM1649.65 47.7457C1647.57 46.5571 1645.94 44.9115 1644.75 42.7926L1643 43.7731C1644.37 46.2033 1646.26 48.1118 1648.66 49.4822L1649.65 47.7457ZM1644.75 42.7983C1643.56 40.6567 1642.96 38.1623 1642.96 35.2862H1640.96C1640.96 38.452 1641.63 41.2887 1643 43.7673L1644.75 42.7983ZM1642.96 35.2862C1642.96 32.4525 1643.58 29.9791 1644.8 27.8376L1643.06 26.8482C1641.65 29.3269 1640.96 32.1491 1640.96 35.2862H1642.96ZM1644.8 27.8376C1646.02 25.6843 1647.69 24.0417 1649.79 22.8892L1648.83 21.1344C1646.39 22.4697 1644.46 24.3812 1643.06 26.8482L1644.8 27.8376ZM1649.79 22.8892C1651.91 21.7323 1654.28 21.1459 1656.94 21.1459V19.1459C1653.98 19.1459 1651.27 19.8035 1648.83 21.1344L1649.79 22.8892ZM1656.94 21.1459C1659.59 21.1459 1661.97 21.7323 1664.08 22.8892L1665.04 21.1344C1662.61 19.8035 1659.9 19.1459 1656.94 19.1459V21.1459ZM1664.08 22.8892C1666.19 24.0417 1667.85 25.6843 1669.08 27.8376L1670.81 26.8482C1669.41 24.3812 1667.48 22.4697 1665.04 21.1344L1664.08 22.8892ZM1669.08 27.8376C1670.29 29.9791 1670.92 32.4525 1670.92 35.2862H1672.92C1672.92 32.1491 1672.22 29.3269 1670.81 26.8482L1669.08 27.8376ZM1670.92 35.2862C1670.92 38.1152 1670.28 40.585 1669.03 42.7248L1670.75 43.7342C1672.2 41.2538 1672.92 38.428 1672.92 35.2862H1670.92ZM1669.03 42.7248C1667.77 44.8782 1666.05 46.5438 1663.87 47.736L1664.83 49.4918C1667.33 48.1251 1669.31 46.2012 1670.75 43.7342L1669.03 42.7248ZM1663.87 47.7334C1661.72 48.8934 1659.32 49.4798 1656.67 49.4798V51.4798C1659.63 51.4798 1662.36 50.8222 1664.82 49.4944L1663.87 47.7334ZM1656.67 46.202C1658.4 46.202 1660.02 45.7871 1661.53 44.9577L1660.56 43.2073C1659.36 43.8706 1658.07 44.202 1656.67 44.202V46.202ZM1661.52 44.963C1663.08 44.1198 1664.33 42.8597 1665.27 41.22L1663.53 40.2278C1662.76 41.5735 1661.77 42.5525 1660.57 43.202L1661.52 44.963ZM1665.27 41.22C1666.23 39.544 1666.68 37.5513 1666.68 35.2862H1664.68C1664.68 37.286 1664.28 38.9184 1663.53 40.2278L1665.27 41.22ZM1666.68 35.2862C1666.68 33.0288 1666.25 31.0549 1665.33 29.4126L1663.58 30.3911C1664.3 31.663 1664.68 33.2788 1664.68 35.2862H1666.68ZM1665.33 29.4215C1664.43 27.7802 1663.22 26.5153 1661.69 25.668L1660.72 27.4185C1661.89 28.0638 1662.84 29.038 1663.58 30.3821L1665.33 29.4215ZM1661.69 25.668C1660.18 24.8386 1658.56 24.4237 1656.83 24.4237V26.4237C1658.23 26.4237 1659.52 26.7551 1660.72 27.4185L1661.69 25.668ZM1656.83 24.4237C1655.1 24.4237 1653.48 24.8386 1651.98 25.668L1652.94 27.4185C1654.14 26.7551 1655.43 26.4237 1656.83 26.4237V24.4237ZM1651.97 25.6735C1650.46 26.5253 1649.29 27.7951 1648.43 29.4378L1650.2 30.3658C1650.9 29.0231 1651.82 28.0539 1652.95 27.4129L1651.97 25.6735ZM1648.43 29.429C1647.55 31.0676 1647.14 33.0352 1647.14 35.2862H1649.14C1649.14 33.2723 1649.51 31.6503 1650.19 30.3746L1648.43 29.429ZM1647.14 35.2862C1647.14 38.6136 1647.98 41.3386 1649.8 43.3195L1651.28 41.9667C1649.9 40.4647 1649.14 38.285 1649.14 35.2862H1647.14ZM1649.82 43.335C1651.65 45.246 1653.96 46.202 1656.67 46.202V44.202C1654.48 44.202 1652.7 43.4521 1651.26 41.9512L1649.82 43.335ZM1692.52 10.55H1693.52V9.54996H1692.52V10.55ZM1692.52 50V51H1693.52V50H1692.52ZM1686.44 50H1685.44V51H1686.44V50ZM1686.44 10.55V9.54996H1685.44V10.55H1686.44ZM1691.52 10.55V50H1693.52V10.55H1691.52ZM1692.52 49H1686.44V51H1692.52V49ZM1687.44 50V10.55H1685.44V50H1687.44ZM1686.44 11.55H1692.52V9.54996H1686.44V11.55ZM1698.15 15.6145L1698.86 14.9074V14.9074L1698.15 15.6145ZM1698.15 10.0702L1698.86 10.7773V10.7773L1698.15 10.0702ZM1703.64 10.0702L1702.94 10.7773V10.7773L1703.64 10.0702ZM1703.64 15.6145L1702.94 14.9074V14.9074L1703.64 15.6145ZM1703.91 20.6257H1704.91V19.6257H1703.91V20.6257ZM1703.91 50V51H1704.91V50H1703.91ZM1697.83 50H1696.83V51H1697.83V50ZM1697.83 20.6257V19.6257H1696.83V20.6257H1697.83ZM1700.93 15.734C1700.08 15.734 1699.41 15.4572 1698.86 14.9074L1697.45 16.3216C1698.39 17.2645 1699.57 17.734 1700.93 17.734V15.734ZM1698.86 14.9074C1698.31 14.3575 1698.03 13.6918 1698.03 12.8423H1696.03C1696.03 14.1963 1696.5 15.3787 1697.45 16.3216L1698.86 14.9074ZM1698.03 12.8423C1698.03 11.9928 1698.31 11.3271 1698.86 10.7773L1697.45 9.36305C1696.5 10.3059 1696.03 11.4883 1696.03 12.8423H1698.03ZM1698.86 10.7773C1699.41 10.2274 1700.08 9.95063 1700.93 9.95063V7.95063C1699.57 7.95063 1698.39 8.4202 1697.45 9.36305L1698.86 10.7773ZM1700.93 9.95063C1701.73 9.95063 1702.38 10.2206 1702.94 10.7773L1704.35 9.36305C1703.42 8.42703 1702.25 7.95063 1700.93 7.95063V9.95063ZM1702.94 10.7773C1703.49 11.3271 1703.76 11.9928 1703.76 12.8423H1705.76C1705.76 11.4883 1705.29 10.3059 1704.35 9.36305L1702.94 10.7773ZM1703.76 12.8423C1703.76 13.6918 1703.49 14.3575 1702.94 14.9074L1704.35 16.3216C1705.29 15.3787 1705.76 14.1963 1705.76 12.8423H1703.76ZM1702.94 14.9074C1702.38 15.4641 1701.73 15.734 1700.93 15.734V17.734C1702.25 17.734 1703.42 17.2576 1704.35 16.3216L1702.94 14.9074ZM1702.91 20.6257V50H1704.91V20.6257H1702.91ZM1703.91 49H1697.83V51H1703.91V49ZM1698.83 50V20.6257H1696.83V50H1698.83ZM1697.83 21.6257H1703.91V19.6257H1697.83V21.6257ZM1721.54 25.5836V26.5836H1722.54V25.5836H1721.54ZM1716.1 25.5836V24.5836H1715.1V25.5836H1716.1ZM1716.1 50V51H1717.1V50H1716.1ZM1709.97 50H1708.97V51H1709.97V50ZM1709.97 25.5836H1710.97V24.5836H1709.97V25.5836ZM1706.51 25.5836H1705.51V26.5836H1706.51V25.5836ZM1706.51 20.6257V19.6257H1705.51V20.6257H1706.51ZM1709.97 20.6257V21.6257H1710.97V20.6257H1709.97ZM1712.64 11.1897L1713.29 11.9479L1713.29 11.9468L1712.64 11.1897ZM1721.11 8.84401H1722.11V7.84401H1721.11V8.84401ZM1721.11 13.9085V14.9085H1722.11V13.9085H1721.11ZM1717.22 14.9748L1717.89 15.7163L1717.9 15.7077L1717.91 15.6989L1717.22 14.9748ZM1716.1 20.6257H1715.1V21.6257H1716.1V20.6257ZM1721.54 20.6257H1722.54V19.6257H1721.54V20.6257ZM1721.54 24.5836H1716.1V26.5836H1721.54V24.5836ZM1715.1 25.5836V50H1717.1V25.5836H1715.1ZM1716.1 49H1709.97V51H1716.1V49ZM1710.97 50V25.5836H1708.97V50H1710.97ZM1709.97 24.5836H1706.51V26.5836H1709.97V24.5836ZM1707.51 25.5836V20.6257H1705.51V25.5836H1707.51ZM1706.51 21.6257H1709.97V19.6257H1706.51V21.6257ZM1710.97 20.6257V18.5466H1708.97V20.6257H1710.97ZM1710.97 18.5466C1710.97 15.3295 1711.82 13.2143 1713.29 11.9479L1711.98 10.4315C1709.9 12.2216 1708.97 15.0109 1708.97 18.5466H1710.97ZM1713.29 11.9468C1714.84 10.6103 1717.38 9.84401 1721.11 9.84401V7.84401C1717.17 7.84401 1714.06 8.64155 1711.98 10.4325L1713.29 11.9468ZM1720.11 8.84401V13.9085H1722.11V8.84401H1720.11ZM1721.11 12.9085C1719.19 12.9085 1717.56 13.2668 1716.53 14.2506L1717.91 15.6989C1718.37 15.2611 1719.34 14.9085 1721.11 14.9085V12.9085ZM1716.55 14.2332C1715.49 15.1951 1715.1 16.7452 1715.1 18.5466H1717.1C1717.1 16.936 1717.46 16.105 1717.89 15.7163L1716.55 14.2332ZM1715.1 18.5466V20.6257H1717.1V18.5466H1715.1ZM1716.1 21.6257H1721.54V19.6257H1716.1V21.6257ZM1720.54 20.6257V25.5836H1722.54V20.6257H1720.54ZM1750.97 37.5786V38.5786H1751.82L1751.96 37.7366L1750.97 37.5786ZM1728.52 37.5786V36.5786H1727.45L1727.53 37.6541L1728.52 37.5786ZM1731.14 43.2295L1730.46 43.9695L1731.14 43.2295ZM1743.82 41.257V40.257H1743.2L1742.93 40.8145L1743.82 41.257ZM1750.38 41.257L1751.33 41.5695L1751.76 40.257H1750.38V41.257ZM1745.53 47.9209L1746.12 48.7253L1746.13 48.7238L1745.53 47.9209ZM1729.32 48.6139L1728.82 49.4787L1728.83 49.4835L1728.84 49.4881L1729.32 48.6139ZM1724.1 43.2828L1723.22 43.7569L1723.22 43.7651L1723.23 43.7731L1724.1 43.2828ZM1724.05 27.3429L1723.17 26.8688L1723.16 26.8737L1724.05 27.3429ZM1729.22 22.0118L1728.73 21.1376L1728.73 21.141L1729.22 22.0118ZM1744.3 21.9585L1744.79 21.085L1744.3 21.9585ZM1749.37 27.0763L1748.49 27.5572L1748.5 27.5632L1749.37 27.0763ZM1744.84 32.674V33.674H1745.85L1745.84 32.6581L1744.84 32.674ZM1742.44 27.2896L1743.09 26.5327L1742.44 27.2896ZM1731.24 27.2896L1731.9 28.04L1731.91 28.0311L1731.24 27.2896ZM1728.58 32.674L1727.59 32.5499L1727.45 33.674H1728.58V32.674ZM1750.18 34.5932C1750.18 35.6533 1750.11 36.5944 1749.98 37.4206L1751.96 37.7366C1752.11 36.7857 1752.18 35.7366 1752.18 34.5932H1750.18ZM1750.97 36.5786H1728.52V38.5786H1750.97V36.5786ZM1727.53 37.6541C1727.72 40.2233 1728.69 42.356 1730.46 43.9695L1731.81 42.4896C1730.46 41.2598 1729.68 39.6252 1729.52 37.503L1727.53 37.6541ZM1730.46 43.9695C1732.23 45.5718 1734.39 46.362 1736.89 46.362V44.362C1734.85 44.362 1733.17 43.7305 1731.81 42.4896L1730.46 43.9695ZM1736.89 46.362C1738.67 46.362 1740.25 45.9897 1741.59 45.1961C1742.93 44.4001 1743.97 43.2173 1744.72 41.6996L1742.93 40.8145C1742.33 42.0334 1741.54 42.903 1740.57 43.4753C1739.6 44.0501 1738.39 44.362 1736.89 44.362V46.362ZM1743.82 42.257H1750.38V40.257H1743.82V42.257ZM1749.43 40.9445C1748.61 43.4439 1747.12 45.4959 1744.93 47.118L1746.13 48.7238C1748.63 46.8629 1750.38 44.4723 1751.33 41.5695L1749.43 40.9445ZM1744.94 47.1164C1742.83 48.6715 1740.17 49.4798 1736.89 49.4798V51.4798C1740.51 51.4798 1743.61 50.5821 1746.12 48.7253L1744.94 47.1164ZM1736.89 49.4798C1734.24 49.4798 1731.89 48.8934 1729.81 47.7398L1728.84 49.4881C1731.24 50.8223 1733.93 51.4798 1736.89 51.4798V49.4798ZM1729.83 47.7491C1727.78 46.5616 1726.17 44.9155 1724.97 42.7926L1723.23 43.7731C1724.59 46.1993 1726.46 48.1074 1728.82 49.4787L1729.83 47.7491ZM1724.98 42.8087C1723.83 40.665 1723.23 38.1669 1723.23 35.2862H1721.23C1721.23 38.4474 1721.89 41.2804 1723.22 43.7569L1724.98 42.8087ZM1723.23 35.2862C1723.23 32.4005 1723.81 29.9191 1724.93 27.812L1723.16 26.8737C1721.87 29.3159 1721.23 32.13 1721.23 35.2862H1723.23ZM1724.93 27.817C1726.08 25.6667 1727.68 24.0301 1729.71 22.8826L1728.73 21.141C1726.35 22.4813 1724.5 24.3988 1723.17 26.8688L1724.93 27.817ZM1729.7 22.886C1731.78 21.7344 1734.16 21.1459 1736.89 21.1459V19.1459C1733.87 19.1459 1731.14 19.8014 1728.73 21.1376L1729.7 22.886ZM1736.89 21.1459C1739.52 21.1459 1741.82 21.7159 1743.82 22.832L1744.79 21.085C1742.46 19.7843 1739.82 19.1459 1736.89 19.1459V21.1459ZM1743.82 22.832C1745.82 23.9475 1747.37 25.5164 1748.49 27.5572L1750.25 26.5955C1748.95 24.2292 1747.13 22.3862 1744.79 21.085L1743.82 22.832ZM1748.5 27.5632C1749.61 29.5618 1750.18 31.8952 1750.18 34.5932H1752.18C1752.18 31.6046 1751.55 28.9268 1750.24 26.5895L1748.5 27.5632ZM1745.84 32.6581C1745.8 30.1608 1744.89 28.0865 1743.09 26.5327L1741.79 28.0464C1743.11 29.1937 1743.81 30.709 1743.84 32.6898L1745.84 32.6581ZM1743.09 26.5327C1741.33 25.0066 1739.15 24.2638 1736.63 24.2638V26.2638C1738.73 26.2638 1740.42 26.8715 1741.79 28.0464L1743.09 26.5327ZM1736.63 24.2638C1734.29 24.2638 1732.26 25.0237 1730.57 26.548L1731.91 28.0311C1733.21 26.8544 1734.77 26.2638 1736.63 26.2638V24.2638ZM1730.58 26.5392C1728.88 28.0399 1727.9 30.0724 1727.59 32.5499L1729.57 32.798C1729.83 30.7264 1730.62 29.1692 1731.9 28.0399L1730.58 26.5392ZM1728.58 33.674H1744.84V31.674H1728.58V33.674Z" fill="#EAEBF0"/>
<path d="M1837.68 24.9972C1838.71 23.5756 1840.11 22.4205 1841.89 21.532C1843.7 20.6079 1845.71 20.1459 1847.91 20.1459C1850.51 20.1459 1852.85 20.7679 1854.95 22.0118C1857.05 23.2557 1858.7 25.0327 1859.91 27.3429C1861.12 29.6175 1861.72 32.2297 1861.72 35.1796C1861.72 38.1294 1861.12 40.7772 1859.91 43.1229C1858.7 45.433 1857.03 47.2456 1854.9 48.5606C1852.8 49.8401 1850.47 50.4798 1847.91 50.4798C1845.64 50.4798 1843.61 50.0355 1841.84 49.147C1840.09 48.2585 1838.71 47.1212 1837.68 45.7351V50H1831.6V10.55H1837.68V24.9972ZM1855.54 35.1796C1855.54 33.1538 1855.11 31.4123 1854.26 29.9551C1853.44 28.4624 1852.34 27.3429 1850.95 26.5965C1849.6 25.8146 1848.14 25.4237 1846.58 25.4237C1845.05 25.4237 1843.59 25.8146 1842.21 26.5965C1840.86 27.3784 1839.76 28.5157 1838.9 30.0084C1838.09 31.5011 1837.68 33.2604 1837.68 35.2862C1837.68 37.312 1838.09 39.089 1838.9 40.6173C1839.76 42.11 1840.86 43.2473 1842.21 44.0292C1843.59 44.8111 1845.05 45.202 1846.58 45.202C1848.14 45.202 1849.6 44.8111 1850.95 44.0292C1852.34 43.2117 1853.44 42.0389 1854.26 40.5107C1855.11 38.9824 1855.54 37.2054 1855.54 35.1796ZM1891.67 20.6257V50H1885.59V46.5348C1884.63 47.7432 1883.37 48.7028 1881.8 49.4136C1880.28 50.0889 1878.64 50.4265 1876.9 50.4265C1874.59 50.4265 1872.51 49.9467 1870.66 48.9871C1868.85 48.0275 1867.41 46.6059 1866.34 44.7222C1865.31 42.8386 1864.8 40.564 1864.8 37.8984V20.6257H1870.82V36.9921C1870.82 39.6222 1871.48 41.648 1872.8 43.0696C1874.11 44.4557 1875.9 45.1487 1878.18 45.1487C1880.45 45.1487 1882.25 44.4557 1883.56 43.0696C1884.91 41.648 1885.59 39.6222 1885.59 36.9921V20.6257H1891.67ZM1903.1 24.8906C1903.99 23.3979 1905.16 22.2428 1906.62 21.4254C1908.11 20.5724 1909.87 20.1459 1911.89 20.1459V26.4366H1910.35C1907.97 26.4366 1906.15 27.0408 1904.91 28.2492C1903.7 29.4575 1903.1 31.5544 1903.1 34.5398V50H1897.02V20.6257H1903.1V24.8906ZM1929.64 20.1459C1931.95 20.1459 1934.01 20.6257 1935.82 21.5853C1937.67 22.5449 1939.11 23.9665 1940.14 25.8502C1941.17 27.7338 1941.68 30.0084 1941.68 32.674V50H1935.66V33.5803C1935.66 30.9502 1935 28.9422 1933.69 27.5561C1932.37 26.1345 1930.58 25.4237 1928.3 25.4237C1926.03 25.4237 1924.22 26.1345 1922.86 27.5561C1921.55 28.9422 1920.89 30.9502 1920.89 33.5803V50H1914.81V20.6257H1920.89V23.9843C1921.89 22.7759 1923.15 21.8341 1924.68 21.1588C1926.24 20.4835 1927.89 20.1459 1929.64 20.1459ZM1965.04 25.5836V41.8434C1965.04 42.9452 1965.29 43.7449 1965.79 44.2424C1966.32 44.7045 1967.21 44.9355 1968.46 44.9355H1972.19V50H1967.39C1964.65 50 1962.56 49.3603 1961.1 48.0808C1959.64 46.8013 1958.91 44.7222 1958.91 41.8434V25.5836H1955.45V20.6257H1958.91V13.3221H1965.04V20.6257H1972.19V25.5836H1965.04ZM1987.86 50.4798C1985.09 50.4798 1982.59 49.8578 1980.35 48.6139C1978.11 47.3345 1976.35 45.5574 1975.07 43.2828C1973.79 40.9727 1973.15 38.3071 1973.15 35.2862C1973.15 32.3008 1973.81 29.653 1975.12 27.3429C1976.44 25.0327 1978.23 23.2557 1980.51 22.0118C1982.78 20.7679 1985.32 20.1459 1988.13 20.1459C1990.94 20.1459 1993.48 20.7679 1995.75 22.0118C1998.03 23.2557 1999.82 25.0327 2001.14 27.3429C2002.45 29.653 2003.11 32.3008 2003.11 35.2862C2003.11 38.2716 2002.44 40.9194 2001.09 43.2295C1999.73 45.5397 1997.89 47.3345 1995.54 48.6139C1993.23 49.8578 1990.67 50.4798 1987.86 50.4798ZM1987.86 45.202C1989.43 45.202 1990.89 44.8288 1992.24 44.0825C1993.62 43.3361 1994.74 42.2166 1995.59 40.7239C1996.45 39.2312 1996.87 37.4186 1996.87 35.2862C1996.87 33.1538 1996.46 31.359 1995.65 29.9018C1994.83 28.4091 1993.75 27.2896 1992.4 26.5432C1991.04 25.7969 1989.59 25.4237 1988.02 25.4237C1986.46 25.4237 1985 25.7969 1983.65 26.5432C1982.34 27.2896 1981.29 28.4091 1980.51 29.9018C1979.73 31.359 1979.33 33.1538 1979.33 35.2862C1979.33 38.4493 1980.13 40.9016 1981.73 42.6431C1983.37 44.349 1985.41 45.202 1987.86 45.202ZM2023.71 10.55V50H2017.64V10.55H2023.71ZM2032.12 16.734C2031.02 16.734 2030.09 16.3608 2029.35 15.6145C2028.6 14.8681 2028.23 13.9441 2028.23 12.8423C2028.23 11.7406 2028.6 10.8165 2029.35 10.0702C2030.09 9.32381 2031.02 8.95063 2032.12 8.95063C2033.19 8.95063 2034.09 9.32381 2034.84 10.0702C2035.58 10.8165 2035.96 11.7406 2035.96 12.8423C2035.96 13.9441 2035.58 14.8681 2034.84 15.6145C2034.09 16.3608 2033.19 16.734 2032.12 16.734ZM2035.1 20.6257V50H2029.03V20.6257H2035.1ZM2052.73 25.5836H2047.3V50H2041.16V25.5836H2037.7V20.6257H2041.16V18.5466C2041.16 15.1702 2042.05 12.7179 2043.83 11.1897C2045.64 9.6259 2048.47 8.84401 2052.31 8.84401V13.9085C2050.46 13.9085 2049.16 14.2639 2048.41 14.9748C2047.67 15.65 2047.3 16.8406 2047.3 18.5466V20.6257H2052.73V25.5836ZM2082.38 34.5932C2082.38 35.6949 2082.3 36.6901 2082.16 37.5786H2059.72C2059.9 39.9242 2060.77 41.8079 2062.33 43.2295C2063.89 44.6511 2065.81 45.362 2068.09 45.362C2071.36 45.362 2073.67 43.9936 2075.02 41.257H2081.58C2080.69 43.9581 2079.07 46.1794 2076.72 47.9209C2074.41 49.6268 2071.54 50.4798 2068.09 50.4798C2065.28 50.4798 2062.76 49.8578 2060.52 48.6139C2058.31 47.3345 2056.57 45.5574 2055.29 43.2828C2054.05 40.9727 2053.43 38.3071 2053.43 35.2862C2053.43 32.2652 2054.03 29.6175 2055.24 27.3429C2056.48 25.0327 2058.21 23.2557 2060.41 22.0118C2062.65 20.7679 2065.21 20.1459 2068.09 20.1459C2070.86 20.1459 2073.33 20.7501 2075.5 21.9585C2077.67 23.1669 2079.35 24.8728 2080.56 27.0763C2081.77 29.2443 2082.38 31.7499 2082.38 34.5932ZM2076.03 32.674C2076 30.4349 2075.2 28.6401 2073.63 27.2896C2072.07 25.939 2070.13 25.2638 2067.82 25.2638C2065.72 25.2638 2063.93 25.939 2062.44 27.2896C2060.94 28.6046 2060.06 30.3994 2059.77 32.674H2076.03Z" fill="#EAEBF0"/>
<path d="M1175.29 24.9972C1176.32 23.5756 1177.72 22.4205 1179.5 21.532C1181.31 20.6079 1183.32 20.1459 1185.53 20.1459C1188.12 20.1459 1190.47 20.7679 1192.56 22.0118C1194.66 23.2557 1196.31 25.0327 1197.52 27.3429C1198.73 29.6175 1199.33 32.2297 1199.33 35.1796C1199.33 38.1294 1198.73 40.7772 1197.52 43.1229C1196.31 45.433 1194.64 47.2456 1192.51 48.5606C1190.41 49.8401 1188.08 50.4798 1185.53 50.4798C1183.25 50.4798 1181.23 50.0355 1179.45 49.147C1177.71 48.2585 1176.32 47.1212 1175.29 45.7351V50H1169.21V10.55H1175.29V24.9972ZM1193.15 35.1796C1193.15 33.1538 1192.72 31.4123 1191.87 29.9551C1191.05 28.4624 1189.95 27.3429 1188.56 26.5965C1187.21 25.8146 1185.76 25.4237 1184.19 25.4237C1182.66 25.4237 1181.21 25.8146 1179.82 26.5965C1178.47 27.3784 1177.37 28.5157 1176.52 30.0084C1175.7 31.5011 1175.29 33.2604 1175.29 35.2862C1175.29 37.312 1175.7 39.089 1176.52 40.6173C1177.37 42.11 1178.47 43.2473 1179.82 44.0292C1181.21 44.8111 1182.66 45.202 1184.19 45.202C1185.76 45.202 1187.21 44.8111 1188.56 44.0292C1189.95 43.2117 1191.05 42.0389 1191.87 40.5107C1192.72 38.9824 1193.15 37.2054 1193.15 35.1796ZM1229.28 20.6257V50H1223.2V46.5348C1222.24 47.7432 1220.98 48.7028 1219.42 49.4136C1217.89 50.0889 1216.25 50.4265 1214.51 50.4265C1212.2 50.4265 1210.12 49.9467 1208.28 48.9871C1206.46 48.0275 1205.02 46.6059 1203.96 44.7222C1202.93 42.8386 1202.41 40.564 1202.41 37.8984V20.6257H1208.44V36.9921C1208.44 39.6222 1209.09 41.648 1210.41 43.0696C1211.72 44.4557 1213.52 45.1487 1215.79 45.1487C1218.07 45.1487 1219.86 44.4557 1221.18 43.0696C1222.53 41.648 1223.2 39.6222 1223.2 36.9921V20.6257H1229.28ZM1240.71 24.8906C1241.6 23.3979 1242.77 22.2428 1244.23 21.4254C1245.72 20.5724 1247.48 20.1459 1249.51 20.1459V26.4366H1247.96C1245.58 26.4366 1243.77 27.0408 1242.52 28.2492C1241.31 29.4575 1240.71 31.5544 1240.71 34.5398V50H1234.63V20.6257H1240.71V24.8906ZM1267.25 20.1459C1269.56 20.1459 1271.62 20.6257 1273.43 21.5853C1275.28 22.5449 1276.72 23.9665 1277.75 25.8502C1278.78 27.7338 1279.3 30.0084 1279.3 32.674V50H1273.27V33.5803C1273.27 30.9502 1272.61 28.9422 1271.3 27.5561C1269.98 26.1345 1268.19 25.4237 1265.91 25.4237C1263.64 25.4237 1261.83 26.1345 1260.48 27.5561C1259.16 28.9422 1258.5 30.9502 1258.5 33.5803V50H1252.43V20.6257H1258.5V23.9843C1259.5 22.7759 1260.76 21.8341 1262.29 21.1588C1263.85 20.4835 1265.51 20.1459 1267.25 20.1459ZM1302.66 25.5836V41.8434C1302.66 42.9452 1302.9 43.7449 1303.4 44.2424C1303.94 44.7045 1304.82 44.9355 1306.07 44.9355H1309.8V50H1305C1302.26 50 1300.17 49.3603 1298.71 48.0808C1297.25 46.8013 1296.52 44.7222 1296.52 41.8434V25.5836H1293.06V20.6257H1296.52V13.3221H1302.66V20.6257H1309.8V25.5836H1302.66ZM1325.48 50.4798C1322.7 50.4798 1320.2 49.8578 1317.96 48.6139C1315.72 47.3345 1313.96 45.5574 1312.68 43.2828C1311.4 40.9727 1310.76 38.3071 1310.76 35.2862C1310.76 32.3008 1311.42 29.653 1312.74 27.3429C1314.05 25.0327 1315.85 23.2557 1318.12 22.0118C1320.39 20.7679 1322.94 20.1459 1325.74 20.1459C1328.55 20.1459 1331.09 20.7679 1333.37 22.0118C1335.64 23.2557 1337.44 25.0327 1338.75 27.3429C1340.07 29.653 1340.72 32.3008 1340.72 35.2862C1340.72 38.2716 1340.05 40.9194 1338.7 43.2295C1337.35 45.5397 1335.5 47.3345 1333.15 48.6139C1330.84 49.8578 1328.28 50.4798 1325.48 50.4798ZM1325.48 45.202C1327.04 45.202 1328.5 44.8288 1329.85 44.0825C1331.23 43.3361 1332.35 42.2166 1333.21 40.7239C1334.06 39.2312 1334.49 37.4186 1334.49 35.2862C1334.49 33.1538 1334.08 31.359 1333.26 29.9018C1332.44 28.4091 1331.36 27.2896 1330.01 26.5432C1328.66 25.7969 1327.2 25.4237 1325.64 25.4237C1324.07 25.4237 1322.62 25.7969 1321.26 26.5432C1319.95 27.2896 1318.9 28.4091 1318.12 29.9018C1317.34 31.359 1316.95 33.1538 1316.95 35.2862C1316.95 38.4493 1317.75 40.9016 1319.35 42.6431C1320.98 44.349 1323.02 45.202 1325.48 45.202ZM1361.33 10.55V50H1355.25V10.55H1361.33ZM1369.73 16.734C1368.63 16.734 1367.71 16.3608 1366.96 15.6145C1366.21 14.8681 1365.84 13.9441 1365.84 12.8423C1365.84 11.7406 1366.21 10.8165 1366.96 10.0702C1367.71 9.32381 1368.63 8.95063 1369.73 8.95063C1370.8 8.95063 1371.7 9.32381 1372.45 10.0702C1373.2 10.8165 1373.57 11.7406 1373.57 12.8423C1373.57 13.9441 1373.2 14.8681 1372.45 15.6145C1371.7 16.3608 1370.8 16.734 1369.73 16.734ZM1372.72 20.6257V50H1366.64V20.6257H1372.72ZM1390.35 25.5836H1384.91V50H1378.78V25.5836H1375.31V20.6257H1378.78V18.5466C1378.78 15.1702 1379.67 12.7179 1381.44 11.1897C1383.26 9.6259 1386.08 8.84401 1389.92 8.84401V13.9085C1388.07 13.9085 1386.77 14.2639 1386.03 14.9748C1385.28 15.65 1384.91 16.8406 1384.91 18.5466V20.6257H1390.35V25.5836ZM1419.99 34.5932C1419.99 35.6949 1419.92 36.6901 1419.77 37.5786H1397.33C1397.51 39.9242 1398.38 41.8079 1399.94 43.2295C1401.51 44.6511 1403.43 45.362 1405.7 45.362C1408.97 45.362 1411.28 43.9936 1412.63 41.257H1419.19C1418.3 43.9581 1416.68 46.1794 1414.34 47.9209C1412.03 49.6268 1409.15 50.4798 1405.7 50.4798C1402.89 50.4798 1400.37 49.8578 1398.13 48.6139C1395.93 47.3345 1394.19 45.5574 1392.91 43.2828C1391.66 40.9727 1391.04 38.3071 1391.04 35.2862C1391.04 32.2652 1391.64 29.6175 1392.85 27.3429C1394.1 25.0327 1395.82 23.2557 1398.02 22.0118C1400.26 20.7679 1402.82 20.1459 1405.7 20.1459C1408.47 20.1459 1410.94 20.7501 1413.11 21.9585C1415.28 23.1669 1416.97 24.8728 1418.18 27.0763C1419.38 29.2443 1419.99 31.7499 1419.99 34.5932ZM1413.64 32.674C1413.61 30.4349 1412.81 28.6401 1411.24 27.2896C1409.68 25.939 1407.74 25.2638 1405.43 25.2638C1403.34 25.2638 1401.54 25.939 1400.05 27.2896C1398.56 28.6046 1397.67 30.3994 1397.38 32.674H1413.64Z" fill="#EAEBF0"/>
<path d="M1798.34 0.154336L1783.47 58.3165H1782.4L1797.17 0.154336H1798.34Z" fill="#EAEBF0"/>
<path d="M1135.96 0.154336L1121.08 58.3165H1120.02L1134.78 0.154336H1135.96Z" fill="#EAEBF0"/>
<path d="M1467.15 0.154336L1452.28 58.3165H1451.21L1465.98 0.154336H1467.15Z" fill="#EAEBF0"/>
</svg>
