<svg width="22" height="14" viewBox="0 0 22 14" fill="none" xmlns="http://www.w3.org/2000/svg">
<g filter="url(#filter0_b_399_13721)">
<path d="M20.4117 11.3091C20.1606 11.202 19.8566 11.0964 19.4998 11.0016C15.9585 10.7499 13.2279 11.4484 10.5917 12.1229C10.4408 12.1615 10.2901 12.2 10.1397 12.2383C9.33323 12.4433 8.50946 12.5466 7.68322 12.5464H6.37496C5.8759 12.5464 4.15696 12.4908 2.99377 11.7678C1.97899 11.138 1.26859 10.1411 1.09974 9.14187C0.93885 8.8163 0.790822 8.43506 0.682497 8.12476C0.620499 8.23733 0.580935 8.36461 0.567174 8.49758C0.56507 8.59577 0.567293 8.69403 0.573834 8.79197C0.60925 10.0574 1.37929 11.3262 2.59511 12.1474C2.93769 12.3471 3.29029 12.5235 3.65107 12.6758C4.53663 12.9642 5.45357 13.1078 6.37447 13.1022H9.88287C9.88287 13.1022 18.6046 13.1003 18.6192 13.0985C19.4777 12.9296 20.0443 12.2086 20.4117 11.3091Z" fill="#EAEBF0"/>
<g filter="url(#filter1_b_399_13721)">
<path fill-rule="evenodd" clip-rule="evenodd" d="M20.1565 3.24747C20.6402 4.50146 20.9352 5.83954 21.0289 7.20544C21.0745 8.054 20.9876 9.90031 20.4122 11.309C20.1612 11.202 19.8574 11.0964 19.5007 11.0016C19.6574 11.0128 19.8157 11.0257 19.9756 11.0407L19.978 11.0392C20.2164 10.4068 20.3763 9.73943 20.4529 9.05651C18.6982 8.68778 16.3253 8.3704 14.0904 8.64162C13.9768 8.66054 13.8622 8.67912 13.7469 8.69785C12.7543 8.85893 11.6977 9.03039 10.5538 9.51534C6.52456 11.2203 3.42215 11.0222 1.07109 8.91284C1.07754 8.98884 1.08724 9.065 1.10009 9.14113C0.939287 8.81564 0.791361 8.43462 0.683105 8.1245C0.700517 8.09291 0.719696 8.06248 0.740567 8.03341C0.835854 7.90069 0.96244 7.80187 1.10537 7.74862C2.15746 7.29151 5.05236 6.11511 6.30634 5.60554C6.35936 5.58399 6.40944 5.56364 6.45633 5.54458C6.48658 5.53249 6.51928 5.53088 6.55033 5.53995C6.58137 5.54903 6.60938 5.56837 6.63081 5.59556L7.69441 6.95147C7.71896 6.98286 7.74944 7.00748 7.78354 7.02348C7.81765 7.03948 7.85449 7.04644 7.89129 7.04384C7.9281 7.04123 7.9639 7.02913 7.99601 7.00844C8.02812 6.98775 8.0557 6.95902 8.07666 6.9244C8.10753 6.87048 8.12165 6.8063 8.11676 6.74213C8.11187 6.67797 8.08825 6.61753 8.0497 6.5705L7.10209 5.36123C7.0741 5.32536 7.0594 5.27848 7.0611 5.23048C7.0628 5.18248 7.08075 5.13711 7.11119 5.10392L7.28307 4.91853C7.30104 4.89904 7.32268 4.8845 7.34634 4.87603C7.36999 4.86756 7.39504 4.86537 7.41955 4.86965C7.44406 4.87393 7.46738 4.88455 7.48774 4.9007C7.50809 4.91686 7.52494 4.93811 7.53699 4.96284L8.54421 7.02989C8.5756 7.09437 8.62815 7.14198 8.6903 7.16225C8.75245 7.18252 8.81911 7.17378 8.87562 7.13796C8.93213 7.10215 8.97385 7.04218 8.99161 6.97126C9.00937 6.90033 9.00172 6.82426 8.97033 6.75978L8.4867 5.76686C8.4833 5.76002 8.48206 5.75205 8.48319 5.7443C8.48432 5.73654 8.48775 5.72946 8.49291 5.72425C8.49807 5.71903 8.50464 5.716 8.51153 5.71566C8.51841 5.71532 8.52519 5.71768 8.53073 5.72236L9.26178 6.32412C9.28774 6.3455 9.31714 6.36083 9.34829 6.36924C9.37945 6.37765 9.41175 6.37897 9.44336 6.37314C9.47496 6.3673 9.50525 6.35442 9.53249 6.33523C9.55973 6.31603 9.58339 6.29091 9.60212 6.26128C9.62085 6.23165 9.63429 6.1981 9.64166 6.16255C9.64903 6.127 9.65019 6.09014 9.64507 6.05407C9.63996 6.01801 9.62867 5.98345 9.61185 5.95236C9.59503 5.92127 9.57301 5.89427 9.54705 5.8729L7.95498 4.49233C7.93623 4.47607 7.92079 4.45535 7.90975 4.4316C7.89871 4.40786 7.89233 4.38166 7.89105 4.35482C7.88977 4.32797 7.89361 4.30114 7.90233 4.27616C7.91104 4.25119 7.9244 4.22867 7.9415 4.21018L8.3569 3.76359C8.37359 3.74553 8.39345 3.73172 8.41517 3.72307C8.43689 3.71443 8.45997 3.71115 8.48288 3.71344C8.5058 3.71574 8.52802 3.72356 8.54809 3.73639C8.56816 3.74922 8.58561 3.76677 8.59928 3.78787L10.0971 6.09925C10.117 6.12994 10.1421 6.15565 10.171 6.17477C10.2 6.19389 10.232 6.20602 10.2652 6.2104C10.2984 6.21478 10.3321 6.21132 10.364 6.20024C10.396 6.18916 10.4257 6.17068 10.4511 6.14597C10.4979 6.09627 10.5268 6.02836 10.5319 5.95562C10.5371 5.88288 10.5181 5.81057 10.4789 5.75295L9.8229 4.73778C9.81883 4.73138 9.81682 4.72359 9.81719 4.71569C9.81757 4.7078 9.8203 4.7003 9.82495 4.69443C9.82959 4.68857 9.83586 4.6847 9.8427 4.68348C9.84954 4.68226 9.85655 4.68376 9.86254 4.68773L10.8332 5.3427C10.8888 5.38026 10.9553 5.39107 11.0179 5.37275C11.0805 5.35443 11.1341 5.30847 11.1671 5.245C11.2 5.18152 11.2094 5.10573 11.1934 5.03428C11.1773 4.96284 11.1371 4.9016 11.0814 4.86403L9.02508 3.36019C9.00432 3.34501 8.98686 3.32463 8.97403 3.30061C8.96119 3.27658 8.95332 3.24954 8.951 3.22153C8.94869 3.19352 8.95199 3.16527 8.96066 3.13893C8.96933 3.11259 8.98313 3.08885 9.00104 3.0695C9.15147 2.90729 9.30288 2.74471 9.45266 2.58417C9.46878 2.567 9.4878 2.55376 9.50854 2.54525C9.52929 2.53674 9.55134 2.53314 9.57335 2.53466C9.59536 2.53619 9.61686 2.54281 9.63656 2.55413C9.65625 2.56544 9.67372 2.58121 9.6879 2.60048L11.4642 5.01623C11.5057 5.07277 11.5652 5.10818 11.6296 5.11467C11.694 5.12115 11.758 5.09818 11.8075 5.05081C11.8571 5.00343 11.8881 4.93554 11.8938 4.86206C11.8995 4.78858 11.8793 4.71554 11.8378 4.659L10.0321 2.20227C10.0055 2.16597 9.99196 2.11938 9.99444 2.07207C9.99692 2.02477 10.0152 1.98035 10.0455 1.94793C10.4665 1.49614 10.8418 1.09515 11.1061 0.817076C11.2448 0.667539 11.4179 0.566155 11.6052 0.524788C11.7925 0.483421 11.9862 0.503783 12.1637 0.583491C12.3372 0.660135 12.4881 0.791415 12.5989 0.962066C12.7096 1.13272 12.7756 1.33573 12.7892 1.54749L12.8314 2.25325C12.8554 2.67862 13.0054 3.08203 13.2569 3.3972C13.5084 3.71236 13.8463 3.92055 14.2152 3.98753C16.0864 4.31233 17.4466 3.43008 17.978 2.79328C18.1292 2.611 18.3179 2.47468 18.5269 2.39666C18.736 2.31865 18.9588 2.30142 19.1752 2.34653C19.3915 2.39163 19.5946 2.49766 19.766 2.65498C19.9373 2.81231 20.0716 3.01596 20.1565 3.24747Z" fill="#EAEBF0"/>
</g>
</g>
<defs>
<filter id="filter0_b_399_13721" x="-119.434" y="-119.496" width="260.473" height="252.598" filterUnits="userSpaceOnUse" color-interpolation-filters="sRGB">
<feFlood flood-opacity="0" result="BackgroundImageFix"/>
<feGaussianBlur in="BackgroundImage" stdDeviation="60"/>
<feComposite in2="SourceAlpha" operator="in" result="effect1_backgroundBlur_399_13721"/>
<feBlend mode="normal" in="SourceGraphic" in2="effect1_backgroundBlur_399_13721" result="shape"/>
</filter>
<filter id="filter1_b_399_13721" x="-119.317" y="-119.496" width="260.356" height="250.805" filterUnits="userSpaceOnUse" color-interpolation-filters="sRGB">
<feFlood flood-opacity="0" result="BackgroundImageFix"/>
<feGaussianBlur in="BackgroundImage" stdDeviation="60"/>
<feComposite in2="SourceAlpha" operator="in" result="effect1_backgroundBlur_399_13721"/>
<feBlend mode="normal" in="SourceGraphic" in2="effect1_backgroundBlur_399_13721" result="shape"/>
</filter>
</defs>
</svg>
