<svg width="52" height="32" viewBox="0 0 52 32" fill="none" xmlns="http://www.w3.org/2000/svg">
<g filter="url(#filter0_b_409_15781)">
<path d="M50.407 27.4454C49.7693 27.1734 48.9971 26.9052 48.0907 26.6643C39.0959 26.025 32.1603 27.7993 25.4642 29.5124C25.0809 29.6105 24.6983 29.7083 24.3162 29.8055C22.2677 30.3262 20.1754 30.5887 18.0767 30.5881H14.7537C13.4861 30.5881 9.11999 30.4469 6.16551 28.6104C3.58796 27.0107 1.78354 24.4788 1.35468 21.9406C0.946006 21.1137 0.570017 20.1453 0.294869 19.3572C0.137396 19.6431 0.0369036 19.9664 0.00194891 20.3041C-0.00339466 20.5536 0.00225185 20.8031 0.018867 21.0519C0.108822 24.2661 2.06472 27.4888 5.1529 29.5748C6.02307 30.0819 6.91867 30.53 7.83504 30.9168C10.0844 31.6494 12.4134 32.014 14.7525 31.9998H23.6638C23.6638 31.9998 45.8171 31.9951 45.8542 31.9904C48.0346 31.5614 49.4738 29.73 50.407 27.4454Z" fill="#EAEBF0" fill-opacity="0.4"/>
<g filter="url(#filter1_b_409_15781)">
<path fill-rule="evenodd" clip-rule="evenodd" d="M49.7574 6.96872C50.986 10.1539 51.7351 13.5526 51.9733 17.022C52.0891 19.1773 51.8684 23.8669 50.4069 27.445C49.7693 27.1731 48.9976 26.9051 48.0917 26.6642C48.4896 26.6925 48.8916 26.7255 49.2978 26.7635L49.304 26.7597C49.9096 25.1533 50.3156 23.4583 50.5101 21.7237C46.0532 20.7871 40.0262 19.981 34.3496 20.6699C34.0608 20.7179 33.7699 20.7651 33.4769 20.8127C30.9557 21.2218 28.272 21.6573 25.3665 22.8891C15.1322 27.2198 7.25209 26.7164 1.2804 21.3588C1.29679 21.5518 1.32143 21.7452 1.35405 21.9386C0.945621 21.1119 0.569893 20.1441 0.294922 19.3564C0.339148 19.2761 0.387862 19.1988 0.440876 19.125C0.682905 18.7879 1.00443 18.5369 1.36747 18.4016C4.03973 17.2406 11.3926 14.2526 14.5777 12.9583C14.7125 12.9035 14.8398 12.8518 14.9589 12.8034C15.0357 12.7727 15.1188 12.7686 15.1977 12.7916C15.2765 12.8147 15.3476 12.8638 15.4021 12.9329L18.1036 16.3769C18.166 16.4566 18.2434 16.5191 18.33 16.5598C18.4167 16.6004 18.5102 16.6181 18.6037 16.6115C18.6972 16.6049 18.7881 16.5741 18.8697 16.5216C18.9513 16.469 19.0213 16.396 19.0746 16.3081C19.153 16.1712 19.1888 16.0081 19.1764 15.8452C19.164 15.6822 19.104 15.5287 19.0061 15.4092L16.5992 12.3377C16.528 12.2465 16.4907 12.1275 16.495 12.0056C16.4993 11.8836 16.545 11.7684 16.6223 11.6841L17.0588 11.2132C17.1045 11.1637 17.1594 11.1268 17.2195 11.1053C17.2796 11.0837 17.3432 11.0782 17.4055 11.0891C17.4677 11.0999 17.527 11.1269 17.5787 11.1679C17.6304 11.209 17.6732 11.2629 17.7038 11.3258L20.2621 16.576C20.3419 16.7398 20.4753 16.8608 20.6332 16.9123C20.7911 16.9637 20.9604 16.9415 21.1039 16.8506C21.2474 16.7596 21.3534 16.6073 21.3985 16.4271C21.4436 16.247 21.4242 16.0538 21.3445 15.89L20.1161 13.368C20.1074 13.3506 20.1043 13.3304 20.1071 13.3106C20.11 13.2909 20.1187 13.273 20.1318 13.2597C20.1449 13.2465 20.1616 13.2388 20.1791 13.2379C20.1966 13.237 20.2138 13.2431 20.2279 13.2549L22.0848 14.7834C22.1507 14.8377 22.2254 14.8766 22.3045 14.898C22.3836 14.9194 22.4657 14.9227 22.546 14.9079C22.6262 14.8931 22.7032 14.8604 22.7724 14.8116C22.8415 14.7629 22.9016 14.699 22.9492 14.6238C22.9968 14.5485 23.0309 14.4633 23.0496 14.373C23.0684 14.2827 23.0713 14.1891 23.0583 14.0975C23.0453 14.0059 23.0167 13.9181 22.9739 13.8391C22.9312 13.7602 22.8753 13.6916 22.8093 13.6373L18.7655 10.1307C18.7179 10.0894 18.6787 10.0367 18.6506 9.97641C18.6226 9.9161 18.6064 9.84955 18.6031 9.78137C18.5998 9.71319 18.6096 9.64503 18.6317 9.58159C18.6539 9.51815 18.6878 9.46097 18.7312 9.41399L19.7864 8.27965C19.8288 8.23378 19.8792 8.1987 19.9344 8.17674C19.9895 8.15479 20.0482 8.14645 20.1064 8.15228C20.1646 8.15811 20.221 8.17798 20.272 8.21057C20.323 8.24316 20.3673 8.28773 20.402 8.34133L24.2065 14.2122C24.2569 14.2902 24.3208 14.3555 24.3943 14.4041C24.4677 14.4526 24.5492 14.4834 24.6335 14.4946C24.7178 14.5057 24.8033 14.4969 24.8845 14.4687C24.9657 14.4406 25.041 14.3937 25.1057 14.3309C25.2246 14.2047 25.2979 14.0322 25.3109 13.8474C25.324 13.6626 25.2759 13.479 25.1762 13.3326L23.51 10.7541C23.4997 10.7379 23.4946 10.718 23.4955 10.698C23.4965 10.678 23.5034 10.6589 23.5152 10.644C23.527 10.6291 23.5429 10.6193 23.5603 10.6162C23.5777 10.6131 23.5955 10.6169 23.6107 10.627L26.0762 12.2906C26.2175 12.386 26.3862 12.4135 26.5452 12.3669C26.7042 12.3204 26.8405 12.2037 26.9242 12.0424C27.0078 11.8812 27.0318 11.6887 26.9911 11.5072C26.9503 11.3257 26.848 11.1702 26.7067 11.0748L21.4835 7.25502C21.4308 7.21645 21.3865 7.1647 21.3539 7.10368C21.3213 7.04266 21.3013 6.97397 21.2954 6.90283C21.2895 6.83168 21.2979 6.75993 21.3199 6.69303C21.3419 6.62613 21.377 6.56582 21.4225 6.51668C21.8046 6.10466 22.1891 5.6917 22.5696 5.28392C22.6105 5.24032 22.6588 5.20669 22.7115 5.18507C22.7642 5.16346 22.8203 5.1543 22.8762 5.15818C22.9321 5.16206 22.9867 5.17888 23.0367 5.20762C23.0867 5.23636 23.1311 5.27642 23.1671 5.32536L27.6789 11.4614C27.7843 11.605 27.9354 11.6949 28.099 11.7114C28.2625 11.7279 28.4251 11.6695 28.551 11.5492C28.6768 11.4289 28.7556 11.2564 28.7701 11.0698C28.7845 10.8831 28.7334 10.6976 28.6279 10.554L24.0415 4.31391C23.9737 4.22169 23.9394 4.10336 23.9457 3.98321C23.952 3.86305 23.9984 3.75022 24.0753 3.66787C25.1449 2.52034 26.0981 1.50183 26.7694 0.795512C27.1216 0.415688 27.5612 0.158172 28.037 0.0531001C28.5127 -0.0519715 29.0048 -0.000251331 29.4557 0.202207C29.8964 0.396883 30.2797 0.730335 30.5609 1.16379C30.8422 1.59724 31.0098 2.11289 31.0443 2.65077L31.1516 4.4434C31.2125 5.52383 31.5936 6.54849 32.2324 7.34902C32.8711 8.14955 33.7295 8.67832 34.6665 8.84847C39.4192 9.67345 42.8742 7.43254 44.224 5.81507C44.608 5.35209 45.0873 5.00582 45.6183 4.80767C46.1492 4.60951 46.7152 4.56574 47.2647 4.68031C47.8143 4.79489 48.3301 5.06419 48.7654 5.4638C49.2007 5.86341 49.5417 6.38068 49.7574 6.96872Z" fill="#EAEBF0" fill-opacity="0.2"/>
</g>
</g>
<defs>
<filter id="filter0_b_409_15781" x="-120" y="-120" width="292" height="272" filterUnits="userSpaceOnUse" color-interpolation-filters="sRGB">
<feFlood flood-opacity="0" result="BackgroundImageFix"/>
<feGaussianBlur in="BackgroundImage" stdDeviation="60"/>
<feComposite in2="SourceAlpha" operator="in" result="effect1_backgroundBlur_409_15781"/>
<feBlend mode="normal" in="SourceGraphic" in2="effect1_backgroundBlur_409_15781" result="shape"/>
</filter>
<filter id="filter1_b_409_15781" x="-119.705" y="-120" width="291.705" height="267.445" filterUnits="userSpaceOnUse" color-interpolation-filters="sRGB">
<feFlood flood-opacity="0" result="BackgroundImageFix"/>
<feGaussianBlur in="BackgroundImage" stdDeviation="60"/>
<feComposite in2="SourceAlpha" operator="in" result="effect1_backgroundBlur_409_15781"/>
<feBlend mode="normal" in="SourceGraphic" in2="effect1_backgroundBlur_409_15781" result="shape"/>
</filter>
</defs>
</svg>
