<svg width="52" height="32" viewBox="0 0 52 32" fill="none" xmlns="http://www.w3.org/2000/svg">
<g filter="url(#filter0_b_409_15813)">
<path fill-rule="evenodd" clip-rule="evenodd" d="M51.9732 17.022C51.735 13.5526 50.9858 10.1539 49.7573 6.96873C49.5415 6.3807 49.2005 5.86342 48.7652 5.46381C48.33 5.0642 47.8141 4.7949 47.2646 4.68032C46.715 4.56575 46.1491 4.60952 45.6181 4.80768C45.0871 5.00583 44.6079 5.3521 44.2238 5.81508C42.8741 7.43255 39.4191 9.67346 34.6663 8.84848C33.7294 8.67834 32.871 8.14956 32.2322 7.34903C31.5935 6.5485 31.2124 5.52384 31.1515 4.44342L31.0442 2.65078C31.0097 2.1129 30.842 1.59725 30.5608 1.1638C30.2796 0.730346 29.8963 0.396895 29.4555 0.202218C29.0046 -0.00023967 28.5125 -0.0519598 28.0368 0.0531118C27.5611 0.158183 27.1214 0.415699 26.7693 0.795524C26.0979 1.50184 25.1447 2.52035 24.0752 3.66788C23.9982 3.75023 23.9519 3.86307 23.9456 3.98322C23.9393 4.10337 23.9735 4.22171 24.0413 4.31392L28.6278 10.554C28.7332 10.6976 28.7844 10.8832 28.7699 11.0698C28.7555 11.2564 28.6767 11.4289 28.5508 11.5492C28.425 11.6695 28.2624 11.7279 28.0988 11.7114C27.9353 11.6949 27.7842 11.605 27.6787 11.4614L23.1669 5.32537C23.1309 5.27643 23.0866 5.23637 23.0365 5.20763C22.9865 5.17889 22.9319 5.16207 22.876 5.15819C22.8201 5.15432 22.7641 5.16347 22.7114 5.18508C22.6587 5.2067 22.6104 5.24033 22.5695 5.28393C22.189 5.69171 21.8044 6.10467 21.4223 6.51669C21.3768 6.56583 21.3418 6.62614 21.3198 6.69304C21.2977 6.75994 21.2894 6.83169 21.2952 6.90284C21.3011 6.97399 21.3211 7.04267 21.3537 7.10369C21.3863 7.16471 21.4307 7.21647 21.4834 7.25503L26.7065 11.0748C26.8478 11.1702 26.9501 11.3258 26.9909 11.5072C27.0317 11.6887 27.0076 11.8812 26.924 12.0424C26.8404 12.2037 26.7041 12.3204 26.5451 12.3669C26.386 12.4135 26.2173 12.386 26.076 12.2906L23.6105 10.627C23.5953 10.6169 23.5775 10.6131 23.5602 10.6162C23.5428 10.6193 23.5268 10.6291 23.5151 10.644C23.5033 10.6589 23.4963 10.678 23.4954 10.698C23.4944 10.7181 23.4995 10.7379 23.5098 10.7541L25.1761 13.3326C25.2758 13.479 25.3238 13.6627 25.3108 13.8474C25.2977 14.0322 25.2245 14.2047 25.1055 14.3309C25.0409 14.3937 24.9656 14.4406 24.8843 14.4688C24.8031 14.4969 24.7177 14.5057 24.6334 14.4946C24.549 14.4834 24.4676 14.4526 24.3941 14.4041C24.3207 14.3555 24.2568 14.2902 24.2064 14.2123L20.4019 8.34134C20.3671 8.28774 20.3228 8.24317 20.2718 8.21058C20.2209 8.17799 20.1644 8.15812 20.1062 8.15229C20.048 8.14646 19.9894 8.1548 19.9342 8.17675C19.8791 8.19871 19.8286 8.23379 19.7862 8.27966L18.7311 9.414C18.6877 9.46098 18.6537 9.51816 18.6316 9.5816C18.6095 9.64504 18.5997 9.71321 18.603 9.78138C18.6062 9.84956 18.6224 9.91611 18.6505 9.97643C18.6785 10.0367 18.7177 10.0894 18.7653 10.1307L22.8092 13.6373C22.8751 13.6916 22.9311 13.7602 22.9738 13.8391C23.0165 13.9181 23.0452 14.0059 23.0582 14.0975C23.0712 14.1891 23.0682 14.2827 23.0495 14.373C23.0308 14.4633 22.9967 14.5485 22.9491 14.6238C22.9015 14.6991 22.8414 14.7629 22.7722 14.8116C22.703 14.8604 22.6261 14.8931 22.5458 14.9079C22.4655 14.9227 22.3835 14.9194 22.3044 14.898C22.2252 14.8767 22.1505 14.8377 22.0846 14.7834L20.2277 13.255C20.2137 13.2431 20.1964 13.2371 20.179 13.2379C20.1615 13.2388 20.1448 13.2465 20.1317 13.2597C20.1186 13.273 20.1099 13.291 20.107 13.3107C20.1041 13.3304 20.1073 13.3506 20.1159 13.368L21.3443 15.89C21.4241 16.0538 21.4435 16.247 21.3984 16.4271C21.3533 16.6073 21.2473 16.7596 21.1038 16.8506C20.9602 16.9416 20.7909 16.9637 20.633 16.9123C20.4752 16.8608 20.3417 16.7398 20.262 16.5761L17.7036 11.3258C17.673 11.263 17.6302 11.209 17.5785 11.1679C17.5268 11.1269 17.4676 11.0999 17.4053 11.0891C17.3431 11.0782 17.2795 11.0837 17.2194 11.1053C17.1593 11.1268 17.1043 11.1637 17.0587 11.2132L16.6221 11.6841C16.5448 11.7684 16.4992 11.8837 16.4949 12.0056C16.4906 12.1275 16.5279 12.2466 16.599 12.3377L19.0059 15.4092C19.1039 15.5287 19.1638 15.6822 19.1762 15.8452C19.1887 16.0081 19.1528 16.1712 19.0744 16.3081C19.0212 16.3961 18.9511 16.469 18.8696 16.5216C18.788 16.5741 18.6971 16.6049 18.6036 16.6115C18.5101 16.6181 18.4165 16.6004 18.3299 16.5598C18.2433 16.5192 18.1658 16.4566 18.1035 16.3769L15.4019 12.9329C15.3475 12.8638 15.2764 12.8147 15.1975 12.7916C15.1187 12.7686 15.0356 12.7727 14.9588 12.8034L14.5776 12.9583C11.3924 14.2527 4.03958 17.2406 1.36732 18.4017C1.00428 18.5369 0.682753 18.7879 0.440725 19.125C0.387711 19.1988 0.338996 19.2761 0.29477 19.3564C0.569742 20.1441 0.945469 21.1119 1.3539 21.9386C1.32128 21.7452 1.29664 21.5518 1.28025 21.3588C7.25194 26.7164 15.1321 27.2198 25.3663 22.8891C28.2719 21.6573 30.9556 21.2218 33.4767 20.8127L33.4773 20.8126C33.7701 20.7651 34.0608 20.7179 34.3494 20.6699C40.0261 19.981 46.053 20.7871 50.5099 21.7237C50.3154 23.4583 49.9094 25.1534 49.3038 26.7597L49.2976 26.7635C48.8915 26.7256 48.4895 26.6925 48.0916 26.6642C48.9975 26.9051 49.7692 27.1731 50.4067 27.445C51.8683 23.8669 52.089 19.1773 51.9732 17.022ZM48.0905 26.6643C48.997 26.9053 49.7691 27.1734 50.4069 27.4454C49.4736 29.73 48.0345 31.5614 45.854 31.9904C45.8169 31.9951 23.6637 31.9998 23.6637 31.9998H14.7523C12.4132 32.014 10.0842 31.6494 7.83489 30.9168C6.91852 30.53 6.02291 30.0819 5.15275 29.5748C2.06457 27.4888 0.10867 24.2661 0.0187155 21.0519C0.00210035 20.8031 -0.00354615 20.5536 0.00179741 20.3042C0.0367521 19.9664 0.137245 19.6431 0.294718 19.3572C0.569866 20.1454 0.945854 21.1137 1.35452 21.9407C1.78339 24.4788 3.58781 27.0107 6.16536 28.6104C9.11984 30.4469 13.486 30.5881 14.7536 30.5881H18.0765C20.1752 30.5887 22.2676 30.3262 24.316 29.8055C24.698 29.7084 25.0803 29.6106 25.4635 29.5125L25.4641 29.5124L25.4641 29.5124C32.1602 27.7993 39.0958 26.025 48.0905 26.6643Z" fill="url(#paint0_linear_409_15813)"/>
</g>
<defs>
<filter id="filter0_b_409_15813" x="-120" y="-120" width="292" height="272" filterUnits="userSpaceOnUse" color-interpolation-filters="sRGB">
<feFlood flood-opacity="0" result="BackgroundImageFix"/>
<feGaussianBlur in="BackgroundImage" stdDeviation="60"/>
<feComposite in2="SourceAlpha" operator="in" result="effect1_backgroundBlur_409_15813"/>
<feBlend mode="normal" in="SourceGraphic" in2="effect1_backgroundBlur_409_15813" result="shape"/>
</filter>
<linearGradient id="paint0_linear_409_15813" x1="67.6751" y1="6.3536" x2="44.7801" y2="43.5575" gradientUnits="userSpaceOnUse">
<stop stop-color="#FFED52"/>
<stop offset="0.302083" stop-color="#FFB23F"/>
<stop offset="1" stop-color="#FF5D39"/>
</linearGradient>
</defs>
</svg>
