<svg width="62" height="39" viewBox="0 0 62 39" fill="none" xmlns="http://www.w3.org/2000/svg">
<g filter="url(#filter0_b_4_2145)">
<path d="M60.1007 32.7235C59.3403 32.3992 58.4197 32.0794 57.3389 31.7922C46.6144 31.0299 38.345 33.1455 30.3612 35.188C29.9041 35.3049 29.448 35.4216 28.9924 35.5375C26.55 36.1583 24.0552 36.4712 21.553 36.4706H17.591C16.0796 36.4706 10.8738 36.3021 7.35119 34.1126C4.27796 32.2052 2.12653 29.1863 1.61519 26.1601C1.12793 25.1741 0.679636 24.0196 0.351575 23.0798C0.163819 23.4207 0.0440005 23.8062 0.0023237 24.2089C-0.00404747 24.5063 0.00268489 24.8039 0.0224953 25.1005C0.129749 28.9328 2.46178 32.7752 6.14384 35.2624C7.18135 35.867 8.24918 36.4013 9.34178 36.8625C12.0237 37.7359 14.8006 38.1707 17.5895 38.1537H28.2145C28.2145 38.1537 54.628 38.1481 54.6723 38.1425C57.2721 37.631 58.988 35.4475 60.1007 32.7235Z" fill="#FF5D39"/>
<g filter="url(#filter1_b_4_2145)">
<path fill-rule="evenodd" clip-rule="evenodd" d="M59.3268 8.30879C60.7916 12.1064 61.6848 16.1588 61.9688 20.2953C62.1069 22.8651 61.8437 28.4565 60.1012 32.7226C59.3415 32.3986 58.422 32.0791 57.3426 31.792C57.8164 31.8257 58.2951 31.8651 58.7787 31.9102L58.7861 31.9058C59.5082 29.9905 59.9923 27.9694 60.2242 25.9012C54.9102 24.7846 47.7242 23.8234 40.9559 24.6448C40.6116 24.7021 40.2648 24.7583 39.9154 24.815C36.9094 25.3029 33.7096 25.8221 30.2453 27.2908C18.0429 32.4543 8.64736 31.8541 1.52727 25.4661C1.54686 25.6969 1.57633 25.9281 1.61538 26.1593C1.12819 25.1735 0.679937 24.0191 0.351868 23.0794C0.404706 22.9835 0.462924 22.8911 0.526295 22.8028C0.814867 22.4009 1.19823 22.1016 1.63108 21.9403C4.81728 20.556 13.5843 16.9934 17.3819 15.4501C17.5425 15.3849 17.6942 15.3232 17.8363 15.2655C17.9279 15.2289 18.0269 15.224 18.1209 15.2515C18.215 15.2789 18.2998 15.3375 18.3647 15.4199L21.5857 19.5262C21.6601 19.6213 21.7524 19.6958 21.8557 19.7443C21.959 19.7927 22.0705 19.8138 22.182 19.8059C22.2935 19.798 22.4019 19.7614 22.4991 19.6987C22.5964 19.6361 22.6799 19.5491 22.7434 19.4442C22.8369 19.2809 22.8796 19.0866 22.8648 18.8922C22.85 18.6979 22.7785 18.5149 22.6617 18.3724L19.7919 14.7102C19.7071 14.6016 19.6626 14.4596 19.6678 14.3142C19.6729 14.1689 19.7273 14.0315 19.8195 13.931L20.34 13.3695C20.3944 13.3105 20.46 13.2665 20.5316 13.2408C20.6033 13.2151 20.6791 13.2085 20.7533 13.2215C20.8276 13.2344 20.8982 13.2666 20.9598 13.3155C21.0215 13.3644 21.0725 13.4288 21.109 13.5037L24.1593 19.7637C24.2544 19.959 24.4135 20.1032 24.6018 20.1645C24.79 20.2259 24.9919 20.1995 25.163 20.091C25.3341 19.9825 25.4605 19.8009 25.5143 19.5861C25.5681 19.3713 25.5449 19.141 25.4498 18.9457L23.9852 15.9386C23.9749 15.9179 23.9711 15.8938 23.9745 15.8703C23.978 15.8468 23.9883 15.8254 24.004 15.8096C24.0196 15.7938 24.0395 15.7846 24.0603 15.7836C24.0812 15.7826 24.1017 15.7897 24.1185 15.8039L26.3325 17.6263C26.4111 17.691 26.5001 17.7375 26.5945 17.7629C26.6888 17.7884 26.7866 17.7924 26.8824 17.7747C26.9781 17.7571 27.0698 17.7181 27.1523 17.6599C27.2348 17.6018 27.3064 17.5257 27.3632 17.436C27.4199 17.3463 27.4606 17.2447 27.4829 17.137C27.5052 17.0293 27.5087 16.9177 27.4932 16.8085C27.4778 16.6992 27.4436 16.5946 27.3926 16.5004C27.3417 16.4063 27.275 16.3245 27.1964 16.2598L22.3749 12.0788C22.3181 12.0296 22.2713 11.9668 22.2379 11.8949C22.2045 11.823 22.1851 11.7436 22.1813 11.6623C22.1774 11.581 22.189 11.4998 22.2154 11.4241C22.2418 11.3485 22.2823 11.2803 22.334 11.2243L23.5921 9.87181C23.6426 9.81712 23.7028 9.7753 23.7685 9.74912C23.8343 9.72294 23.9042 9.713 23.9736 9.71995C24.043 9.72691 24.1103 9.7506 24.1711 9.78945C24.2318 9.82831 24.2847 9.88145 24.3261 9.94536L28.8623 16.9453C28.9224 17.0382 28.9986 17.1161 29.0861 17.174C29.1737 17.2319 29.2708 17.2686 29.3713 17.2819C29.4719 17.2952 29.5738 17.2847 29.6706 17.2511C29.7675 17.2176 29.8572 17.1616 29.9343 17.0868C30.0762 16.9363 30.1635 16.7306 30.179 16.5103C30.1946 16.29 30.1373 16.071 30.0184 15.8965L28.0318 12.8221C28.0195 12.8028 28.0134 12.7791 28.0145 12.7552C28.0156 12.7313 28.0239 12.7086 28.038 12.6908C28.0521 12.6731 28.071 12.6614 28.0918 12.6577C28.1125 12.654 28.1337 12.6585 28.1518 12.6706L31.0915 14.6541C31.2599 14.7678 31.4611 14.8006 31.6507 14.7451C31.8403 14.6896 32.0028 14.5504 32.1025 14.3582C32.2022 14.166 32.2309 13.9364 32.1823 13.7201C32.1336 13.5037 32.0117 13.3182 31.8432 13.2045L25.6156 8.65014C25.5528 8.60416 25.4999 8.54246 25.461 8.4697C25.4222 8.39695 25.3983 8.31505 25.3913 8.23022C25.3843 8.14539 25.3943 8.05985 25.4205 7.98008C25.4468 7.90031 25.4886 7.82841 25.5428 7.76982C25.9984 7.27856 26.4569 6.78619 26.9105 6.29999C26.9594 6.248 27.0169 6.2079 27.0798 6.18213C27.1426 6.15635 27.2094 6.14544 27.276 6.15007C27.3427 6.15469 27.4078 6.17475 27.4675 6.20901C27.5271 6.24328 27.58 6.29105 27.6229 6.34939L33.0024 13.6654C33.1281 13.8366 33.3083 13.9439 33.5033 13.9635C33.6983 13.9831 33.8921 13.9136 34.0422 13.7701C34.1922 13.6266 34.2862 13.421 34.3034 13.1985C34.3206 12.976 34.2597 12.7548 34.1339 12.5835L28.6655 5.14344C28.5847 5.03349 28.5438 4.89239 28.5513 4.74913C28.5588 4.60588 28.6141 4.47134 28.7058 4.37316C29.9811 3.00495 31.1175 1.79057 31.918 0.948422C32.3379 0.495555 32.8621 0.188517 33.4293 0.0632389C33.9965 -0.0620388 34.5833 -0.000372436 35.1209 0.24102C35.6464 0.473134 36.1034 0.870711 36.4387 1.38752C36.774 1.90433 36.9739 2.51914 37.015 3.16046L37.143 5.29783C37.2155 6.58603 37.67 7.80774 38.4316 8.76222C39.1931 9.71669 40.2166 10.3472 41.3337 10.55C47.0005 11.5337 51.1199 8.8618 52.7292 6.93328C53.1871 6.38126 53.7585 5.96841 54.3916 5.73214C55.0247 5.49588 55.6995 5.44369 56.3547 5.5803C57.01 5.71691 57.625 6.038 58.144 6.51446C58.663 6.99092 59.0695 7.60767 59.3268 8.30879Z" fill="url(#paint0_linear_4_2145)"/>
</g>
</g>
<defs>
<filter id="filter0_b_4_2145" x="-143.077" y="-143.077" width="348.154" height="324.308" filterUnits="userSpaceOnUse" color-interpolation-filters="sRGB">
<feFlood flood-opacity="0" result="BackgroundImageFix"/>
<feGaussianBlur in="BackgroundImage" stdDeviation="71.5385"/>
<feComposite in2="SourceAlpha" operator="in" result="effect1_backgroundBlur_4_2145"/>
<feBlend mode="normal" in="SourceGraphic" in2="effect1_backgroundBlur_4_2145" result="shape"/>
</filter>
<filter id="filter1_b_4_2145" x="-142.725" y="-143.077" width="347.802" height="318.876" filterUnits="userSpaceOnUse" color-interpolation-filters="sRGB">
<feFlood flood-opacity="0" result="BackgroundImageFix"/>
<feGaussianBlur in="BackgroundImage" stdDeviation="71.5385"/>
<feComposite in2="SourceAlpha" operator="in" result="effect1_backgroundBlur_4_2145"/>
<feBlend mode="normal" in="SourceGraphic" in2="effect1_backgroundBlur_4_2145" result="shape"/>
</filter>
<linearGradient id="paint0_linear_4_2145" x1="80.5844" y1="6.49698" x2="58.8633" y2="47.4188" gradientUnits="userSpaceOnUse">
<stop stop-color="#FFED52"/>
<stop offset="0.302083" stop-color="#FFB23F"/>
<stop offset="1" stop-color="#FF5D39"/>
</linearGradient>
</defs>
</svg>
