<svg width="36" height="23" viewBox="0 0 36 23" fill="none" xmlns="http://www.w3.org/2000/svg">
<g filter="url(#filter0_b_138_4696)">
<path d="M34.8971 19.54C34.4556 19.3517 33.921 19.166 33.2935 18.9992C27.0664 18.5566 22.2648 19.785 17.629 20.9709C17.3637 21.0388 17.0988 21.1066 16.8343 21.1739C15.4161 21.5344 13.9675 21.7161 12.5146 21.7157H10.2141C9.33652 21.7157 6.31383 21.6179 4.26843 20.3465C2.48397 19.239 1.23476 17.4861 0.937851 15.729C0.654926 15.1565 0.394627 14.4861 0.20414 13.9404C0.0951204 14.1384 0.0255486 14.3622 0.00134924 14.596C-0.00235014 14.7687 0.00155897 14.9415 0.0130618 15.1137C0.0753382 17.3389 1.42942 19.57 3.56739 21.0142C4.16981 21.3652 4.78984 21.6754 5.42425 21.9432C6.98147 22.4504 8.59387 22.7028 10.2133 22.693H16.3826C16.3826 22.693 31.7195 22.6898 31.7452 22.6865C33.2547 22.3895 34.251 21.1216 34.8971 19.54Z" fill="#FFB23F"/>
<g filter="url(#filter1_b_138_4696)">
<path fill-rule="evenodd" clip-rule="evenodd" d="M34.4479 5.36303C35.2984 7.56811 35.817 9.92107 35.9819 12.323C36.0621 13.8151 35.9093 17.0619 34.8974 19.5391C34.4559 19.3508 33.9214 19.1651 33.2939 18.9983C33.5697 19.0179 33.8482 19.0408 34.1296 19.0671L34.1339 19.0645C34.5532 17.9524 34.8343 16.7789 34.9689 15.578C31.8834 14.9296 27.7109 14.3715 23.7809 14.8484C23.581 14.8817 23.3796 14.9144 23.1767 14.9473C21.4313 15.2305 19.5734 15.532 17.5618 16.3848C10.4766 19.383 5.02114 19.0345 0.886901 15.3253C0.898287 15.4595 0.915431 15.5939 0.938144 15.7283C0.655191 15.1558 0.394859 14.4853 0.204346 13.9396C0.235043 13.8839 0.268869 13.8302 0.30569 13.7789C0.473248 13.5455 0.695844 13.3717 0.947177 13.2781C2.7972 12.4743 7.88761 10.4057 10.0927 9.50964C10.186 9.47173 10.2741 9.43592 10.3566 9.40239C10.4098 9.38114 10.4673 9.37831 10.5219 9.39426C10.5765 9.41021 10.6258 9.44423 10.6634 9.49204L12.5337 11.8763C12.5769 11.9316 12.6305 11.9749 12.6905 12.003C12.7504 12.0311 12.8152 12.0434 12.88 12.0388C12.9447 12.0342 13.0076 12.0129 13.0641 11.9765C13.1206 11.9401 13.169 11.8896 13.2059 11.8288C13.2602 11.7339 13.285 11.6211 13.2764 11.5082C13.2678 11.3954 13.2263 11.2891 13.1585 11.2064L11.4922 9.07999C11.4429 9.0169 11.4171 8.93447 11.4201 8.85006C11.4231 8.76566 11.4547 8.68587 11.5082 8.62751L11.8104 8.30152C11.842 8.26724 11.8801 8.24167 11.9217 8.22677C11.9633 8.21187 12.0073 8.20804 12.0504 8.21556C12.0935 8.22308 12.1345 8.24176 12.1703 8.27016C12.2061 8.29857 12.2357 8.33594 12.2569 8.37943L14.0281 12.0142C14.0833 12.1276 14.1757 12.2114 14.285 12.247C14.3943 12.2826 14.5115 12.2673 14.6109 12.2043C14.7102 12.1413 14.7836 12.0359 14.8148 11.9111C14.8461 11.7864 14.8326 11.6527 14.7774 11.5393L13.927 9.79326C13.921 9.78123 13.9188 9.76723 13.9208 9.75359C13.9228 9.73994 13.9288 9.7275 13.9379 9.71833C13.9469 9.70916 13.9585 9.70383 13.9706 9.70323C13.9827 9.70263 13.9946 9.70679 14.0044 9.71502L15.2899 10.7732C15.3355 10.8108 15.3872 10.8377 15.442 10.8525C15.4968 10.8673 15.5536 10.8696 15.6092 10.8594C15.6648 10.8491 15.718 10.8265 15.7659 10.7927C15.8138 10.759 15.8554 10.7148 15.8884 10.6627C15.9213 10.6106 15.9449 10.5516 15.9579 10.4891C15.9709 10.4266 15.9729 10.3617 15.9639 10.2983C15.9549 10.2349 15.9351 10.1741 15.9055 10.1195C15.8759 10.0648 15.8372 10.0173 15.7915 9.97973L12.992 7.55206C12.959 7.52347 12.9318 7.48703 12.9124 7.44527C12.893 7.40351 12.8818 7.35744 12.8795 7.31024C12.8773 7.26304 12.884 7.21585 12.8994 7.17193C12.9147 7.12801 12.9382 7.08842 12.9682 7.0559L13.6987 6.27059C13.7281 6.23883 13.763 6.21455 13.8012 6.19935C13.8394 6.18415 13.8799 6.17837 13.9202 6.18241C13.9605 6.18645 13.9996 6.2002 14.0349 6.22277C14.0702 6.24533 14.1009 6.27619 14.1249 6.31329L16.7588 10.3778C16.7937 10.4317 16.838 10.4769 16.8888 10.5106C16.9397 10.5442 16.996 10.5655 17.0544 10.5732C17.1128 10.5809 17.1719 10.5748 17.2282 10.5553C17.2844 10.5359 17.3365 10.5034 17.3813 10.4599C17.4636 10.3725 17.5143 10.2531 17.5234 10.1252C17.5324 9.99727 17.4992 9.87013 17.4301 9.76881L16.2766 7.98368C16.2695 7.97242 16.2659 7.95871 16.2666 7.94483C16.2672 7.93095 16.272 7.91775 16.2802 7.90744C16.2884 7.89713 16.2994 7.89033 16.3114 7.88819C16.3235 7.88604 16.3358 7.88868 16.3463 7.89566L18.0532 9.04739C18.151 9.11344 18.2678 9.13245 18.3779 9.10023C18.488 9.06801 18.5824 8.98721 18.6402 8.87559C18.6981 8.76397 18.7148 8.63069 18.6866 8.50505C18.6583 8.37942 18.5875 8.27173 18.4897 8.20568L14.8737 5.56123C14.8372 5.53453 14.8065 5.4987 14.7839 5.45646C14.7613 5.41421 14.7475 5.36666 14.7434 5.31741C14.7393 5.26815 14.7451 5.21848 14.7604 5.17216C14.7756 5.12585 14.7999 5.08409 14.8314 5.05007C15.0959 4.76483 15.3622 4.47894 15.6256 4.19663C15.6539 4.16644 15.6873 4.14316 15.7238 4.12819C15.7603 4.11323 15.7991 4.10689 15.8378 4.10958C15.8765 4.11226 15.9143 4.12391 15.9489 4.1438C15.9836 4.1637 16.0143 4.19143 16.0392 4.22531L19.1627 8.47332C19.2357 8.57274 19.3404 8.63501 19.4536 8.64641C19.5668 8.65781 19.6794 8.61742 19.7665 8.53411C19.8536 8.45081 19.9082 8.33142 19.9182 8.20221C19.9282 8.073 19.8928 7.94456 19.8198 7.84513L16.6445 3.52508C16.5976 3.46124 16.5739 3.37931 16.5783 3.29613C16.5826 3.21295 16.6147 3.13483 16.668 3.07782C17.4084 2.28338 18.0683 1.57826 18.5331 1.08927C18.7769 0.826315 19.0813 0.648035 19.4106 0.575294C19.74 0.502552 20.0807 0.538358 20.3928 0.678521C20.698 0.813297 20.9633 1.04415 21.158 1.34423C21.3527 1.64431 21.4688 2.0013 21.4927 2.37368L21.567 3.61473C21.6091 4.36272 21.873 5.0721 22.3152 5.62631C22.7574 6.18052 23.3516 6.5466 24.0003 6.66439C27.2907 7.23552 29.6826 5.68413 30.617 4.56435C30.8829 4.24382 31.2147 4.0041 31.5823 3.86691C31.9499 3.72973 32.3417 3.69942 32.7222 3.77874C33.1026 3.85807 33.4597 4.04451 33.7611 4.32116C34.0624 4.59781 34.2985 4.95592 34.4479 5.36303Z" fill="#FFB23F"/>
</g>
</g>
<defs>
<filter id="filter0_b_138_4696" x="-83.0768" y="-82.5382" width="202.154" height="188.308" filterUnits="userSpaceOnUse" color-interpolation-filters="sRGB">
<feFlood flood-opacity="0" result="BackgroundImageFix"/>
<feGaussianBlur in="BackgroundImageFix" stdDeviation="41.5384"/>
<feComposite in2="SourceAlpha" operator="in" result="effect1_backgroundBlur_138_4696"/>
<feBlend mode="normal" in="SourceGraphic" in2="effect1_backgroundBlur_138_4696" result="shape"/>
</filter>
<filter id="filter1_b_138_4696" x="-82.8725" y="-82.5382" width="201.95" height="185.154" filterUnits="userSpaceOnUse" color-interpolation-filters="sRGB">
<feFlood flood-opacity="0" result="BackgroundImageFix"/>
<feGaussianBlur in="BackgroundImageFix" stdDeviation="41.5384"/>
<feComposite in2="SourceAlpha" operator="in" result="effect1_backgroundBlur_138_4696"/>
<feBlend mode="normal" in="SourceGraphic" in2="effect1_backgroundBlur_138_4696" result="shape"/>
</filter>
</defs>
</svg>
