<svg width="36" height="23" viewBox="0 0 36 23" fill="none" xmlns="http://www.w3.org/2000/svg">
<g filter="url(#filter0_b_4_2155)">
<path d="M34.8971 19.5396C34.4556 19.3513 33.921 19.1656 33.2935 18.9988C27.0664 18.5562 22.2648 19.7846 17.629 20.9706C17.3637 21.0385 17.0988 21.1062 16.8343 21.1735C15.4161 21.534 13.9675 21.7157 12.5146 21.7153H10.2141C9.33652 21.7153 6.31383 21.6175 4.26843 20.3462C2.48397 19.2387 1.23476 17.4858 0.937851 15.7286C0.654926 15.1561 0.394627 14.4857 0.20414 13.9401C0.0951204 14.138 0.0255486 14.3618 0.00134924 14.5957C-0.00235014 14.7683 0.00155897 14.9411 0.0130618 15.1133C0.0753382 17.3386 1.42942 19.5696 3.56739 21.0138C4.16981 21.3648 4.78984 21.6751 5.42425 21.9429C6.98147 22.45 8.59387 22.7025 10.2133 22.6926H16.3826C16.3826 22.6926 31.7195 22.6894 31.7452 22.6861C33.2547 22.3891 34.251 21.1213 34.8971 19.5396Z" fill="#FF5D39"/>
<g filter="url(#filter1_b_4_2155)">
<path fill-rule="evenodd" clip-rule="evenodd" d="M34.4478 5.36278C35.2983 7.56787 35.8169 9.92083 35.9818 12.3227C36.062 13.8149 35.9092 17.0617 34.8973 19.5388C34.4558 19.3505 33.9213 19.1649 33.2938 18.9981C33.5696 19.0177 33.8481 19.0405 34.1295 19.0668L34.1338 19.0642C34.5531 17.9521 34.8342 16.7786 34.9688 15.5777C31.8833 14.9293 27.7108 14.3712 23.7808 14.8482C23.5809 14.8814 23.3795 14.9141 23.1766 14.947C21.4312 15.2303 19.5733 15.5318 17.5617 16.3846C10.4765 19.3827 5.02102 19.0342 0.886779 15.3251C0.898165 15.4593 0.915309 15.5937 0.938022 15.7281C0.655069 15.1555 0.394737 14.4851 0.204224 13.9394C0.234921 13.8836 0.268747 13.8299 0.305568 13.7786C0.473126 13.5453 0.695722 13.3715 0.947055 13.2779C2.79708 12.4741 7.88748 10.4055 10.0926 9.50939C10.1859 9.47149 10.274 9.43568 10.3565 9.40215C10.4097 9.38089 10.4672 9.37806 10.5218 9.39401C10.5764 9.40997 10.6256 9.44399 10.6633 9.4918L12.5336 11.8761C12.5768 11.9313 12.6304 11.9746 12.6904 12.0027C12.7503 12.0309 12.8151 12.0431 12.8798 12.0385C12.9445 12.034 13.0075 12.0127 13.064 11.9763C13.1204 11.9399 13.1689 11.8894 13.2058 11.8285C13.2601 11.7337 13.2849 11.6208 13.2763 11.508C13.2677 11.3952 13.2262 11.2889 13.1584 11.2062L11.4921 9.07974C11.4428 9.01665 11.417 8.93422 11.42 8.84982C11.4229 8.76541 11.4545 8.68563 11.508 8.62727L11.8103 8.30127C11.8419 8.267 11.8799 8.24143 11.9215 8.22653C11.9631 8.21163 12.0072 8.20779 12.0503 8.21531C12.0934 8.22283 12.1344 8.24151 12.1702 8.26992C12.206 8.29832 12.2356 8.3357 12.2568 8.37919L14.028 12.014C14.0832 12.1274 14.1756 12.2111 14.2849 12.2468C14.3941 12.2824 14.5114 12.267 14.6107 12.2041C14.7101 12.1411 14.7835 12.0356 14.8147 11.9109C14.8459 11.7862 14.8325 11.6524 14.7773 11.539L13.9268 9.79302C13.9208 9.78099 13.9187 9.76698 13.9207 9.75334C13.9226 9.7397 13.9287 9.72726 13.9377 9.71809C13.9468 9.70892 13.9584 9.70359 13.9705 9.70298C13.9826 9.70238 13.9945 9.70654 14.0042 9.71478L15.2898 10.7729C15.3354 10.8105 15.3871 10.8375 15.4419 10.8523C15.4967 10.8671 15.5535 10.8694 15.6091 10.8591C15.6646 10.8489 15.7179 10.8262 15.7658 10.7925C15.8137 10.7587 15.8553 10.7145 15.8883 10.6624C15.9212 10.6103 15.9448 10.5513 15.9578 10.4888C15.9707 10.4263 15.9728 10.3615 15.9638 10.2981C15.9548 10.2347 15.9349 10.1739 15.9054 10.1192C15.8758 10.0645 15.8371 10.0171 15.7914 9.97948L12.9918 7.55182C12.9588 7.52322 12.9317 7.48678 12.9123 7.44503C12.8929 7.40327 12.8817 7.3572 12.8794 7.31C12.8771 7.2628 12.8839 7.2156 12.8992 7.17169C12.9145 7.12777 12.9381 7.08818 12.9681 7.05566L13.6986 6.27034C13.7279 6.23859 13.7629 6.2143 13.801 6.1991C13.8392 6.1839 13.8798 6.17813 13.9201 6.18217C13.9604 6.1862 13.9995 6.19996 14.0348 6.22252C14.0701 6.24508 14.1007 6.27594 14.1248 6.31305L16.7587 10.3775C16.7936 10.4315 16.8378 10.4767 16.8887 10.5103C16.9395 10.5439 16.9959 10.5653 17.0543 10.573C17.1127 10.5807 17.1718 10.5746 17.2281 10.5551C17.2843 10.5356 17.3364 10.5031 17.3812 10.4597C17.4635 10.3723 17.5142 10.2529 17.5233 10.1249C17.5323 9.99703 17.499 9.86989 17.43 9.76857L16.2765 7.98343C16.2693 7.97218 16.2658 7.95846 16.2664 7.94459C16.2671 7.93071 16.2719 7.91751 16.2801 7.9072C16.2882 7.89689 16.2993 7.89009 16.3113 7.88794C16.3233 7.8858 16.3357 7.88844 16.3462 7.89542L18.0531 9.04714C18.1509 9.1132 18.2677 9.13221 18.3778 9.09999C18.4879 9.06777 18.5822 8.98697 18.6401 8.87535C18.698 8.76373 18.7147 8.63044 18.6864 8.50481C18.6582 8.37918 18.5874 8.27149 18.4896 8.20543L14.8735 5.56099C14.837 5.53429 14.8063 5.49846 14.7838 5.45621C14.7612 5.41397 14.7474 5.36642 14.7433 5.31716C14.7392 5.2679 14.745 5.21824 14.7603 5.17192C14.7755 5.1256 14.7998 5.08385 14.8313 5.04983C15.0958 4.76459 15.362 4.47869 15.6254 4.19638C15.6538 4.1662 15.6872 4.14291 15.7237 4.12795C15.7602 4.11298 15.799 4.10665 15.8377 4.10933C15.8764 4.11202 15.9142 4.12366 15.9488 4.14356C15.9834 4.16346 16.0142 4.19119 16.0391 4.22507L19.1626 8.47307C19.2356 8.5725 19.3402 8.63476 19.4535 8.64616C19.5667 8.65757 19.6793 8.61717 19.7664 8.53387C19.8535 8.45057 19.9081 8.33118 19.9181 8.20197C19.9281 8.07276 19.8927 7.94431 19.8197 7.84489L16.6444 3.52484C16.5975 3.461 16.5738 3.37907 16.5781 3.29589C16.5825 3.21271 16.6146 3.13459 16.6679 3.07758C17.4083 2.28314 18.0682 1.57801 18.533 1.08903C18.7768 0.826071 19.0812 0.647791 19.4105 0.575049C19.7399 0.502308 20.0806 0.538114 20.3927 0.678277C20.6979 0.813053 20.9632 1.0439 21.1579 1.34399C21.3526 1.64407 21.4686 2.00105 21.4926 2.37344L21.5668 3.61449C21.609 4.36247 21.8728 5.07185 22.315 5.62606C22.7573 6.18027 23.3515 6.54635 24.0002 6.66414C27.2905 7.23528 29.6825 5.68388 30.6169 4.5641C30.8828 4.24358 31.2146 4.00385 31.5822 3.86667C31.9498 3.72948 32.3416 3.69918 32.722 3.7785C33.1025 3.85782 33.4596 4.04426 33.761 4.32091C34.0623 4.59757 34.2984 4.95568 34.4478 5.36278Z" fill="#FF5D39"/>
</g>
</g>
<defs>
<filter id="filter0_b_4_2155" x="-83.0768" y="-82.5385" width="202.154" height="188.308" filterUnits="userSpaceOnUse" color-interpolation-filters="sRGB">
<feFlood flood-opacity="0" result="BackgroundImageFix"/>
<feGaussianBlur in="BackgroundImage" stdDeviation="41.5384"/>
<feComposite in2="SourceAlpha" operator="in" result="effect1_backgroundBlur_4_2155"/>
<feBlend mode="normal" in="SourceGraphic" in2="effect1_backgroundBlur_4_2155" result="shape"/>
</filter>
<filter id="filter1_b_4_2155" x="-82.8726" y="-82.5385" width="201.95" height="185.154" filterUnits="userSpaceOnUse" color-interpolation-filters="sRGB">
<feFlood flood-opacity="0" result="BackgroundImageFix"/>
<feGaussianBlur in="BackgroundImage" stdDeviation="41.5384"/>
<feComposite in2="SourceAlpha" operator="in" result="effect1_backgroundBlur_4_2155"/>
<feBlend mode="normal" in="SourceGraphic" in2="effect1_backgroundBlur_4_2155" result="shape"/>
</filter>
</defs>
</svg>
