<svg width="87" height="122" viewBox="0 0 87 122" fill="none" xmlns="http://www.w3.org/2000/svg">
<g clip-path="url(#clip0_4_1696)">
<path d="M43.3166 103.63V120.907L66.8088 90.7764L43.3166 103.63Z" stroke="#EAEBF0" stroke-width="1.18204" stroke-miterlimit="10" stroke-linecap="round" stroke-linejoin="round"/>
<path d="M43.3166 120.907L67.6752 108.073L66.8088 90.7764" stroke="#EAEBF0" stroke-width="1.18204" stroke-miterlimit="10" stroke-linecap="round" stroke-linejoin="round"/>
<path d="M86.0337 40.7888L72.8674 9.948" stroke="#EAEBF0" stroke-width="1.18204" stroke-miterlimit="10" stroke-linecap="round" stroke-linejoin="round"/>
<path d="M47.9355 46.3654L72.8675 9.94795L54.0594 0.592773L43.3166 37.7724L47.9355 46.3654ZM47.9355 46.3654L43.3166 78.2355" stroke="#EAEBF0" stroke-width="1.18204" stroke-miterlimit="10" stroke-linecap="round" stroke-linejoin="round"/>
<path d="M83.9555 70.4635L86.0337 40.7888L75.3821 47.7661" stroke="#EAEBF0" stroke-width="1.18204" stroke-miterlimit="10" stroke-linecap="round" stroke-linejoin="round"/>
<path d="M53.4796 75.0629L47.9355 46.3655" stroke="#EAEBF0" stroke-width="1.18204" stroke-miterlimit="10" stroke-linecap="round" stroke-linejoin="round"/>
<path d="M83.9555 70.4634L53.4796 75.0628" stroke="#EAEBF0" stroke-width="1.18204" stroke-miterlimit="10" stroke-linecap="round" stroke-linejoin="round"/>
<path d="M43.3166 88.3922L66.8088 90.7766L53.4796 75.063L43.3166 88.3922ZM43.3166 88.3922V78.2357L53.4796 75.063" stroke="#EAEBF0" stroke-width="1.18204" stroke-miterlimit="10" stroke-linecap="round" stroke-linejoin="round"/>
<path d="M66.8088 90.7764L83.9556 70.4634L67.6752 108.073" stroke="#EAEBF0" stroke-width="1.18204" stroke-miterlimit="10" stroke-linecap="round" stroke-linejoin="round"/>
<path d="M83.9556 70.4635L47.9355 46.3654L75.3822 47.7661L72.8675 9.948" stroke="#EAEBF0" stroke-width="1.18204" stroke-miterlimit="10" stroke-linecap="round" stroke-linejoin="round"/>
<path d="M75.3822 47.7661L71.4017 62.066" stroke="#EAEBF0" stroke-width="1.18204" stroke-miterlimit="10" stroke-linecap="round" stroke-linejoin="round"/>
<path d="M43.3036 103.63V120.907L19.8114 90.7764L43.3036 103.63Z" stroke="#EAEBF0" stroke-width="1.18204" stroke-miterlimit="10" stroke-linecap="round" stroke-linejoin="round"/>
<path d="M43.3035 120.907L18.9449 108.073L19.8113 90.7764" stroke="#EAEBF0" stroke-width="1.18204" stroke-miterlimit="10" stroke-linecap="round" stroke-linejoin="round"/>
<path d="M0.592896 40.7888L13.7527 9.948" stroke="#EAEBF0" stroke-width="1.18204" stroke-miterlimit="10" stroke-linecap="round" stroke-linejoin="round"/>
<path d="M38.6846 46.3654L13.7527 9.94795L32.5608 0.592773L43.3036 37.7724L38.6846 46.3654ZM38.6846 46.3654L43.3036 78.2355" stroke="#EAEBF0" stroke-width="1.18204" stroke-miterlimit="10" stroke-linecap="round" stroke-linejoin="round"/>
<path d="M2.6711 70.4635L0.592896 40.7888L11.238 47.7661" stroke="#EAEBF0" stroke-width="1.18204" stroke-miterlimit="10" stroke-linecap="round" stroke-linejoin="round"/>
<path d="M33.1471 75.0629L38.6846 46.3655" stroke="#EAEBF0" stroke-width="1.18204" stroke-miterlimit="10" stroke-linecap="round" stroke-linejoin="round"/>
<path d="M2.67108 70.4634L33.1471 75.0628" stroke="#EAEBF0" stroke-width="1.18204" stroke-miterlimit="10" stroke-linecap="round" stroke-linejoin="round"/>
<path d="M43.3036 88.3922L19.8114 90.7766L33.1471 75.063L43.3036 88.3922ZM43.3036 88.3922V78.2357L33.1471 75.063" stroke="#EAEBF0" stroke-width="1.18204" stroke-miterlimit="10" stroke-linecap="round" stroke-linejoin="round"/>
<path d="M19.8114 90.7764L2.67108 70.4634L18.9449 108.073" stroke="#EAEBF0" stroke-width="1.18204" stroke-miterlimit="10" stroke-linecap="round" stroke-linejoin="round"/>
<path d="M2.67108 70.4635L38.6846 46.3654L11.238 47.7661L13.7527 9.948" stroke="#EAEBF0" stroke-width="1.18204" stroke-miterlimit="10" stroke-linecap="round" stroke-linejoin="round"/>
<path d="M11.238 47.7661L15.225 62.066" stroke="#EAEBF0" stroke-width="1.18204" stroke-miterlimit="10" stroke-linecap="round" stroke-linejoin="round"/>
<path d="M32.5607 0.592773H54.0594" stroke="#EAEBF0" stroke-width="1.18204" stroke-miterlimit="10" stroke-linecap="round" stroke-linejoin="round"/>
<path d="M38.6846 46.3655H47.9356" stroke="#EAEBF0" stroke-width="1.18204" stroke-miterlimit="10" stroke-linecap="round" stroke-linejoin="round"/>
</g>
<defs>
<clipPath id="clip0_4_1696">
<rect width="86.6201" height="121.5" fill="white"/>
</clipPath>
</defs>
</svg>
