<svg width="160" height="85" viewBox="0 0 160 85" fill="none" xmlns="http://www.w3.org/2000/svg">
<path d="M32.3035 11.2038V11.8383H32.8581L32.9323 11.2887L32.3035 11.2038ZM28.4152 1.01133L28.4643 1.64396L28.4152 1.01133ZM24.3905 10.1019L24.8037 9.62037L24.3905 10.1019ZM27.4602 13.2698L26.8736 13.5119L27.266 14.4627L27.9397 13.6854L27.4602 13.2698ZM28.4152 12.168L28.8947 12.5835L29.386 12.0166L28.7454 11.6261L28.4152 12.168ZM24.7315 7.48493L25.358 7.38429L24.7315 7.48493ZM28.4152 4.38587L28.6292 3.7885L28.4152 4.38587ZM31.2802 11.2038L30.648 11.1502L30.5897 11.8383H31.2802V11.2038ZM32.9323 11.2887C33.1764 9.48143 33.2766 6.76565 32.7527 4.51409C32.4911 3.38992 32.0599 2.3184 31.3559 1.5413C30.6274 0.737024 29.6328 0.280319 28.3661 0.378692L28.4643 1.64396C29.3259 1.57705 29.9412 1.86986 30.4154 2.3933C30.9142 2.94392 31.2785 3.77833 31.5166 4.80169C31.9921 6.8452 31.908 9.39094 31.6747 11.1189L32.9323 11.2887ZM28.3661 0.378692C25.4234 0.607211 23.5406 2.48886 22.7861 4.62188C22.0469 6.71137 22.3528 9.18952 23.9772 10.5835L24.8037 9.62037C23.6994 8.67279 23.3573 6.81225 23.9825 5.04513C24.5922 3.32154 26.0861 1.82865 28.4643 1.64396L28.3661 0.378692ZM23.9772 10.5835C25.0546 11.508 25.7744 12.2136 26.2338 12.7141C26.4636 12.9645 26.6248 13.1599 26.7318 13.3026C26.8478 13.4574 26.877 13.5202 26.8736 13.5119L28.0467 13.0278C27.9864 12.8817 27.8764 12.7138 27.7473 12.5415C27.6091 12.3571 27.4193 12.1289 27.1688 11.856C26.6674 11.3097 25.9092 10.569 24.8037 9.62037L23.9772 10.5835ZM27.9397 13.6854L28.8947 12.5835L27.9357 11.7524L26.9807 12.8543L27.9397 13.6854ZM28.7454 11.6261C28.1962 11.2913 27.4061 10.6709 26.7194 9.89488C26.0258 9.11119 25.4943 8.23285 25.358 7.38429L24.105 7.58556C24.2962 8.7755 25.0039 9.87138 25.769 10.7359C26.541 11.6082 27.4291 12.31 28.0849 12.7098L28.7454 11.6261ZM25.358 7.38429C25.187 6.31919 25.5533 5.61738 26.0748 5.23027C26.6192 4.8262 27.4166 4.70217 28.2012 4.98323L28.6292 3.7885C27.4851 3.37866 26.2361 3.5301 25.3184 4.21126C24.3779 4.90938 23.8668 6.10255 24.105 7.58556L25.358 7.38429ZM28.2012 4.98323C28.9914 5.26632 29.6675 6.13468 30.123 7.37635C30.5692 8.59243 30.7442 10.0147 30.648 11.1502L31.9125 11.2574C32.0244 9.93664 31.8242 8.32868 31.3145 6.93925C30.8141 5.57542 29.9536 4.26296 28.6292 3.7885L28.2012 4.98323ZM31.2802 11.8383H32.3035V10.5693H31.2802V11.8383Z" fill="#EAEBF0"/>
<path d="M23.4368 8.79925L22.8025 8.81618L22.8059 8.94188L22.8569 9.0568L23.4368 8.79925ZM23.4368 8.79632L22.8024 8.81301V8.81301L23.4368 8.79632ZM27.1433 4.19513L27.7374 4.41792L28.0371 3.61877L27.1855 3.562L27.1433 4.19513ZM27.1401 4.2037L27.1828 4.8368L27.5916 4.80923L27.7347 4.42525L27.1401 4.2037ZM24.7316 7.48493L25.3581 7.3843L24.7316 7.48493ZM28.4152 12.168L28.8947 12.5835L29.3861 12.0166L28.7455 11.6261L28.4152 12.168ZM27.4602 13.2698L26.8736 13.5119L27.266 14.4627L27.9397 13.6854L27.4602 13.2698ZM24.3905 10.1019L24.8037 9.62037L24.3905 10.1019ZM24.0711 8.78232C24.0711 8.78142 24.0711 8.78052 24.0711 8.77962L22.8024 8.81301C22.8025 8.81407 22.8025 8.81513 22.8025 8.81618L24.0711 8.78232ZM24.0711 8.77963C24.0239 6.98562 24.5802 6.01264 25.1878 5.48637C25.8186 4.94003 26.5966 4.79463 27.1011 4.82826L27.1855 3.562C26.4118 3.51042 25.2854 3.7229 24.3569 4.52708C23.4053 5.35135 22.7474 6.72157 22.8024 8.81301L24.0711 8.77963ZM26.5491 3.97234C26.5479 3.97559 26.5467 3.97886 26.5455 3.98214L27.7347 4.42525C27.7356 4.42275 27.7365 4.42031 27.7374 4.41792L26.5491 3.97234ZM27.0974 3.5706C26.2017 3.63099 25.3496 4.02493 24.7697 4.73454C24.1835 5.45187 23.9204 6.43615 24.1051 7.58556L25.3581 7.3843C25.2233 6.54525 25.4245 5.93882 25.7524 5.53759C26.0865 5.12865 26.5984 4.8762 27.1828 4.8368L27.0974 3.5706ZM24.1051 7.58556C24.2962 8.7755 25.0039 9.87138 25.7691 10.7359C26.541 11.6082 27.4291 12.31 28.0849 12.7098L28.7455 11.6261C28.1962 11.2913 27.4062 10.6709 26.7194 9.89488C26.0259 9.11119 25.4944 8.23286 25.3581 7.3843L24.1051 7.58556ZM27.9357 11.7524L26.9807 12.8543L27.9397 13.6854L28.8947 12.5835L27.9357 11.7524ZM28.0467 13.0278C27.9865 12.8817 27.8764 12.7138 27.7473 12.5415C27.6091 12.3571 27.4193 12.1289 27.1688 11.856C26.6674 11.3097 25.9092 10.569 24.8037 9.62037L23.9773 10.5835C25.0547 11.508 25.7745 12.2136 26.2338 12.7141C26.4636 12.9645 26.6248 13.1599 26.7318 13.3026C26.8478 13.4574 26.8771 13.5202 26.8736 13.5119L28.0467 13.0278ZM24.8037 9.62037C24.4695 9.3336 24.2058 8.96734 24.0168 8.54171L22.8569 9.0568C23.1144 9.63666 23.4858 10.1617 23.9773 10.5835L24.8037 9.62037Z" fill="#EAEBF0"/>
<path d="M14.1982 54.3796L14.1202 55.0093L14.8463 55.0994L14.8327 54.3678L14.1982 54.3796ZM21.1789 34.2671L21.5541 34.7788L21.8134 34.5887V34.2671H21.1789ZM32.03 10.9753L32.1687 10.3561L32.1136 10.3438L32.057 10.3414L32.03 10.9753ZM4.72947 77.4641L5.01856 76.8991L5.00973 76.8948L4.72947 77.4641ZM14.8327 54.3678C14.7875 51.9521 15.0766 48.0482 16.0901 44.2341C17.1092 40.3993 18.8283 36.7777 21.5541 34.7788L20.8036 33.7554C17.7238 36.014 15.9065 39.9835 14.8636 43.9081C13.8152 47.8534 13.5168 51.877 13.5638 54.3915L14.8327 54.3678ZM21.8134 34.2671C21.8134 30.7647 22.4968 24.9264 24.1724 20.0274C25.0107 17.5762 26.0818 15.4074 27.4025 13.8833C28.714 12.37 30.2306 11.5335 32.0029 11.6093L32.057 10.3414C29.7861 10.2443 27.9246 11.3431 26.4435 13.0522C24.9715 14.7507 23.8352 17.0916 22.9716 19.6167C21.2432 24.6703 20.5443 30.6507 20.5443 34.2671H21.8134ZM31.8912 11.5945C32.7123 11.7785 33.4429 12.3032 34.1182 13.1045C34.7951 13.9078 35.3831 14.95 35.9227 16.0929C36.4625 17.2363 36.9346 18.437 37.4015 19.5666C37.8599 20.6756 38.3204 21.7341 38.8224 22.5151L39.8899 21.8288C39.4589 21.1584 39.0382 20.2039 38.5743 19.0818C38.119 17.9802 37.6277 16.7317 37.0703 15.5511C36.5127 14.37 35.8696 13.2134 35.0886 12.2867C34.306 11.358 33.3519 10.6213 32.1687 10.3561L31.8912 11.5945ZM38.8224 22.5151C39.747 23.9534 41.5257 26.9218 45.4282 27.8602C49.3195 28.796 55.1105 27.6726 63.9746 21.5893L63.2565 20.5429C54.4963 26.5548 49.0906 27.4357 45.7249 26.6263C42.3703 25.8196 40.8314 23.2934 39.8899 21.8288L38.8224 22.5151ZM63.9746 21.5893C68.3794 18.5664 71.6073 16.4845 74.1074 15.146C76.6142 13.8039 78.3243 13.246 79.7064 13.1991C81.0568 13.1533 82.1725 13.5934 83.5096 14.4475C84.1844 14.8785 84.9007 15.4051 85.7288 16.0195C86.5522 16.6304 87.4779 17.3217 88.551 18.0633L89.2725 17.0192C88.2202 16.2921 87.3123 15.6141 86.485 15.0003C85.6624 14.3901 84.9111 13.8368 84.1928 13.3779C82.7437 12.4523 81.3712 11.8729 79.6634 11.9308C77.987 11.9876 76.0686 12.6565 73.5084 14.0272C70.9415 15.4014 67.6639 17.5183 63.2565 20.5429L63.9746 21.5893ZM88.551 18.0633C92.8264 21.0178 100.934 25.9545 109.286 30.429C117.615 34.8911 126.278 38.9445 131.632 40.0717L131.894 38.8298C126.743 37.7454 118.231 33.7814 109.885 29.3103C101.563 24.8516 93.4983 19.9395 89.2725 17.0192L88.551 18.0633ZM131.632 40.0717C134.31 40.6354 137.367 40.8491 140.389 41.0568C143.433 41.266 146.443 41.4692 149.108 41.9997C151.778 42.5311 154.012 43.3755 155.552 44.8047C157.063 46.207 157.975 48.2384 157.876 51.3182L159.145 51.3589C159.253 47.9764 158.239 45.5672 156.415 43.8745C154.62 42.2085 152.111 41.3035 149.356 40.755C146.595 40.2055 143.498 39.9984 140.476 39.7907C137.434 39.5816 134.469 39.3719 131.894 38.8298L131.632 40.0717ZM157.876 51.3182C157.671 57.7194 156.389 64.5441 151.551 70.1465C146.717 75.7444 138.238 80.2292 123.405 81.74L123.534 83.0025C138.559 81.4722 147.393 76.9029 152.511 70.9759C157.626 65.0533 158.936 57.8823 159.145 51.3589L157.876 51.3182ZM123.405 81.74C108.488 83.2593 98.9364 83.5838 92.67 83.2409C86.3977 82.8977 83.4859 81.8884 81.7899 80.8005L81.1047 81.8686C83.0718 83.1306 86.2421 84.1602 92.6006 84.5081C98.965 84.8564 108.593 84.5243 123.534 83.0025L123.405 81.74ZM81.7899 80.8005C80.9158 80.2397 79.932 79.3976 78.7593 78.4258C77.6035 77.4682 76.2936 76.4107 74.822 75.4843C71.8681 73.6248 68.2237 72.2696 63.756 73.2503L64.0281 74.4899C68.0615 73.6045 71.3632 74.8066 74.1459 76.5583C75.5425 77.4375 76.7985 78.4492 77.9495 79.403C79.0835 80.3427 80.1472 81.2544 81.1047 81.8686L81.7899 80.8005ZM63.756 73.2503C61.551 73.7343 60.2717 74.479 59.4755 75.4204C58.702 76.335 58.4436 77.3911 58.1681 78.2016C57.886 79.0316 57.5641 79.7325 56.732 80.3207C55.8688 80.9308 54.3861 81.4677 51.6646 81.7399L51.7909 83.0027C54.5987 82.7219 56.3384 82.153 57.4645 81.357C58.6216 80.5391 59.0557 79.5337 59.3697 78.61C59.6903 77.6667 59.8681 76.9215 60.4445 76.2399C60.9983 75.5852 61.9825 74.9389 64.0281 74.4899L63.756 73.2503ZM51.6646 81.7399C40.5523 82.8511 22.5131 85.8515 5.01853 76.8992L4.44041 78.029C22.3328 87.1848 40.7864 84.1031 51.7909 83.0027L51.6646 81.7399ZM5.00973 76.8948C3.88572 76.3414 3.07027 75.9042 2.48678 75.4823C1.91192 75.0666 1.61139 74.7002 1.45966 74.3069C1.30548 73.9073 1.27163 73.3942 1.39972 72.6206C1.52847 71.843 1.80871 70.8677 2.22364 69.571L1.01494 69.1842C0.600484 70.4794 0.293238 71.5343 0.147691 72.4133C0.00148034 73.2963 0.00650775 74.0662 0.275656 74.7637C0.547259 75.4677 1.05452 76.0127 1.74317 76.5107C2.42319 77.0024 3.32697 77.4809 4.4492 78.0334L5.00973 76.8948ZM2.22364 69.571C3.06886 66.9297 4.09614 63.0194 5.94227 59.8666C7.77607 56.7349 10.3037 54.5362 14.1202 55.0093L14.2763 53.7499C9.72988 53.1863 6.79737 55.8948 4.84713 59.2254C2.90921 62.5349 1.82847 66.6419 1.01494 69.1842L2.22364 69.571Z" fill="#EAEBF0"/>
<path opacity="0.5" d="M32.8948 12.6306L33.4648 12.3519L32.266 12.716L32.8948 12.6306ZM46.2351 32.8892L46.1659 33.52L46.2351 32.8892ZM75.6969 13.8537L75.9868 14.4182L75.5484 13.2368L75.6969 13.8537ZM45.9315 27.8401L45.8614 28.4708L45.9315 27.8401ZM32.266 12.716C32.6606 15.6206 33.6201 20.4988 35.7061 24.8005C37.7855 29.0886 41.0666 32.9601 46.1659 33.52L46.3044 32.2585C41.8545 31.7699 38.8561 28.3879 36.848 24.2467C34.8464 20.1191 33.9103 15.3922 33.5235 12.5452L32.266 12.716ZM46.1659 33.52C49.3311 33.8674 52.5667 32.8351 55.6541 31.1509C58.7463 29.4641 61.7483 27.0915 64.4667 24.6732C67.1829 22.2569 69.6508 19.7626 71.6402 17.8477C72.6411 16.8844 73.516 16.0723 74.2509 15.4754C75.0126 14.8566 75.5354 14.5452 75.8453 14.4707L75.5484 13.2368C74.9269 13.3864 74.2034 13.8789 73.4507 14.4903C72.6712 15.1235 71.7634 15.9678 70.7602 16.9334C68.7413 18.8765 66.3147 21.3307 63.6232 23.725C60.9341 26.1173 58.0152 28.4173 55.0464 30.0368C52.0729 31.6588 49.1074 32.5662 46.3044 32.2585L46.1659 33.52ZM75.407 13.2893C73.4926 14.2724 71.2472 15.7129 68.8379 17.2826C66.4178 18.8594 63.8205 20.5746 61.1679 22.1373C58.5151 23.7001 55.8287 25.097 53.2408 26.0389C50.6488 26.9823 48.1976 27.4536 46.0016 27.2095L45.8614 28.4708C48.3268 28.7449 50.9869 28.2098 53.6749 27.2314C56.3669 26.2516 59.129 24.8113 61.8121 23.2307C64.4954 21.65 67.1214 19.9157 69.5307 18.3459C71.9508 16.7691 74.1408 15.3662 75.9868 14.4182L75.407 13.2893ZM46.0016 27.2095C43.6738 26.9506 41.9288 26.2578 40.5699 25.2996C39.2083 24.3395 38.202 23.0901 37.3858 21.6718C36.5662 20.2478 35.948 18.6716 35.3511 17.0615C34.7604 15.4684 34.1855 13.8261 33.4648 12.3519L32.3247 12.9093C33.0099 14.3109 33.557 15.8731 34.1611 17.5027C34.759 19.1152 35.4083 20.7801 36.2859 22.3049C37.1668 23.8355 38.2871 25.2427 39.8385 26.3367C41.3926 27.4326 43.3468 28.1912 45.8614 28.4708L46.0016 27.2095Z" fill="#EAEBF0"/>
<path d="M157.333 45.7344L157.88 45.4119L156.71 45.853L157.333 45.7344ZM157.336 45.7464L157.958 45.6225L157.958 45.6217L157.336 45.7464ZM157.348 45.81H157.983V45.7475L157.971 45.6862L157.348 45.81ZM157.348 45.8101H156.714V45.8726L156.726 45.9339L157.348 45.8101ZM148.973 65.9326L148.578 65.4356L148.973 65.9326ZM105.284 72.5518L105.295 71.9174L105.284 72.5518ZM98.3114 72.4757L98.308 71.8411L98.3114 72.4757ZM75.3753 64.0067L75.7463 63.492L75.3753 64.0067ZM70.9418 60.8512L70.5792 61.372H70.5792L70.9418 60.8512ZM41.9093 57.2827L41.9649 57.9148L41.9093 57.2827ZM28.0904 57.9973L28.0755 58.6317L28.0904 57.9973ZM13.7994 54.1281L14.2509 53.6822L14.0855 53.5147L13.8508 53.4956L13.7994 54.1281ZM2.04609 67.8912L1.43909 67.7063H1.43909L2.04609 67.8912ZM1.61929 69.274L1.01454 69.0819H1.01454L1.61929 69.274ZM4.72947 77.4181L5.02019 76.854L5.01134 76.8496L4.72947 77.4181ZM48.6724 82.687L48.6031 82.0563H48.6031L48.6724 82.687ZM51.7278 82.3602L51.7914 82.9916L51.7278 82.3602ZM58.9009 77.9634L58.2969 77.7687L58.9009 77.9634ZM63.892 73.7985L64.029 74.4181L63.892 73.7985ZM78.7867 79.2404L78.3792 79.7268L78.7867 79.2404ZM81.4473 81.3161L81.7916 80.7831L81.4473 81.3161ZM123.469 82.3602L123.405 81.729L123.469 82.3602ZM158.511 51.1065L157.876 51.0863V51.0863L158.511 51.1065ZM156.71 45.853C156.711 45.8563 156.712 45.8635 156.714 45.8712L157.958 45.6217C157.958 45.6217 157.958 45.6214 157.958 45.6203C157.957 45.6192 157.957 45.618 157.957 45.6157L156.71 45.853ZM156.713 45.8703L156.726 45.9339L157.971 45.6862L157.958 45.6225L156.713 45.8703ZM156.714 45.81V45.8101H157.983V45.81H156.714ZM156.726 45.9339C156.973 47.1773 157.529 49.9779 156.739 53.4973C155.951 57.0044 153.814 61.2782 148.578 65.4356L149.367 66.4295C154.822 62.0981 157.124 57.5751 157.977 53.7754C158.828 49.988 158.227 46.9718 157.971 45.6863L156.726 45.9339ZM148.578 65.4356C144.183 68.9258 136.928 70.6324 128.907 71.4134C120.916 72.1915 112.306 72.0407 105.295 71.9174L105.273 73.1863C112.271 73.3094 120.954 73.4628 129.03 72.6765C137.075 71.8932 144.661 70.167 149.367 66.4295L148.578 65.4356ZM105.295 71.9174C102.711 71.872 100.341 71.8302 98.308 71.8411L98.3148 73.1102C100.331 73.0994 102.685 73.1408 105.273 73.1863L105.295 71.9174ZM98.308 71.8411C92.8151 71.8706 89.1455 71.1837 85.8869 69.8127C82.607 68.4328 79.7091 66.348 75.7463 63.492L75.0043 64.5215C78.9377 67.3564 81.9565 69.5359 85.3948 70.9825C88.8545 72.4381 92.7048 73.1402 98.3148 73.1102L98.308 71.8411ZM75.7463 63.492C74.4019 62.523 72.9385 61.4683 71.3044 60.3305L70.5792 61.372C72.2037 62.5031 73.6593 63.5521 75.0043 64.5215L75.7463 63.492ZM71.3044 60.3305C67.2728 57.5234 62.5627 56.3772 57.5515 56.0425C52.5483 55.7083 47.1911 56.1811 41.8537 56.6506L41.9649 57.9148C47.3243 57.4433 52.5798 56.9824 57.4669 57.3088C62.3461 57.6346 66.8038 58.7432 70.5792 61.372L71.3044 60.3305ZM41.8537 56.6506C37.2024 57.0598 32.5624 57.4674 28.1053 57.363L28.0755 58.6317C32.6157 58.738 37.3276 58.3228 41.9649 57.9148L41.8537 56.6506ZM28.1053 57.363C19.7057 57.1662 15.8022 55.2532 14.2509 53.6822L13.3479 54.5739C15.2449 56.4951 19.5573 58.4322 28.0755 58.6317L28.1053 57.363ZM13.8508 53.4956C9.83328 53.1695 7.11756 55.4633 5.24279 58.4019C3.37925 61.3229 2.26343 65 1.43909 67.7063L2.6531 68.0761C3.4873 65.3374 4.55884 61.8335 6.31268 59.0845C8.05528 56.353 10.387 54.4877 13.7481 54.7605L13.8508 53.4956ZM1.43909 67.7063C1.28879 68.1997 1.14856 68.6601 1.01454 69.0819L2.22403 69.4662C2.3608 69.0357 2.50333 68.5678 2.6531 68.0761L1.43909 67.7063ZM1.01454 69.0819C0.600079 70.3863 0.293009 71.4482 0.147573 72.3328C0.00149477 73.2213 0.00669134 73.9948 0.275115 74.6955C0.546103 75.4028 1.05257 75.9513 1.74143 76.453C2.42148 76.9482 3.32533 77.4302 4.4476 77.9866L5.01134 76.8496C3.88736 76.2923 3.07197 75.852 2.48851 75.4271C1.91387 75.0086 1.61255 74.6391 1.4602 74.2415C1.3053 73.8371 1.27162 73.3186 1.39984 72.5387C1.5287 71.7549 1.80911 70.772 2.22403 69.4662L1.01454 69.0819ZM4.43878 77.9821C20.7767 86.4021 37.5671 84.5455 48.7417 83.3178L48.6031 82.0563C37.4085 83.2862 20.98 85.0792 5.02015 76.8541L4.43878 77.9821ZM48.7417 83.3178C49.8121 83.2002 50.8294 83.0884 51.7914 82.9916L51.6642 81.7289C50.6954 81.8264 49.6723 81.9388 48.6031 82.0563L48.7417 83.3178ZM51.7914 82.9916C54.8108 82.6875 56.5976 82.0476 57.7128 81.1469C58.848 80.23 59.1988 79.1072 59.5048 78.1582L58.2969 77.7687C57.9872 78.7293 57.7257 79.5052 56.9154 80.1596C56.0852 80.8301 54.5933 81.4339 51.6642 81.7289L51.7914 82.9916ZM59.5048 78.1582C59.7726 77.3276 60.0033 76.638 60.5819 76.0283C61.1555 75.4241 62.1378 74.8362 64.029 74.4181L63.7551 73.1789C61.7181 73.6293 60.4692 74.3037 59.6615 75.1547C58.8588 76.0003 58.558 76.959 58.2969 77.7687L59.5048 78.1582ZM64.029 74.4181C70.3325 73.0245 74.8454 76.7664 78.3792 79.7268L79.1942 78.754C75.7187 75.8424 70.742 71.6343 63.7551 73.1789L64.029 74.4181ZM78.3792 79.7268C79.348 80.5385 80.2631 81.3065 81.1029 81.8491L81.7916 80.7831C81.0321 80.2924 80.183 79.5824 79.1942 78.754L78.3792 79.7268ZM81.1029 81.8491C83.0704 83.1202 86.2413 84.1573 92.6004 84.5078C98.9651 84.8585 108.593 84.524 123.534 82.9914L123.405 81.729C108.488 83.2591 98.9363 83.5859 92.6702 83.2406C86.3985 82.895 83.4872 81.8786 81.7916 80.7831L81.1029 81.8491ZM123.534 82.9914C138.56 81.4501 147.395 76.8479 152.513 70.8791C157.626 64.9155 158.936 57.6953 159.145 51.1267L157.876 51.0863C157.671 57.5343 156.389 64.4095 151.549 70.053C146.715 75.6913 138.236 80.2076 123.405 81.729L123.534 82.9914ZM159.145 51.1267C159.219 48.7992 158.77 46.9206 157.88 45.4119L156.787 46.0568C157.531 47.3171 157.945 48.9465 157.876 51.0863L159.145 51.1267Z" fill="#EAEBF0"/>
<mask id="path-6-inside-1_4_1726" fill="white">
<ellipse cx="87.6841" cy="30.9783" rx="2.67549" ry="1.23035" transform="rotate(4.86596 87.6841 30.9783)"/>
</mask>
<path d="M89.0855 31.0976C89.1048 30.87 89.2213 30.7483 89.242 30.7293C89.2554 30.717 89.2124 30.7586 89.0648 30.8118C88.7718 30.9174 88.2837 30.9904 87.6874 30.9397L87.4721 33.4687C88.3481 33.5433 89.2163 33.4553 89.9259 33.1994C90.5222 32.9844 91.5181 32.4444 91.6145 31.3129L89.0855 31.0976ZM87.6874 30.9397C87.0911 30.8889 86.6223 30.7344 86.3514 30.5808C86.2149 30.5034 86.1796 30.4552 86.1907 30.4695C86.2079 30.4917 86.3021 30.6314 86.2828 30.859L83.7538 30.6437C83.6574 31.7752 84.5478 32.4758 85.0992 32.7885C85.7553 33.1607 86.5961 33.3941 87.4721 33.4687L87.6874 30.9397ZM86.2828 30.859C86.2634 31.0865 86.1469 31.2082 86.1262 31.2272C86.1128 31.2395 86.1558 31.198 86.3034 31.1448C86.5964 31.0391 87.0845 30.9661 87.6808 31.0168L87.8961 28.4878C87.0201 28.4133 86.152 28.5012 85.4424 28.7571C84.846 28.9721 83.8501 29.5122 83.7538 30.6437L86.2828 30.859ZM87.6808 31.0168C88.2771 31.0676 88.7459 31.2221 89.0168 31.3758C89.1533 31.4531 89.1886 31.5013 89.1775 31.487C89.1603 31.4648 89.0661 31.3251 89.0855 31.0976L91.6145 31.3129C91.7108 30.1814 90.8205 29.4808 90.2691 29.168C89.6129 28.7959 88.7721 28.5624 87.8961 28.4878L87.6808 31.0168Z" fill="#EAEBF0" mask="url(#path-6-inside-1_4_1726)"/>
<mask id="path-8-inside-2_4_1726" fill="white">
<ellipse cx="100.109" cy="33.4694" rx="2.58228" ry="1.18749" transform="rotate(17.8894 100.109 33.4694)"/>
</mask>
<path d="M101.358 33.8728C101.43 33.6499 101.575 33.553 101.606 33.5357C101.628 33.5233 101.584 33.5518 101.438 33.5693C101.147 33.604 100.679 33.5677 100.134 33.3918L99.354 35.8072C100.166 36.0694 101.008 36.1768 101.739 36.0896C102.35 36.0166 103.429 35.7219 103.774 34.6525L101.358 33.8728ZM100.134 33.3918C99.5886 33.2159 99.1874 32.9715 98.9718 32.7732C98.8631 32.6734 98.8446 32.6249 98.8551 32.6478C98.8697 32.6796 98.9308 32.8431 98.8589 33.0661L96.4434 32.2864C96.0982 33.3558 96.8012 34.2256 97.2542 34.642C97.7959 35.1399 98.5418 35.5451 99.354 35.8072L100.134 33.3918ZM98.8589 33.0661C98.7869 33.289 98.6418 33.3859 98.6113 33.4032C98.5894 33.4156 98.6327 33.3871 98.7793 33.3696C99.0701 33.3349 99.5385 33.3712 100.084 33.5471L100.863 31.1317C100.051 30.8695 99.209 30.7621 98.4785 30.8493C97.8674 30.9223 96.7886 31.217 96.4434 32.2864L98.8589 33.0661ZM100.084 33.5471C100.629 33.723 101.03 33.9674 101.245 34.1656C101.354 34.2655 101.373 34.3139 101.362 34.2911C101.347 34.2593 101.286 34.0958 101.358 33.8728L103.774 34.6525C104.119 33.5831 103.416 32.7133 102.963 32.2969C102.421 31.799 101.675 31.3938 100.863 31.1317L100.084 33.5471Z" fill="#EAEBF0" mask="url(#path-8-inside-2_4_1726)"/>
<mask id="path-10-inside-3_4_1726" fill="white">
<ellipse cx="109.214" cy="36.9851" rx="2.22815" ry="1.02463" transform="rotate(20.222 109.214 36.9851)"/>
</mask>
<path d="M110.114 37.3166C110.203 37.0757 110.369 36.968 110.424 36.9399C110.469 36.9164 110.455 36.9356 110.343 36.9443C110.122 36.9617 109.745 36.9199 109.299 36.7557L108.422 39.1374C109.131 39.3986 109.878 39.5266 110.541 39.4747C111.085 39.4322 112.123 39.2062 112.496 38.1939L110.114 37.3166ZM109.299 36.7557C108.853 36.5915 108.539 36.3787 108.382 36.2217C108.302 36.1424 108.304 36.1187 108.324 36.1664C108.347 36.2232 108.403 36.4126 108.314 36.6536L105.933 35.7762C105.56 36.7885 106.204 37.6343 106.59 38.019C107.061 38.4887 107.713 38.8762 108.422 39.1374L109.299 36.7557ZM108.314 36.6536C108.226 36.8945 108.06 37.0021 108.005 37.0302C107.959 37.0538 107.973 37.0346 108.085 37.0258C108.307 37.0085 108.684 37.0503 109.13 37.2144L110.007 34.8327C109.298 34.5716 108.551 34.4435 107.887 34.4954C107.344 34.5379 106.306 34.7639 105.933 35.7762L108.314 36.6536ZM109.13 37.2144C109.576 37.3786 109.89 37.5914 110.047 37.7485C110.127 37.8278 110.125 37.8515 110.105 37.8038C110.082 37.7469 110.026 37.5575 110.114 37.3166L112.496 38.1939C112.869 37.1816 112.225 36.3358 111.839 35.9511C111.368 35.4814 110.716 35.0939 110.007 34.8327L109.13 37.2144Z" fill="#EAEBF0" mask="url(#path-10-inside-3_4_1726)"/>
<mask id="path-12-inside-4_4_1726" fill="white">
<ellipse cx="116.93" cy="40.2091" rx="1.80799" ry="0.83142" transform="rotate(19.1017 116.93 40.2091)"/>
</mask>
<path d="M117.439 40.3854C117.532 40.1176 117.715 39.9866 117.797 39.9426C117.87 39.9032 117.892 39.9131 117.822 39.9199C117.684 39.9335 117.412 39.913 117.073 39.7955L116.243 42.1939C116.847 42.4032 117.49 42.5027 118.069 42.446C118.528 42.4011 119.502 42.185 119.838 41.216L117.439 40.3854ZM117.073 39.7955C116.734 39.6781 116.508 39.5262 116.408 39.4302C116.357 39.3815 116.38 39.3875 116.414 39.4636C116.451 39.5488 116.513 39.7649 116.421 40.0327L114.022 39.2021C113.687 40.1711 114.318 40.9431 114.651 41.2623C115.071 41.6647 115.638 41.9846 116.243 42.1939L117.073 39.7955ZM116.421 40.0327C116.328 40.3005 116.145 40.4316 116.063 40.4756C115.99 40.5149 115.968 40.5051 116.038 40.4982C116.176 40.4847 116.448 40.5052 116.787 40.6226L117.617 38.2242C117.013 38.0149 116.369 37.9155 115.791 37.9722C115.332 38.0171 114.358 38.2332 114.022 39.2021L116.421 40.0327ZM116.787 40.6226C117.126 40.7401 117.352 40.8919 117.452 40.9879C117.503 41.0367 117.479 41.0307 117.446 40.9546C117.409 40.8694 117.346 40.6533 117.439 40.3854L119.838 41.216C120.173 40.2471 119.542 39.4751 119.209 39.1559C118.789 38.7534 118.222 38.4336 117.617 38.2242L116.787 40.6226Z" fill="#EAEBF0" mask="url(#path-12-inside-4_4_1726)"/>
<mask id="path-14-inside-5_4_1726" fill="white">
<ellipse cx="123.349" cy="41.8498" rx="1.66944" ry="0.767709" transform="rotate(14.6408 123.349 41.8498)"/>
</mask>
<path d="M123.736 41.951C123.81 41.6683 123.988 41.5163 124.075 41.4604C124.153 41.4099 124.188 41.4139 124.132 41.4238C124.023 41.4432 123.786 41.4458 123.475 41.3647L122.834 43.8205C123.416 43.9724 124.03 44.0197 124.575 43.923C125.002 43.8473 125.937 43.5677 126.192 42.5925L123.736 41.951ZM123.475 41.3647C123.165 41.2837 122.96 41.1655 122.874 41.0951C122.83 41.0592 122.862 41.0725 122.906 41.155C122.954 41.2462 123.035 41.4659 122.961 41.7486L120.506 41.1071C120.251 42.0822 120.93 42.7834 121.265 43.0582C121.693 43.4093 122.252 43.6685 122.834 43.8205L123.475 41.3647ZM122.961 41.7486C122.888 42.0313 122.709 42.1833 122.623 42.2392C122.544 42.2897 122.51 42.2857 122.565 42.2758C122.675 42.2564 122.912 42.2538 123.222 42.3349L123.864 39.8792C123.282 39.7272 122.668 39.6799 122.122 39.7766C121.695 39.8523 120.76 40.132 120.506 41.1071L122.961 41.7486ZM123.222 42.3349C123.532 42.4159 123.738 42.5341 123.824 42.6045C123.868 42.6404 123.836 42.6271 123.792 42.5446C123.743 42.4534 123.662 42.2337 123.736 41.951L126.192 42.5925C126.447 41.6174 125.768 40.9162 125.433 40.6414C125.004 40.2903 124.445 40.0311 123.864 39.8792L123.222 42.3349Z" fill="#EAEBF0" mask="url(#path-14-inside-5_4_1726)"/>
<path d="M86.1325 15.1596L86.6678 14.819L86.6229 14.7484L86.5613 14.6919L86.1325 15.1596ZM67.9981 4.41625L68.1539 5.03136L67.9981 4.41625ZM57.8468 20.7302L58.251 20.2411L57.8468 20.7302ZM74.3057 27.3041L73.9071 27.7978L74.0603 27.9215L74.2566 27.9368L74.3057 27.3041ZM86.5613 14.6919C84.36 12.6739 80.8055 9.7109 77.2856 7.37514C75.5269 6.20812 73.7578 5.18477 72.1582 4.5164C70.5891 3.86073 69.0598 3.49273 67.8423 3.80114L68.1539 5.03136C68.947 4.83046 70.1436 5.05002 71.6689 5.68737C73.1639 6.31202 74.8577 7.28713 76.5839 8.43258C80.0336 10.7218 83.5356 13.6398 85.7037 15.6273L86.5613 14.6919ZM67.8423 3.80114C62.6345 5.1204 58.6798 8.92837 57.3433 10.6716L58.3504 11.4438C59.5764 9.84467 63.3091 6.25867 68.1539 5.03136L67.8423 3.80114ZM57.3433 10.6716C56.6892 11.5248 55.5559 13.1613 55.156 15.078C54.954 16.0464 54.9355 17.1031 55.274 18.1688C55.6138 19.2383 56.3001 20.2754 57.4427 21.2194L58.251 20.2411C57.2746 19.4343 56.7413 18.5959 56.4835 17.7846C56.2246 16.9695 56.2308 16.1403 56.3983 15.3372C56.7376 13.7108 57.7233 12.2618 58.3504 11.4438L57.3433 10.6716ZM57.4427 21.2194C58.3651 21.9815 59.8656 22.752 61.5415 23.4768C63.234 24.2088 65.1657 24.9192 66.9933 25.5483C68.8221 26.1778 70.556 26.729 71.8522 27.1413C72.5023 27.3481 73.0379 27.5185 73.4236 27.6471C73.6171 27.7116 73.7658 27.7633 73.8693 27.8024C73.9217 27.8221 73.9553 27.8359 73.9742 27.8444C74.0138 27.8621 73.9668 27.846 73.9071 27.7978L74.7044 26.8104C74.62 26.7423 74.5244 26.7003 74.4927 26.6861C74.4404 26.6626 74.38 26.6386 74.317 26.6149C74.19 26.567 74.0226 26.5091 73.8252 26.4432C73.429 26.3111 72.8833 26.1375 72.2368 25.9319C70.9397 25.5194 69.2192 24.9723 67.4064 24.3483C65.5923 23.7238 63.695 23.0255 62.0453 22.312C60.3789 21.5913 59.0238 20.8796 58.251 20.2411L57.4427 21.2194ZM74.2566 27.9368C77.9981 28.2273 80.6585 26.128 84.0885 22.469L83.1627 21.6011C79.7324 25.2603 77.4466 26.9115 74.3549 26.6715L74.2566 27.9368ZM84.0885 22.469C85.8394 20.6012 86.7295 19.0826 87.0579 17.8229C87.3947 16.5309 87.1305 15.5461 86.6678 14.819L85.5971 15.5002C85.8772 15.9403 86.0746 16.5637 85.8298 17.5028C85.5766 18.4743 84.8419 19.8097 83.1627 21.6011L84.0885 22.469Z" fill="#EAEBF0"/>
<path d="M62.5031 3.30054C65.5361 3.41763 68.5101 6.19587 69.8942 7.80588C69.0393 8.26796 68.9554 8.71601 68.7749 8.71601C67.3306 6.49128 62.1997 5.2644 59.7774 4.6868C60.1986 4.44286 60.4811 4.58854 62.5031 3.30054Z" stroke="#EAEBF0" stroke-width="1.26908"/>
<path d="M59.5511 8.37776C58.5387 7.72807 58.7267 6.33296 58.8801 5.61108C59.2956 5.61108 60.9742 6.18054 62.4469 6.68586C61.9867 6.68586 60.2415 7.65588 59.5511 8.37776Z" stroke="#EAEBF0" stroke-width="1.26908"/>
<path d="M86.1325 15.1596L86.6678 14.819L86.6229 14.7484L86.5613 14.6919L86.1325 15.1596ZM67.9981 4.41625L68.1539 5.03136L67.9981 4.41625ZM57.8468 20.7302L57.4427 21.2194L57.8468 20.7302ZM74.3057 27.3041L73.9071 27.7978L74.0603 27.9215L74.2566 27.9368L74.3057 27.3041ZM86.5613 14.6919C84.36 12.6739 80.8055 9.7109 77.2856 7.37514C75.5269 6.20812 73.7578 5.18477 72.1582 4.5164C70.5891 3.86073 69.0598 3.49273 67.8423 3.80114L68.1539 5.03136C68.947 4.83046 70.1436 5.05002 71.6689 5.68737C73.1639 6.31202 74.8577 7.28713 76.5839 8.43258C80.0336 10.7218 83.5356 13.6398 85.7037 15.6273L86.5613 14.6919ZM67.8423 3.80114C62.6345 5.1204 58.6798 8.92837 57.3433 10.6716L58.3504 11.4438C59.5764 9.84467 63.3091 6.25867 68.1539 5.03136L67.8423 3.80114ZM57.3433 10.6716C56.6892 11.5248 55.5559 13.1613 55.156 15.078C54.954 16.0464 54.9355 17.1031 55.274 18.1688C55.6138 19.2383 56.3001 20.2754 57.4427 21.2194L58.251 20.2411C57.2746 19.4343 56.7413 18.5959 56.4835 17.7846C56.2246 16.9695 56.2308 16.1403 56.3983 15.3372C56.7376 13.7108 57.7233 12.2618 58.3504 11.4438L57.3433 10.6716ZM57.4427 21.2194C58.3651 21.9815 59.8656 22.752 61.5415 23.4768C63.234 24.2088 65.1657 24.9192 66.9933 25.5483C68.8221 26.1778 70.556 26.729 71.8522 27.1413C72.5023 27.3481 73.0379 27.5185 73.4236 27.6471C73.6171 27.7116 73.7658 27.7633 73.8693 27.8024C73.9217 27.8221 73.9553 27.8359 73.9742 27.8444C74.0138 27.8621 73.9668 27.846 73.9071 27.7978L74.7044 26.8104C74.62 26.7423 74.5244 26.7003 74.4927 26.6861C74.4404 26.6626 74.38 26.6386 74.317 26.6149C74.19 26.567 74.0226 26.5091 73.8252 26.4432C73.429 26.3111 72.8833 26.1375 72.2368 25.9319C70.9397 25.5194 69.2192 24.9723 67.4064 24.3483C65.5923 23.7238 63.695 23.0255 62.0453 22.312C60.3789 21.5913 59.0238 20.8796 58.251 20.2411L57.4427 21.2194ZM74.2566 27.9368C77.9981 28.2273 80.6585 26.128 84.0885 22.469L83.1627 21.6011C79.7324 25.2603 77.4466 26.9115 74.3549 26.6715L74.2566 27.9368ZM84.0885 22.469C85.8394 20.6012 86.7295 19.0826 87.0579 17.8229C87.3947 16.5309 87.1305 15.5461 86.6678 14.819L85.5971 15.5002C85.8772 15.9403 86.0746 16.5637 85.8298 17.5028C85.5766 18.4743 84.8419 19.8097 83.1627 21.6011L84.0885 22.469Z" fill="#EAEBF0"/>
<path d="M87.8792 31.0557C87.6296 31.3021 87.6266 31.7038 87.8726 31.9531C88.1185 32.2024 88.5203 32.2048 88.7699 31.9585L87.8792 31.0557ZM107.519 29.866C107.845 29.9948 108.214 29.835 108.343 29.5091C108.472 29.1831 108.313 28.8145 107.987 28.6857L107.519 29.866ZM88.7699 31.9585C89.3227 31.4131 90.3355 30.8245 91.7109 30.2964C93.0713 29.7741 94.7329 29.3312 96.5332 29.048C100.147 28.4796 104.234 28.5673 107.519 29.866L107.987 28.6857C104.418 27.2744 100.08 27.2057 96.3377 27.7944C94.4599 28.0897 92.7107 28.5538 91.2575 29.1117C89.8193 29.664 88.6157 30.3291 87.8792 31.0557L88.7699 31.9585Z" fill="#EAEBF0"/>
<path d="M100.021 34.3512C99.7716 34.5975 99.7686 34.9992 100.015 35.2485C100.261 35.4978 100.662 35.5002 100.912 35.2539L100.021 34.3512ZM119.661 33.1614C119.987 33.2902 120.356 33.1304 120.485 32.8045C120.614 32.4785 120.455 32.1099 120.129 31.9811L119.661 33.1614ZM100.912 35.2539C101.465 34.7085 102.478 34.1199 103.853 33.5918C105.213 33.0695 106.875 32.6266 108.675 32.3434C112.289 31.775 116.376 31.8627 119.661 33.1614L120.129 31.9811C116.56 30.5698 112.222 30.5011 108.48 31.0898C106.602 31.3851 104.853 31.8492 103.4 32.4072C101.961 32.9594 100.758 33.6245 100.021 34.3512L100.912 35.2539Z" fill="#EAEBF0"/>
<path d="M109.135 37.3021C108.82 37.4562 108.689 37.8363 108.843 38.151C108.997 38.4658 109.377 38.5959 109.692 38.4418L109.135 37.3021ZM128.705 37.4651C129.048 37.534 129.383 37.3113 129.452 36.9677C129.522 36.6242 129.299 36.2897 128.956 36.2208L128.705 37.4651ZM109.692 38.4418C110.252 38.1677 111.286 37.8725 112.68 37.6113C114.057 37.3533 115.737 37.1374 117.555 37.0026C121.198 36.7324 125.348 36.7916 128.705 37.4651L128.956 36.2208C125.445 35.5163 121.169 35.4622 117.463 35.737C115.606 35.8748 113.879 36.096 112.448 36.364C111.034 36.6288 109.858 36.9484 109.135 37.3021L109.692 38.4418Z" fill="#EAEBF0"/>
<path d="M116.451 40.1946C116.168 40.4025 116.107 40.7997 116.315 41.0818C116.522 41.364 116.92 41.4242 117.202 41.2164L116.451 40.1946ZM136.068 39.6905C136.404 39.7902 136.757 39.5986 136.857 39.2627C136.957 38.9267 136.766 38.5735 136.43 38.4739L136.068 39.6905ZM117.202 41.2164C117.751 40.8121 118.769 40.3716 120.154 39.9773C121.522 39.588 123.192 39.2593 125.001 39.0508C128.63 38.6324 132.749 38.7054 136.068 39.6905L136.43 38.4739C132.888 37.4224 128.582 37.3608 124.858 37.7901C122.99 38.0053 121.252 38.346 119.809 38.7568C118.383 39.1624 117.187 39.6525 116.451 40.1946L117.202 41.2164Z" fill="#EAEBF0"/>
<path d="M101.187 33.9606C101.119 34.2906 100.775 34.501 100.418 34.4305C100.062 34.36 99.8278 34.0353 99.8959 33.7053L101.187 33.9606ZM95.1571 21.407C94.8415 21.2338 94.7312 20.8587 94.9106 20.569C95.09 20.2794 95.4912 20.1849 95.8067 20.3581L95.1571 21.407ZM99.8959 33.7053C100.244 32.015 100.561 29.7556 100.038 27.5099C99.5214 25.2924 98.1833 23.0679 95.1571 21.407L95.8067 20.3581C99.1903 22.2151 100.735 24.7541 101.322 27.2764C101.903 29.7706 101.544 32.2275 101.187 33.9606L99.8959 33.7053Z" fill="#EAEBF0"/>
<path d="M110.405 37.6799C110.397 38.0171 110.097 38.2787 109.734 38.2643C109.371 38.2499 109.083 37.9649 109.09 37.6278L110.405 37.6799ZM103.314 25.8709C103.019 25.6675 102.953 25.2844 103.165 25.015C103.377 24.7457 103.788 24.6922 104.083 24.8956L103.314 25.8709ZM109.09 37.6278C109.156 34.7059 108.795 29.6569 103.314 25.8709L104.083 24.8956C110.1 29.0523 110.473 34.6322 110.405 37.6799L109.09 37.6278Z" fill="#EAEBF0"/>
<path d="M118.028 40.1987C117.98 40.5319 117.649 40.7628 117.289 40.7144C116.928 40.6661 116.675 40.3568 116.722 40.0236L118.028 40.1987ZM112.487 30.7868C112.16 30.6348 112.025 30.2681 112.185 29.9677C112.345 29.6673 112.74 29.5469 113.067 29.6989L112.487 30.7868ZM116.722 40.0236C116.913 38.6878 117.049 36.9257 116.538 35.2227C116.035 33.5477 114.902 31.9102 112.487 30.7868L113.067 29.6989C115.853 30.9953 117.213 32.9346 117.806 34.9103C118.391 36.8579 118.225 38.82 118.028 40.1987L116.722 40.0236Z" fill="#EAEBF0"/>
<path d="M124.415 41.8206C124.431 42.1567 124.149 42.4444 123.786 42.4633C123.423 42.4821 123.115 42.2249 123.099 41.8888L124.415 41.8206ZM117.232 33.4411C116.887 33.3374 116.702 32.9938 116.819 32.6735C116.935 32.3532 117.309 32.1776 117.653 32.2812L117.232 33.4411ZM123.099 41.8888C122.973 39.2155 122.316 34.9699 117.232 33.4411L117.653 32.2812C123.6 34.0697 124.287 39.1024 124.415 41.8206L123.099 41.8888Z" fill="#EAEBF0"/>
<path d="M84.9212 82.537L85.2061 81.97L84.9212 82.537ZM85.9175 83.0406L85.7782 83.6597L86.2067 82.4759L85.9175 83.0406ZM70.7271 68.6118L71.2988 68.3365L70.7271 68.6118ZM51.7039 56.6013L51.817 55.9769L51.751 55.965L51.6839 55.9671L51.7039 56.6013ZM51.6934 56.6016L51.6734 55.9674L51.4565 57.1903L51.6934 56.6016ZM62.2916 68.6118L62.8657 68.882L62.2916 68.6118ZM59.4866 76.4731L58.8553 76.4086L60.0449 76.7747L59.4866 76.4731ZM63.8922 73.798L64.0292 74.4176L63.8922 73.798ZM78.7869 79.24L78.3794 79.7264L78.7869 79.24ZM81.4475 81.3156L81.1032 81.8486L81.4475 81.3156ZM84.6364 83.104C84.9763 83.2748 85.3065 83.4406 85.6282 83.6054L86.2067 82.4759C85.8798 82.3084 85.5451 82.1403 85.2061 81.97L84.6364 83.104ZM70.1554 68.8871C72.3502 73.4456 74.8626 76.4514 77.3972 78.5983C79.9254 80.7398 82.4577 82.0096 84.6364 83.104L85.2061 81.97C83.0242 80.874 80.6173 79.6627 78.2174 77.63C75.824 75.6026 73.4195 72.741 71.2988 68.3365L70.1554 68.8871ZM51.5908 57.2257C57.5293 58.3018 61.5598 59.9687 64.4035 61.9763C67.2383 63.9778 68.9309 66.344 70.1554 68.8871L71.2988 68.3365C70.0016 65.6423 68.182 63.0905 65.1354 60.9396C62.0975 58.7948 57.8772 57.0751 51.817 55.9769L51.5908 57.2257ZM51.6839 55.9671C51.6804 55.9672 51.6769 55.9673 51.6734 55.9674L51.7134 57.2359C51.7169 57.2358 51.7204 57.2357 51.7239 57.2355L51.6839 55.9671ZM62.8657 68.882C63.5667 67.3924 63.4778 65.9144 62.8953 64.5464C62.322 63.1997 61.2734 61.9599 60.0441 60.8667C57.5846 58.6795 54.2501 56.9464 51.9303 56.013L51.4565 57.1903C53.6977 58.0921 56.8883 59.7586 59.2008 61.815C60.3574 62.8436 61.2564 63.9366 61.7277 65.0435C62.1899 66.1292 62.2425 67.2258 61.7174 68.3416L62.8657 68.882ZM60.1178 76.5375C60.2125 75.6106 60.8203 73.2285 62.8657 68.882L61.7174 68.3416C59.6546 72.7252 58.9722 75.2641 58.8553 76.4086L60.1178 76.5375ZM60.0449 76.7747C60.5224 75.8906 61.4275 74.9928 64.0292 74.4176L63.7553 73.1785C60.909 73.8077 59.6303 74.8719 58.9283 76.1715L60.0449 76.7747ZM64.0292 74.4176C70.3327 73.0241 74.8456 76.7659 78.3794 79.7264L79.1944 78.7536C75.7189 75.842 70.7422 71.6338 63.7553 73.1785L64.0292 74.4176ZM78.3794 79.7264C79.3482 80.538 80.2633 81.306 81.1032 81.8486L81.7918 80.7826C81.0323 80.2919 80.1832 79.582 79.1944 78.7536L78.3794 79.7264ZM81.1032 81.8486C82.1869 82.5488 83.635 83.1775 85.7782 83.6597L86.0568 82.4216C84.0271 81.9649 82.725 81.3856 81.7918 80.7826L81.1032 81.8486Z" fill="#EAEBF0"/>
<path d="M143.694 68.8918L143.93 69.4807L144.591 69.2156L144.252 68.5898L143.694 68.8918ZM126.72 72.2391L126.403 71.6892L126.768 72.8718L126.72 72.2391ZM121.628 63.1081L121.442 63.715L121.628 63.1081ZM114.783 58.3881L115.352 58.1063V58.1063L114.783 58.3881ZM114.535 57.9106L114.645 57.2855L113.315 57.0525L113.984 58.225L114.535 57.9106ZM114.545 57.9123L114.436 58.5373L115.864 58.7877L115.079 57.5685L114.545 57.9123ZM114.44 57.746L113.901 58.0811V58.0811L114.44 57.746ZM106.518 51.368L106.443 51.998L106.518 51.368ZM102.434 51.368L102.316 50.7446L102.524 51.9961L102.434 51.368ZM116.799 56.6871L116.336 57.1208L116.799 56.6871ZM123.471 59.6393L123.594 59.0166L123.471 59.6393ZM124.939 59.9411L124.8 60.5603L124.809 60.5624L124.819 60.5642L124.939 59.9411ZM128.767 60.6565L128.655 61.2811L128.66 61.2818L128.767 60.6565ZM128.976 60.6924L128.869 61.3177L128.869 61.3177L128.976 60.6924ZM130.903 61.0263L130.793 61.6513L130.799 61.6523L130.903 61.0263ZM131.071 61.0541L130.967 61.6801L130.968 61.6802L131.071 61.0541ZM131.651 61.159L131.528 61.7816L131.538 61.7834L131.651 61.159ZM132.786 61.4189L132.614 62.0299L132.625 62.0328L132.786 61.4189ZM143.457 68.3029C138.806 70.17 132.884 71.1346 126.672 71.6064L126.768 72.8718C133.026 72.3966 139.1 71.4196 143.93 69.4807L143.457 68.3029ZM127.036 72.7889C128.131 72.1586 128.915 71.346 129.292 70.3948C129.674 69.4303 129.607 68.3957 129.129 67.4034C128.193 65.4633 125.701 63.6879 121.813 62.5012L121.442 63.715C125.212 64.8656 127.282 66.4944 127.986 67.9547C128.327 68.6627 128.35 69.3274 128.112 69.9275C127.869 70.5409 127.325 71.1582 126.403 71.6892L127.036 72.7889ZM121.813 62.5012C119.209 61.7063 117.741 60.875 116.859 60.1294C115.992 59.3963 115.655 58.718 115.352 58.1063L114.215 58.6698C114.537 59.3205 114.968 60.1922 116.04 61.0985C117.097 61.9922 118.739 62.8898 121.442 63.715L121.813 62.5012ZM115.352 58.1063C115.269 57.9397 115.182 57.7625 115.087 57.5961L113.984 58.225C114.058 58.3534 114.128 58.4959 114.215 58.6698L115.352 58.1063ZM114.426 58.5356L114.436 58.5373L114.655 57.2872L114.645 57.2855L114.426 58.5356ZM115.079 57.5685C115.044 57.5155 115.011 57.463 114.979 57.4109L113.901 58.0811C113.937 58.1392 113.974 58.1975 114.012 58.256L115.079 57.5685ZM114.979 57.4109C113.205 54.5589 111.569 52.9346 110.127 51.9992C108.673 51.056 107.456 50.8411 106.594 50.7379L106.443 51.998C107.2 52.0885 108.205 52.2653 109.437 53.064C110.68 53.8706 112.196 55.3385 113.901 58.0811L114.979 57.4109ZM106.594 50.7379C104.939 50.5401 104.106 50.487 102.344 50.7399L102.524 51.9961C104.143 51.7638 104.858 51.8086 106.443 51.998L106.594 50.7379ZM102.552 51.9914C105.832 51.3695 108.408 51.7469 110.581 52.7095C112.768 53.6784 114.593 55.2595 116.336 57.1208L117.262 56.2533C115.471 54.3407 113.509 52.6184 111.095 51.5492C108.667 50.4738 105.828 50.0786 102.316 50.7446L102.552 51.9914ZM116.336 57.1208C118.379 59.3021 120.956 59.7918 123.349 60.2619L123.594 59.0166C121.154 58.5373 118.987 58.0952 117.262 56.2533L116.336 57.1208ZM123.349 60.2619C123.839 60.3581 124.321 60.4529 124.8 60.5603L125.078 59.322C124.58 59.2103 124.081 59.1123 123.594 59.0166L123.349 60.2619ZM124.819 60.5642C126.111 60.8133 127.409 61.0576 128.655 61.2811L128.879 60.0319C127.641 59.8097 126.348 59.5665 125.059 59.3181L124.819 60.5642ZM128.66 61.2818L128.869 61.3177L129.084 60.067L128.875 60.0311L128.66 61.2818ZM128.869 61.3177C129.465 61.4202 130.104 61.5301 130.793 61.6513L131.013 60.4014C130.321 60.2797 129.68 60.1694 129.084 60.067L128.869 61.3177ZM130.799 61.6523L130.967 61.6801L131.174 60.428L131.006 60.4003L130.799 61.6523ZM130.968 61.6802C131.156 61.7112 131.343 61.745 131.528 61.7815L131.774 60.5364C131.575 60.4973 131.375 60.4611 131.174 60.4279L130.968 61.6802ZM131.538 61.7834C131.917 61.852 132.276 61.9347 132.614 62.0298L132.957 60.8081C132.579 60.7016 132.181 60.61 131.764 60.5346L131.538 61.7834ZM132.625 62.0328C134.612 62.5523 136.939 63.7673 138.944 65.169C140.967 66.5836 142.549 68.1094 143.136 69.1938L144.252 68.5898C143.518 67.2337 141.73 65.5681 139.671 64.1289C137.594 62.6769 135.128 61.3757 132.946 60.805L132.625 62.0328Z" fill="#EAEBF0"/>
<path d="M86.0643 53.7109L85.6016 54.1451L86.0643 53.7109ZM95.9964 58.0958L96.1184 57.4731L95.9964 58.0958ZM64.6817 45.8105L64.5637 45.1871L64.7717 46.4387L64.6817 45.8105ZM70.7611 45.8105L70.8362 45.1805L70.7611 45.8105ZM82.5527 55.2838L83.0912 54.9482L83.0912 54.9481L82.5527 55.2838ZM82.7094 55.5307L82.6001 56.1557L84.0302 56.4058L83.2424 55.1864L82.7094 55.5307ZM82.695 55.5282L82.8043 54.9031L81.4735 54.6704L82.1442 55.8432L82.695 55.5282ZM95.2412 64.3898L95.0563 64.9968L95.2412 64.3898ZM100.678 72.4823L100.043 72.4918L100.053 73.111L100.672 73.1168L100.678 72.4823ZM105.284 72.5516L105.273 73.186L105.284 72.5516ZM126.308 72.2695L126.354 72.9024L127.239 72.8384L126.892 72.0216L126.308 72.2695ZM109.861 60.7391L109.69 61.3502L109.701 61.3531L109.861 60.7391ZM108.172 60.353L108.05 60.9757L108.06 60.9775L108.172 60.353ZM107.309 60.1972L107.205 60.8233L107.206 60.8233L107.309 60.1972ZM107.059 60.156L106.949 60.781L106.955 60.782L107.059 60.156ZM104.191 59.66L104.083 60.2854L104.083 60.2854L104.191 59.66ZM103.88 59.6067L103.768 60.2313L103.773 60.2321L103.88 59.6067ZM98.1811 58.5442L98.0426 59.1634L98.0519 59.1655L98.0613 59.1673L98.1811 58.5442ZM85.6016 54.1451C88.5647 57.3024 92.3007 58.0181 95.8743 58.7185L96.1184 57.4731C92.4976 56.7634 89.1721 56.0951 86.527 53.2767L85.6016 54.1451ZM64.7997 46.434C69.7387 45.4995 73.6374 46.0644 76.9348 47.5217C80.2459 48.9853 82.9954 51.3682 85.6016 54.1451L86.527 53.2767C83.8725 50.4483 80.9854 47.9246 77.4478 46.361C73.8964 44.7913 69.7343 44.2087 64.5637 45.1871L64.7997 46.434ZM70.8362 45.1805C68.3906 44.8887 67.179 44.8118 64.5917 45.1824L64.7717 46.4387C67.2156 46.0886 68.31 46.1571 70.6859 46.4406L70.8362 45.1805ZM83.0912 54.9481C80.4679 50.7385 78.0622 48.364 75.9637 47.0061C73.8531 45.6404 72.0943 45.3306 70.8362 45.1805L70.6859 46.4406C71.8386 46.5781 73.3864 46.85 75.2743 48.0716C77.1743 49.301 79.4591 51.5194 82.0142 55.6194L83.0912 54.9481ZM83.2424 55.1864C83.1908 55.1064 83.1404 55.027 83.0912 54.9482L82.0142 55.6193C82.0671 55.7042 82.1212 55.7894 82.1764 55.875L83.2424 55.1864ZM82.5857 56.1532L82.6001 56.1557L82.8187 54.9056L82.8043 54.9031L82.5857 56.1532ZM95.4261 63.7828C91.0172 62.44 88.226 60.7253 86.4176 59.1475C84.6124 57.5725 83.7594 56.1112 83.2458 55.2132L82.1442 55.8432C82.6841 56.7873 83.6205 58.3913 85.5833 60.1038C87.5428 61.8134 90.498 63.6085 95.0563 64.9968L95.4261 63.7828ZM101.312 72.4728C101.263 69.1929 99.9961 65.1746 95.4261 63.7828L95.0563 64.9968C98.8606 66.1554 99.9979 69.4651 100.043 72.4918L101.312 72.4728ZM105.295 71.9171C103.661 71.8884 102.114 71.8612 100.684 71.8478L100.672 73.1168C102.096 73.1301 103.638 73.1573 105.273 73.186L105.295 71.9171ZM126.262 71.6366C119.047 72.1586 111.536 72.0269 105.295 71.9171L105.273 73.186C111.505 73.2956 119.072 73.4292 126.354 72.9024L126.262 71.6366ZM109.701 61.3531C112.829 62.1693 116.491 64.1139 119.569 66.3129C121.103 67.4093 122.478 68.5583 123.556 69.6448C124.645 70.7421 125.392 71.7355 125.724 72.5173L126.892 72.0216C126.466 71.0173 125.585 69.8869 124.457 68.7508C123.319 67.6037 121.887 66.4093 120.307 65.2803C117.155 63.0284 113.351 60.9939 110.021 60.1251L109.701 61.3531ZM108.06 60.9775C108.634 61.081 109.177 61.206 109.69 61.35L110.033 60.1282C109.479 59.9729 108.897 59.8389 108.285 59.7286L108.06 60.9775ZM107.206 60.8233C107.489 60.8699 107.771 60.9208 108.05 60.9756L108.295 59.7304C108.003 59.673 107.708 59.6198 107.411 59.571L107.206 60.8233ZM106.955 60.782L107.205 60.8233L107.412 59.5711L107.162 59.5299L106.955 60.782ZM104.083 60.2854C104.971 60.4376 105.923 60.6008 106.949 60.781L107.168 59.531C106.139 59.3504 105.185 59.1867 104.298 59.0346L104.083 60.2854ZM103.773 60.2321L104.083 60.2854L104.298 59.0346L103.987 58.9813L103.773 60.2321ZM98.0613 59.1673C99.9839 59.5371 101.915 59.8997 103.768 60.2313L103.992 58.9821C102.146 58.6517 100.22 58.2902 98.301 57.921L98.0613 59.1673ZM95.8743 58.7185C96.603 58.8613 97.3248 59.0028 98.0426 59.1634L98.3196 57.9249C97.5827 57.7601 96.8444 57.6154 96.1184 57.4731L95.8743 58.7185Z" fill="#EAEBF0"/>
</svg>
