<svg width="120" height="120" viewBox="0 0 120 120" fill="none" xmlns="http://www.w3.org/2000/svg">
<circle cx="60" cy="60.4528" r="58.871" stroke="#EAEBF0" stroke-width="1.35246"/>
<circle cx="60" cy="60.4528" r="47.009" stroke="#EAEBF0" stroke-width="1.35246"/>
<path fill-rule="evenodd" clip-rule="evenodd" d="M62.6034 5.82164C62.7 5.68121 62.8223 5.57566 62.9702 5.50499C63.1218 5.43108 63.2968 5.40064 63.4952 5.41366L63.4547 6.02957L63.3033 6.01963C63.0702 6.00432 62.8888 6.05182 62.7593 6.16213C62.6332 6.27267 62.5606 6.47409 62.5414 6.76639L62.4419 8.28007L61.8469 8.24099L62.0358 5.36499L62.6308 5.40407L62.6034 5.82164ZM57.4723 8.27923L57.35 5.39963L56.7542 5.42494L56.8223 7.02936C56.8333 7.28718 56.7755 7.48859 56.6491 7.63358C56.5259 7.77493 56.3529 7.85034 56.1299 7.85982C55.9069 7.86929 55.7281 7.80882 55.5934 7.67842C55.4586 7.54453 55.3857 7.34867 55.3747 7.09085L55.3066 5.48643L54.716 5.51151L54.7879 7.20478C54.799 7.46609 54.859 7.68692 54.9679 7.86729C55.0803 8.0475 55.2273 8.18087 55.409 8.2674C55.5941 8.35377 55.8 8.39215 56.0264 8.38253C56.1972 8.37528 56.356 8.33537 56.503 8.26281C56.6534 8.18662 56.773 8.08729 56.8621 7.96484L56.8765 8.30454L57.4723 8.27923ZM47.7644 7.08341C47.8388 6.928 47.9539 6.79174 48.1097 6.67463C48.2684 6.55345 48.454 6.47343 48.6667 6.43454C48.9171 6.38876 49.1545 6.4074 49.3789 6.49046C49.6032 6.57352 49.7941 6.71588 49.9515 6.91753C50.1082 7.11575 50.2127 7.35722 50.2647 7.64194C50.3168 7.92666 50.3052 8.19289 50.2299 8.44061C50.1541 8.68491 50.0248 8.88934 49.8422 9.05389C49.6624 9.21439 49.449 9.31721 49.202 9.36237C48.9825 9.4025 48.7791 9.39537 48.5919 9.34097C48.4081 9.28594 48.2543 9.20063 48.1303 9.08503L48.2056 9.49667L47.619 9.60392L46.9229 5.7962L47.5094 5.68896L47.7644 7.08341ZM49.6678 7.75107C49.6321 7.55553 49.5602 7.39497 49.4521 7.26938C49.3469 7.13973 49.2208 7.05111 49.0738 7.00353C48.9297 6.9519 48.7822 6.93988 48.6312 6.96747C48.4837 6.99444 48.35 7.05788 48.23 7.15781C48.1134 7.25711 48.0271 7.38633 47.9712 7.54545C47.9186 7.70395 47.9102 7.88097 47.9459 8.0765C47.9817 8.27203 48.0525 8.43634 48.1584 8.56942C48.267 8.69844 48.3934 8.78877 48.5376 8.84041C48.6852 8.89142 48.8327 8.90344 48.9802 8.87647C49.1312 8.84888 49.2649 8.78543 49.3815 8.68613C49.5008 8.58277 49.5865 8.45013 49.6384 8.2882C49.6938 8.12564 49.7036 7.9466 49.6678 7.75107ZM36.1661 10.4922L35.7725 10.2172L35.4324 10.8976L35.2049 10.1595L34.7665 10.3705L35.192 11.0133L34.4364 10.8545L34.4056 11.3453L35.1577 11.2678L34.6324 11.8167L35.0515 12.1084L35.3801 11.4162L35.6195 12.1427L36.0531 11.934L35.6252 11.2982L36.3667 11.4638L36.3975 10.973L35.636 11.0434L36.1661 10.4922ZM27.3915 17.8272C27.4576 17.9128 27.5118 17.9943 27.5541 18.0718L25.8118 19.4187C25.9664 19.5901 26.147 19.6841 26.3537 19.7006C26.5604 19.7171 26.7521 19.6571 26.9287 19.5206C27.1825 19.3244 27.2797 19.0795 27.2203 18.786L27.7293 18.3925C27.8225 18.6555 27.8302 18.925 27.7526 19.201C27.6757 19.472 27.5034 19.711 27.2358 19.9179C27.0178 20.0864 26.7846 20.1895 26.5361 20.2273C26.2883 20.2602 26.0465 20.2268 25.8107 20.127C25.5755 20.0223 25.3672 19.8527 25.1859 19.6182C25.0046 19.3837 24.8926 19.1419 24.85 18.8928C24.8079 18.6388 24.8351 18.3974 24.9315 18.1686C25.0306 17.9377 25.192 17.7359 25.4154 17.5631C25.6306 17.3967 25.8586 17.2954 26.0994 17.2591C26.3403 17.2228 26.5737 17.2539 26.7997 17.3525C27.0236 17.4483 27.2209 17.6065 27.3915 17.8272ZM26.7839 18.059C26.6467 17.8873 26.477 17.7959 26.2745 17.7849C26.0721 17.7739 25.8812 17.8378 25.7019 17.9764C25.5391 18.1022 25.4403 18.2624 25.4054 18.4568C25.3685 18.6484 25.4072 18.8411 25.5216 19.0347L26.7839 18.059ZM22.3409 21.0404L22.7277 20.6729L22.3926 20.3202L22.0058 20.6878L21.8653 20.5399C21.75 20.4186 21.696 20.3087 21.7035 20.2102C21.7085 20.1092 21.7767 19.9962 21.9082 19.8713L21.5659 19.5111C21.2929 19.7706 21.1448 20.0172 21.1215 20.2509C21.0985 20.4797 21.201 20.7142 21.4292 20.9543L21.5698 21.1022L21.3233 21.3364L21.6585 21.6891L21.9049 21.4548L23.5553 23.1914L23.9914 22.777L22.3409 21.0404ZM19.5467 22.6665C19.4728 22.7453 19.3841 22.7865 19.2806 22.7899C19.1771 22.7933 19.0859 22.758 19.007 22.6841C18.9281 22.6102 18.887 22.5215 18.8836 22.418C18.8802 22.3145 18.9154 22.2233 18.9893 22.1444C19.0609 22.068 19.1484 22.0282 19.2519 22.0248C19.3554 22.0214 19.4466 22.0566 19.5255 22.1305C19.6044 22.2044 19.6455 22.2931 19.6489 22.3967C19.6523 22.5002 19.6182 22.5901 19.5467 22.6665ZM20.0257 22.7137L22.1292 24.684L21.7216 25.1192L19.618 23.1489L20.0257 22.7137ZM20.5193 26.5008L17.5723 23.9911L17.1857 24.4451L20.1327 26.9548L20.5193 26.5008ZM14.7105 30.1616C14.6382 30.0072 14.609 29.8484 14.6229 29.685C14.6359 29.5168 14.6981 29.3505 14.8097 29.186L15.3205 29.5325L15.2354 29.658C15.1042 29.8514 15.0535 30.0318 15.0831 30.1994C15.1146 30.3641 15.2516 30.5286 15.4941 30.6931L16.7495 31.5445L16.4148 32.0381L14.0295 30.4202L14.3642 29.9267L14.7105 30.1616ZM13.1956 37.4946C13.4066 37.358 13.576 37.1697 13.7039 36.9296C13.8333 36.6865 13.8975 36.4362 13.8963 36.1787C13.8937 35.9166 13.8235 35.6737 13.6857 35.4502C13.5479 35.2267 13.3497 35.0461 13.0912 34.9085C12.8326 34.7708 12.573 34.7056 12.3123 34.713C12.0516 34.7203 11.8149 34.7938 11.6022 34.9334C11.3896 35.073 11.2186 35.2644 11.0891 35.5076C10.9596 35.7508 10.8962 35.9995 10.8991 36.2539C10.9019 36.5082 10.973 36.7456 11.1125 36.9661C11.2519 37.1865 11.4509 37.3655 11.7094 37.5032C11.9711 37.6425 12.2314 37.7101 12.4905 37.7058C12.7465 37.6999 12.9815 37.6295 13.1956 37.4946ZM13.3514 36.256C13.3538 36.4074 13.3189 36.5508 13.2468 36.6862C13.1337 36.8986 12.9656 37.0363 12.7424 37.0992C12.5178 37.1574 12.2686 37.1135 11.9946 36.9677C11.8099 36.8693 11.6725 36.7527 11.5824 36.6178C11.4892 36.4812 11.4406 36.3388 11.4366 36.1905C11.4342 36.0391 11.4691 35.8957 11.5412 35.7602C11.6134 35.6248 11.7129 35.5158 11.8398 35.4333C11.9667 35.3507 12.1137 35.3085 12.2806 35.3065C12.4445 35.3029 12.6188 35.3503 12.8035 35.4487C12.9882 35.547 13.1255 35.6675 13.2154 35.8102C13.3054 35.953 13.3507 36.1015 13.3514 36.256ZM9.982 39.2918L9.77968 39.7855L11.9965 40.694L11.7684 41.2506L9.55157 40.3422L9.42264 40.6568L8.97251 40.4723L9.10144 40.1577L8.91267 40.0803C8.60612 39.9547 8.41654 39.7828 8.3439 39.5646C8.26936 39.3418 8.3035 39.0562 8.44632 38.7077L8.90614 38.8962C8.83737 39.064 8.82137 39.195 8.85814 39.2892C8.89168 39.3821 8.98589 39.4602 9.14078 39.5237L9.32954 39.6011L9.53187 39.1074L9.982 39.2918ZM6.94155 47.5661C6.80812 47.7167 6.71467 47.9021 6.66122 48.1224C6.62093 48.2885 6.61489 48.4539 6.64309 48.6186C6.67212 48.7799 6.73274 48.922 6.82493 49.0449L6.50468 48.9672L6.36407 49.5467L9.16499 50.2263L9.3056 49.6468L7.73994 49.2669C7.48916 49.2061 7.3129 49.0969 7.21116 48.9394C7.10685 48.7778 7.08101 48.5885 7.13364 48.3716C7.18626 48.1547 7.29557 48 7.46155 47.9075C7.62414 47.8142 7.83083 47.798 8.0816 47.8588L9.64727 48.2387L9.78665 47.6643L8.13457 47.2634C7.8804 47.2018 7.65159 47.1983 7.44813 47.253C7.24467 47.3077 7.07581 47.412 6.94155 47.5661ZM6.25761 53.4364C6.12379 53.3308 6.02646 53.2019 5.96561 53.0497C5.90177 52.8935 5.88283 52.7169 5.90879 52.5199L6.52074 52.6005L6.50093 52.7509C6.47041 52.9825 6.50595 53.1666 6.60756 53.3031C6.70962 53.4361 6.90586 53.5218 7.19628 53.56L8.70023 53.7582L8.62233 54.3494L5.76483 53.9729L5.84273 53.3817L6.25761 53.4364ZM8.37849 58.4456L5.49735 58.3677L5.48124 58.9638L7.08652 59.0072C7.34448 59.0142 7.54139 59.0858 7.67725 59.222C7.80972 59.3546 7.87293 59.5325 7.8669 59.7556C7.86088 59.9787 7.78814 60.1529 7.6487 60.2782C7.50578 60.4034 7.30534 60.4626 7.04738 60.4556L5.44209 60.4122L5.42613 61.0031L7.1203 61.0489C7.38175 61.0559 7.60621 61.0114 7.7937 60.9153C7.98128 60.8157 8.12454 60.6783 8.22346 60.5031C8.32248 60.3244 8.37505 60.1217 8.38118 59.8951C8.38579 59.7243 8.35701 59.563 8.29483 59.4114C8.22925 59.2561 8.13848 59.1298 8.0225 59.0325L8.36238 59.0417L8.37849 58.4456ZM114.191 61.6254C114.116 61.4454 114.013 61.3001 113.881 61.1896L115.295 61.2879L115.336 60.6931L111.475 60.4245L111.433 61.0194L111.851 61.0484C111.708 61.1399 111.587 61.2678 111.488 61.4322C111.389 61.6001 111.332 61.7954 111.317 62.018C111.299 62.2685 111.346 62.5007 111.457 62.7147C111.571 62.9323 111.737 63.1082 111.955 63.2422C112.176 63.3764 112.431 63.4536 112.72 63.4737C113.009 63.4938 113.269 63.4524 113.5 63.3496C113.734 63.2471 113.919 63.0974 114.055 62.9006C114.191 62.7038 114.268 62.4785 114.286 62.2245C114.301 62.0088 114.269 61.8091 114.191 61.6254ZM113.282 62.7787C113.134 62.8523 112.961 62.8822 112.762 62.8684C112.564 62.8546 112.393 62.8007 112.249 62.7068C112.105 62.6164 111.998 62.5006 111.927 62.3594C111.86 62.2218 111.832 62.0765 111.842 61.9235C111.853 61.7739 111.901 61.6339 111.987 61.5036C112.073 61.3767 112.191 61.2766 112.343 61.2033C112.498 61.1337 112.675 61.1057 112.873 61.1195C113.072 61.1333 113.241 61.1853 113.382 61.2755C113.522 61.3691 113.626 61.4847 113.693 61.6222C113.76 61.7632 113.789 61.9085 113.778 62.0581C113.768 62.2112 113.719 62.3512 113.634 62.478C113.551 62.6086 113.434 62.7089 113.282 62.7787ZM110.308 70.3179L113.128 70.9118L113.251 70.3283L111.68 69.9974C111.427 69.9442 111.246 69.8384 111.137 69.68C111.031 69.5257 111 69.3393 111.046 69.121C111.092 68.9026 111.195 68.7443 111.355 68.646C111.518 68.5485 111.726 68.5263 111.978 68.5795L113.55 68.9105L113.671 68.3321L112.013 67.9828C111.757 67.9289 111.528 67.9324 111.327 67.9933C111.124 68.0575 110.959 68.167 110.83 68.3216C110.7 68.4797 110.612 68.6696 110.565 68.8914C110.53 69.0586 110.53 69.2224 110.564 69.3828C110.6 69.5473 110.667 69.6878 110.763 69.8044L110.431 69.7343L110.308 70.3179ZM111.463 75.7061C111.575 75.8342 111.648 75.9787 111.68 76.1394C111.714 76.3046 111.701 76.4817 111.639 76.6707L111.052 76.4802L111.099 76.3359C111.171 76.1137 111.17 75.9262 111.095 75.7735C111.019 75.6241 110.841 75.5042 110.563 75.4138L109.12 74.9455L109.304 74.3784L112.045 75.2681L111.861 75.8353L111.463 75.7061ZM109.695 81.4C109.854 81.2764 109.98 81.1112 110.073 80.9045C110.143 80.7486 110.179 80.5871 110.181 80.42C110.182 80.2561 110.149 80.1053 110.081 79.9676L110.381 80.1028L110.626 79.5589L107.997 78.377L107.753 78.9209L109.222 79.5815C109.457 79.6873 109.611 79.827 109.682 80.0004C109.755 80.1785 109.745 80.3693 109.654 80.5729C109.562 80.7764 109.427 80.9084 109.246 80.9689C109.069 81.0308 108.863 81.0089 108.628 80.903L107.159 80.2424L106.916 80.7815L108.467 81.4786C108.705 81.5859 108.93 81.6313 109.14 81.6148C109.35 81.5984 109.535 81.5268 109.695 81.4ZM105.229 88.9051L105.517 88.456L103.501 87.1625L103.826 86.6562L105.842 87.9496L106.026 87.6635L106.435 87.9261L106.252 88.2123L106.423 88.3224C106.702 88.5013 106.858 88.7046 106.89 88.9323C106.923 89.1649 106.838 89.4396 106.635 89.7567L106.216 89.4883C106.314 89.3357 106.354 89.2098 106.334 89.1105C106.318 89.013 106.24 88.9191 106.099 88.8288L105.927 88.7186L105.639 89.1677L105.229 88.9051ZM101.663 90.1911C101.431 90.2869 101.23 90.4411 101.061 90.6539C100.889 90.8694 100.78 91.1038 100.734 91.3571C100.689 91.6154 100.714 91.8669 100.809 92.1118C100.903 92.3567 101.065 92.5704 101.294 92.7529C101.524 92.9354 101.767 93.0468 102.025 93.0871C102.282 93.1274 102.528 93.0983 102.763 92.9998C102.997 92.9013 103.201 92.7443 103.372 92.5288C103.544 92.3134 103.651 92.0803 103.695 91.8297C103.739 91.5791 103.712 91.3327 103.615 91.0905C103.518 90.8484 103.355 90.6361 103.126 90.4535C102.894 90.2689 102.651 90.155 102.395 90.112C102.142 90.0711 101.898 90.0975 101.663 90.1911ZM101.284 91.3805C101.31 91.2312 101.37 91.0966 101.466 90.9766C101.615 90.7884 101.806 90.6837 102.037 90.6625C102.268 90.6462 102.505 90.7348 102.748 90.9281C102.912 91.0585 103.026 91.1982 103.09 91.3473C103.156 91.4986 103.178 91.6475 103.155 91.7941C103.13 91.9433 103.069 92.078 102.974 92.198C102.878 92.318 102.76 92.407 102.621 92.465C102.481 92.5231 102.328 92.5378 102.164 92.5093C102.002 92.4829 101.839 92.4046 101.676 92.2742C101.512 92.1438 101.399 92.0003 101.337 91.8436C101.274 91.6869 101.257 91.5325 101.284 91.3805ZM98.8698 97.0804C98.9129 97.2453 98.9128 97.4068 98.8696 97.5649C98.8264 97.728 98.735 97.8803 98.5955 98.0219L98.1559 97.5886L98.2624 97.4806C98.4264 97.3142 98.509 97.1459 98.5102 96.9757C98.509 96.8081 98.4041 96.6214 98.1954 96.4158L97.115 95.351L97.5336 94.9263L99.5864 96.9494L99.1678 97.3741L98.8698 97.0804ZM92.4511 99.6558L94.8959 102.657L95.3582 102.28L92.9135 99.2792L92.4511 99.6558ZM92.6757 103.625C92.7626 103.56 92.8573 103.536 92.9597 103.551C93.0621 103.567 93.1454 103.618 93.2097 103.705C93.2739 103.792 93.2983 103.886 93.2829 103.989C93.2675 104.091 93.2164 104.175 93.1294 104.239C93.0452 104.301 92.952 104.324 92.8495 104.309C92.7471 104.294 92.6638 104.242 92.5996 104.156C92.5354 104.069 92.5109 103.974 92.5263 103.871C92.5417 103.769 92.5915 103.687 92.6757 103.625ZM92.2132 103.491L90.5007 101.173L90.9804 100.819L92.6928 103.137L92.2132 103.491ZM89.6657 104.686L89.2187 104.977L89.4844 105.385L89.9314 105.094L90.0428 105.264C90.1342 105.405 90.1673 105.523 90.1421 105.618C90.1189 105.716 90.0313 105.815 89.8793 105.914L90.1507 106.331C90.4662 106.125 90.6566 105.909 90.7218 105.684C90.786 105.463 90.7276 105.214 90.5467 104.936L90.4353 104.765L90.7201 104.579L90.4545 104.172L90.1697 104.358L88.8614 102.351L88.3575 102.679L89.6657 104.686ZM84.2343 106.856C84.1846 106.76 84.1459 106.67 84.1181 106.586L86.0733 105.573C85.9519 105.377 85.7909 105.252 85.5905 105.199C85.3901 105.145 85.1908 105.17 84.9927 105.273C84.7079 105.421 84.5684 105.644 84.5743 105.943L84.0031 106.24C83.9585 105.964 83.9991 105.698 84.1248 105.44C84.249 105.187 84.4613 104.983 84.7616 104.827C85.0062 104.7 85.2541 104.641 85.5053 104.648C85.755 104.66 85.987 104.736 86.2011 104.876C86.4138 105.021 86.5883 105.225 86.7248 105.489C86.8612 105.752 86.9281 106.01 86.9255 106.262C86.9215 106.52 86.8516 106.752 86.7158 106.96C86.5769 107.17 86.3821 107.34 86.1313 107.47C85.8898 107.595 85.6474 107.654 85.4039 107.646C85.1605 107.639 84.9364 107.566 84.7317 107.429C84.5285 107.295 84.3627 107.104 84.2343 106.856ZM84.8736 106.737C84.9778 106.93 85.1285 107.051 85.3258 107.098C85.523 107.145 85.7222 107.116 85.9234 107.012C86.1061 106.917 86.232 106.777 86.301 106.592C86.3717 106.41 86.368 106.214 86.2901 106.003L84.8736 106.737ZM74.0641 112.53L74.4007 112.873L74.8596 112.266L74.9482 113.033L75.4178 112.906L75.1171 112.196L75.8309 112.49L75.9509 112.014L75.1973 111.952L75.8141 111.509L75.4555 111.145L75.0058 111.766L74.9033 111.008L74.4389 111.133L74.7433 111.837L74.0446 111.538L73.9245 112.015L74.686 112.085L74.0641 112.53ZM64.7605 113.544C64.666 113.688 64.5336 113.808 64.3635 113.903C64.19 114.001 63.9953 114.056 63.7793 114.066C63.525 114.078 63.2923 114.027 63.0811 113.915C62.8699 113.803 62.6999 113.636 62.571 113.415C62.4422 113.198 62.3711 112.944 62.3577 112.655C62.3443 112.366 62.3915 112.104 62.4993 111.868C62.6072 111.636 62.7627 111.451 62.9658 111.313C63.1655 111.178 63.3907 111.104 63.6416 111.093C63.8645 111.082 64.0651 111.117 64.2433 111.196C64.418 111.275 64.559 111.38 64.6663 111.511L64.647 111.093L65.2427 111.066L65.4218 114.932L64.8262 114.96L64.7605 113.544ZM62.9638 112.627C62.973 112.826 63.0228 112.994 63.113 113.133C63.1999 113.276 63.3129 113.381 63.4522 113.447C63.5881 113.518 63.7327 113.55 63.886 113.543C64.0358 113.536 64.1768 113.491 64.3091 113.408C64.438 113.325 64.5408 113.208 64.6176 113.058C64.6909 112.908 64.723 112.734 64.7138 112.535C64.7046 112.337 64.6565 112.165 64.5694 112.018C64.479 111.876 64.3659 111.77 64.2299 111.699C64.0905 111.629 63.9459 111.597 63.7962 111.604C63.6429 111.611 63.5018 111.656 63.373 111.739C63.2409 111.825 63.1382 111.945 63.065 112.099C62.9884 112.252 62.9546 112.428 62.9638 112.627ZM55.0586 111.035L54.7922 113.904L55.386 113.96L55.5344 112.361C55.5583 112.104 55.6426 111.912 55.7874 111.785C55.9285 111.662 56.1101 111.61 56.3323 111.631C56.5546 111.651 56.7236 111.735 56.8395 111.883C56.9551 112.034 57.001 112.237 56.9771 112.494L56.8287 114.093L57.4173 114.148L57.5739 112.461C57.5981 112.2 57.5684 111.973 57.4848 111.78C57.3977 111.586 57.2699 111.434 57.1015 111.324C56.9297 111.213 56.7309 111.148 56.5052 111.127C56.3351 111.111 56.1723 111.129 56.0168 111.181C55.8576 111.237 55.7256 111.319 55.6209 111.428L55.6524 111.09L55.0586 111.035ZM49.8357 112.792C49.7211 112.919 49.5858 113.007 49.4298 113.057C49.2696 113.11 49.0921 113.117 48.8973 113.077L49.0199 112.472L49.1686 112.502C49.3975 112.549 49.5836 112.526 49.7268 112.434C49.8665 112.341 49.9655 112.152 50.0237 111.864L50.325 110.378L50.9094 110.496L50.337 113.321L49.7525 113.202L49.8357 112.792ZM44.0695 111.71C44.2107 111.853 44.3893 111.959 44.6054 112.027C44.7684 112.079 44.933 112.096 45.0992 112.079C45.2622 112.061 45.4081 112.011 45.5369 111.927L45.4376 112.241L46.0061 112.421L46.8751 109.673L46.3066 109.493L45.8208 111.029C45.743 111.275 45.6221 111.444 45.4581 111.534C45.2897 111.627 45.0991 111.64 44.8863 111.573C44.6735 111.506 44.5266 111.386 44.4456 111.214C44.3636 111.046 44.3615 110.838 44.4393 110.592L44.9251 109.056L44.3615 108.878L43.8489 110.499C43.7701 110.748 43.751 110.976 43.7917 111.183C43.8324 111.39 43.925 111.565 44.0695 111.71ZM36.0676 108.122L36.5466 108.357L37.6016 106.206L38.1417 106.471L37.0867 108.621L37.392 108.771L37.1778 109.208L36.8725 109.058L36.7827 109.241C36.6368 109.539 36.4526 109.717 36.23 109.774C36.0027 109.834 35.72 109.781 35.3819 109.615L35.6007 109.169C35.7635 109.248 35.8932 109.273 35.9896 109.243C36.0846 109.216 36.1689 109.127 36.2426 108.977L36.3324 108.793L35.8534 108.558L36.0676 108.122ZM34.4445 104.755C34.3223 104.536 34.1456 104.354 33.9145 104.211C33.6805 104.065 33.435 103.985 33.178 103.969C32.9163 103.954 32.6693 104.008 32.4372 104.131C32.205 104.253 32.0117 104.439 31.8572 104.688C31.7027 104.937 31.6204 105.192 31.6105 105.452C31.6005 105.713 31.6582 105.954 31.7834 106.175C31.9086 106.397 32.0882 106.58 32.3223 106.726C32.5563 106.871 32.8004 106.951 33.0543 106.965C33.3083 106.979 33.5499 106.923 33.7791 106.799C34.0083 106.674 34.2001 106.488 34.3547 106.239C34.511 105.987 34.5956 105.732 34.6086 105.473C34.6196 105.217 34.565 104.978 34.4445 104.755ZM33.219 104.518C33.3702 104.525 33.511 104.57 33.6413 104.651C33.8458 104.778 33.972 104.954 34.02 105.181C34.0631 105.409 34.0029 105.655 33.8392 105.919C33.7288 106.096 33.6033 106.226 33.4627 106.307C33.3203 106.391 33.1749 106.43 33.0267 106.424C32.8755 106.416 32.7347 106.372 32.6043 106.291C32.474 106.21 32.3718 106.104 32.2979 105.972C32.2239 105.839 32.1915 105.69 32.2006 105.523C32.2079 105.359 32.2667 105.189 32.3771 105.011C32.4875 104.833 32.6168 104.704 32.7652 104.624C32.9136 104.544 33.0648 104.508 33.219 104.518ZM27.2866 102.78C27.1278 102.842 26.9674 102.861 26.8053 102.836C26.6383 102.812 26.4764 102.739 26.3196 102.617L26.6989 102.13L26.8186 102.223C27.0029 102.367 27.1796 102.429 27.3488 102.411C27.5152 102.39 27.6884 102.264 27.8684 102.033L28.8005 100.836L29.271 101.203L27.4999 103.477L27.0294 103.11L27.2866 102.78ZM23.9971 96.7067L21.3001 99.4833L21.7279 99.8988L24.4249 97.1222L23.9971 96.7067ZM20.0336 97.3374C20.1072 97.4166 20.1421 97.5079 20.1384 97.6114C20.1346 97.7149 20.0931 97.8035 20.014 97.8771C19.9348 97.9507 19.8435 97.9856 19.74 97.9819C19.6365 97.9781 19.5479 97.9367 19.4743 97.8575C19.4031 97.7809 19.3693 97.6908 19.3731 97.5873C19.3769 97.4838 19.4183 97.3953 19.4975 97.3217C19.5767 97.248 19.668 97.2131 19.7715 97.2169C19.875 97.2206 19.9623 97.2608 20.0336 97.3374ZM20.1138 96.8629L22.2245 94.9003L22.6305 95.337L20.5198 97.2996L20.1138 96.8629ZM18.6944 94.5351L18.3529 94.1252L17.9791 94.4365L18.3206 94.8465L18.1638 94.9771C18.0352 95.0842 17.922 95.1308 17.8242 95.117C17.7238 95.1053 17.6155 95.0298 17.4995 94.8905L17.1176 95.2085C17.3587 95.4979 17.5951 95.6618 17.8268 95.7003C18.0536 95.7383 18.2943 95.6513 18.5488 95.4393L18.7056 95.3087L18.9232 95.57L19.297 95.2586L19.0794 94.9974L20.9201 93.4641L20.5352 93.0019L18.6944 94.5351ZM15.8832 89.3531C15.9729 89.2927 16.0578 89.244 16.1379 89.2069L17.3674 91.034C17.5486 90.891 17.6542 90.7169 17.6843 90.5117C17.7144 90.3066 17.6671 90.1114 17.5425 89.9262C17.3634 89.6601 17.1255 89.547 16.8287 89.5869L16.4695 89.0531C16.7381 88.9775 17.0075 88.9875 17.2777 89.083C17.5431 89.1776 17.7703 89.3652 17.9591 89.6459C18.1129 89.8745 18.2005 90.1139 18.2219 90.3643C18.2385 90.6138 18.1892 90.8529 18.0741 91.0817C17.9542 91.3095 17.7713 91.5061 17.5254 91.6716C17.2795 91.8371 17.0308 91.933 16.7795 91.9592C16.5233 91.9845 16.2842 91.9415 16.0622 91.8303C15.8383 91.7161 15.6475 91.5419 15.4898 91.3075C15.3379 91.0819 15.2518 90.8477 15.2314 90.605C15.211 90.3624 15.2574 90.1315 15.3706 89.9124C15.4809 89.6953 15.6518 89.5088 15.8832 89.3531ZM16.0745 89.9747C15.8942 90.1002 15.7919 90.2636 15.7676 90.4649C15.7433 90.6662 15.7945 90.8608 15.921 91.0489C16.0359 91.2196 16.1892 91.3287 16.3809 91.3762C16.5697 91.4257 16.7645 91.3997 16.9652 91.2983L16.0745 89.9747ZM9.10141 79.9801L8.80065 80.3543L9.45667 80.7393L8.70502 80.9168L8.88611 81.3683L9.55598 80.9869L9.34687 81.7302L9.83455 81.7939L9.80761 81.0382L10.32 81.5991L10.6392 81.2006L9.97059 80.8263L10.7115 80.6362L10.5324 80.1895L9.86933 80.5738L10.0843 79.8451L9.59661 79.7815L9.61579 80.5459L9.10141 79.9801ZM6.54162 68.3497C6.39139 68.2654 6.26292 68.1416 6.1562 67.9785C6.04562 67.8123 5.97786 67.6218 5.95292 67.407C5.92355 67.1542 5.95761 66.9185 6.05511 66.7001C6.15261 66.4816 6.3071 66.3004 6.51858 66.1565C6.72659 66.013 6.97435 65.9245 7.26186 65.8911C7.54936 65.8577 7.81427 65.8866 8.05657 65.9779C8.2954 66.0695 8.49097 66.2118 8.64328 66.4047C8.79172 66.5946 8.88042 66.8143 8.90939 67.0637C8.93514 67.2854 8.91477 67.4878 8.84829 67.6711C8.78141 67.8509 8.68625 67.9988 8.56283 68.115L8.9785 68.0667L9.0473 68.659L5.20232 69.1056L5.13352 68.5133L6.54162 68.3497ZM7.33186 66.4938C7.13442 66.5168 6.96951 66.5781 6.83715 66.6777C6.70092 66.7743 6.60427 66.8943 6.54722 67.0379C6.4863 67.1783 6.4647 67.3248 6.4824 67.4772C6.4997 67.6261 6.5543 67.7637 6.6462 67.89C6.73769 68.0128 6.86101 68.1073 7.01615 68.1735C7.17089 68.2363 7.34698 68.2562 7.54443 68.2333C7.74187 68.2103 7.91044 68.1504 8.05014 68.0534C8.18597 67.9534 8.28434 67.8331 8.34526 67.6926C8.40578 67.5487 8.42738 67.4023 8.41008 67.2533C8.39238 67.1009 8.33778 66.9633 8.24629 66.8405C8.15092 66.7147 8.02414 66.6206 7.86594 66.5582C7.70733 66.4924 7.52931 66.4709 7.33186 66.4938ZM68.2838 6.07773C68.1244 5.95495 67.9329 5.87446 67.7095 5.83626C67.5411 5.80746 67.3757 5.81278 67.2132 5.85223C67.0543 5.89227 66.9167 5.9625 66.8004 6.06291L66.856 5.73808L66.2682 5.63758L65.7824 8.47855L66.3702 8.57905L66.6418 6.99099C66.6852 6.73663 66.782 6.55329 66.9322 6.44098C67.0863 6.32582 67.2733 6.28705 67.4933 6.32466C67.7133 6.36228 67.8751 6.46071 67.9788 6.61995C68.0831 6.77575 68.1135 6.98083 68.07 7.23519L67.7984 8.82325L68.3811 8.92287L68.6676 7.24716C68.7117 6.98936 68.6994 6.76085 68.6309 6.56162C68.5624 6.3624 68.4467 6.2011 68.2838 6.07773ZM76.9031 8.57389L76.3969 8.40536L75.6402 10.6784L75.0694 10.4884L75.8261 8.21536L75.5035 8.10797L75.6572 7.6464L75.9798 7.7538L76.0442 7.56024C76.1488 7.24591 76.3076 7.04514 76.5204 6.95794C76.7376 6.86853 77.0248 6.88331 77.3822 7.00227L77.2252 7.47376C77.0532 7.41648 76.9214 7.40936 76.8299 7.45241C76.7395 7.49214 76.6678 7.59142 76.615 7.75024L76.5505 7.9438L77.0568 8.11232L76.9031 8.57389ZM78.9515 11.6704C79.1019 11.8718 79.3011 12.0283 79.5492 12.1398C79.8004 12.2528 80.0545 12.3001 80.3112 12.2817C80.5726 12.2616 80.8102 12.1754 81.024 12.023C81.2379 11.8706 81.4048 11.6608 81.5249 11.3936C81.6451 11.1265 81.6927 10.863 81.668 10.6034C81.6433 10.3438 81.5542 10.1125 81.4007 9.90967C81.2472 9.70684 81.0448 9.54893 80.7935 9.43596C80.5422 9.32299 80.2898 9.27641 80.0362 9.29621C79.7826 9.31601 79.5505 9.40282 79.3399 9.55665C79.1292 9.71048 78.9638 9.92097 78.8437 10.1881C78.7222 10.4585 78.6722 10.7228 78.6937 10.981C78.7167 11.236 78.8027 11.4658 78.9515 11.6704ZM80.1978 11.7432C80.0469 11.7557 79.9015 11.7304 79.7615 11.6675C79.5421 11.5689 79.3935 11.4103 79.3158 11.1919C79.2428 10.9717 79.2699 10.72 79.3971 10.437C79.4829 10.2461 79.5901 10.1012 79.7187 10.0023C79.8488 9.90017 79.9876 9.84217 80.1354 9.82828C80.2862 9.81583 80.4317 9.84107 80.5716 9.90399C80.7116 9.9669 80.8269 10.0589 80.9178 10.1801C81.0086 10.3012 81.0606 10.445 81.0737 10.6115C81.0882 10.7748 81.0525 10.9518 80.9668 11.1427C80.881 11.3335 80.7699 11.4785 80.6335 11.5778C80.4971 11.6771 80.3518 11.7322 80.1978 11.7432ZM86.4274 12.7235C86.5767 12.6412 86.7333 12.6016 86.8972 12.6047C87.0658 12.6065 87.2359 12.6576 87.4075 12.7581L87.0955 13.2907L86.9646 13.214C86.763 13.0959 86.5796 13.0572 86.4143 13.0978C86.2521 13.1402 86.0969 13.2877 85.9489 13.5405L85.1821 14.8494L84.6676 14.548L86.1244 12.0611L86.6389 12.3625L86.4274 12.7235ZM90.4814 18.2947L92.7926 15.1895L92.3142 14.8335L90.0031 17.9386L90.4814 18.2947ZM94.2485 17.0791C94.1649 17.0106 94.1181 16.9247 94.1079 16.8217C94.0978 16.7186 94.127 16.6253 94.1956 16.5417C94.2641 16.4582 94.35 16.4113 94.453 16.4012C94.5561 16.391 94.6494 16.4202 94.733 16.4888C94.8139 16.5552 94.8594 16.6399 94.8695 16.743C94.8797 16.846 94.8504 16.9393 94.7819 17.0229C94.7133 17.1065 94.6275 17.1533 94.5244 17.1635C94.4213 17.1736 94.3294 17.1455 94.2485 17.0791ZM94.2327 17.5602L92.4042 19.7881L91.9433 19.4098L93.7717 17.1818L94.2327 17.5602ZM96.0611 19.7697L96.4531 20.1316L96.7831 19.7741L96.391 19.4122L96.5294 19.2623C96.6429 19.1393 96.7491 19.0783 96.8478 19.0793C96.949 19.0778 97.0661 19.1385 97.1994 19.2615L97.5364 18.8963C97.2597 18.6409 97.004 18.5092 96.7692 18.5013C96.5394 18.4932 96.3121 18.6109 96.0874 18.8543L95.949 19.0042L95.6992 18.7736L95.3692 19.1311L95.619 19.3617L93.9941 21.1221L94.4361 21.5301L96.0611 19.7697ZM99.387 24.3686C99.3062 24.4405 99.2286 24.5002 99.1542 24.5477L97.6902 22.9027C97.5298 23.0687 97.4486 23.2554 97.4464 23.4628C97.4442 23.6701 97.5173 23.8572 97.6657 24.0239C97.879 24.2636 98.13 24.3436 98.4186 24.2641L98.8464 24.7447C98.5904 24.8558 98.3221 24.8822 98.0415 24.8238C97.7657 24.7658 97.5154 24.6104 97.2906 24.3577C97.1074 24.152 96.9884 23.9264 96.9335 23.6812C96.8835 23.4362 96.9002 23.1926 96.9835 22.9505C97.0716 22.7086 97.2264 22.4892 97.4479 22.2921C97.6693 22.095 97.9028 21.9666 98.1483 21.9068C98.3988 21.8473 98.6415 21.8577 98.8764 21.9381C99.1136 22.021 99.3261 22.168 99.5139 22.379C99.6947 22.5822 99.8116 22.8027 99.8644 23.0404C99.9173 23.2781 99.9024 23.5131 99.8197 23.7454C99.7396 23.9754 99.5954 24.1832 99.387 24.3686ZM99.1138 23.7785C99.2756 23.6298 99.355 23.4541 99.352 23.2514C99.349 23.0487 99.2721 22.8626 99.1214 22.6933C98.9846 22.5396 98.818 22.4521 98.6217 22.4308C98.4279 22.4072 98.2384 22.4591 98.0531 22.5867L99.1138 23.7785ZM109.836 37.5566L110.123 37.1714L109.453 36.8111L110.197 36.6057L109.999 36.1613L109.344 36.5674L109.525 35.8168L109.036 35.7714L109.091 36.5256L108.558 35.9842L108.254 36.3944L108.936 36.7434L108.203 36.9611L108.398 37.4007L109.047 36.9919L108.859 37.7282L109.349 37.7736L109.301 37.0104L109.836 37.5566Z" fill="#EAEBF0"/>
<mask id="mask0_4_1771" style="mask-type:alpha" maskUnits="userSpaceOnUse" x="12" y="12" width="96" height="97">
<circle cx="60" cy="60.4528" r="47.009" stroke="#EAEBF0" stroke-width="1.35246"/>
</mask>
<g mask="url(#mask0_4_1771)">
<g opacity="0.5">
<path d="M78.2091 121.456C54.6957 113.482 40.4452 66.7099 61.7531 62.596C81.0083 58.8722 81.1525 101.878 105.073 85.7955" stroke="#FFB23F" stroke-width="1.35246" stroke-miterlimit="10" stroke-linecap="round" stroke-linejoin="round"/>
<path d="M69.3787 124.034C55.1706 117.392 39.4187 95.4227 43.3376 71.604C44.8644 62.3157 52.2102 54.9275 61.5664 53.8842C85.9534 51.1613 85.4954 95.1343 106.863 75.3957" stroke="#FFB23F" stroke-width="1.35246" stroke-miterlimit="10" stroke-linecap="round" stroke-linejoin="round"/>
<path d="M59.6578 124.985C44.3216 115.925 31.4282 95.4997 35.8306 68.3474C37.8749 55.7509 47.9012 45.7925 60.5824 44.342C88.7696 41.1187 87.7517 84.1926 107.49 67.7197" stroke="#FFB23F" stroke-width="1.35246" stroke-miterlimit="10" stroke-linecap="round" stroke-linejoin="round"/>
<path d="M86.1823 117.087C72.5595 113.134 59.1064 91.2156 59.7595 77.4232C59.9376 73.657 64.1025 71.4006 67.3343 73.3346C78.6839 80.1121 82.1193 105.678 102.63 94.0997" stroke="#FFB23F" stroke-width="1.35246" stroke-miterlimit="10" stroke-linecap="round" stroke-linejoin="round"/>
<path d="M46.7473 122.889C32.5816 110.53 24.396 92.2676 26.805 69.7976C28.7984 51.2549 43.7784 36.5633 62.4059 35.6048C92.9682 34.0356 90.3556 72.003 107.685 60.2124" stroke="#FFB23F" stroke-width="1.35246" stroke-miterlimit="10" stroke-linecap="round" stroke-linejoin="round"/>
<path d="M24.7611 106.611C20.2229 96.3562 16.6434 83.5307 18.6876 69.8315C22.2757 45.7838 37.5102 25.7737 62.1347 25.7737C95.0721 25.7737 95.0721 55.8609 107.499 51.747" stroke="#FFB23F" stroke-width="1.35246" stroke-miterlimit="10" stroke-linecap="round" stroke-linejoin="round"/>
<path d="M13.1908 60.2203C15.1757 47.6239 31.216 10.5132 67.029 14.8647C88.7695 17.5027 95.4536 36.2404 105.412 40.0575" stroke="#FFB23F" stroke-width="1.35246" stroke-miterlimit="10" stroke-linecap="round" stroke-linejoin="round"/>
<path d="M16.2188 32.9327C33.5485 -1.55699 80.9399 -5.74732 103.334 28.3606" stroke="#FFB23F" stroke-width="1.35246" stroke-miterlimit="10" stroke-linecap="round" stroke-linejoin="round"/>
<path d="M69.175 85.7869C72.8648 93.2599 81.3727 106.815 95.0804 108.41" stroke="#FFB23F" stroke-width="1.35246" stroke-miterlimit="10" stroke-linecap="round" stroke-linejoin="round"/>
</g>
</g>
<g filter="url(#filter0_b_4_1771)">
<path d="M72.9469 94.7163L72.6541 94.1067L72.6472 94.1101L72.6403 94.1135L72.9469 94.7163ZM38.6918 91.2954L38.4193 90.6765L37.3914 91.1291L38.2723 91.8258L38.6918 91.2954ZM71.3647 61.2068L71.9165 61.5977L71.9165 61.5977L71.3647 61.2068ZM73.3321 58.4873L73.8675 58.9004L73.8884 58.8733L73.9065 58.8442L73.3321 58.4873ZM80.8782 57.8612L80.3703 58.3077L80.3875 58.3273L80.4061 58.3455L80.8782 57.8612ZM82.0499 58.8766L82.4556 58.3356L82.4556 58.3356L82.0499 58.8766ZM91.9981 52.5935L92.4382 52.0801L91.8018 51.5346L91.4032 52.272L91.9981 52.5935ZM92.0482 52.6372L91.5984 53.1422L93.3133 54.6696L92.6998 52.4566L92.0482 52.6372ZM91.657 51.3263L92.3011 51.1204L91.9871 50.1384L91.2115 50.8176L91.657 51.3263ZM79.021 53.6689L79.1854 53.013L79.1853 53.0129L79.021 53.6689ZM78.9083 53.6407L79.0725 52.9847L79.0723 52.9847L78.9083 53.6407ZM75.6084 52.6875L75.8354 52.0505L75.8286 52.0481L75.6084 52.6875ZM68.2721 48.927L68.6277 48.3519L68.6277 48.3519L68.2721 48.927ZM45.1367 54.1643L44.5028 53.9288L44.3517 54.3356L44.6585 54.6425L45.1367 54.1643ZM46.4457 55.4733L45.9675 55.9514L47.1219 57.1058V55.4733H46.4457ZM46.4457 55.2246L45.843 54.918L45.7695 55.0625V55.2246H46.4457ZM49.402 51.0112L49.8832 51.4863L49.8969 51.4725L49.9098 51.4579L49.402 51.0112ZM51.8909 49.1359L52.1798 49.7473L52.1798 49.7473L51.8909 49.1359ZM54.937 48.408L54.9566 49.084L54.9566 49.084L54.937 48.408ZM57.8415 48.8852L57.5927 49.514L57.5927 49.514L57.8415 48.8852ZM60.6338 50.6982L61.116 50.2241L61.101 50.2089L61.0851 50.1946L60.6338 50.6982ZM61.1062 61.7564L61.7145 62.0518L61.7145 62.0518L61.1062 61.7564ZM36.7428 89.6231L36.2823 90.1183L36.6964 90.5033L37.1487 90.164L36.7428 89.6231ZM32.3353 47.8912L32.8886 48.2799L34.3792 46.158L32.0422 47.2818L32.3353 47.8912ZM32.3086 47.904L31.746 47.5289L30.3762 49.5835L32.6017 48.5134L32.3086 47.904ZM34.1895 45.5001L34.6972 45.9469L34.7037 45.9393L34.1895 45.5001ZM36.4343 43.1271L36.9013 43.6161L36.907 43.6107L36.9126 43.6051L36.4343 43.1271ZM41.182 38.5944L40.7201 38.1005L40.7201 38.1005L41.182 38.5944ZM50.6343 29.3165L51.1282 29.7785L51.1282 29.7785L50.6343 29.3165ZM51.3082 28.5695L51.8188 29.0128L51.8259 29.0046L51.8328 28.9962L51.3082 28.5695ZM54.0956 24.3642L54.7082 24.6507L54.7114 24.6438L54.7144 24.6369L54.0956 24.3642ZM54.8349 20.6975L55.5092 20.6467L55.5081 20.631L55.5061 20.6153L54.8349 20.6975ZM53.1627 17.5127L53.4401 16.896L52.6846 17.9909L53.1627 17.5127ZM53.31 17.5793L53.0298 18.1948L53.7244 17.045L53.31 17.5793ZM53.2523 17.5357L53.6372 16.9797L52.8511 18.0801L53.2523 17.5357ZM53.3232 17.5854L52.9325 18.1373L52.9846 18.1742L53.0428 18.2007L53.3232 17.5854ZM64.7713 34.0288L65.4344 34.1615L65.4344 34.1614L64.7713 34.0288ZM64.6072 34.9215L65.2516 35.1264L65.2663 35.0802L65.2742 35.0323L64.6072 34.9215ZM78.2524 32.9212L77.6272 33.1789L77.6543 33.2446L77.6944 33.3032L78.2524 32.9212ZM78.1757 32.7385L78.6144 32.2239L77.5539 33.0043L78.1757 32.7385ZM83.0509 37.2356L83.5291 36.7574L83.5291 36.7574L83.0509 37.2356ZM83.0511 86.8473L82.5729 86.3691L82.5466 86.3954L82.5234 86.4243L83.0511 86.8473ZM67.1045 74.4401L66.6071 73.982L67.371 75.0616L67.1045 74.4401ZM71.9212 68.861L72.08 68.2037L71.6651 68.1034L71.3961 68.4348L71.9212 68.861ZM80.5385 78.9409L81.1214 79.2838L81.1214 79.2838L80.5385 78.9409ZM69.8049 90.9835L69.4466 91.5571L69.843 91.8046L70.2147 91.5215L69.8049 90.9835ZM68.4519 90.1384L67.9095 89.7346L67.4713 90.3232L68.0937 90.712L68.4519 90.1384ZM73.37 81.0247L72.715 80.8565L72.7147 80.8576L73.37 81.0247ZM73.3702 81.0238L74.0252 81.192L74.0255 81.1908L73.3702 81.0238ZM73.3913 80.9413L74.0462 81.1098L74.0462 81.1098L73.3913 80.9413ZM73.4106 80.8674L74.0642 81.041L74.0642 81.041L73.4106 80.8674ZM58.4882 98.845C63.8013 98.845 68.8194 97.5741 73.2534 95.3191L72.6403 94.1135C68.3919 96.2742 63.5833 97.4925 58.4882 97.4925V98.845ZM38.2723 91.8258C43.8296 96.2208 50.8534 98.845 58.4882 98.845V97.4925C51.1687 97.4925 44.4383 94.9779 39.1113 90.765L38.2723 91.8258ZM38.9643 91.9143C54.5648 85.0444 66.7508 68.8892 71.9165 61.5977L70.8129 60.8159C65.6381 68.1201 53.6398 83.9739 38.4193 90.6765L38.9643 91.9143ZM71.9165 61.5977C72.7303 60.4491 73.3793 59.5332 73.8675 58.9004L72.7967 58.0742C72.2875 58.7342 71.6195 59.6774 70.8129 60.8159L71.9165 61.5977ZM73.9065 58.8442C74.6197 57.6965 75.8899 56.9349 77.3375 56.9349V55.5824C75.4031 55.5824 73.7074 56.6022 72.7578 58.1304L73.9065 58.8442ZM77.3375 56.9349C78.5459 56.9349 79.6296 57.465 80.3703 58.3077L81.3861 57.4148C80.3995 56.2924 78.951 55.5824 77.3375 55.5824V56.9349ZM80.4061 58.3455C80.7073 58.639 81.11 59.017 81.6441 59.4176L82.4556 58.3356C81.988 57.9849 81.6325 57.6522 81.3502 57.377L80.4061 58.3455ZM81.6441 59.4176C82.5569 60.1022 84.2536 60.4706 86.2332 59.6594C88.2156 58.8471 90.4541 56.8721 92.593 52.9151L91.4032 52.272C89.3534 56.0641 87.3159 57.7542 85.7204 58.408C84.1221 59.0629 82.939 58.6982 82.4556 58.3356L81.6441 59.4176ZM91.5581 53.107C91.5717 53.1187 91.5852 53.1304 91.5984 53.1422L92.4979 52.1323C92.4782 52.1147 92.4583 52.0973 92.4382 52.0801L91.5581 53.107ZM92.6998 52.4566C92.5758 52.0091 92.4429 51.5636 92.3011 51.1204L91.0129 51.5323C91.1493 51.9588 91.2772 52.3874 91.3965 52.8179L92.6998 52.4566ZM91.2115 50.8176C89.1448 52.6275 86.4396 53.7237 83.4767 53.7237V55.0761C86.7797 55.0761 89.7987 53.8526 92.1025 51.8351L91.2115 50.8176ZM83.4767 53.7237C82.0378 53.7237 80.2718 53.2851 79.1854 53.013L78.8567 54.3249C79.9074 54.5881 81.8406 55.0761 83.4767 55.0761V53.7237ZM79.1853 53.0129L79.0725 52.9847L78.7441 54.2967L78.8568 54.3249L79.1853 53.0129ZM79.0723 52.9847C78.0239 52.7226 77.0062 52.4677 75.8354 52.0505L75.3814 53.3245C76.6217 53.7665 77.6983 54.0352 78.7443 54.2967L79.0723 52.9847ZM75.8286 52.0481C73.0781 51.101 70.832 49.7148 68.6277 48.3519L67.9165 49.5022C70.1098 50.8584 72.4758 52.3239 75.3882 53.3269L75.8286 52.0481ZM68.6277 48.3519C65.3491 46.3246 62.1408 44.3252 57.7029 44.3252V45.6777C61.7058 45.6777 64.6056 47.455 67.9165 49.5022L68.6277 48.3519ZM57.7029 44.3252C53.8339 44.3252 50.8195 45.9416 48.6395 47.9389C46.4697 49.927 45.1037 52.311 44.5028 53.9288L45.7706 54.3998C46.3041 52.9634 47.5561 50.7659 49.5532 48.9361C51.5401 47.1156 54.2416 45.6777 57.7029 45.6777V44.3252ZM44.6585 54.6425L45.9675 55.9514L46.9239 54.9951L45.6149 53.6861L44.6585 54.6425ZM47.1219 55.4733V55.2246H45.7695V55.4733H47.1219ZM47.0484 55.5313C47.8373 53.9808 48.8017 52.5818 49.8832 51.4863L48.9208 50.5362C47.7225 51.7499 46.6816 53.2698 45.843 54.918L47.0484 55.5313ZM49.9098 51.4579C50.5384 50.7432 51.3103 50.1581 52.1798 49.7473L51.6021 48.5244C50.5637 49.015 49.6434 49.713 48.8943 50.5646L49.9098 51.4579ZM52.1798 49.7473C53.0531 49.3348 53.8928 49.1148 54.9566 49.084L54.9174 47.7321C53.6591 47.7686 52.6366 48.0357 51.6021 48.5244L52.1798 49.7473ZM54.9566 49.084C55.0253 49.082 55.0943 49.081 55.1635 49.081V47.7285C55.0812 47.7285 54.9992 47.7297 54.9174 47.7321L54.9566 49.084ZM55.1635 49.081C56.0332 49.081 56.8558 49.2224 57.5927 49.514L58.0904 48.2564C57.1727 47.8933 56.1778 47.7285 55.1635 47.7285V49.081ZM57.5927 49.514C58.245 49.7721 58.6184 49.9585 58.9537 50.1837C59.2998 50.4161 59.6254 50.7025 60.1824 51.2017L61.0851 50.1946C60.5438 49.7094 60.1466 49.3557 59.7077 49.061C59.2581 48.759 58.7845 48.5311 58.0904 48.2564L57.5927 49.514ZM60.1516 51.1723C61.3931 52.4352 62.1579 54.1653 62.1579 56.0754H63.5103C63.5103 53.7964 62.5961 51.7297 61.116 50.2241L60.1516 51.1723ZM62.1579 56.0754C62.1579 57.5416 61.6306 59.1292 60.498 61.4609L61.7145 62.0518C62.8632 59.687 63.5103 57.8657 63.5103 56.0754H62.1579ZM60.498 61.4609C59.0141 64.5159 55.4404 69.5754 50.9764 74.8192C46.5198 80.0544 41.2265 85.4136 36.337 89.0822L37.1487 90.164C42.1481 86.4129 47.5145 80.9724 52.0063 75.6959C56.4907 70.428 60.1543 65.2639 61.7145 62.0518L60.498 61.4609ZM25.8729 66.2297C25.8729 75.6642 29.8796 84.164 36.2823 90.1183L37.2033 89.1279C31.0643 83.4187 27.2254 75.273 27.2254 66.2297H25.8729ZM31.7819 47.5025C28.0587 52.8025 25.8729 59.2618 25.8729 66.2297H27.2254C27.2254 59.549 29.3201 53.3597 32.8886 48.2799L31.7819 47.5025ZM32.6017 48.5134L32.6283 48.5006L32.0422 47.2818L32.0156 47.2946L32.6017 48.5134ZM33.6818 45.0534C32.9356 45.9014 32.2818 46.7251 31.746 47.5289L32.8713 48.2791C33.3639 47.5402 33.977 46.7652 34.6971 45.9469L33.6818 45.0534ZM35.9673 42.638C35.1629 43.406 34.3978 44.2148 33.6752 45.061L34.7037 45.9393C35.3965 45.128 36.1301 44.3525 36.9013 43.6161L35.9673 42.638ZM40.7201 38.1005C38.989 39.7197 37.3726 41.2315 35.9559 42.6491L36.9126 43.6051C38.31 42.2068 39.9085 40.7115 41.644 39.0883L40.7201 38.1005ZM50.1405 28.8545C46.8888 32.3304 43.6354 35.3738 40.7201 38.1005L41.644 39.0883C44.5564 36.3642 47.8414 33.2919 51.1282 29.7785L50.1405 28.8545ZM50.7976 28.1261C50.5903 28.3649 50.3714 28.6077 50.1405 28.8545L51.1282 29.7785C51.3701 29.5199 51.6001 29.2647 51.8188 29.0128L50.7976 28.1261ZM53.483 24.0778C52.896 25.3334 51.9703 26.684 50.7836 28.1427L51.8328 28.9962C53.0512 27.4984 54.0541 26.0497 54.7082 24.6507L53.483 24.0778ZM54.1606 20.7482C54.2275 21.637 54.0672 22.7516 53.4768 24.0916L54.7144 24.6369C55.3811 23.124 55.5951 21.7878 55.5092 20.6467L54.1606 20.7482ZM52.6846 17.9909C53.602 18.9083 54.048 19.834 54.1637 20.7796L55.5061 20.6153C55.3483 19.3249 54.7373 18.1309 53.6409 17.0345L52.6846 17.9909ZM53.5902 16.9639C53.5404 16.9412 53.4903 16.9186 53.4401 16.896L52.8853 18.1294C52.9337 18.1512 52.9819 18.173 53.0298 18.1948L53.5902 16.9639ZM52.8511 18.0801C52.8658 18.0909 52.8807 18.1021 52.8956 18.1137L53.7244 17.045C53.7008 17.0267 53.6772 17.0088 53.6534 16.9913L52.8511 18.0801ZM53.714 17.0334C53.6886 17.0155 53.663 16.9976 53.6372 16.9797L52.8674 18.0917C52.8893 18.1068 52.9109 18.122 52.9325 18.1373L53.714 17.0334ZM65.4344 34.1614C65.915 31.7582 65.958 28.796 64.3332 25.7415C62.7124 22.6943 59.4816 19.6488 53.6037 16.97L53.0428 18.2007C58.7474 20.8005 61.7013 23.6733 63.1392 26.3766C64.5732 29.0725 64.5489 31.6927 64.1082 33.8962L65.4344 34.1614ZM65.2742 35.0323C65.3203 34.7552 65.3736 34.4653 65.4344 34.1615L64.1082 33.8962C64.0448 34.213 63.9888 34.5175 63.9401 34.8106L65.2742 35.0323ZM64.9239 37.2489C64.9239 36.5079 65.0389 35.795 65.2516 35.1264L63.9628 34.7165C63.7084 35.516 63.5715 36.3671 63.5715 37.2489H64.9239ZM71.9183 44.2433C68.0554 44.2433 64.9239 41.1118 64.9239 37.2489H63.5715C63.5715 41.8587 67.3085 45.5957 71.9183 45.5957V44.2433ZM78.9127 37.2489C78.9127 41.1118 75.7812 44.2433 71.9183 44.2433V45.5957C76.5281 45.5957 80.2652 41.8587 80.2652 37.2489H78.9127ZM77.6944 33.3032C78.4631 34.4261 78.9127 35.784 78.9127 37.2489H80.2652C80.2652 35.5028 79.7282 33.88 78.8104 32.5392L77.6944 33.3032ZM77.5539 33.0043C77.5789 33.0627 77.6033 33.1209 77.6272 33.1789L78.8776 32.6635C78.8514 32.6001 78.8247 32.5365 78.7975 32.4728L77.5539 33.0043ZM83.5291 36.7574C81.9134 35.1418 80.2652 33.6315 78.6144 32.2239L77.7369 33.2531C79.3626 34.6391 80.9842 36.1253 82.5727 37.7138L83.5291 36.7574ZM83.5292 87.3254C97.4932 73.3615 97.4931 50.7215 83.5291 36.7574L82.5727 37.7138C96.0086 51.1496 96.0087 72.9333 82.5729 86.3691L83.5292 87.3254ZM73.2397 95.3258C77.2813 93.3843 80.8584 90.6642 83.5787 87.2702L82.5234 86.4243C79.9439 89.6427 76.5347 92.2426 72.6541 94.1067L73.2397 95.3258ZM67.371 75.0616C67.8578 74.8529 68.3945 74.737 68.9601 74.737V73.3845C68.2079 73.3845 67.4901 73.539 66.838 73.8186L67.371 75.0616ZM71.3961 68.4348C69.9561 70.2089 68.3543 72.0851 66.6071 73.982L67.6019 74.8983C69.3709 72.9778 70.9911 71.0798 72.4462 69.2872L71.3961 68.4348ZM81.1214 79.2838C81.9293 77.9104 82.0352 76.5418 81.6353 75.2672C81.2439 74.0196 80.3845 72.9099 79.3438 71.9701C77.267 70.0946 74.2939 68.7385 72.08 68.2037L71.7624 69.5183C73.7983 70.0101 76.5566 71.2754 78.4373 72.9739C79.3755 73.8211 80.0514 74.7366 80.3449 75.6721C80.6299 76.5805 80.5704 77.5529 79.9556 78.5981L81.1214 79.2838ZM70.2147 91.5215C71.376 90.6367 73.4353 88.7064 75.5232 86.453C77.6119 84.1988 79.7757 81.5715 81.1214 79.2838L79.9556 78.5981C78.6834 80.7609 76.5967 83.3045 74.5311 85.5338C72.4649 87.7638 70.4664 89.6295 69.3951 90.4456L70.2147 91.5215ZM68.0937 90.712L69.4466 91.5571L70.1631 90.41L68.8102 89.5649L68.0937 90.712ZM72.7147 80.8576C72.4777 81.7877 71.8013 84.5069 67.9095 89.7346L68.9943 90.5422C72.995 85.1683 73.7461 82.2871 74.0253 81.1917L72.7147 80.8576ZM72.7152 80.8556L72.715 80.8565L74.025 81.1928L74.0252 81.192L72.7152 80.8556ZM72.7364 80.7728C72.7295 80.7997 72.7223 80.8279 72.7149 80.8568L74.0255 81.1908C74.0329 81.1617 74.0397 81.135 74.0462 81.1098L72.7364 80.7728ZM72.757 80.6939C72.7502 80.7194 72.7434 80.7458 72.7364 80.7728L74.0462 81.1098C74.0527 81.0846 74.0586 81.0619 74.0642 81.041L72.757 80.6939ZM72.9961 78.7731C72.9961 79.4166 72.9652 79.9095 72.757 80.6939L74.0642 81.041C74.3104 80.1133 74.3486 79.498 74.3486 78.7731H72.9961ZM68.9601 74.737C71.1891 74.737 72.9961 76.544 72.9961 78.7731H74.3486C74.3486 75.7971 71.9361 73.3845 68.9601 73.3845V74.737Z" fill="#EAEBF0"/>
</g>
<defs>
<filter id="filter0_b_4_1771" x="20.8336" y="11.8567" width="78.2079" height="92.0276" filterUnits="userSpaceOnUse" color-interpolation-filters="sRGB">
<feFlood flood-opacity="0" result="BackgroundImageFix"/>
<feGaussianBlur in="BackgroundImage" stdDeviation="2.51967"/>
<feComposite in2="SourceAlpha" operator="in" result="effect1_backgroundBlur_4_1771"/>
<feBlend mode="normal" in="SourceGraphic" in2="effect1_backgroundBlur_4_1771" result="shape"/>
</filter>
</defs>
</svg>
