<svg width="91" height="124" viewBox="0 0 91 124" fill="none" xmlns="http://www.w3.org/2000/svg">
<path d="M62.2076 119.622C40.0723 112.116 26.6569 68.0848 46.7161 64.2119C64.8427 60.7063 64.9785 101.192 87.4971 86.0517" stroke="#EAEBF0" stroke-width="1.5" stroke-miterlimit="10" stroke-linecap="round" stroke-linejoin="round"/>
<path d="M22.8798 7.33236C28.7251 3.65113 36.1195 1.28747 45.4783 1C53.1601 1.23157 59.5165 2.86856 64.7788 5.47976" stroke="#EAEBF0" stroke-width="1.5" stroke-miterlimit="10" stroke-linecap="round" stroke-linejoin="round"/>
<path d="M53.8947 122.049C40.5193 115.797 25.6906 95.1149 29.3798 72.6921C30.8171 63.9482 37.7324 56.993 46.5402 56.0108C69.498 53.4475 69.0668 94.8434 89.1818 76.2616" stroke="#EAEBF0" stroke-width="1.5" stroke-miterlimit="10" stroke-linecap="round" stroke-linejoin="round"/>
<path d="M44.7435 122.944C30.306 114.416 18.1683 95.1871 22.3127 69.6261C24.2372 57.7679 33.6758 48.3932 45.6139 47.0277C72.1491 43.9932 71.1908 84.5427 89.7727 69.0352" stroke="#EAEBF0" stroke-width="1.5" stroke-miterlimit="10" stroke-linecap="round" stroke-linejoin="round"/>
<path d="M69.7137 115.51C56.8892 111.788 44.2245 91.1543 44.8394 78.1702C45.0071 74.6247 48.9279 72.5006 51.9703 74.3213C62.6546 80.7016 65.8887 104.769 85.1972 93.8694" stroke="#EAEBF0" stroke-width="1.5" stroke-miterlimit="10" stroke-linecap="round" stroke-linejoin="round"/>
<path d="M32.5899 120.972C19.2544 109.337 11.5486 92.1446 13.8164 70.9915C15.693 53.5356 29.795 39.7051 47.3308 38.8027C76.1019 37.3254 73.6424 73.0677 89.9564 61.9681" stroke="#EAEBF0" stroke-width="1.5" stroke-miterlimit="10" stroke-linecap="round" stroke-linejoin="round"/>
<path d="M11.892 105.648C7.61983 95.9934 4.25003 83.9196 6.17449 71.0233C9.55228 48.385 23.8939 29.5476 47.0753 29.5476C78.0823 29.5476 78.0823 57.8715 89.7808 53.9987" stroke="#EAEBF0" stroke-width="1.5" stroke-miterlimit="10" stroke-linecap="round" stroke-linejoin="round"/>
<path d="M1 61.9758C2.86856 50.1176 17.9688 15.1819 51.6828 19.2783C72.1492 21.7618 78.4416 39.4013 87.8164 42.9947" stroke="#EAEBF0" stroke-width="1.5" stroke-miterlimit="10" stroke-linecap="round" stroke-linejoin="round"/>
<path d="M3.85077 36.2871C20.1648 3.81882 64.7787 -0.125925 85.86 31.983" stroke="#EAEBF0" stroke-width="1.5" stroke-miterlimit="10" stroke-linecap="round" stroke-linejoin="round"/>
<path d="M53.7031 86.0435C57.1767 93.0785 65.186 105.839 78.0903 107.34" stroke="#EAEBF0" stroke-width="1.5" stroke-miterlimit="10" stroke-linecap="round" stroke-linejoin="round"/>
</svg>
