<svg width="570" height="201" viewBox="0 0 570 201" fill="none" xmlns="http://www.w3.org/2000/svg">
<path d="M396.032 5.38437C461.45 -16.772 512.77 36.6119 512.77 36.6119C512.77 36.6119 538.374 47.64 569.416 72.6516C569.416 131.649 682.897 109.137 682.897 156.779L750.544 205.889L818.19 255H0C0 242.197 16.9028 239.489 12.7108 224.641C10.9198 218.297 1.47777 204.435 5.0843 197.598C7.10476 193.768 18.5432 188.502 22.3709 186.118C38.8829 175.832 57.454 168.748 73.214 156.779C77.396 153.603 86.6047 148.578 86.9416 142.492C87.3306 135.465 95.8858 135.115 101.686 132.288C115.704 125.454 227.452 123.058 228.213 103.2C228.844 86.7479 269.48 73.0142 279.132 61.1757C286.306 52.3754 322.971 59.7253 328.77 50.139C361.94 50.1389 396.032 5.38437 396.032 5.38437Z" fill="url(#paint0_linear_4_1665)" fill-opacity="0.36"/>
<path d="M252.23 127.416C279.811 118.105 301.448 140.539 301.448 140.539C301.448 140.539 312.242 145.174 325.33 155.685C325.33 180.478 373.174 171.018 373.174 191.039L401.695 211.677L430.215 232.316H85.2607C85.2607 226.935 92.387 225.797 90.6197 219.558C89.8646 216.892 85.8838 211.066 87.4043 208.193C88.2561 206.583 93.0787 204.37 94.6925 203.368C101.654 199.046 109.484 196.069 116.128 191.039C117.891 189.704 121.774 187.593 121.916 185.035C122.08 182.082 125.687 181.935 128.132 180.747C134.042 177.875 181.156 176.868 181.477 168.523C181.743 161.609 198.875 155.837 202.944 150.862C205.969 147.164 221.427 150.253 223.872 146.224C237.857 146.224 252.23 127.416 252.23 127.416Z" fill="url(#paint1_linear_4_1665)"/>
<defs>
<linearGradient id="paint0_linear_4_1665" x1="345.509" y1="10.3565" x2="370.651" y2="233.801" gradientUnits="userSpaceOnUse">
<stop stop-color="#363B4D"/>
<stop offset="0.785403" stop-color="#262B3B" stop-opacity="0"/>
</linearGradient>
<linearGradient id="paint1_linear_4_1665" x1="307.017" y1="131.02" x2="296.221" y2="233.527" gradientUnits="userSpaceOnUse">
<stop stop-color="#363B4D"/>
<stop offset="0.810456" stop-color="#262B3B" stop-opacity="0"/>
</linearGradient>
</defs>
</svg>
