<svg width="30" height="30" viewBox="0 0 30 30" fill="none" xmlns="http://www.w3.org/2000/svg">
<g clip-path="url(#clip0_936_22158)">
<path d="M15 4.47419C16.2995 4.47419 17.4219 3.64564 17.8251 2.42676C17.0558 2.63852 16.0753 2.76632 15 2.76632C13.9247 2.76632 12.9442 2.63852 12.175 2.42676C12.5781 3.64553 13.7004 4.47419 15 4.47419Z" fill="#FF5D39"/>
<path d="M29.9627 5.97315C29.901 5.79997 29.7726 5.65755 29.6053 5.57999L23.8857 2.93961C22.669 2.52747 21.4295 2.20191 20.178 1.96396C20.1339 1.95533 20.0901 1.95117 20.0468 1.95117C19.737 1.95117 19.4596 2.16506 19.3905 2.47874C18.9335 4.49075 17.1524 5.99711 14.9999 5.99711C12.8475 5.99711 11.0664 4.49085 10.6095 2.47874C10.5396 2.16506 10.2627 1.95117 9.95308 1.95117C9.90983 1.95117 9.86598 1.95533 9.82192 1.96396C8.57046 2.20191 7.33097 2.52747 6.1124 2.93961L0.394833 5.57989C0.226523 5.65745 0.0971942 5.79987 0.0384176 5.97305C-0.0223892 6.14826 -0.0114257 6.33739 0.0742521 6.50265L2.55728 11.4029C2.67352 11.6355 2.90994 11.7751 3.16007 11.7751C3.22463 11.7751 3.29011 11.7657 3.35467 11.7464L6.1125 10.929V27.3712C6.1125 27.7445 6.41715 28.0491 6.79153 28.0491H23.2087C23.582 28.0491 23.8858 27.7444 23.8858 27.3712V10.9292L26.6455 11.7466C26.7101 11.7659 26.7755 11.7753 26.8399 11.7753C27.0895 11.7753 27.3251 11.6357 27.4429 11.4031L29.9269 6.50285C30.0105 6.33749 30.0225 6.14837 29.9627 5.97315Z" fill="#FF5D39"/>
</g>
<defs>
<clipPath id="clip0_936_22158">
<rect width="30" height="30" fill="white"/>
</clipPath>
</defs>
</svg>
