<svg width="35" height="44" viewBox="0 0 35 44" fill="none" xmlns="http://www.w3.org/2000/svg">
<path d="M29.4455 10.6371C31.5766 12.8427 33.0717 15.4572 33.9305 18.2366L34.1343 18.9436C35.8371 25.3002 34.2741 32.3971 29.4456 37.3942C28.0646 39.1774 26.2441 40.612 24.1798 41.6383C21.9174 42.829 19.3569 43.5002 16.6448 43.5002C12.7307 43.5002 9.13218 42.1021 6.29009 39.7621L6.32352 39.7895L6.32798 39.7931L6.35858 39.7792C6.00531 39.4917 5.66356 39.1897 5.33427 38.8741L5.31228 38.8912C2.04431 35.746 0 31.2574 0 26.2746V26.2585V26.2426C0 21.1477 2.13917 16.5698 5.5387 13.4185C6.17434 12.775 6.87691 12.0949 7.62452 11.3712L7.6258 11.37C9.14438 9.90013 10.8481 8.25096 12.5518 6.36617C12.675 6.22988 12.792 6.09555 12.903 5.96327C13.5297 5.16596 14.0322 4.41112 14.3556 3.69523C14.6832 2.9259 14.7807 2.26506 14.7409 1.71765C14.6697 1.1147 14.3942 0.543053 13.8695 0L13.9462 0.0359279C13.9362 0.0278797 13.9262 0.0200538 13.9162 0.0124058L13.9531 0.0391738C19.9893 2.8861 20.3993 6.42308 19.9192 8.90767C19.8868 9.07503 19.8584 9.23533 19.8336 9.38909C19.712 9.78496 19.6463 10.2067 19.6463 10.6443C19.6463 12.9291 21.4361 14.7813 23.6438 14.7813C25.8516 14.7813 27.6413 12.9291 27.6413 10.6443C27.6413 9.77843 27.3843 8.97463 26.9448 8.31028C26.9317 8.27755 26.9184 8.24469 26.9048 8.21174C27.7585 8.96507 28.6106 9.77314 29.4455 10.6371Z" fill="#EAEBF0" fill-opacity="0.2"/>
<path d="M24.9288 23.7824C26.2608 25.1057 27.1952 26.6744 27.732 28.342L27.8594 28.7662C28.9236 32.5802 27.9467 36.8384 24.9289 39.8366C24.0658 40.9065 22.928 41.7673 21.6378 42.383C20.2238 43.0975 18.6234 43.5002 16.9284 43.5002C14.4821 43.5002 12.233 42.6614 10.4567 41.2573L10.4776 41.2738L10.4804 41.276L10.4995 41.2676C10.2787 41.0951 10.0651 40.9139 9.85931 40.7246L9.84556 40.7348C7.80308 38.8477 6.52539 36.1545 6.52539 33.1648V33.1552V33.1457C6.52539 30.0887 7.86237 27.342 9.98708 25.4512C10.3844 25.0651 10.8235 24.657 11.2907 24.2228L11.2915 24.2221C12.2406 23.3402 13.3054 22.3507 14.3703 21.2198C14.4473 21.138 14.5204 21.0574 14.5898 20.978C14.9815 20.4997 15.2955 20.0468 15.4976 19.6172C15.7024 19.1556 15.7633 18.7591 15.7385 18.4307C15.6939 18.0689 15.5218 17.7259 15.1938 17.4001L15.2418 17.4216C15.2355 17.4168 15.2293 17.4121 15.223 17.4075L15.2461 17.4236C19.0187 19.1317 19.275 21.2539 18.9749 22.7447C18.9547 22.8451 18.9369 22.9413 18.9214 23.0335C18.8454 23.2711 18.8043 23.5241 18.8043 23.7867C18.8043 25.1576 19.9229 26.2689 21.3028 26.2689C22.6826 26.2689 23.8012 25.1576 23.8012 23.7867C23.8012 23.2671 23.6406 22.7849 23.3659 22.3863C23.3577 22.3666 23.3494 22.3469 23.3409 22.3271C23.8744 22.7791 24.407 23.264 24.9288 23.7824Z" fill="#EAEBF0" fill-opacity="0.4"/>
</svg>
