<svg width="14" height="18" viewBox="0 0 14 18" fill="none" xmlns="http://www.w3.org/2000/svg">
<path d="M11.7031 4.72325C12.5421 5.59158 13.1307 6.62092 13.4688 7.71516L13.5491 7.99351C14.2194 10.4961 13.6041 13.2902 11.7031 15.2575C11.1594 15.9596 10.4427 16.5244 9.62995 16.9284C8.73924 17.3972 7.73118 17.6615 6.66343 17.6615C5.12245 17.6615 3.7057 17.111 2.58676 16.1898L2.59992 16.2006L2.60168 16.202L2.61373 16.1965C2.47465 16.0833 2.3401 15.9644 2.21046 15.8402L2.2018 15.8469C0.915197 14.6086 0.110352 12.8415 0.110352 10.8797V10.8734V10.8671C0.110352 8.86128 0.952546 7.05895 2.29094 5.81827C2.54119 5.56494 2.8178 5.29717 3.11213 5.01226L3.11264 5.01178C3.7105 4.43309 4.38124 3.78381 5.05201 3.04177C5.10053 2.98811 5.14657 2.93522 5.19028 2.88314C5.43701 2.56924 5.63486 2.27206 5.76216 1.99022C5.89113 1.68733 5.92953 1.42715 5.91386 1.21164C5.88582 0.974258 5.77735 0.749201 5.57078 0.5354L5.60099 0.549545L5.58915 0.540285L5.6037 0.550823C7.98014 1.67166 8.14158 3.06417 7.95257 4.04236C7.93981 4.10825 7.92861 4.17136 7.91887 4.23189C7.87097 4.38775 7.84512 4.55379 7.84512 4.72609C7.84512 5.62561 8.54976 6.35483 9.41895 6.35483C10.2881 6.35483 10.9927 5.62561 10.9927 4.72609C10.9927 4.38517 10.8916 4.06872 10.7185 3.80716L10.7028 3.76837C11.0389 4.06496 11.3744 4.38309 11.7031 4.72325Z" fill="#F6F8FF"/>
<path d="M9.92464 9.8987C10.449 10.4197 10.8169 11.0373 11.0282 11.6938L11.0784 11.8609C11.4974 13.3624 11.1128 15.0388 9.92467 16.2193C9.58485 16.6405 9.13691 16.9794 8.62895 17.2218C8.07226 17.5031 7.44221 17.6616 6.77487 17.6616C5.81176 17.6616 4.92629 17.3314 4.22696 16.7786L4.23518 16.7851L4.23628 16.7859L4.24381 16.7826C4.15688 16.7147 4.07279 16.6434 3.99177 16.5689L3.98635 16.5729C3.18223 15.8299 2.6792 14.7696 2.6792 13.5926V13.5888V13.585C2.6792 12.3815 3.20557 11.3001 4.04207 10.5557C4.19848 10.4037 4.37135 10.243 4.55531 10.0721L4.55563 10.0718C4.92929 9.7246 5.3485 9.33503 5.76774 8.88981C5.79806 8.85761 5.82684 8.82588 5.85416 8.79463C6.00836 8.60629 6.13202 8.42798 6.21158 8.25888C6.29218 8.07714 6.31618 7.92104 6.30639 7.79173C6.28887 7.6493 6.22108 7.51427 6.09197 7.38599L6.11085 7.39447L6.10345 7.38892L6.11254 7.39524C7.59782 8.06774 7.69872 8.90325 7.58058 9.49016C7.57261 9.5297 7.56561 9.56756 7.55952 9.60388C7.52958 9.6974 7.51343 9.79702 7.51343 9.9004C7.51343 10.4401 7.95383 10.8776 8.49707 10.8776C9.04032 10.8776 9.48069 10.4401 9.48069 9.9004C9.48069 9.69585 9.41745 9.50598 9.30932 9.34904L9.29946 9.32577C9.50954 9.50372 9.7192 9.6946 9.92464 9.8987Z" fill="#F6F8FF"/>
</svg>
