<svg width="47" height="54" viewBox="0 0 47 54" fill="none" xmlns="http://www.w3.org/2000/svg">
<g filter="url(#filter0_d_370_20246)">
<path fill-rule="evenodd" clip-rule="evenodd" d="M17.7111 39.2008C19.365 40.5436 21.4233 41.3091 23.6063 41.6539C23.7035 42.6916 24.6793 43.4698 25.7111 43.4698C27.4032 43.4698 27.6385 42.0732 27.692 40.9936C35.4381 39.2149 39.0859 33.1889 38.8227 26.7514C38.8227 20.9633 35.4879 17.5264 33.4866 16.1957C33.3747 16.0958 33.2628 15.9971 33.1508 15.8996C33.161 15.924 33.171 15.9482 33.1808 15.9724C33.5099 16.4631 33.7024 17.0567 33.7024 17.6962C33.7024 19.3836 32.362 20.7515 30.7084 20.7515C29.0549 20.7515 27.7144 19.3836 27.7144 17.6962C27.7144 17.373 27.7636 17.0615 27.8547 16.7691C27.8733 16.6556 27.8946 16.5372 27.9188 16.4136C28.2784 14.5786 28.4787 12.1315 23.9579 10.0289L23.9302 10.0092C23.9377 10.0148 23.9452 10.0206 23.9527 10.0265L23.8952 10C24.2882 10.4011 24.3079 10.9492 24.3079 11.3619C24.3079 11.7746 23.9169 12.5227 23.6889 12.8889C23.4608 13.255 23.1333 13.6502 22.6639 14.239C22.5808 14.3367 22.4932 14.4359 22.4009 14.5366C21.1248 15.9286 19.8488 17.1466 18.7115 18.2321L18.7105 18.233C18.1506 18.7675 17.6244 19.2698 17.1483 19.745C14.6022 22.0724 13 25.4534 13 29.2162L13 29.2398C13 32.9198 14.5311 36.2348 16.9787 38.5577L16.9952 38.545C17.2418 38.7781 17.4978 39.0011 17.7624 39.2135C17.7548 39.2169 17.7471 39.2203 17.7394 39.2238L17.7361 39.2211L17.7111 39.2008ZM26.0413 42.727C26.8043 42.727 27.2243 41.4476 27.0317 40.8698C26.7428 40.0031 26.0405 39.8491 25.2774 39.8491C24.5143 39.8491 24.3492 40.8204 24.3492 41.5714C24.3492 42.3224 25.2782 42.7269 26.0413 42.727Z" fill="url(#paint0_linear_370_20246)"/>
</g>
<g filter="url(#filter1_f_370_20246)">
<path fill-rule="evenodd" clip-rule="evenodd" d="M18.4937 38.5188C20.0746 39.8229 21.9824 40.7191 24.069 41.054C24.1618 42.0618 25.0095 42.851 26.0415 42.851C27.1027 42.851 27.969 42.0166 28.0201 40.968C35.4241 39.2406 39.2402 33.0811 38.9885 26.8293C38.9885 21.2082 35.4854 17.4697 33.5726 16.1773C33.4656 16.0803 33.3586 15.9844 33.2515 15.8898C33.2613 15.9134 33.2709 15.937 33.2802 15.9604C33.5948 16.4369 33.7788 17.0135 33.7788 17.6345C33.7788 19.2733 32.4976 20.6017 30.9171 20.6017C29.3366 20.6017 28.0553 19.2733 28.0553 17.6345C28.0553 17.3206 28.1023 17.0181 28.1894 16.7342C28.2071 16.6239 28.2275 16.509 28.2507 16.3889C28.5944 14.6069 28.3008 12.07 23.9796 10.0281L23.9531 10.0089C23.9603 10.0144 23.9675 10.02 23.9747 10.0258L23.9197 10C24.2954 10.3895 24.4926 10.7995 24.5436 11.232C24.5721 11.6246 24.5023 12.0986 24.2677 12.6504C24.0363 13.1638 23.6765 13.7052 23.2279 14.2771C23.1484 14.372 23.0647 14.4683 22.9764 14.5661C21.7567 15.9179 20.5371 17.1007 19.45 18.155L19.449 18.1559C18.9138 18.6749 18.4109 19.1627 17.9558 19.6242C15.5221 21.8845 13.9907 25.1679 13.9907 28.8222L13.9907 28.8451C13.9907 32.4189 15.4542 35.6384 17.7937 37.8942L17.8095 37.882C18.0452 38.1083 18.2899 38.3249 18.5428 38.5311L18.5209 38.5411L18.5177 38.5385L18.4937 38.5188ZM26.0415 42.1905C26.7708 42.1905 27.3621 41.5992 27.3621 40.8699C27.3621 40.1405 26.7708 39.5492 26.0415 39.5492C25.3121 39.5492 24.7208 40.1405 24.7208 40.8699C24.7208 41.5992 25.3121 42.1905 26.0415 42.1905Z" fill="url(#paint1_linear_370_20246)" fill-opacity="0.62"/>
<path fill-rule="evenodd" clip-rule="evenodd" d="M18.4937 38.5188C20.0746 39.8229 21.9824 40.7191 24.069 41.054C24.1618 42.0618 25.0095 42.851 26.0415 42.851C27.1027 42.851 27.969 42.0166 28.0201 40.968C35.4241 39.2406 39.2402 33.0811 38.9885 26.8293C38.9885 21.2082 35.4854 17.4697 33.5726 16.1773C33.4656 16.0803 33.3586 15.9844 33.2515 15.8898C33.2613 15.9134 33.2709 15.937 33.2802 15.9604C33.5948 16.4369 33.7788 17.0135 33.7788 17.6345C33.7788 19.2733 32.4976 20.6017 30.9171 20.6017C29.3366 20.6017 28.0553 19.2733 28.0553 17.6345C28.0553 17.3206 28.1023 17.0181 28.1894 16.7342C28.2071 16.6239 28.2275 16.509 28.2507 16.3889C28.5944 14.6069 28.3008 12.07 23.9796 10.0281L23.9531 10.0089C23.9603 10.0144 23.9675 10.02 23.9747 10.0258L23.9197 10C24.2954 10.3895 24.4926 10.7995 24.5436 11.232C24.5721 11.6246 24.5023 12.0986 24.2677 12.6504C24.0363 13.1638 23.6765 13.7052 23.2279 14.2771C23.1484 14.372 23.0647 14.4683 22.9764 14.5661C21.7567 15.9179 20.5371 17.1007 19.45 18.155L19.449 18.1559C18.9138 18.6749 18.4109 19.1627 17.9558 19.6242C15.5221 21.8845 13.9907 25.1679 13.9907 28.8222L13.9907 28.8451C13.9907 32.4189 15.4542 35.6384 17.7937 37.8942L17.8095 37.882C18.0452 38.1083 18.2899 38.3249 18.5428 38.5311L18.5209 38.5411L18.5177 38.5385L18.4937 38.5188ZM26.0415 42.1905C26.7708 42.1905 27.3621 41.5992 27.3621 40.8699C27.3621 40.1405 26.7708 39.5492 26.0415 39.5492C25.3121 39.5492 24.7208 40.1405 24.7208 40.8699C24.7208 41.5992 25.3121 42.1905 26.0415 42.1905Z" fill="url(#paint2_linear_370_20246)"/>
</g>
<path fill-rule="evenodd" clip-rule="evenodd" d="M18.4937 38.5188C20.0746 39.8229 21.9824 40.7191 24.069 41.054C24.1618 42.0618 25.0095 42.851 26.0415 42.851C27.1027 42.851 27.969 42.0166 28.0201 40.968C35.4241 39.2406 39.2402 33.081 38.9885 26.8293C38.9885 21.2082 35.4854 17.4697 33.5726 16.1773C33.4656 16.0803 33.3586 15.9844 33.2515 15.8898C33.2613 15.9134 33.2709 15.937 33.2802 15.9604C33.5948 16.4369 33.7788 17.0135 33.7788 17.6345C33.7788 19.2733 32.4976 20.6017 30.9171 20.6017C29.3366 20.6017 28.0553 19.2733 28.0553 17.6345C28.0553 17.3206 28.1023 17.0181 28.1894 16.7342C28.2071 16.6239 28.2275 16.509 28.2507 16.3889C28.5944 14.6069 28.3008 12.07 23.9796 10.0281L23.9531 10.0089C23.9603 10.0144 23.9675 10.02 23.9747 10.0258L23.9197 10C24.2954 10.3895 24.4926 10.7995 24.5436 11.232C24.5721 11.6246 24.5022 12.0986 24.2677 12.6504C24.0363 13.1638 23.6765 13.7052 23.2279 14.2771C23.1484 14.372 23.0647 14.4683 22.9764 14.5661C21.7567 15.9179 20.5371 17.1007 19.45 18.155L19.449 18.1559C18.9138 18.6749 18.4109 19.1627 17.9558 19.6242C15.5221 21.8845 13.9907 25.1679 13.9907 28.8222L13.9907 28.8451C13.9907 32.4189 15.4542 35.6383 17.7937 37.8942L17.8095 37.8819C18.0452 38.1083 18.2899 38.3249 18.5428 38.5311L18.5209 38.5411L18.5177 38.5385L18.4937 38.5188ZM26.0415 42.1905C26.7708 42.1905 27.3621 41.5992 27.3621 40.8699C27.3621 40.1405 26.7708 39.5492 26.0415 39.5492C25.3121 39.5492 24.7208 40.1405 24.7208 40.8699C24.7208 41.5992 25.3121 42.1905 26.0415 42.1905Z" fill="url(#paint3_linear_370_20246)"/>
<circle cx="30.8698" cy="17.5525" r="1.85714" fill="url(#paint4_linear_370_20246)"/>
<circle cx="30.8698" cy="17.5525" r="1.85714" fill="url(#paint5_linear_370_20246)"/>
<g filter="url(#filter2_di_370_20246)">
<path fill-rule="evenodd" clip-rule="evenodd" d="M29.2021 36.9941C28.1523 37.528 26.9641 37.829 25.7056 37.829C21.4399 37.8289 17.9819 34.3709 17.9819 30.1053C17.9819 28.455 18.4995 26.9256 19.3812 25.6705L19.3747 25.6736C19.4991 25.4871 19.6523 25.2938 19.8296 25.0923C20.0007 24.8919 20.1819 24.7003 20.3724 24.5184C20.7127 24.178 21.1014 23.8144 21.5205 23.4223C22.2252 22.7632 23.0158 22.0238 23.8064 21.1787C23.8635 21.1176 23.9178 21.0574 23.9693 20.998C24.2601 20.6405 24.4933 20.3021 24.6434 19.9811C24.7954 19.6361 24.8406 19.3398 24.8222 19.0944C24.7891 18.824 24.6613 18.5677 24.4178 18.3242L24.4534 18.3403L24.4394 18.3298L24.4566 18.3418C27.2576 19.6183 27.4478 21.2042 27.225 22.3183C27.21 22.3933 27.1968 22.4652 27.1854 22.5341C27.1289 22.7116 27.0984 22.9007 27.0984 23.097C27.0984 24.1214 27.9289 24.9519 28.9534 24.9519C29.9778 24.9519 30.8083 24.1214 30.8083 23.097C30.8083 22.7087 30.689 22.3483 30.4851 22.0504C30.4791 22.0357 30.4729 22.021 30.4666 22.0062C30.8627 22.344 31.2581 22.7063 31.6455 23.0937C32.6343 24.0825 33.328 25.2547 33.7266 26.5007C33.1981 26.9634 32.5061 27.2438 31.7485 27.2438C31.3767 27.2438 30.9294 27.1318 30.671 27.0671L30.6438 27.0602C30.3905 26.9969 30.1373 26.9336 29.8457 26.8297C29.161 26.5939 28.6034 26.2491 28.0716 25.9204C27.2749 25.4277 26.5363 24.9711 25.5157 24.9711C23.7431 24.9711 22.7512 26.4483 22.4769 27.1869L22.7934 27.5034L22.7934 27.4433C22.9902 27.0565 23.2327 26.7036 23.5084 26.4244C23.675 26.235 23.8796 26.0798 24.1102 25.9709C24.3409 25.8619 24.5661 25.803 24.8469 25.7949C24.8651 25.7943 24.8833 25.7941 24.9016 25.7941C25.1294 25.7941 25.3492 25.8311 25.5493 25.9102C25.8749 26.0391 25.9589 26.1106 26.2245 26.3487C26.5536 26.6834 26.7566 27.1425 26.7566 27.649C26.7566 28.0428 26.6146 28.4549 26.3387 29.0228C25.6026 30.5384 22.8384 33.9675 20.447 35.7617C20.5986 35.9027 20.7558 36.0376 20.9183 36.1661C24.645 34.5251 27.5692 30.6547 28.8195 28.8899C29.0154 28.6134 29.1747 28.3886 29.2953 28.2323C29.4963 27.9087 29.855 27.6933 30.2639 27.6933C30.6051 27.6933 30.9113 27.8433 31.1201 28.0809C31.1907 28.1497 31.2823 28.2356 31.4035 28.3264C31.7411 28.5797 32.7963 28.681 33.8092 26.807L33.8211 26.8174C34.6116 29.6677 33.8864 32.8503 31.6456 35.0911C31.0047 35.8906 30.16 36.5339 29.2021 36.9941ZM28.238 31.9983C28.0787 31.9983 27.927 32.031 27.7893 32.0901C28.2144 31.6285 28.604 31.1722 28.9541 30.7409C29.9818 30.9892 31.7261 32.0087 31.038 33.1785C30.4049 34.2548 28.9822 35.6794 28.4423 36.0907L28.1151 35.8863C29.0694 34.6045 29.242 33.9273 29.3044 33.6824L29.3143 33.6444C29.3692 33.4374 29.3776 33.3034 29.3776 33.1379C29.3776 32.5085 28.8674 31.9983 28.238 31.9983Z" fill="#161925"/>
</g>
<g filter="url(#filter3_di_370_20246)">
<circle cx="34.7079" cy="21.9682" r="1.65079" fill="#161925"/>
<circle cx="36.2762" cy="26.2601" r="1.48571" fill="#161925"/>
<circle cx="36.1936" cy="30.8001" r="1.15555" fill="#161925"/>
<circle cx="34.3777" cy="34.7615" r="0.907936" fill="#161925"/>
<circle cx="31.6952" cy="37.6098" r="0.701587" fill="#161925"/>
<circle cx="28.8888" cy="39.0951" r="0.536507" fill="#161925"/>
</g>
<g filter="url(#filter4_dddddd_370_20246)">
<circle r="0.349269" transform="matrix(-1.8677e-07 1 1 1.8677e-07 16.4032 26.1969)" fill="#EAEBF0"/>
</g>
<g filter="url(#filter5_dddddd_370_20246)">
<circle r="0.247619" transform="matrix(-1.8677e-07 1 1 1.8677e-07 16.0098 30.7173)" fill="#EAEBF0"/>
</g>
<g filter="url(#filter6_dddddd_370_20246)">
<circle r="0.247619" transform="matrix(-1.8677e-07 1 1 1.8677e-07 17.3746 34.7613)" fill="#EAEBF0"/>
</g>
<g filter="url(#filter7_dddddd_370_20246)">
<circle r="0.165079" transform="matrix(-1.8677e-07 1 1 1.8677e-07 19.7684 37.4034)" fill="#EAEBF0"/>
</g>
<g filter="url(#filter8_dddddd_370_20246)">
<circle r="0.123809" transform="matrix(-1.8677e-07 1 1 1.8677e-07 22.8191 39.0955)" fill="#EAEBF0"/>
</g>
<g filter="url(#filter9_dddddd_370_20246)">
<circle r="0.495238" transform="matrix(-1.8677e-07 1 1 1.8677e-07 18.778 21.8038)" fill="#EAEBF0"/>
</g>
<defs>
<filter id="filter0_d_370_20246" x="0.72197" y="0.517957" width="45.7725" height="53.4063" filterUnits="userSpaceOnUse" color-interpolation-filters="sRGB">
<feFlood flood-opacity="0" result="BackgroundImageFix"/>
<feColorMatrix in="SourceAlpha" type="matrix" values="0 0 0 0 0 0 0 0 0 0 0 0 0 0 0 0 0 0 127 0" result="hardAlpha"/>
<feOffset dx="-2.30973" dy="0.486259"/>
<feGaussianBlur stdDeviation="4.98415"/>
<feComposite in2="hardAlpha" operator="out"/>
<feColorMatrix type="matrix" values="0 0 0 0 1 0 0 0 0 1 0 0 0 0 1 0 0 0 0.14 0"/>
<feBlend mode="normal" in2="BackgroundImageFix" result="effect1_dropShadow_370_20246"/>
<feBlend mode="normal" in="SourceGraphic" in2="effect1_dropShadow_370_20246" result="shape"/>
</filter>
<filter id="filter1_f_370_20246" x="13.0182" y="9.02748" width="26.9546" height="34.7956" filterUnits="userSpaceOnUse" color-interpolation-filters="sRGB">
<feFlood flood-opacity="0" result="BackgroundImageFix"/>
<feBlend mode="normal" in="SourceGraphic" in2="BackgroundImageFix" result="shape"/>
<feGaussianBlur stdDeviation="0.486259" result="effect1_foregroundBlur_370_20246"/>
</filter>
<filter id="filter2_di_370_20246" x="17.4957" y="18.3242" width="16.6347" height="19.9911" filterUnits="userSpaceOnUse" color-interpolation-filters="sRGB">
<feFlood flood-opacity="0" result="BackgroundImageFix"/>
<feColorMatrix in="SourceAlpha" type="matrix" values="0 0 0 0 0 0 0 0 0 0 0 0 0 0 0 0 0 0 127 0" result="hardAlpha"/>
<feOffset dx="-0.243129" dy="0.243129"/>
<feGaussianBlur stdDeviation="0.121565"/>
<feComposite in2="hardAlpha" operator="out"/>
<feColorMatrix type="matrix" values="0 0 0 0 0 0 0 0 0 0 0 0 0 0 0 0 0 0 0.3 0"/>
<feBlend mode="normal" in2="BackgroundImageFix" result="effect1_dropShadow_370_20246"/>
<feBlend mode="normal" in="SourceGraphic" in2="effect1_dropShadow_370_20246" result="shape"/>
<feColorMatrix in="SourceAlpha" type="matrix" values="0 0 0 0 0 0 0 0 0 0 0 0 0 0 0 0 0 0 127 0" result="hardAlpha"/>
<feOffset dx="-0.486259" dy="0.486259"/>
<feGaussianBlur stdDeviation="0.425476"/>
<feComposite in2="hardAlpha" operator="arithmetic" k2="-1" k3="1"/>
<feColorMatrix type="matrix" values="0 0 0 0 0.166667 0 0 0 0 0.189744 0 0 0 0 0.266667 0 0 0 1 0"/>
<feBlend mode="normal" in2="shape" result="effect2_innerShadow_370_20246"/>
</filter>
<filter id="filter3_di_370_20246" x="27.866" y="20.3174" width="9.89593" height="19.8007" filterUnits="userSpaceOnUse" color-interpolation-filters="sRGB">
<feFlood flood-opacity="0" result="BackgroundImageFix"/>
<feColorMatrix in="SourceAlpha" type="matrix" values="0 0 0 0 0 0 0 0 0 0 0 0 0 0 0 0 0 0 127 0" result="hardAlpha"/>
<feOffset dx="-0.243129" dy="0.243129"/>
<feGaussianBlur stdDeviation="0.121565"/>
<feComposite in2="hardAlpha" operator="out"/>
<feColorMatrix type="matrix" values="0 0 0 0 0 0 0 0 0 0 0 0 0 0 0 0 0 0 0.3 0"/>
<feBlend mode="normal" in2="BackgroundImageFix" result="effect1_dropShadow_370_20246"/>
<feBlend mode="normal" in="SourceGraphic" in2="effect1_dropShadow_370_20246" result="shape"/>
<feColorMatrix in="SourceAlpha" type="matrix" values="0 0 0 0 0 0 0 0 0 0 0 0 0 0 0 0 0 0 127 0" result="hardAlpha"/>
<feOffset dx="-0.243129" dy="0.243129"/>
<feGaussianBlur stdDeviation="0.303912"/>
<feComposite in2="hardAlpha" operator="arithmetic" k2="-1" k3="1"/>
<feColorMatrix type="matrix" values="0 0 0 0 0.35 0 0 0 0 0.366667 0 0 0 0 0.466667 0 0 0 1 0"/>
<feBlend mode="normal" in2="shape" result="effect2_innerShadow_370_20246"/>
</filter>
<filter id="filter4_dddddd_370_20246" x="13.4135" y="23.2072" width="5.97943" height="5.97919" filterUnits="userSpaceOnUse" color-interpolation-filters="sRGB">
<feFlood flood-opacity="0" result="BackgroundImageFix"/>
<feColorMatrix in="SourceAlpha" type="matrix" values="0 0 0 0 0 0 0 0 0 0 0 0 0 0 0 0 0 0 127 0" result="hardAlpha"/>
<feOffset/>
<feGaussianBlur stdDeviation="0.0314342"/>
<feColorMatrix type="matrix" values="0 0 0 0 0.917647 0 0 0 0 0.921569 0 0 0 0 0.941176 0 0 0 1 0"/>
<feBlend mode="normal" in2="BackgroundImageFix" result="effect1_dropShadow_370_20246"/>
<feColorMatrix in="SourceAlpha" type="matrix" values="0 0 0 0 0 0 0 0 0 0 0 0 0 0 0 0 0 0 127 0" result="hardAlpha"/>
<feOffset/>
<feGaussianBlur stdDeviation="0.0628684"/>
<feColorMatrix type="matrix" values="0 0 0 0 0.917647 0 0 0 0 0.921569 0 0 0 0 0.941176 0 0 0 1 0"/>
<feBlend mode="normal" in2="effect1_dropShadow_370_20246" result="effect2_dropShadow_370_20246"/>
<feColorMatrix in="SourceAlpha" type="matrix" values="0 0 0 0 0 0 0 0 0 0 0 0 0 0 0 0 0 0 127 0" result="hardAlpha"/>
<feOffset/>
<feGaussianBlur stdDeviation="0.22004"/>
<feColorMatrix type="matrix" values="0 0 0 0 0.917647 0 0 0 0 0.921569 0 0 0 0 0.941176 0 0 0 1 0"/>
<feBlend mode="normal" in2="effect2_dropShadow_370_20246" result="effect3_dropShadow_370_20246"/>
<feColorMatrix in="SourceAlpha" type="matrix" values="0 0 0 0 0 0 0 0 0 0 0 0 0 0 0 0 0 0 127 0" result="hardAlpha"/>
<feOffset/>
<feGaussianBlur stdDeviation="0.440079"/>
<feColorMatrix type="matrix" values="0 0 0 0 0.917647 0 0 0 0 0.921569 0 0 0 0 0.941176 0 0 0 1 0"/>
<feBlend mode="normal" in2="effect3_dropShadow_370_20246" result="effect4_dropShadow_370_20246"/>
<feColorMatrix in="SourceAlpha" type="matrix" values="0 0 0 0 0 0 0 0 0 0 0 0 0 0 0 0 0 0 127 0" result="hardAlpha"/>
<feOffset/>
<feGaussianBlur stdDeviation="0.754421"/>
<feColorMatrix type="matrix" values="0 0 0 0 0.917647 0 0 0 0 0.921569 0 0 0 0 0.941176 0 0 0 1 0"/>
<feBlend mode="normal" in2="effect4_dropShadow_370_20246" result="effect5_dropShadow_370_20246"/>
<feColorMatrix in="SourceAlpha" type="matrix" values="0 0 0 0 0 0 0 0 0 0 0 0 0 0 0 0 0 0 127 0" result="hardAlpha"/>
<feOffset/>
<feGaussianBlur stdDeviation="1.32024"/>
<feColorMatrix type="matrix" values="0 0 0 0 0.917647 0 0 0 0 0.921569 0 0 0 0 0.941176 0 0 0 1 0"/>
<feBlend mode="normal" in2="effect5_dropShadow_370_20246" result="effect6_dropShadow_370_20246"/>
<feBlend mode="normal" in="SourceGraphic" in2="effect6_dropShadow_370_20246" result="shape"/>
</filter>
<filter id="filter5_dddddd_370_20246" x="13.8902" y="28.5977" width="4.23911" height="4.23911" filterUnits="userSpaceOnUse" color-interpolation-filters="sRGB">
<feFlood flood-opacity="0" result="BackgroundImageFix"/>
<feColorMatrix in="SourceAlpha" type="matrix" values="0 0 0 0 0 0 0 0 0 0 0 0 0 0 0 0 0 0 127 0" result="hardAlpha"/>
<feOffset/>
<feGaussianBlur stdDeviation="0.0222857"/>
<feColorMatrix type="matrix" values="0 0 0 0 0.917647 0 0 0 0 0.921569 0 0 0 0 0.941176 0 0 0 1 0"/>
<feBlend mode="normal" in2="BackgroundImageFix" result="effect1_dropShadow_370_20246"/>
<feColorMatrix in="SourceAlpha" type="matrix" values="0 0 0 0 0 0 0 0 0 0 0 0 0 0 0 0 0 0 127 0" result="hardAlpha"/>
<feOffset/>
<feGaussianBlur stdDeviation="0.0445714"/>
<feColorMatrix type="matrix" values="0 0 0 0 0.917647 0 0 0 0 0.921569 0 0 0 0 0.941176 0 0 0 1 0"/>
<feBlend mode="normal" in2="effect1_dropShadow_370_20246" result="effect2_dropShadow_370_20246"/>
<feColorMatrix in="SourceAlpha" type="matrix" values="0 0 0 0 0 0 0 0 0 0 0 0 0 0 0 0 0 0 127 0" result="hardAlpha"/>
<feOffset/>
<feGaussianBlur stdDeviation="0.156"/>
<feColorMatrix type="matrix" values="0 0 0 0 0.917647 0 0 0 0 0.921569 0 0 0 0 0.941176 0 0 0 1 0"/>
<feBlend mode="normal" in2="effect2_dropShadow_370_20246" result="effect3_dropShadow_370_20246"/>
<feColorMatrix in="SourceAlpha" type="matrix" values="0 0 0 0 0 0 0 0 0 0 0 0 0 0 0 0 0 0 127 0" result="hardAlpha"/>
<feOffset/>
<feGaussianBlur stdDeviation="0.312"/>
<feColorMatrix type="matrix" values="0 0 0 0 0.917647 0 0 0 0 0.921569 0 0 0 0 0.941176 0 0 0 1 0"/>
<feBlend mode="normal" in2="effect3_dropShadow_370_20246" result="effect4_dropShadow_370_20246"/>
<feColorMatrix in="SourceAlpha" type="matrix" values="0 0 0 0 0 0 0 0 0 0 0 0 0 0 0 0 0 0 127 0" result="hardAlpha"/>
<feOffset/>
<feGaussianBlur stdDeviation="0.534857"/>
<feColorMatrix type="matrix" values="0 0 0 0 0.917647 0 0 0 0 0.921569 0 0 0 0 0.941176 0 0 0 1 0"/>
<feBlend mode="normal" in2="effect4_dropShadow_370_20246" result="effect5_dropShadow_370_20246"/>
<feColorMatrix in="SourceAlpha" type="matrix" values="0 0 0 0 0 0 0 0 0 0 0 0 0 0 0 0 0 0 127 0" result="hardAlpha"/>
<feOffset/>
<feGaussianBlur stdDeviation="0.935999"/>
<feColorMatrix type="matrix" values="0 0 0 0 0.917647 0 0 0 0 0.921569 0 0 0 0 0.941176 0 0 0 1 0"/>
<feBlend mode="normal" in2="effect5_dropShadow_370_20246" result="effect6_dropShadow_370_20246"/>
<feBlend mode="normal" in="SourceGraphic" in2="effect6_dropShadow_370_20246" result="shape"/>
</filter>
<filter id="filter6_dddddd_370_20246" x="15.255" y="32.6417" width="4.23911" height="4.23911" filterUnits="userSpaceOnUse" color-interpolation-filters="sRGB">
<feFlood flood-opacity="0" result="BackgroundImageFix"/>
<feColorMatrix in="SourceAlpha" type="matrix" values="0 0 0 0 0 0 0 0 0 0 0 0 0 0 0 0 0 0 127 0" result="hardAlpha"/>
<feOffset/>
<feGaussianBlur stdDeviation="0.0222857"/>
<feColorMatrix type="matrix" values="0 0 0 0 0.917647 0 0 0 0 0.921569 0 0 0 0 0.941176 0 0 0 1 0"/>
<feBlend mode="normal" in2="BackgroundImageFix" result="effect1_dropShadow_370_20246"/>
<feColorMatrix in="SourceAlpha" type="matrix" values="0 0 0 0 0 0 0 0 0 0 0 0 0 0 0 0 0 0 127 0" result="hardAlpha"/>
<feOffset/>
<feGaussianBlur stdDeviation="0.0445714"/>
<feColorMatrix type="matrix" values="0 0 0 0 0.917647 0 0 0 0 0.921569 0 0 0 0 0.941176 0 0 0 1 0"/>
<feBlend mode="normal" in2="effect1_dropShadow_370_20246" result="effect2_dropShadow_370_20246"/>
<feColorMatrix in="SourceAlpha" type="matrix" values="0 0 0 0 0 0 0 0 0 0 0 0 0 0 0 0 0 0 127 0" result="hardAlpha"/>
<feOffset/>
<feGaussianBlur stdDeviation="0.156"/>
<feColorMatrix type="matrix" values="0 0 0 0 0.917647 0 0 0 0 0.921569 0 0 0 0 0.941176 0 0 0 1 0"/>
<feBlend mode="normal" in2="effect2_dropShadow_370_20246" result="effect3_dropShadow_370_20246"/>
<feColorMatrix in="SourceAlpha" type="matrix" values="0 0 0 0 0 0 0 0 0 0 0 0 0 0 0 0 0 0 127 0" result="hardAlpha"/>
<feOffset/>
<feGaussianBlur stdDeviation="0.312"/>
<feColorMatrix type="matrix" values="0 0 0 0 0.917647 0 0 0 0 0.921569 0 0 0 0 0.941176 0 0 0 1 0"/>
<feBlend mode="normal" in2="effect3_dropShadow_370_20246" result="effect4_dropShadow_370_20246"/>
<feColorMatrix in="SourceAlpha" type="matrix" values="0 0 0 0 0 0 0 0 0 0 0 0 0 0 0 0 0 0 127 0" result="hardAlpha"/>
<feOffset/>
<feGaussianBlur stdDeviation="0.534857"/>
<feColorMatrix type="matrix" values="0 0 0 0 0.917647 0 0 0 0 0.921569 0 0 0 0 0.941176 0 0 0 1 0"/>
<feBlend mode="normal" in2="effect4_dropShadow_370_20246" result="effect5_dropShadow_370_20246"/>
<feColorMatrix in="SourceAlpha" type="matrix" values="0 0 0 0 0 0 0 0 0 0 0 0 0 0 0 0 0 0 127 0" result="hardAlpha"/>
<feOffset/>
<feGaussianBlur stdDeviation="0.935999"/>
<feColorMatrix type="matrix" values="0 0 0 0 0.917647 0 0 0 0 0.921569 0 0 0 0 0.941176 0 0 0 1 0"/>
<feBlend mode="normal" in2="effect5_dropShadow_370_20246" result="effect6_dropShadow_370_20246"/>
<feBlend mode="normal" in="SourceGraphic" in2="effect6_dropShadow_370_20246" result="shape"/>
</filter>
<filter id="filter7_dddddd_370_20246" x="18.3553" y="35.9903" width="2.82608" height="2.82608" filterUnits="userSpaceOnUse" color-interpolation-filters="sRGB">
<feFlood flood-opacity="0" result="BackgroundImageFix"/>
<feColorMatrix in="SourceAlpha" type="matrix" values="0 0 0 0 0 0 0 0 0 0 0 0 0 0 0 0 0 0 127 0" result="hardAlpha"/>
<feOffset/>
<feGaussianBlur stdDeviation="0.0148571"/>
<feColorMatrix type="matrix" values="0 0 0 0 0.917647 0 0 0 0 0.921569 0 0 0 0 0.941176 0 0 0 1 0"/>
<feBlend mode="normal" in2="BackgroundImageFix" result="effect1_dropShadow_370_20246"/>
<feColorMatrix in="SourceAlpha" type="matrix" values="0 0 0 0 0 0 0 0 0 0 0 0 0 0 0 0 0 0 127 0" result="hardAlpha"/>
<feOffset/>
<feGaussianBlur stdDeviation="0.0297143"/>
<feColorMatrix type="matrix" values="0 0 0 0 0.917647 0 0 0 0 0.921569 0 0 0 0 0.941176 0 0 0 1 0"/>
<feBlend mode="normal" in2="effect1_dropShadow_370_20246" result="effect2_dropShadow_370_20246"/>
<feColorMatrix in="SourceAlpha" type="matrix" values="0 0 0 0 0 0 0 0 0 0 0 0 0 0 0 0 0 0 127 0" result="hardAlpha"/>
<feOffset/>
<feGaussianBlur stdDeviation="0.104"/>
<feColorMatrix type="matrix" values="0 0 0 0 0.917647 0 0 0 0 0.921569 0 0 0 0 0.941176 0 0 0 1 0"/>
<feBlend mode="normal" in2="effect2_dropShadow_370_20246" result="effect3_dropShadow_370_20246"/>
<feColorMatrix in="SourceAlpha" type="matrix" values="0 0 0 0 0 0 0 0 0 0 0 0 0 0 0 0 0 0 127 0" result="hardAlpha"/>
<feOffset/>
<feGaussianBlur stdDeviation="0.208"/>
<feColorMatrix type="matrix" values="0 0 0 0 0.917647 0 0 0 0 0.921569 0 0 0 0 0.941176 0 0 0 1 0"/>
<feBlend mode="normal" in2="effect3_dropShadow_370_20246" result="effect4_dropShadow_370_20246"/>
<feColorMatrix in="SourceAlpha" type="matrix" values="0 0 0 0 0 0 0 0 0 0 0 0 0 0 0 0 0 0 127 0" result="hardAlpha"/>
<feOffset/>
<feGaussianBlur stdDeviation="0.356571"/>
<feColorMatrix type="matrix" values="0 0 0 0 0.917647 0 0 0 0 0.921569 0 0 0 0 0.941176 0 0 0 1 0"/>
<feBlend mode="normal" in2="effect4_dropShadow_370_20246" result="effect5_dropShadow_370_20246"/>
<feColorMatrix in="SourceAlpha" type="matrix" values="0 0 0 0 0 0 0 0 0 0 0 0 0 0 0 0 0 0 127 0" result="hardAlpha"/>
<feOffset/>
<feGaussianBlur stdDeviation="0.623999"/>
<feColorMatrix type="matrix" values="0 0 0 0 0.917647 0 0 0 0 0.921569 0 0 0 0 0.941176 0 0 0 1 0"/>
<feBlend mode="normal" in2="effect5_dropShadow_370_20246" result="effect6_dropShadow_370_20246"/>
<feBlend mode="normal" in="SourceGraphic" in2="effect6_dropShadow_370_20246" result="shape"/>
</filter>
<filter id="filter8_dddddd_370_20246" x="21.7593" y="38.0357" width="2.11956" height="2.12005" filterUnits="userSpaceOnUse" color-interpolation-filters="sRGB">
<feFlood flood-opacity="0" result="BackgroundImageFix"/>
<feColorMatrix in="SourceAlpha" type="matrix" values="0 0 0 0 0 0 0 0 0 0 0 0 0 0 0 0 0 0 127 0" result="hardAlpha"/>
<feOffset/>
<feGaussianBlur stdDeviation="0.0111428"/>
<feColorMatrix type="matrix" values="0 0 0 0 0.917647 0 0 0 0 0.921569 0 0 0 0 0.941176 0 0 0 1 0"/>
<feBlend mode="normal" in2="BackgroundImageFix" result="effect1_dropShadow_370_20246"/>
<feColorMatrix in="SourceAlpha" type="matrix" values="0 0 0 0 0 0 0 0 0 0 0 0 0 0 0 0 0 0 127 0" result="hardAlpha"/>
<feOffset/>
<feGaussianBlur stdDeviation="0.0222857"/>
<feColorMatrix type="matrix" values="0 0 0 0 0.917647 0 0 0 0 0.921569 0 0 0 0 0.941176 0 0 0 1 0"/>
<feBlend mode="normal" in2="effect1_dropShadow_370_20246" result="effect2_dropShadow_370_20246"/>
<feColorMatrix in="SourceAlpha" type="matrix" values="0 0 0 0 0 0 0 0 0 0 0 0 0 0 0 0 0 0 127 0" result="hardAlpha"/>
<feOffset/>
<feGaussianBlur stdDeviation="0.0779999"/>
<feColorMatrix type="matrix" values="0 0 0 0 0.917647 0 0 0 0 0.921569 0 0 0 0 0.941176 0 0 0 1 0"/>
<feBlend mode="normal" in2="effect2_dropShadow_370_20246" result="effect3_dropShadow_370_20246"/>
<feColorMatrix in="SourceAlpha" type="matrix" values="0 0 0 0 0 0 0 0 0 0 0 0 0 0 0 0 0 0 127 0" result="hardAlpha"/>
<feOffset/>
<feGaussianBlur stdDeviation="0.156"/>
<feColorMatrix type="matrix" values="0 0 0 0 0.917647 0 0 0 0 0.921569 0 0 0 0 0.941176 0 0 0 1 0"/>
<feBlend mode="normal" in2="effect3_dropShadow_370_20246" result="effect4_dropShadow_370_20246"/>
<feColorMatrix in="SourceAlpha" type="matrix" values="0 0 0 0 0 0 0 0 0 0 0 0 0 0 0 0 0 0 127 0" result="hardAlpha"/>
<feOffset/>
<feGaussianBlur stdDeviation="0.267428"/>
<feColorMatrix type="matrix" values="0 0 0 0 0.917647 0 0 0 0 0.921569 0 0 0 0 0.941176 0 0 0 1 0"/>
<feBlend mode="normal" in2="effect4_dropShadow_370_20246" result="effect5_dropShadow_370_20246"/>
<feColorMatrix in="SourceAlpha" type="matrix" values="0 0 0 0 0 0 0 0 0 0 0 0 0 0 0 0 0 0 127 0" result="hardAlpha"/>
<feOffset/>
<feGaussianBlur stdDeviation="0.468"/>
<feColorMatrix type="matrix" values="0 0 0 0 0.917647 0 0 0 0 0.921569 0 0 0 0 0.941176 0 0 0 1 0"/>
<feBlend mode="normal" in2="effect5_dropShadow_370_20246" result="effect6_dropShadow_370_20246"/>
<feBlend mode="normal" in="SourceGraphic" in2="effect6_dropShadow_370_20246" result="shape"/>
</filter>
<filter id="filter9_dddddd_370_20246" x="14.5387" y="17.5646" width="8.47847" height="8.47823" filterUnits="userSpaceOnUse" color-interpolation-filters="sRGB">
<feFlood flood-opacity="0" result="BackgroundImageFix"/>
<feColorMatrix in="SourceAlpha" type="matrix" values="0 0 0 0 0 0 0 0 0 0 0 0 0 0 0 0 0 0 127 0" result="hardAlpha"/>
<feOffset/>
<feGaussianBlur stdDeviation="0.0445714"/>
<feColorMatrix type="matrix" values="0 0 0 0 0.917647 0 0 0 0 0.921569 0 0 0 0 0.941176 0 0 0 1 0"/>
<feBlend mode="normal" in2="BackgroundImageFix" result="effect1_dropShadow_370_20246"/>
<feColorMatrix in="SourceAlpha" type="matrix" values="0 0 0 0 0 0 0 0 0 0 0 0 0 0 0 0 0 0 127 0" result="hardAlpha"/>
<feOffset/>
<feGaussianBlur stdDeviation="0.0891428"/>
<feColorMatrix type="matrix" values="0 0 0 0 0.917647 0 0 0 0 0.921569 0 0 0 0 0.941176 0 0 0 1 0"/>
<feBlend mode="normal" in2="effect1_dropShadow_370_20246" result="effect2_dropShadow_370_20246"/>
<feColorMatrix in="SourceAlpha" type="matrix" values="0 0 0 0 0 0 0 0 0 0 0 0 0 0 0 0 0 0 127 0" result="hardAlpha"/>
<feOffset/>
<feGaussianBlur stdDeviation="0.312"/>
<feColorMatrix type="matrix" values="0 0 0 0 0.917647 0 0 0 0 0.921569 0 0 0 0 0.941176 0 0 0 1 0"/>
<feBlend mode="normal" in2="effect2_dropShadow_370_20246" result="effect3_dropShadow_370_20246"/>
<feColorMatrix in="SourceAlpha" type="matrix" values="0 0 0 0 0 0 0 0 0 0 0 0 0 0 0 0 0 0 127 0" result="hardAlpha"/>
<feOffset/>
<feGaussianBlur stdDeviation="0.623999"/>
<feColorMatrix type="matrix" values="0 0 0 0 0.917647 0 0 0 0 0.921569 0 0 0 0 0.941176 0 0 0 1 0"/>
<feBlend mode="normal" in2="effect3_dropShadow_370_20246" result="effect4_dropShadow_370_20246"/>
<feColorMatrix in="SourceAlpha" type="matrix" values="0 0 0 0 0 0 0 0 0 0 0 0 0 0 0 0 0 0 127 0" result="hardAlpha"/>
<feOffset/>
<feGaussianBlur stdDeviation="1.06971"/>
<feColorMatrix type="matrix" values="0 0 0 0 0.917647 0 0 0 0 0.921569 0 0 0 0 0.941176 0 0 0 1 0"/>
<feBlend mode="normal" in2="effect4_dropShadow_370_20246" result="effect5_dropShadow_370_20246"/>
<feColorMatrix in="SourceAlpha" type="matrix" values="0 0 0 0 0 0 0 0 0 0 0 0 0 0 0 0 0 0 127 0" result="hardAlpha"/>
<feOffset/>
<feGaussianBlur stdDeviation="1.872"/>
<feColorMatrix type="matrix" values="0 0 0 0 0.917647 0 0 0 0 0.921569 0 0 0 0 0.941176 0 0 0 1 0"/>
<feBlend mode="normal" in2="effect5_dropShadow_370_20246" result="effect6_dropShadow_370_20246"/>
<feBlend mode="normal" in="SourceGraphic" in2="effect6_dropShadow_370_20246" result="shape"/>
</filter>
<linearGradient id="paint0_linear_370_20246" x1="25.918" y1="10" x2="25.918" y2="43.4698" gradientUnits="userSpaceOnUse">
<stop stop-color="#122832"/>
<stop offset="1" stop-color="#C65B9A"/>
</linearGradient>
<linearGradient id="paint1_linear_370_20246" x1="33.3875" y1="11.981" x2="24.3906" y2="43.6351" gradientUnits="userSpaceOnUse">
<stop stop-color="#23B3E0"/>
<stop offset="0.394651" stop-color="#0B7090"/>
<stop offset="1" stop-color="#12151E"/>
</linearGradient>
<linearGradient id="paint2_linear_370_20246" x1="33.3875" y1="11.981" x2="24.3906" y2="43.6351" gradientUnits="userSpaceOnUse">
<stop stop-color="#FF5D39"/>
<stop offset="0.494792" stop-color="#8C2764"/>
<stop offset="1" stop-color="#141722"/>
</linearGradient>
<linearGradient id="paint3_linear_370_20246" x1="33.3875" y1="11.981" x2="24.3906" y2="43.6351" gradientUnits="userSpaceOnUse">
<stop stop-color="#FF5D39"/>
<stop offset="0.494792" stop-color="#8C2764"/>
<stop offset="1" stop-color="#141722"/>
</linearGradient>
<linearGradient id="paint4_linear_370_20246" x1="30.8698" y1="15.6953" x2="30.8698" y2="17.4539" gradientUnits="userSpaceOnUse">
<stop stop-color="#8D8F96"/>
<stop offset="1" stop-color="#8D8F96" stop-opacity="0"/>
</linearGradient>
<linearGradient id="paint5_linear_370_20246" x1="31.8934" y1="15.9193" x2="31.0939" y2="19.6144" gradientUnits="userSpaceOnUse">
<stop stop-color="#FF5D39"/>
<stop offset="0.494792" stop-color="#8C2764"/>
<stop offset="1" stop-color="#141722"/>
</linearGradient>
</defs>
</svg>
