<svg width="42" height="49" viewBox="0 0 42 49" fill="none" xmlns="http://www.w3.org/2000/svg">
<g filter="url(#filter0_d_370_20184)">
<path fill-rule="evenodd" clip-rule="evenodd" d="M14.6302 36.6996C16.2557 38.0193 18.2787 38.7716 20.4243 39.1105C20.5198 40.1304 21.4789 40.8952 22.4929 40.8952C24.1559 40.8952 24.3872 39.5226 24.4398 38.4616C32.0529 36.7134 35.6381 30.7908 35.3794 24.4639C35.3794 18.7751 32.1018 15.3972 30.1349 14.0894C30.025 13.9911 29.9149 13.8941 29.8048 13.7983C29.8149 13.8223 29.8247 13.8461 29.8343 13.8699C30.1578 14.3521 30.347 14.9355 30.347 15.5641C30.347 17.2225 29.0296 18.567 27.4044 18.567C25.7793 18.567 24.4618 17.2225 24.4618 15.5641C24.4618 15.2464 24.5101 14.9403 24.5997 14.6529C24.6179 14.5413 24.6389 14.425 24.6627 14.3035C25.0161 12.5 25.213 10.0949 20.7697 8.02843L20.7425 8.009C20.7499 8.01456 20.7573 8.02024 20.7647 8.02608L20.7082 8C21.0944 8.39418 21.1138 8.93291 21.1138 9.33852C21.1138 9.74414 20.7295 10.4794 20.5054 10.8393C20.2812 11.1992 19.9593 11.5875 19.498 12.1663C19.4163 12.2623 19.3302 12.3598 19.2395 12.4587C17.9854 13.8268 16.7313 15.0239 15.6134 16.0908L15.6125 16.0917C15.0622 16.617 14.545 17.1107 14.0771 17.5777C11.5747 19.8652 10 23.1881 10 26.8863V26.9095C10 30.5263 11.5048 33.7844 13.9104 36.0674L13.9266 36.055C14.169 36.2841 14.4206 36.5033 14.6806 36.712C14.6731 36.7153 14.6656 36.7187 14.6581 36.7221L14.6548 36.7194L14.6302 36.6996ZM22.8174 40.1651C23.5673 40.1651 23.9801 38.9077 23.7908 38.3399C23.5069 37.4881 22.8166 37.3367 22.0666 37.3367C21.3167 37.3367 21.1544 38.2913 21.1544 39.0294C21.1544 39.7675 22.0674 40.1651 22.8174 40.1651Z" fill="url(#paint0_linear_370_20184)"/>
</g>
<g filter="url(#filter1_f_370_20184)">
<path fill-rule="evenodd" clip-rule="evenodd" d="M15.3993 36.0293C16.953 37.3109 18.8281 38.1917 20.8789 38.5209C20.9702 39.5112 21.8033 40.2866 22.8175 40.2866C23.8603 40.2866 24.7117 39.4668 24.7621 38.4364C32.039 36.7387 35.7896 30.6848 35.5423 24.5404C35.5423 19.0158 32.0993 15.3414 30.2193 14.0713C30.1142 13.9759 30.009 13.8817 29.9038 13.7887C29.9134 13.8119 29.9228 13.835 29.932 13.8581C30.2412 14.3264 30.422 14.893 30.422 15.5035C30.422 17.1141 29.1628 18.4197 27.6094 18.4197C26.056 18.4197 24.7968 17.1141 24.7968 15.5035C24.7968 15.195 24.843 14.8977 24.9286 14.6186C24.946 14.5102 24.966 14.3972 24.9888 14.2792C25.3266 12.5278 25.0381 10.0345 20.791 8.02761L20.765 8.00875C20.7721 8.01414 20.7791 8.01965 20.7862 8.02533L20.7322 8C21.1014 8.38281 21.2952 8.78578 21.3453 9.21081C21.3733 9.59669 21.3047 10.0625 21.0742 10.6049C20.8467 11.1095 20.4931 11.6416 20.0522 12.2037C19.9741 12.2969 19.8918 12.3916 19.8051 12.4877C18.6063 13.8163 17.4076 14.9788 16.3391 16.015L16.3382 16.0158C15.8122 16.526 15.3179 17.0054 14.8707 17.459C12.4788 19.6805 10.9736 22.9075 10.9736 26.4991V26.5216C10.9736 30.0341 12.412 33.1982 14.7113 35.4154L14.7268 35.4033C14.9585 35.6258 15.199 35.8387 15.4475 36.0413L15.426 36.0511L15.4229 36.0486L15.3993 36.0293ZM22.8175 39.638C23.5343 39.638 24.1154 39.0569 24.1154 38.3401C24.1154 37.6232 23.5343 37.0421 22.8175 37.0421C22.1006 37.0421 21.5195 37.6232 21.5195 38.3401C21.5195 39.0569 22.1006 39.638 22.8175 39.638Z" fill="url(#paint1_linear_370_20184)" fill-opacity="0.62"/>
</g>
<path fill-rule="evenodd" clip-rule="evenodd" d="M15.3993 36.0293C16.953 37.3109 18.8281 38.1917 20.8789 38.5209C20.9702 39.5112 21.8033 40.2866 22.8175 40.2866C23.8603 40.2866 24.7117 39.4668 24.7621 38.4364C32.039 36.7387 35.7896 30.6848 35.5423 24.5404C35.5423 19.0158 32.0993 15.3414 30.2193 14.0713C30.1142 13.9759 30.009 13.8817 29.9038 13.7887C29.9134 13.8119 29.9228 13.835 29.932 13.8581C30.2412 14.3264 30.422 14.893 30.422 15.5035C30.422 17.1141 29.1628 18.4197 27.6094 18.4197C26.056 18.4197 24.7968 17.1141 24.7968 15.5035C24.7968 15.195 24.843 14.8977 24.9286 14.6186C24.946 14.5102 24.966 14.3972 24.9888 14.2792C25.3266 12.5278 25.0381 10.0345 20.791 8.02761L20.765 8.00875C20.7721 8.01414 20.7791 8.01965 20.7862 8.02533L20.7322 8C21.1014 8.38281 21.2952 8.78578 21.3453 9.21081C21.3733 9.59669 21.3047 10.0625 21.0742 10.6049C20.8467 11.1095 20.4931 11.6416 20.0522 12.2037C19.9741 12.2969 19.8918 12.3916 19.8051 12.4877C18.6063 13.8163 17.4076 14.9788 16.3391 16.015L16.3382 16.0158C15.8122 16.526 15.3179 17.0054 14.8707 17.459C12.4788 19.6805 10.9736 22.9075 10.9736 26.4991V26.5216C10.9736 30.0341 12.412 33.1982 14.7113 35.4154L14.7268 35.4033C14.9585 35.6258 15.199 35.8386 15.4475 36.0413L15.426 36.0511L15.4229 36.0486L15.3993 36.0293ZM22.8175 39.638C23.5343 39.638 24.1154 39.0569 24.1154 38.3401C24.1154 37.6232 23.5343 37.0421 22.8175 37.0421C22.1006 37.0421 21.5195 37.6232 21.5195 38.3401C21.5195 39.0569 22.1006 39.638 22.8175 39.638Z" fill="url(#paint2_linear_370_20184)"/>
<circle cx="27.5631" cy="15.4229" r="1.82526" fill="url(#paint3_linear_370_20184)"/>
<g filter="url(#filter2_di_370_20184)">
<path fill-rule="evenodd" clip-rule="evenodd" d="M25.9238 34.53C24.892 35.0547 23.7242 35.3506 22.4873 35.3506C18.2949 35.3506 14.8962 31.9519 14.8962 27.7595C14.8962 26.1375 15.4049 24.6344 16.2715 23.4009L16.2651 23.4039C16.3873 23.2206 16.5379 23.0306 16.7122 22.8326C16.8804 22.6356 17.0585 22.4473 17.2457 22.2685C17.5801 21.9339 17.9622 21.5766 18.3741 21.1913C19.0667 20.5435 19.8437 19.8167 20.6207 18.9861C20.6769 18.9261 20.7302 18.8669 20.7808 18.8086C21.0667 18.4572 21.2958 18.1246 21.4433 17.8091C21.5927 17.4701 21.6372 17.1788 21.6191 16.9376C21.5865 16.6719 21.4609 16.42 21.2216 16.1807L21.2566 16.1965L21.2429 16.1861L21.2598 16.1979C24.0126 17.4525 24.1997 19.0112 23.9807 20.1061C23.9659 20.1799 23.9529 20.2505 23.9417 20.3183C23.8862 20.4928 23.8562 20.6786 23.8562 20.8715C23.8562 21.8783 24.6725 22.6946 25.6793 22.6946C26.6862 22.6946 27.5024 21.8783 27.5024 20.8715C27.5024 20.4899 27.3852 20.1357 27.1848 19.8429C27.1788 19.8284 27.1728 19.814 27.1666 19.7995C27.5559 20.1314 27.9445 20.4875 28.3253 20.8683C29.2971 21.8401 29.9789 22.9922 30.3706 24.2169C29.8513 24.6716 29.1711 24.9472 28.4266 24.9472C28.0612 24.9472 27.6216 24.8371 27.3676 24.7735L27.3676 24.7735L27.3408 24.7668L27.3408 24.7668C27.0919 24.7045 26.843 24.6423 26.5565 24.5402C25.8835 24.3085 25.3355 23.9696 24.8128 23.6465C24.0298 23.1623 23.3039 22.7134 22.3008 22.7134C20.5586 22.7134 19.5838 24.1653 19.3142 24.8912L19.6253 25.2023V25.1432C19.8187 24.7631 20.057 24.4162 20.3279 24.1418C20.4916 23.9557 20.6927 23.8032 20.9195 23.6961C21.1462 23.589 21.3675 23.5311 21.6434 23.5231C21.6613 23.5226 21.6793 23.5223 21.6973 23.5223C21.9211 23.5223 22.1371 23.5587 22.3338 23.6365C22.6538 23.7632 22.7364 23.8334 22.9974 24.0674C23.3209 24.3964 23.5204 24.8476 23.5204 25.3454C23.5204 25.7324 23.3808 26.1375 23.1097 26.6957C22.3862 28.1852 19.6695 31.5554 17.3191 33.3189C17.4681 33.4574 17.6226 33.59 17.7823 33.7163C21.445 32.1034 24.319 28.2996 25.5479 26.565L25.5479 26.565L25.5479 26.5649C25.7405 26.2932 25.897 26.0723 26.0155 25.9187C26.2131 25.6007 26.5656 25.389 26.9675 25.389C27.3028 25.389 27.6037 25.5364 27.809 25.7699C27.8783 25.8375 27.9684 25.9219 28.0875 26.0112C28.4193 26.2601 29.4564 26.3597 30.4519 24.5179L30.4635 24.528C31.2404 27.3294 30.5277 30.4573 28.3253 32.6597C27.6955 33.4455 26.8653 34.0777 25.9238 34.53ZM24.9764 29.6201C24.8198 29.6201 24.6707 29.6522 24.5353 29.7103C24.9532 29.2566 25.3361 28.8081 25.6801 28.3842C26.6902 28.6283 28.4045 29.6303 27.7283 30.78C27.106 31.8378 25.7078 33.238 25.1772 33.6422L24.8556 33.4414C25.7935 32.1815 25.9631 31.516 26.0245 31.2752L26.0341 31.2379C26.0881 31.0344 26.0964 30.9027 26.0964 30.7401C26.0964 30.1215 25.5949 29.6201 24.9764 29.6201Z" fill="#161925"/>
</g>
<g filter="url(#filter3_di_370_20184)">
<circle cx="31.3353" cy="19.7631" r="1.62245" fill="#161925"/>
<circle cx="32.8767" cy="23.9807" r="1.46021" fill="#161925"/>
<circle cx="32.7956" cy="28.4433" r="1.13572" fill="#161925"/>
<circle cx="31.0108" cy="32.3367" r="0.892349" fill="#161925"/>
<circle cx="28.3744" cy="35.1349" r="0.689543" fill="#161925"/>
<circle cx="25.6162" cy="36.5957" r="0.527297" fill="#161925"/>
</g>
<g filter="url(#filter4_dddddd_370_20184)">
<circle r="0.343273" transform="matrix(-1.19249e-08 1 1 1.19249e-08 13.345 23.9185)" fill="#13A0D5"/>
</g>
<g filter="url(#filter5_dddddd_370_20184)">
<circle r="0.243368" transform="matrix(-1.19249e-08 1 1 1.19249e-08 12.958 28.3615)" fill="#13A0D5"/>
</g>
<g filter="url(#filter6_dddddd_370_20184)">
<circle r="0.243368" transform="matrix(-1.19249e-08 1 1 1.19249e-08 14.2995 32.3371)" fill="#13A0D5"/>
</g>
<g filter="url(#filter7_dddddd_370_20184)">
<circle r="0.162245" transform="matrix(-1.19249e-08 1 1 1.19249e-08 16.652 34.9328)" fill="#13A0D5"/>
</g>
<g filter="url(#filter8_dddddd_370_20184)">
<circle r="0.121684" transform="matrix(-1.19249e-08 1 1 1.19249e-08 19.6505 36.5963)" fill="#13A0D5"/>
</g>
<g filter="url(#filter9_dddddd_370_20184)">
<circle r="0.486736" transform="matrix(-1.19249e-08 1 1 1.19249e-08 15.6786 19.6)" fill="#13A0D5"/>
</g>
<defs>
<filter id="filter0_d_370_20184" x="0.72521" y="0.837291" width="40.4524" height="47.9556" filterUnits="userSpaceOnUse" color-interpolation-filters="sRGB">
<feFlood flood-opacity="0" result="BackgroundImageFix"/>
<feColorMatrix in="SourceAlpha" type="matrix" values="0 0 0 0 0 0 0 0 0 0 0 0 0 0 0 0 0 0 127 0" result="hardAlpha"/>
<feOffset dx="-1.74476" dy="0.367318"/>
<feGaussianBlur stdDeviation="3.76501"/>
<feComposite in2="hardAlpha" operator="out"/>
<feColorMatrix type="matrix" values="0 0 0 0 0.0941176 0 0 0 0 0.580392 0 0 0 0 0.737255 0 0 0 0.14 0"/>
<feBlend mode="normal" in2="BackgroundImageFix" result="effect1_dropShadow_370_20184"/>
<feBlend mode="normal" in="SourceGraphic" in2="effect1_dropShadow_370_20184" result="shape"/>
</filter>
<filter id="filter1_f_370_20184" x="10.239" y="7.26536" width="26.0494" height="33.7564" filterUnits="userSpaceOnUse" color-interpolation-filters="sRGB">
<feFlood flood-opacity="0" result="BackgroundImageFix"/>
<feBlend mode="normal" in="SourceGraphic" in2="BackgroundImageFix" result="shape"/>
<feGaussianBlur stdDeviation="0.367318" result="effect1_foregroundBlur_370_20184"/>
</filter>
<filter id="filter2_di_370_20184" x="14.5289" y="16.1807" width="16.2384" height="19.5372" filterUnits="userSpaceOnUse" color-interpolation-filters="sRGB">
<feFlood flood-opacity="0" result="BackgroundImageFix"/>
<feColorMatrix in="SourceAlpha" type="matrix" values="0 0 0 0 0 0 0 0 0 0 0 0 0 0 0 0 0 0 127 0" result="hardAlpha"/>
<feOffset dx="-0.183659" dy="0.183659"/>
<feGaussianBlur stdDeviation="0.0918296"/>
<feComposite in2="hardAlpha" operator="out"/>
<feColorMatrix type="matrix" values="0 0 0 0 0 0 0 0 0 0 0 0 0 0 0 0 0 0 0.3 0"/>
<feBlend mode="normal" in2="BackgroundImageFix" result="effect1_dropShadow_370_20184"/>
<feBlend mode="normal" in="SourceGraphic" in2="effect1_dropShadow_370_20184" result="shape"/>
<feColorMatrix in="SourceAlpha" type="matrix" values="0 0 0 0 0 0 0 0 0 0 0 0 0 0 0 0 0 0 127 0" result="hardAlpha"/>
<feOffset dx="-0.367318" dy="0.367318"/>
<feGaussianBlur stdDeviation="0.321404"/>
<feComposite in2="hardAlpha" operator="arithmetic" k2="-1" k3="1"/>
<feColorMatrix type="matrix" values="0 0 0 0 0.166667 0 0 0 0 0.189744 0 0 0 0 0.266667 0 0 0 1 0"/>
<feBlend mode="normal" in2="shape" result="effect2_innerShadow_370_20184"/>
</filter>
<filter id="filter3_di_370_20184" x="24.7215" y="18.1406" width="9.61537" height="19.3497" filterUnits="userSpaceOnUse" color-interpolation-filters="sRGB">
<feFlood flood-opacity="0" result="BackgroundImageFix"/>
<feColorMatrix in="SourceAlpha" type="matrix" values="0 0 0 0 0 0 0 0 0 0 0 0 0 0 0 0 0 0 127 0" result="hardAlpha"/>
<feOffset dx="-0.183659" dy="0.183659"/>
<feGaussianBlur stdDeviation="0.0918296"/>
<feComposite in2="hardAlpha" operator="out"/>
<feColorMatrix type="matrix" values="0 0 0 0 0 0 0 0 0 0 0 0 0 0 0 0 0 0 0.3 0"/>
<feBlend mode="normal" in2="BackgroundImageFix" result="effect1_dropShadow_370_20184"/>
<feBlend mode="normal" in="SourceGraphic" in2="effect1_dropShadow_370_20184" result="shape"/>
<feColorMatrix in="SourceAlpha" type="matrix" values="0 0 0 0 0 0 0 0 0 0 0 0 0 0 0 0 0 0 127 0" result="hardAlpha"/>
<feOffset dx="-0.183659" dy="0.183659"/>
<feGaussianBlur stdDeviation="0.229574"/>
<feComposite in2="hardAlpha" operator="arithmetic" k2="-1" k3="1"/>
<feColorMatrix type="matrix" values="0 0 0 0 0.35 0 0 0 0 0.366667 0 0 0 0 0.466667 0 0 0 1 0"/>
<feBlend mode="normal" in2="shape" result="effect2_innerShadow_370_20184"/>
</filter>
<filter id="filter4_dddddd_370_20184" x="10.5028" y="21.0763" width="5.68431" height="5.68431" filterUnits="userSpaceOnUse" color-interpolation-filters="sRGB">
<feFlood flood-opacity="0" result="BackgroundImageFix"/>
<feColorMatrix in="SourceAlpha" type="matrix" values="0 0 0 0 0 0 0 0 0 0 0 0 0 0 0 0 0 0 127 0" result="hardAlpha"/>
<feOffset/>
<feGaussianBlur stdDeviation="0.0297487"/>
<feColorMatrix type="matrix" values="0 0 0 0 0.0745098 0 0 0 0 0.627451 0 0 0 0 0.831373 0 0 0 1 0"/>
<feBlend mode="normal" in2="BackgroundImageFix" result="effect1_dropShadow_370_20184"/>
<feColorMatrix in="SourceAlpha" type="matrix" values="0 0 0 0 0 0 0 0 0 0 0 0 0 0 0 0 0 0 127 0" result="hardAlpha"/>
<feOffset/>
<feGaussianBlur stdDeviation="0.0594975"/>
<feColorMatrix type="matrix" values="0 0 0 0 0.0745098 0 0 0 0 0.627451 0 0 0 0 0.831373 0 0 0 1 0"/>
<feBlend mode="normal" in2="effect1_dropShadow_370_20184" result="effect2_dropShadow_370_20184"/>
<feColorMatrix in="SourceAlpha" type="matrix" values="0 0 0 0 0 0 0 0 0 0 0 0 0 0 0 0 0 0 127 0" result="hardAlpha"/>
<feOffset/>
<feGaussianBlur stdDeviation="0.208241"/>
<feColorMatrix type="matrix" values="0 0 0 0 0.0745098 0 0 0 0 0.627451 0 0 0 0 0.831373 0 0 0 1 0"/>
<feBlend mode="normal" in2="effect2_dropShadow_370_20184" result="effect3_dropShadow_370_20184"/>
<feColorMatrix in="SourceAlpha" type="matrix" values="0 0 0 0 0 0 0 0 0 0 0 0 0 0 0 0 0 0 127 0" result="hardAlpha"/>
<feOffset/>
<feGaussianBlur stdDeviation="0.416482"/>
<feColorMatrix type="matrix" values="0 0 0 0 0.0745098 0 0 0 0 0.627451 0 0 0 0 0.831373 0 0 0 1 0"/>
<feBlend mode="normal" in2="effect3_dropShadow_370_20184" result="effect4_dropShadow_370_20184"/>
<feColorMatrix in="SourceAlpha" type="matrix" values="0 0 0 0 0 0 0 0 0 0 0 0 0 0 0 0 0 0 127 0" result="hardAlpha"/>
<feOffset/>
<feGaussianBlur stdDeviation="0.71397"/>
<feColorMatrix type="matrix" values="0 0 0 0 0.0745098 0 0 0 0 0.627451 0 0 0 0 0.831373 0 0 0 1 0"/>
<feBlend mode="normal" in2="effect4_dropShadow_370_20184" result="effect5_dropShadow_370_20184"/>
<feColorMatrix in="SourceAlpha" type="matrix" values="0 0 0 0 0 0 0 0 0 0 0 0 0 0 0 0 0 0 127 0" result="hardAlpha"/>
<feOffset/>
<feGaussianBlur stdDeviation="1.24945"/>
<feColorMatrix type="matrix" values="0 0 0 0 0.0745098 0 0 0 0 0.627451 0 0 0 0 0.831373 0 0 0 1 0"/>
<feBlend mode="normal" in2="effect5_dropShadow_370_20184" result="effect6_dropShadow_370_20184"/>
<feBlend mode="normal" in="SourceGraphic" in2="effect6_dropShadow_370_20184" result="shape"/>
</filter>
<filter id="filter5_dddddd_370_20184" x="10.2157" y="25.6193" width="5.4846" height="5.48411" filterUnits="userSpaceOnUse" color-interpolation-filters="sRGB">
<feFlood flood-opacity="0" result="BackgroundImageFix"/>
<feColorMatrix in="SourceAlpha" type="matrix" values="0 0 0 0 0 0 0 0 0 0 0 0 0 0 0 0 0 0 127 0" result="hardAlpha"/>
<feOffset/>
<feGaussianBlur stdDeviation="0.0297487"/>
<feColorMatrix type="matrix" values="0 0 0 0 0.0745098 0 0 0 0 0.627451 0 0 0 0 0.831373 0 0 0 1 0"/>
<feBlend mode="normal" in2="BackgroundImageFix" result="effect1_dropShadow_370_20184"/>
<feColorMatrix in="SourceAlpha" type="matrix" values="0 0 0 0 0 0 0 0 0 0 0 0 0 0 0 0 0 0 127 0" result="hardAlpha"/>
<feOffset/>
<feGaussianBlur stdDeviation="0.0594975"/>
<feColorMatrix type="matrix" values="0 0 0 0 0.0745098 0 0 0 0 0.627451 0 0 0 0 0.831373 0 0 0 1 0"/>
<feBlend mode="normal" in2="effect1_dropShadow_370_20184" result="effect2_dropShadow_370_20184"/>
<feColorMatrix in="SourceAlpha" type="matrix" values="0 0 0 0 0 0 0 0 0 0 0 0 0 0 0 0 0 0 127 0" result="hardAlpha"/>
<feOffset/>
<feGaussianBlur stdDeviation="0.208241"/>
<feColorMatrix type="matrix" values="0 0 0 0 0.0745098 0 0 0 0 0.627451 0 0 0 0 0.831373 0 0 0 1 0"/>
<feBlend mode="normal" in2="effect2_dropShadow_370_20184" result="effect3_dropShadow_370_20184"/>
<feColorMatrix in="SourceAlpha" type="matrix" values="0 0 0 0 0 0 0 0 0 0 0 0 0 0 0 0 0 0 127 0" result="hardAlpha"/>
<feOffset/>
<feGaussianBlur stdDeviation="0.416482"/>
<feColorMatrix type="matrix" values="0 0 0 0 0.0745098 0 0 0 0 0.627451 0 0 0 0 0.831373 0 0 0 1 0"/>
<feBlend mode="normal" in2="effect3_dropShadow_370_20184" result="effect4_dropShadow_370_20184"/>
<feColorMatrix in="SourceAlpha" type="matrix" values="0 0 0 0 0 0 0 0 0 0 0 0 0 0 0 0 0 0 127 0" result="hardAlpha"/>
<feOffset/>
<feGaussianBlur stdDeviation="0.71397"/>
<feColorMatrix type="matrix" values="0 0 0 0 0.0745098 0 0 0 0 0.627451 0 0 0 0 0.831373 0 0 0 1 0"/>
<feBlend mode="normal" in2="effect4_dropShadow_370_20184" result="effect5_dropShadow_370_20184"/>
<feColorMatrix in="SourceAlpha" type="matrix" values="0 0 0 0 0 0 0 0 0 0 0 0 0 0 0 0 0 0 127 0" result="hardAlpha"/>
<feOffset/>
<feGaussianBlur stdDeviation="1.24945"/>
<feColorMatrix type="matrix" values="0 0 0 0 0.0745098 0 0 0 0 0.627451 0 0 0 0 0.831373 0 0 0 1 0"/>
<feBlend mode="normal" in2="effect5_dropShadow_370_20184" result="effect6_dropShadow_370_20184"/>
<feBlend mode="normal" in="SourceGraphic" in2="effect6_dropShadow_370_20184" result="shape"/>
</filter>
<filter id="filter6_dddddd_370_20184" x="11.5573" y="29.5949" width="5.4846" height="5.48411" filterUnits="userSpaceOnUse" color-interpolation-filters="sRGB">
<feFlood flood-opacity="0" result="BackgroundImageFix"/>
<feColorMatrix in="SourceAlpha" type="matrix" values="0 0 0 0 0 0 0 0 0 0 0 0 0 0 0 0 0 0 127 0" result="hardAlpha"/>
<feOffset/>
<feGaussianBlur stdDeviation="0.0297487"/>
<feColorMatrix type="matrix" values="0 0 0 0 0.0745098 0 0 0 0 0.627451 0 0 0 0 0.831373 0 0 0 1 0"/>
<feBlend mode="normal" in2="BackgroundImageFix" result="effect1_dropShadow_370_20184"/>
<feColorMatrix in="SourceAlpha" type="matrix" values="0 0 0 0 0 0 0 0 0 0 0 0 0 0 0 0 0 0 127 0" result="hardAlpha"/>
<feOffset/>
<feGaussianBlur stdDeviation="0.0594975"/>
<feColorMatrix type="matrix" values="0 0 0 0 0.0745098 0 0 0 0 0.627451 0 0 0 0 0.831373 0 0 0 1 0"/>
<feBlend mode="normal" in2="effect1_dropShadow_370_20184" result="effect2_dropShadow_370_20184"/>
<feColorMatrix in="SourceAlpha" type="matrix" values="0 0 0 0 0 0 0 0 0 0 0 0 0 0 0 0 0 0 127 0" result="hardAlpha"/>
<feOffset/>
<feGaussianBlur stdDeviation="0.208241"/>
<feColorMatrix type="matrix" values="0 0 0 0 0.0745098 0 0 0 0 0.627451 0 0 0 0 0.831373 0 0 0 1 0"/>
<feBlend mode="normal" in2="effect2_dropShadow_370_20184" result="effect3_dropShadow_370_20184"/>
<feColorMatrix in="SourceAlpha" type="matrix" values="0 0 0 0 0 0 0 0 0 0 0 0 0 0 0 0 0 0 127 0" result="hardAlpha"/>
<feOffset/>
<feGaussianBlur stdDeviation="0.416482"/>
<feColorMatrix type="matrix" values="0 0 0 0 0.0745098 0 0 0 0 0.627451 0 0 0 0 0.831373 0 0 0 1 0"/>
<feBlend mode="normal" in2="effect3_dropShadow_370_20184" result="effect4_dropShadow_370_20184"/>
<feColorMatrix in="SourceAlpha" type="matrix" values="0 0 0 0 0 0 0 0 0 0 0 0 0 0 0 0 0 0 127 0" result="hardAlpha"/>
<feOffset/>
<feGaussianBlur stdDeviation="0.71397"/>
<feColorMatrix type="matrix" values="0 0 0 0 0.0745098 0 0 0 0 0.627451 0 0 0 0 0.831373 0 0 0 1 0"/>
<feBlend mode="normal" in2="effect4_dropShadow_370_20184" result="effect5_dropShadow_370_20184"/>
<feColorMatrix in="SourceAlpha" type="matrix" values="0 0 0 0 0 0 0 0 0 0 0 0 0 0 0 0 0 0 127 0" result="hardAlpha"/>
<feOffset/>
<feGaussianBlur stdDeviation="1.24945"/>
<feColorMatrix type="matrix" values="0 0 0 0 0.0745098 0 0 0 0 0.627451 0 0 0 0 0.831373 0 0 0 1 0"/>
<feBlend mode="normal" in2="effect5_dropShadow_370_20184" result="effect6_dropShadow_370_20184"/>
<feBlend mode="normal" in="SourceGraphic" in2="effect6_dropShadow_370_20184" result="shape"/>
</filter>
<filter id="filter7_dddddd_370_20184" x="13.9909" y="32.2716" width="5.32225" height="5.32201" filterUnits="userSpaceOnUse" color-interpolation-filters="sRGB">
<feFlood flood-opacity="0" result="BackgroundImageFix"/>
<feColorMatrix in="SourceAlpha" type="matrix" values="0 0 0 0 0 0 0 0 0 0 0 0 0 0 0 0 0 0 127 0" result="hardAlpha"/>
<feOffset/>
<feGaussianBlur stdDeviation="0.0297487"/>
<feColorMatrix type="matrix" values="0 0 0 0 0.0745098 0 0 0 0 0.627451 0 0 0 0 0.831373 0 0 0 1 0"/>
<feBlend mode="normal" in2="BackgroundImageFix" result="effect1_dropShadow_370_20184"/>
<feColorMatrix in="SourceAlpha" type="matrix" values="0 0 0 0 0 0 0 0 0 0 0 0 0 0 0 0 0 0 127 0" result="hardAlpha"/>
<feOffset/>
<feGaussianBlur stdDeviation="0.0594975"/>
<feColorMatrix type="matrix" values="0 0 0 0 0.0745098 0 0 0 0 0.627451 0 0 0 0 0.831373 0 0 0 1 0"/>
<feBlend mode="normal" in2="effect1_dropShadow_370_20184" result="effect2_dropShadow_370_20184"/>
<feColorMatrix in="SourceAlpha" type="matrix" values="0 0 0 0 0 0 0 0 0 0 0 0 0 0 0 0 0 0 127 0" result="hardAlpha"/>
<feOffset/>
<feGaussianBlur stdDeviation="0.208241"/>
<feColorMatrix type="matrix" values="0 0 0 0 0.0745098 0 0 0 0 0.627451 0 0 0 0 0.831373 0 0 0 1 0"/>
<feBlend mode="normal" in2="effect2_dropShadow_370_20184" result="effect3_dropShadow_370_20184"/>
<feColorMatrix in="SourceAlpha" type="matrix" values="0 0 0 0 0 0 0 0 0 0 0 0 0 0 0 0 0 0 127 0" result="hardAlpha"/>
<feOffset/>
<feGaussianBlur stdDeviation="0.416482"/>
<feColorMatrix type="matrix" values="0 0 0 0 0.0745098 0 0 0 0 0.627451 0 0 0 0 0.831373 0 0 0 1 0"/>
<feBlend mode="normal" in2="effect3_dropShadow_370_20184" result="effect4_dropShadow_370_20184"/>
<feColorMatrix in="SourceAlpha" type="matrix" values="0 0 0 0 0 0 0 0 0 0 0 0 0 0 0 0 0 0 127 0" result="hardAlpha"/>
<feOffset/>
<feGaussianBlur stdDeviation="0.71397"/>
<feColorMatrix type="matrix" values="0 0 0 0 0.0745098 0 0 0 0 0.627451 0 0 0 0 0.831373 0 0 0 1 0"/>
<feBlend mode="normal" in2="effect4_dropShadow_370_20184" result="effect5_dropShadow_370_20184"/>
<feColorMatrix in="SourceAlpha" type="matrix" values="0 0 0 0 0 0 0 0 0 0 0 0 0 0 0 0 0 0 127 0" result="hardAlpha"/>
<feOffset/>
<feGaussianBlur stdDeviation="1.24945"/>
<feColorMatrix type="matrix" values="0 0 0 0 0.0745098 0 0 0 0 0.627451 0 0 0 0 0.831373 0 0 0 1 0"/>
<feBlend mode="normal" in2="effect5_dropShadow_370_20184" result="effect6_dropShadow_370_20184"/>
<feBlend mode="normal" in="SourceGraphic" in2="effect6_dropShadow_370_20184" result="shape"/>
</filter>
<filter id="filter8_dddddd_370_20184" x="17.0299" y="33.9757" width="5.24119" height="5.24095" filterUnits="userSpaceOnUse" color-interpolation-filters="sRGB">
<feFlood flood-opacity="0" result="BackgroundImageFix"/>
<feColorMatrix in="SourceAlpha" type="matrix" values="0 0 0 0 0 0 0 0 0 0 0 0 0 0 0 0 0 0 127 0" result="hardAlpha"/>
<feOffset/>
<feGaussianBlur stdDeviation="0.0297487"/>
<feColorMatrix type="matrix" values="0 0 0 0 0.0745098 0 0 0 0 0.627451 0 0 0 0 0.831373 0 0 0 1 0"/>
<feBlend mode="normal" in2="BackgroundImageFix" result="effect1_dropShadow_370_20184"/>
<feColorMatrix in="SourceAlpha" type="matrix" values="0 0 0 0 0 0 0 0 0 0 0 0 0 0 0 0 0 0 127 0" result="hardAlpha"/>
<feOffset/>
<feGaussianBlur stdDeviation="0.0594975"/>
<feColorMatrix type="matrix" values="0 0 0 0 0.0745098 0 0 0 0 0.627451 0 0 0 0 0.831373 0 0 0 1 0"/>
<feBlend mode="normal" in2="effect1_dropShadow_370_20184" result="effect2_dropShadow_370_20184"/>
<feColorMatrix in="SourceAlpha" type="matrix" values="0 0 0 0 0 0 0 0 0 0 0 0 0 0 0 0 0 0 127 0" result="hardAlpha"/>
<feOffset/>
<feGaussianBlur stdDeviation="0.208241"/>
<feColorMatrix type="matrix" values="0 0 0 0 0.0745098 0 0 0 0 0.627451 0 0 0 0 0.831373 0 0 0 1 0"/>
<feBlend mode="normal" in2="effect2_dropShadow_370_20184" result="effect3_dropShadow_370_20184"/>
<feColorMatrix in="SourceAlpha" type="matrix" values="0 0 0 0 0 0 0 0 0 0 0 0 0 0 0 0 0 0 127 0" result="hardAlpha"/>
<feOffset/>
<feGaussianBlur stdDeviation="0.416482"/>
<feColorMatrix type="matrix" values="0 0 0 0 0.0745098 0 0 0 0 0.627451 0 0 0 0 0.831373 0 0 0 1 0"/>
<feBlend mode="normal" in2="effect3_dropShadow_370_20184" result="effect4_dropShadow_370_20184"/>
<feColorMatrix in="SourceAlpha" type="matrix" values="0 0 0 0 0 0 0 0 0 0 0 0 0 0 0 0 0 0 127 0" result="hardAlpha"/>
<feOffset/>
<feGaussianBlur stdDeviation="0.71397"/>
<feColorMatrix type="matrix" values="0 0 0 0 0.0745098 0 0 0 0 0.627451 0 0 0 0 0.831373 0 0 0 1 0"/>
<feBlend mode="normal" in2="effect4_dropShadow_370_20184" result="effect5_dropShadow_370_20184"/>
<feColorMatrix in="SourceAlpha" type="matrix" values="0 0 0 0 0 0 0 0 0 0 0 0 0 0 0 0 0 0 127 0" result="hardAlpha"/>
<feOffset/>
<feGaussianBlur stdDeviation="1.24945"/>
<feColorMatrix type="matrix" values="0 0 0 0 0.0745098 0 0 0 0 0.627451 0 0 0 0 0.831373 0 0 0 1 0"/>
<feBlend mode="normal" in2="effect5_dropShadow_370_20184" result="effect6_dropShadow_370_20184"/>
<feBlend mode="normal" in="SourceGraphic" in2="effect6_dropShadow_370_20184" result="shape"/>
</filter>
<filter id="filter9_dddddd_370_20184" x="12.693" y="16.6144" width="5.97118" height="5.97142" filterUnits="userSpaceOnUse" color-interpolation-filters="sRGB">
<feFlood flood-opacity="0" result="BackgroundImageFix"/>
<feColorMatrix in="SourceAlpha" type="matrix" values="0 0 0 0 0 0 0 0 0 0 0 0 0 0 0 0 0 0 127 0" result="hardAlpha"/>
<feOffset/>
<feGaussianBlur stdDeviation="0.0297487"/>
<feColorMatrix type="matrix" values="0 0 0 0 0.0745098 0 0 0 0 0.627451 0 0 0 0 0.831373 0 0 0 1 0"/>
<feBlend mode="normal" in2="BackgroundImageFix" result="effect1_dropShadow_370_20184"/>
<feColorMatrix in="SourceAlpha" type="matrix" values="0 0 0 0 0 0 0 0 0 0 0 0 0 0 0 0 0 0 127 0" result="hardAlpha"/>
<feOffset/>
<feGaussianBlur stdDeviation="0.0594975"/>
<feColorMatrix type="matrix" values="0 0 0 0 0.0745098 0 0 0 0 0.627451 0 0 0 0 0.831373 0 0 0 1 0"/>
<feBlend mode="normal" in2="effect1_dropShadow_370_20184" result="effect2_dropShadow_370_20184"/>
<feColorMatrix in="SourceAlpha" type="matrix" values="0 0 0 0 0 0 0 0 0 0 0 0 0 0 0 0 0 0 127 0" result="hardAlpha"/>
<feOffset/>
<feGaussianBlur stdDeviation="0.208241"/>
<feColorMatrix type="matrix" values="0 0 0 0 0.0745098 0 0 0 0 0.627451 0 0 0 0 0.831373 0 0 0 1 0"/>
<feBlend mode="normal" in2="effect2_dropShadow_370_20184" result="effect3_dropShadow_370_20184"/>
<feColorMatrix in="SourceAlpha" type="matrix" values="0 0 0 0 0 0 0 0 0 0 0 0 0 0 0 0 0 0 127 0" result="hardAlpha"/>
<feOffset/>
<feGaussianBlur stdDeviation="0.416482"/>
<feColorMatrix type="matrix" values="0 0 0 0 0.0745098 0 0 0 0 0.627451 0 0 0 0 0.831373 0 0 0 1 0"/>
<feBlend mode="normal" in2="effect3_dropShadow_370_20184" result="effect4_dropShadow_370_20184"/>
<feColorMatrix in="SourceAlpha" type="matrix" values="0 0 0 0 0 0 0 0 0 0 0 0 0 0 0 0 0 0 127 0" result="hardAlpha"/>
<feOffset/>
<feGaussianBlur stdDeviation="0.71397"/>
<feColorMatrix type="matrix" values="0 0 0 0 0.0745098 0 0 0 0 0.627451 0 0 0 0 0.831373 0 0 0 1 0"/>
<feBlend mode="normal" in2="effect4_dropShadow_370_20184" result="effect5_dropShadow_370_20184"/>
<feColorMatrix in="SourceAlpha" type="matrix" values="0 0 0 0 0 0 0 0 0 0 0 0 0 0 0 0 0 0 127 0" result="hardAlpha"/>
<feOffset/>
<feGaussianBlur stdDeviation="1.24945"/>
<feColorMatrix type="matrix" values="0 0 0 0 0.0745098 0 0 0 0 0.627451 0 0 0 0 0.831373 0 0 0 1 0"/>
<feBlend mode="normal" in2="effect5_dropShadow_370_20184" result="effect6_dropShadow_370_20184"/>
<feBlend mode="normal" in="SourceGraphic" in2="effect6_dropShadow_370_20184" result="shape"/>
</filter>
<linearGradient id="paint0_linear_370_20184" x1="6.44828" y1="28.1339" x2="22.6962" y2="40.8952" gradientUnits="userSpaceOnUse">
<stop stop-color="#122832"/>
<stop offset="1" stop-color="#4C849C"/>
</linearGradient>
<linearGradient id="paint1_linear_370_20184" x1="30.0375" y1="9.94694" x2="21.1951" y2="41.0575" gradientUnits="userSpaceOnUse">
<stop stop-color="#23B3E0"/>
<stop offset="0.394651" stop-color="#0B7090"/>
<stop offset="1" stop-color="#12151E"/>
</linearGradient>
<linearGradient id="paint2_linear_370_20184" x1="30.0375" y1="9.94694" x2="21.1951" y2="41.0575" gradientUnits="userSpaceOnUse">
<stop stop-color="#23B3E0"/>
<stop offset="0.394651" stop-color="#0B7090"/>
<stop offset="1" stop-color="#12151E"/>
</linearGradient>
<linearGradient id="paint3_linear_370_20184" x1="28.5691" y1="13.8178" x2="27.7832" y2="17.4494" gradientUnits="userSpaceOnUse">
<stop stop-color="#23B3E0"/>
<stop offset="0.394651" stop-color="#0B7090"/>
<stop offset="1" stop-color="#161924"/>
</linearGradient>
</defs>
</svg>
