<svg width="47" height="54" viewBox="0 0 47 54" fill="none" xmlns="http://www.w3.org/2000/svg">
<g filter="url(#filter0_d_401_6667)">
<path fill-rule="evenodd" clip-rule="evenodd" d="M17.7111 38.7311C19.365 40.0739 21.4233 40.8394 23.6063 41.1842C23.7035 42.2218 24.6793 43.0001 25.7111 43.0001C27.4032 43.0001 27.6385 41.6035 27.692 40.5239C35.4381 38.7452 39.0859 32.7191 38.8227 26.2817C38.8227 20.4936 35.4879 17.0567 33.4866 15.726C33.3747 15.6261 33.2628 15.5274 33.1508 15.4299C33.161 15.4542 33.171 15.4785 33.1808 15.5027C33.5099 15.9933 33.7024 16.587 33.7024 17.2265C33.7024 18.9139 32.362 20.2818 30.7084 20.2818C29.0549 20.2818 27.7144 18.9139 27.7144 17.2265C27.7144 16.9033 27.7636 16.5918 27.8547 16.2994C27.8733 16.1859 27.8946 16.0675 27.9188 15.9439C28.2784 14.1089 28.4787 11.6618 23.9579 9.55921L23.9302 9.53944C23.9377 9.54509 23.9452 9.55087 23.9527 9.55681L23.8952 9.53028C24.2882 9.93134 24.3079 10.4795 24.3079 10.8922C24.3079 11.3049 23.9169 12.053 23.6889 12.4192C23.4608 12.7853 23.1333 13.1805 22.6639 13.7693C22.5808 13.867 22.4932 13.9662 22.4009 14.0669C21.1248 15.4589 19.8488 16.6768 18.7115 17.7624L18.7105 17.7633C18.1506 18.2978 17.6244 18.8001 17.1483 19.2753C14.6022 21.6027 13 24.9837 13 28.7465L13 28.77C13 32.45 14.5311 35.7651 16.9787 38.088L16.9952 38.0753C17.2418 38.3084 17.4978 38.5314 17.7624 38.7437C17.7548 38.7472 17.7471 38.7506 17.7394 38.754L17.7361 38.7513L17.7111 38.7311ZM26.0413 42.2572C26.8043 42.2572 27.2243 40.9779 27.0317 40.4001C26.7428 39.5334 26.0405 39.3794 25.2774 39.3794C24.5143 39.3794 24.3492 40.3506 24.3492 41.1017C24.3492 41.8527 25.2782 42.2572 26.0413 42.2572Z" fill="url(#paint0_linear_401_6667)"/>
</g>
<g filter="url(#filter1_f_401_6667)">
<path fill-rule="evenodd" clip-rule="evenodd" d="M18.4935 38.0491C20.0743 39.3532 21.9821 40.2494 24.0688 40.5842C24.1616 41.5921 25.0093 42.3812 26.0413 42.3813C27.1025 42.3813 27.9688 41.5468 28.0199 40.4983C35.4238 38.7709 39.2399 32.6113 38.9883 26.3596C38.9883 20.7385 35.4852 16.9999 33.5723 15.7076C33.4654 15.6106 33.3584 15.5147 33.2513 15.42C33.2611 15.4437 33.2706 15.4672 33.28 15.4907C33.5946 15.9672 33.7786 16.5437 33.7786 17.1648C33.7786 18.8035 32.4973 20.132 30.9168 20.132C29.3363 20.132 28.0551 18.8035 28.0551 17.1648C28.0551 16.8509 28.1021 16.5484 28.1892 16.2645C28.2069 16.1542 28.2272 16.0392 28.2504 15.9192C28.5941 14.1371 28.3006 11.6003 23.9794 9.55837L23.9529 9.53917C23.9601 9.54466 23.9672 9.55027 23.9744 9.55604L23.9195 9.53028C24.2951 9.91977 24.4923 10.3298 24.5433 10.7622C24.5718 11.1549 24.502 11.6288 24.2675 12.1806C24.036 12.6941 23.6763 13.2355 23.2276 13.8074C23.1481 13.9022 23.0644 13.9986 22.9762 14.0963C21.7565 15.4482 20.5368 16.631 19.4497 17.6853L19.4488 17.6861C18.9136 18.2052 18.4106 18.693 17.9556 19.1545C15.5219 21.4148 13.9905 24.6982 13.9905 28.3525L13.9905 28.3754C13.9905 31.9492 15.454 35.1686 17.7935 37.4245L17.8092 37.4122C18.045 37.6386 18.2896 37.8552 18.5425 38.0614L18.5206 38.0714L18.5174 38.0688L18.4935 38.0491ZM26.0412 41.7208C26.7706 41.7208 27.3619 41.1295 27.3619 40.4001C27.3619 39.6708 26.7706 39.0795 26.0412 39.0795C25.3119 39.0795 24.7206 39.6708 24.7206 40.4001C24.7206 41.1295 25.3119 41.7208 26.0412 41.7208Z" fill="url(#paint1_linear_401_6667)" fill-opacity="0.62"/>
<path fill-rule="evenodd" clip-rule="evenodd" d="M18.4935 38.0491C20.0743 39.3532 21.9821 40.2494 24.0688 40.5842C24.1616 41.5921 25.0093 42.3812 26.0413 42.3813C27.1025 42.3813 27.9688 41.5468 28.0199 40.4983C35.4238 38.7709 39.2399 32.6113 38.9883 26.3596C38.9883 20.7385 35.4852 16.9999 33.5723 15.7076C33.4654 15.6106 33.3584 15.5147 33.2513 15.42C33.2611 15.4437 33.2706 15.4672 33.28 15.4907C33.5946 15.9672 33.7786 16.5437 33.7786 17.1648C33.7786 18.8035 32.4973 20.132 30.9168 20.132C29.3363 20.132 28.0551 18.8035 28.0551 17.1648C28.0551 16.8509 28.1021 16.5484 28.1892 16.2645C28.2069 16.1542 28.2272 16.0392 28.2504 15.9192C28.5941 14.1371 28.3006 11.6003 23.9794 9.55837L23.9529 9.53917C23.9601 9.54466 23.9672 9.55027 23.9744 9.55604L23.9195 9.53028C24.2951 9.91977 24.4923 10.3298 24.5433 10.7622C24.5718 11.1549 24.502 11.6288 24.2675 12.1806C24.036 12.6941 23.6763 13.2355 23.2276 13.8074C23.1481 13.9022 23.0644 13.9986 22.9762 14.0963C21.7565 15.4482 20.5368 16.631 19.4497 17.6853L19.4488 17.6861C18.9136 18.2052 18.4106 18.693 17.9556 19.1545C15.5219 21.4148 13.9905 24.6982 13.9905 28.3525L13.9905 28.3754C13.9905 31.9492 15.454 35.1686 17.7935 37.4245L17.8092 37.4122C18.045 37.6386 18.2896 37.8552 18.5425 38.0614L18.5206 38.0714L18.5174 38.0688L18.4935 38.0491ZM26.0412 41.7208C26.7706 41.7208 27.3619 41.1295 27.3619 40.4001C27.3619 39.6708 26.7706 39.0795 26.0412 39.0795C25.3119 39.0795 24.7206 39.6708 24.7206 40.4001C24.7206 41.1295 25.3119 41.7208 26.0412 41.7208Z" fill="url(#paint2_linear_401_6667)"/>
</g>
<path fill-rule="evenodd" clip-rule="evenodd" d="M18.4935 38.0491C20.0743 39.3531 21.9821 40.2494 24.0688 40.5842C24.1616 41.592 25.0093 42.3812 26.0413 42.3813C27.1025 42.3813 27.9688 41.5468 28.0199 40.4983C35.4238 38.7709 39.2399 32.6113 38.9883 26.3596C38.9883 20.7385 35.4852 16.9999 33.5723 15.7076C33.4654 15.6105 33.3584 15.5147 33.2513 15.42C33.2611 15.4437 33.2706 15.4672 33.28 15.4907C33.5946 15.9672 33.7786 16.5437 33.7786 17.1648C33.7786 18.8035 32.4973 20.132 30.9168 20.132C29.3363 20.132 28.0551 18.8035 28.0551 17.1648C28.0551 16.8509 28.1021 16.5484 28.1892 16.2645C28.2069 16.1542 28.2272 16.0392 28.2504 15.9192C28.5941 14.1371 28.3006 11.6003 23.9793 9.55837L23.9529 9.53917C23.9601 9.54466 23.9672 9.55027 23.9744 9.55604L23.9195 9.53028C24.2951 9.91977 24.4923 10.3298 24.5433 10.7622C24.5718 11.1549 24.502 11.6288 24.2675 12.1806C24.036 12.6941 23.6763 13.2355 23.2276 13.8073C23.1481 13.9022 23.0644 13.9986 22.9762 14.0963C21.7565 15.4482 20.5368 16.631 19.4497 17.6853L19.4488 17.6861C18.9136 18.2052 18.4106 18.693 17.9556 19.1545C15.5219 21.4148 13.9905 24.6982 13.9905 28.3525L13.9905 28.3754C13.9905 31.9492 15.454 35.1686 17.7935 37.4245L17.8092 37.4122C18.045 37.6386 18.2896 37.8552 18.5425 38.0614L18.5206 38.0714L18.5174 38.0688L18.4935 38.0491ZM26.0412 41.7208C26.7706 41.7208 27.3619 41.1295 27.3619 40.4001C27.3619 39.6708 26.7706 39.0795 26.0412 39.0795C25.3119 39.0795 24.7206 39.6708 24.7206 40.4001C24.7206 41.1295 25.3119 41.7208 26.0412 41.7208Z" fill="url(#paint3_linear_401_6667)"/>
<circle cx="30.8698" cy="17.0818" r="1.85714" fill="#D9D9D9"/>
<circle cx="30.8698" cy="17.0818" r="1.85714" fill="url(#paint4_linear_401_6667)"/>
<g filter="url(#filter2_di_401_6667)">
<path fill-rule="evenodd" clip-rule="evenodd" d="M29.2021 36.5243C28.1523 37.0582 26.9641 37.3592 25.7056 37.3592C21.4399 37.3592 17.9819 33.9012 17.9819 29.6355C17.9819 27.9852 18.4995 26.4558 19.3812 25.2008L19.3747 25.2039C19.4991 25.0174 19.6523 24.8241 19.8296 24.6226C20.0007 24.4222 20.1819 24.2306 20.3724 24.0487C20.7127 23.7082 21.1014 23.3446 21.5205 22.9526C22.2252 22.2935 23.0158 21.5541 23.8064 20.709C23.8635 20.6479 23.9178 20.5876 23.9693 20.5283C24.2601 20.1708 24.4933 19.8324 24.6434 19.5114C24.7954 19.1664 24.8406 18.8701 24.8222 18.6247C24.7891 18.3543 24.6613 18.098 24.4178 17.8545L24.4534 17.8706L24.4394 17.8601L24.4566 17.8721C27.2576 19.1486 27.4478 20.7345 27.225 21.8485C27.21 21.9236 27.1968 21.9954 27.1854 22.0644C27.1289 22.2419 27.0984 22.431 27.0984 22.6272C27.0984 23.6517 27.9289 24.4822 28.9534 24.4822C29.9778 24.4822 30.8083 23.6517 30.8083 22.6272C30.8083 22.239 30.689 21.8786 30.4851 21.5807C30.4791 21.566 30.4729 21.5513 30.4666 21.5365C30.8627 21.8743 31.2581 22.2366 31.6455 22.624C32.6343 23.6128 33.328 24.7849 33.7266 26.031C33.1981 26.4937 32.5061 26.7741 31.7485 26.7741C31.3767 26.7741 30.9294 26.6621 30.671 26.5973L30.6438 26.5905C30.3905 26.5272 30.1373 26.4639 29.8457 26.36C29.161 26.1242 28.6034 25.7794 28.0716 25.4506C27.2749 24.958 26.5363 24.5013 25.5157 24.5013C23.7431 24.5013 22.7512 25.9785 22.4769 26.7171L22.7934 27.0337L22.7934 26.9736C22.9902 26.5868 23.2327 26.2339 23.5084 25.9547C23.675 25.7653 23.8796 25.6101 24.1102 25.5011C24.3409 25.3922 24.5661 25.3333 24.8469 25.3251C24.8651 25.3246 24.8833 25.3243 24.9016 25.3243C25.1294 25.3243 25.3492 25.3614 25.5493 25.4405C25.8749 25.5694 25.9589 25.6409 26.2245 25.8789C26.5536 26.2137 26.7566 26.6728 26.7566 27.1793C26.7566 27.573 26.6146 27.9852 26.3387 28.5531C25.6026 30.0686 22.8384 33.4978 20.447 35.292C20.5986 35.433 20.7558 35.5679 20.9183 35.6964C24.645 34.0553 27.5692 30.185 28.8195 28.4202C29.0154 28.1437 29.1747 27.9189 29.2953 27.7625C29.4963 27.439 29.855 27.2236 30.2639 27.2236C30.6051 27.2236 30.9113 27.3736 31.1201 27.6112C31.1907 27.6799 31.2823 27.7659 31.4035 27.8567C31.7411 28.1099 32.7963 28.2112 33.8092 26.3373L33.8211 26.3477C34.6116 29.198 33.8864 32.3806 31.6456 34.6214C31.0047 35.4209 30.16 36.0642 29.2021 36.5243ZM28.238 31.5286C28.0787 31.5286 27.927 31.5613 27.7893 31.6204C28.2144 31.1588 28.604 30.7024 28.9541 30.2712C29.9818 30.5195 31.7261 31.539 31.038 32.7088C30.4049 33.785 28.9822 35.2097 28.4423 35.621L28.1151 35.4166C29.0694 34.1347 29.242 33.4576 29.3044 33.2127L29.3143 33.1747C29.3692 32.9676 29.3776 32.8336 29.3776 32.6682C29.3776 32.0388 28.8674 31.5286 28.238 31.5286Z" fill="#161925"/>
</g>
<g filter="url(#filter3_di_401_6667)">
<circle cx="34.7079" cy="21.4984" r="1.65079" fill="#161925"/>
<circle cx="36.2762" cy="25.7904" r="1.48571" fill="#161925"/>
<circle cx="36.1936" cy="30.3304" r="1.15555" fill="#161925"/>
<circle cx="34.3777" cy="34.2917" r="0.907936" fill="#161925"/>
<circle cx="31.6952" cy="37.1401" r="0.701587" fill="#161925"/>
<circle cx="28.8888" cy="38.6254" r="0.536507" fill="#161925"/>
</g>
<g filter="url(#filter4_dddddd_401_6667)">
<circle r="0.349269" transform="matrix(-1.8677e-07 1 1 1.8677e-07 16.4032 25.7272)" fill="#FFED52"/>
</g>
<g filter="url(#filter5_dddddd_401_6667)">
<circle r="0.247619" transform="matrix(-1.8677e-07 1 1 1.8677e-07 16.0096 30.2476)" fill="#FFED52"/>
</g>
<g filter="url(#filter6_dddddd_401_6667)">
<circle r="0.247619" transform="matrix(-1.8677e-07 1 1 1.8677e-07 17.3746 34.2916)" fill="#FFED52"/>
</g>
<g filter="url(#filter7_dddddd_401_6667)">
<circle r="0.165079" transform="matrix(-1.8677e-07 1 1 1.8677e-07 19.7684 36.9336)" fill="#FFED52"/>
</g>
<g filter="url(#filter8_dddddd_401_6667)">
<circle r="0.123809" transform="matrix(-1.8677e-07 1 1 1.8677e-07 22.8191 38.6258)" fill="#FFED52"/>
</g>
<g filter="url(#filter9_dddddd_401_6667)">
<circle r="0.495238" transform="matrix(-1.8677e-07 1 1 1.8677e-07 18.7777 21.3341)" fill="#FFED52"/>
</g>
<defs>
<filter id="filter0_d_401_6667" x="0.72197" y="0.0482303" width="45.7725" height="53.4063" filterUnits="userSpaceOnUse" color-interpolation-filters="sRGB">
<feFlood flood-opacity="0" result="BackgroundImageFix"/>
<feColorMatrix in="SourceAlpha" type="matrix" values="0 0 0 0 0 0 0 0 0 0 0 0 0 0 0 0 0 0 127 0" result="hardAlpha"/>
<feOffset dx="-2.30973" dy="0.486259"/>
<feGaussianBlur stdDeviation="4.98415"/>
<feComposite in2="hardAlpha" operator="out"/>
<feColorMatrix type="matrix" values="0 0 0 0 0.0941176 0 0 0 0 0.580392 0 0 0 0 0.737255 0 0 0 0.14 0"/>
<feBlend mode="normal" in2="BackgroundImageFix" result="effect1_dropShadow_401_6667"/>
<feBlend mode="normal" in="SourceGraphic" in2="effect1_dropShadow_401_6667" result="shape"/>
</filter>
<filter id="filter1_f_401_6667" x="13.018" y="8.55776" width="26.9546" height="34.7956" filterUnits="userSpaceOnUse" color-interpolation-filters="sRGB">
<feFlood flood-opacity="0" result="BackgroundImageFix"/>
<feBlend mode="normal" in="SourceGraphic" in2="BackgroundImageFix" result="shape"/>
<feGaussianBlur stdDeviation="0.486259" result="effect1_foregroundBlur_401_6667"/>
</filter>
<filter id="filter2_di_401_6667" x="17.4957" y="17.8545" width="16.6347" height="19.9911" filterUnits="userSpaceOnUse" color-interpolation-filters="sRGB">
<feFlood flood-opacity="0" result="BackgroundImageFix"/>
<feColorMatrix in="SourceAlpha" type="matrix" values="0 0 0 0 0 0 0 0 0 0 0 0 0 0 0 0 0 0 127 0" result="hardAlpha"/>
<feOffset dx="-0.243129" dy="0.243129"/>
<feGaussianBlur stdDeviation="0.121565"/>
<feComposite in2="hardAlpha" operator="out"/>
<feColorMatrix type="matrix" values="0 0 0 0 0 0 0 0 0 0 0 0 0 0 0 0 0 0 0.3 0"/>
<feBlend mode="normal" in2="BackgroundImageFix" result="effect1_dropShadow_401_6667"/>
<feBlend mode="normal" in="SourceGraphic" in2="effect1_dropShadow_401_6667" result="shape"/>
<feColorMatrix in="SourceAlpha" type="matrix" values="0 0 0 0 0 0 0 0 0 0 0 0 0 0 0 0 0 0 127 0" result="hardAlpha"/>
<feOffset dx="-0.486259" dy="0.486259"/>
<feGaussianBlur stdDeviation="0.425476"/>
<feComposite in2="hardAlpha" operator="arithmetic" k2="-1" k3="1"/>
<feColorMatrix type="matrix" values="0 0 0 0 0.166667 0 0 0 0 0.189744 0 0 0 0 0.266667 0 0 0 1 0"/>
<feBlend mode="normal" in2="shape" result="effect2_innerShadow_401_6667"/>
</filter>
<filter id="filter3_di_401_6667" x="27.866" y="19.8477" width="9.89593" height="19.8007" filterUnits="userSpaceOnUse" color-interpolation-filters="sRGB">
<feFlood flood-opacity="0" result="BackgroundImageFix"/>
<feColorMatrix in="SourceAlpha" type="matrix" values="0 0 0 0 0 0 0 0 0 0 0 0 0 0 0 0 0 0 127 0" result="hardAlpha"/>
<feOffset dx="-0.243129" dy="0.243129"/>
<feGaussianBlur stdDeviation="0.121565"/>
<feComposite in2="hardAlpha" operator="out"/>
<feColorMatrix type="matrix" values="0 0 0 0 0 0 0 0 0 0 0 0 0 0 0 0 0 0 0.3 0"/>
<feBlend mode="normal" in2="BackgroundImageFix" result="effect1_dropShadow_401_6667"/>
<feBlend mode="normal" in="SourceGraphic" in2="effect1_dropShadow_401_6667" result="shape"/>
<feColorMatrix in="SourceAlpha" type="matrix" values="0 0 0 0 0 0 0 0 0 0 0 0 0 0 0 0 0 0 127 0" result="hardAlpha"/>
<feOffset dx="-0.243129" dy="0.243129"/>
<feGaussianBlur stdDeviation="0.303912"/>
<feComposite in2="hardAlpha" operator="arithmetic" k2="-1" k3="1"/>
<feColorMatrix type="matrix" values="0 0 0 0 0.35 0 0 0 0 0.366667 0 0 0 0 0.466667 0 0 0 1 0"/>
<feBlend mode="normal" in2="shape" result="effect2_innerShadow_401_6667"/>
</filter>
<filter id="filter4_dddddd_401_6667" x="12.6185" y="21.9425" width="7.56943" height="7.56918" filterUnits="userSpaceOnUse" color-interpolation-filters="sRGB">
<feFlood flood-opacity="0" result="BackgroundImageFix"/>
<feColorMatrix in="SourceAlpha" type="matrix" values="0 0 0 0 0 0 0 0 0 0 0 0 0 0 0 0 0 0 127 0" result="hardAlpha"/>
<feOffset/>
<feGaussianBlur stdDeviation="0.0408985"/>
<feColorMatrix type="matrix" values="0 0 0 0 1 0 0 0 0 0.929412 0 0 0 0 0.321569 0 0 0 1 0"/>
<feBlend mode="normal" in2="BackgroundImageFix" result="effect1_dropShadow_401_6667"/>
<feColorMatrix in="SourceAlpha" type="matrix" values="0 0 0 0 0 0 0 0 0 0 0 0 0 0 0 0 0 0 127 0" result="hardAlpha"/>
<feOffset/>
<feGaussianBlur stdDeviation="0.0817969"/>
<feColorMatrix type="matrix" values="0 0 0 0 1 0 0 0 0 0.929412 0 0 0 0 0.321569 0 0 0 1 0"/>
<feBlend mode="normal" in2="effect1_dropShadow_401_6667" result="effect2_dropShadow_401_6667"/>
<feColorMatrix in="SourceAlpha" type="matrix" values="0 0 0 0 0 0 0 0 0 0 0 0 0 0 0 0 0 0 127 0" result="hardAlpha"/>
<feOffset/>
<feGaussianBlur stdDeviation="0.286289"/>
<feColorMatrix type="matrix" values="0 0 0 0 1 0 0 0 0 0.929412 0 0 0 0 0.321569 0 0 0 1 0"/>
<feBlend mode="normal" in2="effect2_dropShadow_401_6667" result="effect3_dropShadow_401_6667"/>
<feColorMatrix in="SourceAlpha" type="matrix" values="0 0 0 0 0 0 0 0 0 0 0 0 0 0 0 0 0 0 127 0" result="hardAlpha"/>
<feOffset/>
<feGaussianBlur stdDeviation="0.572579"/>
<feColorMatrix type="matrix" values="0 0 0 0 1 0 0 0 0 0.929412 0 0 0 0 0.321569 0 0 0 1 0"/>
<feBlend mode="normal" in2="effect3_dropShadow_401_6667" result="effect4_dropShadow_401_6667"/>
<feColorMatrix in="SourceAlpha" type="matrix" values="0 0 0 0 0 0 0 0 0 0 0 0 0 0 0 0 0 0 127 0" result="hardAlpha"/>
<feOffset/>
<feGaussianBlur stdDeviation="0.981563"/>
<feColorMatrix type="matrix" values="0 0 0 0 1 0 0 0 0 0.929412 0 0 0 0 0.321569 0 0 0 1 0"/>
<feBlend mode="normal" in2="effect4_dropShadow_401_6667" result="effect5_dropShadow_401_6667"/>
<feColorMatrix in="SourceAlpha" type="matrix" values="0 0 0 0 0 0 0 0 0 0 0 0 0 0 0 0 0 0 127 0" result="hardAlpha"/>
<feOffset/>
<feGaussianBlur stdDeviation="1.71774"/>
<feColorMatrix type="matrix" values="0 0 0 0 1 0 0 0 0 0.929412 0 0 0 0 0.321569 0 0 0 1 0"/>
<feBlend mode="normal" in2="effect5_dropShadow_401_6667" result="effect6_dropShadow_401_6667"/>
<feBlend mode="normal" in="SourceGraphic" in2="effect6_dropShadow_401_6667" result="shape"/>
</filter>
<filter id="filter5_dddddd_401_6667" x="13.3263" y="27.5644" width="5.36636" height="5.36636" filterUnits="userSpaceOnUse" color-interpolation-filters="sRGB">
<feFlood flood-opacity="0" result="BackgroundImageFix"/>
<feColorMatrix in="SourceAlpha" type="matrix" values="0 0 0 0 0 0 0 0 0 0 0 0 0 0 0 0 0 0 127 0" result="hardAlpha"/>
<feOffset/>
<feGaussianBlur stdDeviation="0.0289955"/>
<feColorMatrix type="matrix" values="0 0 0 0 1 0 0 0 0 0.929412 0 0 0 0 0.321569 0 0 0 1 0"/>
<feBlend mode="normal" in2="BackgroundImageFix" result="effect1_dropShadow_401_6667"/>
<feColorMatrix in="SourceAlpha" type="matrix" values="0 0 0 0 0 0 0 0 0 0 0 0 0 0 0 0 0 0 127 0" result="hardAlpha"/>
<feOffset/>
<feGaussianBlur stdDeviation="0.057991"/>
<feColorMatrix type="matrix" values="0 0 0 0 1 0 0 0 0 0.929412 0 0 0 0 0.321569 0 0 0 1 0"/>
<feBlend mode="normal" in2="effect1_dropShadow_401_6667" result="effect2_dropShadow_401_6667"/>
<feColorMatrix in="SourceAlpha" type="matrix" values="0 0 0 0 0 0 0 0 0 0 0 0 0 0 0 0 0 0 127 0" result="hardAlpha"/>
<feOffset/>
<feGaussianBlur stdDeviation="0.202968"/>
<feColorMatrix type="matrix" values="0 0 0 0 1 0 0 0 0 0.929412 0 0 0 0 0.321569 0 0 0 1 0"/>
<feBlend mode="normal" in2="effect2_dropShadow_401_6667" result="effect3_dropShadow_401_6667"/>
<feColorMatrix in="SourceAlpha" type="matrix" values="0 0 0 0 0 0 0 0 0 0 0 0 0 0 0 0 0 0 127 0" result="hardAlpha"/>
<feOffset/>
<feGaussianBlur stdDeviation="0.405937"/>
<feColorMatrix type="matrix" values="0 0 0 0 1 0 0 0 0 0.929412 0 0 0 0 0.321569 0 0 0 1 0"/>
<feBlend mode="normal" in2="effect3_dropShadow_401_6667" result="effect4_dropShadow_401_6667"/>
<feColorMatrix in="SourceAlpha" type="matrix" values="0 0 0 0 0 0 0 0 0 0 0 0 0 0 0 0 0 0 127 0" result="hardAlpha"/>
<feOffset/>
<feGaussianBlur stdDeviation="0.695892"/>
<feColorMatrix type="matrix" values="0 0 0 0 1 0 0 0 0 0.929412 0 0 0 0 0.321569 0 0 0 1 0"/>
<feBlend mode="normal" in2="effect4_dropShadow_401_6667" result="effect5_dropShadow_401_6667"/>
<feColorMatrix in="SourceAlpha" type="matrix" values="0 0 0 0 0 0 0 0 0 0 0 0 0 0 0 0 0 0 127 0" result="hardAlpha"/>
<feOffset/>
<feGaussianBlur stdDeviation="1.21781"/>
<feColorMatrix type="matrix" values="0 0 0 0 1 0 0 0 0 0.929412 0 0 0 0 0.321569 0 0 0 1 0"/>
<feBlend mode="normal" in2="effect5_dropShadow_401_6667" result="effect6_dropShadow_401_6667"/>
<feBlend mode="normal" in="SourceGraphic" in2="effect6_dropShadow_401_6667" result="shape"/>
</filter>
<filter id="filter6_dddddd_401_6667" x="14.6913" y="31.6083" width="5.36636" height="5.36636" filterUnits="userSpaceOnUse" color-interpolation-filters="sRGB">
<feFlood flood-opacity="0" result="BackgroundImageFix"/>
<feColorMatrix in="SourceAlpha" type="matrix" values="0 0 0 0 0 0 0 0 0 0 0 0 0 0 0 0 0 0 127 0" result="hardAlpha"/>
<feOffset/>
<feGaussianBlur stdDeviation="0.0289955"/>
<feColorMatrix type="matrix" values="0 0 0 0 1 0 0 0 0 0.929412 0 0 0 0 0.321569 0 0 0 1 0"/>
<feBlend mode="normal" in2="BackgroundImageFix" result="effect1_dropShadow_401_6667"/>
<feColorMatrix in="SourceAlpha" type="matrix" values="0 0 0 0 0 0 0 0 0 0 0 0 0 0 0 0 0 0 127 0" result="hardAlpha"/>
<feOffset/>
<feGaussianBlur stdDeviation="0.057991"/>
<feColorMatrix type="matrix" values="0 0 0 0 1 0 0 0 0 0.929412 0 0 0 0 0.321569 0 0 0 1 0"/>
<feBlend mode="normal" in2="effect1_dropShadow_401_6667" result="effect2_dropShadow_401_6667"/>
<feColorMatrix in="SourceAlpha" type="matrix" values="0 0 0 0 0 0 0 0 0 0 0 0 0 0 0 0 0 0 127 0" result="hardAlpha"/>
<feOffset/>
<feGaussianBlur stdDeviation="0.202968"/>
<feColorMatrix type="matrix" values="0 0 0 0 1 0 0 0 0 0.929412 0 0 0 0 0.321569 0 0 0 1 0"/>
<feBlend mode="normal" in2="effect2_dropShadow_401_6667" result="effect3_dropShadow_401_6667"/>
<feColorMatrix in="SourceAlpha" type="matrix" values="0 0 0 0 0 0 0 0 0 0 0 0 0 0 0 0 0 0 127 0" result="hardAlpha"/>
<feOffset/>
<feGaussianBlur stdDeviation="0.405937"/>
<feColorMatrix type="matrix" values="0 0 0 0 1 0 0 0 0 0.929412 0 0 0 0 0.321569 0 0 0 1 0"/>
<feBlend mode="normal" in2="effect3_dropShadow_401_6667" result="effect4_dropShadow_401_6667"/>
<feColorMatrix in="SourceAlpha" type="matrix" values="0 0 0 0 0 0 0 0 0 0 0 0 0 0 0 0 0 0 127 0" result="hardAlpha"/>
<feOffset/>
<feGaussianBlur stdDeviation="0.695892"/>
<feColorMatrix type="matrix" values="0 0 0 0 1 0 0 0 0 0.929412 0 0 0 0 0.321569 0 0 0 1 0"/>
<feBlend mode="normal" in2="effect4_dropShadow_401_6667" result="effect5_dropShadow_401_6667"/>
<feColorMatrix in="SourceAlpha" type="matrix" values="0 0 0 0 0 0 0 0 0 0 0 0 0 0 0 0 0 0 127 0" result="hardAlpha"/>
<feOffset/>
<feGaussianBlur stdDeviation="1.21781"/>
<feColorMatrix type="matrix" values="0 0 0 0 1 0 0 0 0 0.929412 0 0 0 0 0.321569 0 0 0 1 0"/>
<feBlend mode="normal" in2="effect5_dropShadow_401_6667" result="effect6_dropShadow_401_6667"/>
<feBlend mode="normal" in="SourceGraphic" in2="effect6_dropShadow_401_6667" result="shape"/>
</filter>
<filter id="filter7_dddddd_401_6667" x="17.9795" y="35.1448" width="3.57757" height="3.57757" filterUnits="userSpaceOnUse" color-interpolation-filters="sRGB">
<feFlood flood-opacity="0" result="BackgroundImageFix"/>
<feColorMatrix in="SourceAlpha" type="matrix" values="0 0 0 0 0 0 0 0 0 0 0 0 0 0 0 0 0 0 127 0" result="hardAlpha"/>
<feOffset/>
<feGaussianBlur stdDeviation="0.0193303"/>
<feColorMatrix type="matrix" values="0 0 0 0 1 0 0 0 0 0.929412 0 0 0 0 0.321569 0 0 0 1 0"/>
<feBlend mode="normal" in2="BackgroundImageFix" result="effect1_dropShadow_401_6667"/>
<feColorMatrix in="SourceAlpha" type="matrix" values="0 0 0 0 0 0 0 0 0 0 0 0 0 0 0 0 0 0 127 0" result="hardAlpha"/>
<feOffset/>
<feGaussianBlur stdDeviation="0.0386606"/>
<feColorMatrix type="matrix" values="0 0 0 0 1 0 0 0 0 0.929412 0 0 0 0 0.321569 0 0 0 1 0"/>
<feBlend mode="normal" in2="effect1_dropShadow_401_6667" result="effect2_dropShadow_401_6667"/>
<feColorMatrix in="SourceAlpha" type="matrix" values="0 0 0 0 0 0 0 0 0 0 0 0 0 0 0 0 0 0 127 0" result="hardAlpha"/>
<feOffset/>
<feGaussianBlur stdDeviation="0.135312"/>
<feColorMatrix type="matrix" values="0 0 0 0 1 0 0 0 0 0.929412 0 0 0 0 0.321569 0 0 0 1 0"/>
<feBlend mode="normal" in2="effect2_dropShadow_401_6667" result="effect3_dropShadow_401_6667"/>
<feColorMatrix in="SourceAlpha" type="matrix" values="0 0 0 0 0 0 0 0 0 0 0 0 0 0 0 0 0 0 127 0" result="hardAlpha"/>
<feOffset/>
<feGaussianBlur stdDeviation="0.270625"/>
<feColorMatrix type="matrix" values="0 0 0 0 1 0 0 0 0 0.929412 0 0 0 0 0.321569 0 0 0 1 0"/>
<feBlend mode="normal" in2="effect3_dropShadow_401_6667" result="effect4_dropShadow_401_6667"/>
<feColorMatrix in="SourceAlpha" type="matrix" values="0 0 0 0 0 0 0 0 0 0 0 0 0 0 0 0 0 0 127 0" result="hardAlpha"/>
<feOffset/>
<feGaussianBlur stdDeviation="0.463928"/>
<feColorMatrix type="matrix" values="0 0 0 0 1 0 0 0 0 0.929412 0 0 0 0 0.321569 0 0 0 1 0"/>
<feBlend mode="normal" in2="effect4_dropShadow_401_6667" result="effect5_dropShadow_401_6667"/>
<feColorMatrix in="SourceAlpha" type="matrix" values="0 0 0 0 0 0 0 0 0 0 0 0 0 0 0 0 0 0 127 0" result="hardAlpha"/>
<feOffset/>
<feGaussianBlur stdDeviation="0.811874"/>
<feColorMatrix type="matrix" values="0 0 0 0 1 0 0 0 0 0.929412 0 0 0 0 0.321569 0 0 0 1 0"/>
<feBlend mode="normal" in2="effect5_dropShadow_401_6667" result="effect6_dropShadow_401_6667"/>
<feBlend mode="normal" in="SourceGraphic" in2="effect6_dropShadow_401_6667" result="shape"/>
</filter>
<filter id="filter8_dddddd_401_6667" x="21.4775" y="37.2841" width="2.68318" height="2.68367" filterUnits="userSpaceOnUse" color-interpolation-filters="sRGB">
<feFlood flood-opacity="0" result="BackgroundImageFix"/>
<feColorMatrix in="SourceAlpha" type="matrix" values="0 0 0 0 0 0 0 0 0 0 0 0 0 0 0 0 0 0 127 0" result="hardAlpha"/>
<feOffset/>
<feGaussianBlur stdDeviation="0.0144977"/>
<feColorMatrix type="matrix" values="0 0 0 0 1 0 0 0 0 0.929412 0 0 0 0 0.321569 0 0 0 1 0"/>
<feBlend mode="normal" in2="BackgroundImageFix" result="effect1_dropShadow_401_6667"/>
<feColorMatrix in="SourceAlpha" type="matrix" values="0 0 0 0 0 0 0 0 0 0 0 0 0 0 0 0 0 0 127 0" result="hardAlpha"/>
<feOffset/>
<feGaussianBlur stdDeviation="0.0289955"/>
<feColorMatrix type="matrix" values="0 0 0 0 1 0 0 0 0 0.929412 0 0 0 0 0.321569 0 0 0 1 0"/>
<feBlend mode="normal" in2="effect1_dropShadow_401_6667" result="effect2_dropShadow_401_6667"/>
<feColorMatrix in="SourceAlpha" type="matrix" values="0 0 0 0 0 0 0 0 0 0 0 0 0 0 0 0 0 0 127 0" result="hardAlpha"/>
<feOffset/>
<feGaussianBlur stdDeviation="0.101484"/>
<feColorMatrix type="matrix" values="0 0 0 0 1 0 0 0 0 0.929412 0 0 0 0 0.321569 0 0 0 1 0"/>
<feBlend mode="normal" in2="effect2_dropShadow_401_6667" result="effect3_dropShadow_401_6667"/>
<feColorMatrix in="SourceAlpha" type="matrix" values="0 0 0 0 0 0 0 0 0 0 0 0 0 0 0 0 0 0 127 0" result="hardAlpha"/>
<feOffset/>
<feGaussianBlur stdDeviation="0.202968"/>
<feColorMatrix type="matrix" values="0 0 0 0 1 0 0 0 0 0.929412 0 0 0 0 0.321569 0 0 0 1 0"/>
<feBlend mode="normal" in2="effect3_dropShadow_401_6667" result="effect4_dropShadow_401_6667"/>
<feColorMatrix in="SourceAlpha" type="matrix" values="0 0 0 0 0 0 0 0 0 0 0 0 0 0 0 0 0 0 127 0" result="hardAlpha"/>
<feOffset/>
<feGaussianBlur stdDeviation="0.347946"/>
<feColorMatrix type="matrix" values="0 0 0 0 1 0 0 0 0 0.929412 0 0 0 0 0.321569 0 0 0 1 0"/>
<feBlend mode="normal" in2="effect4_dropShadow_401_6667" result="effect5_dropShadow_401_6667"/>
<feColorMatrix in="SourceAlpha" type="matrix" values="0 0 0 0 0 0 0 0 0 0 0 0 0 0 0 0 0 0 127 0" result="hardAlpha"/>
<feOffset/>
<feGaussianBlur stdDeviation="0.608905"/>
<feColorMatrix type="matrix" values="0 0 0 0 1 0 0 0 0 0.929412 0 0 0 0 0.321569 0 0 0 1 0"/>
<feBlend mode="normal" in2="effect5_dropShadow_401_6667" result="effect6_dropShadow_401_6667"/>
<feBlend mode="normal" in="SourceGraphic" in2="effect6_dropShadow_401_6667" result="shape"/>
</filter>
<filter id="filter9_dddddd_401_6667" x="13.4112" y="15.9676" width="10.733" height="10.7327" filterUnits="userSpaceOnUse" color-interpolation-filters="sRGB">
<feFlood flood-opacity="0" result="BackgroundImageFix"/>
<feColorMatrix in="SourceAlpha" type="matrix" values="0 0 0 0 0 0 0 0 0 0 0 0 0 0 0 0 0 0 127 0" result="hardAlpha"/>
<feOffset/>
<feGaussianBlur stdDeviation="0.057991"/>
<feColorMatrix type="matrix" values="0 0 0 0 1 0 0 0 0 0.929412 0 0 0 0 0.321569 0 0 0 1 0"/>
<feBlend mode="normal" in2="BackgroundImageFix" result="effect1_dropShadow_401_6667"/>
<feColorMatrix in="SourceAlpha" type="matrix" values="0 0 0 0 0 0 0 0 0 0 0 0 0 0 0 0 0 0 127 0" result="hardAlpha"/>
<feOffset/>
<feGaussianBlur stdDeviation="0.115982"/>
<feColorMatrix type="matrix" values="0 0 0 0 1 0 0 0 0 0.929412 0 0 0 0 0.321569 0 0 0 1 0"/>
<feBlend mode="normal" in2="effect1_dropShadow_401_6667" result="effect2_dropShadow_401_6667"/>
<feColorMatrix in="SourceAlpha" type="matrix" values="0 0 0 0 0 0 0 0 0 0 0 0 0 0 0 0 0 0 127 0" result="hardAlpha"/>
<feOffset/>
<feGaussianBlur stdDeviation="0.405937"/>
<feColorMatrix type="matrix" values="0 0 0 0 1 0 0 0 0 0.929412 0 0 0 0 0.321569 0 0 0 1 0"/>
<feBlend mode="normal" in2="effect2_dropShadow_401_6667" result="effect3_dropShadow_401_6667"/>
<feColorMatrix in="SourceAlpha" type="matrix" values="0 0 0 0 0 0 0 0 0 0 0 0 0 0 0 0 0 0 127 0" result="hardAlpha"/>
<feOffset/>
<feGaussianBlur stdDeviation="0.811874"/>
<feColorMatrix type="matrix" values="0 0 0 0 1 0 0 0 0 0.929412 0 0 0 0 0.321569 0 0 0 1 0"/>
<feBlend mode="normal" in2="effect3_dropShadow_401_6667" result="effect4_dropShadow_401_6667"/>
<feColorMatrix in="SourceAlpha" type="matrix" values="0 0 0 0 0 0 0 0 0 0 0 0 0 0 0 0 0 0 127 0" result="hardAlpha"/>
<feOffset/>
<feGaussianBlur stdDeviation="1.39178"/>
<feColorMatrix type="matrix" values="0 0 0 0 1 0 0 0 0 0.929412 0 0 0 0 0.321569 0 0 0 1 0"/>
<feBlend mode="normal" in2="effect4_dropShadow_401_6667" result="effect5_dropShadow_401_6667"/>
<feColorMatrix in="SourceAlpha" type="matrix" values="0 0 0 0 0 0 0 0 0 0 0 0 0 0 0 0 0 0 127 0" result="hardAlpha"/>
<feOffset/>
<feGaussianBlur stdDeviation="2.43562"/>
<feColorMatrix type="matrix" values="0 0 0 0 1 0 0 0 0 0.929412 0 0 0 0 0.321569 0 0 0 1 0"/>
<feBlend mode="normal" in2="effect5_dropShadow_401_6667" result="effect6_dropShadow_401_6667"/>
<feBlend mode="normal" in="SourceGraphic" in2="effect6_dropShadow_401_6667" result="shape"/>
</filter>
<linearGradient id="paint0_linear_401_6667" x1="25.918" y1="9.53028" x2="25.918" y2="43.0001" gradientUnits="userSpaceOnUse">
<stop stop-color="#122832"/>
<stop offset="1" stop-color="#903B2C"/>
</linearGradient>
<linearGradient id="paint1_linear_401_6667" x1="33.3873" y1="11.5112" x2="24.3904" y2="43.1654" gradientUnits="userSpaceOnUse">
<stop stop-color="#23B3E0"/>
<stop offset="0.394651" stop-color="#0B7090"/>
<stop offset="1" stop-color="#12151E"/>
</linearGradient>
<linearGradient id="paint2_linear_401_6667" x1="33.3873" y1="11.5112" x2="24.3904" y2="43.1654" gradientUnits="userSpaceOnUse">
<stop stop-color="#12151E"/>
<stop offset="0.439723" stop-color="#FF5D39"/>
<stop offset="1" stop-color="#FFED52"/>
</linearGradient>
<linearGradient id="paint3_linear_401_6667" x1="33.3873" y1="11.5112" x2="24.3904" y2="43.1654" gradientUnits="userSpaceOnUse">
<stop stop-color="#12151E"/>
<stop offset="0.439723" stop-color="#FF5D39"/>
<stop offset="1" stop-color="#FFED52"/>
</linearGradient>
<linearGradient id="paint4_linear_401_6667" x1="31.8934" y1="15.4486" x2="31.0939" y2="19.1437" gradientUnits="userSpaceOnUse">
<stop stop-color="#542722"/>
<stop offset="0.645833" stop-color="#FF5D39"/>
<stop offset="1" stop-color="#FFBA52"/>
</linearGradient>
</defs>
</svg>
