<svg width="44" height="35" viewBox="0 0 44 35" fill="none" xmlns="http://www.w3.org/2000/svg">
<g filter="url(#filter0_d_401_1582)">
<path fill-rule="evenodd" clip-rule="evenodd" d="M3.58909 26.4248C4.57989 27.1799 6.58612 28.1969 10.3969 29.218C15.7072 30.6408 19.2044 31.0494 19.6546 30.8497C19.6508 30.8439 19.647 30.838 19.6432 30.8321C19.6364 30.8361 19.6295 30.84 19.6227 30.8438C18.5512 29.1873 15.3046 27.3485 11.2247 26.2553C8.30754 25.4737 4.7707 25.2566 3.68141 25.5006C3.17946 25.6482 3.04543 26.0071 3.62657 26.4449C3.61392 26.4382 3.60143 26.4316 3.58909 26.4248Z" fill="url(#paint0_linear_401_1582)"/>
<g style="mix-blend-mode:multiply" filter="url(#filter1_f_401_1582)">
<path fill-rule="evenodd" clip-rule="evenodd" d="M3.49418 26.3355C5.44805 25.8235 8.16512 26.1096 11.0863 26.8923C14.2319 27.7352 17.723 29.2324 19.5851 30.8709C19.6132 30.8649 19.6364 30.8578 19.6546 30.8497L19.6432 30.8321L19.6227 30.8438C18.5512 29.1873 15.3046 27.3485 11.2247 26.2553C8.30754 25.4737 4.7707 25.2566 3.68141 25.5006C3.22194 25.6357 3.07075 25.9479 3.49418 26.3355Z" fill="#461409"/>
</g>
<path d="M6.18673 11.3455C6.50596 10.0294 7.97714 9.33956 9.24498 9.44C9.34734 9.44811 9.4519 9.45593 9.5596 9.46399C10.7858 9.55575 12.419 9.67796 15.85 10.5973C19.5825 11.5974 21.3019 12.2136 22.6325 13.0421C23.9631 13.8706 24.7572 14.9576 24.35 16.2772L22.3678 22.9185L20.8681 29.2111C20.7021 29.9393 20.227 30.5447 19.6097 30.8938C18.5387 29.2356 15.299 27.3692 11.2192 26.276C8.30199 25.4943 4.76491 25.2781 3.67544 25.5228C3.17341 25.6707 3.03924 26.0301 3.62029 26.4682C2.29977 25.7755 2.67386 24.5766 2.73583 24.2517C2.79781 23.9268 4.53847 18.1411 4.53847 18.1411L6.18673 11.3455Z" fill="#EAEBF0"/>
<mask id="mask0_401_1582" style="mask-type:alpha" maskUnits="userSpaceOnUse" x="2" y="9" width="23" height="22">
<path d="M6.18673 11.3455C6.50596 10.0294 7.97714 9.33956 9.24498 9.44C9.34734 9.44811 9.4519 9.45593 9.5596 9.46399C10.7858 9.55575 12.419 9.67796 15.85 10.5973C19.5825 11.5974 21.3019 12.2136 22.6325 13.0421C23.9631 13.8706 24.7572 14.9576 24.35 16.2772L22.3678 22.9185L20.8681 29.2111C20.7021 29.9393 20.227 30.5447 19.6097 30.8938C18.5387 29.2356 15.299 27.3692 11.2192 26.276C8.30199 25.4943 4.76491 25.2781 3.67544 25.5228C3.17341 25.6707 3.03924 26.0301 3.62029 26.4682C2.29977 25.7755 2.67386 24.5766 2.73583 24.2517C2.79781 23.9268 4.53847 18.1411 4.53847 18.1411L6.18673 11.3455Z" fill="#1C202D"/>
</mask>
<g mask="url(#mask0_401_1582)">
<g opacity="0.3">
<path d="M16.2744 2.09808C15.7575 1.18659 15.1769 0.213846 14.5586 -0.82172L14.5579 -0.822763L14.5579 -0.822759L14.5575 -0.823451C13.3018 -2.92657 11.8924 -5.28743 10.5536 -7.91284C10.4565 -8.10304 10.366 -8.28918 10.2814 -8.47126L10.2814 -8.47125L10.2808 -8.4725C9.81928 -9.55579 9.48295 -10.5564 9.33583 -11.4608L9.33571 -11.4617C9.19993 -12.4283 9.28972 -13.2055 9.50118 -13.8147L9.50114 -13.8147L9.50185 -13.8165C9.74437 -14.4254 10.1731 -14.951 10.8252 -15.3855C7.09517 -14.6892 4.85435 -13.396 3.51846 -11.9189C2.16987 -10.4278 1.73921 -8.74447 1.63467 -7.2855C1.62064 -7.08877 1.60432 -6.90101 1.58586 -6.72158C1.60274 -6.23794 1.54888 -5.74211 1.41654 -5.24824C0.724324 -2.66484 -1.855 -1.1085 -4.34679 -1.77618C-6.83859 -2.44385 -8.29408 -5.08131 -7.60186 -7.66471C-7.34944 -8.60678 -6.84622 -9.4122 -6.18783 -10.023C-7.30243 -9.46097 -8.42913 -8.84364 -9.55367 -8.16595C-12.5925 -6.33444 -15.0446 -3.85514 -16.8363 -1.00097C-16.8363 -1.00085 -16.8364 -1.00074 -16.8365 -1.00063L-17.2759 -0.27019C-17.276 -0.270067 -17.2761 -0.269945 -17.2761 -0.269823C-21.0824 6.33661 -21.4668 14.7476 -17.5788 21.7839L-17.5786 21.7838L-17.5768 21.7881C-16.5717 24.1949 -14.9719 26.3439 -12.9771 28.1093L-12.9764 28.1099C-10.8102 30.1183 -8.15591 31.6345 -5.13126 32.445C-0.808702 33.6032 3.57988 33.135 7.42444 31.4079L7.39432 31.383L7.45631 31.3551C7.93651 31.139 8.40822 30.9032 8.87013 30.6485L8.90228 30.6307L8.92166 30.6564C13.4946 28.1107 17.1075 23.7061 18.5983 18.1425L18.6031 18.1245L18.6079 18.1067C20.1357 12.4046 19.1222 6.64213 16.2754 2.09967L16.2753 2.0997L16.2744 2.09808Z" stroke="#FF5D39" stroke-width="0.0846774"/>
<path d="M6.36252 32.8456L6.33649 32.8239L6.39781 32.7959C6.81408 32.6064 7.22303 32.3997 7.62353 32.1764L7.65589 32.1584L7.67262 32.1807C11.6355 29.9494 14.7712 26.099 16.0727 21.2417L16.0769 21.2259L16.0811 21.2104C17.4155 16.2303 16.5491 11.2026 14.0928 7.2436L14.0927 7.24362L14.0918 7.242C13.6459 6.44727 13.1448 5.59919 12.6113 4.69626L12.6108 4.69546L12.6108 4.69546L12.6104 4.69475C11.5268 2.86104 10.3104 0.802446 9.15573 -1.4873C9.07203 -1.65323 8.99389 -1.81562 8.92097 -1.97449L8.92095 -1.97448L8.92042 -1.97573C8.52266 -2.92081 8.23311 -3.79417 8.10736 -4.58415L8.10723 -4.58505C7.99143 -5.42939 8.07078 -6.10892 8.25545 -6.64203L8.25541 -6.64205L8.2561 -6.6438C8.46509 -7.17012 8.83143 -7.62567 9.38574 -8.00396C6.16993 -7.38776 4.23489 -6.25738 3.07891 -4.96973C1.90874 -3.66628 1.5326 -2.19695 1.43922 -0.923652C1.42668 -0.751936 1.41219 -0.588034 1.39585 -0.431386C1.40949 -0.00878105 1.36179 0.4246 1.24609 0.85641C0.64074 3.11561 -1.59936 4.48185 -3.76014 3.90287C-5.92091 3.32389 -7.17769 1.02067 -6.57234 -1.23853C-6.35519 -2.04898 -5.92784 -2.74439 -5.36929 -3.27631C-6.32446 -2.78825 -7.28982 -2.25298 -8.25346 -1.66629C-10.8887 -0.0617033 -13.0171 2.10716 -14.5744 4.60197C-14.5745 4.60208 -14.5745 4.60218 -14.5746 4.60229L-14.9566 5.24072C-14.9567 5.24078 -14.9567 5.24085 -14.9567 5.24091C-18.2662 11.015 -18.6157 18.3574 -15.2625 24.4914L-15.2622 24.4912L-15.2605 24.4955C-14.3949 26.5941 -13.0138 28.4665 -11.2899 30.0033L-11.2892 30.004C-9.41735 31.7526 -7.12191 33.0706 -4.50439 33.772C-0.766517 34.7736 3.0317 34.3577 6.36252 32.8456Z" stroke="url(#paint1_linear_401_1582)" stroke-width="0.0846774"/>
<path d="M6.21646 33.425L6.19361 33.4063L6.25697 33.3785C6.61917 33.2194 6.97489 33.0456 7.32314 32.8577L7.35486 32.8406L7.36959 32.8597C10.8136 30.981 13.5259 27.7185 14.6327 23.588L14.6363 23.5745L14.6398 23.5613C15.775 19.3249 14.9892 15.0347 12.8219 11.6457L12.8219 11.6457L12.821 11.6441C12.427 10.9639 11.9845 10.2379 11.5133 9.46479L11.5129 9.46419L11.5129 9.46419L11.5125 9.4635C10.5555 7.89354 9.48114 6.13087 8.45933 4.17142C8.38523 4.02938 8.31602 3.89038 8.25137 3.75442L8.25135 3.75442L8.2508 3.75318C7.89783 2.94477 7.63962 2.19781 7.52502 1.52271L7.52488 1.52179C7.41864 0.80022 7.48394 0.220066 7.64247 -0.234682L7.64243 -0.234697L7.64315 -0.236495C7.82006 -0.677931 8.1305 -1.05964 8.59941 -1.37632C5.81211 -0.868769 4.1382 0.0806488 3.14094 1.16689C2.12829 2.2699 1.80893 3.5188 1.73499 4.60289C1.72507 4.74912 1.71339 4.8887 1.70006 5.0221C1.71445 5.38308 1.67527 5.75289 1.57665 6.12096C1.06032 8.04793 -0.891174 9.20075 -2.78329 8.69376C-4.67541 8.18677 -5.78896 6.21267 -5.27263 4.2857C-5.09112 3.60827 -4.73228 3.0265 -4.26101 2.57892C-5.08104 2.98492 -5.90931 3.43007 -6.73582 3.91789C-9.02643 5.27002 -10.8713 7.10604 -12.2157 9.22317C-12.2158 9.22329 -12.2158 9.22341 -12.2159 9.22353L-12.5456 9.76542C-12.5456 9.76553 -12.5457 9.76564 -12.5458 9.76575C-15.3999 14.6675 -15.6616 20.9234 -12.6987 26.1714L-12.6985 26.1713L-12.6967 26.1756C-11.9288 27.9692 -10.7125 29.5733 -9.19864 30.8935L-9.19792 30.8941C-7.55378 32.3957 -5.54237 33.5327 -3.2534 34.1461C0.0115368 35.0209 3.32055 34.6906 6.21646 33.425Z" stroke="#161925" stroke-width="0.0846774"/>
<path d="M8.08978 30.8683C6.20355 31.6854 4.05054 31.8962 1.92579 31.3269C0.430348 30.9262 -0.88388 30.1838 -1.95828 29.2038L-1.959 29.2031C-2.94831 28.3414 -3.74314 27.2947 -4.24498 26.1247L-4.24681 26.1205L-4.24704 26.1206C-6.18417 22.6954 -6.01475 18.6132 -4.15107 15.4153C-4.15102 15.4152 -4.15097 15.4151 -4.15092 15.415L-3.93566 15.0615C-3.93559 15.0614 -3.93552 15.0613 -3.93545 15.0611C-3.05755 13.68 -1.85266 12.4824 -0.35639 11.6007C0.156418 11.2985 0.670293 11.0215 1.17963 10.7675C0.901707 11.0523 0.690266 11.4115 0.579483 11.8249C0.240084 13.0916 0.973512 14.39 2.2196 14.7239C3.4657 15.0578 4.75012 14.3001 5.08951 13.0334C5.15425 12.7918 5.17997 12.5491 5.17052 12.312C5.17919 12.225 5.18677 12.134 5.19321 12.0387C5.24118 11.3325 5.44907 10.5201 6.10841 9.80278C6.74989 9.10491 7.82287 8.49253 9.60448 8.15904C9.32652 8.35948 9.13911 8.59788 9.02942 8.87146L9.02869 8.87326L9.02874 8.87327C8.92423 9.17293 8.88158 9.55445 8.95156 10.028L8.9517 10.0289C9.02713 10.4717 9.19677 10.9611 9.42813 11.49L9.42867 11.4912L9.42869 11.4912L8.08978 30.8683ZM8.08978 30.8683L8.0749 30.8562L8.13836 30.8283C8.37494 30.7246 8.60728 30.6113 8.83473 30.4888L8.86642 30.4717L8.87602 30.4842C11.1203 29.2583 12.8868 27.1329 13.6077 24.4425L13.6101 24.4338L13.6124 24.4252C14.353 21.6613 13.8386 18.862 12.4219 16.6504L12.4219 16.6504L12.4209 16.6488C12.1631 16.2044 11.8735 15.73 11.565 15.2247L11.5649 15.2245L11.5649 15.2245L11.5645 15.2238C10.938 14.1978 10.2344 13.0453 9.5651 11.7642L8.08978 30.8683Z" stroke="#FF5D39" stroke-width="0.0846774"/>
<path d="M8.92078 30.4129C7.56491 31.0016 6.02027 31.1543 4.49688 30.7461C3.42013 30.4576 2.47438 29.9212 1.7017 29.212L1.70098 29.2114C0.989381 28.5879 0.418297 27.8301 0.058456 26.9828L0.056638 26.9785L0.0564161 26.9787C-1.33483 24.4973 -1.20741 21.5366 0.139848 19.2147C0.139918 19.2146 0.139987 19.2144 0.140057 19.2143L0.295648 18.9576C0.295718 18.9575 0.29579 18.9574 0.29586 18.9573C0.930332 17.9545 1.80015 17.0844 2.87948 16.443C3.22991 16.2348 3.58101 16.0428 3.92935 15.866C3.74921 16.0663 3.6119 16.3121 3.53701 16.5916C3.28885 17.5178 3.81957 18.4665 4.72515 18.7092C5.63074 18.9519 6.56478 18.3956 6.81294 17.4694C6.8602 17.293 6.87923 17.1158 6.87278 16.9428C6.87912 16.8797 6.8847 16.8137 6.88947 16.7446C6.92491 16.2333 7.07546 15.6457 7.54997 15.1264C8.0057 14.6275 8.76428 14.1872 10.019 13.941C9.83856 14.0817 9.71441 14.2465 9.63945 14.4339L9.63874 14.4357L9.63878 14.4357C9.56228 14.6554 9.53093 14.9345 9.58103 15.2799L9.58116 15.2808L9.58117 15.2808C9.63522 15.6036 9.75739 15.9598 9.92382 16.344L9.92436 16.3452L9.92438 16.3452C9.95493 16.41 9.98764 16.4761 10.0226 16.5437C10.0226 16.5437 10.0226 16.5437 10.0226 16.5437L10.0602 16.5243C10.541 17.4528 11.0467 18.2881 11.4975 19.0325L8.92078 30.4129ZM8.92078 30.4129L8.91014 30.4042L8.97305 30.3763C9.14364 30.3008 9.31118 30.2183 9.47521 30.1292L9.50707 30.1119L9.51394 30.1209M8.92078 30.4129L9.51394 30.1209M9.51394 30.1209C11.1282 29.2282 12.4001 27.6868 12.9222 25.7385L12.9239 25.7321L12.9256 25.7258C13.4629 23.7206 13.096 21.6914 12.0783 20.0896L12.0783 20.0897L12.0773 20.088C11.8919 19.7658 11.6837 19.4218 11.4617 19.0552C11.4617 19.0551 11.4617 19.0551 11.4617 19.0551L11.4617 19.0552L11.4617 19.0552L11.4621 19.0558L11.4979 19.0332L11.4655 19.0528L9.51394 30.1209Z" stroke="#161925" stroke-width="0.0846774"/>
<path d="M8.91398 30.4778C8.02704 30.8853 7.02347 30.9995 6.03865 30.7356C5.33782 30.5478 4.72464 30.1895 4.22589 29.7116L4.22516 29.711L4.22515 29.711C3.76552 29.291 3.39891 28.7781 3.1711 28.2022L3.16941 28.198L3.16918 28.1981C2.28072 26.5129 2.38935 24.4859 3.29113 22.885C3.29119 22.8849 3.29126 22.8848 3.29132 22.8847L3.39535 22.7077C3.39541 22.7076 3.39548 22.7075 3.39555 22.7074C3.81938 22.0157 4.39591 21.413 5.10729 20.965C5.31701 20.833 5.52697 20.7101 5.73552 20.5958C5.63627 20.725 5.55966 20.8771 5.5143 21.0464C5.34229 21.6884 5.68399 22.3435 6.28581 22.5048C6.88763 22.6661 7.51116 22.2695 7.68317 21.6276C7.71591 21.5054 7.73006 21.3828 7.72738 21.2634L8.91398 30.4778ZM8.91398 30.4778L8.90724 30.4721L8.96638 30.4441C9.07854 30.391 9.18878 30.3332 9.29678 30.2708L9.32984 30.2517L9.3342 30.2577C10.3916 29.6325 11.2321 28.5702 11.5892 27.2375L11.5904 27.2331L11.5915 27.2288C11.9604 25.852 11.7378 24.4672 11.0863 23.3808L11.0862 23.3809L11.0853 23.3792C10.9667 23.1601 10.8332 22.9262 10.6909 22.6768L10.6909 22.6768L10.6907 22.6765L10.6905 22.6761C10.4014 22.1696 10.0764 21.6 9.76846 20.966M8.91398 30.4778L9.76846 20.966M9.76846 20.966C9.74602 20.9198 9.72508 20.8745 9.70554 20.8303L9.70552 20.8303L9.70501 20.829C9.59902 20.5665 9.52159 20.3223 9.48874 20.0999L9.48873 20.0999L9.48861 20.099C9.45855 19.861 9.48162 19.6676 9.53434 19.5143L9.5343 19.5143L9.53497 19.5126C9.58056 19.3966 9.65159 19.2927 9.75113 19.2015C8.96116 19.3823 8.47833 19.6835 8.18419 20.0192C7.87082 20.3769 7.76755 20.7784 7.74 21.1278L9.76846 20.966Z" stroke="#FF5D39" stroke-width="0.0846774"/>
</g>
<mask id="mask1_401_1582" style="mask-type:alpha" maskUnits="userSpaceOnUse" x="4" y="15" width="20" height="9">
<path d="M5.08838 15.4424L23.2702 20.3142L22.3223 23.8518L4.14047 18.98L5.08838 15.4424Z" fill="url(#paint2_linear_401_1582)"/>
</mask>
<g mask="url(#mask1_401_1582)">
<path d="M9.45619 18.5456C9.50388 18.3676 9.58101 18.2222 9.68755 18.1093C9.79466 17.9944 9.92086 17.9171 10.0661 17.8775C10.2135 17.8384 10.3689 17.8408 10.5322 17.8845C10.7437 17.9412 10.9038 18.0391 11.0124 18.1782C11.1231 18.3178 11.176 18.4846 11.1712 18.6786L10.8634 18.5961C10.8621 18.4835 10.8267 18.3854 10.7571 18.3017C10.6896 18.2185 10.593 18.1601 10.4674 18.1264C10.3041 18.0826 10.157 18.1038 10.0262 18.19C9.89592 18.274 9.8033 18.4187 9.74831 18.6239C9.69276 18.8312 9.7001 19.0049 9.77031 19.1449C9.84053 19.2849 9.9573 19.3768 10.1206 19.4205C10.2463 19.4542 10.3588 19.4529 10.4583 19.4168C10.5578 19.3806 10.6378 19.3122 10.6984 19.2118L11.0062 19.2942C10.913 19.4578 10.783 19.5745 10.6162 19.6442C10.4499 19.7119 10.2631 19.718 10.0558 19.6624C9.8925 19.6186 9.75678 19.543 9.64868 19.4355C9.54267 19.3285 9.47203 19.1985 9.43674 19.0454C9.40145 18.8923 9.40794 18.7257 9.45619 18.5456Z" fill="#1C202D"/>
<path d="M11.1765 19.0032C11.2237 18.8273 11.3005 18.6829 11.4071 18.5701C11.5142 18.4551 11.6393 18.3776 11.7825 18.3374C11.9278 18.2978 12.0769 18.2984 12.2297 18.3394C12.3805 18.3798 12.5027 18.4473 12.5963 18.542C12.6899 18.6366 12.7507 18.7405 12.7788 18.8535L12.8629 18.5394L13.1519 18.6168L12.6907 20.3381L12.4017 20.2607L12.4876 19.9403C12.4041 20.0257 12.2968 20.0867 12.1658 20.1234C12.0374 20.1586 11.8989 20.1562 11.7502 20.1164C11.5973 20.0754 11.4692 20.0007 11.3659 19.8922C11.2625 19.7837 11.1935 19.6519 11.1588 19.4967C11.124 19.3415 11.13 19.177 11.1765 19.0032ZM12.6332 19.3969C12.6679 19.267 12.6721 19.147 12.6455 19.0366C12.619 18.9262 12.5674 18.8339 12.4909 18.7595C12.4169 18.6836 12.3266 18.6313 12.2198 18.6027C12.113 18.5741 12.0089 18.5731 11.9075 18.5998C11.806 18.6265 11.7162 18.681 11.6381 18.7633C11.5599 18.8456 11.5034 18.9517 11.4687 19.0815C11.4333 19.2134 11.4286 19.3356 11.4546 19.448C11.4811 19.5584 11.5314 19.6515 11.6053 19.7275C11.6798 19.8013 11.7704 19.8525 11.8772 19.8811C11.984 19.9097 12.0881 19.9107 12.1895 19.884C12.2936 19.8558 12.3847 19.8005 12.4629 19.7182C12.5416 19.6338 12.5984 19.5267 12.6332 19.3969Z" fill="#1C202D"/>
<path d="M13.8939 18.1692L13.2711 20.4936L12.9853 20.417L13.6081 18.0926L13.8939 18.1692Z" fill="#1C202D"/>
<path d="M14.3129 20.8031C14.1517 20.7599 14.0149 20.684 13.9026 20.5753C13.7925 20.4672 13.7176 20.3361 13.6781 20.1819C13.6413 20.0261 13.6468 19.8592 13.6945 19.6813C13.7416 19.5054 13.8208 19.3605 13.9321 19.2467C14.0461 19.1313 14.1785 19.0557 14.3295 19.0199C14.4811 18.9819 14.6385 18.9848 14.8019 19.0286C14.9652 19.0724 15.103 19.1486 15.2153 19.2572C15.3282 19.3638 15.4043 19.4941 15.4438 19.6484C15.4854 19.8031 15.4823 19.9695 15.4346 20.1475C15.3869 20.3255 15.3051 20.4719 15.189 20.5867C15.0756 20.7 14.9421 20.7753 14.7884 20.8127C14.6348 20.8501 14.4763 20.8469 14.3129 20.8031ZM14.3803 20.5518C14.4829 20.5793 14.5857 20.581 14.6886 20.557C14.7916 20.533 14.8832 20.4801 14.9634 20.3983C15.0458 20.3172 15.1055 20.2075 15.1425 20.0693C15.1795 19.931 15.1837 19.8065 15.1551 19.6956C15.1265 19.5847 15.0743 19.4944 14.9987 19.4247C14.9237 19.353 14.8349 19.3034 14.7323 19.2759C14.6275 19.2479 14.5248 19.2461 14.4239 19.2707C14.3257 19.2938 14.2375 19.3465 14.1594 19.4288C14.0812 19.5111 14.0236 19.6213 13.9866 19.7595C13.949 19.8998 13.9424 20.0249 13.9669 20.1347C13.9934 20.245 14.0431 20.3358 14.1161 20.407C14.1896 20.476 14.2777 20.5243 14.3803 20.5518Z" fill="#1C202D"/>
<path d="M16.0627 19.6964C16.1393 19.6114 16.231 19.5541 16.3377 19.5243C16.4465 19.4951 16.568 19.4985 16.702 19.5344L16.6229 19.8296L16.5475 19.8094C16.2271 19.7236 16.0203 19.8545 15.9272 20.2021L15.6764 21.1381L15.3905 21.0615L15.8518 19.3402L16.1376 19.4168L16.0627 19.6964Z" fill="#1C202D"/>
<path d="M17.0576 19.3637C17.0032 19.3491 16.9621 19.3179 16.9345 19.2701C16.9069 19.2223 16.9004 19.1712 16.915 19.1168C16.9296 19.0623 16.9608 19.0213 17.0086 18.9937C17.0564 18.9661 17.1075 18.9596 17.162 18.9742C17.2143 18.9882 17.2532 19.0189 17.2787 19.0661C17.3063 19.1139 17.3128 19.165 17.2982 19.2194C17.2837 19.2739 17.2525 19.3149 17.2047 19.3425C17.159 19.3707 17.1099 19.3777 17.0576 19.3637ZM17.1209 19.6803L16.6597 21.4016L16.3738 21.325L16.8351 19.6037L17.1209 19.6803Z" fill="#1C202D"/>
<path d="M18.7772 20.9758C18.7626 21.0303 18.744 21.087 18.7215 21.1461L17.3457 20.7774C17.3107 20.9499 17.3327 21.0983 17.4116 21.2226C17.4931 21.3455 17.6093 21.4271 17.76 21.4675C17.8836 21.5006 17.9938 21.4998 18.0906 21.4652C18.1901 21.429 18.2695 21.3672 18.3288 21.2799L18.6366 21.3624C18.5462 21.5154 18.4179 21.6258 18.2516 21.6935C18.0859 21.7591 17.9005 21.7644 17.6952 21.7094C17.5319 21.6656 17.3951 21.5897 17.2849 21.4816C17.1768 21.3741 17.1041 21.2435 17.0667 21.0898C17.0299 20.9341 17.0353 20.7672 17.083 20.5892C17.1307 20.4112 17.2081 20.2648 17.3152 20.1498C17.4223 20.0349 17.5493 19.9589 17.6961 19.9219C17.8456 19.8834 18.0041 19.8866 18.1716 19.9315C18.3349 19.9753 18.4699 20.0496 18.5765 20.1545C18.683 20.2593 18.753 20.3836 18.7863 20.5272C18.8223 20.6692 18.8193 20.8188 18.7772 20.9758ZM18.4979 20.837C18.5271 20.7282 18.528 20.6285 18.5006 20.5381C18.4738 20.4456 18.4238 20.3683 18.3507 20.3061C18.2802 20.2423 18.1948 20.1969 18.0942 20.17C17.9497 20.1313 17.8139 20.1443 17.6866 20.2089C17.5614 20.2741 17.4695 20.3864 17.4111 20.5458L18.4979 20.837Z" fill="#1C202D"/>
<path d="M15.3646 21.4027C15.3812 21.386 15.402 21.3743 15.4271 21.3677C15.4522 21.361 15.4787 21.3614 15.5065 21.3688C15.5363 21.3768 15.5612 21.3911 15.5812 21.4115C15.6012 21.432 15.6146 21.457 15.6214 21.4864C15.6282 21.5155 15.6272 21.5469 15.6181 21.5808C15.6091 21.6142 15.5943 21.6422 15.5736 21.6647C15.5529 21.6872 15.5285 21.7025 15.5004 21.7105C15.4727 21.7187 15.4442 21.7188 15.4148 21.7109C15.3862 21.7033 15.3627 21.6903 15.3443 21.672C15.3263 21.6537 15.3144 21.6335 15.3087 21.6112L15.2924 21.6723L15.2374 21.6576L15.3572 21.2103L15.4122 21.225L15.3646 21.4027ZM15.5619 21.5657C15.5686 21.5407 15.5694 21.5176 15.5643 21.4964C15.5592 21.4752 15.5492 21.4574 15.5345 21.4431C15.5202 21.4289 15.5027 21.419 15.4822 21.4135C15.462 21.4081 15.442 21.4081 15.4219 21.4136C15.4024 21.4187 15.3849 21.4293 15.3693 21.4455C15.3543 21.4613 15.3435 21.4815 15.3369 21.5061C15.3302 21.5311 15.3294 21.5544 15.3343 21.576C15.3399 21.5974 15.3497 21.6153 15.3639 21.6299C15.3787 21.6442 15.3961 21.6541 15.4163 21.6595C15.4368 21.665 15.4569 21.6652 15.4764 21.6601C15.4964 21.6546 15.5139 21.644 15.529 21.6282C15.5441 21.6119 15.5551 21.5911 15.5619 21.5657Z" fill="#1C202D"/>
<path d="M16.0101 21.5096L15.9214 21.8408L15.8664 21.8261L15.8795 21.7771C15.8645 21.7913 15.8462 21.8006 15.8247 21.8052C15.8037 21.8095 15.7819 21.8086 15.7593 21.8026C15.7335 21.7957 15.7118 21.7842 15.694 21.7683C15.6764 21.7519 15.6644 21.7314 15.658 21.7068C15.6521 21.6823 15.6532 21.6548 15.6614 21.6241L15.7134 21.4301L15.7678 21.4447L15.7177 21.6315C15.709 21.6641 15.7105 21.6915 15.7223 21.7136C15.7342 21.7354 15.7544 21.7501 15.783 21.7578C15.8124 21.7656 15.838 21.7628 15.8598 21.7492C15.8816 21.7356 15.8971 21.7115 15.9064 21.6768L15.9551 21.4949L16.0101 21.5096Z" fill="#1C202D"/>
<path d="M16.1255 21.5982C16.1402 21.5818 16.1578 21.5708 16.1784 21.5651C16.1993 21.5595 16.2227 21.5601 16.2485 21.567L16.2332 21.6238L16.2187 21.6199C16.1571 21.6034 16.1173 21.6286 16.0994 21.6955L16.0511 21.8756L15.9961 21.8609L16.0849 21.5297L16.1399 21.5444L16.1255 21.5982Z" fill="#1C202D"/>
<path d="M16.4552 21.6224C16.4955 21.6332 16.5248 21.6542 16.5432 21.6855C16.5617 21.7164 16.5648 21.7548 16.5525 21.8007L16.5002 21.9959L16.4458 21.9814L16.496 21.794C16.5049 21.761 16.5034 21.7336 16.4915 21.7118C16.4797 21.6897 16.4595 21.6747 16.4309 21.6671C16.4019 21.6593 16.3763 21.6622 16.3541 21.6757C16.3323 21.6893 16.3168 21.7134 16.3075 21.748L16.2585 21.9312L16.2035 21.9164L16.2922 21.5852L16.3472 21.6L16.3346 21.6471C16.35 21.6331 16.3682 21.6239 16.3892 21.6196C16.4106 21.6154 16.4326 21.6164 16.4552 21.6224Z" fill="#1C202D"/>
<path d="M16.9263 21.8037L16.8568 21.7851L16.7802 22.071L16.7252 22.0562L16.8018 21.7703L16.7589 21.7588L16.771 21.7135L16.8139 21.725L16.8203 21.7014C16.8302 21.6644 16.8469 21.6399 16.8704 21.6281C16.8944 21.6159 16.9275 21.6155 16.9698 21.6269L16.9575 21.6728C16.9333 21.6663 16.9149 21.6666 16.9022 21.6735C16.8901 21.6802 16.8811 21.6944 16.8753 21.7162L16.8689 21.7398L16.9385 21.7584L16.9263 21.8037Z" fill="#1C202D"/>
<path d="M17.0387 22.1461C17.0077 22.1377 16.9814 22.1231 16.9597 22.1022C16.9385 22.0814 16.9241 22.0562 16.9165 22.0265C16.9095 21.9966 16.9105 21.9644 16.9197 21.9302C16.9288 21.8963 16.944 21.8685 16.9654 21.8466C16.9873 21.8244 17.0128 21.8098 17.0419 21.8029C17.071 21.7956 17.1013 21.7962 17.1328 21.8046C17.1642 21.813 17.1907 21.8277 17.2123 21.8486C17.234 21.8691 17.2487 21.8942 17.2563 21.9239C17.2643 21.9536 17.2637 21.9857 17.2545 22.0199C17.2453 22.0542 17.2296 22.0823 17.2073 22.1044C17.1854 22.1262 17.1597 22.1407 17.1302 22.1479C17.1006 22.1551 17.0701 22.1545 17.0387 22.1461ZM17.0516 22.0977C17.0714 22.103 17.0912 22.1033 17.111 22.0987C17.1308 22.0941 17.1484 22.0839 17.1639 22.0682C17.1797 22.0525 17.1912 22.0314 17.1983 22.0049C17.2054 21.9783 17.2062 21.9543 17.2007 21.9329C17.1952 21.9116 17.1852 21.8942 17.1706 21.8808C17.1562 21.867 17.1391 21.8575 17.1194 21.8522C17.0992 21.8468 17.0795 21.8465 17.06 21.8512C17.0411 21.8556 17.0242 21.8658 17.0091 21.8816C16.9941 21.8974 16.983 21.9187 16.9759 21.9453C16.9687 21.9723 16.9674 21.9963 16.9721 22.0174C16.9772 22.0387 16.9868 22.0561 17.0008 22.0698C17.015 22.0831 17.0319 22.0924 17.0516 22.0977Z" fill="#1C202D"/>
<path d="M17.3935 21.938C17.4082 21.9216 17.4259 21.9106 17.4464 21.9049C17.4674 21.8992 17.4907 21.8999 17.5165 21.9068L17.5013 21.9636L17.4868 21.9597C17.4251 21.9432 17.3853 21.9684 17.3674 22.0353L17.3192 22.2154L17.2642 22.2006L17.3529 21.8694L17.4079 21.8842L17.3935 21.938Z" fill="#1C202D"/>
<path d="M17.7893 21.862L17.6695 22.3092L17.6145 22.2945L17.7343 21.8473L17.7893 21.862Z" fill="#1C202D"/>
<path d="M17.8767 21.9521C17.8662 21.9493 17.8583 21.9433 17.853 21.9341C17.8477 21.9249 17.8464 21.9151 17.8492 21.9046C17.852 21.8941 17.858 21.8862 17.8672 21.8809C17.8764 21.8756 17.8863 21.8744 17.8968 21.8772C17.9068 21.8799 17.9143 21.8858 17.9192 21.8949C17.9245 21.9041 17.9258 21.9139 17.923 21.9244C17.9202 21.9348 17.9142 21.9427 17.905 21.948C17.8962 21.9535 17.8867 21.9548 17.8767 21.9521ZM17.8889 22.013L17.8001 22.3442L17.7451 22.3295L17.8339 21.9983L17.8889 22.013Z" fill="#1C202D"/>
<path d="M18.0871 22.1147L18.0176 22.0961L17.941 22.382L17.886 22.3673L17.9626 22.0814L17.9197 22.0699L17.9318 22.0245L17.9747 22.036L17.981 22.0125C17.991 21.9754 18.0077 21.9509 18.0312 21.9391C18.0551 21.927 18.0883 21.9266 18.1306 21.9379L18.1183 21.9838C18.0941 21.9773 18.0757 21.9776 18.063 21.9846C18.0509 21.9912 18.0419 22.0055 18.036 22.0272L18.0297 22.0508L18.0992 22.0694L18.0871 22.1147Z" fill="#1C202D"/>
<path d="M18.4065 22.3156C18.4036 22.3261 18.4001 22.337 18.3957 22.3484L18.131 22.2774C18.1243 22.3106 18.1285 22.3392 18.1437 22.3631C18.1594 22.3867 18.1817 22.4024 18.2107 22.4102C18.2345 22.4166 18.2557 22.4164 18.2743 22.4098C18.2935 22.4028 18.3088 22.3909 18.3202 22.3741L18.3794 22.39C18.362 22.4194 18.3373 22.4407 18.3053 22.4537C18.2734 22.4663 18.2378 22.4673 18.1983 22.4568C18.1668 22.4483 18.1405 22.4337 18.1193 22.4129C18.0985 22.3922 18.0845 22.3671 18.0773 22.3376C18.0702 22.3076 18.0713 22.2755 18.0805 22.2412C18.0896 22.207 18.1045 22.1788 18.1251 22.1567C18.1458 22.1346 18.1702 22.1199 18.1984 22.1128C18.2272 22.1054 18.2577 22.106 18.2899 22.1147C18.3214 22.1231 18.3473 22.1374 18.3678 22.1576C18.3883 22.1777 18.4018 22.2017 18.4082 22.2293C18.4151 22.2566 18.4145 22.2854 18.4065 22.3156ZM18.3527 22.2889C18.3583 22.268 18.3585 22.2488 18.3532 22.2314C18.3481 22.2136 18.3384 22.1987 18.3244 22.1867C18.3108 22.1745 18.2944 22.1657 18.275 22.1606C18.2472 22.1531 18.2211 22.1556 18.1966 22.168C18.1725 22.1806 18.1548 22.2022 18.1436 22.2329L18.3527 22.2889Z" fill="#1C202D"/>
<path d="M20.1366 21.4079C20.1843 21.2299 20.2614 21.0845 20.368 20.9717C20.4751 20.8567 20.6013 20.7794 20.7466 20.7398C20.8939 20.7007 21.0493 20.7031 21.2126 20.7469C21.4241 20.8035 21.5842 20.9014 21.6928 21.0405C21.8035 21.1801 21.8565 21.3469 21.8516 21.5409L21.5438 21.4584C21.5425 21.3459 21.5071 21.2477 21.4375 21.164C21.37 21.0808 21.2735 21.0224 21.1478 20.9887C20.9845 20.9449 20.8374 20.9661 20.7066 21.0523C20.5763 21.1363 20.4837 21.281 20.4287 21.4862C20.3732 21.6935 20.3805 21.8672 20.4507 22.0072C20.5209 22.1472 20.6377 22.2391 20.8011 22.2828C20.9267 22.3165 21.0393 22.3152 21.1387 22.2791C21.2382 22.2429 21.3182 22.1745 21.3788 22.0741L21.6867 22.1565C21.5935 22.3201 21.4634 22.4368 21.2966 22.5065C21.1304 22.5742 20.9436 22.5803 20.7363 22.5247C20.5729 22.4809 20.4372 22.4053 20.3291 22.2978C20.2231 22.1908 20.1524 22.0608 20.1172 21.9077C20.0819 21.7546 20.0884 21.588 20.1366 21.4079Z" fill="#1C202D"/>
<path d="M21.857 21.8655C21.9041 21.6896 21.9809 21.5452 22.0875 21.4324C22.1946 21.3174 22.3197 21.2399 22.4629 21.1997C22.6082 21.1601 22.7573 21.1607 22.9101 21.2017C23.0609 21.2421 23.1831 21.3096 23.2767 21.4043C23.3703 21.4989 23.4311 21.6028 23.4592 21.7158L23.5434 21.4017L23.8323 21.4791L23.3711 23.2004L23.0821 23.123L23.168 22.8026C23.0845 22.888 22.9772 22.949 22.8462 22.9857C22.7178 23.0209 22.5793 23.0186 22.4306 22.9787C22.2778 22.9378 22.1497 22.863 22.0463 22.7545C21.943 22.646 21.8739 22.5142 21.8392 22.359C21.8045 22.2038 21.8104 22.0393 21.857 21.8655ZM23.3136 22.2592C23.3484 22.1294 23.3525 22.0093 23.326 21.8989C23.2994 21.7886 23.2478 21.6962 23.1713 21.6218C23.0973 21.5459 23.007 21.4936 22.9002 21.465C22.7934 21.4364 22.6893 21.4354 22.5879 21.4621C22.4865 21.4888 22.3967 21.5433 22.3185 21.6256C22.2403 21.7079 22.1839 21.814 22.1491 21.9438C22.1137 22.0757 22.109 22.1979 22.135 22.3104C22.1616 22.4207 22.2118 22.5138 22.2857 22.5898C22.3602 22.6636 22.4508 22.7148 22.5576 22.7434C22.6644 22.772 22.7685 22.773 22.87 22.7463C22.974 22.7181 23.0651 22.6628 23.1433 22.5805C23.222 22.4961 23.2788 22.389 23.3136 22.2592Z" fill="#1C202D"/>
<path d="M24.5743 21.0315L23.9515 23.3559L23.6657 23.2793L24.2885 20.9549L24.5743 21.0315Z" fill="#1C202D"/>
<path d="M24.9934 23.6654C24.8321 23.6222 24.6954 23.5463 24.5831 23.4376C24.4729 23.3295 24.398 23.1984 24.3586 23.0442C24.3217 22.8884 24.3272 22.7216 24.3749 22.5436C24.422 22.3677 24.5012 22.2228 24.6125 22.109C24.7265 21.9936 24.8589 21.918 25.01 21.8822C25.1615 21.8442 25.319 21.8471 25.4823 21.8909C25.6456 21.9347 25.7835 22.0109 25.8957 22.1195C26.0086 22.2261 26.0847 22.3564 26.1242 22.5107C26.1658 22.6654 26.1627 22.8318 26.115 23.0098C26.0673 23.1878 25.9855 23.3342 25.8694 23.449C25.756 23.5623 25.6225 23.6376 25.4689 23.675C25.3152 23.7124 25.1567 23.7092 24.9934 23.6654ZM25.0607 23.4141C25.1633 23.4416 25.2661 23.4433 25.369 23.4193C25.472 23.3953 25.5636 23.3424 25.6438 23.2606C25.7262 23.1795 25.7859 23.0698 25.8229 22.9316C25.86 22.7934 25.8641 22.6688 25.8355 22.5579C25.8069 22.447 25.7548 22.3567 25.6792 22.287C25.6041 22.2153 25.5153 22.1657 25.4127 22.1382C25.308 22.1102 25.2052 22.1084 25.1043 22.133C25.0061 22.1561 24.918 22.2088 24.8398 22.2911C24.7616 22.3734 24.704 22.4836 24.667 22.6218C24.6294 22.7621 24.6228 22.8872 24.6473 22.997C24.6738 23.1073 24.7236 23.1981 24.7965 23.2693C24.87 23.3383 24.9581 23.3866 25.0607 23.4141Z" fill="#1C202D"/>
<path d="M26.7431 22.5587C26.8197 22.4737 26.9114 22.4164 27.0181 22.3866C27.127 22.3574 27.2484 22.3608 27.3824 22.3967L27.3033 22.6919L27.2279 22.6717C26.9075 22.5859 26.7007 22.7168 26.6076 23.0644L26.3568 24.0004L26.0709 23.9238L26.5322 22.2025L26.818 22.2791L26.7431 22.5587Z" fill="#1C202D"/>
<path d="M27.738 22.226C27.6836 22.2114 27.6426 22.1802 27.615 22.1324C27.5874 22.0846 27.5809 22.0335 27.5955 21.9791C27.61 21.9246 27.6412 21.8836 27.689 21.856C27.7368 21.8284 27.7879 21.8219 27.8424 21.8365C27.8947 21.8505 27.9337 21.8812 27.9592 21.9284C27.9868 21.9762 27.9933 22.0273 27.9787 22.0817C27.9641 22.1362 27.9329 22.1772 27.8851 22.2048C27.8394 22.233 27.7904 22.24 27.738 22.226ZM27.8013 22.5426L27.3401 24.2639L27.0543 24.1873L27.5155 22.466L27.8013 22.5426Z" fill="#1C202D"/>
<path d="M29.4576 23.8381C29.443 23.8926 29.4245 23.9493 29.4019 24.0084L28.0261 23.6397C27.9911 23.8122 28.0131 23.9606 28.092 24.0849C28.1735 24.2078 28.2897 24.2894 28.4405 24.3298C28.564 24.3629 28.6742 24.3621 28.771 24.3275C28.8705 24.2913 28.9499 24.2295 29.0092 24.1422L29.317 24.2247C29.2266 24.3777 29.0983 24.4881 28.932 24.5558C28.7663 24.6214 28.5809 24.6267 28.3757 24.5717C28.2123 24.5279 28.0756 24.452 27.9654 24.3439C27.8573 24.2364 27.7845 24.1058 27.7471 23.9521C27.7103 23.7964 27.7158 23.6295 27.7634 23.4515C27.8111 23.2735 27.8885 23.1271 27.9957 23.0121C28.1028 22.8972 28.2297 22.8212 28.3765 22.7842C28.526 22.7457 28.6845 22.7489 28.852 22.7938C29.0154 22.8376 29.1503 22.9119 29.2569 23.0168C29.3635 23.1216 29.4334 23.2459 29.4667 23.3895C29.5027 23.5315 29.4997 23.6811 29.4576 23.8381ZM29.1784 23.6993C29.2075 23.5905 29.2084 23.4908 29.181 23.4004C29.1542 23.308 29.1042 23.2306 29.0311 23.1684C28.9607 23.1046 28.8752 23.0593 28.7747 23.0323C28.6302 22.9936 28.4943 23.0066 28.367 23.0712C28.2418 23.1364 28.15 23.2487 28.0915 23.4081L29.1784 23.6993Z" fill="#1C202D"/>
<path d="M-1.25035 15.6774C-1.20266 15.4995 -1.12554 15.354 -1.01899 15.2412C-0.911882 15.1262 -0.785686 15.049 -0.640404 15.0093C-0.493028 14.9703 -0.337671 14.9726 -0.174335 15.0164C0.0371655 15.0731 0.197226 15.1709 0.305846 15.31C0.41656 15.4497 0.469496 15.6165 0.464656 15.8104L0.156829 15.7279C0.155567 15.6154 0.120144 15.5172 0.0505594 15.4335C-0.0169312 15.3503 -0.113498 15.2919 -0.239142 15.2582C-0.402479 15.2145 -0.549554 15.2357 -0.680368 15.3218C-0.810622 15.4059 -0.903242 15.5505 -0.95823 15.7557C-1.01378 15.963 -1.00645 16.1367 -0.936231 16.2767C-0.866016 16.4167 -0.74924 16.5086 -0.585903 16.5524C-0.460259 16.586 -0.347701 16.5848 -0.248227 16.5486C-0.148754 16.5124 -0.0687235 16.4441 -0.00813527 16.3436L0.299692 16.4261C0.20649 16.5896 0.0764767 16.7063 -0.0903476 16.7761C-0.256611 16.8437 -0.443398 16.8498 -0.65071 16.7942C-0.814047 16.7505 -0.949765 16.6748 -1.05786 16.5673C-1.16387 16.4604 -1.23452 16.3303 -1.2698 16.1772C-1.30509 16.0241 -1.29861 15.8575 -1.25035 15.6774Z" fill="#1C202D"/>
<path d="M0.469991 16.135C0.517124 15.9591 0.593964 15.8148 0.700511 15.7019C0.80762 15.587 0.932768 15.5094 1.07596 15.4692C1.22124 15.4296 1.37031 15.4303 1.52318 15.4712C1.67395 15.5116 1.79613 15.5792 1.88972 15.6738C1.98332 15.7685 2.04415 15.8723 2.07222 15.9853L2.15639 15.6712L2.44537 15.7486L1.98414 17.4699L1.69516 17.3925L1.78101 17.0721C1.69754 17.1575 1.59028 17.2185 1.45925 17.2552C1.33087 17.2904 1.19234 17.2881 1.04366 17.2482C0.890797 17.2073 0.762688 17.1326 0.659338 17.0241C0.555989 16.9156 0.48695 16.7837 0.452224 16.6285C0.417498 16.4734 0.42342 16.3089 0.469991 16.135ZM1.92662 16.5287C1.9614 16.3989 1.96553 16.2788 1.93899 16.1684C1.91245 16.0581 1.86089 15.9657 1.78431 15.8913C1.71039 15.8154 1.62003 15.7631 1.51323 15.7345C1.40643 15.7059 1.30232 15.7049 1.20091 15.7316C1.09949 15.7583 1.0097 15.8128 0.931538 15.8951C0.853376 15.9774 0.796901 16.0835 0.762113 16.2133C0.726764 16.3452 0.722078 16.4674 0.748058 16.5799C0.774599 16.6902 0.824831 16.7834 0.898754 16.8593C0.973238 16.9331 1.06388 16.9843 1.17068 17.013C1.27747 17.0416 1.38158 17.0425 1.483 17.0158C1.58707 16.9876 1.67819 16.9324 1.75635 16.8501C1.83507 16.7657 1.89183 16.6585 1.92662 16.5287Z" fill="#1C202D"/>
<path d="M3.18738 15.3011L2.56456 17.6255L2.27872 17.5489L2.90154 15.2245L3.18738 15.3011Z" fill="#1C202D"/>
<path d="M3.6064 17.9349C3.44516 17.8917 3.30839 17.8158 3.19611 17.7072C3.08591 17.5991 3.01108 17.4679 2.9716 17.3137C2.93478 17.158 2.94022 16.9911 2.98791 16.8131C3.03504 16.6372 3.11426 16.4923 3.22556 16.3785C3.33951 16.2632 3.47198 16.1876 3.62299 16.1517C3.77455 16.1138 3.932 16.1167 4.09534 16.1604C4.25868 16.2042 4.39649 16.2804 4.50878 16.389C4.62162 16.4956 4.69779 16.626 4.73726 16.7802C4.77883 16.935 4.77577 17.1014 4.72808 17.2794C4.68038 17.4574 4.59851 17.6038 4.48247 17.7185C4.36908 17.8318 4.23555 17.9071 4.08189 17.9445C3.92823 17.9819 3.76974 17.9787 3.6064 17.9349ZM3.67373 17.6836C3.77634 17.7111 3.87912 17.7129 3.98207 17.6888C4.08502 17.6648 4.17662 17.6119 4.25688 17.5302C4.33923 17.449 4.39892 17.3393 4.43595 17.2011C4.47299 17.0629 4.47719 16.9383 4.44855 16.8274C4.41992 16.7165 4.3678 16.6262 4.29219 16.5566C4.21714 16.4848 4.12832 16.4352 4.02571 16.4077C3.92101 16.3797 3.81823 16.378 3.71737 16.4026C3.61917 16.4256 3.53099 16.4783 3.45283 16.5606C3.37466 16.6429 3.31707 16.7532 3.28003 16.8914C3.24244 17.0317 3.23587 17.1567 3.26031 17.2665C3.28685 17.3769 3.3366 17.4676 3.40955 17.5388C3.48306 17.6079 3.57112 17.6561 3.67373 17.6836Z" fill="#1C202D"/>
<path d="M5.35614 16.8282C5.43277 16.7432 5.52445 16.6859 5.63117 16.6561C5.74 16.6269 5.86142 16.6303 5.99544 16.6662L5.91632 16.9615L5.84094 16.9413C5.52054 16.8554 5.31378 16.9863 5.22063 17.3339L4.96982 18.27L4.68398 18.1934L5.14521 16.472L5.43105 16.5486L5.35614 16.8282Z" fill="#1C202D"/>
<path d="M6.35106 16.4955C6.29661 16.4809 6.25559 16.4497 6.228 16.402C6.2004 16.3542 6.1939 16.303 6.20849 16.2486C6.22308 16.1942 6.25427 16.1531 6.30206 16.1255C6.34985 16.0979 6.40097 16.0914 6.45542 16.106C6.50777 16.1201 6.5467 16.1507 6.5722 16.1979C6.59979 16.2457 6.60629 16.2968 6.5917 16.3513C6.57711 16.4057 6.54592 16.4467 6.49813 16.4743C6.45243 16.5025 6.40341 16.5096 6.35106 16.4955ZM6.41436 16.8121L5.95313 18.5334L5.66729 18.4568L6.12852 16.7355L6.41436 16.8121Z" fill="#1C202D"/>
<path d="M8.07066 18.1077C8.05607 18.1621 8.0375 18.2189 8.01495 18.2779L6.63915 17.9093C6.60417 18.0817 6.62613 18.2301 6.70502 18.3545C6.78657 18.4773 6.90273 18.5589 7.0535 18.5993C7.17705 18.6325 7.28723 18.6317 7.38405 18.597C7.48352 18.5608 7.56292 18.4991 7.62223 18.4117L7.93006 18.4942C7.83966 18.6473 7.71133 18.7577 7.54507 18.8253C7.37937 18.8909 7.19391 18.8962 6.98869 18.8412C6.82535 18.7974 6.68859 18.7215 6.5784 18.6134C6.4703 18.5059 6.39756 18.3753 6.36018 18.2217C6.32336 18.0659 6.32879 17.899 6.37649 17.7211C6.42418 17.5431 6.50158 17.3966 6.60869 17.2816C6.7158 17.1667 6.84276 17.0907 6.98957 17.0538C7.13905 17.0153 7.29754 17.0185 7.46507 17.0634C7.6284 17.1071 7.76336 17.1814 7.86992 17.2863C7.97649 17.3912 8.04644 17.5154 8.07979 17.659C8.11578 17.8011 8.11274 17.9506 8.07066 18.1077ZM7.79139 17.9689C7.82057 17.86 7.82145 17.7603 7.79405 17.67C7.76721 17.5775 7.71724 17.5001 7.64414 17.4379C7.57369 17.3741 7.48821 17.3288 7.3877 17.3019C7.24321 17.2631 7.10731 17.2761 6.98001 17.3407C6.85481 17.406 6.763 17.5183 6.70457 17.6777L7.79139 17.9689Z" fill="#1C202D"/>
<path d="M4.65804 18.5341C4.67461 18.5174 4.69545 18.5057 4.72056 18.499C4.74566 18.4923 4.77212 18.4927 4.79992 18.5002C4.82973 18.5082 4.85464 18.5224 4.87463 18.5429C4.89463 18.5634 4.90802 18.5883 4.91481 18.6178C4.92171 18.6468 4.92062 18.6783 4.91155 18.7121C4.90259 18.7456 4.88775 18.7736 4.86704 18.7961C4.84632 18.8186 4.82193 18.8339 4.79387 18.8419C4.76621 18.85 4.73767 18.8502 4.70826 18.8423C4.67965 18.8346 4.65614 18.8216 4.63773 18.8033C4.61972 18.7851 4.60787 18.7649 4.60217 18.7426L4.58581 18.8036L4.53081 18.7889L4.65065 18.3417L4.70565 18.3564L4.65804 18.5341ZM4.85534 18.6971C4.86204 18.6721 4.86283 18.649 4.85772 18.6277C4.85262 18.6065 4.8427 18.5887 4.82796 18.5744C4.81363 18.5602 4.79619 18.5504 4.77564 18.5449C4.75549 18.5395 4.73541 18.5395 4.71538 18.5449C4.69587 18.55 4.67834 18.5607 4.66279 18.5768C4.64775 18.5926 4.63693 18.6129 4.63035 18.6374C4.62366 18.6624 4.62281 18.6857 4.62781 18.7074C4.63332 18.7287 4.64318 18.7467 4.65741 18.7613C4.67214 18.7756 4.68958 18.7855 4.70973 18.7908C4.73028 18.7964 4.75031 18.7965 4.76982 18.7914C4.78985 18.786 4.80738 18.7753 4.82242 18.7595C4.83757 18.7433 4.84854 18.7225 4.85534 18.6971Z" fill="#1C202D"/>
<path d="M5.3036 18.641L5.21485 18.9722L5.15985 18.9575L5.17297 18.9085C5.15796 18.9226 5.13969 18.932 5.11816 18.9366C5.09714 18.9409 5.07535 18.94 5.05279 18.9339C5.027 18.927 5.00524 18.9156 4.98749 18.8996C4.96986 18.8832 4.95786 18.8627 4.95149 18.8381C4.94553 18.8137 4.94665 18.7861 4.95486 18.7555L5.00684 18.5615L5.06124 18.576L5.0112 18.7628C5.00245 18.7954 5.00396 18.8228 5.01573 18.845C5.02761 18.8667 5.04785 18.8815 5.07646 18.8891C5.10587 18.897 5.13147 18.8941 5.15325 18.8805C5.17504 18.8669 5.19057 18.8428 5.19985 18.8082L5.2486 18.6262L5.3036 18.641Z" fill="#1C202D"/>
<path d="M5.41892 18.7295C5.43366 18.7132 5.4513 18.7022 5.47184 18.6964C5.49278 18.6908 5.51614 18.6915 5.54193 18.6984L5.5267 18.7552L5.5122 18.7513C5.45055 18.7348 5.41077 18.76 5.39284 18.8268L5.34458 19.007L5.28958 18.9922L5.37833 18.661L5.43333 18.6757L5.41892 18.7295Z" fill="#1C202D"/>
<path d="M5.74866 18.7538C5.78895 18.7646 5.81829 18.7856 5.83669 18.8169C5.85519 18.8477 5.85829 18.8861 5.84598 18.9321L5.79367 19.1273L5.73928 19.1127L5.78948 18.9253C5.79833 18.8923 5.79682 18.8649 5.78494 18.8432C5.77318 18.821 5.75299 18.8061 5.72438 18.7984C5.69537 18.7907 5.66977 18.7935 5.64759 18.807C5.62581 18.8206 5.61027 18.8447 5.60099 18.8794L5.55192 19.0625L5.49692 19.0478L5.58566 18.7166L5.64066 18.7313L5.62803 18.7784C5.64345 18.7644 5.66166 18.7553 5.68268 18.751C5.7041 18.7468 5.72609 18.7477 5.74866 18.7538Z" fill="#1C202D"/>
<path d="M6.21976 18.9351L6.15026 18.9164L6.07366 19.2023L6.01866 19.1876L6.09526 18.9017L6.05235 18.8902L6.06449 18.8449L6.1074 18.8564L6.11372 18.8328C6.12365 18.7957 6.14036 18.7713 6.16383 18.7594C6.18781 18.7473 6.22096 18.7469 6.26326 18.7582L6.25095 18.8041C6.22678 18.7977 6.20836 18.7979 6.19569 18.8049C6.18354 18.8116 6.17455 18.8258 6.16872 18.8475L6.1624 18.8711L6.23191 18.8897L6.21976 18.9351Z" fill="#1C202D"/>
<path d="M6.33215 19.2774C6.30112 19.2691 6.27481 19.2545 6.2532 19.2336C6.232 19.2128 6.2176 19.1875 6.21 19.1579C6.20292 19.1279 6.20397 19.0958 6.21314 19.0615C6.22221 19.0277 6.23745 18.9998 6.25887 18.9779C6.28079 18.9557 6.30629 18.9412 6.33534 18.9343C6.3645 18.927 6.3948 18.9275 6.42623 18.936C6.45766 18.9444 6.48417 18.959 6.50578 18.9799C6.52749 19.0005 6.54215 19.0255 6.54974 19.0552C6.55774 19.085 6.55715 19.117 6.54798 19.1513C6.5388 19.1855 6.52305 19.2137 6.50072 19.2358C6.4789 19.2576 6.45321 19.272 6.42364 19.2792C6.39407 19.2864 6.36358 19.2858 6.33215 19.2774ZM6.3451 19.229C6.36485 19.2343 6.38462 19.2347 6.40443 19.23C6.42424 19.2254 6.44187 19.2152 6.45731 19.1995C6.47316 19.1839 6.48464 19.1628 6.49177 19.1362C6.49889 19.1096 6.4997 19.0856 6.49419 19.0643C6.48868 19.043 6.47865 19.0256 6.4641 19.0122C6.44966 18.9984 6.43257 18.9888 6.41283 18.9835C6.39268 18.9781 6.37291 18.9778 6.3535 18.9825C6.33461 18.987 6.31764 18.9971 6.3026 19.013C6.28756 19.0288 6.27648 19.05 6.26935 19.0766C6.26212 19.1036 6.26085 19.1277 6.26556 19.1488C6.27066 19.17 6.28024 19.1875 6.29427 19.2012C6.30842 19.2145 6.32536 19.2238 6.3451 19.229Z" fill="#1C202D"/>
<path d="M6.68696 19.0693C6.7017 19.053 6.71934 19.0419 6.73988 19.0362C6.76081 19.0306 6.78418 19.0312 6.80997 19.0381L6.79474 19.0949L6.78024 19.0911C6.71859 19.0745 6.6788 19.0997 6.66088 19.1666L6.61262 19.3467L6.55762 19.332L6.64637 19.0008L6.70137 19.0155L6.68696 19.0693Z" fill="#1C202D"/>
<path d="M7.0828 18.9933L6.96296 19.4406L6.90796 19.4259L7.0278 18.9786L7.0828 18.9933Z" fill="#1C202D"/>
<path d="M7.17013 19.0835C7.15965 19.0807 7.15176 19.0747 7.14645 19.0655C7.14114 19.0563 7.13989 19.0464 7.1427 19.036C7.1455 19.0255 7.1515 19.0176 7.1607 19.0123C7.1699 19.007 7.17973 19.0057 7.19021 19.0085C7.20028 19.0112 7.20777 19.0171 7.21268 19.0262C7.21799 19.0354 7.21924 19.0452 7.21643 19.0557C7.21362 19.0662 7.20762 19.0741 7.19843 19.0794C7.18963 19.0848 7.1802 19.0862 7.17013 19.0835ZM7.18231 19.1444L7.09356 19.4756L7.03856 19.4609L7.12731 19.1296L7.18231 19.1444Z" fill="#1C202D"/>
<path d="M7.38055 19.2461L7.31104 19.2275L7.23444 19.5133L7.17944 19.4986L7.25604 19.2127L7.21313 19.2012L7.22528 19.1559L7.26819 19.1674L7.2745 19.1438C7.28444 19.1068 7.30114 19.0823 7.32461 19.0704C7.34859 19.0583 7.38174 19.0579 7.42405 19.0692L7.41174 19.1152C7.38756 19.1087 7.36914 19.1089 7.35648 19.1159C7.34432 19.1226 7.33533 19.1368 7.3295 19.1586L7.32319 19.1821L7.39269 19.2008L7.38055 19.2461Z" fill="#1C202D"/>
<path d="M7.69991 19.447C7.6971 19.4574 7.69353 19.4684 7.68919 19.4797L7.42447 19.4088C7.41774 19.442 7.42196 19.4705 7.43714 19.4945C7.45283 19.5181 7.47518 19.5338 7.50419 19.5416C7.52797 19.5479 7.54917 19.5478 7.5678 19.5411C7.58694 19.5342 7.60221 19.5223 7.61363 19.5055L7.67286 19.5213C7.65546 19.5508 7.63077 19.572 7.59878 19.585C7.5669 19.5977 7.53121 19.5987 7.49172 19.5881C7.4603 19.5797 7.43398 19.5651 7.41278 19.5443C7.39198 19.5236 7.37798 19.4985 7.37079 19.4689C7.3637 19.4389 7.36475 19.4068 7.37393 19.3726C7.3831 19.3383 7.398 19.3101 7.41861 19.288C7.43921 19.2659 7.46364 19.2513 7.49189 19.2442C7.52065 19.2368 7.55115 19.2374 7.58338 19.246C7.61481 19.2544 7.64078 19.2687 7.66128 19.2889C7.68179 19.3091 7.69525 19.333 7.70167 19.3606C7.70859 19.388 7.70801 19.4167 7.69991 19.447ZM7.64617 19.4203C7.65179 19.3993 7.65196 19.3801 7.64669 19.3627C7.64152 19.3449 7.63191 19.3301 7.61784 19.3181C7.60429 19.3058 7.58784 19.2971 7.5685 19.2919C7.5407 19.2845 7.51455 19.287 7.49005 19.2994C7.46596 19.3119 7.4483 19.3336 7.43705 19.3642L7.64617 19.4203Z" fill="#1C202D"/>
</g>
<path d="M17.5562 18.7114C17.5919 18.7745 17.6104 18.843 17.6133 18.9113L17.6137 18.9286C17.6143 19.0832 17.5352 19.2345 17.3937 19.3179C17.3511 19.3498 17.3004 19.3711 17.2467 19.3817C17.1873 19.3947 17.1243 19.3941 17.0619 19.3774C16.9717 19.3532 16.8974 19.2994 16.8462 19.2288L16.8468 19.2296L16.8468 19.2297L16.8476 19.2296C16.8413 19.2209 16.8352 19.2119 16.8296 19.2027L16.8289 19.203C16.7728 19.1115 16.753 18.9972 16.7833 18.8842L16.7834 18.8838L16.7835 18.8835C16.8144 18.768 16.8915 18.6774 16.9889 18.6269C17.0074 18.6163 17.0277 18.6052 17.0493 18.5934L17.0494 18.5934C17.0933 18.5694 17.1425 18.5425 17.1932 18.5103L17.2037 18.5034C17.223 18.4892 17.2392 18.4751 17.2509 18.4609C17.2632 18.4455 17.2694 18.4311 17.2718 18.4185C17.2739 18.4043 17.271 18.3897 17.2622 18.3741L17.2637 18.3754L17.2632 18.3747L17.2639 18.3755C17.3856 18.4773 17.3735 18.56 17.3474 18.6134L17.3425 18.6238C17.3373 18.632 17.3332 18.6412 17.3305 18.6511C17.3167 18.7029 17.3466 18.7559 17.3975 18.7695C17.4483 18.7831 17.5007 18.7522 17.5146 18.7004C17.5199 18.6808 17.5188 18.661 17.5128 18.6432L17.5124 18.6407C17.5275 18.6631 17.5422 18.6866 17.5562 18.7114Z" fill="url(#paint3_linear_401_1582)"/>
</g>
<mask id="mask2_401_1582" style="mask-type:alpha" maskUnits="userSpaceOnUse" x="2" y="9" width="23" height="22">
<path d="M6.18673 11.3455C6.50596 10.0294 7.97714 9.33956 9.24498 9.44C9.34734 9.44811 9.4519 9.45593 9.5596 9.46399L9.5596 9.46399C10.7858 9.55575 12.419 9.67796 15.85 10.5973C19.5825 11.5974 21.3019 12.2136 22.6325 13.0421C23.9631 13.8706 24.7572 14.9576 24.35 16.2772L22.3678 22.9185L20.8681 29.2111C20.7021 29.9393 20.227 30.5447 19.6097 30.8938C18.5387 29.2356 15.299 27.3692 11.2192 26.276C8.30199 25.4943 4.76491 25.2781 3.67544 25.5228C3.1734 25.6707 3.03924 26.0301 3.62029 26.4682C2.29977 25.7755 2.67386 24.5766 2.73583 24.2517C2.79781 23.9268 4.53847 18.1411 4.53847 18.1411L6.18673 11.3455Z" fill="#1C202D"/>
</mask>
<g mask="url(#mask2_401_1582)">
<g style="mix-blend-mode:multiply" filter="url(#filter2_f_401_1582)">
<path d="M6.07406 11.0162C6.26443 13.4737 5.90669 19.244 2.95279 22.665C3.78037 15.1241 5.37846 11.7571 6.07406 11.0162Z" fill="#1C202D" fill-opacity="0.28"/>
</g>
</g>
<g filter="url(#filter3_d_401_1582)">
<path fill-rule="evenodd" clip-rule="evenodd" d="M22.9741 27.0849C24.2169 27.1701 26.4516 26.9151 30.1953 25.6705C35.4121 23.9362 38.557 22.3527 38.823 21.9383C38.8166 21.9355 38.8103 21.9327 38.8039 21.9299C38.8003 21.9369 38.7968 21.944 38.7932 21.951C36.9869 21.1574 33.2642 21.4089 29.2561 22.7413C26.3903 23.694 23.3177 25.4592 22.5425 26.2624C22.2046 26.6618 22.2902 27.0353 23.0163 27.081C23.0021 27.0824 22.988 27.0837 22.9741 27.0849Z" fill="url(#paint4_linear_401_1582)"/>
<g style="mix-blend-mode:multiply" filter="url(#filter4_f_401_1582)">
<path fill-rule="evenodd" clip-rule="evenodd" d="M22.8457 27.0625C24.1953 25.5598 26.6214 24.3034 29.4911 23.3494C32.5813 22.3221 36.3202 21.6509 38.7767 21.9942C38.7968 21.9737 38.8123 21.9551 38.823 21.9383L38.8039 21.9299L38.7932 21.951C36.9869 21.1574 33.2642 21.4089 29.2561 22.7413C26.3903 23.694 23.3177 25.4592 22.5425 26.2624C22.2331 26.628 22.2787 26.9719 22.8457 27.0625Z" fill="#461409"/>
</g>
<path d="M16.8445 13.0648C16.3867 11.7902 17.2355 10.4046 18.3493 9.79078C18.4393 9.74122 18.5309 9.69021 18.6252 9.63767C19.6996 9.03947 21.1304 8.24277 24.5012 7.1222C28.168 5.90322 29.9427 5.47152 31.5096 5.431C33.0765 5.39048 34.3377 5.86111 34.724 7.18693L36.7238 13.823L38.9345 19.9023C39.1967 20.6017 39.1331 21.3686 38.8098 21.9999C37.003 21.2047 33.2709 21.4292 29.2628 22.7617C26.397 23.7144 23.3247 25.4804 22.5497 26.2842C22.2119 26.684 22.2977 27.0579 23.0239 27.104C21.5401 27.2523 21.1927 26.0454 21.0656 25.74C20.9386 25.4346 19.208 19.6459 19.208 19.6459L16.8445 13.0648Z" fill="#EAEBF0"/>
<mask id="mask3_401_1582" style="mask-type:alpha" maskUnits="userSpaceOnUse" x="16" y="5" width="24" height="23">
<path d="M16.8445 13.0648C16.3867 11.7902 17.2355 10.4046 18.3493 9.79078C18.4393 9.74122 18.5309 9.69021 18.6252 9.63767C19.6996 9.03947 21.1304 8.24277 24.5012 7.1222C28.168 5.90322 29.9427 5.47152 31.5096 5.431C33.0765 5.39048 34.3377 5.86111 34.724 7.18693L36.7238 13.823L38.9345 19.9023C39.1967 20.6017 39.1331 21.3686 38.8098 21.9999C37.003 21.2047 33.2709 21.4292 29.2628 22.7617C26.397 23.7144 23.3247 25.4804 22.5497 26.2842C22.2119 26.684 22.2977 27.0579 23.0239 27.104C21.5401 27.2523 21.1927 26.0454 21.0656 25.74C20.9386 25.4346 19.208 19.6459 19.208 19.6459L16.8445 13.0648Z" fill="#1C202D"/>
</mask>
<g mask="url(#mask3_401_1582)">
<g opacity="0.3">
<path d="M20.1784 -0.207695C19.2452 -0.684303 18.2251 -1.17693 17.1389 -1.70135L17.1378 -1.70186L17.1378 -1.70185L17.1371 -1.7022C14.9313 -2.76718 12.4552 -3.96274 9.89255 -5.41807C9.70688 -5.52349 9.5288 -5.62905 9.35799 -5.73454L9.35798 -5.73452L9.35684 -5.73527C8.37532 -6.38577 7.54386 -7.03612 6.92328 -7.71035L6.92267 -7.71104C6.27738 -8.44337 5.92465 -9.14171 5.76598 -9.7667L5.76594 -9.76669L5.76555 -9.76855C5.63294 -10.4104 5.70169 -11.0852 6.007 -11.8068C3.27578 -9.17284 2.11647 -6.85992 1.81393 -4.89144C1.50852 -2.90425 2.0753 -1.26175 2.79091 0.0139529C2.88746 0.185939 2.97717 0.351686 3.06049 0.511666C3.34074 0.906189 3.56863 1.34983 3.72993 1.83501C4.57365 4.37298 3.27651 7.09189 0.828535 7.9057C-1.61944 8.7195 -4.28615 7.31832 -5.12987 4.78035C-5.43754 3.85485 -5.46061 2.90543 -5.24702 2.03314C-5.86837 3.11578 -6.46938 4.25127 -7.03538 5.43596C-8.56475 8.6375 -9.2477 12.057 -9.17301 15.4261C-9.173 15.4263 -9.173 15.4264 -9.173 15.4265L-9.13795 16.2783C-9.13794 16.2784 -9.13793 16.2785 -9.13793 16.2787C-8.6803 23.8894 -4.37261 31.1237 2.74593 34.8591L2.74605 34.8589L2.7499 34.8615C4.91368 36.318 7.43204 37.2319 10.0691 37.6081L10.0701 37.6083C12.984 38.0931 16.0346 37.8984 19.006 36.9105C23.2526 35.4988 26.6592 32.6928 28.9188 29.135L28.8799 29.1308L28.9163 29.0734C29.1983 28.6287 29.4625 28.1722 29.7079 27.7053L29.725 27.6728L29.7553 27.6836C32.1725 23.0415 32.7653 17.3756 30.9483 11.9098L30.9424 11.8921L30.9366 11.8747C29.0743 6.27285 25.0569 2.01919 20.1801 -0.206884L20.1801 -0.206847L20.1784 -0.207695Z" stroke="url(#paint5_linear_401_1582)" stroke-width="0.0846774"/>
<path d="M28.8232 30.9199L28.7896 30.9161L28.8254 30.859C29.0686 30.4717 29.2963 30.074 29.5079 29.6672L29.525 29.6343L29.5512 29.6438C31.6322 25.5999 32.1313 20.6593 30.545 15.8875L30.5398 15.872L30.5348 15.8567C28.9083 10.9642 25.4181 7.24318 21.1884 5.28931L21.1884 5.28935L21.1868 5.2885C20.3771 4.87033 19.492 4.43797 18.5496 3.97767L18.5488 3.97728L18.5488 3.97729L18.548 3.97693C16.6342 3.04218 14.4856 1.99275 12.2615 0.716336C12.1003 0.623855 11.9457 0.531261 11.7973 0.43875L11.7973 0.438769L11.7962 0.438015C10.944 -0.132191 10.2216 -0.702066 9.68187 -1.29246L9.68127 -1.29314C9.11992 -1.93439 8.81222 -2.54545 8.67303 -3.09219L8.67299 -3.09218L8.6726 -3.09403C8.55745 -3.64849 8.61263 -4.23046 8.86728 -4.85137C6.52132 -2.56715 5.52773 -0.55844 5.27115 1.15285C5.01142 2.88513 5.50596 4.31895 6.12871 5.43349C6.21274 5.58376 6.29083 5.72859 6.3634 5.86838C6.60736 6.21372 6.80603 6.60183 6.94705 7.02604C7.68489 9.24551 6.56637 11.619 4.4436 12.3247C2.32082 13.0304 0.00396301 11.799 -0.733875 9.57948C-0.99856 8.78329 -1.02444 7.96748 -0.850805 7.21597C-1.37974 8.14913 -1.8912 9.1273 -2.37293 10.1475C-3.6902 12.9374 -4.27377 15.9197 -4.20111 18.8597C-4.20111 18.8598 -4.20111 18.86 -4.2011 18.8601L-4.16873 19.6034C-4.16872 19.6035 -4.16872 19.6035 -4.16871 19.6036C-3.75436 26.246 -0.00550428 32.5689 6.16988 35.8451L6.17 35.8449L6.17383 35.8475C8.05147 37.1234 10.235 37.9267 12.5201 38.2612L12.5211 38.2614C15.0463 38.6913 17.6882 38.5285 20.2597 37.6737C23.9318 36.4529 26.8743 34.0155 28.8232 30.9199Z" stroke="#161925" stroke-width="0.0846774"/>
<path d="M29.0201 31.4836L28.9907 31.4807L29.0283 31.4226C29.2432 31.0904 29.4446 30.7495 29.6319 30.401L29.649 30.3692L29.6718 30.3771C31.5135 26.9131 31.9828 22.6965 30.6338 18.6386L30.6294 18.6254L30.6251 18.6124C29.2415 14.4505 26.2245 11.3008 22.5498 9.66384L22.5498 9.66387L22.5481 9.66304C21.8448 9.31192 21.0758 8.94921 20.257 8.56303L20.2563 8.56274L20.2563 8.56275L20.2556 8.56241C18.5926 7.77819 16.7255 6.89767 14.794 5.82395C14.654 5.74612 14.5197 5.66816 14.3909 5.59021L14.3909 5.59023L14.3897 5.58949C13.6501 5.10875 13.0235 4.62717 12.5563 4.12656L12.5557 4.12586C12.0699 3.58185 11.8051 3.06152 11.6872 2.59458L11.6872 2.59459L11.6868 2.59269C11.5916 2.12675 11.6407 1.63721 11.858 1.11475C9.81 3.07243 8.93484 4.78633 8.69995 6.24211C8.46144 7.72035 8.88208 8.93887 9.41694 9.88472C9.48913 10.0123 9.55619 10.1353 9.61847 10.254C9.82914 10.5475 9.99994 10.8778 10.1202 11.2394C10.7495 13.1325 9.75449 15.169 7.89565 15.7869C6.03682 16.4049 4.02066 15.3694 3.39133 13.4763C3.17009 12.8108 3.14954 12.1276 3.29672 11.4945C2.83546 12.2848 2.38886 13.1123 1.96723 13.9744C0.798764 16.364 0.268809 18.9122 0.311361 21.4198C0.311363 21.4199 0.311366 21.42 0.311368 21.4202L0.334339 22.0541C0.334346 22.0542 0.334353 22.0543 0.334361 22.0544C0.648766 27.7178 3.87298 33.0853 9.235 35.8366L9.23511 35.8364L9.239 35.839C10.8671 36.914 12.7655 37.5839 14.756 37.8532L14.757 37.8533C16.9561 38.2022 19.2613 38.0447 21.51 37.2972C24.7175 36.2309 27.2986 34.1341 29.0201 31.4836Z" stroke="#FF5D39" stroke-width="0.0846774"/>
<path d="M29.1775 28.3186C28.0523 30.0389 26.3706 31.3997 24.2832 32.0936C22.8141 32.582 21.3082 32.6855 19.8718 32.4584L19.8709 32.4583C18.5706 32.2832 17.3309 31.8467 16.2681 31.146L16.2642 31.1434L16.2641 31.1436C12.7617 29.3498 10.6567 25.8481 10.4529 22.1524C10.4529 22.1523 10.4529 22.1522 10.4529 22.1521L10.438 21.7384C10.438 21.7383 10.438 21.7382 10.438 21.738C10.411 20.1017 10.758 18.4387 11.522 16.8791C11.7839 16.3446 12.0605 15.8305 12.346 15.3381C12.2707 15.7288 12.2918 16.1451 12.4269 16.5513C12.8405 17.7957 14.1675 18.4762 15.3916 18.0692C16.6158 17.6622 17.2713 16.3227 16.8576 15.0784C16.7787 14.841 16.6666 14.6242 16.5282 14.4315C16.4876 14.354 16.4438 14.2739 16.3967 14.1907C16.0482 13.5747 15.7747 12.782 15.9304 11.8202C16.082 10.8845 16.6409 9.78272 17.9449 8.52382C17.8231 8.84414 17.7979 9.14633 17.8568 9.43512L17.8572 9.43702L17.8573 9.43701C17.9349 9.74473 18.1092 10.0867 18.4283 10.4436L18.4289 10.4443C18.7356 10.7725 19.1465 11.0878 19.6307 11.402L19.6319 11.4028L19.6319 11.4028L29.1775 28.3186ZM29.1775 28.3186L29.1584 28.3167L29.1961 28.2585C29.3365 28.0417 29.4682 27.8193 29.5907 27.5918L29.6077 27.5601L29.6226 27.5652C30.8218 25.3066 31.1272 22.5599 30.2485 19.9168L30.2457 19.9082L30.2429 19.8997C29.3402 17.1844 27.3702 15.1302 24.9703 14.0632L24.9702 14.0633L24.9686 14.0624C24.5087 13.8333 24.0059 13.5965 23.4702 13.3444L23.47 13.3443L23.47 13.3443L23.4693 13.344C22.3816 12.832 21.1599 12.257 19.896 11.5557L29.1775 28.3186Z" stroke="#FF5D39" stroke-width="0.0846774"/>
<path d="M29.6203 27.4807C28.8123 28.7185 27.6066 29.696 26.11 30.1935C25.0521 30.5452 23.9673 30.6177 22.9319 30.4509L22.9309 30.4507C21.9936 30.3217 21.0998 30.0033 20.3331 29.4939L20.3292 29.4913L20.3291 29.4915C17.8019 28.1854 16.279 25.6431 16.1261 22.963C16.1261 22.9629 16.1261 22.9627 16.1261 22.9626L16.1147 22.6627C16.1147 22.6625 16.1147 22.6624 16.1147 22.6623C16.0926 21.4758 16.34 20.2707 16.8883 19.1411C17.0663 18.7744 17.2538 18.421 17.4473 18.0816C17.4072 18.348 17.4278 18.6288 17.5191 18.9034C17.8215 19.8132 18.7868 20.3134 19.6764 20.0176C20.5661 19.7218 21.0398 18.7433 20.7374 17.8335C20.6798 17.6602 20.5981 17.5018 20.4975 17.3609C20.4681 17.3047 20.4364 17.2465 20.4024 17.1862C20.1506 16.7398 19.953 16.1663 20.0633 15.4715C20.1693 14.8043 20.5604 14.0192 21.4726 13.1231C21.3993 13.3398 21.3863 13.5457 21.4269 13.7435L21.4273 13.7454L21.4273 13.7454C21.4844 13.9709 21.6117 14.2212 21.8436 14.482L21.8443 14.4827L21.8443 14.4827C22.0671 14.7225 22.3651 14.9526 22.7155 15.1818L22.7166 15.1826L22.7166 15.1826C22.7778 15.2198 22.8415 15.257 22.9079 15.2942C22.9079 15.2942 22.9079 15.2942 22.9079 15.2942L22.9286 15.2573C23.841 15.768 24.7229 16.1871 25.509 16.5606L29.6203 27.4807ZM29.6203 27.4807L29.6067 27.4793L29.6439 27.4214C29.7447 27.2645 29.8392 27.1034 29.9271 26.9387L29.9442 26.9067L29.9549 26.9105M29.6203 27.4807L29.9549 26.9105M29.9549 26.9105C30.8115 25.2768 31.0253 23.2898 30.3889 21.3757L30.3869 21.3695L30.3848 21.3633C29.7299 19.3933 28.3069 17.901 26.5757 17.1236L26.5756 17.1237L26.574 17.1228C26.2418 16.9558 25.8786 16.7832 25.4915 16.5992C25.4915 16.5992 25.4915 16.5992 25.4915 16.5992L25.4915 16.5992L25.4915 16.5992L25.4922 16.5995L25.5096 16.5609L25.4934 16.5951L29.9549 26.9105Z" stroke="#161925" stroke-width="0.0846774"/>
<path d="M29.6505 27.5388C29.1342 28.3671 28.3591 29.0147 27.3916 29.3363C26.7031 29.5652 25.9939 29.6035 25.3145 29.479L25.3135 29.4788L25.3135 29.4788C24.6987 29.3811 24.1103 29.1546 23.6032 28.7992L23.5994 28.7965L23.5993 28.7968C21.9301 27.8787 20.9053 26.1264 20.7772 24.2935C20.7772 24.2934 20.7772 24.2932 20.7772 24.2931L20.7667 24.0881C20.7667 24.0879 20.7667 24.0878 20.7667 24.0877C20.7399 23.2769 20.8896 22.4565 21.237 21.6909C21.3395 21.4652 21.4472 21.2471 21.5584 21.0369C21.5467 21.1994 21.5664 21.3686 21.6217 21.5349C21.8313 22.1655 22.4772 22.5245 23.0684 22.328C23.6596 22.1314 23.962 21.4572 23.7524 20.8265C23.7125 20.7065 23.6569 20.5964 23.5889 20.4981L29.6505 27.5388ZM29.6505 27.5388L29.6417 27.5377L29.6757 27.4818C29.7401 27.3757 29.8004 27.2668 29.8562 27.1553L29.8733 27.1211L29.8803 27.1238C30.4191 26.0198 30.5363 24.6703 30.101 23.3611L30.0996 23.3568L30.0982 23.3525C29.6485 21.9999 28.7005 20.9662 27.5587 20.4177L27.5587 20.4177L27.557 20.4168C27.3374 20.2991 27.0972 20.1773 26.8411 20.0474L26.8411 20.0474L26.8408 20.0472L26.8404 20.047C26.3203 19.7832 25.7354 19.4865 25.1294 19.1266M29.6505 27.5388L25.1294 19.1266M25.1294 19.1266C25.0853 19.1004 25.0429 19.0741 25.0022 19.0479L25.0022 19.0479L25.0011 19.0471C24.7681 18.8863 24.5691 18.725 24.4193 18.5574L24.4193 18.5574L24.4187 18.5567C24.2626 18.3745 24.1754 18.2003 24.1351 18.0434L24.135 18.0434L24.1347 18.0416C24.1089 17.9197 24.111 17.7938 24.144 17.6629C23.5839 18.2486 23.3465 18.7657 23.2856 19.2079C23.2208 19.679 23.3555 20.0711 23.5248 20.378L25.1294 19.1266Z" stroke="#FF5D39" stroke-width="0.0846774"/>
</g>
<mask id="mask4_401_1582" style="mask-type:alpha" maskUnits="userSpaceOnUse" x="18" y="11" width="20" height="10">
<path d="M18.1819 17.0903L36.044 11.1523L37.1993 14.6277L19.3373 20.5658L18.1819 17.0903Z" fill="url(#paint6_linear_401_1582)"/>
</mask>
<g mask="url(#mask4_401_1582)">
<path d="M23.5369 17.278C23.4788 17.1032 23.4631 16.9393 23.49 16.7865C23.5162 16.6315 23.579 16.4976 23.6785 16.3845C23.7801 16.2708 23.9111 16.1873 24.0715 16.1339C24.2793 16.0649 24.4668 16.0585 24.634 16.1148C24.8033 16.1705 24.9393 16.2807 25.042 16.4453L24.7396 16.5458C24.6766 16.4525 24.593 16.3901 24.4889 16.3584C24.3867 16.3261 24.274 16.3305 24.1505 16.3715C23.9901 16.4249 23.8789 16.5235 23.8171 16.6674C23.7546 16.8093 23.7569 16.981 23.8239 17.1826C23.8916 17.3863 23.9933 17.5273 24.129 17.6055C24.2646 17.6838 24.4127 17.6963 24.5732 17.6429C24.6966 17.6019 24.7899 17.5389 24.853 17.4539C24.9162 17.369 24.9454 17.2679 24.9407 17.1506L25.2431 17.0501C25.2553 17.2379 25.2109 17.4069 25.11 17.557C25.0084 17.705 24.8558 17.8128 24.6522 17.8805C24.4917 17.9339 24.3368 17.9454 24.1873 17.9151C24.04 17.8841 23.9094 17.8145 23.7957 17.706C23.682 17.5976 23.5957 17.455 23.5369 17.278Z" fill="#161925"/>
<path d="M25.2251 16.7134C25.1677 16.5406 25.1524 16.3777 25.1792 16.2249C25.2054 16.07 25.2672 15.9363 25.3647 15.824C25.4642 15.7109 25.589 15.6295 25.7392 15.5795C25.8873 15.5303 26.0265 15.5194 26.1567 15.547C26.287 15.5745 26.3949 15.6277 26.4805 15.7066L26.3779 15.398L26.6618 15.3037L27.224 16.9947L26.9401 17.0891L26.8355 16.7743C26.8127 16.8915 26.7568 17.0015 26.6676 17.1043C26.5797 17.2043 26.4628 17.2786 26.3167 17.3272C26.1666 17.3771 26.0185 17.3852 25.8725 17.3515C25.7265 17.3178 25.5963 17.2457 25.4819 17.1352C25.3675 17.0247 25.2819 16.8841 25.2251 16.7134ZM26.658 16.2405C26.6156 16.1129 26.5529 16.0104 26.4701 15.9328C26.3872 15.8553 26.2933 15.8066 26.1884 15.7866C26.0849 15.7639 25.9807 15.77 25.8758 15.8049C25.7709 15.8397 25.6834 15.8962 25.6134 15.9743C25.5434 16.0524 25.4984 16.1473 25.4785 16.2591C25.4585 16.3708 25.4697 16.4904 25.5121 16.618C25.5552 16.7476 25.6185 16.8522 25.7021 16.9318C25.785 17.0093 25.8782 17.0594 25.9817 17.0821C26.0845 17.1028 26.1884 17.0957 26.2933 17.0608C26.3982 17.0259 26.4857 16.9694 26.5557 16.8913C26.627 16.8105 26.6727 16.7142 26.6927 16.6025C26.7119 16.4887 26.7004 16.368 26.658 16.2405Z" fill="#161925"/>
<path d="M27.0351 14.5216L27.7942 16.8051L27.5134 16.8985L26.7543 14.615L27.0351 14.5216Z" fill="#161925"/>
<path d="M28.8344 16.4902C28.676 16.5428 28.52 16.5547 28.3665 16.5258C28.215 16.4962 28.0803 16.4279 27.9625 16.3208C27.846 16.211 27.7588 16.0687 27.7006 15.8939C27.6432 15.7211 27.6296 15.5565 27.6599 15.4002C27.6915 15.2412 27.7606 15.1052 27.8669 14.9921C27.9726 14.877 28.1056 14.7928 28.2661 14.7395C28.4266 14.6861 28.5836 14.6739 28.7371 14.7028C28.89 14.7297 29.0253 14.7967 29.1431 14.9037C29.263 15.0101 29.352 15.1507 29.4102 15.3255C29.4683 15.5004 29.4805 15.6677 29.4468 15.8274C29.4144 15.9844 29.3444 16.1207 29.2367 16.2365C29.129 16.3523 28.9949 16.4368 28.8344 16.4902ZM28.7523 16.2433C28.8531 16.2098 28.9399 16.1547 29.0126 16.078C29.0854 16.0012 29.1327 15.9067 29.1548 15.7943C29.1789 15.6812 29.1683 15.5567 29.1232 15.4209C29.0781 15.2852 29.013 15.1788 28.9281 15.102C28.8431 15.0251 28.7499 14.9785 28.6485 14.9619C28.5463 14.9433 28.4449 14.9508 28.3441 14.9843C28.2412 15.0185 28.1544 15.0736 28.0838 15.1496C28.0145 15.2229 27.9698 15.3155 27.9499 15.4272C27.9299 15.5389 27.9425 15.6627 27.9876 15.7985C28.0334 15.9363 28.0968 16.0443 28.1776 16.1225C28.2605 16.2001 28.352 16.2485 28.452 16.2678C28.5514 16.285 28.6515 16.2768 28.7523 16.2433Z" fill="#161925"/>
<path d="M29.6863 14.6032C29.7035 14.4901 29.7485 14.3918 29.8212 14.3082C29.896 14.2239 29.9993 14.1599 30.1309 14.1161L30.2274 14.4062L30.1533 14.4308C29.8385 14.5354 29.7379 14.7585 29.8515 15.1L30.1572 16.0196L29.8764 16.113L29.3142 14.4219L29.595 14.3286L29.6863 14.6032Z" fill="#161925"/>
<path d="M30.3339 13.7779C30.2804 13.7957 30.229 13.7922 30.1797 13.7675C30.1304 13.7428 30.0968 13.7037 30.079 13.6502C30.0612 13.5967 30.0647 13.5453 30.0894 13.4959C30.1141 13.4466 30.1532 13.413 30.2067 13.3953C30.2582 13.3782 30.3075 13.3823 30.3548 13.4077C30.4041 13.4324 30.4377 13.4715 30.4555 13.525C30.4733 13.5785 30.4698 13.6299 30.4451 13.6793C30.4224 13.7279 30.3854 13.7608 30.3339 13.7779ZM30.561 14.0074L31.1232 15.6985L30.8424 15.7918L30.2802 14.1008L30.561 14.0074Z" fill="#161925"/>
<path d="M32.6569 14.1777C32.6747 14.2311 32.6904 14.2887 32.7041 14.3505L31.3525 14.7998C31.4182 14.963 31.5182 15.0748 31.6525 15.1353C31.7882 15.193 31.9301 15.1972 32.0782 15.1479C32.1996 15.1076 32.2912 15.0463 32.3529 14.9641C32.4161 14.8791 32.4484 14.7839 32.4498 14.6783L32.7522 14.5778C32.761 14.7553 32.7146 14.9181 32.613 15.0661C32.5108 15.212 32.3588 15.3185 32.1572 15.3856C31.9967 15.4389 31.8408 15.4508 31.6893 15.4212C31.5399 15.3909 31.4073 15.3219 31.2915 15.2141C31.175 15.1044 31.0877 14.962 31.0296 14.7872C30.9715 14.6123 30.9555 14.4474 30.9817 14.2925C31.0078 14.1376 31.072 14.0043 31.1743 13.8926C31.2779 13.7782 31.412 13.6937 31.5766 13.639C31.737 13.5856 31.8906 13.5734 32.0373 13.6023C32.184 13.6312 32.3108 13.6965 32.4176 13.798C32.5259 13.8968 32.6056 14.0234 32.6569 14.1777ZM32.3474 14.2155C32.3118 14.1085 32.2577 14.0248 32.1851 13.9644C32.1118 13.902 32.0275 13.8649 31.9322 13.8531C31.8383 13.8387 31.742 13.8478 31.6432 13.8807C31.5013 13.9279 31.3949 14.0135 31.3242 14.1375C31.2556 14.2608 31.2407 14.4051 31.2797 14.5704L32.3474 14.2155Z" fill="#161925"/>
<path d="M30.0423 16.4116C30.047 16.3885 30.0579 16.3673 30.0752 16.3479C30.0925 16.3285 30.1148 16.3143 30.1421 16.3052C30.1714 16.2955 30.2001 16.2936 30.228 16.2997C30.256 16.3058 30.2809 16.3193 30.3028 16.3402C30.3245 16.3606 30.3409 16.3875 30.352 16.4207C30.3629 16.4536 30.3659 16.4851 30.361 16.5153C30.3561 16.5455 30.3442 16.5717 30.3251 16.5938C30.3065 16.6159 30.2828 16.6317 30.2539 16.6413C30.2258 16.6506 30.199 16.6527 30.1735 16.6475C30.1485 16.6422 30.1274 16.6319 30.1104 16.6164L30.1304 16.6764L30.0763 16.6944L29.9303 16.255L29.9843 16.237L30.0423 16.4116ZM30.2968 16.4391C30.2886 16.4145 30.2766 16.3948 30.2606 16.3799C30.2447 16.365 30.2266 16.3556 30.2064 16.3518C30.1866 16.3478 30.1666 16.3492 30.1465 16.3559C30.1267 16.3624 30.1099 16.3735 30.0962 16.3891C30.0827 16.4041 30.0739 16.4226 30.0698 16.4446C30.066 16.4661 30.0681 16.489 30.0761 16.5131C30.0843 16.5377 30.0964 16.5576 30.1125 16.5729C30.1288 16.5877 30.1469 16.5973 30.1668 16.6016C30.187 16.6055 30.207 16.6041 30.2268 16.5975C30.247 16.5908 30.2638 16.5799 30.2773 16.5649C30.291 16.5494 30.2998 16.5308 30.3036 16.5093C30.3074 16.4874 30.3051 16.464 30.2968 16.4391Z" fill="#161925"/>
<path d="M30.6402 16.1456L30.7483 16.471L30.6943 16.4889L30.6783 16.4408C30.6736 16.4609 30.6635 16.4787 30.648 16.4944C30.6328 16.5096 30.6142 16.5208 30.592 16.5282C30.5667 16.5366 30.5422 16.5391 30.5186 16.5355C30.4948 16.5315 30.4735 16.521 30.4547 16.504C30.4362 16.4868 30.422 16.4632 30.412 16.4331L30.3486 16.2425L30.4021 16.2247L30.4631 16.4082C30.4737 16.4403 30.4901 16.4623 30.5121 16.4743C30.534 16.486 30.559 16.4871 30.5871 16.4778C30.616 16.4681 30.6358 16.4517 30.6465 16.4283C30.6572 16.405 30.6569 16.3763 30.6456 16.3423L30.5861 16.1635L30.6402 16.1456Z" fill="#161925"/>
<path d="M30.7852 16.156C30.7885 16.1343 30.7972 16.1154 30.8112 16.0993C30.8256 16.0831 30.8454 16.0708 30.8708 16.0623L30.8893 16.1181L30.8751 16.1229C30.8145 16.143 30.7951 16.1859 30.817 16.2516L30.8758 16.4286L30.8218 16.4465L30.7136 16.1212L30.7676 16.1032L30.7852 16.156Z" fill="#161925"/>
<path d="M31.0738 15.9948C31.1134 15.9817 31.1495 15.9831 31.1821 15.9991C31.2145 16.0146 31.2382 16.045 31.2532 16.0901L31.317 16.2819L31.2636 16.2997L31.2024 16.1156C31.1916 16.0832 31.1752 16.0611 31.1533 16.0495C31.1313 16.0375 31.1063 16.0361 31.0782 16.0455C31.0497 16.0549 31.0299 16.0714 31.0188 16.0949C31.0081 16.1182 31.0084 16.1469 31.0197 16.181L31.0795 16.3609L31.0255 16.3788L30.9173 16.0535L30.9713 16.0355L30.9867 16.0818C30.9919 16.0616 31.002 16.044 31.0172 16.0288C31.0328 16.0135 31.0517 16.0022 31.0738 15.9948Z" fill="#161925"/>
<path d="M31.567 15.8869L31.4987 15.9096L31.5921 16.1905L31.538 16.2084L31.4447 15.9276L31.4025 15.9416L31.3877 15.8971L31.4298 15.8831L31.4222 15.8599C31.41 15.8235 31.4105 15.7939 31.4236 15.7711C31.4369 15.7477 31.4644 15.7291 31.506 15.7153L31.521 15.7605C31.4972 15.7683 31.482 15.7787 31.4752 15.7915C31.4688 15.8037 31.4691 15.8206 31.4762 15.8419L31.4839 15.8651L31.5522 15.8424L31.567 15.8869Z" fill="#161925"/>
<path d="M31.8492 16.1109C31.8187 16.1211 31.7887 16.1233 31.7592 16.1178C31.73 16.1121 31.7041 16.0989 31.6814 16.0783C31.659 16.0572 31.6422 16.0298 31.631 15.9962C31.62 15.9629 31.6174 15.9313 31.6232 15.9012C31.6293 15.8706 31.6426 15.8444 31.663 15.8227C31.6834 15.8005 31.709 15.7843 31.7399 15.7741C31.7707 15.7638 31.8009 15.7614 31.8305 15.767C31.8599 15.7722 31.8859 15.7851 31.9086 15.8057C31.9317 15.8261 31.9488 15.8532 31.96 15.8868C31.9712 15.9205 31.9735 15.9527 31.967 15.9834C31.9608 16.0136 31.9473 16.0398 31.9266 16.0621C31.9059 16.0844 31.8801 16.1007 31.8492 16.1109ZM31.8334 16.0634C31.8528 16.057 31.8695 16.0464 31.8835 16.0316C31.8975 16.0168 31.9066 15.9986 31.9108 15.977C31.9155 15.9553 31.9135 15.9313 31.9048 15.9052C31.8961 15.8791 31.8836 15.8586 31.8672 15.8438C31.8509 15.829 31.8329 15.82 31.8134 15.8169C31.7938 15.8133 31.7743 15.8147 31.7549 15.8212C31.7351 15.8277 31.7184 15.8384 31.7048 15.853C31.6914 15.8671 31.6828 15.8849 31.679 15.9064C31.6752 15.9279 31.6776 15.9517 31.6863 15.9778C31.6951 16.0043 31.7073 16.0251 31.7228 16.0402C31.7388 16.0551 31.7564 16.0644 31.7756 16.0681C31.7948 16.0714 31.814 16.0699 31.8334 16.0634Z" fill="#161925"/>
<path d="M32.0309 15.7419C32.0343 15.7202 32.0429 15.7012 32.0569 15.6852C32.0713 15.6689 32.0912 15.6566 32.1165 15.6482L32.135 15.704L32.1208 15.7087C32.0602 15.7289 32.0409 15.7718 32.0627 15.8375L32.1215 16.0145L32.0675 16.0324L31.9593 15.707L32.0134 15.6891L32.0309 15.7419Z" fill="#161925"/>
<path d="M32.3196 15.4607L32.4657 15.9L32.4117 15.918L32.2656 15.4786L32.3196 15.4607Z" fill="#161925"/>
<path d="M32.4422 15.4878C32.4319 15.4913 32.422 15.4906 32.4125 15.4858C32.403 15.4811 32.3965 15.4736 32.3931 15.4633C32.3897 15.453 32.3903 15.4431 32.3951 15.4336C32.3999 15.4241 32.4074 15.4176 32.4177 15.4142C32.4276 15.4109 32.4371 15.4117 32.4462 15.4166C32.4557 15.4214 32.4621 15.4289 32.4655 15.4392C32.469 15.4495 32.4683 15.4594 32.4635 15.4689C32.4592 15.4782 32.4521 15.4846 32.4422 15.4878ZM32.4858 15.532L32.594 15.8574L32.54 15.8753L32.4318 15.55L32.4858 15.532Z" fill="#161925"/>
<path d="M32.7073 15.5078L32.6391 15.5305L32.7324 15.8114L32.6784 15.8293L32.585 15.5485L32.5429 15.5625L32.5281 15.518L32.5702 15.504L32.5625 15.4808C32.5504 15.4444 32.5509 15.4148 32.564 15.392C32.5773 15.3686 32.6048 15.35 32.6463 15.3362L32.6613 15.3814C32.6376 15.3892 32.6223 15.3996 32.6156 15.4124C32.6091 15.4246 32.6094 15.4415 32.6166 15.4628L32.6242 15.486L32.6925 15.4633L32.7073 15.5078Z" fill="#161925"/>
<path d="M33.0845 15.4998C33.088 15.5101 33.091 15.5212 33.0936 15.533L32.8335 15.6195C32.8462 15.6509 32.8654 15.6724 32.8913 15.6841C32.9174 15.6952 32.9447 15.696 32.9732 15.6865C32.9965 15.6787 33.0142 15.6669 33.026 15.6511C33.0382 15.6348 33.0444 15.6164 33.0447 15.5961L33.1029 15.5768C33.1046 15.6109 33.0956 15.6423 33.0761 15.6707C33.0564 15.6988 33.0272 15.7193 32.9884 15.7322C32.9575 15.7425 32.9275 15.7448 32.8983 15.7391C32.8696 15.7332 32.8441 15.72 32.8218 15.6992C32.7994 15.6781 32.7826 15.6507 32.7714 15.6171C32.7602 15.5834 32.7572 15.5517 32.7622 15.5219C32.7672 15.4921 32.7796 15.4664 32.7993 15.445C32.8192 15.4229 32.845 15.4067 32.8767 15.3961C32.9075 15.3859 32.9371 15.3835 32.9653 15.3891C32.9935 15.3947 33.0179 15.4072 33.0385 15.4267C33.0593 15.4458 33.0747 15.4701 33.0845 15.4998ZM33.025 15.5071C33.0181 15.4865 33.0077 15.4704 32.9937 15.4588C32.9796 15.4468 32.9634 15.4396 32.9451 15.4374C32.927 15.4346 32.9085 15.4363 32.8895 15.4427C32.8622 15.4517 32.8417 15.4682 32.8281 15.4921C32.8149 15.5158 32.812 15.5436 32.8195 15.5754L33.025 15.5071Z" fill="#161925"/>
<path d="M34.0296 13.7893C33.9714 13.6144 33.9558 13.4505 33.9827 13.2977C34.0088 13.1428 34.0717 13.0088 34.1712 12.8958C34.2727 12.782 34.4037 12.6985 34.5642 12.6452C34.772 12.5761 34.9595 12.5697 35.1267 12.6261C35.296 12.6817 35.432 12.7919 35.5347 12.9565L35.2323 13.057C35.1693 12.9637 35.0857 12.9013 34.9815 12.8697C34.8794 12.8374 34.7666 12.8417 34.6432 12.8828C34.4827 12.9361 34.3716 13.0347 34.3098 13.1787C34.2473 13.3205 34.2495 13.4923 34.3166 13.6939C34.3843 13.8975 34.486 14.0385 34.6216 14.1168C34.7573 14.195 34.9054 14.2075 35.0658 14.1541C35.1893 14.1131 35.2826 14.0501 35.3457 13.9652C35.4088 13.8802 35.4381 13.7791 35.4334 13.6619L35.7358 13.5613C35.748 13.7492 35.7036 13.9181 35.6027 14.0682C35.5011 14.2162 35.3485 14.324 35.1448 14.3917C34.9844 14.4451 34.8294 14.4566 34.68 14.4263C34.5326 14.3954 34.4021 14.3257 34.2884 14.2173C34.1747 14.1089 34.0884 13.9662 34.0296 13.7893Z" fill="#161925"/>
<path d="M35.7178 13.2246C35.6604 13.0518 35.6451 12.889 35.6719 12.7361C35.6981 12.5812 35.7599 12.4476 35.8573 12.3352C35.9568 12.2222 36.0817 12.1407 36.2319 12.0908C36.38 12.0415 36.5192 12.0307 36.6494 12.0582C36.7796 12.0857 36.8876 12.1389 36.9732 12.2178L36.8706 11.9093L37.1545 11.8149L37.7167 13.5059L37.4328 13.6003L37.3281 13.2856C37.3054 13.4028 37.2495 13.5128 37.1603 13.6155C37.0724 13.7155 36.9555 13.7898 36.8094 13.8384C36.6592 13.8883 36.5111 13.8964 36.3651 13.8627C36.2191 13.829 36.089 13.7569 35.9746 13.6464C35.8602 13.536 35.7746 13.3954 35.7178 13.2246ZM37.1507 12.7517C37.1083 12.6242 37.0456 12.5216 36.9627 12.4441C36.8798 12.3665 36.786 12.3178 36.6811 12.2978C36.5776 12.2751 36.4734 12.2812 36.3684 12.3161C36.2635 12.351 36.1761 12.4074 36.1061 12.4855C36.0361 12.5636 35.9911 12.6586 35.9711 12.7703C35.9512 12.882 35.9624 13.0017 36.0048 13.1292C36.0479 13.2588 36.1112 13.3634 36.1948 13.443C36.2777 13.5205 36.3709 13.5707 36.4744 13.5934C36.5772 13.614 36.6811 13.6069 36.786 13.572C36.8909 13.5371 36.9783 13.4807 37.0483 13.4026C37.1197 13.3217 37.1654 13.2254 37.1853 13.1137C37.2046 12.9999 37.1931 12.8792 37.1507 12.7517Z" fill="#161925"/>
<path d="M37.5277 11.0328L38.2869 13.3164L38.0061 13.4097L37.2469 11.1262L37.5277 11.0328Z" fill="#161925"/>
<path d="M39.3271 13.0014C39.1687 13.0541 39.0127 13.0659 38.8592 13.037C38.7077 13.0074 38.573 12.9391 38.4552 12.8321C38.3387 12.7223 38.2514 12.58 38.1933 12.4051C38.1358 12.2323 38.1223 12.0677 38.1526 11.9115C38.1842 11.7524 38.2532 11.6164 38.3596 11.5034C38.4653 11.3883 38.5983 11.3041 38.7588 11.2507C38.9192 11.1974 39.0762 11.1852 39.2298 11.2141C39.3827 11.2409 39.518 11.3079 39.6358 11.4149C39.7557 11.5213 39.8447 11.6619 39.9029 11.8368C39.961 12.0116 39.9732 12.1789 39.9395 12.3386C39.9071 12.4956 39.8371 12.632 39.7294 12.7477C39.6216 12.8635 39.4875 12.9481 39.3271 13.0014ZM39.245 12.7545C39.3458 12.721 39.4326 12.6659 39.5053 12.5892C39.578 12.5125 39.6254 12.4179 39.6474 12.3055C39.6715 12.1924 39.661 12.0679 39.6159 11.9322C39.5707 11.7964 39.5057 11.6901 39.4207 11.6132C39.3358 11.5364 39.2426 11.4897 39.1411 11.4731C39.039 11.4546 38.9375 11.462 38.8367 11.4955C38.7339 11.5297 38.6471 11.5848 38.5764 11.6609C38.5071 11.7342 38.4625 11.8267 38.4425 11.9384C38.4226 12.0502 38.4351 12.1739 38.4803 12.3097C38.5261 12.4475 38.5894 12.5555 38.6703 12.6338C38.7532 12.7113 38.8446 12.7597 38.9447 12.779C39.0441 12.7962 39.1442 12.7881 39.245 12.7545Z" fill="#161925"/>
<path d="M40.179 11.1144C40.1962 11.0013 40.2412 10.903 40.3139 10.8194C40.3887 10.7351 40.4919 10.6711 40.6236 10.6274L40.72 10.9174L40.646 10.942C40.3312 11.0467 40.2306 11.2697 40.3441 11.6112L40.6498 12.5308L40.369 12.6242L39.8069 10.9331L40.0877 10.8398L40.179 11.1144Z" fill="#161925"/>
<path d="M40.8266 10.2891C40.7731 10.3069 40.7217 10.3035 40.6724 10.2787C40.623 10.254 40.5895 10.2149 40.5717 10.1614C40.5539 10.1079 40.5574 10.0565 40.5821 10.0072C40.6068 9.95784 40.6459 9.92428 40.6994 9.9065C40.7508 9.8894 40.8002 9.89355 40.8475 9.91896C40.8968 9.94368 40.9304 9.98278 40.9482 10.0363C40.9659 10.0898 40.9625 10.1412 40.9377 10.1905C40.9151 10.2392 40.878 10.272 40.8266 10.2891ZM41.0537 10.5186L41.6159 12.2097L41.335 12.303L40.7729 10.612L41.0537 10.5186Z" fill="#161925"/>
<path d="M43.1496 10.6889C43.1674 10.7424 43.1831 10.8 43.1968 10.8617L41.8452 11.311C41.9108 11.4742 42.0108 11.5861 42.1452 11.6465C42.2809 11.7042 42.4228 11.7084 42.5709 11.6592C42.6923 11.6188 42.7838 11.5575 42.8456 11.4753C42.9087 11.3904 42.941 11.2951 42.9425 11.1895L43.2449 11.089C43.2537 11.2666 43.2073 11.4293 43.1057 11.5773C43.0034 11.7233 42.8515 11.8298 42.6499 11.8968C42.4894 11.9501 42.3334 11.962 42.182 11.9324C42.0325 11.9021 41.8999 11.8331 41.7842 11.7254C41.6677 11.6156 41.5804 11.4733 41.5223 11.2984C41.4641 11.1235 41.4482 10.9587 41.4743 10.8037C41.5005 10.6488 41.5647 10.5155 41.667 10.4039C41.7706 10.2895 41.9047 10.2049 42.0692 10.1502C42.2297 10.0968 42.3833 10.0846 42.53 10.1135C42.6767 10.1425 42.8034 10.2077 42.9103 10.3092C43.0185 10.408 43.0983 10.5346 43.1496 10.6889ZM42.84 10.7267C42.8045 10.6197 42.7504 10.536 42.6778 10.4756C42.6045 10.4132 42.5202 10.3761 42.4249 10.3644C42.331 10.3499 42.2346 10.3591 42.1359 10.3919C41.9939 10.4391 41.8876 10.5247 41.8169 10.6487C41.7482 10.7721 41.7334 10.9164 41.7723 11.0816L42.84 10.7267Z" fill="#161925"/>
<path d="M13.0188 20.7741C12.9607 20.5993 12.9451 20.4354 12.9719 20.2826C12.9981 20.1276 13.0609 19.9937 13.1604 19.8806C13.262 19.7669 13.393 19.6834 13.5535 19.63C13.7612 19.5609 13.9487 19.5546 14.116 19.6109C14.2853 19.6666 14.4213 19.7767 14.524 19.9414L14.2215 20.0419C14.1586 19.9486 14.075 19.8862 13.9708 19.8545C13.8687 19.8222 13.7559 19.8266 13.6325 19.8676C13.472 19.921 13.3608 20.0196 13.299 20.1635C13.2365 20.3054 13.2388 20.4771 13.3058 20.6787C13.3735 20.8824 13.4752 21.0234 13.6109 21.1016C13.7466 21.1799 13.8946 21.1923 14.0551 21.139C14.1785 21.098 14.2718 21.035 14.335 20.95C14.3981 20.8651 14.4273 20.764 14.4226 20.6467L14.725 20.5462C14.7372 20.734 14.6929 20.903 14.592 21.0531C14.4904 21.2011 14.3378 21.3089 14.1341 21.3766C13.9736 21.43 13.8187 21.4415 13.6693 21.4112C13.5219 21.3802 13.3913 21.3105 13.2776 21.2021C13.1639 21.0937 13.0776 20.9511 13.0188 20.7741Z" fill="#161925"/>
<path d="M14.7071 20.2095C14.6496 20.0367 14.6343 19.8738 14.6612 19.721C14.6874 19.5661 14.7492 19.4324 14.8466 19.3201C14.9461 19.207 15.0709 19.1256 15.2211 19.0756C15.3692 19.0264 15.5084 19.0155 15.6387 19.0431C15.7689 19.0706 15.8768 19.1238 15.9624 19.2027L15.8599 18.8941L16.1438 18.7997L16.7059 20.4908L16.422 20.5852L16.3174 20.2704C16.2947 20.3876 16.2387 20.4976 16.1495 20.6004C16.0617 20.7004 15.9447 20.7747 15.7987 20.8232C15.6485 20.8732 15.5004 20.8813 15.3544 20.8476C15.2084 20.8139 15.0782 20.7418 14.9638 20.6313C14.8494 20.5208 14.7638 20.3802 14.7071 20.2095ZM16.1399 19.7366C16.0975 19.609 16.0349 19.5065 15.952 19.4289C15.8691 19.3514 15.7752 19.3027 15.6703 19.2827C15.5668 19.26 15.4626 19.2661 15.3577 19.3009C15.2528 19.3358 15.1653 19.3923 15.0953 19.4704C15.0254 19.5485 14.9804 19.6434 14.9604 19.7552C14.9404 19.8669 14.9516 19.9865 14.994 20.1141C15.0371 20.2437 15.1005 20.3483 15.184 20.4279C15.2669 20.5054 15.3601 20.5555 15.4636 20.5782C15.5664 20.5989 15.6703 20.5918 15.7752 20.5569C15.8801 20.522 15.9676 20.4655 16.0376 20.3874C16.109 20.3066 16.1546 20.2103 16.1746 20.0986C16.1939 19.9848 16.1823 19.8641 16.1399 19.7366Z" fill="#161925"/>
<path d="M16.517 18.0177L17.2761 20.3012L16.9953 20.3946L16.2362 18.1111L16.517 18.0177Z" fill="#161925"/>
<path d="M18.3163 19.9863C18.1579 20.0389 18.002 20.0508 17.8484 20.0219C17.6969 19.9923 17.5623 19.924 17.4444 19.8169C17.328 19.7071 17.2407 19.5648 17.1826 19.39C17.1251 19.2171 17.1115 19.0526 17.1418 18.8963C17.1735 18.7373 17.2425 18.6013 17.3488 18.4882C17.4545 18.3731 17.5876 18.2889 17.748 18.2356C17.9085 18.1822 18.0655 18.17 18.2191 18.1989C18.3719 18.2258 18.5073 18.2928 18.6251 18.3998C18.745 18.5062 18.834 18.6468 18.8921 18.8216C18.9502 18.9965 18.9624 19.1638 18.9287 19.3235C18.8964 19.4805 18.8263 19.6168 18.7186 19.7326C18.6109 19.8484 18.4768 19.9329 18.3163 19.9863ZM18.2343 19.7394C18.3351 19.7059 18.4218 19.6508 18.4946 19.5741C18.5673 19.4973 18.6147 19.4028 18.6367 19.2903C18.6608 19.1772 18.6503 19.0528 18.6051 18.917C18.56 18.7813 18.4949 18.6749 18.41 18.5981C18.3251 18.5212 18.2319 18.4745 18.1304 18.458C18.0283 18.4394 17.9268 18.4469 17.826 18.4804C17.7231 18.5146 17.6364 18.5697 17.5657 18.6457C17.4964 18.719 17.4518 18.8116 17.4318 18.9233C17.4118 19.035 17.4244 19.1588 17.4695 19.2945C17.5154 19.4324 17.5787 19.5404 17.6595 19.6186C17.7424 19.6962 17.8339 19.7446 17.934 19.7638C18.0334 19.7811 18.1335 19.7729 18.2343 19.7394Z" fill="#161925"/>
<path d="M19.1682 18.0993C19.1855 17.9862 19.2304 17.8878 19.3032 17.8043C19.378 17.72 19.4812 17.656 19.6129 17.6122L19.7093 17.9023L19.6352 17.9269C19.3205 18.0315 19.2199 18.2546 19.3334 18.5961L19.6391 19.5157L19.3583 19.609L18.7961 17.918L19.0769 17.8246L19.1682 18.0993Z" fill="#161925"/>
<path d="M19.8159 17.274C19.7624 17.2918 19.711 17.2883 19.6616 17.2636C19.6123 17.2389 19.5787 17.1998 19.5609 17.1463C19.5432 17.0928 19.5466 17.0414 19.5713 16.992C19.5961 16.9427 19.6352 16.9091 19.6887 16.8914C19.7401 16.8743 19.7894 16.8784 19.8367 16.9038C19.8861 16.9285 19.9196 16.9676 19.9374 17.0211C19.9552 17.0746 19.9517 17.126 19.927 17.1754C19.9043 17.224 19.8673 17.2569 19.8159 17.274ZM20.0429 17.5035L20.6051 19.1946L20.3243 19.2879L19.7621 17.5969L20.0429 17.5035Z" fill="#161925"/>
<path d="M22.1389 17.6737C22.1566 17.7272 22.1724 17.7848 22.186 17.8465L20.8344 18.2959C20.9001 18.4591 21.0001 18.5709 21.1344 18.6314C21.2701 18.689 21.412 18.6933 21.5601 18.644C21.6815 18.6037 21.7731 18.5424 21.8349 18.4602C21.898 18.3752 21.9303 18.28 21.9318 18.1744L22.2342 18.0738C22.2429 18.2514 22.1965 18.4142 22.0949 18.5622C21.9927 18.7081 21.8407 18.8146 21.6391 18.8816C21.4787 18.935 21.3227 18.9469 21.1712 18.9173C21.0218 18.887 20.8892 18.818 20.7734 18.7102C20.657 18.6005 20.5697 18.4581 20.5115 18.2833C20.4534 18.1084 20.4374 17.9435 20.4636 17.7886C20.4898 17.6337 20.554 17.5004 20.6562 17.3887C20.7598 17.2743 20.8939 17.1898 21.0585 17.1351C21.219 17.0817 21.3725 17.0695 21.5192 17.0984C21.6659 17.1273 21.7927 17.1925 21.8996 17.2941C22.0078 17.3929 22.0876 17.5195 22.1389 17.6737ZM21.8293 17.7115C21.7937 17.6046 21.7396 17.5209 21.667 17.4605C21.5937 17.3981 21.5094 17.361 21.4141 17.3492C21.3202 17.3348 21.2239 17.3439 21.1252 17.3768C20.9832 17.424 20.8769 17.5096 20.8062 17.6336C20.7375 17.7569 20.7226 17.9012 20.7616 18.0665L21.8293 17.7115Z" fill="#161925"/>
<path d="M19.5243 19.9082C19.5289 19.8851 19.5399 19.8638 19.5572 19.8445C19.5745 19.8251 19.5968 19.8109 19.6241 19.8018C19.6534 19.792 19.682 19.7902 19.71 19.7963C19.7379 19.8024 19.7628 19.8159 19.7847 19.8367C19.8065 19.8572 19.8229 19.8841 19.8339 19.9173C19.8448 19.9502 19.8479 19.9817 19.843 20.0119C19.838 20.0421 19.8261 20.0683 19.8071 20.0904C19.7885 20.1124 19.7647 20.1282 19.7358 20.1379C19.7077 20.1472 19.6809 20.1493 19.6555 20.1441C19.6304 20.1388 19.6094 20.1285 19.5924 20.113L19.6123 20.173L19.5583 20.1909L19.4122 19.7516L19.4662 19.7336L19.5243 19.9082ZM19.7787 19.9357C19.7705 19.9111 19.7585 19.8914 19.7425 19.8765C19.7266 19.8616 19.7085 19.8522 19.6884 19.8483C19.6686 19.8444 19.6486 19.8457 19.6284 19.8524C19.6086 19.859 19.5918 19.8701 19.5781 19.8856C19.5646 19.9007 19.5559 19.9192 19.5517 19.9412C19.5479 19.9627 19.55 19.9855 19.558 20.0097C19.5662 20.0342 19.5783 20.0542 19.5944 20.0695C19.6107 20.0843 19.6289 20.0938 19.6488 20.0982C19.669 20.1021 19.6889 20.1007 19.7087 20.0941C19.7289 20.0874 19.7457 20.0765 19.7592 20.0615C19.7729 20.0459 19.7817 20.0274 19.7856 20.0059C19.7893 19.984 19.787 19.9606 19.7787 19.9357Z" fill="#161925"/>
<path d="M20.1221 19.6422L20.2303 19.9675L20.1763 19.9855L20.1603 19.9374C20.1555 19.9575 20.1454 19.9753 20.1299 19.991C20.1148 20.0062 20.0961 20.0174 20.0739 20.0248C20.0486 20.0332 20.0241 20.0356 20.0005 20.0321C19.9768 20.0281 19.9555 20.0176 19.9366 20.0005C19.9182 19.9834 19.9039 19.9598 19.8939 19.9297L19.8306 19.7391L19.884 19.7213L19.945 19.9048C19.9557 19.9368 19.972 19.9589 19.994 19.9709C20.0159 19.9825 20.0409 19.9837 20.069 19.9743C20.0979 19.9647 20.1177 19.9483 20.1284 19.9249C20.1391 19.9016 20.1388 19.8729 20.1275 19.8388L20.0681 19.6601L20.1221 19.6422Z" fill="#161925"/>
<path d="M20.2671 19.6526C20.2704 19.6309 20.2791 19.6119 20.2931 19.5959C20.3075 19.5797 20.3274 19.5673 20.3527 19.5589L20.3712 19.6147L20.357 19.6195C20.2964 19.6396 20.2771 19.6825 20.2989 19.7482L20.3577 19.9252L20.3037 19.9431L20.1955 19.6177L20.2496 19.5998L20.2671 19.6526Z" fill="#161925"/>
<path d="M20.5558 19.4914C20.5954 19.4782 20.6314 19.4796 20.664 19.4956C20.6964 19.5112 20.7202 19.5416 20.7352 19.5867L20.7989 19.7785L20.7455 19.7963L20.6843 19.6122C20.6735 19.5797 20.6572 19.5577 20.6353 19.5461C20.6133 19.534 20.5882 19.5327 20.5601 19.5421C20.5316 19.5515 20.5118 19.568 20.5007 19.5915C20.49 19.6148 20.4903 19.6435 20.5016 19.6775L20.5614 19.8575L20.5074 19.8754L20.3992 19.55L20.4533 19.5321L20.4686 19.5784C20.4738 19.5582 20.484 19.5405 20.4992 19.5254C20.5147 19.5101 20.5336 19.4988 20.5558 19.4914Z" fill="#161925"/>
<path d="M21.0489 19.3835L20.9806 19.4062L21.074 19.6871L21.02 19.705L20.9266 19.4242L20.8844 19.4382L20.8696 19.3937L20.9118 19.3796L20.9041 19.3565C20.892 19.3201 20.8925 19.2905 20.9055 19.2676C20.9189 19.2443 20.9463 19.2257 20.9879 19.2119L21.0029 19.257C20.9791 19.2649 20.9639 19.2753 20.9572 19.2881C20.9507 19.3003 20.951 19.3171 20.9581 19.3385L20.9658 19.3617L21.0341 19.339L21.0489 19.3835Z" fill="#161925"/>
<path d="M21.3311 19.6075C21.3007 19.6176 21.2706 19.6199 21.2411 19.6144C21.212 19.6087 21.186 19.5955 21.1634 19.5749C21.141 19.5538 21.1242 19.5264 21.113 19.4928C21.1019 19.4595 21.0993 19.4279 21.1051 19.3978C21.1112 19.3672 21.1245 19.341 21.145 19.3193C21.1653 19.2971 21.1909 19.2809 21.2218 19.2706C21.2527 19.2604 21.2829 19.258 21.3124 19.2636C21.3418 19.2688 21.3679 19.2816 21.3905 19.3022C21.4136 19.3227 21.4307 19.3498 21.4419 19.3834C21.4531 19.4171 21.4555 19.4492 21.449 19.48C21.4427 19.5102 21.4293 19.5364 21.4085 19.5587C21.3878 19.581 21.362 19.5972 21.3311 19.6075ZM21.3153 19.56C21.3347 19.5536 21.3514 19.5429 21.3654 19.5282C21.3794 19.5134 21.3885 19.4952 21.3928 19.4736C21.3974 19.4518 21.3954 19.4279 21.3867 19.4018C21.378 19.3756 21.3655 19.3552 21.3492 19.3404C21.3328 19.3256 21.3149 19.3166 21.2954 19.3134C21.2757 19.3099 21.2562 19.3113 21.2368 19.3178C21.217 19.3243 21.2003 19.3349 21.1867 19.3496C21.1734 19.3637 21.1648 19.3815 21.1609 19.403C21.1571 19.4245 21.1595 19.4483 21.1682 19.4744C21.177 19.5009 21.1892 19.5217 21.2048 19.5368C21.2207 19.5517 21.2383 19.561 21.2576 19.5647C21.2767 19.568 21.296 19.5665 21.3153 19.56Z" fill="#161925"/>
<path d="M21.5129 19.2385C21.5162 19.2167 21.5248 19.1978 21.5388 19.1817C21.5532 19.1655 21.5731 19.1532 21.5984 19.1448L21.617 19.2006L21.6027 19.2053C21.5422 19.2255 21.5228 19.2684 21.5446 19.3341L21.6035 19.511L21.5494 19.529L21.4413 19.2036L21.4953 19.1857L21.5129 19.2385Z" fill="#161925"/>
<path d="M21.8016 18.9572L21.9476 19.3966L21.8936 19.4146L21.7475 18.9752L21.8016 18.9572Z" fill="#161925"/>
<path d="M21.9241 18.9844C21.9138 18.9878 21.9039 18.9872 21.8944 18.9824C21.8849 18.9777 21.8785 18.9701 21.875 18.9598C21.8716 18.9496 21.8723 18.9397 21.877 18.9302C21.8818 18.9207 21.8893 18.9142 21.8996 18.9108C21.9095 18.9075 21.919 18.9083 21.9281 18.9132C21.9376 18.918 21.9441 18.9255 21.9475 18.9358C21.9509 18.9461 21.9502 18.956 21.9455 18.9654C21.9411 18.9748 21.934 18.9811 21.9241 18.9844ZM21.9678 19.0286L22.076 19.354L22.0219 19.3719L21.9137 19.0465L21.9678 19.0286Z" fill="#161925"/>
<path d="M22.1893 19.0044L22.121 19.0271L22.2144 19.308L22.1603 19.3259L22.067 19.0451L22.0248 19.0591L22.01 19.0146L22.0522 19.0005L22.0445 18.9774C22.0323 18.941 22.0328 18.9113 22.0459 18.8885C22.0593 18.8652 22.0867 18.8466 22.1283 18.8328L22.1433 18.8779C22.1195 18.8858 22.1043 18.8962 22.0975 18.909C22.0911 18.9212 22.0914 18.938 22.0985 18.9594L22.1062 18.9826L22.1745 18.9599L22.1893 19.0044Z" fill="#161925"/>
<path d="M22.5665 18.9964C22.5699 19.0067 22.5729 19.0178 22.5755 19.0296L22.3155 19.1161C22.3281 19.1475 22.3474 19.169 22.3732 19.1806C22.3993 19.1917 22.4266 19.1926 22.4551 19.1831C22.4785 19.1753 22.4961 19.1635 22.508 19.1477C22.5201 19.1314 22.5263 19.113 22.5266 19.0927L22.5848 19.0734C22.5865 19.1075 22.5776 19.1389 22.558 19.1673C22.5383 19.1954 22.5091 19.2159 22.4703 19.2288C22.4394 19.2391 22.4094 19.2413 22.3803 19.2356C22.3515 19.2298 22.326 19.2165 22.3037 19.1958C22.2813 19.1747 22.2645 19.1473 22.2534 19.1137C22.2422 19.08 22.2391 19.0483 22.2441 19.0185C22.2492 18.9887 22.2615 18.963 22.2812 18.9415C22.3011 18.9195 22.3269 18.9033 22.3586 18.8927C22.3895 18.8825 22.419 18.8801 22.4472 18.8857C22.4755 18.8912 22.4999 18.9038 22.5204 18.9233C22.5413 18.9423 22.5566 18.9667 22.5665 18.9964ZM22.5069 19.0037C22.5001 18.9831 22.4897 18.967 22.4757 18.9553C22.4616 18.9433 22.4454 18.9362 22.427 18.9339C22.409 18.9312 22.3904 18.9329 22.3714 18.9392C22.3441 18.9483 22.3236 18.9648 22.31 18.9887C22.2968 19.0124 22.294 19.0402 22.3015 19.0719L22.5069 19.0037Z" fill="#161925"/>
</g>
<path d="M30.391 12.9584C30.4556 12.9915 30.5087 13.0384 30.5487 13.0939L30.5586 13.1081C30.6442 13.2369 30.6613 13.4067 30.5891 13.5543C30.5711 13.6044 30.5405 13.65 30.5014 13.6884C30.4591 13.7319 30.4061 13.7661 30.3448 13.7865C30.2563 13.8159 30.1645 13.8119 30.0829 13.7811L30.0839 13.7815L30.084 13.7815L30.0846 13.781C30.0745 13.7772 30.0645 13.7731 30.0547 13.7685L30.0543 13.7691C29.9571 13.7236 29.8777 13.639 29.8408 13.528L29.8407 13.5277L29.8405 13.5273C29.8028 13.4139 29.8173 13.2958 29.8709 13.2001C29.8805 13.181 29.8913 13.1605 29.9029 13.1388L29.9029 13.1388C29.9264 13.0946 29.9527 13.0451 29.9773 12.9903L29.9822 12.9787C29.9905 12.9562 29.9963 12.9356 29.9983 12.9172C30 12.8976 29.9973 12.8822 29.9924 12.8703C29.9863 12.8574 29.9758 12.8467 29.96 12.8386L29.962 12.8388L29.9611 12.8385L29.9621 12.8388C30.1197 12.8568 30.1552 12.9325 30.1627 12.9915L30.1644 13.0028C30.1645 13.0126 30.1662 13.0225 30.1694 13.0322C30.1863 13.0831 30.2405 13.1109 30.2905 13.0943C30.3404 13.0777 30.3672 13.023 30.3503 12.9721C30.3439 12.9528 30.3321 12.9368 30.3172 12.9253L30.3156 12.9234C30.3405 12.9338 30.3657 12.9454 30.391 12.9584Z" fill="url(#paint7_linear_401_1582)"/>
</g>
<mask id="mask5_401_1582" style="mask-type:alpha" maskUnits="userSpaceOnUse" x="16" y="5" width="24" height="23">
<path d="M16.8445 13.0648C16.3867 11.7902 17.2355 10.4046 18.3493 9.79078C18.4393 9.74122 18.5309 9.69021 18.6252 9.63767L18.6252 9.63767C19.6996 9.03947 21.1304 8.24277 24.5012 7.1222C28.168 5.90322 29.9427 5.47152 31.5096 5.431C33.0765 5.39048 34.3377 5.86111 34.724 7.18693L36.7238 13.823L38.9345 19.9023C39.1967 20.6017 39.1331 21.3686 38.8098 21.9999C37.003 21.2047 33.2709 21.4292 29.2628 22.7617C26.397 23.7144 23.3247 25.4804 22.5497 26.2842C22.2119 26.684 22.2977 27.0579 23.0239 27.104C21.5401 27.2523 21.1927 26.0454 21.0656 25.74C20.9386 25.4346 19.208 19.6459 19.208 19.6459L16.8445 13.0648Z" fill="#1C202D"/>
</mask>
<g mask="url(#mask5_401_1582)">
<g style="mix-blend-mode:multiply" filter="url(#filter5_f_401_1582)">
<path d="M16.5694 12.852C18.0807 14.7992 20.9575 19.8139 20.3737 24.2959C16.9149 17.5442 16.3963 13.8534 16.5694 12.852Z" fill="#1C202D" fill-opacity="0.28"/>
</g>
</g>
</g>
</g>
<defs>
<filter id="filter0_d_401_1582" x="0.776991" y="3.90452" width="40.8607" height="29.872" filterUnits="userSpaceOnUse" color-interpolation-filters="sRGB">
<feFlood flood-opacity="0" result="BackgroundImageFix"/>
<feColorMatrix in="SourceAlpha" type="matrix" values="0 0 0 0 0 0 0 0 0 0 0 0 0 0 0 0 0 0 127 0" result="hardAlpha"/>
<feOffset dx="0.338709" dy="0.677419"/>
<feGaussianBlur stdDeviation="1.10081"/>
<feColorMatrix type="matrix" values="0 0 0 0 0 0 0 0 0 0 0 0 0 0 0 0 0 0 0.15 0"/>
<feBlend mode="normal" in2="BackgroundImageFix" result="effect1_dropShadow_401_1582"/>
<feBlend mode="normal" in="SourceGraphic" in2="effect1_dropShadow_401_1582" result="shape"/>
</filter>
<filter id="filter1_f_401_1582" x="1.97471" y="24.1356" width="18.95" height="8.00565" filterUnits="userSpaceOnUse" color-interpolation-filters="sRGB">
<feFlood flood-opacity="0" result="BackgroundImageFix"/>
<feBlend mode="normal" in="SourceGraphic" in2="BackgroundImageFix" result="shape"/>
<feGaussianBlur stdDeviation="0.63508" result="effect1_foregroundBlur_401_1582"/>
</filter>
<filter id="filter2_f_401_1582" x="1.68272" y="9.74595" width="5.70365" height="14.1892" filterUnits="userSpaceOnUse" color-interpolation-filters="sRGB">
<feFlood flood-opacity="0" result="BackgroundImageFix"/>
<feBlend mode="normal" in="SourceGraphic" in2="BackgroundImageFix" result="shape"/>
<feGaussianBlur stdDeviation="0.63508" result="effect1_foregroundBlur_401_1582"/>
</filter>
<filter id="filter3_d_401_1582" x="7.91157" y="3.73516" width="31.5246" height="30.8331" filterUnits="userSpaceOnUse" color-interpolation-filters="sRGB">
<feFlood flood-opacity="0" result="BackgroundImageFix"/>
<feColorMatrix in="SourceAlpha" type="matrix" values="0 0 0 0 0 0 0 0 0 0 0 0 0 0 0 0 0 0 127 0" result="hardAlpha"/>
<feOffset dx="-4.23387" dy="2.87903"/>
<feGaussianBlur stdDeviation="2.28629"/>
<feColorMatrix type="matrix" values="0 0 0 0 0 0 0 0 0 0 0 0 0 0 0 0 0 0 0.2 0"/>
<feBlend mode="normal" in2="BackgroundImageFix" result="effect1_dropShadow_401_1582"/>
<feBlend mode="normal" in="SourceGraphic" in2="effect1_dropShadow_401_1582" result="shape"/>
</filter>
<filter id="filter4_f_401_1582" x="21.0821" y="20.2308" width="19.011" height="8.10184" filterUnits="userSpaceOnUse" color-interpolation-filters="sRGB">
<feFlood flood-opacity="0" result="BackgroundImageFix"/>
<feBlend mode="normal" in="SourceGraphic" in2="BackgroundImageFix" result="shape"/>
<feGaussianBlur stdDeviation="0.63508" result="effect1_foregroundBlur_401_1582"/>
</filter>
<filter id="filter5_f_401_1582" x="15.2701" y="11.5819" width="6.45072" height="13.9842" filterUnits="userSpaceOnUse" color-interpolation-filters="sRGB">
<feFlood flood-opacity="0" result="BackgroundImageFix"/>
<feBlend mode="normal" in="SourceGraphic" in2="BackgroundImageFix" result="shape"/>
<feGaussianBlur stdDeviation="0.63508" result="effect1_foregroundBlur_401_1582"/>
</filter>
<linearGradient id="paint0_linear_401_1582" x1="11.9604" y1="26.4525" x2="11.1643" y2="29.4236" gradientUnits="userSpaceOnUse">
<stop stop-color="#61291D"/>
<stop offset="1" stop-color="#C94F34"/>
</linearGradient>
<linearGradient id="paint1_linear_401_1582" x1="3.64494" y1="-5.45506" x2="8.11131" y2="33.1169" gradientUnits="userSpaceOnUse">
<stop stop-color="#8D8F96"/>
<stop offset="1" stop-color="#8D8F96" stop-opacity="0"/>
</linearGradient>
<linearGradient id="paint2_linear_401_1582" x1="23.2702" y1="20.3142" x2="5.08838" y2="15.4424" gradientUnits="userSpaceOnUse">
<stop stop-color="#D9D9D9" stop-opacity="0"/>
<stop offset="0.508292" stop-color="#D9D9D9"/>
<stop offset="1" stop-color="#D9D9D9" stop-opacity="0"/>
</linearGradient>
<linearGradient id="paint3_linear_401_1582" x1="17.9332" y1="18.7638" x2="16.9912" y2="19.185" gradientUnits="userSpaceOnUse">
<stop stop-color="#FFED52"/>
<stop offset="0.302083" stop-color="#FFB23F"/>
<stop offset="1" stop-color="#FF5D39"/>
</linearGradient>
<linearGradient id="paint4_linear_401_1582" x1="29.9789" y1="22.501" x2="30.9492" y2="25.4199" gradientUnits="userSpaceOnUse">
<stop stop-color="#61291D"/>
<stop offset="1" stop-color="#C94F34"/>
</linearGradient>
<linearGradient id="paint5_linear_401_1582" x1="2.25782" y1="-10.6987" x2="9.80126" y2="11.9925" gradientUnits="userSpaceOnUse">
<stop stop-color="#8D8F96"/>
<stop offset="1" stop-color="#8D8F96" stop-opacity="0"/>
</linearGradient>
<linearGradient id="paint6_linear_401_1582" x1="36.044" y1="11.1523" x2="18.1819" y2="17.0903" gradientUnits="userSpaceOnUse">
<stop stop-color="#D9D9D9" stop-opacity="0"/>
<stop offset="0.508292" stop-color="#D9D9D9"/>
<stop offset="1" stop-color="#D9D9D9" stop-opacity="0"/>
</linearGradient>
<linearGradient id="paint7_linear_401_1582" x1="30.7346" y1="12.7947" x2="30.1799" y2="13.6648" gradientUnits="userSpaceOnUse">
<stop stop-color="#FFED52"/>
<stop offset="0.302083" stop-color="#FFB23F"/>
<stop offset="1" stop-color="#FF5D39"/>
</linearGradient>
</defs>
</svg>
