<svg width="15" height="15" viewBox="0 0 15 15" fill="none" xmlns="http://www.w3.org/2000/svg">
<g clip-path="url(#clip0_1502_18016)">
<path d="M12.6981 2.73099C11.7256 2.28459 10.6993 1.96627 9.64494 1.78399C9.63536 1.7822 9.62547 1.78348 9.61666 1.78764C9.60785 1.79181 9.60058 1.79864 9.59588 1.80718C9.464 2.04174 9.31794 2.34768 9.21569 2.58811C8.06275 2.41549 6.91569 2.41549 5.78644 2.58811C5.68419 2.3423 5.53281 2.04174 5.40038 1.80718C5.39547 1.79884 5.38817 1.79217 5.37941 1.78804C5.37066 1.78392 5.36087 1.78253 5.35132 1.78405C4.2968 1.96591 3.27044 2.2842 2.29806 2.73093C2.28975 2.73448 2.28274 2.74053 2.278 2.74824C0.333378 5.65349 -0.199373 8.4873 0.0620025 11.286C0.0627415 11.2928 0.0648482 11.2995 0.0681978 11.3055C0.0715473 11.3115 0.0760716 11.3168 0.0815025 11.321C1.3645 12.2633 2.60731 12.8353 3.82706 13.2144C3.83655 13.2173 3.84667 13.2171 3.85608 13.214C3.86548 13.211 3.87372 13.2051 3.87969 13.1972C4.16819 12.8032 4.42538 12.3877 4.64594 11.9508C4.64897 11.9448 4.6507 11.9383 4.65102 11.9316C4.65133 11.9249 4.65023 11.9182 4.64777 11.9119C4.64531 11.9057 4.64156 11.9 4.63677 11.8954C4.63197 11.8907 4.62624 11.8871 4.61994 11.8847C4.21194 11.73 3.8235 11.5413 3.44981 11.3271C3.443 11.323 3.43728 11.3174 3.43315 11.3107C3.42902 11.304 3.42661 11.2963 3.42615 11.2884C3.42568 11.2805 3.42716 11.2726 3.43046 11.2655C3.43376 11.2583 3.43877 11.252 3.44507 11.2472C3.52369 11.1883 3.60238 11.127 3.67744 11.0651C3.68411 11.0596 3.69219 11.0561 3.70076 11.0549C3.70932 11.0538 3.71805 11.055 3.72594 11.0585C6.18082 12.1794 8.83844 12.1794 11.2643 11.0585C11.2722 11.0548 11.281 11.0534 11.2897 11.0544C11.2984 11.0555 11.3066 11.059 11.3134 11.0645C11.3885 11.1264 11.4671 11.1883 11.5464 11.2472C11.5527 11.252 11.5577 11.2582 11.5611 11.2653C11.5644 11.2725 11.566 11.2803 11.5655 11.2882C11.5651 11.2961 11.5628 11.3037 11.5587 11.3105C11.5547 11.3173 11.549 11.3229 11.5423 11.327C11.1684 11.5453 10.7768 11.7317 10.3716 11.8841C10.3653 11.8865 10.3596 11.8902 10.3549 11.895C10.3501 11.8998 10.3464 11.9055 10.344 11.9118C10.3416 11.9181 10.3405 11.9248 10.3409 11.9315C10.3413 11.9382 10.3431 11.9448 10.3462 11.9508C10.5714 12.3871 10.8286 12.8026 11.1118 13.1966C11.1176 13.2047 11.1258 13.2108 11.1352 13.214C11.1447 13.2172 11.1549 13.2173 11.1644 13.2144C12.3901 12.8352 13.6329 12.2632 14.9159 11.321C14.9214 11.317 14.926 11.3119 14.9294 11.3059C14.9328 11.3 14.9348 11.2934 14.9354 11.2866C15.2482 8.05093 14.4116 5.24036 12.7176 2.7488C12.7135 2.74071 12.7066 2.73443 12.6981 2.73099ZM5.0125 9.58186C4.27344 9.58186 3.66444 8.9033 3.66444 8.06999C3.66444 7.23674 4.26163 6.55818 5.01256 6.55818C5.76931 6.55818 6.37238 7.24268 6.36056 8.07005C6.36056 8.9033 5.76338 9.58186 5.0125 9.58186ZM9.99675 9.58186C9.25769 9.58186 8.64869 8.9033 8.64869 8.06999C8.64869 7.23674 9.24581 6.55818 9.99675 6.55818C10.7535 6.55818 11.3566 7.24268 11.3448 8.07005C11.3448 8.9033 10.7535 9.58186 9.99675 9.58186Z" fill="#EAEBF0"/>
</g>
<defs>
<clipPath id="clip0_1502_18016">
<rect width="15" height="15" fill="white"/>
</clipPath>
</defs>
</svg>
