<svg width="14" height="14" viewBox="0 0 14 14" xmlns="http://www.w3.org/2000/svg">
<g clip-path="url(#clip0_4_3036)">
<path d="M10.2187 0.375H3.65625C1.85172 0.375 0.375 1.85108 0.375 3.65625V10.2187C0.375 12.0233 1.85172 13.5 3.65625 13.5H10.2187C12.0233 13.5 13.5 12.0233 13.5 10.2187V3.65625C13.5 1.85108 12.0233 0.375 10.2187 0.375ZM6.9375 9.67177C5.42713 9.67177 4.20307 8.44719 4.20307 6.9375C4.20307 5.42713 5.42713 4.20307 6.9375 4.20307C8.44719 4.20307 9.67193 5.42713 9.67193 6.9375C9.67193 8.44719 8.44719 9.67177 6.9375 9.67177ZM10.4922 4.20307C10.0388 4.20307 9.67193 3.83572 9.67193 3.38276C9.67193 2.92979 10.0388 2.56245 10.4922 2.56245C10.9457 2.56245 11.3126 2.92979 11.3126 3.38276C11.3126 3.83572 10.9457 4.20307 10.4922 4.20307Z" fill="currentColor"/>
</g>
<defs>
<clipPath id="clip0_4_3036">
<rect width="13.125" height="13.125" fill="white" transform="translate(0.375 0.375)"/>
</clipPath>
</defs>
</svg>
