<svg width="16" height="16" viewBox="0 0 16 16" xmlns="http://www.w3.org/2000/svg">
<g clip-path="url(#clip0_4_3026)">
<path d="M2.59779 1.2373C1.59949 1.2373 0.946777 1.89284 0.946777 2.75446C0.946777 3.59704 1.58005 4.27127 2.55949 4.27127H2.57843C3.59627 4.27127 4.2297 3.59704 4.2297 2.75446C4.21067 1.89284 3.59627 1.2373 2.59779 1.2373Z" fill="currentColor"/>
<path d="M1.11914 5.4707H4.03761V14.251H1.11914V5.4707Z" fill="currentColor"/>
<path d="M11.2013 5.26367C9.62686 5.26367 8.57114 6.7431 8.57114 6.7431V5.46975H5.65259V14.2501H8.57097V9.3468C8.57097 9.0843 8.59 8.82222 8.66711 8.63451C8.87809 8.11034 9.35822 7.56732 10.1645 7.56732C11.2205 7.56732 11.6429 8.37251 11.6429 9.55288V14.2501H14.5611V9.21559C14.5611 6.51866 13.1213 5.26367 11.2013 5.26367Z" fill="currentColor"/>
</g>
<defs>
<clipPath id="clip0_4_3026">
<rect width="14.5219" height="14.5219" fill="white" transform="translate(0.5 0.5)"/>
</clipPath>
</defs>
</svg>
