<svg width="17" height="17" viewBox="0 0 17 17" fill="none" xmlns="http://www.w3.org/2000/svg">
<g clip-path="url(#clip0_1502_18020)">
<path d="M9.58893 8.50022C9.58893 11.1663 7.44238 13.3276 4.79446 13.3276C2.14655 13.3276 0 11.1663 0 8.50022C0 5.83414 2.14655 3.67285 4.79446 3.67285C7.44235 3.67285 9.58893 5.83414 9.58893 8.50022Z" fill="#EAEBF0"/>
<path d="M14.8492 8.50017C14.8492 11.0098 13.7759 13.0443 12.4519 13.0443C11.128 13.0443 10.0547 11.0098 10.0547 8.50017C10.0547 5.99051 11.128 3.95605 12.4519 3.95605C13.7759 3.95605 14.8492 5.99051 14.8492 8.50017Z" fill="#EAEBF0"/>
<path d="M17.0007 8.50005C17.0007 10.7486 16.6232 12.5714 16.1575 12.5714C15.6919 12.5714 15.3145 10.7486 15.3145 8.50005C15.3145 6.2515 15.6919 4.42871 16.1575 4.42871C16.6232 4.42871 17.0007 6.2515 17.0007 8.50005Z" fill="#EAEBF0"/>
</g>
<defs>
<clipPath id="clip0_1502_18020">
<rect width="17" height="17" fill="white"/>
</clipPath>
</defs>
</svg>
