<svg width="12" height="12" viewBox="0 0 12 12" fill="none" xmlns="http://www.w3.org/2000/svg">
<path d="M8.63595 12C6.53229 12 4.28583 11.227 2.52938 9.4706C0.775851 7.71705 0 5.47209 0 3.36405C0 1.50619 1.50309 0 3.36405 0C3.50782 0 3.63708 0.0875156 3.69047 0.220992L5.19673 3.98662C5.26884 4.16691 5.18116 4.37149 5.00091 4.44361L3.34629 5.10544C3.46334 7.00898 4.99132 8.53687 6.89456 8.65376L7.55641 6.99914C7.62837 6.81916 7.83288 6.73116 8.0134 6.8033L11.779 8.30953C11.9125 8.36292 12 8.49218 12 8.63595C12 10.4938 10.4969 12 8.63595 12ZM3.13008 0.713203C1.78364 0.829711 0.703125 1.95879 0.703125 3.36405C0.703125 5.48299 1.52827 7.47511 3.02658 8.9734C4.52487 10.4717 6.51698 11.2969 8.63595 11.2969C10.0408 11.2969 11.1702 10.217 11.2868 8.86992L8.07867 7.58667L7.4561 9.14306C7.40273 9.27654 7.27345 9.36405 7.12969 9.36405C4.65166 9.36405 2.63595 7.34834 2.63595 4.87069C2.63595 4.72695 2.72346 4.59727 2.85694 4.5439L4.41333 3.92133L3.13008 0.713203Z" fill="#696B77"/>
</svg>
