<svg width="17" height="17" viewBox="0 0 17 17" fill="none" xmlns="http://www.w3.org/2000/svg">
<path d="M17 8.43169C17 7.40094 16.1634 6.56438 15.1327 6.56438C14.6248 6.56438 14.1766 6.75858 13.848 7.08723C12.5782 6.17598 10.8155 5.57844 8.87346 5.50375L9.72496 1.51517L12.4886 2.09778C12.5185 2.79988 13.1011 3.36755 13.8181 3.36755C14.5501 3.36755 15.1476 2.77001 15.1476 2.03802C15.1476 1.30604 14.5501 0.708496 13.8181 0.708496C13.2953 0.708496 12.8471 1.00727 12.638 1.45542L9.54569 0.798128C9.45606 0.783189 9.36643 0.798127 9.29174 0.842943C9.21705 0.887758 9.17223 0.962451 9.14236 1.05208L8.20123 5.50375C6.21441 5.56351 4.43673 6.14611 3.15202 7.08723C2.82337 6.77352 2.36028 6.56438 1.86731 6.56438C0.836555 6.56438 0 7.40094 0 8.43169C0 9.19356 0.448155 9.83591 1.10545 10.1347C1.07557 10.3139 1.06063 10.5081 1.06063 10.7023C1.06063 13.5705 4.39192 15.886 8.51494 15.886C12.638 15.886 15.9692 13.5705 15.9692 10.7023C15.9692 10.5081 15.9543 10.3289 15.9244 10.1496C16.5369 9.85085 17 9.19356 17 8.43169ZM4.22759 9.76122C4.22759 9.02924 4.82513 8.43169 5.55712 8.43169C6.2891 8.43169 6.88664 9.02924 6.88664 9.76122C6.88664 10.4932 6.2891 11.0907 5.55712 11.0907C4.82513 11.0907 4.22759 10.4932 4.22759 9.76122ZM11.652 13.2718C10.7408 14.183 9.00791 14.2428 8.5 14.2428C7.99209 14.2428 6.24429 14.1681 5.34798 13.2718C5.21353 13.1373 5.21353 12.9132 5.34798 12.7788C5.48242 12.6443 5.7065 12.6443 5.84095 12.7788C6.40861 13.3465 7.63357 13.5556 8.51494 13.5556C9.39631 13.5556 10.6063 13.3465 11.1889 12.7788C11.3234 12.6443 11.5475 12.6443 11.6819 12.7788C11.7865 12.9282 11.7865 13.1373 11.652 13.2718ZM11.413 11.0907C10.681 11.0907 10.0835 10.4932 10.0835 9.76122C10.0835 9.02924 10.681 8.43169 11.413 8.43169C12.145 8.43169 12.7425 9.02924 12.7425 9.76122C12.7425 10.4932 12.145 11.0907 11.413 11.0907Z" fill="#EAEBF0"/>
</svg>
