<svg width="13" height="13" viewBox="0 0 13 13" xmlns="http://www.w3.org/2000/svg">
<g clip-path="url(#clip0_4_3032)">
<path d="M11.628 4.09204C12.138 3.7299 12.5671 3.27787 12.9167 2.75739V2.75687C12.45 2.9612 11.9536 3.09706 11.4352 3.16291C11.9682 2.84466 12.3753 2.34456 12.5665 1.74204C12.0696 2.03834 11.5209 2.24737 10.9361 2.36442C10.4642 1.86171 9.7917 1.55078 9.05801 1.55078C7.63453 1.55078 6.48854 2.70618 6.48854 4.12234C6.48854 4.32615 6.50578 4.52211 6.54811 4.70867C4.4108 4.60415 2.5191 3.57992 1.24821 2.019C1.02664 2.40414 0.896002 2.84466 0.896002 3.31863C0.896002 4.20909 1.3543 4.99817 2.03834 5.45542C1.62499 5.44758 1.21999 5.32739 0.876667 5.13874V5.16696C0.876667 6.41642 1.76765 7.45425 2.93664 7.69358C2.72708 7.75107 2.49924 7.77824 2.26252 7.77824C2.09791 7.77824 1.93173 7.76883 1.77601 7.73434C2.10889 8.75231 3.05474 9.50115 4.17826 9.52571C3.30348 10.2098 2.1925 10.6221 0.990064 10.6221C0.779469 10.6221 0.577234 10.6127 0.375 10.5871C1.5142 11.3213 2.86348 11.7409 4.31935 11.7409C8.85682 11.7409 11.814 7.95539 11.628 4.09204Z" fill="currentColor"/>
</g>
<defs>
<clipPath id="clip0_4_3032">
<rect width="12.5417" height="12.5417" fill="white" transform="translate(0.375 0.375)"/>
</clipPath>
</defs>
</svg>
